<svg width="66" height="68" viewBox="0 0 66 68" fill="none" xmlns="http://www.w3.org/2000/svg">
<path d="M31.9962 61.1646C31.4348 60.949 30.8903 60.9399 30.3598 61.0401C29.835 61.1403 29.3157 61.3376 28.861 61.6563C28.1144 62.1815 27.3875 62.74 26.6437 63.2713C26.0992 63.6598 25.5575 64.0514 24.9877 64.3914C24.5162 64.6707 24.0138 64.9074 23.5058 65.1078C22.9444 65.3264 22.369 65.5085 21.788 65.6512C21.3811 65.7483 20.9544 65.7696 20.5334 65.7908C19.7896 65.8333 19.0515 65.7483 18.3329 65.5571C17.8698 65.4356 17.4151 65.2596 16.9801 65.0501C16.4356 64.7891 15.9023 64.4916 15.3858 64.1698C15.0294 63.9482 14.6982 63.675 14.3838 63.3866C14.0414 63.0739 13.7299 62.7188 13.4071 62.3818C13.3818 62.3545 13.3762 62.3059 13.3397 62.2088C13.4464 62.2483 13.5166 62.2574 13.5671 62.2968C14.106 62.6975 14.7066 62.9556 15.3241 63.1559C15.7591 63.2955 16.2166 63.332 16.6601 63.4413C17.2271 63.5779 17.7996 63.5384 18.3694 63.5293C19.0936 63.5171 19.8093 63.3866 20.4997 63.1589C21.0274 62.9859 21.5382 62.737 22.0519 62.5093C22.5851 62.2725 23.1156 62.0176 23.6489 61.7717C24.1373 61.547 24.6256 61.3224 25.1196 61.113C25.3694 61.0067 25.6305 60.9339 25.8859 60.8458C26.1581 60.7548 26.4304 60.6576 26.7054 60.5696C26.9131 60.5028 27.1208 60.433 27.3313 60.3905C27.9264 60.2721 28.5214 60.1173 29.122 60.0687C29.7676 60.0171 30.4216 60.0444 31.0699 60.0809C31.4713 60.1021 31.8699 60.1871 32.2628 60.2721C32.5603 60.3358 32.855 60.436 33.1441 60.5362C33.4388 60.6364 33.7027 60.6242 33.9637 60.4239C34.0788 60.3358 34.2444 60.3025 34.3903 60.2842C35.0752 60.1871 35.76 60.0718 36.4477 60.0262C37.2784 59.9716 38.1092 60.011 38.9344 60.1598C39.3723 60.2387 39.8017 60.3571 40.2339 60.4694C40.5258 60.5453 40.8149 60.6242 41.0956 60.7305C41.5166 60.8914 41.932 61.0705 42.3474 61.2556C42.8162 61.4651 43.2793 61.6897 43.7452 61.9052C44.1409 62.0874 44.5367 62.2695 44.938 62.4304C45.4012 62.6186 45.8671 62.8068 46.3414 62.9556C46.7652 63.0891 47.2003 63.1954 47.6409 63.2622C48.0199 63.3198 48.41 63.332 48.7945 63.3168C49.3699 63.2895 49.9453 63.2409 50.5179 63.165C50.8322 63.1225 51.1438 63.0284 51.4441 62.9161C51.8651 62.7552 52.2777 62.57 52.6847 62.3697C52.9064 62.2634 53.1057 62.1056 53.319 61.972C53.3499 61.9508 53.3892 61.9477 53.4256 61.9356C53.4172 61.9781 53.4228 62.0388 53.4004 62.0631C53.0467 62.4516 52.6987 62.8432 52.331 63.2136C51.8146 63.7327 51.2111 64.1243 50.5964 64.4794C50.153 64.7374 49.6618 64.9014 49.1931 65.1078C48.4549 65.4326 47.6718 65.5237 46.8859 65.5662C46.4284 65.5905 45.9625 65.6056 45.5162 65.5176C44.9521 65.4053 44.3879 65.3112 43.8322 65.123C43.1361 64.8832 42.4541 64.6039 41.8141 64.2366C41.1461 63.8541 40.5202 63.3836 39.8831 62.9343C39.2376 62.479 38.606 61.9963 37.9577 61.544C37.5619 61.2647 37.1157 61.1069 36.6441 61.0583C36.0856 61.0006 35.527 61.0522 34.932 61.1555C34.9966 61.2162 35.0274 61.2587 35.0695 61.283C35.6365 61.6047 36.2203 61.8901 36.7648 62.2452C37.6742 62.8432 38.5695 63.4625 39.42 64.1607C40.2901 64.871 41.0928 65.6603 41.9068 66.4343C42.0555 66.577 42.0583 66.6286 41.918 66.7713C41.5728 67.1143 41.2219 67.4482 40.8823 67.7973C40.742 67.9461 40.6522 67.8945 40.5427 67.767C40.0964 67.26 39.6642 66.7318 39.1898 66.2552C38.3198 65.3871 37.4497 64.5219 36.5347 63.7145C35.9059 63.162 35.2099 62.6975 34.5334 62.2118C34.2752 62.0267 34.0002 61.8627 33.7111 61.7413C33.5623 61.6806 33.3546 61.6806 33.2059 61.7413C32.8775 61.8749 32.5575 62.0418 32.2572 62.2392C31.2636 62.8918 30.3233 63.6264 29.428 64.4339C28.2856 65.466 27.2247 66.5831 26.3209 67.8671C26.1946 68.0462 26.175 68.0341 26.0178 67.8914C25.6473 67.5514 25.274 67.2145 24.8923 66.8867C24.7772 66.7865 24.7856 66.7349 24.8839 66.6347C25.6838 65.8212 26.4865 65.0137 27.351 64.276C28.2463 63.5111 29.2006 62.8432 30.1662 62.1967C30.5956 61.9083 31.0615 61.6836 31.5106 61.4287C31.6593 61.3467 31.8137 61.2647 31.9962 61.1646Z" fill="#1A1E21"/>
<path d="M49.2548 58.3319C49.2941 58.2742 49.3278 58.2074 49.3755 58.1589C50.1642 57.3787 50.7901 56.468 51.2448 55.4207C51.402 55.0565 51.576 54.7013 51.7191 54.331C51.8623 53.9606 51.983 53.5812 52.1093 53.2048C52.2412 52.8101 52.3731 52.4155 52.4966 52.0178C52.6566 51.5018 52.8081 50.9857 52.9737 50.4697C53.0804 50.1388 53.1927 49.811 53.3134 49.4892C53.434 49.1674 53.5575 48.8426 53.7035 48.533C53.9 48.1171 54.0852 47.6952 54.3294 47.3127C54.9749 46.3049 55.6486 45.3183 56.311 44.3257C56.3446 44.2741 56.4036 44.2407 56.4485 44.1982C56.4653 44.2103 56.4822 44.2224 56.499 44.2316C56.4485 44.3894 56.3895 44.5442 56.3446 44.7051C56.1734 45.291 55.977 45.8708 55.845 46.4658C55.7243 47.0061 55.6794 47.5677 55.598 48.1202C55.5419 48.5178 55.483 48.9155 55.424 49.3131C55.3763 49.6349 55.337 49.9536 55.2753 50.2724C55.1854 50.7277 55.0928 51.1861 54.9749 51.6323C54.8739 52.0178 54.7588 52.4003 54.6101 52.7646C54.321 53.4719 53.9617 54.1397 53.4958 54.7317C53.0888 55.2508 52.6482 55.7425 52.2243 56.2464C52.1878 56.2889 52.1429 56.3284 52.1036 56.3709C52.1121 56.3861 52.1233 56.4012 52.1317 56.4164C52.1766 56.3952 52.2243 56.383 52.2636 56.3527C52.6257 56.043 52.9906 55.7395 53.3414 55.4147C53.9954 54.8106 54.6999 54.2854 55.4493 53.8392C56.238 53.3687 57.0435 52.9285 57.8378 52.4702C58.5451 52.0664 59.2665 51.69 59.9541 51.2468C60.8551 50.67 61.6718 49.9688 62.3567 49.1006C62.8029 48.53 63.2015 47.9259 63.4597 47.2247C63.471 47.1973 63.4934 47.1761 63.5102 47.1518C63.5299 47.1548 63.5495 47.1548 63.5692 47.1548C63.5692 47.2641 63.5944 47.3825 63.572 47.4857C63.4766 47.9198 63.4008 48.366 63.2492 48.7758C63.0163 49.3981 62.7468 50.0052 62.4577 50.5972C62.0002 51.5443 61.3547 52.3457 60.6839 53.1137C60.058 53.8331 59.3619 54.4676 58.6181 55.0443C58.0034 55.5209 57.3354 55.8973 56.6814 56.298C56.4204 56.4589 56.1229 56.5561 55.8366 56.6744C55.598 56.7746 55.3567 56.8687 55.1125 56.9537C54.9076 57.0235 54.6971 57.0842 54.4866 57.1298C53.8803 57.2633 53.2741 57.3817 52.6678 57.5153C52.2215 57.6124 51.7753 57.7217 51.3318 57.828C50.9557 57.916 50.5824 58.001 50.2091 58.1012C49.9172 58.1771 49.6309 58.2742 49.3418 58.3592C49.3194 58.3653 49.2969 58.3653 49.2744 58.3683C49.2773 58.3592 49.266 58.344 49.2548 58.3319Z" fill="#1A1E21"/>
<path d="M3.13439 47.7076C3.19052 47.8078 3.25227 47.9049 3.29999 48.0111C3.78555 49.0979 4.5125 49.9782 5.39382 50.6976C5.90184 51.1135 6.44073 51.493 6.99927 51.8269C7.83288 52.3277 8.69174 52.7831 9.5478 53.2384C10.5414 53.7636 11.5266 54.307 12.4275 55.0051C12.9299 55.3937 13.4043 55.8217 13.9011 56.2194C14.1088 56.3833 14.3445 56.5078 14.5663 56.6504C14.5775 56.6353 14.5887 56.6201 14.5971 56.6049C14.4371 56.444 14.2828 56.2771 14.1172 56.1222C13.3762 55.4301 12.7896 54.6014 12.3181 53.6847C12.1132 53.287 11.956 52.8529 11.8185 52.4219C11.6585 51.921 11.5322 51.408 11.4115 50.8919C11.3441 50.6035 11.316 50.303 11.2711 50.0086C11.2178 49.6686 11.1645 49.3316 11.1083 48.9916C11.0634 48.7215 11.0157 48.4543 10.9764 48.1872C10.9259 47.8411 10.8978 47.489 10.8333 47.146C10.7659 46.7787 10.6873 46.4083 10.5779 46.0532C10.4403 45.6009 10.2691 45.1637 10.1148 44.7145C10.1035 44.6811 10.1232 44.6356 10.1709 44.5718C10.3197 44.7691 10.474 44.9573 10.6144 45.1637C11.1533 45.9591 11.7146 46.7392 12.2086 47.5679C12.6268 48.2692 12.9889 49.0098 13.3285 49.7596C13.5334 50.2089 13.6456 50.7067 13.8 51.1833C13.9235 51.5597 14.0526 51.9362 14.1761 52.3126C14.3052 52.7011 14.4259 53.0927 14.5606 53.4813C14.7431 54.0004 14.9199 54.5255 15.136 55.0294C15.3381 55.503 15.5598 55.9765 15.8321 56.4076C16.1577 56.9236 16.5422 57.4002 16.9127 57.8859C17.053 58.0711 17.2355 58.2168 17.3926 58.3868C17.4263 58.4232 17.4404 58.4748 17.4656 58.5234C17.4151 58.5355 17.3618 58.5659 17.3169 58.5568C17.1428 58.5173 16.9688 58.4596 16.7948 58.4111C16.545 58.3413 16.2952 58.2714 16.0454 58.2107C15.776 58.147 15.5037 58.0863 15.2343 58.0286C14.9929 57.977 14.7515 57.9284 14.5073 57.8859C14.0105 57.7979 13.5081 57.725 13.0141 57.6249C12.5735 57.5368 12.1356 57.4245 11.7006 57.3092C11.4227 57.2363 11.1448 57.1483 10.8698 57.0542C10.6312 56.9722 10.387 56.8933 10.1653 56.7749C9.68814 56.5199 9.21099 56.2679 8.76191 55.9644C8.29599 55.6487 7.8413 55.3057 7.42029 54.9232C6.83368 54.3859 6.26391 53.8243 5.73063 53.2293C5.1356 52.5676 4.63038 51.8208 4.20376 51.0194C3.92308 50.4943 3.65083 49.963 3.47962 49.3772C3.35051 48.9279 3.20456 48.4817 3.07545 48.0293C3.05019 47.9383 3.06141 47.8381 3.05861 47.744C3.08667 47.7349 3.11193 47.7197 3.13439 47.7076Z" fill="#1A1E21"/>
<path d="M45.4658 59.7318C45.6988 59.7015 45.9318 59.6832 46.1619 59.6438C46.7008 59.5436 47.2313 59.4161 47.773 59.3311C48.4691 59.2188 49.1679 59.1277 49.8668 59.0518C50.5488 58.9759 51.2337 58.9334 51.9157 58.8636C52.3592 58.8181 52.7999 58.7513 53.2405 58.6876C53.5436 58.642 53.8468 58.5965 54.1443 58.5206C54.6607 58.387 55.1828 58.2626 55.6824 58.0744C56.1511 57.8953 56.6086 57.6615 57.0465 57.4035C57.6387 57.0544 58.1439 56.5687 58.5902 56.0193C58.6154 55.9889 58.6491 55.9677 58.7221 55.9616C58.7137 56.0162 58.7137 56.0739 58.6912 56.1225C58.3095 56.9725 57.7846 57.7131 57.1756 58.3779C56.6283 58.979 56.0332 59.5254 55.3596 59.9655C54.8797 60.2812 54.3969 60.5939 53.8945 60.858C53.5043 61.0644 53.0861 61.2132 52.6735 61.3589C52.3508 61.4742 52.0168 61.5653 51.6828 61.623C51.1607 61.711 50.6359 61.8081 50.1082 61.8142C49.4879 61.8264 48.8676 61.7748 48.2501 61.6989C47.7168 61.6351 47.1864 61.4985 46.6559 61.3953C46.4061 61.3467 46.1591 61.3042 45.9121 61.2496C45.7297 61.2101 45.55 61.1646 45.3704 61.113C44.8427 60.9703 44.3151 60.8125 43.7846 60.685C43.2008 60.5423 42.6086 60.4239 42.022 60.3025C41.7497 60.2479 41.4775 60.2084 41.2052 60.1598C41.1463 60.1507 41.0845 60.1416 41.0312 60.1143C40.9975 60.0991 40.9582 60.0536 40.9582 60.0202C40.9582 59.9929 41.0059 59.9473 41.0396 59.9382C41.382 59.8502 41.7301 59.7773 42.0725 59.6832C42.3251 59.6104 42.5749 59.5193 42.8219 59.4222C43.1531 59.2916 43.4787 59.149 43.8014 59.0033C44.4301 58.721 45.0196 58.3567 45.5192 57.8588C46.3977 56.9816 47.2509 56.0739 48.107 55.1723C49.1651 54.0552 50.2457 52.9685 51.4245 52.0002C51.548 51.9 51.6744 51.7998 51.8035 51.7057C51.8512 51.6693 51.9101 51.6511 51.9663 51.6268C51.9775 51.642 51.9915 51.6571 52.0027 51.6723C51.9747 51.73 51.9522 51.7937 51.9185 51.8423C51.4751 52.4828 51.1551 53.1992 50.8379 53.9156C50.4534 54.7868 50.0885 55.6702 49.6339 56.4989C49.095 57.4764 48.3792 58.2899 47.4221 58.8333C46.9141 59.1216 46.4005 59.3645 45.8476 59.5193C45.7128 59.5557 45.5865 59.6165 45.4546 59.665C45.4574 59.6802 45.4602 59.7045 45.4658 59.7318Z" fill="#1A1E21"/>
<path d="M58.5898 37.083C58.6066 37.2317 58.6291 37.341 58.6291 37.4503C58.6291 37.769 58.601 38.0908 58.6263 38.4065C58.6712 38.962 58.747 39.5145 58.8143 40.067C58.8536 40.3948 58.8985 40.7227 58.9519 41.0505C59.0052 41.3814 59.0726 41.7123 59.1315 42.0431C59.1736 42.2799 59.2269 42.5137 59.2494 42.7504C59.342 43.7006 59.4543 44.6416 59.3139 45.6069C59.2269 46.2049 59.1231 46.7999 58.9322 47.3615C58.7498 47.9049 58.4775 48.4149 58.2418 48.94C58.1828 49.0736 58.107 49.198 58.0677 49.3589C58.0986 49.3316 58.1351 49.3073 58.1576 49.277C58.7526 48.3663 59.3476 47.4526 59.9398 46.5389C60.6163 45.4977 61.3994 44.5597 62.247 43.6763C62.9767 42.9174 63.6756 42.1251 64.2342 41.2114C64.571 40.662 64.8797 40.0852 65.1295 39.4872C65.3344 39.0015 65.4972 38.4854 65.5084 37.936C65.5084 37.8844 65.5225 37.8328 65.5337 37.7842C65.5393 37.766 65.5533 37.7539 65.5954 37.6901C65.646 37.8055 65.7161 37.8965 65.7189 37.9876C65.7273 38.7829 65.7554 39.5783 65.7133 40.3705C65.6881 40.8289 65.5589 41.2843 65.4523 41.7366C65.3597 42.1312 65.2558 42.5258 65.1127 42.9022C64.919 43.4183 64.7169 43.9313 64.4615 44.4109C64.1696 44.9604 63.8328 45.4825 63.4876 45.9955C62.9122 46.8485 62.2245 47.6044 61.4779 48.2783C60.8773 48.8216 60.2317 49.3104 59.5862 49.793C58.7891 50.388 57.9639 50.9405 57.1612 51.5263C56.6588 51.8906 56.1788 52.2852 55.6848 52.6647C55.6511 52.692 55.5978 52.6859 55.5557 52.6981C55.5473 52.6525 55.5192 52.5949 55.5333 52.5615C55.6203 52.3551 55.7269 52.1608 55.8083 51.9513C55.9851 51.5051 56.1704 51.0619 56.3107 50.6066C56.4623 50.1178 56.5746 49.6109 56.6868 49.107C56.7598 48.767 56.8047 48.4179 56.8496 48.0718C56.9142 47.5831 56.9703 47.0944 57.018 46.6026C57.0742 46.0137 57.1247 45.4248 57.1724 44.8329C57.2369 44.0345 57.2847 43.2361 57.3605 42.4408C57.4306 41.7244 57.5148 41.008 57.6215 40.2947C57.6832 39.8879 57.7927 39.4872 57.8993 39.0895C58.0032 38.704 58.1295 38.3276 58.2474 37.9481C58.326 37.6901 58.4102 37.4351 58.4944 37.1801C58.5112 37.1528 58.5337 37.1407 58.5898 37.083Z" fill="#1A1E21"/>
<path d="M11.1138 53.0319C10.9341 52.9135 10.7517 52.8012 10.5749 52.6767C9.65705 52.0332 8.73363 51.3987 7.82425 50.743C7.16186 50.2665 6.49666 49.7899 5.87356 49.2586C5.15503 48.6455 4.45054 47.9989 3.79096 47.3128C3.12576 46.6177 2.55037 45.8223 2.13217 44.9268C1.79817 44.2226 1.52591 43.4789 1.27331 42.7352C1.14139 42.3436 1.1049 41.9155 1.03193 41.4997C0.849488 40.4888 0.961758 39.4658 0.936497 38.4459C0.933691 38.3852 0.947724 38.3244 0.953338 38.2607C0.970178 38.2577 0.987019 38.2546 1.00386 38.2516C1.0207 38.3062 1.04315 38.3578 1.05157 38.4155C1.16384 39.0742 1.30137 39.7269 1.59889 40.3188C1.84027 40.8015 2.11533 41.269 2.40723 41.7152C3.06962 42.7351 3.92007 43.579 4.70595 44.4837C5.35712 45.2365 6.02232 45.9832 6.61735 46.7877C7.17589 47.5405 7.64461 48.3662 8.15825 49.1554C8.2649 49.3163 8.39401 49.4559 8.5147 49.6077C8.52874 49.5956 8.54277 49.5834 8.55681 49.5743C8.45296 49.3892 8.33507 49.2131 8.24806 49.0188C8.06563 48.606 7.88599 48.1871 7.72882 47.7621C7.41165 46.8878 7.27132 45.9711 7.26009 45.0392C7.25167 44.4442 7.32465 43.8462 7.37517 43.2512C7.40323 42.9082 7.45376 42.5682 7.50428 42.2282C7.53796 42.0036 7.58848 41.785 7.62497 41.5604C7.75969 40.7681 7.92248 39.9819 8.00949 39.1835C8.06282 38.713 7.99826 38.2273 7.98423 37.7446C7.98142 37.6961 7.97581 37.6445 7.973 37.5959C7.98704 37.5868 8.00388 37.5777 8.01791 37.5655C8.07124 37.6414 8.14702 37.7052 8.1779 37.7902C8.32385 38.1848 8.4698 38.5825 8.58768 38.9892C8.68872 39.3353 8.76731 39.6874 8.83748 40.0426C8.94414 40.589 9.03957 41.1354 9.135 41.6848C9.17429 41.9155 9.19955 42.1462 9.222 42.38C9.27814 42.9234 9.33427 43.4667 9.38199 44.0101C9.43251 44.5656 9.47461 45.1242 9.52233 45.6797C9.57846 46.308 9.6346 46.9364 9.70476 47.5617C9.75809 48.0383 9.82545 48.5119 9.89843 48.9854C9.96299 49.4074 10.0247 49.8324 10.1258 50.2452C10.2268 50.6489 10.3615 51.0436 10.5131 51.4291C10.6955 51.8935 10.9089 52.3428 11.1053 52.7981C11.1306 52.8528 11.1334 52.9196 11.1446 52.9803C11.1334 53.0046 11.1222 53.0167 11.1138 53.0319Z" fill="#1A1E21"/>
<path d="M21.4821 59.8768C21.44 59.8616 21.3979 59.8403 21.3558 59.8252C21.1537 59.7645 20.9488 59.7128 20.7467 59.6491C20.4773 59.5611 20.2107 59.473 19.9496 59.3668C19.3799 59.133 18.855 58.8143 18.4031 58.3711C17.8502 57.8338 17.3843 57.2176 17.0138 56.5164C16.7527 56.0216 16.5029 55.5177 16.2588 55.0137C15.7928 54.0515 15.3634 53.0679 14.7936 52.1664C14.7628 52.1178 14.7431 52.0601 14.6954 51.9508C14.7908 51.9812 14.8385 51.9842 14.8694 52.0085C16.1072 52.9647 17.2664 54.0211 18.361 55.1625C19.1441 55.9791 19.9272 56.7956 20.7243 57.597C21.3586 58.2345 22.0771 58.7475 22.8827 59.1027C23.4244 59.3395 23.9689 59.5702 24.5246 59.7645C24.8811 59.8889 25.2572 59.9466 25.6277 60.0377C25.6866 60.0528 25.7484 60.071 25.8073 60.0893C25.8129 60.1166 25.8185 60.1409 25.8213 60.1651C25.7203 60.2107 25.6221 60.2805 25.5154 60.2987C25.013 60.3898 24.505 60.4535 24.0054 60.5598C23.6601 60.6326 23.3261 60.7662 22.9837 60.8633C22.6469 60.9605 22.3101 61.0394 21.9705 61.1335C21.5916 61.2367 21.2155 61.343 20.8394 61.4431C20.6597 61.4917 20.4773 61.5403 20.2949 61.5797C19.1076 61.8347 17.9119 62.029 16.6994 62.0169C16.1774 62.0108 15.6553 61.9531 15.1389 61.859C14.628 61.7679 14.1172 61.6344 13.6232 61.4553C13.1461 61.2822 12.6886 61.0394 12.2311 60.8026C11.26 60.2987 10.4123 59.6005 9.64327 58.7961C8.96684 58.0888 8.39707 57.2904 7.94799 56.3889C7.94238 56.3798 7.9508 56.3646 7.95641 56.3069C8.0322 56.3616 8.10517 56.3949 8.15289 56.4526C8.64968 57.0567 9.24751 57.5181 9.9071 57.8854C10.2776 58.0918 10.6733 58.2497 11.0635 58.4045C11.3834 58.529 11.7118 58.6322 12.0402 58.7232C12.2535 58.784 12.4753 58.8143 12.6942 58.8477C13.2836 58.9327 13.873 59.0298 14.4653 59.0905C15.369 59.1816 16.2756 59.2454 17.1822 59.3213C17.6313 59.3607 18.0831 59.3911 18.5322 59.4487C18.9139 59.4973 19.29 59.5793 19.669 59.6461C20.2078 59.7432 20.7439 59.8464 21.2828 59.9436C21.3418 59.9527 21.4035 59.9344 21.4653 59.9284C21.4793 59.9102 21.4821 59.8919 21.4821 59.8768Z" fill="#1A1E21"/>
<path d="M58.1579 29.1269C58.1748 29.2179 58.186 29.312 58.2141 29.4001C58.3656 29.8281 58.5088 30.2622 58.6828 30.6781C59.1964 31.9044 59.9458 32.9851 60.5296 34.166C60.8496 34.8156 61.1527 35.4804 61.3969 36.1664C61.6271 36.8069 61.7225 37.493 61.7421 38.1851C61.759 38.7588 61.7421 39.3295 61.6327 39.8941C61.5822 40.1552 61.5176 40.4132 61.4643 40.6712C61.439 40.7957 61.4166 40.9201 61.3941 41.0446C61.4137 41.0507 61.4334 41.0567 61.453 41.0628C61.4783 40.9991 61.5092 40.9384 61.5232 40.8716C61.6664 40.1825 61.8011 39.4873 61.9498 38.7983C62.0846 38.182 62.2024 37.5567 62.3877 36.9557C62.6263 36.1907 62.9182 35.4439 63.1988 34.6941C63.4178 34.1052 63.6619 33.5285 63.8809 32.9396C64.0577 32.4599 64.2317 31.9743 64.3664 31.4795C64.4899 31.0211 64.5489 30.5415 64.6499 30.077C64.7987 29.4061 64.751 28.7322 64.7313 28.0553C64.7257 27.9066 64.6864 27.7609 64.6668 27.6151C64.6583 27.5575 64.6668 27.4937 64.6668 27.436C64.6808 27.43 64.6976 27.4239 64.7145 27.4178C64.7706 27.5089 64.8464 27.5939 64.8773 27.6941C65.0092 28.0948 65.1383 28.4985 65.2506 28.9053C65.3207 29.1542 65.3685 29.4092 65.4218 29.6611C65.6604 30.8268 65.6912 32.0107 65.6295 33.1946C65.593 33.9049 65.4526 34.6091 65.3404 35.3134C65.2814 35.6838 65.1972 36.0511 65.1046 36.4123C65.0288 36.7098 64.9362 37.0073 64.8296 37.2956C64.6443 37.7935 64.4563 38.2883 64.2401 38.7709C64.111 39.0593 63.9426 39.3325 63.7602 39.5875C62.9855 40.6894 62.194 41.7762 61.4222 42.8781C61.0966 43.3425 60.7991 43.8313 60.4847 44.3079C60.4482 44.3625 60.3893 44.402 60.3416 44.4475C60.3275 44.3746 60.2995 44.3048 60.3023 44.232C60.3303 43.6097 60.3949 42.9813 60.3837 42.359C60.3724 41.758 60.3163 41.1508 60.2125 40.5619C60.1226 40.0459 59.9346 39.5481 59.7943 39.0411C59.6708 38.607 59.5557 38.1729 59.435 37.7388C59.3003 37.2501 59.1571 36.7644 59.0364 36.2696C58.9045 35.7323 58.7951 35.1889 58.6772 34.6456C58.5789 34.1902 58.4751 33.7379 58.3965 33.2796C58.3067 32.7696 58.2309 32.2566 58.1692 31.7405C58.0765 30.9725 57.9839 30.2045 58.0344 29.4274C58.04 29.3303 58.0597 29.2331 58.0709 29.1329C58.1018 29.1269 58.1299 29.1269 58.1579 29.1269Z" fill="#1A1E21"/>
<path d="M1.78725 27.9091C1.79848 28.0731 1.82935 28.1945 1.8069 28.3007C1.64411 29.0475 1.7227 29.8003 1.84058 30.5349C1.93882 31.1542 2.13809 31.7613 2.32615 32.3593C2.49455 32.8905 2.70225 33.4066 2.90995 33.9227C3.10081 34.3962 3.31973 34.8576 3.50498 35.3342C3.71548 35.8836 3.90634 36.4422 4.09439 36.9977C4.18982 37.277 4.27683 37.5623 4.347 37.8507C4.44524 38.2514 4.52944 38.6582 4.61645 39.0589C4.75398 39.6903 4.8887 40.3217 5.02343 40.95C5.04307 41.0411 5.07114 41.1261 5.0964 41.2172C5.11324 41.2141 5.13008 41.2111 5.14692 41.205C5.1357 41.12 5.1357 41.032 5.11324 40.9531C4.85783 40.009 4.82696 39.0528 4.97852 38.0936C5.07114 37.5016 5.18902 36.9066 5.35182 36.3359C5.49496 35.832 5.69143 35.3403 5.91316 34.8698C6.23594 34.1776 6.59801 33.5037 6.95166 32.8329C7.1762 32.4049 7.44003 32.0011 7.65615 31.5701C7.81333 31.2483 7.93402 30.8992 8.04629 30.5531C8.13891 30.2739 8.19224 29.9794 8.27083 29.6941C8.28486 29.6394 8.3438 29.6 8.3831 29.5514C8.40275 29.5575 8.41959 29.5635 8.43923 29.5727C8.44765 29.6971 8.45046 29.8246 8.46169 29.9491C8.52905 30.7656 8.42801 31.5701 8.32135 32.3745C8.23434 33.018 8.16698 33.6616 8.07997 34.3051C8.04629 34.5541 7.98735 34.803 7.93402 35.0489C7.8442 35.4587 7.75158 35.8654 7.65615 36.2752C7.56914 36.6395 7.47652 37.0007 7.3839 37.362C7.29408 37.7111 7.20427 38.0602 7.10884 38.4062C7.02183 38.728 6.93482 39.0498 6.84781 39.3746C6.75799 39.7115 6.65695 40.0424 6.57556 40.3824C6.4689 40.8256 6.34821 41.2718 6.28646 41.7241C6.23033 42.1339 6.22752 42.5559 6.23875 42.9687C6.25559 43.5394 6.31453 44.1101 6.35102 44.6808C6.35663 44.7506 6.32295 44.8235 6.30611 44.8933C6.24436 44.8508 6.16296 44.8235 6.12648 44.7628C5.94685 44.4713 5.80089 44.1556 5.60723 43.8764C5.18622 43.2662 4.74556 42.6773 4.31613 42.0763C3.69584 41.2081 3.0559 40.3551 2.4721 39.4596C2.16055 38.983 1.91917 38.4457 1.77041 37.872C1.62165 37.3043 1.45606 36.7427 1.33817 36.169C1.20906 35.5437 1.12486 34.9062 1.0182 34.2778C0.849799 33.3095 0.939615 32.332 0.956455 31.3606C0.964876 30.884 1.11644 30.4105 1.20626 29.9339C1.24555 29.7244 1.28484 29.515 1.34098 29.3086C1.45606 28.8745 1.57675 28.4434 1.70024 28.0093C1.69744 27.9911 1.7227 27.9759 1.78725 27.9091Z" fill="#1A1E21"/>
<path d="M61.8739 31.1175C61.843 30.729 61.8121 30.3434 61.7785 29.9549C61.7672 29.8244 61.7336 29.6969 61.7307 29.5663C61.6971 28.0182 61.6494 26.467 61.7813 24.9188C61.8458 24.1539 61.9497 23.395 62.0002 22.63C62.0255 22.2566 61.9749 21.8772 61.9497 21.5008C61.9104 20.8724 61.8149 20.2592 61.6353 19.649C61.5062 19.218 61.3574 18.8112 61.1189 18.4409C61.1076 18.4227 61.1076 18.3923 61.1329 18.3255C61.2199 18.3862 61.3294 18.4287 61.3911 18.5137C61.6634 18.8841 61.9328 19.2605 62.177 19.649C62.4296 20.0497 62.6738 20.4596 62.8871 20.8876C63.0752 21.267 63.2324 21.6708 63.3699 22.0745C63.5271 22.5389 63.6618 23.0186 63.7825 23.4982C63.8498 23.7653 63.8891 24.0446 63.9144 24.3208C63.9761 24.9978 64.066 25.6777 64.0716 26.3577C64.0772 26.9709 64.0042 27.5902 63.934 28.2003C63.8835 28.6314 63.7909 29.0563 63.6927 29.4753C63.6337 29.7302 63.5299 29.9731 63.4429 30.222C63.3166 30.5832 63.1818 30.9445 63.0583 31.3057C62.9629 31.585 62.8619 31.8612 62.7833 32.1466C62.6486 32.6383 62.5166 33.1271 62.4044 33.6249C62.2809 34.1804 62.1826 34.742 62.0732 35.3006C62.0676 35.3309 62.0451 35.3552 62.017 35.4038C61.9834 35.3582 61.9497 35.3309 61.9413 35.2945C61.7869 34.7299 61.6634 34.1531 61.4781 33.6037C61.3294 33.1635 61.1245 32.7385 60.9112 32.3287C60.2909 31.1388 59.4938 30.0824 58.7612 28.9744C58.2756 28.2428 57.7957 27.5052 57.3606 26.7372C57.0519 26.1877 56.7909 25.6018 56.6281 24.9704C56.5579 24.6972 56.4428 24.4392 56.3586 24.169C56.3081 24.0082 56.2688 23.8473 56.2295 23.6833C56.1537 23.3646 56.078 23.0428 56.005 22.7241C55.9938 22.6816 55.9853 22.63 55.9938 22.5905C56.0022 22.5541 56.0331 22.5207 56.0555 22.4843C56.0808 22.5086 56.1173 22.5207 56.1313 22.5511C56.4092 23.0975 56.7684 23.5741 57.1782 24.0051C57.6806 24.5333 58.2195 25.0251 58.7275 25.5502C59.2945 26.1391 59.8699 26.722 60.3863 27.3625C60.7063 27.7571 60.9645 28.2276 61.175 28.7012C61.4809 29.3842 61.669 30.1188 61.7504 30.8777C61.7588 30.9627 61.7841 31.0447 61.8009 31.1297C61.829 31.1266 61.8514 31.1236 61.8739 31.1175Z" fill="#1A1E21"/>
<path d="M4.52918 35.8166C4.51795 35.762 4.4983 35.7073 4.49269 35.6527C4.45059 35.3127 4.41691 34.9697 4.36639 34.6297C4.34113 34.4537 4.29622 34.2745 4.24289 34.1046C4.08291 33.5824 3.9145 33.0664 3.7461 32.5473C3.59453 32.0768 3.44016 31.6093 3.28018 31.1418C3.15949 30.7775 3.01073 30.4193 2.91249 30.049C2.76654 29.4965 2.64866 28.9349 2.52797 28.3734C2.31746 27.3898 2.39325 26.3911 2.42412 25.3985C2.43815 24.9371 2.53639 24.4757 2.61779 24.0173C2.67392 23.6955 2.75251 23.3737 2.85636 23.0641C3.00512 22.6148 3.16791 22.1686 3.34473 21.7345C3.75171 20.7388 4.33271 19.8585 4.92212 18.9843C4.97264 18.9084 5.07369 18.8689 5.15228 18.8143C5.12982 18.9053 5.12421 19.0055 5.08491 19.0844C4.80143 19.6369 4.61338 20.2228 4.50111 20.8481C4.34674 21.7284 4.39726 22.6148 4.42252 23.4952C4.43656 23.9475 4.52357 24.3967 4.5797 24.849C4.6218 25.2042 4.66952 25.5563 4.706 25.9115C4.83511 27.2016 4.91932 28.4887 4.77617 29.7849C4.7032 30.4285 4.66952 31.0811 4.6218 31.7307C4.61899 31.7763 4.63022 31.8248 4.63583 31.8704C4.65268 31.8734 4.67232 31.8734 4.68916 31.8764C4.72846 31.673 4.77617 31.4697 4.80424 31.2663C4.89686 30.5954 5.04562 29.9488 5.30384 29.3265C5.71362 28.3278 6.31707 27.4748 7.01876 26.7068C7.7429 25.9176 8.51756 25.189 9.23889 24.3998C9.56448 24.0446 9.81428 23.6075 10.0921 23.2037C10.1623 23.1036 10.21 22.9852 10.2662 22.8759C10.2858 22.8789 10.3055 22.8789 10.3251 22.8789C10.3251 22.9791 10.3391 23.0823 10.3223 23.1764C10.269 23.4739 10.21 23.7714 10.1399 24.0659C10.0472 24.4483 9.95742 24.8308 9.83954 25.2042C9.6992 25.6626 9.55325 26.124 9.37081 26.5641C9.20802 26.9588 9.01435 27.3443 8.79262 27.7055C8.09094 28.8439 7.3696 29.967 6.65388 31.0932C6.1599 31.8734 5.69117 32.6718 5.3291 33.5369C5.12421 34.0287 4.98948 34.5569 4.83231 35.0699C4.77898 35.2459 4.76214 35.4372 4.71442 35.6163C4.69197 35.6952 4.63303 35.762 4.59093 35.8318C4.56847 35.8318 4.54883 35.8227 4.52918 35.8166Z" fill="#1A1E21"/>
<path d="M56.1957 13.8241C56.3136 13.8575 56.4343 13.8818 56.5522 13.9212C57.4054 14.2187 58.1296 14.7408 58.7751 15.4056C59.3617 16.0067 59.8305 16.7049 60.2066 17.4668C60.4087 17.8796 60.5518 18.3319 60.6837 18.7843C61.0233 19.9772 61.0149 21.2036 60.9644 22.4391C60.9195 23.5592 60.9111 24.6794 60.9026 25.7995C60.8998 26.0636 60.9672 26.3277 61.0009 26.5918C61.0093 26.6555 61.0149 26.7223 61.0065 26.7861C61.0009 26.8286 60.97 26.8711 60.9475 26.9105C60.9139 26.8802 60.8718 26.8559 60.8521 26.8164C60.4732 26.0454 59.9652 25.3867 59.3954 24.7765C58.5646 23.8871 57.6103 23.1616 56.715 22.3571C56.1508 21.8502 55.6007 21.325 55.073 20.7786C54.5931 20.2808 54.2226 19.6858 53.956 19.0241C53.7258 18.4503 53.5237 17.8614 53.3216 17.2725C53.2571 17.0843 53.2346 16.8809 53.1925 16.6867C53.1645 16.5561 53.128 16.4256 53.1055 16.292C53.0943 16.2222 53.1027 16.1524 53.1027 16.0826C53.1223 16.0795 53.1448 16.0765 53.1616 16.0735C53.243 16.2313 53.3216 16.3922 53.4058 16.5501C53.8802 17.4243 54.551 18.0891 55.292 18.6871C56.2238 19.4369 57.2455 20.0622 58.0819 20.9395C58.6629 21.5466 59.2551 22.1568 59.5919 22.9825C59.6312 23.0796 59.6873 23.1707 59.735 23.2648C59.7491 23.2587 59.7659 23.2526 59.7827 23.2496C59.735 23.1069 59.6873 22.9673 59.6452 22.8246C59.4684 22.2205 59.2888 21.6165 59.1147 21.0124C59.0165 20.6724 58.9183 20.3324 58.8341 19.9894C58.7386 19.6069 58.6657 19.2214 58.5758 18.8389C58.4888 18.4685 58.3934 18.1012 58.3008 17.7309C58.2222 17.4122 58.1548 17.0874 58.0538 16.7777C57.9247 16.3952 57.8012 16.0067 57.6103 15.6606C57.3942 15.269 57.1191 14.9108 56.8441 14.5587C56.6953 14.3675 56.4932 14.2278 56.3192 14.0578C56.2603 14.0032 56.2154 13.9303 56.1621 13.8666C56.1761 13.8484 56.1845 13.8362 56.1957 13.8241Z" fill="#1A1E21"/>
<path d="M6.58675 23.8508C6.67656 23.6656 6.76076 23.4774 6.85619 23.2953C7.41754 22.2328 8.15572 21.3343 9.0651 20.6057C9.67416 20.114 10.3029 19.6465 10.9091 19.1517C11.6164 18.5749 12.2648 17.9284 12.7195 17.0905C12.8289 16.8902 12.9131 16.6777 13.0114 16.4713C13.0254 16.4409 13.0535 16.4136 13.1265 16.3923C13.1321 16.4804 13.1489 16.5684 13.1377 16.6564C13.0731 17.2514 12.9468 17.8251 12.7588 18.3898C12.2985 19.777 11.5042 20.9184 10.5414 21.9293C9.98852 22.5121 9.40191 23.0676 8.78443 23.5685C7.85539 24.3213 7.00776 25.1561 6.30888 26.1609C6.08715 26.4796 5.9019 26.8317 5.69982 27.1657C5.65491 27.2385 5.60719 27.3083 5.55948 27.3812C5.53422 27.366 5.51176 27.3508 5.48931 27.3326C5.4837 27.2749 5.47528 27.2142 5.47808 27.1566C5.50334 26.428 5.55948 25.6995 5.55106 24.9709C5.54264 24.2424 5.45844 23.5169 5.43037 22.7883C5.40791 22.2359 5.40511 21.6834 5.42756 21.1309C5.45001 20.6331 5.49773 20.1352 5.57351 19.6404C5.62684 19.2913 5.72227 18.9453 5.83735 18.6114C5.97768 18.2016 6.14328 17.7978 6.33133 17.4123C6.44641 17.1725 6.61481 16.963 6.77199 16.7505C7.19862 16.1707 7.65892 15.6183 8.22308 15.1872C8.61602 14.8897 9.01739 14.6105 9.4833 14.4556C9.61522 14.4131 9.73872 14.3464 9.86783 14.2948C9.90432 14.2796 9.94922 14.2826 9.98852 14.2765C9.99694 14.2948 10.0054 14.313 10.0138 14.3342C9.87344 14.4647 9.72468 14.5892 9.59277 14.7288C9.1914 15.1538 8.83775 15.6152 8.61321 16.1768C8.4392 16.6139 8.25395 17.0511 8.11642 17.5034C8.00134 17.8889 7.94521 18.2987 7.86381 18.6964C7.77119 19.1335 7.68138 19.5676 7.58595 20.0017C7.50455 20.3781 7.42596 20.7606 7.33334 21.1339C7.25475 21.4587 7.16213 21.7836 7.06389 22.1023C6.90671 22.6123 6.73831 23.1162 6.57552 23.6262C6.55306 23.6929 6.55306 23.7688 6.54464 23.8387C6.55868 23.8447 6.56991 23.8478 6.58675 23.8508Z" fill="#1A1E21"/>
<path d="M49.892 10.5518C49.9678 10.5518 50.0071 10.5396 50.0352 10.5548C50.4618 10.737 50.8912 10.91 51.3122 11.1043C51.9381 11.3926 52.5556 11.6962 53.1787 11.9876C53.7401 12.2487 54.2312 12.6221 54.6972 13.044C55.208 13.5054 55.6374 14.0427 56.0247 14.6255C56.4654 15.2873 56.8134 16.0037 57.0857 16.7565C57.2737 17.2726 57.3973 17.816 57.5572 18.3441C57.6807 18.7418 57.8154 19.1334 57.9418 19.5311C57.9614 19.5918 57.9558 19.6646 57.9642 19.7314C57.9109 19.7102 57.8463 19.7011 57.8042 19.6677C56.9538 18.9907 56.1482 18.2531 55.3904 17.4547C54.627 16.6503 53.8916 15.8216 53.2489 14.9018C52.7661 14.2066 52.3255 13.4811 51.8371 12.792C51.5957 12.449 51.2926 12.1546 51.0091 11.8419C50.6807 11.4776 50.3439 11.1255 50.0155 10.7643C49.9706 10.7157 49.9453 10.6459 49.892 10.5518Z" fill="#1A1E21"/>
<path d="M8.30451 20.1232C8.40556 19.8136 8.51502 19.507 8.61045 19.1943C8.7143 18.8574 8.80411 18.5144 8.90235 18.1744C8.99497 17.8465 9.08198 17.5187 9.18303 17.1939C9.28407 16.8691 9.37108 16.5352 9.51703 16.2377C9.72753 15.8036 9.97733 15.3877 10.2215 14.9779C10.8278 13.964 11.6473 13.193 12.6157 12.6101C13.236 12.2368 13.8759 11.9059 14.5186 11.5841C14.9172 11.3868 15.341 11.2441 15.7536 11.0741C15.8883 11.0164 16.0231 10.9527 16.1578 10.8889C16.1718 10.9041 16.183 10.9193 16.1971 10.9314C16.1606 10.9952 16.1325 11.0772 16.082 11.1227C15.4982 11.6539 15.0042 12.2732 14.5495 12.9258C13.8478 13.9306 13.163 14.9475 12.4781 15.9645C11.8382 16.9176 11.0495 17.713 10.2243 18.4719C9.64894 19 9.07637 19.5343 8.50099 20.0655C8.45327 20.108 8.39433 20.1293 8.341 20.1627C8.32977 20.1505 8.31574 20.1354 8.30451 20.1232Z" fill="#1A1E21"/>
<path d="M17.5608 28.149L17.5636 30.5502L17.137 30.8052L17.1342 28.4283L17.5608 28.149Z" fill="#1A1E21"/>
<path d="M16.957 28.4802L16.9541 30.7417L16.564 30.9876V28.7443L16.957 28.4802Z" fill="#1A1E21"/>
<path d="M16.3313 28.8016L16.3342 31.0024L15.9552 31.1936L15.9524 28.9989L16.3313 28.8016Z" fill="#1A1E21"/>
<path d="M33.0565 27.1685L33.5785 26.8953V29.9127L33.0565 30.1737V27.1685Z" fill="#1A1E21"/>
<path d="M34.6731 8.03825L34.6703 7.08204L33.9265 7.06382L31.6193 4.12841L31.5997 3.55771L30.6482 3.2754L30.6398 2.92935L29.8595 2.66829C29.8595 2.66829 30.216 2.04599 29.7164 1.63011C29.7164 1.63011 29.75 1.05942 29.2729 1.03514L29.0989 0L28.9164 1.0321C28.9164 1.0321 28.4674 1.1596 28.4702 1.6635C28.4702 1.6635 27.9397 2.20688 28.473 2.7715H28.0155L27.1819 3.92502H26.7777L26.7805 4.75981L24.7905 8.18092L24.1815 8.32359L24.1843 9.08553L22.4637 10.3787L22.416 10.7764L24.2067 11.0162L27.7011 9.15231L34.7488 9.76246L36.7978 8.54823L34.6731 8.03825ZM26.8507 7.95325L24.1871 9.71086L23.8334 9.63497L27.499 7.20346L34.5692 8.04735L35.2176 8.5968L26.8507 7.95325Z" fill="#1A1E21"/>
<path d="M48.7209 16.1247V15.0197H48.3252V13.3957L47.8227 13.3714V13.7447H47.3288V13.4078L46.6439 13.4108L46.2566 12.8462L46.2117 11.8323L45.5773 12.4759L44.9486 11.8596L43.6716 11.5955L44.3199 10.9004L43.7979 10.7486L43.0822 9.78026C43.0822 9.78026 42.2542 9.7833 42.1615 9.7833L41.3448 10.952L40.8873 11.2131L41.3953 11.6168V12.0448C40.6347 12.2907 40.4017 12.7703 40.4017 12.7703L40.0004 13.1285L39.4081 13.1892L39.3576 13.9906L38.872 14.0604L38.2967 14.9924L37.5557 14.6554L37.5585 16.2673L37.376 16.2825L37.4069 17.1659L36.3628 17.7851L37.4434 18.6776L41.7882 16.9534H41.7995L48.7097 17.2266L50.7249 16.1247H48.7209ZM41.3728 15.8606L37.4434 17.521L37.508 17.4148L37.8813 16.9169L41.1876 15.302L48.0361 15.7847L48.5216 16.2946L41.3728 15.8606Z" fill="#1A1E21"/>
<path d="M34.7406 9.76886L27.6929 9.15871L27.7013 15.5972L34.8501 16.0343L34.7406 9.76886ZM31.3192 14.3921C30.2723 14.3951 29.4219 13.4753 29.4219 12.3461C29.4191 11.2138 30.2695 10.294 31.3136 10.294C32.3605 10.291 33.211 11.2108 33.211 12.34C33.2138 13.4723 32.3633 14.389 31.3192 14.3921Z" fill="#1A1E21"/>
<path d="M31.3137 13.0592C31.6785 13.0592 31.976 12.7374 31.976 12.3428C31.976 11.9481 31.6785 11.6264 31.3137 11.6264C30.9488 11.6264 30.6513 11.9481 30.6513 12.3428C30.6513 12.7374 30.9488 13.0592 31.3137 13.0592Z" fill="#1A1E21"/>
<path d="M26.1689 10.8431C25.5711 10.746 24.9564 11.6141 24.7964 12.7798C24.6336 13.9455 24.9873 14.9715 25.5851 15.0656C26.1801 15.1627 26.7976 14.2946 26.9604 13.1289C27.1204 11.9663 26.7668 10.9433 26.1689 10.8431ZM26.3149 13.0257C26.2475 13.4992 26.0005 13.8453 25.7619 13.8089C25.5206 13.7694 25.3774 13.3566 25.4448 12.8861C25.5093 12.4155 25.7591 12.0664 25.9977 12.1029C26.2363 12.1423 26.3794 12.5552 26.3149 13.0257Z" fill="#1A1E21"/>
<path d="M48.7098 22.2414L48.7042 17.2235L41.794 16.9503L41.7996 21.8832L39.7675 21.8953L39.7703 23.9079L41.3505 23.9049L41.3617 33.8252L50.8513 33.813L50.8401 24.2904L52.1677 24.2874L52.1649 22.2323L48.7098 22.2414ZM44.1601 21.8862L42.869 21.8892L42.8633 17.9248L44.1544 17.9217L44.1601 21.8862ZM46.1669 21.8832L44.9459 21.8862L44.9403 17.9187L46.1613 17.9157L46.1669 21.8832ZM47.8622 21.95L47.0089 21.953L47.0033 17.9855L47.8565 17.9824L47.8622 21.95Z" fill="#1A1E21"/>
<path d="M41.1092 18.0615L41.112 21.3885L40.1914 21.7467L40.1858 18.4531L41.1092 18.0615Z" fill="#1A1E21"/>
<path d="M39.8712 18.5326L39.8656 21.8323L39.0264 22.1905L39.032 18.9242L39.8712 18.5326Z" fill="#1A1E21"/>
<path d="M38.6814 19.109L38.6842 22.3328L38.0134 22.612L38.0078 19.4004L38.6814 19.109Z" fill="#1A1E21"/>
<path d="M35.1927 18.5988L27.912 18.2406L24.6421 19.7402L22.683 19.4336L27.4517 17.0628C27.4517 17.0628 36.3154 17.7124 36.3603 17.7124C36.4052 17.7124 35.1927 18.5988 35.1927 18.5988Z" fill="#1A1E21"/>
<path d="M35.1701 23.6537L35.1729 25.2413L36.7446 25.2383L36.7502 29.1542L31.8721 30.9938L31.8749 33.8199L29.9271 33.823L29.9158 24.8983L29.4275 23.8541L29.4247 21.8293L27.9202 22.4122L27.9146 18.2413L35.1757 18.5995L35.1813 22.3545L37.6007 22.3515V22.6884L35.2206 23.6568H35.1701V23.6537Z" fill="#1A1E21"/>
<path d="M23.219 27.1806L23.2162 27.3385L17.8778 27.1412L15.7194 28.0154L14.4845 27.6512L15.6071 27.1139L15.5622 26.2821H15.9019L15.899 25.4959L16.5418 25.4929V24.8736H17.0021L16.9993 23.7444L17.2379 24.0024L17.9003 23.711C17.9003 23.5744 17.9508 23.4499 18.035 23.3619C18.1192 23.2708 18.2315 23.2162 18.3578 23.2162H18.5093V22.9308L17.9367 22.3905L18.5935 22.3874L18.9051 21.5678L19.4692 21.5466L19.7611 22.3601L20.3814 22.3571L19.8032 22.9065L19.8145 23.2071C19.8145 23.2071 20.4712 23.1585 20.4909 23.6685L21.201 23.6654L21.2908 23.2951L21.5659 23.289L21.5406 23.8233C21.5406 23.8233 21.8746 23.9417 21.8606 24.485L22.7026 24.482V24.7613L22.0009 25.2773L21.9841 26.1425L17.8834 25.7812L16.1152 26.5857L15.8962 26.9985L17.8497 26.1698L21.9476 26.44L21.942 27.1715L23.219 27.1806Z" fill="#1A1E21"/>
<path d="M17.8776 27.1379L17.886 33.8799L23.0112 33.8739L23.0027 27.3291L17.8776 27.1379ZM19.4326 30.8018L18.6691 30.8049L18.6663 28.1487L19.4298 28.1457L19.4326 30.8018ZM21.038 30.7988L20.2634 30.8018L20.2605 28.2884L21.0352 28.2853L21.038 30.7988ZM22.4582 30.7776L21.7818 30.7806L21.779 28.3703L22.4554 28.3673L22.4582 30.7776Z" fill="#1A1E21"/>
<path d="M29.4898 36.904V37.8997H26.6718V44.6023H25.5968V37.8997H22.8322V36.904H29.4898Z" fill="#1A1E21"/>
<path d="M18.0943 36.9618V44.6024H19.1721V36.9618H18.0943Z" fill="#1A1E21"/>
<path d="M21.5745 36.9618H20.4967V44.6024H21.5745V36.9618Z" fill="#1A1E21"/>
<path d="M36.8237 42.2221C36.7283 40.9896 35.7627 40.6345 35.7627 40.6345C36.2932 40.2763 36.6441 39.6388 36.6441 38.9133C36.6441 38.3729 36.442 37.8872 36.1164 37.5351C35.7908 37.183 35.3417 36.9644 34.8421 36.9644H32.0438V44.605H34.7355C34.7355 44.605 36.2399 44.5534 36.6862 43.2845C36.6918 43.2694 36.6974 43.2542 36.703 43.239C36.7956 42.9749 36.8574 42.638 36.8237 42.2221ZM34.6962 37.6444C35.308 37.6444 35.8048 38.1817 35.8048 38.8435V38.886C35.8048 39.6449 35.2379 40.258 34.5362 40.258H32.8213V37.6444H34.6962ZM36.021 42.9021C35.9704 43.3665 35.6364 43.6215 35.3165 43.7581C34.9965 43.8977 34.6878 43.919 34.6878 43.919H32.8213V40.9411H34.5867C35.8076 41.0564 35.9536 41.7516 35.9536 41.7516C35.9536 41.7516 36.122 41.9701 36.021 42.9021Z" fill="#1A1E21"/>
<path d="M35.3163 43.7617C34.9963 43.9014 34.6876 43.9226 34.6876 43.9226L35.3163 43.7617Z" fill="#1A1E21"/>
<path d="M42.8863 36.9618V44.6024H42.0583V40.9414H38.9737V44.6024H38.1457V36.9618H38.9737V40.1461H42.0583V36.9618H42.8863Z" fill="#1A1E21"/>
<path d="M49.1144 36.9618V42.696C49.1144 43.8192 48.2752 44.7268 47.2367 44.7268H46.3638C45.2355 44.7268 44.3205 43.7372 44.3205 42.5169V36.9618H45.1681V42.2498C45.1681 43.1088 45.8137 43.807 46.608 43.807H46.8943C47.6521 43.807 48.2696 43.1422 48.2696 42.3196V36.9618H49.1144Z" fill="#1A1E21"/>
<path d="M36.425 45.7681V51.5023C36.425 52.6255 35.5858 53.5331 34.5473 53.5331H33.6744C32.5461 53.5331 31.6311 52.5435 31.6311 51.3232V45.7681H32.4787V51.0561C32.4787 51.9152 33.1242 52.6133 33.9186 52.6133H34.2048C34.9627 52.6133 35.5802 51.9485 35.5802 51.1259V45.7681H36.425Z" fill="#1A1E21"/>
<path d="M29.2231 45.8407V53.46H28.3951V47.4617L26.3687 53.46H25.6838L23.6574 47.5406V53.46H22.8294V45.8407H23.837L26.0291 52.097L28.1257 45.8407H29.2231Z" fill="#1A1E21"/>
<path d="M43.8265 45.8283V53.4689H42.9424L39.7119 47.3916V53.4689H38.8839V45.8283H39.7989L42.9986 51.9116V45.8283H43.8265Z" fill="#1A1E21"/>
</svg>
