<svg width="241" height="253" viewBox="0 0 241 253" fill="#A3CF3A" xmlns="http://www.w3.org/2000/svg">
<path d="M115.553 227.568C113.466 226.766 111.441 226.732 109.469 227.105C107.517 227.478 105.587 228.212 103.896 229.398C101.12 231.352 98.4176 233.43 95.6521 235.406C93.6276 236.852 91.6135 238.309 89.495 239.574C87.7418 240.613 85.8738 241.494 83.985 242.239C81.8979 243.052 79.7585 243.73 77.5983 244.261C76.0852 244.622 74.4989 244.701 72.9336 244.78C70.1681 244.939 67.4235 244.622 64.752 243.911C63.0301 243.459 61.3395 242.804 59.722 242.025C57.6975 241.053 55.7147 239.947 53.7945 238.749C52.4692 237.925 51.2378 236.908 50.069 235.835C48.7958 234.672 47.6375 233.351 46.4374 232.097C46.3434 231.995 46.3226 231.815 46.1869 231.453C46.5835 231.6 46.8444 231.634 47.0322 231.781C49.0359 233.272 51.2691 234.232 53.5649 234.977C55.1825 235.497 56.8835 235.632 58.5323 236.039C60.6403 236.547 62.7692 236.4 64.8877 236.366C67.5801 236.321 70.2412 235.835 72.8084 234.988C74.7703 234.345 76.6696 233.419 78.5793 232.571C80.5621 231.691 82.5344 230.742 84.5172 229.827C86.333 228.991 88.1488 228.155 89.9855 227.376C90.9143 226.981 91.8848 226.71 92.8344 226.382C93.8467 226.043 94.859 225.682 95.8817 225.355C96.6539 225.106 97.4262 224.846 98.2088 224.688C100.421 224.248 102.634 223.672 104.867 223.491C107.267 223.299 109.699 223.401 112.109 223.536C113.601 223.615 115.083 223.931 116.544 224.248C117.651 224.485 118.746 224.858 119.821 225.23C120.917 225.603 121.898 225.558 122.868 224.812C123.296 224.485 123.912 224.361 124.455 224.293C127.001 223.931 129.547 223.502 132.104 223.333C135.193 223.13 138.282 223.276 141.35 223.83C142.978 224.123 144.575 224.564 146.182 224.982C147.267 225.264 148.342 225.558 149.385 225.953C150.951 226.552 152.495 227.218 154.04 227.907C155.783 228.686 157.504 229.522 159.237 230.324C160.708 231.002 162.18 231.679 163.672 232.278C165.394 232.978 167.126 233.678 168.89 234.232C170.466 234.729 172.083 235.124 173.722 235.372C175.13 235.587 176.581 235.632 178.011 235.576C180.15 235.474 182.289 235.293 184.418 235.011C185.587 234.853 186.745 234.503 187.862 234.085C189.427 233.486 190.961 232.797 192.474 232.052C193.299 231.657 194.04 231.069 194.833 230.572C194.948 230.493 195.094 230.482 195.229 230.437C195.198 230.595 195.219 230.821 195.136 230.911C193.821 232.357 192.527 233.814 191.16 235.192C189.239 237.123 186.996 238.58 184.71 239.901C183.061 240.861 181.235 241.471 179.492 242.239C176.748 243.448 173.836 243.787 170.914 243.945C169.213 244.035 167.481 244.092 165.822 243.764C163.724 243.346 161.627 242.996 159.56 242.296C156.972 241.404 154.436 240.364 152.057 238.998C149.573 237.575 147.246 235.824 144.877 234.153C142.477 232.459 140.129 230.663 137.718 228.98C136.247 227.941 134.588 227.354 132.834 227.173C130.758 226.958 128.681 227.15 126.469 227.534C126.709 227.76 126.824 227.918 126.98 228.009C129.088 229.206 131.259 230.267 133.283 231.589C136.664 233.814 139.993 236.118 143.155 238.716C146.39 241.358 149.375 244.295 152.401 247.175C152.954 247.706 152.965 247.898 152.443 248.429C151.16 249.705 149.855 250.947 148.592 252.246C148.071 252.799 147.737 252.607 147.33 252.133C145.67 250.247 144.063 248.282 142.3 246.509C139.065 243.278 135.83 240.06 132.427 237.055C130.09 235 127.502 233.272 124.987 231.465C124.027 230.776 123.004 230.166 121.929 229.714C121.376 229.488 120.604 229.488 120.051 229.714C118.83 230.211 117.64 230.832 116.523 231.566C112.829 233.995 109.333 236.728 106.004 239.732C101.757 243.572 97.8123 247.728 94.452 252.506C93.9824 253.172 93.9093 253.127 93.3249 252.596C91.9474 251.331 90.5595 250.077 89.1402 248.858C88.7124 248.485 88.7437 248.293 89.1089 247.92C92.0831 244.893 95.0677 241.889 98.2819 239.145C101.611 236.299 105.159 233.814 108.749 231.408C110.346 230.335 112.078 229.499 113.748 228.551C114.301 228.246 114.875 227.941 115.553 227.568Z" fill="#A3CF3A"/>
<path d="M179.722 217.029C179.868 216.814 179.993 216.566 180.171 216.385C183.103 213.483 185.43 210.094 187.121 206.198C187.705 204.842 188.352 203.521 188.884 202.143C189.417 200.765 189.865 199.354 190.335 197.953C190.826 196.485 191.316 195.017 191.775 193.537C192.37 191.617 192.934 189.697 193.549 187.777C193.946 186.546 194.363 185.326 194.812 184.129C195.261 182.932 195.72 181.723 196.263 180.571C196.993 179.024 197.682 177.454 198.59 176.031C200.99 172.281 203.494 168.611 205.957 164.918C206.083 164.726 206.302 164.601 206.469 164.443C206.531 164.488 206.594 164.534 206.656 164.567C206.469 165.155 206.249 165.731 206.083 166.329C205.446 168.509 204.715 170.666 204.225 172.88C203.776 174.89 203.609 176.98 203.307 179.035C203.098 180.515 202.879 181.994 202.66 183.474C202.482 184.671 202.336 185.857 202.107 187.043C201.773 188.737 201.428 190.442 200.99 192.103C200.614 193.537 200.186 194.96 199.633 196.315C198.558 198.947 197.223 201.432 195.49 203.634C193.977 205.565 192.339 207.395 190.763 209.27C190.627 209.428 190.46 209.575 190.314 209.733C190.345 209.789 190.387 209.846 190.419 209.902C190.586 209.823 190.763 209.778 190.909 209.665C192.255 208.513 193.612 207.384 194.916 206.175C197.348 203.928 199.967 201.974 202.754 200.314C205.686 198.563 208.681 196.925 211.634 195.22C214.264 193.718 216.946 192.317 219.503 190.668C222.853 188.522 225.889 185.913 228.436 182.683C230.095 180.56 231.577 178.312 232.537 175.703C232.579 175.602 232.662 175.523 232.725 175.432C232.798 175.444 232.871 175.444 232.944 175.444C232.944 175.85 233.038 176.291 232.954 176.675C232.6 178.29 232.318 179.95 231.754 181.475C230.888 183.79 229.886 186.049 228.811 188.251C227.11 191.775 224.71 194.757 222.216 197.614C219.889 200.291 217.301 202.651 214.535 204.797C212.25 206.57 209.766 207.971 207.335 209.462C206.364 210.06 205.258 210.422 204.194 210.862C203.307 211.235 202.409 211.585 201.501 211.901C200.739 212.161 199.957 212.387 199.174 212.556C196.92 213.053 194.666 213.494 192.412 213.991C190.753 214.352 189.093 214.759 187.444 215.154C186.046 215.482 184.658 215.798 183.27 216.171C182.185 216.453 181.12 216.814 180.045 217.131C179.962 217.153 179.878 217.153 179.795 217.164C179.805 217.131 179.764 217.074 179.722 217.029Z" fill="#A3CF3A"/>
<path d="M8.24264 177.5C8.45135 177.873 8.68094 178.234 8.85835 178.63C10.6637 182.673 13.3666 185.948 16.6434 188.625C18.5322 190.172 20.5359 191.584 22.6126 192.826C25.712 194.69 28.9053 196.384 32.0882 198.078C35.7824 200.032 39.4454 202.054 42.7952 204.651C44.6632 206.097 46.4268 207.69 48.274 209.169C49.0462 209.779 49.9228 210.242 50.7472 210.773C50.789 210.716 50.8307 210.66 50.862 210.604C50.2672 210.005 49.6932 209.384 49.0775 208.808C46.3225 206.233 44.1414 203.149 42.3882 199.739C41.6264 198.259 41.042 196.644 40.5307 195.04C39.9358 193.177 39.4662 191.268 39.0175 189.348C38.767 188.275 38.6627 187.157 38.4957 186.061C38.2974 184.796 38.0992 183.543 37.8904 182.278C37.7235 181.273 37.5461 180.279 37.4 179.285C37.2121 177.997 37.1078 176.687 36.8677 175.411C36.6173 174.044 36.3251 172.666 35.9181 171.345C35.4067 169.662 34.7702 168.036 34.1962 166.364C34.1545 166.24 34.2275 166.071 34.4049 165.833C34.958 166.567 35.532 167.268 36.0538 168.036C38.0574 170.995 40.1446 173.897 41.9812 176.981C43.5362 179.59 44.8824 182.345 46.1451 185.135C46.9069 186.807 47.3243 188.659 47.8983 190.432C48.3574 191.833 48.8375 193.233 49.2967 194.634C49.7767 196.079 50.2254 197.536 50.7263 198.982C51.4047 200.913 52.0621 202.867 52.8657 204.742C53.617 206.504 54.4415 208.266 55.4537 209.869C56.6643 211.789 58.0939 213.563 59.4715 215.37C59.9932 216.059 60.6716 216.601 61.256 217.233C61.3812 217.369 61.4334 217.561 61.5273 217.741C61.3394 217.787 61.1412 217.9 60.9742 217.866C60.3272 217.719 59.6802 217.504 59.0332 217.324C58.1044 217.064 57.1756 216.804 56.2468 216.578C55.245 216.341 54.2327 216.115 53.2309 215.9C52.3334 215.708 51.436 215.528 50.5281 215.37C48.681 215.042 46.813 214.771 44.9763 214.398C43.3379 214.071 41.7099 213.653 40.0924 213.224C39.0592 212.953 38.0261 212.625 37.0034 212.275C36.1164 211.97 35.2085 211.676 34.3841 211.236C32.61 210.287 30.8359 209.35 29.1662 208.22C27.4339 207.046 25.7433 205.77 24.1779 204.347C21.9969 202.347 19.8784 200.258 17.8957 198.044C15.6833 195.582 13.8049 192.804 12.2186 189.822C11.1751 187.868 10.1628 185.892 9.52623 183.712C9.04619 182.041 8.50353 180.38 8.02349 178.697C7.92957 178.359 7.97131 177.986 7.96088 177.636C8.06523 177.602 8.15915 177.545 8.24264 177.5Z" fill="#A3CF3A"/>
<path d="M165.634 222.237C166.5 222.125 167.367 222.057 168.222 221.91C170.226 221.537 172.198 221.063 174.212 220.747C176.8 220.329 179.399 219.99 181.997 219.708C184.533 219.425 187.08 219.267 189.616 219.007C191.264 218.838 192.903 218.589 194.541 218.352C195.668 218.183 196.795 218.013 197.901 217.731C199.822 217.234 201.763 216.771 203.62 216.071C205.363 215.404 207.064 214.535 208.692 213.575C210.894 212.276 212.772 210.469 214.432 208.425C214.525 208.312 214.651 208.233 214.922 208.21C214.891 208.413 214.891 208.628 214.807 208.809C213.388 211.971 211.437 214.727 209.172 217.2C207.137 219.436 204.925 221.469 202.42 223.107C200.636 224.282 198.841 225.445 196.973 226.428C195.522 227.196 193.967 227.749 192.433 228.291C191.233 228.72 189.991 229.059 188.749 229.274C186.808 229.601 184.857 229.963 182.895 229.985C180.589 230.03 178.282 229.838 175.986 229.556C174.004 229.319 172.031 228.811 170.059 228.427C169.13 228.246 168.212 228.088 167.294 227.885C166.615 227.738 165.947 227.568 165.279 227.376C163.318 226.845 161.356 226.258 159.383 225.784C157.213 225.253 155.011 224.813 152.83 224.361C151.817 224.157 150.805 224.011 149.793 223.83C149.574 223.796 149.344 223.762 149.146 223.661C149.021 223.604 148.875 223.435 148.875 223.31C148.875 223.209 149.052 223.039 149.177 223.005C150.45 222.678 151.744 222.407 153.018 222.057C153.957 221.786 154.886 221.447 155.804 221.085C157.035 220.6 158.246 220.069 159.446 219.527C161.784 218.476 163.975 217.121 165.833 215.269C169.099 212.005 172.271 208.628 175.454 205.274C179.389 201.117 183.406 197.074 187.789 193.471C188.248 193.098 188.718 192.726 189.198 192.376C189.375 192.24 189.595 192.172 189.803 192.082C189.845 192.138 189.897 192.195 189.939 192.251C189.835 192.466 189.751 192.703 189.626 192.884C187.977 195.267 186.787 197.932 185.608 200.598C184.179 203.839 182.822 207.126 181.131 210.209C179.128 213.846 176.467 216.873 172.908 218.894C171.019 219.967 169.109 220.871 167.054 221.447C166.553 221.582 166.083 221.808 165.593 221.989C165.603 222.045 165.613 222.136 165.634 222.237Z" fill="#A3CF3A"/>
<path d="M214.43 137.971C214.493 138.524 214.576 138.931 214.576 139.337C214.576 140.523 214.472 141.72 214.566 142.895C214.733 144.962 215.015 147.017 215.265 149.073C215.411 150.293 215.578 151.512 215.776 152.732C215.975 153.963 216.225 155.194 216.444 156.425C216.601 157.306 216.799 158.176 216.883 159.057C217.227 162.592 217.644 166.093 217.123 169.685C216.799 171.91 216.413 174.123 215.703 176.213C215.025 178.234 214.013 180.132 213.136 182.086C212.917 182.583 212.635 183.046 212.489 183.644C212.604 183.543 212.74 183.452 212.823 183.339C215.035 179.951 217.248 176.551 219.45 173.152C221.965 169.278 224.876 165.788 228.028 162.502C230.741 159.678 233.34 156.73 235.416 153.331C236.669 151.286 237.817 149.141 238.745 146.916C239.507 145.108 240.112 143.188 240.154 141.144C240.154 140.952 240.206 140.76 240.248 140.579C240.269 140.512 240.321 140.467 240.478 140.229C240.666 140.659 240.926 140.997 240.937 141.336C240.968 144.295 241.073 147.254 240.916 150.202C240.822 151.908 240.342 153.602 239.945 155.285C239.601 156.753 239.215 158.221 238.683 159.622C237.963 161.542 237.211 163.45 236.262 165.235C235.176 167.279 233.924 169.222 232.641 171.13C230.501 174.304 227.944 177.116 225.169 179.624C222.935 181.645 220.535 183.464 218.135 185.259C215.171 187.473 212.103 189.529 209.118 191.708C207.25 193.064 205.466 194.532 203.629 195.944C203.504 196.045 203.306 196.023 203.149 196.068C203.118 195.898 203.014 195.684 203.066 195.56C203.389 194.792 203.786 194.069 204.088 193.289C204.746 191.629 205.435 189.98 205.956 188.286C206.52 186.468 206.937 184.582 207.355 182.707C207.626 181.442 207.793 180.143 207.96 178.856C208.2 177.037 208.409 175.219 208.586 173.389C208.795 171.198 208.983 169.007 209.16 166.805C209.4 163.834 209.578 160.864 209.859 157.905C210.12 155.239 210.433 152.574 210.83 149.92C211.059 148.406 211.466 146.916 211.863 145.436C212.249 144.002 212.719 142.601 213.157 141.189C213.449 140.229 213.762 139.281 214.075 138.332C214.138 138.23 214.222 138.185 214.43 137.971Z" fill="#A3CF3A"/>
<path d="M37.9105 197.31C37.2426 196.869 36.5643 196.451 35.9069 195.988C32.4944 193.594 29.0611 191.234 25.6799 188.794C23.2171 187.021 20.7438 185.248 18.4271 183.271C15.7556 180.99 13.1362 178.584 10.6838 176.032C8.21055 173.445 6.07123 170.486 4.51631 167.154C3.27446 164.534 2.2622 161.767 1.32299 159C0.832512 157.543 0.696848 155.95 0.42552 154.403C-0.2528 150.642 0.164628 146.836 0.0707067 143.041C0.060271 142.815 0.112449 142.589 0.133321 142.352C0.195935 142.341 0.258549 142.33 0.321163 142.318C0.383778 142.522 0.467263 142.714 0.49857 142.928C0.915998 145.379 1.42735 147.807 2.53353 150.01C3.431 151.806 4.4537 153.545 5.53901 155.205C8.00183 159 11.1638 162.14 14.0858 165.505C16.5069 168.306 18.9802 171.085 21.1925 174.078C23.2693 176.879 25.012 179.951 26.9217 182.887C27.3183 183.486 27.7983 184.005 28.2471 184.57C28.2993 184.525 28.3514 184.48 28.4036 184.446C28.0175 183.757 27.5792 183.102 27.2557 182.379C26.5774 180.843 25.9095 179.284 25.3251 177.703C24.1459 174.45 23.6241 171.04 23.5823 167.572C23.551 165.359 23.8223 163.134 24.0102 160.92C24.1145 159.644 24.3024 158.379 24.4902 157.114C24.6155 156.278 24.8033 155.465 24.939 154.629C25.4399 151.681 26.0451 148.756 26.3687 145.786C26.5669 144.035 26.3269 142.228 26.2747 140.432C26.2643 140.252 26.2434 140.06 26.233 139.879C26.2852 139.845 26.3478 139.811 26.4 139.766C26.5982 140.048 26.88 140.285 26.9948 140.602C27.5375 142.07 28.0801 143.549 28.5184 145.063C28.8941 146.35 29.1863 147.661 29.4472 148.982C29.8437 151.015 30.1986 153.048 30.5534 155.092C30.6995 155.95 30.7934 156.809 30.8769 157.678C31.0856 159.7 31.2943 161.722 31.4717 163.743C31.6596 165.81 31.8161 167.888 31.9935 169.955C32.2022 172.293 32.4109 174.631 32.6718 176.958C32.8701 178.731 33.1205 180.493 33.3919 182.255C33.6319 183.825 33.8615 185.406 34.2372 186.942C34.6129 188.444 35.1138 189.912 35.6773 191.346C36.3556 193.074 37.1487 194.746 37.8792 196.44C37.9731 196.643 37.9836 196.892 38.0253 197.118C37.9836 197.208 37.9418 197.253 37.9105 197.31Z" fill="#A3CF3A"/>
<path d="M76.4609 222.777C76.3044 222.72 76.1479 222.641 75.9913 222.585C75.2399 222.359 74.4781 222.167 73.7268 221.93C72.7249 221.602 71.7335 221.275 70.763 220.879C68.6446 220.01 66.6931 218.824 65.013 217.175C62.9571 215.176 61.2248 212.883 59.8473 210.274C58.8768 208.433 57.948 206.558 57.0401 204.684C55.3078 201.103 53.7111 197.444 51.5927 194.09C51.4779 193.909 51.4048 193.694 51.2274 193.288C51.5822 193.401 51.7596 193.412 51.8744 193.502C56.4766 197.06 60.7865 200.99 64.8564 205.237C67.768 208.275 70.6795 211.313 73.6433 214.295C76.0017 216.667 78.6733 218.575 81.6683 219.897C83.6824 220.778 85.7069 221.636 87.7732 222.359C89.0985 222.822 90.4969 223.037 91.8744 223.375C92.0936 223.432 92.3232 223.5 92.5423 223.567C92.5632 223.669 92.5841 223.759 92.5945 223.85C92.2188 224.019 91.8536 224.279 91.457 224.347C89.589 224.686 87.7002 224.923 85.8426 225.318C84.559 225.589 83.3172 226.086 82.044 226.447C80.7917 226.809 79.5395 227.102 78.2767 227.453C76.8679 227.837 75.4695 228.232 74.0712 228.605C73.4033 228.785 72.7249 228.966 72.0466 229.113C67.6323 230.062 63.1867 230.784 58.6785 230.739C56.7375 230.717 54.7964 230.502 52.8762 230.152C50.9769 229.813 49.0777 229.316 47.241 228.65C45.4669 228.006 43.7659 227.102 42.0649 226.222C38.4541 224.347 35.3025 221.749 32.4432 218.756C29.9282 216.125 27.8097 213.154 26.14 209.8C26.1191 209.766 26.1504 209.709 26.1713 209.495C26.4531 209.698 26.7244 209.822 26.9018 210.037C28.7489 212.285 30.9717 214.001 33.4241 215.368C34.8016 216.136 36.2731 216.723 37.7236 217.299C38.9133 217.762 40.1343 218.146 41.3552 218.485C42.1484 218.711 42.9728 218.824 43.7868 218.948C45.9783 219.264 48.1698 219.626 50.3717 219.852C53.732 220.19 57.1027 220.428 60.4734 220.71C62.1431 220.857 63.8233 220.97 65.493 221.184C66.9123 221.365 68.3106 221.67 69.7195 221.918C71.7231 222.28 73.7163 222.664 75.72 223.025C75.9391 223.059 76.1687 222.991 76.3983 222.969C76.4505 222.901 76.4609 222.833 76.4609 222.777Z" fill="#A3CF3A"/>
<path d="M212.824 108.369C212.887 108.708 212.929 109.058 213.033 109.386C213.597 110.978 214.129 112.593 214.776 114.14C216.686 118.703 219.472 122.724 221.643 127.117C222.832 129.534 223.959 132.008 224.867 134.56C225.723 136.943 226.078 139.496 226.151 142.071C226.213 144.206 226.151 146.329 225.744 148.43C225.556 149.401 225.316 150.361 225.118 151.321C225.024 151.784 224.94 152.247 224.857 152.71C224.93 152.733 225.003 152.755 225.076 152.778C225.17 152.541 225.285 152.315 225.337 152.066C225.869 149.503 226.37 146.916 226.923 144.352C227.424 142.06 227.862 139.733 228.551 137.497C229.438 134.651 230.523 131.872 231.567 129.083C232.381 126.892 233.289 124.746 234.103 122.555C234.76 120.77 235.407 118.963 235.908 117.122C236.367 115.417 236.587 113.632 236.962 111.904C237.515 109.408 237.338 106.901 237.265 104.382C237.244 103.829 237.098 103.287 237.025 102.745C236.994 102.53 237.025 102.293 237.025 102.078C237.077 102.056 237.14 102.033 237.202 102.01C237.411 102.349 237.693 102.666 237.808 103.038C238.298 104.529 238.778 106.031 239.195 107.545C239.456 108.471 239.634 109.419 239.832 110.357C240.719 114.694 240.834 119.099 240.604 123.503C240.469 126.146 239.947 128.766 239.529 131.387C239.31 132.765 238.997 134.131 238.653 135.475C238.371 136.582 238.027 137.689 237.63 138.762C236.941 140.614 236.242 142.455 235.439 144.251C234.959 145.324 234.332 146.34 233.654 147.289C230.774 151.389 227.831 155.432 224.961 159.532C223.751 161.26 222.644 163.078 221.476 164.851C221.34 165.055 221.121 165.201 220.943 165.371C220.891 165.1 220.787 164.84 220.797 164.569C220.902 162.254 221.142 159.916 221.1 157.6C221.058 155.364 220.85 153.105 220.463 150.914C220.129 148.994 219.43 147.142 218.908 145.256C218.449 143.641 218.021 142.026 217.573 140.411C217.072 138.592 216.54 136.785 216.091 134.944C215.6 132.945 215.193 130.924 214.755 128.902C214.39 127.208 214.004 125.525 213.712 123.82C213.378 121.922 213.096 120.013 212.866 118.093C212.522 115.236 212.177 112.379 212.365 109.487C212.386 109.126 212.459 108.764 212.501 108.392C212.616 108.369 212.72 108.369 212.824 108.369Z" fill="#A3CF3A"/>
<path d="M3.23388 103.838C3.27562 104.448 3.39041 104.9 3.30693 105.295C2.70166 108.074 2.99386 110.875 3.43216 113.608C3.7974 115.912 4.53834 118.171 5.23753 120.396C5.86367 122.372 6.63591 124.292 7.40815 126.212C8.11778 127.974 8.93177 129.691 9.62052 131.464C10.4032 133.508 11.1128 135.586 11.812 137.653C12.1668 138.692 12.4903 139.754 12.7512 140.827C13.1165 142.318 13.4296 143.831 13.7531 145.322C14.2644 147.671 14.7653 150.02 15.2662 152.358C15.3393 152.697 15.4436 153.013 15.5376 153.352C15.6002 153.341 15.6628 153.33 15.7254 153.307C15.6837 152.991 15.6837 152.663 15.6002 152.37C14.6505 148.857 14.5357 145.299 15.0993 141.73C15.4436 139.528 15.8819 137.314 16.4872 135.191C17.0194 133.316 17.7499 131.487 18.5743 129.736C19.7745 127.161 21.1207 124.654 22.4356 122.158C23.2704 120.565 24.2514 119.063 25.0549 117.459C25.6393 116.262 26.088 114.963 26.5055 113.676C26.8498 112.637 27.0481 111.541 27.3403 110.479C27.3925 110.276 27.6117 110.129 27.7578 109.949C27.8308 109.971 27.8934 109.994 27.9665 110.028C27.9978 110.491 28.0082 110.965 28.05 111.428C28.3004 114.466 27.9247 117.459 27.5282 120.452C27.2047 122.847 26.9542 125.241 26.6307 127.635C26.5055 128.561 26.2863 129.488 26.088 130.402C25.7541 131.927 25.4097 133.441 25.0549 134.965C24.7314 136.321 24.387 137.665 24.0427 139.009C23.7087 140.307 23.3748 141.606 23.02 142.894C22.6964 144.091 22.3729 145.288 22.0494 146.497C21.7155 147.75 21.3398 148.981 21.0372 150.246C20.6406 151.895 20.1919 153.555 19.9623 155.238C19.7536 156.763 19.7431 158.333 19.7849 159.869C19.8475 161.992 20.0667 164.116 20.2023 166.239C20.2232 166.499 20.098 166.77 20.0353 167.029C19.8058 166.871 19.5031 166.77 19.3675 166.544C18.6996 165.46 18.1569 164.285 17.4369 163.246C15.8715 160.976 14.2331 158.785 12.6364 156.548C10.3301 153.318 7.95081 150.145 5.78019 146.813C4.62182 145.04 3.72435 143.041 3.17126 140.906C2.61817 138.794 2.00247 136.705 1.56417 134.57C1.08412 132.243 0.771054 129.872 0.374498 127.534C-0.251644 123.931 0.082298 120.294 0.144912 116.68C0.176219 114.907 0.739747 113.145 1.07369 111.372C1.21979 110.592 1.36589 109.813 1.5746 109.045C2.00247 107.43 2.4512 105.826 2.91037 104.211C2.89994 104.143 2.99386 104.087 3.23388 103.838Z" fill="#A3CF3A"/>
<path d="M226.641 115.775C226.526 114.33 226.411 112.895 226.286 111.45C226.244 110.964 226.119 110.49 226.109 110.004C225.983 104.244 225.806 98.4728 226.296 92.7127C226.536 89.8666 226.922 87.0431 227.11 84.1969C227.204 82.8077 227.016 81.396 226.923 79.9955C226.776 77.6576 226.422 75.3762 225.754 73.106C225.274 71.5023 224.721 69.9888 223.834 68.6109C223.792 68.5432 223.792 68.4302 223.886 68.1818C224.209 68.4076 224.616 68.5658 224.846 68.882C225.858 70.2599 226.86 71.6604 227.768 73.106C228.707 74.5969 229.615 76.1216 230.408 77.714C231.107 79.1258 231.692 80.6279 232.203 82.1301C232.787 83.8581 233.288 85.6426 233.737 87.427C233.987 88.4209 234.134 89.46 234.227 90.4878C234.457 93.0064 234.791 95.5363 234.812 98.0662C234.833 100.348 234.561 102.652 234.301 104.922C234.113 106.526 233.768 108.107 233.403 109.665C233.184 110.614 232.798 111.518 232.474 112.444C232.005 113.788 231.504 115.132 231.045 116.476C230.69 117.515 230.314 118.543 230.022 119.604C229.521 121.434 229.031 123.252 228.613 125.104C228.154 127.171 227.789 129.261 227.382 131.339C227.361 131.452 227.277 131.542 227.173 131.723C227.048 131.553 226.922 131.452 226.891 131.316C226.317 129.216 225.858 127.07 225.169 125.025C224.616 123.388 223.854 121.807 223.061 120.282C220.755 115.855 217.791 111.924 215.068 107.802C213.262 105.08 211.478 102.335 209.86 99.4779C208.712 97.4337 207.742 95.2539 207.136 92.9047C206.876 91.8883 206.448 90.9282 206.135 89.9231C205.947 89.3245 205.801 88.7259 205.655 88.116C205.373 86.9301 205.091 85.7329 204.82 84.547C204.778 84.3889 204.747 84.1969 204.778 84.0501C204.809 83.9146 204.924 83.7903 205.008 83.6548C205.101 83.7451 205.237 83.7903 205.289 83.9033C206.322 85.9362 207.658 87.7094 209.182 89.3132C211.05 91.2784 213.053 93.108 214.942 95.0619C217.05 97.253 219.19 99.4215 221.11 101.805C222.299 103.273 223.26 105.023 224.042 106.785C225.18 109.326 225.879 112.06 226.182 114.883C226.213 115.199 226.307 115.504 226.369 115.821C226.474 115.809 226.557 115.798 226.641 115.775Z" fill="#A3CF3A"/>
<path d="M13.4286 133.259C13.3868 133.056 13.3138 132.852 13.2929 132.649C13.1364 131.384 13.0111 130.108 12.8233 128.843C12.7294 128.188 12.5624 127.521 12.3641 126.889C11.7693 124.946 11.1432 123.026 10.517 121.095C9.95349 119.344 9.37953 117.605 8.78469 115.866C8.33596 114.511 7.78287 113.178 7.41762 111.8C6.87496 109.744 6.43666 107.655 5.98793 105.566C5.20525 101.906 5.48702 98.1905 5.60181 94.4973C5.65399 92.7806 6.01924 91.0639 6.32187 89.3584C6.53058 88.1612 6.82278 86.9641 7.2089 85.812C7.762 84.1405 8.36727 82.4803 9.02471 80.8652C10.5379 77.1607 12.6981 73.8854 14.8896 70.6327C15.0774 70.3503 15.4531 70.2035 15.7453 70.0002C15.6618 70.339 15.6409 70.7117 15.4948 71.0054C14.4408 73.0609 13.7416 75.2407 13.3242 77.5673C12.7503 80.8426 12.9381 84.1405 13.032 87.4158C13.0842 89.0987 13.4077 90.7702 13.6164 92.453C13.773 93.7744 13.9504 95.0846 14.086 96.406C14.5661 101.206 14.8791 105.995 14.3469 110.817C14.0756 113.212 13.9504 115.64 13.773 118.057C13.7625 118.226 13.8043 118.407 13.8251 118.576C13.8877 118.588 13.9608 118.588 14.0234 118.599C14.1695 117.842 14.3469 117.086 14.4513 116.329C14.7957 113.833 15.3487 111.427 16.3088 109.112C17.8324 105.396 20.0761 102.223 22.685 99.3651C25.3774 96.4286 28.2577 93.718 30.9397 90.7815C32.1502 89.4601 33.079 87.8337 34.1121 86.3316C34.373 85.9589 34.5504 85.5184 34.7591 85.1118C34.8322 85.1231 34.9052 85.1231 34.9783 85.1231C34.9783 85.4958 35.0305 85.8798 34.9678 86.2299C34.7696 87.3368 34.5504 88.4436 34.2895 89.5391C33.9452 90.9622 33.6112 92.3853 33.1729 93.7744C32.6511 95.4799 32.1085 97.1966 31.4301 98.8342C30.8249 100.302 30.1048 101.737 29.2804 103.081C26.6715 107.316 23.9895 111.495 21.3284 115.685C19.4917 118.588 17.749 121.558 16.4028 124.777C15.6409 126.607 15.14 128.572 14.5556 130.481C14.3574 131.136 14.2947 131.847 14.1173 132.514C14.0338 132.807 13.8147 133.056 13.6582 133.315C13.5747 133.315 13.5016 133.282 13.4286 133.259Z" fill="#A3CF3A"/>
<path d="M205.529 51.4338C205.967 51.558 206.416 51.6483 206.854 51.7952C210.027 52.902 212.719 54.8446 215.119 57.318C217.3 59.5543 219.043 62.1519 220.441 64.9868C221.193 66.5228 221.725 68.2056 222.216 69.8885C223.478 74.3271 223.447 78.8899 223.259 83.4867C223.092 87.6542 223.061 91.8218 223.03 95.9893C223.019 96.9719 223.27 97.9545 223.395 98.9371C223.426 99.1743 223.447 99.4228 223.416 99.6599C223.395 99.8181 223.28 99.9762 223.197 100.123C223.071 100.01 222.915 99.9197 222.842 99.7729C221.433 96.9042 219.544 94.4533 217.426 92.1832C214.337 88.874 210.788 86.1747 207.46 83.1817C205.362 81.2956 203.317 79.3417 201.355 77.3087C199.57 75.4565 198.193 73.2428 197.201 70.7807C196.345 68.6461 195.594 66.455 194.843 64.264C194.603 63.5637 194.519 62.807 194.363 62.0842C194.258 61.5985 194.123 61.1129 194.039 60.6159C193.997 60.3562 194.029 60.0964 194.029 59.8366C194.102 59.8253 194.185 59.814 194.248 59.8028C194.551 60.3901 194.843 60.9886 195.156 61.5759C196.919 64.8287 199.414 67.3021 202.169 69.527C205.633 72.3167 209.432 74.6433 212.542 77.9073C214.702 80.1662 216.904 82.4363 218.156 85.5083C218.302 85.8697 218.511 86.2086 218.688 86.5587C218.74 86.5361 218.803 86.5135 218.866 86.5022C218.688 85.9714 218.511 85.4519 218.354 84.921C217.697 82.6735 217.029 80.4259 216.382 78.1784C216.017 76.9135 215.652 75.6485 215.338 74.3723C214.984 72.9492 214.712 71.5148 214.378 70.0918C214.055 68.7139 213.7 67.3473 213.356 65.9694C213.063 64.7835 212.813 63.575 212.437 62.423C211.957 60.9999 211.498 59.5543 210.788 58.2667C209.985 56.8098 208.962 55.4771 207.94 54.167C207.386 53.4554 206.635 52.9359 205.988 52.3034C205.769 52.1001 205.602 51.8291 205.404 51.5919C205.456 51.5241 205.487 51.4789 205.529 51.4338Z" fill="#A3CF3A"/>
<path d="M21.0788 88.739C21.4127 88.05 21.7258 87.3498 22.0806 86.6722C24.1677 82.7192 26.9123 79.3761 30.2935 76.6655C32.558 74.8358 34.8956 73.0965 37.1497 71.2556C39.7795 69.1097 42.1902 66.704 43.8808 63.5868C44.2878 62.8414 44.6008 62.0508 44.9661 61.2828C45.0183 61.1699 45.1226 61.0682 45.3939 60.9892C45.4148 61.3167 45.4774 61.6442 45.4357 61.9718C45.1957 64.1854 44.7261 66.32 44.0269 68.4208C42.3154 73.5822 39.3621 77.8288 35.7827 81.5898C33.7268 83.7583 31.5458 85.8251 29.2499 87.6886C25.7957 90.4896 22.6441 93.5955 20.0456 97.3339C19.2212 98.5198 18.5325 99.8299 17.7811 101.072C17.6141 101.343 17.4367 101.603 17.2593 101.874C17.1654 101.818 17.0819 101.761 16.9984 101.693C16.9775 101.479 16.9462 101.253 16.9567 101.038C17.0506 98.3278 17.2593 95.6172 17.228 92.9066C17.1967 90.1959 16.8836 87.4966 16.7793 84.786C16.6958 82.7305 16.6853 80.6749 16.7688 78.6194C16.8523 76.7672 17.0297 74.9149 17.3115 73.074C17.5098 71.7751 17.8646 70.4876 18.2924 69.2452C18.8142 67.7205 19.4299 66.2184 20.1291 64.784C20.557 63.8918 21.1831 63.1125 21.7675 62.3219C23.3538 60.1647 25.0652 58.1091 27.1628 56.5054C28.6238 55.3985 30.1161 54.3595 31.8484 53.7835C32.3389 53.6254 32.7981 53.3769 33.2781 53.1849C33.4138 53.1284 33.5807 53.1397 33.7268 53.1171C33.7581 53.1849 33.7894 53.2527 33.8208 53.3317C33.299 53.8174 32.7459 54.2804 32.2554 54.8C30.7631 56.3811 29.4482 58.0979 28.6133 60.1873C27.9663 61.8137 27.2776 63.44 26.7662 65.1228C26.3384 66.5572 26.1296 68.0819 25.827 69.5615C25.4826 71.1878 25.1487 72.8029 24.7939 74.418C24.4912 75.8184 24.199 77.2415 23.8547 78.6307C23.5625 79.8392 23.2181 81.0477 22.8528 82.2335C22.2684 84.131 21.6423 86.0058 21.037 87.9032C20.9535 88.1517 20.9535 88.4341 20.9222 88.6938C20.9744 88.7164 21.0162 88.7277 21.0788 88.739Z" fill="#A3CF3A"/>
<path d="M182.091 39.2588C182.373 39.2588 182.519 39.2137 182.623 39.2701C184.21 39.9478 185.806 40.5915 187.372 41.3144C189.699 42.3873 191.995 43.5167 194.311 44.601C196.398 45.5723 198.225 46.9615 199.957 48.5314C201.856 50.2481 203.453 52.2472 204.893 54.4156C206.532 56.8778 207.826 59.5432 208.838 62.3442C209.537 64.2642 209.996 66.2858 210.591 68.251C211.05 69.7306 211.551 71.1875 212.021 72.667C212.094 72.8929 212.073 73.164 212.104 73.4125C211.906 73.3334 211.666 73.2995 211.509 73.1753C208.347 70.6567 205.352 67.9122 202.535 64.9418C199.696 61.9489 196.962 58.8656 194.572 55.4434C192.777 52.857 191.139 50.1577 189.323 47.5939C188.426 46.3177 187.299 45.2222 186.245 44.0589C185.024 42.7036 183.771 41.3934 182.55 40.0494C182.383 39.8687 182.289 39.609 182.091 39.2588Z" fill="#A3CF3A"/>
<path d="M27.4656 74.8702C27.8413 73.7182 28.2482 72.5775 28.6031 71.4142C28.9892 70.1605 29.3231 68.8843 29.6884 67.6194C30.0328 66.3996 30.3563 65.1798 30.7319 63.9713C31.1076 62.7628 31.4311 61.5205 31.9738 60.4137C32.7565 58.7986 33.6852 57.2513 34.5932 55.7266C36.8473 51.9543 39.8945 49.0856 43.4948 46.9171C45.8011 45.5279 48.1804 44.2969 50.5702 43.0997C52.0521 42.3655 53.6279 41.8347 55.1619 41.2022C55.6628 40.9877 56.1637 40.7505 56.6646 40.5133C56.7168 40.5698 56.7586 40.6262 56.8107 40.6714C56.6751 40.9086 56.5707 41.2135 56.3829 41.383C54.2122 43.3594 52.3756 45.6635 50.685 48.0917C48.0761 51.8301 45.5298 55.6136 42.9834 59.3972C40.6041 62.9436 37.6717 65.9026 34.6036 68.7262C32.4643 70.6914 30.3354 72.6791 28.1961 74.6556C28.0187 74.8137 27.7995 74.8928 27.6012 75.017C27.5595 74.9719 27.5073 74.9154 27.4656 74.8702Z" fill="#A3CF3A"/>
<path d="M61.8812 104.731L61.8917 113.665L60.3054 114.613L60.295 105.77L61.8812 104.731Z" fill="#A3CF3A"/>
<path d="M59.636 105.963L59.6256 114.377L58.175 115.292V106.946L59.636 105.963Z" fill="#A3CF3A"/>
<path d="M57.31 107.159L57.3204 115.347L55.9116 116.059L55.9012 107.893L57.31 107.159Z" fill="#A3CF3A"/>
<path d="M119.495 101.083L121.436 100.066V111.293L119.495 112.264V101.083Z" fill="#A3CF3A"/>
<path d="M125.506 29.907L125.495 26.3493L122.73 26.2816L114.152 15.3601L114.079 13.2368L110.541 12.1864L110.51 10.8989L107.609 9.92759C107.609 9.92759 108.934 7.61228 107.076 6.06498C107.076 6.06498 107.202 3.94167 105.428 3.85132L104.781 0L104.102 3.84002C104.102 3.84002 102.433 4.31438 102.443 6.18922C102.443 6.18922 100.471 8.21087 102.453 10.3116H100.752L97.6531 14.6034H96.1503L96.1608 17.7093L88.7619 30.4378L86.4973 30.9687L86.5077 33.8035L80.1107 38.6148L79.9333 40.0944L86.5912 40.9866L99.5837 34.052L125.788 36.3221L133.406 31.8044L125.506 29.907ZM96.4217 29.5908L86.5182 36.1301L85.2033 35.8478L98.8323 26.8011L125.12 29.9409L127.53 31.9851L96.4217 29.5908Z" fill="#A3CF3A"/>
<path d="M177.737 59.9932V55.8821H176.265V49.8397L174.397 49.7494V51.1385H172.561V49.8849L170.014 49.8962L168.574 47.7955L168.407 44.0232L166.049 46.4176L163.711 44.1249L158.963 43.1423L161.374 40.5559L159.433 39.9912L156.772 36.3883C156.772 36.3883 153.693 36.3996 153.349 36.3996L150.312 40.7479L148.611 41.7192L150.5 43.2213V44.8138C147.672 45.7286 146.805 47.5131 146.805 47.5131L145.313 48.8458L143.111 49.0717L142.923 52.0534L141.118 52.3131L138.979 55.7805L136.224 54.5268L136.234 60.524L135.556 60.5805L135.671 63.8671L131.789 66.1711L135.806 69.4916L151.961 63.0765H152.002L177.695 64.093L185.188 59.9932H177.737ZM150.416 59.0106L135.806 65.1885L136.046 64.7932L137.434 62.941L149.727 56.9325L175.191 58.7282L176.996 60.6257L150.416 59.0106Z" fill="#A3CF3A"/>
<path d="M125.757 36.3459L99.5532 34.0758L99.5845 58.0308L126.164 59.6571L125.757 36.3459ZM113.036 53.547C109.144 53.5583 105.982 50.1361 105.982 45.9347C105.971 41.7219 109.133 38.2998 113.015 38.2998C116.908 38.2885 120.07 41.7106 120.07 45.9121C120.08 50.1248 116.918 53.5357 113.036 53.547Z" fill="#A3CF3A"/>
<path d="M113.015 48.5877C114.372 48.5877 115.478 47.3905 115.478 45.9223C115.478 44.4541 114.372 43.2569 113.015 43.2569C111.659 43.2569 110.553 44.4541 110.553 45.9223C110.553 47.3905 111.659 48.5877 113.015 48.5877Z" fill="#A3CF3A"/>
<path d="M93.8868 40.3427C91.664 39.9813 89.3786 43.2114 88.7838 47.5484C88.1785 51.8854 89.4934 55.7028 91.7162 56.0529C93.9286 56.4143 96.2244 53.1842 96.8297 48.8472C97.4245 44.5215 96.1096 40.7154 93.8868 40.3427ZM94.4295 48.4632C94.179 50.2251 93.2607 51.5126 92.3737 51.3771C91.4762 51.2303 90.944 49.6943 91.1944 47.9437C91.4344 46.1931 92.3632 44.8943 93.2503 45.0298C94.1373 45.1766 94.6695 46.7126 94.4295 48.4632Z" fill="#A3CF3A"/>
<path d="M177.696 82.751L177.675 64.0817L151.982 63.0652L152.003 81.4183L144.447 81.4634L144.458 88.9515L150.333 88.9402L150.375 125.85L185.658 125.804L185.616 90.3746L190.552 90.3633L190.542 82.7171L177.696 82.751ZM160.779 81.4296L155.979 81.4409L155.958 66.6907L160.758 66.6794L160.779 81.4296ZM168.241 81.4183L163.701 81.4296L163.68 66.6681L168.22 66.6568L168.241 81.4183ZM174.544 81.6667L171.372 81.678L171.351 66.9165L174.523 66.9052L174.544 81.6667Z" fill="#A3CF3A"/>
<path d="M149.436 67.1995L149.446 79.5779L146.023 80.9106L146.003 68.6565L149.436 67.1995Z" fill="#A3CF3A"/>
<path d="M144.833 68.9521L144.812 81.2288L141.692 82.5616L141.713 70.409L144.833 68.9521Z" fill="#A3CF3A"/>
<path d="M140.409 71.0966L140.42 83.091L137.926 84.1301L137.905 72.1808L140.409 71.0966Z" fill="#A3CF3A"/>
<path d="M127.438 69.1984L100.368 67.8657L88.2101 73.4451L80.926 72.3043L98.6562 63.4836C98.6562 63.4836 131.612 65.9005 131.779 65.9005C131.946 65.9005 127.438 69.1984 127.438 69.1984Z" fill="#A3CF3A"/>
<path d="M127.354 88.0058L127.364 93.9126L133.208 93.9013L133.229 108.471L115.092 115.315L115.102 125.83L107.86 125.841L107.818 92.6364L106.002 88.7512L105.992 81.218L100.398 83.3865L100.377 67.8682L127.375 69.201L127.396 83.1719L136.391 83.1606V84.4142L127.542 88.0171H127.354V88.0058Z" fill="#A3CF3A"/>
<path d="M82.9189 101.128L82.9085 101.715L63.0598 100.981L55.0348 104.234L50.4431 102.879L54.6173 100.88L54.4504 97.7849H55.7131L55.7027 94.8597L58.0924 94.8484V92.5444H59.8039L59.7934 88.343L60.6805 89.303L63.1433 88.2187C63.1433 87.7105 63.3311 87.2474 63.6442 86.9199C63.9573 86.5811 64.3747 86.3778 64.8443 86.3778H65.4078V85.3161L63.279 83.3057L65.7209 83.2945L66.8793 80.245L68.9769 80.166L70.0622 83.1928L72.3685 83.1815L70.2187 85.2258L70.2604 86.3439C70.2604 86.3439 72.7024 86.1632 72.7754 88.0606L75.4157 88.0493L75.7496 86.6714L76.7723 86.6488L76.6784 88.6366C76.6784 88.6366 77.9202 89.0771 77.8681 91.0987L80.9988 91.0874V92.1265L78.3899 94.0465L78.3272 97.2654L63.0807 95.9214L56.5062 98.9143L55.6922 100.45L62.9555 97.367L78.1916 98.3722L78.1707 101.094L82.9189 101.128Z" fill="#A3CF3A"/>
<path d="M63.0591 100.969L63.0904 126.053L82.146 126.031L82.1147 101.68L63.0591 100.969ZM68.8405 114.601L66.002 114.612L65.9916 104.73L68.8301 104.719L68.8405 114.601ZM74.8097 114.59L71.9295 114.601L71.919 105.249L74.7993 105.238L74.8097 114.59ZM80.0902 114.511L77.5752 114.522L77.5648 105.554L80.0798 105.543L80.0902 114.511Z" fill="#A3CF3A"/>
<path d="M106.234 137.305V141.009H95.7565V165.947H91.7597V141.009H81.4805V137.305H106.234Z" fill="#A3CF3A"/>
<path d="M63.8647 137.52V165.947H67.872V137.52H63.8647Z" fill="#A3CF3A"/>
<path d="M76.8044 137.52H72.7971V165.947H76.8044V137.52Z" fill="#A3CF3A"/>
<path d="M133.502 157.091C133.147 152.506 129.557 151.184 129.557 151.184C131.53 149.851 132.834 147.48 132.834 144.78C132.834 142.77 132.083 140.963 130.872 139.653C129.662 138.343 127.992 137.529 126.134 137.529H115.73V165.957H125.738C125.738 165.957 131.331 165.765 132.991 161.044C133.012 160.987 133.032 160.931 133.053 160.875C133.398 159.892 133.627 158.638 133.502 157.091ZM125.592 140.059C127.867 140.059 129.714 142.058 129.714 144.521V144.679C129.714 147.502 127.606 149.784 124.997 149.784H118.621V140.059H125.592ZM130.517 159.621C130.33 161.349 129.088 162.298 127.898 162.806C126.708 163.325 125.561 163.404 125.561 163.404H118.621V152.325H125.185C129.724 152.754 130.267 155.34 130.267 155.34C130.267 155.34 130.893 156.154 130.517 159.621Z" fill="#A3CF3A"/>
<path d="M127.898 162.819C126.708 163.339 125.56 163.418 125.56 163.418L127.898 162.819Z" fill="#A3CF3A"/>
<path d="M156.043 137.52V165.947H152.965V152.326H141.496V165.947H138.417V137.52H141.496V149.367H152.965V137.52H156.043Z" fill="#A3CF3A"/>
<path d="M179.2 137.52V158.854C179.2 163.033 176.08 166.41 172.218 166.41H168.973C164.778 166.41 161.376 162.728 161.376 158.188V137.52H164.527V157.194C164.527 160.39 166.928 162.988 169.881 162.988H170.945C173.763 162.988 176.059 160.515 176.059 157.454V137.52H179.2Z" fill="#A3CF3A"/>
<path d="M132.02 170.284V191.619C132.02 195.798 128.899 199.175 125.038 199.175H121.793C117.598 199.175 114.196 195.493 114.196 190.953V170.284H117.347V189.959C117.347 193.155 119.747 195.753 122.701 195.753H123.765C126.583 195.753 128.879 193.279 128.879 190.218V170.284H132.02Z" fill="#A3CF3A"/>
<path d="M105.243 170.554V198.903H102.164V176.585L94.6295 198.903H92.0832L84.5487 176.879V198.903H81.4701V170.554H85.2165L93.3668 193.832L101.162 170.554H105.243Z" fill="#A3CF3A"/>
<path d="M159.539 170.508V198.936H156.252L144.241 176.325V198.936H141.162V170.508H144.564L156.461 193.142V170.508H159.539Z" fill="#A3CF3A"/>
</svg>
