<svg width="126" height="91" viewBox="0 0 126 91" fill="none" xmlns="http://www.w3.org/2000/svg">
<path opacity="0.75" fill-rule="evenodd" clip-rule="evenodd" d="M100.818 0.0681121C100.818 0.107646 101.267 0.59564 101.815 1.15246C103.535 2.89937 104.741 4.40558 107.295 7.9956C108.739 10.0269 108.984 10.3238 110.147 11.4566C111.294 12.574 111.884 13.0916 113.414 14.3236C113.948 14.7536 114.773 15.4335 115.248 15.8346C116.158 16.6036 116.383 16.7276 116.151 16.3327C115.952 15.9941 115.488 14.5855 115.067 13.0441C114.401 10.6003 114.003 9.61637 113.118 8.22257C112.283 6.90727 111.637 6.07221 110.858 5.30257C108.91 3.37833 106.405 1.98026 101.79 0.241322C101.133 -0.00605213 100.818 -0.0622232 100.818 0.0681121ZM23.595 0.644559C19.2068 2.36409 16.893 3.6663 15.0664 5.44435C14.178 6.30927 13.2634 7.53256 12.3449 9.08422C11.8426 9.933 11.2852 11.3955 10.9035 12.8663C10.5501 14.2286 10.1709 15.4522 9.87183 16.1954C9.77236 16.4426 9.70666 16.6603 9.7258 16.6792C9.74494 16.6981 10.0153 16.5015 10.3265 16.2422C10.6378 15.983 11.409 15.3493 12.0402 14.834C15.7131 11.8365 16.508 11.0197 18.5222 8.17336C20.9616 4.7262 22.1531 3.23107 23.8999 1.42543C24.4447 0.862282 24.8905 0.37436 24.8905 0.341083C24.8905 0.206695 24.4479 0.310295 23.595 0.644559ZM57.7805 0.467079C50.4608 1.02625 44.3042 3.44495 38.8166 7.91731C37.8004 8.74547 33.2405 13.1958 32.2522 14.3239C28.202 18.947 25.6567 24.2884 24.6452 30.287C24.2345 32.7225 24.1708 33.8112 24.1708 38.393C24.1708 42.9747 24.2345 44.0634 24.6452 46.4989C25.6673 52.5607 28.2788 57.9837 32.4179 62.6397C33.4094 63.7551 37.8322 68.0625 38.7806 68.8367C42.105 71.55 45.5797 73.4517 49.5977 74.757C51.6361 75.4193 53.6691 75.8625 56.0533 76.1645C57.1353 76.3015 57.6766 76.3173 62.1474 76.3429C67.5254 76.3737 68.4376 76.3282 70.9905 75.9017C77.168 74.8696 82.9518 72.0675 87.6119 67.8492C88.9635 66.6257 92.5772 62.979 93.3732 62.0353C97.2794 57.4042 99.7274 52.0897 100.669 46.1957C101.037 43.8945 101.07 43.2554 101.07 38.4285C101.07 33.603 101.031 32.8383 100.67 30.5902C99.6514 24.2474 96.8038 18.3981 92.4571 13.7195C91.1239 12.2846 87.2847 8.59103 86.3163 7.81158C81.9092 4.26486 76.8715 1.94627 71.4187 0.955001C68.9283 0.502347 68.4847 0.4759 63.0703 0.458408C60.339 0.44952 57.9587 0.453427 57.7805 0.467079ZM117.515 4.83321C117.515 4.87331 117.631 5.13249 117.772 5.40923C118.699 7.22937 119.082 9.14814 119.002 11.5864C118.96 12.8664 118.819 14.5582 118.663 15.6394C118.502 16.7576 118.453 17.1345 118.312 18.3769C118.053 20.6561 117.986 21.8879 118.079 22.638C118.125 23.0078 118.163 23.5581 118.163 23.8608C118.163 24.1635 118.194 24.6853 118.232 25.0204C118.27 25.3555 118.334 26.0936 118.375 26.6606C118.521 28.6871 118.521 28.7227 118.42 28.7227C118.296 28.7227 118.203 28.3567 117.978 26.9806C117.759 25.646 117.45 24.6655 116.894 23.548C115.735 21.2135 114.101 19.3609 109.839 15.5453C108.778 14.5956 108.217 13.9875 107.728 13.2574C107.465 12.8637 107.154 12.5108 107.071 12.5108C106.891 12.5108 107.392 14.6605 107.958 16.3149C108.993 19.3462 109.598 20.4124 112.839 24.9186C116.362 29.8166 117.445 31.7825 118.202 34.6533C118.336 35.158 118.472 35.5982 118.506 35.6315C118.539 35.6648 118.609 35.3959 118.66 35.0338C118.878 33.478 119.612 31.119 120.766 28.2605C121.997 25.2127 122.672 22.9265 122.875 21.1105C122.952 20.4259 122.929 16.9161 122.842 16.1445C122.459 12.7222 121.101 9.43099 118.677 6.04228C117.968 5.051 117.515 4.58015 117.515 4.83321ZM8.21574 5.09047C8.10707 5.13412 7.17405 6.34454 6.74375 7.00013C5.8211 8.4058 5.10853 9.68847 4.63058 10.8042C4.52169 11.0584 4.3725 11.401 4.29916 11.5653C4.0785 12.0595 3.53614 13.9175 3.37968 14.715C3.0569 16.3601 3.04768 16.4767 3.05063 18.8747C3.0533 20.9981 3.06892 21.3022 3.21509 22.0744C3.58314 24.0182 4.08966 25.6066 5.33617 28.7258C5.74107 29.7391 6.17224 30.9102 6.56541 32.0646C6.89733 33.0391 7.36938 35.3645 7.28129 35.5912C7.23782 35.7031 7.36945 35.7292 7.4366 35.622C7.46028 35.584 7.54599 35.2881 7.62688 34.9643C8.36968 31.9933 9.48197 29.9355 12.9993 25.0252C13.3184 24.5795 14.3836 23.0792 14.7068 22.62C15.6993 21.2097 16.6724 19.4943 17.1579 18.2989C17.9163 16.4315 18.633 14.0102 18.6546 13.242C18.6604 13.036 18.6894 12.8672 18.7191 12.8669C18.7488 12.8666 18.7731 12.8343 18.7731 12.7952C18.7731 12.6649 18.6157 12.7219 18.47 12.9048C18.3909 13.0041 18.148 13.3307 17.9303 13.6307C17.3754 14.3948 17.0031 14.7892 15.9303 15.7504C11.9166 19.3464 10.242 21.2368 9.10032 23.4609C8.40416 24.8172 8.21704 25.4093 7.90001 27.2595C7.77989 27.9604 7.64992 28.5924 7.6112 28.6638C7.47525 28.9147 7.40752 28.7912 7.43868 28.3494C7.45596 28.105 7.5054 27.361 7.54858 26.6962C7.59177 26.0314 7.64193 25.4234 7.65999 25.3452C7.71159 25.1224 7.86201 22.4897 7.85712 21.8966C7.84992 21.0267 7.70814 19.2414 7.54649 17.9858C7.46344 17.3406 7.36657 16.5726 7.33124 16.2793C7.2959 15.986 7.23098 15.5061 7.18694 15.2127C7.14296 14.9194 7.06063 14.0875 7.00406 13.364C6.73274 9.89538 7.04609 7.80177 8.16644 5.59759C8.46432 5.01147 8.46648 4.98964 8.21574 5.09047ZM64.7976 6.21897C65.6603 6.26092 67.3088 6.45561 68.396 6.64404C74.3793 7.68068 80.2733 10.5743 84.7331 14.6648L85.1649 15.0609L81.2123 18.9711L77.2596 22.8814L76.6422 22.3459C74.3375 20.3466 71.7015 18.9199 68.7742 18.0875C67.2773 17.6618 65.2101 17.3459 63.9214 17.3459H63.3941V11.7278V6.10961L63.664 6.14332C63.8125 6.1618 64.3226 6.19586 64.7976 6.21897ZM61.451 11.7534V17.3242L60.5693 17.3714C56.1969 17.6057 51.5386 19.5217 48.4368 22.3618L47.9093 22.8447L43.9927 18.9757C41.8385 16.8477 40.0785 15.0904 40.0814 15.0708C40.0921 15.0005 41.4226 13.854 42.2711 13.184C47.088 9.38037 53.047 6.95448 59.112 6.32826C60.2706 6.20866 60.3094 6.20574 60.8932 6.1938L61.451 6.18242V11.7534ZM87.3146 17.2978C90.0856 20.4414 92.2774 24.2633 93.6217 28.2961C94.5705 31.1422 95.0326 33.6202 95.2428 36.9886L95.2904 37.753H94.0601H92.8297V32.5656V27.3782L92.5958 27.3431C92.4671 27.3238 92.2253 27.2901 92.0585 27.2683C91.8917 27.2465 91.6362 27.1488 91.4907 27.0513C91.3041 26.9261 91.1293 26.874 90.8969 26.874C90.7157 26.874 90.4368 26.8296 90.2771 26.7754C89.6782 26.572 88.9098 26.4252 88.5178 26.4392C88.2825 26.4475 88.0009 26.4076 87.8465 26.3438C87.5176 26.2081 87.2226 26.2067 87.0442 26.3402C86.9563 26.4059 86.8671 26.42 86.7918 26.3802C86.7277 26.3464 86.3413 26.3153 85.9331 26.3112C85.3878 26.3056 85.1302 26.2719 84.962 26.184C84.8031 26.101 84.524 26.0592 84.0494 26.0474C83.2399 26.0274 82.8418 25.9667 82.6479 25.8337C82.438 25.6896 81.0052 25.6971 80.8827 25.8429C80.781 25.964 80.296 25.9868 80.0942 25.8801C79.9822 25.821 79.4882 25.2693 78.8029 24.4385L78.6302 24.2292L82.5799 20.3265C85.6629 17.2801 86.5481 16.4431 86.6142 16.5116C86.6608 16.5598 86.976 16.9137 87.3146 17.2978ZM42.6127 20.3143C44.7405 22.4162 46.4813 24.1634 46.4813 24.1969C46.4813 24.2303 46.2394 24.5211 45.9436 24.843C45.2914 25.5528 44.9884 25.688 44.519 25.4789C44.2397 25.3544 44.2276 25.3549 43.9701 25.5014C43.7394 25.6325 43.6898 25.6387 43.5689 25.5515C43.389 25.4215 43.2724 25.4258 42.9019 25.5763C42.5684 25.7117 42.548 25.7962 42.8166 25.9295C42.9124 25.977 42.9876 26.0491 42.9836 26.0895C42.9797 26.1298 42.9716 26.2094 42.9656 26.2662C42.9581 26.3389 42.8639 26.3694 42.649 26.3689C42.4807 26.3685 42.1812 26.3846 41.9832 26.4047C41.6631 26.4372 41.6452 26.4322 41.8213 26.3594C42.0431 26.2678 42.0714 26.1979 41.9113 26.1372C41.7467 26.0748 41.7821 25.9053 41.9942 25.7405C42.2392 25.55 42.1945 25.5119 41.8373 25.6068C41.4526 25.709 40.7968 25.6809 40.5991 25.5537C40.5107 25.4968 40.2023 25.4305 39.9136 25.4064C39.4236 25.3655 39.3589 25.3774 38.9407 25.586C38.3493 25.881 38.3553 25.9832 38.9605 25.9219C39.3797 25.8794 39.4283 25.8877 39.4283 26.0016C39.4283 26.0716 39.3474 26.215 39.2484 26.3205C39.0725 26.508 39.0621 26.5099 38.7716 26.4087C38.6082 26.3517 38.2908 26.3051 38.0662 26.3051C37.8416 26.3051 37.6251 26.2727 37.5849 26.233C37.5355 26.1842 37.3269 26.1942 36.9408 26.2637C36.0485 26.4242 35.4981 26.4672 35.3483 26.388C35.2737 26.3486 34.7508 26.2661 34.1863 26.2046C33.6217 26.1433 33.1044 26.0637 33.0367 26.028C32.969 25.9921 32.8248 25.9795 32.7164 26C32.6055 26.021 32.5192 26.0055 32.5192 25.9646C32.5192 25.8538 33.1435 24.5207 33.6251 23.6031C34.8228 21.3209 36.4419 18.97 38.0936 17.1148C38.3982 16.7726 38.6692 16.4926 38.6958 16.4926C38.7224 16.4926 40.485 18.2124 42.6127 20.3143ZM64.8335 18.8417C66.3187 18.992 68.309 19.4678 69.7319 20.0125C70.8836 20.4535 72.5238 21.2877 73.5418 21.9502C74.4707 22.5548 76.1327 23.8346 76.1327 23.9454C76.1327 23.9743 75.911 24.2154 75.64 24.4811C75.1861 24.9261 75.1216 24.9651 74.8197 24.9767C74.585 24.9856 74.4489 24.9506 74.3401 24.8534C74.2156 24.742 74.1591 24.732 74.0269 24.7977C73.7182 24.9512 74.0233 24.9935 66.9792 23.8196C65.0917 23.505 63.5129 23.2476 63.4707 23.2476C63.4182 23.2476 63.3941 22.5326 63.3941 20.9698V18.692L63.736 18.7286C63.924 18.7487 64.4179 18.7996 64.8335 18.8417ZM61.451 21.042V23.316L61.289 23.3501C61.2 23.3688 60.5442 23.4814 59.8317 23.6004C55.5073 24.3225 54.0809 24.5601 52.2865 24.8574L50.2829 25.1894L49.6323 24.5465L48.9817 23.9038L49.2863 23.6319C51.0687 22.041 53.5401 20.6278 55.99 19.7987C57.6301 19.2437 59.8466 18.7906 61.0012 18.7743L61.451 18.768V21.042ZM124.313 23.6164C124.31 25.5494 124.28 25.8043 123.846 27.5139C123.576 28.576 122.996 30.1805 122.444 31.3891C122.39 31.5064 121.967 32.4184 121.504 33.4156C119.609 37.4967 119.108 38.9372 118.485 42.0904C118.194 43.5638 117.692 45.5855 117.548 45.8642C117.495 45.9648 117.397 46.0928 117.328 46.1486C117.182 46.2677 117.179 46.2936 117.475 45.1835C118.152 42.6522 117.956 39.6247 116.923 36.6509C116.241 34.6882 114.783 31.9297 113.025 29.2755C112.251 28.1056 111.731 26.982 111.275 25.4874C111.215 25.2919 111.1 25.0043 111.02 24.8485C110.879 24.5758 110.871 24.5714 110.812 24.7306C110.577 25.3569 110.753 27.8647 111.248 30.9625C111.329 31.4709 111.446 32.2228 111.508 32.6335C111.639 33.5076 111.785 34.2379 111.975 34.9799C112.05 35.2732 112.197 35.865 112.302 36.2949C112.493 37.0769 113.29 39.8648 113.877 41.806C115.086 45.8036 115.145 46.0544 115.29 47.7788C115.379 48.8267 115.366 49.0682 115.069 52.0807C115.042 52.3544 115.04 52.6018 115.064 52.6304C115.106 52.6796 115.277 52.4392 116.257 50.9514C116.898 49.9784 117.585 49.0949 119.054 47.3522C122.473 43.2976 123.553 41.6551 124.32 39.3458C124.875 37.6732 125.457 35.1236 125.691 33.3445C125.76 32.8158 125.86 32.3331 125.914 32.27C125.993 32.1775 126.007 31.7579 125.985 30.1013C125.96 28.1621 125.946 27.9816 125.734 26.874C125.275 24.4636 124.7 22.2867 124.441 21.9699C124.32 21.823 124.315 21.8923 124.313 23.6164ZM1.48185 22.2056C1.32632 22.4806 0.892919 23.9587 0.71681 24.8147C0.680897 24.9891 0.58201 25.4519 0.497014 25.8429C0.355666 26.4936 0.207987 27.356 0.0649114 28.3672C-0.0348383 29.0725 -0.0146889 31.9976 0.09161 32.2395C0.14386 32.3584 0.259514 32.9677 0.348612 33.5934C0.631812 35.5832 1.31473 38.4188 1.86998 39.9107C2.58075 41.8205 3.84525 43.6742 6.97031 47.3877C8.60034 49.3247 9.1653 50.0776 10.2117 51.7074C10.5068 52.1669 10.7735 52.5428 10.8043 52.5428C10.8684 52.5428 10.8183 51.8501 10.6939 51.0141C10.6462 50.6932 10.6101 49.6703 10.611 48.6676C10.6135 46.2472 10.5296 46.6409 12.3305 40.5972C12.5577 39.8346 12.7687 39.1147 12.7993 38.9973C12.8298 38.88 12.9905 38.3041 13.1564 37.7175C13.7419 35.646 14.1138 34.0545 14.3083 32.7876C14.899 28.9405 15.002 28.0959 15.069 26.5458C15.0945 25.9546 15.0918 25.2847 15.0631 25.057C15.0107 24.6433 15.0106 24.6431 14.8798 24.8027C14.8079 24.8905 14.6633 25.2405 14.5585 25.5804C14.0636 27.1862 13.6129 28.1543 12.7574 29.4484C10.587 32.7319 9.17351 35.6294 8.56493 38.0429C8.17414 39.5924 8.11088 40.0538 8.07303 41.6282C8.03359 43.266 8.13844 44.1688 8.51823 45.4638C8.72032 46.1527 8.71866 46.1434 8.63863 46.1434C8.40444 46.1434 7.96399 44.667 7.47179 42.2326C6.99701 39.8841 6.73 38.9218 6.05133 37.1131C5.67982 36.123 5.57489 35.8842 4.27124 33.0601C2.10057 28.3576 1.55957 26.3001 1.66796 23.1587C1.69192 22.4645 1.69919 21.8966 1.68408 21.8966C1.66904 21.8966 1.578 22.0357 1.48185 22.2056ZM47.7983 25.6047C47.727 25.6325 47.5773 25.6574 47.4654 25.6602L47.2621 25.6652L47.4295 25.4602L47.5969 25.2553L47.7623 25.4047C47.9154 25.5431 47.918 25.558 47.7983 25.6047ZM77.6848 25.5776C77.6684 25.5938 77.586 25.5855 77.5018 25.559C77.3747 25.5192 77.364 25.4927 77.4386 25.4039C77.5181 25.3093 77.5394 25.3114 77.6216 25.4225C77.6728 25.4916 77.7012 25.5614 77.6848 25.5776ZM32.4296 28.6179C32.5306 28.7329 32.579 28.8611 32.5578 28.958C32.4662 29.3769 32.4808 29.4689 32.642 29.4916C32.7927 29.5127 32.7987 29.5385 32.7591 29.9893C32.7362 30.2508 32.6752 30.5093 32.6236 30.5636C32.5462 30.6454 32.555 30.6961 32.6749 30.8563L32.8199 31.0501L32.6672 31.346C32.5831 31.5087 32.3535 31.8173 32.157 32.0318C31.9604 32.2462 31.7996 32.4669 31.7996 32.5221C31.7996 32.5774 31.7145 32.7224 31.6106 32.8444C31.4327 33.0533 31.4236 33.1001 31.4554 33.6438C31.485 34.1482 31.5111 34.2379 31.6624 34.354C32.1208 34.7057 32.1594 34.768 32.1594 35.1565C32.1594 35.4029 32.1964 35.5616 32.2674 35.6199C32.3984 35.7274 32.407 35.9157 32.2862 36.035C32.2154 36.1049 32.2449 36.16 32.4301 36.3032C32.5609 36.4044 32.6632 36.5489 32.6632 36.6327C32.6632 36.7147 32.7165 36.8401 32.7817 36.9112C32.8468 36.9823 32.9157 37.2008 32.9347 37.3968L32.9693 37.753H31.4737H29.9779L30.0223 36.7042C30.0703 35.5694 30.2753 33.8444 30.5102 32.5979C30.8474 30.8083 31.4499 28.6155 31.6495 28.451C31.8196 28.3108 32.2383 28.4004 32.4296 28.6179ZM58.0717 28.6199C58.2692 28.855 58.4232 28.8819 58.6884 28.7273C59.0324 28.5268 59.1099 28.5406 59.2848 28.8334C59.4627 29.1313 59.4778 29.2915 59.3279 29.2915C59.2685 29.2915 59.2199 29.2299 59.2199 29.1545C59.2199 28.9764 59.0208 28.9354 58.7631 29.0606C58.6005 29.1396 58.5681 29.192 58.6058 29.3147C58.7239 29.6986 58.7349 29.6923 57.7266 29.8181L57.3487 29.8653V29.5428C57.3487 29.3036 57.3209 29.2204 57.2408 29.2204C57.1608 29.2204 57.1328 29.3034 57.1328 29.5404C57.1328 29.7164 57.1008 29.8604 57.0618 29.8604C57.0228 29.8604 56.8764 29.7404 56.7365 29.5937C56.5371 29.3847 56.4899 29.2848 56.5178 29.1315C56.5374 29.024 56.5219 28.936 56.4833 28.936C56.4447 28.936 56.4131 28.888 56.4131 28.8293C56.4131 28.7549 56.4945 28.7203 56.683 28.715C56.8935 28.709 57.5476 28.6068 57.9337 28.5196C57.9585 28.514 58.0206 28.5591 58.0717 28.6199ZM55.7714 29.0956C55.7403 29.2459 55.6746 29.3355 55.5826 29.353C55.505 29.3678 55.35 29.456 55.2381 29.549C55.1262 29.6421 54.9953 29.7182 54.9472 29.7182C54.8499 29.7182 54.2088 29.098 54.2585 29.052C54.2758 29.036 54.5653 28.9918 54.9018 28.9538C55.8916 28.842 55.8261 28.8313 55.7714 29.0956ZM52.2742 29.8597C52.7515 30.3363 52.7455 30.4023 52.218 30.4737L51.879 30.5196V30.19C51.879 29.8247 51.8883 29.8294 51.3788 29.9374C51.0186 30.0137 51.0154 30.0168 51.0154 30.2881C51.0154 30.5723 51.0129 30.5745 50.5656 30.6728C50.3827 30.713 50.3677 30.6995 50.3677 30.4958C50.3677 30.2261 50.1986 30.2442 50.1656 30.5174C50.141 30.7211 50.2236 30.7013 48.7243 30.8631C48.1771 30.9221 47.9593 30.9224 47.9002 30.864C47.8561 30.8204 47.7617 30.7847 47.6904 30.7847C47.5121 30.7847 47.5277 30.6043 47.7366 30.2521C47.9343 29.9187 47.9413 29.9168 49.7559 29.6706C50.2309 29.6062 50.7815 29.5311 50.9794 29.5036C51.7914 29.3911 51.81 29.3963 52.2742 29.8597ZM32.2396 29.7842C32.1778 29.822 32.1703 29.8587 32.2187 29.8882C32.2598 29.9133 32.3151 29.8991 32.3416 29.8568C32.4076 29.7511 32.3551 29.7137 32.2396 29.7842ZM57.9245 29.9902C57.9245 30.0705 57.6291 30.327 57.4747 30.3808C57.3704 30.4172 57.3487 30.3823 57.3487 30.1781C57.3487 29.9378 57.3561 29.9315 57.6366 29.9315C57.7949 29.9315 57.9245 29.9579 57.9245 29.9902ZM57.1328 30.3937C57.1328 30.4523 57.1014 30.5003 57.0631 30.5003C57.0248 30.5003 57.012 30.4523 57.0348 30.3937C57.0576 30.335 57.089 30.287 57.1045 30.287C57.1201 30.287 57.1328 30.335 57.1328 30.3937ZM47.345 30.4606C47.345 30.517 47.3126 30.5828 47.273 30.607C47.2334 30.6311 47.201 30.585 47.201 30.5045C47.201 30.424 47.2334 30.3581 47.273 30.3581C47.3126 30.3581 47.345 30.4042 47.345 30.4606ZM52.6575 30.7314C52.6757 30.8873 52.642 30.9412 52.4908 30.998C52.3867 31.0371 52.2044 31.0691 52.0857 31.0691C51.8857 31.0691 51.8716 31.0523 51.8925 30.8383C51.9111 30.6471 51.9519 30.5996 52.1309 30.5611C52.5111 30.4793 52.6327 30.5186 52.6575 30.7314ZM53.2286 30.9393C53.0093 31.0769 52.8866 31.0039 52.8866 30.7359V30.4737L53.1027 30.6782C53.2604 30.8275 53.2945 30.8981 53.2286 30.9393ZM57.0903 30.6321C57.1391 30.7101 56.7851 30.8716 56.6911 30.8142C56.652 30.7903 56.5572 30.8269 56.4805 30.8954C56.3463 31.0155 56.3316 31.0042 56.3124 30.767C56.3062 30.6912 56.4987 30.6366 56.9666 30.5815C57.0138 30.576 57.0694 30.5987 57.0903 30.6321ZM51.0154 30.9625C51.0154 31.1262 50.9816 31.2114 50.9164 31.2114C50.862 31.2114 50.7163 31.2313 50.5926 31.2558C50.3744 31.2989 50.3677 31.2926 50.3677 31.0477C50.3677 30.781 50.4269 30.7382 50.8175 30.7219C50.9973 30.7144 51.0154 30.7364 51.0154 30.9625ZM50.1518 31.0304C50.1518 31.3041 50.2351 31.2722 49.1442 31.4172C48.8473 31.4567 48.4021 31.5096 48.1546 31.5349C47.9073 31.5602 47.7048 31.6131 47.7048 31.6526C47.7048 31.6923 47.7609 31.7023 47.8308 31.6749C47.9438 31.6305 49.7148 31.4298 50.0258 31.4262C50.1385 31.4248 50.1518 31.5103 50.1518 32.2392V33.0536L49.9179 33.0868C49.3873 33.162 48.5063 33.2744 48.1186 33.3162C47.8911 33.3408 47.7048 33.3911 47.7048 33.428C47.7048 33.4649 47.7343 33.4771 47.7704 33.4551C47.8065 33.433 48.3165 33.3663 48.9039 33.3066C49.4913 33.247 50.0124 33.1842 50.0618 33.167C50.1224 33.1458 50.1518 33.215 50.1518 33.3791C50.1518 33.5991 50.1294 33.6258 49.9179 33.6572C49.4953 33.7199 48.6121 33.8332 48.1906 33.8788C47.963 33.9035 47.7768 33.9564 47.7768 33.9965C47.7768 34.0705 48.1812 34.0464 49.1442 33.9149C49.4015 33.8798 49.7335 33.8351 49.8819 33.8156L50.1518 33.7801V34.4511C50.1518 35.0002 50.1714 35.1221 50.2597 35.1221C50.3481 35.1221 50.3677 34.9997 50.3677 34.4466C50.3677 33.9209 50.3896 33.7711 50.4666 33.7711C50.521 33.7711 50.6668 33.7512 50.7905 33.7267L51.0154 33.6823V34.5089C51.0154 35.2486 51.0022 35.3354 50.8895 35.3356C50.8201 35.3357 50.0996 35.3996 49.2881 35.4777C48.4767 35.5557 47.7561 35.6197 47.6868 35.6197C47.578 35.6199 47.5609 35.693 47.5609 36.1585V36.6971L48.2266 36.6479C48.5928 36.6209 49.3574 36.5609 49.9257 36.5148C51.0797 36.421 51.0385 36.4059 51.0019 36.9094C50.9795 37.2188 50.9785 37.2198 50.6782 37.2413C50.3801 37.2628 50.3766 37.2603 50.3543 37.0088C50.3241 36.6687 50.1933 36.6847 50.1661 37.0318L50.1444 37.3086L49.4104 37.3547C48.2128 37.4298 47.7768 37.4814 47.7768 37.5479C47.7768 37.6301 48.2956 37.6282 48.7891 37.5443C49.0042 37.5078 49.3988 37.4662 49.666 37.4521C50.1323 37.4273 50.1518 37.4328 50.1518 37.5897V37.753H48.6764H47.201V34.5097V31.2663L47.4349 31.3122C47.916 31.4065 47.9582 31.3996 47.9346 31.2315C47.9084 31.0448 47.9293 31.0391 49.0354 30.9263C49.4703 30.882 49.8401 30.832 49.857 30.8152C49.874 30.7984 49.9472 30.7847 50.0198 30.7847C50.1223 30.7847 50.1518 30.8395 50.1518 31.0304ZM53.9826 31.5475C54.4532 32.0097 54.5419 32.1337 54.5419 32.3296C54.5419 32.4672 54.5051 32.5633 54.4519 32.5646C54.2977 32.5683 53.2925 32.701 53.0845 32.745L52.8866 32.787V31.933C52.8866 31.0044 52.866 31.0487 53.3168 31.0077C53.3754 31.0024 53.6749 31.2453 53.9826 31.5475ZM52.6551 31.9113L52.6755 32.7063L52.4885 32.7765C52.3856 32.8152 52.2064 32.8468 52.0903 32.8468H51.879V32.0333V31.2198L52.1849 31.1525C52.3532 31.1154 52.5232 31.0922 52.5627 31.1007C52.604 31.1097 52.6434 31.4558 52.6551 31.9113ZM51.0154 32.1357C51.0154 32.8123 50.9949 32.989 50.9164 32.989C50.862 32.989 50.7163 33.009 50.5926 33.0334L50.3677 33.0779V32.2207C50.3677 31.2783 50.3445 31.3226 50.8535 31.2921C51.013 31.2826 51.0154 31.2954 51.0154 32.1357ZM68.2009 31.6113C68.2155 31.7065 68.1565 31.7712 68.003 31.8285C67.8827 31.8733 67.7843 31.9608 67.7843 32.0229C67.7843 32.0988 67.7195 32.1354 67.5864 32.1347C67.2632 32.1332 67.0646 32.0557 67.0646 31.9312C67.0646 31.8125 67.198 31.7071 67.6285 31.486C67.9066 31.3432 68.1686 31.4005 68.2009 31.6113ZM64.8925 31.5847C64.8671 31.7617 64.6485 31.8261 64.4737 31.7082C64.3801 31.645 64.3844 31.6213 64.5054 31.53C64.7233 31.3658 64.92 31.3936 64.8925 31.5847ZM63.682 31.5669C63.7693 31.6226 63.759 31.636 63.628 31.6369C63.539 31.6375 63.4661 31.606 63.4661 31.5669C63.4661 31.4778 63.5425 31.4778 63.682 31.5669ZM59.7275 31.8869C59.7218 31.9924 59.5608 31.973 59.5235 31.8623C59.5033 31.8025 59.5362 31.7759 59.6113 31.7911C59.6773 31.8047 59.7296 31.8477 59.7275 31.8869ZM63.8979 32.0367C63.8979 32.2413 63.8749 32.2844 63.7841 32.25C63.7215 32.2262 63.6081 32.2068 63.5322 32.2068C63.4268 32.2068 63.3941 32.1564 63.3941 31.9935C63.3941 31.7971 63.4142 31.7802 63.646 31.7802C63.8874 31.7802 63.8979 31.7909 63.8979 32.0367ZM64.8923 32.1535C64.9131 32.3322 64.8945 32.349 64.6764 32.348C64.3033 32.3465 64.1138 32.274 64.1138 32.1327C64.1138 31.9847 64.2595 31.9309 64.6176 31.9468C64.8356 31.9565 64.8726 31.9843 64.8923 32.1535ZM60.0116 32.2903V32.5161L59.8317 32.349C59.7327 32.2572 59.6517 32.1556 59.6517 32.1234C59.6517 32.0911 59.7327 32.0646 59.8317 32.0646C59.9858 32.0646 60.0116 32.097 60.0116 32.2903ZM59.004 32.4201C59.004 32.5375 58.9716 32.6335 58.932 32.6335C58.8925 32.6335 58.8601 32.6015 58.8601 32.5624C58.8601 32.4572 58.7212 32.476 58.5979 32.5979C58.4172 32.7764 57.9071 32.7356 57.7086 32.5268L57.5395 32.349L57.858 32.3441C58.0331 32.3413 58.2411 32.3116 58.3203 32.2779C58.3995 32.2443 58.5857 32.2146 58.7341 32.2118C58.9872 32.2071 59.004 32.2202 59.004 32.4201ZM67.591 32.2677C67.7148 32.3159 67.7138 32.3256 67.5744 32.4503C67.4537 32.5582 67.4074 32.5658 67.3179 32.4924C67.0691 32.2884 67.254 32.1364 67.591 32.2677ZM63.736 32.3938C63.9223 32.4432 63.9542 32.668 63.7841 32.7325C63.5152 32.8345 63.3941 32.7816 63.3941 32.5624C63.3941 32.3428 63.4463 32.3172 63.736 32.3938ZM64.6235 32.4912C64.8353 32.4912 64.9055 32.5199 64.9055 32.6062C64.9055 32.6907 64.8626 32.7098 64.7436 32.6783C64.6545 32.6547 64.4764 32.635 64.3477 32.6345C64.1813 32.6337 64.1138 32.6005 64.1138 32.5192C64.1138 32.4442 64.153 32.4198 64.2277 32.4481C64.2903 32.4718 64.4684 32.4912 64.6235 32.4912ZM54.5289 33.0966C54.5161 33.1093 54.2304 33.1552 53.894 33.1986C53.5577 33.242 53.1934 33.2952 53.0845 33.3167C52.8985 33.3535 52.8866 33.3407 52.8866 33.1045C52.8866 32.8202 52.8594 32.8301 53.9302 32.7253L54.5059 32.669L54.529 32.8714C54.5417 32.9827 54.5416 33.084 54.5289 33.0966ZM61.0549 32.775C61.1072 32.9376 61.0411 33.0819 60.9422 33.0215C60.8549 32.9682 60.855 32.6335 60.9424 32.6335C60.9793 32.6335 61.0299 32.6972 61.0549 32.775ZM54.807 32.8601C54.784 32.9168 54.767 32.9 54.7635 32.8171C54.7604 32.7422 54.7774 32.7002 54.8013 32.7238C54.8252 32.7474 54.8278 32.8088 54.807 32.8601ZM59.762 32.8076C59.995 32.9037 60.0116 32.9322 60.0116 33.2342C60.0116 33.5464 60.004 33.5578 59.7957 33.5578C59.6769 33.5578 59.5798 33.5859 59.5798 33.6203C59.5798 33.6547 59.6769 33.7226 59.7957 33.7711C59.9939 33.8523 60.0116 33.888 60.0116 34.2064C60.0116 34.6431 59.8807 34.6642 59.4928 34.29L59.2199 34.0267V33.3656C59.2199 32.6231 59.2471 32.5951 59.762 32.8076ZM59.004 33.2734C59.004 33.5472 58.995 33.7711 58.9839 33.7711C58.9729 33.7711 58.7552 33.5632 58.5002 33.309L58.0366 32.8468H58.3259C58.6142 32.8468 58.6152 32.8477 58.5859 33.0956C58.5639 33.2815 58.5836 33.3445 58.6634 33.3445C58.8339 33.3445 58.9526 33.1508 58.9028 32.9543C58.8765 32.851 58.8883 32.7757 58.9307 32.7757C58.9735 32.7757 59.004 32.9828 59.004 33.2734ZM52.6575 33.0784C52.6757 33.2338 52.6418 33.2878 52.4908 33.3445C52.3867 33.3836 52.2064 33.4156 52.0903 33.4156C51.9039 33.4156 51.879 33.3907 51.879 33.2037C51.879 33.0303 51.9151 32.9839 52.077 32.9486C52.1858 32.9248 52.3073 32.8944 52.3468 32.8809C52.5186 32.8223 52.6363 32.8972 52.6575 33.0784ZM51.0154 33.309C51.0154 33.4727 50.9816 33.5578 50.9164 33.5578C50.862 33.5578 50.7163 33.5778 50.5926 33.6023C50.3744 33.6454 50.3677 33.6391 50.3677 33.3939C50.3677 33.1311 50.4209 33.0956 50.8535 33.0698C50.9924 33.0614 51.0154 33.0954 51.0154 33.309ZM61.302 33.3037C61.506 33.5181 61.445 33.6289 61.1229 33.6289C60.8989 33.6289 60.8752 33.6097 60.8752 33.4275C60.8752 33.081 61.0438 33.0321 61.302 33.3037ZM54.5554 34.0733C54.5677 34.5133 54.5524 34.9048 54.5213 34.9434C54.4647 35.0135 52.0354 35.2665 51.933 35.213C51.9034 35.1975 51.879 34.822 51.879 34.3785V33.5721L52.2209 33.5415C52.4089 33.5246 52.5871 33.5233 52.6167 33.5385C52.6464 33.5538 52.6707 33.8683 52.6707 34.2375C52.6707 34.7868 52.6903 34.9088 52.7787 34.9088C52.8674 34.9088 52.8866 34.7824 52.8866 34.1978C52.8866 33.6796 52.911 33.485 52.9766 33.4805C53.0261 33.477 53.3418 33.4327 53.6783 33.382C54.0147 33.3313 54.3446 33.2861 54.4115 33.2816C54.5175 33.2745 54.5358 33.375 54.5554 34.0733ZM61.451 34.0556V34.4111H61.1631H60.8752V34.103C60.8752 33.7326 60.9024 33.7 61.2111 33.7H61.451V34.0556ZM55.275 33.9495C55.3791 34.1752 55.2665 34.4067 54.9681 34.5808L54.7578 34.7035V34.2374V33.7711H54.9752C55.1376 33.7711 55.2136 33.8164 55.275 33.9495ZM63.9051 34.0378C63.9756 34.2202 63.987 34.2247 64.0759 34.1053C64.1385 34.0211 64.2782 33.9724 64.4843 33.9631C64.7886 33.9493 64.7982 33.9555 64.8201 34.18C64.84 34.3837 64.8218 34.4111 64.667 34.4111C64.5704 34.4111 64.4516 34.3637 64.4029 34.3059C64.3388 34.2295 64.2787 34.2198 64.183 34.2704C64.1106 34.3086 63.9547 34.34 63.8366 34.34C63.3877 34.34 63.2589 34.1661 63.5561 33.9613C63.7809 33.8064 63.8189 33.8147 63.9051 34.0378ZM56.4781 34.0117C56.5418 34.0876 56.5356 34.1196 56.451 34.1517C56.3905 34.1746 56.3411 34.1809 56.3411 34.1658C56.3411 34.1507 56.3215 34.0877 56.2975 34.0258C56.2436 33.8873 56.3655 33.8777 56.4781 34.0117ZM32.8371 35.3532C32.9905 36.1037 32.9008 36.5095 32.6944 35.9983C32.6341 35.8488 32.5495 35.6567 32.5064 35.5713C32.4048 35.3699 32.4764 35.1932 32.6596 35.1932C32.7521 35.1932 32.8162 35.251 32.8371 35.3532ZM68.8638 36.1176C69.0991 36.2349 69.3896 36.3309 69.5095 36.3309C69.7312 36.3309 69.7616 36.3734 69.6838 36.5739C69.6508 36.6589 69.5363 36.6864 69.216 36.6864H68.7919V36.402C68.7919 36.1966 68.7618 36.1176 68.6839 36.1176C68.6168 36.1176 68.576 36.1847 68.576 36.2954C68.576 36.3931 68.5582 36.4731 68.5364 36.4731C68.4797 36.4731 68.0002 36.0057 68.0002 35.9504C68.0002 35.8326 68.4776 35.925 68.8638 36.1176ZM53.3184 36.2844C53.3184 36.3345 53.0783 36.7964 53.0018 36.8936C52.9387 36.9736 52.9153 36.9458 52.8866 36.757C52.8321 36.3982 52.6836 36.4072 52.6571 36.7708L52.6347 37.0775L52.253 37.0991L51.8713 37.1207L51.8931 36.7436L51.915 36.3665L52.4188 36.3257C53.1832 36.2639 53.3184 36.2576 53.3184 36.2844ZM71.3108 36.7575C71.3108 36.7966 71.1651 36.8286 70.9869 36.8286C70.8088 36.8286 70.6631 36.7966 70.6631 36.7575C70.6631 36.7184 70.8088 36.6864 70.9869 36.6864C71.1651 36.6864 71.3108 36.7184 71.3108 36.7575ZM72.3726 36.8109C72.393 36.8717 72.3153 36.8995 72.1264 36.8988C71.7817 36.8975 71.5267 36.8325 71.5267 36.7457C71.5267 36.6442 72.3379 36.7066 72.3726 36.8109ZM69.2597 36.8997C69.2352 36.9389 69.138 36.9709 69.0438 36.9709C68.9495 36.9709 68.8523 36.9389 68.8279 36.8997C68.8013 36.8574 68.8885 36.8286 69.0438 36.8286C69.199 36.8286 69.2862 36.8574 69.2597 36.8997ZM71.1489 36.9699C71.297 36.9708 71.3108 37.0041 71.3108 37.3619V37.753H70.9792C70.6638 37.753 70.6496 37.7445 70.6913 37.5802C70.7155 37.4852 70.7026 37.3225 70.6626 37.2187C70.5716 36.9821 70.6342 36.8754 70.8331 36.9281C70.9177 36.9506 71.0598 36.9694 71.1489 36.9699ZM72.7128 37.1126C72.8435 37.1616 73.182 37.601 73.182 37.7215C73.182 37.7389 72.8096 37.753 72.3543 37.753H71.5267V37.3528V36.9525L72.0396 37.0024C72.3217 37.0299 72.6247 37.0794 72.7128 37.1126ZM52.5977 37.3442C52.5941 37.6693 52.5117 37.753 52.1945 37.753C51.8961 37.753 51.879 37.7421 51.879 37.5516C51.879 37.4407 51.9006 37.3287 51.927 37.3027C52.0166 37.2142 52.5988 37.2502 52.5977 37.3442ZM51.0154 37.5752C51.0154 37.7385 50.989 37.753 50.6915 37.753C50.3941 37.753 50.3677 37.7385 50.3677 37.5752C50.3677 37.412 50.3941 37.3975 50.6915 37.3975C50.989 37.3975 51.0154 37.412 51.0154 37.5752ZM78.4379 37.6148C78.5095 37.747 78.4842 37.753 77.8506 37.753C77.4863 37.753 77.2123 37.7293 77.2416 37.7003C77.3107 37.6321 78.2391 37.414 78.3095 37.4495C78.3389 37.4643 78.3967 37.5387 78.4379 37.6148ZM66.0502 37.6286C66.1327 37.7351 66.1298 37.753 66.0298 37.753C65.9581 37.753 65.9131 37.6936 65.9131 37.5989C65.9131 37.5142 65.9222 37.4582 65.9334 37.4745C65.9447 37.4908 65.9972 37.5601 66.0502 37.6286ZM73.9017 37.7251C73.9017 37.7404 73.8127 37.7525 73.7038 37.7519C73.5598 37.7512 73.5335 37.7336 73.6073 37.6874C73.699 37.6301 73.9017 37.656 73.9017 37.7251ZM14.3501 39.6906C14.3346 39.7395 14.3051 40.3554 14.2847 41.0594C14.2439 42.4676 14.1203 43.4997 13.8402 44.773C13.7388 45.2334 13.6102 45.8341 13.5542 46.1078C13.4983 46.3816 13.3693 47.0055 13.2674 47.4944C12.7576 49.9418 12.5889 52.5504 12.8371 54.1489C12.8973 54.5365 12.9659 54.9977 12.9897 55.1737C13.0289 55.4646 13.1828 56.091 13.4807 57.1727C13.7377 58.1059 14.375 59.4642 15.0071 60.4258C15.2221 60.753 15.382 61.0365 15.3624 61.0558C15.291 61.1264 14.8886 60.7779 14.5424 60.3455C14.195 59.9117 13.6043 59.0526 12.479 57.3445C11.2992 55.5536 10.4253 54.5532 7.25812 51.3675C4.31334 48.4056 3.071 46.9804 2.13749 45.4933C1.34597 44.2325 0.671611 42.6145 0.428066 41.3919C0.335082 40.9251 0.275063 40.7697 0.181071 40.7519C0.0653442 40.7298 0.0586493 40.8754 0.0821833 42.9203C0.103558 44.7802 0.131194 45.247 0.264769 46.0012C0.35142 46.49 0.451817 47.066 0.488017 47.2811C0.634547 48.1527 1.32776 50.0759 2.02644 51.5494C3.51844 54.6959 6.76771 58.19 10.7601 60.941C11.1229 61.1909 11.7486 61.6305 12.1507 61.9177C12.5528 62.205 13.6325 62.9149 14.5501 63.4954C15.4675 64.0758 16.9104 64.9927 17.7564 65.5328C20.4828 67.2734 20.3564 67.2018 20.3564 67.0088C20.3564 66.8923 20.2536 66.6553 19.7258 65.555C18.6718 63.3575 18.5348 63.0137 18.2807 61.9287C18.1465 61.3557 17.9383 60.2446 17.7744 59.2267C17.6654 58.5494 17.2816 55.2747 17.1953 54.2849C17.1543 53.8156 17.0873 53.0157 17.0462 52.5073C17.0052 51.9989 16.9402 51.2789 16.9018 50.9074C16.8634 50.5359 16.7967 49.864 16.7536 49.4142C16.5859 47.6659 16.2092 45.2516 15.8827 43.8325C15.5747 42.4938 14.8672 40.2393 14.6007 39.7472C14.5121 39.5837 14.3927 39.5567 14.3501 39.6906ZM32.9526 40.8994C32.9534 41.574 32.9527 43.4779 32.9511 45.1301L32.9482 48.1343H37.6636H42.3791L42.3871 48.4721C42.4216 49.9245 42.4474 50.3004 42.5252 50.4859C42.5845 50.6275 42.6026 50.9325 42.5796 51.4038C42.5591 51.8258 42.5741 52.1382 42.6169 52.1806C42.6814 52.2443 42.7386 52.4872 42.8736 53.2717C42.8787 53.301 42.9476 53.325 43.0268 53.325C43.1744 53.325 43.2348 53.5619 43.107 53.6399C43.0045 53.7026 43.0667 54.0965 43.2026 54.2449C43.2838 54.3335 43.3106 54.4342 43.2793 54.5321C43.2265 54.6962 43.4454 55.0336 43.8617 55.4295L44.0932 55.6496L41.5555 58.1561L39.0178 60.6626L38.3555 59.9336C34.135 55.2878 31.3565 49.514 30.3679 43.3347C30.2118 42.3586 30.0003 40.4101 30.0003 39.9473V39.6728H31.4757H32.9511L32.9526 40.8994ZM50.1314 39.7166C50.1071 39.7407 49.9802 39.7855 49.8496 39.816L49.612 39.8716L49.8791 39.8789L50.1462 39.8862L50.167 40.5026C50.1809 40.9172 50.2172 41.1286 50.2777 41.1485C50.3452 41.1705 50.3677 41.0186 50.3677 40.5396C50.3677 39.8457 50.3862 39.8151 50.8054 39.8151H51.0154V40.5179V41.2206L49.558 41.2682C47.545 41.3338 47.7048 41.2773 47.7048 41.9227V42.4547L48.0107 42.4175C48.1789 42.3971 48.9238 42.3607 49.666 42.3367L51.0154 42.293V42.6894V43.0859H50.6961C50.3885 43.0859 50.3759 43.0774 50.3542 42.8548C50.3251 42.5569 50.1944 42.5551 50.1654 42.8524C50.1397 43.1155 50.115 43.1228 49.021 43.1913C48.3998 43.2302 48.1634 43.2001 47.291 42.9717C47.2223 42.9537 47.201 42.5606 47.201 41.3105V39.6728H48.6884C49.5064 39.6728 50.1558 39.6925 50.1314 39.7166ZM50.8905 39.7229C50.8019 39.7397 50.64 39.7402 50.5306 39.7239C50.4212 39.7075 50.4936 39.6937 50.6915 39.6932C50.8895 39.6927 50.979 39.706 50.8905 39.7229ZM52.5324 39.7862C52.5853 39.8493 52.6353 40.1094 52.6449 40.3728C52.6571 40.7067 52.6899 40.8461 52.7564 40.8461C52.8164 40.8461 52.8637 40.7189 52.8866 40.4956L52.9226 40.1452L53.1565 40.4092C53.2851 40.5545 53.3904 40.7162 53.3904 40.7687C53.3904 40.8213 53.4405 40.9053 53.5017 40.9555C53.6924 41.1119 53.4818 41.1638 52.6527 41.165L51.879 41.166V40.4602C51.879 39.8478 51.8957 39.7501 52.005 39.7218C52.2645 39.6549 52.44 39.6763 52.5324 39.7862ZM68.576 39.9217C68.576 40.1596 68.5646 40.1706 68.3193 40.1706C68.1782 40.1706 68.0082 40.1989 67.9415 40.2334C67.8748 40.268 67.6838 40.3186 67.517 40.3459C67.2521 40.3892 67.1907 40.3727 67.0312 40.2152C66.9308 40.116 66.8487 39.9534 66.8487 39.8538V39.6728H67.7123H68.576V39.9217ZM69.7275 40.3128V40.9527H69.1157C68.7793 40.9527 68.504 40.9237 68.504 40.8883C68.504 40.8528 68.5687 40.8406 68.6479 40.861C68.7837 40.8961 68.7919 40.8632 68.7919 40.2855V39.6728H69.2597H69.7275V40.3128ZM71.3108 40.2831C71.3108 40.7397 71.3335 40.886 71.4007 40.8641C71.4606 40.8445 71.4977 40.6398 71.5116 40.2538L71.5325 39.6728H72.3543H73.1762L73.1971 40.2595C73.2088 40.5894 73.2495 40.8461 73.29 40.8461C73.3304 40.8461 73.3711 40.5894 73.3828 40.2595L73.4037 39.6728H73.7606H74.1176V40.3505C74.1176 40.8834 74.0949 41.0369 74.0111 41.0687C73.9524 41.0909 73.1671 41.0819 72.2658 41.0487L70.6271 40.9883L70.6064 40.3306L70.5857 39.6728H70.9482H71.3108V40.2831ZM78.6517 42.8672V46.0704L79.2776 46.5868C79.6218 46.8709 80.0315 47.2181 80.1881 47.3583L80.4727 47.6133L80.2705 47.9805L80.0682 48.3476H76.8958H73.7234L72.6251 47.2641L71.5267 46.1807V45.842V45.5034H72.3543H73.182V46.3982C73.182 47.0823 73.2032 47.286 73.272 47.2634C73.3358 47.2425 73.3677 46.9829 73.3821 46.3686L73.4024 45.5034H73.6208C74.0962 45.5034 74.1264 45.564 74.1124 46.4856L74.0997 47.3166L74.5765 47.3377L75.0532 47.3586V46.4666V45.5746H75.3028H75.5525L75.5727 46.4042C75.587 46.99 75.6195 47.2426 75.6829 47.2634C75.7516 47.2859 75.7729 47.0888 75.7729 46.4306V45.5683L76.7985 45.6102C77.3626 45.6332 77.9131 45.6658 78.0219 45.6826C78.1308 45.6995 78.2199 45.682 78.2199 45.6439C78.2199 45.6048 77.974 45.5746 77.6552 45.5746C77.3446 45.5746 76.794 45.5538 76.4317 45.5283L75.7729 45.4822V45.1972V44.9122L76.9964 44.9579C77.7824 44.9872 78.2199 44.9785 78.2199 44.9335C78.2199 44.8919 77.9033 44.8635 77.4388 44.8635C77.0091 44.8635 76.4585 44.843 76.2153 44.8179L75.7729 44.7721V43.9534V43.1345L77.0683 43.1809C77.9104 43.211 78.3638 43.2025 78.3638 43.1566C78.3638 43.1137 78.0281 43.0859 77.5107 43.0859C77.0415 43.0859 76.4585 43.0653 76.2153 43.0402C75.7842 42.9956 75.7729 42.9892 75.7729 42.7854C75.7729 42.5215 75.6025 42.5546 75.5702 42.8247C75.5504 42.9895 75.5145 43.0148 75.3003 43.0148H75.0532V42.6192V42.2236L76.7085 42.2743L78.3638 42.325V41.781V41.2372L77.6261 41.2364C76.5869 41.2352 76.3535 41.1879 76.266 40.9604C76.1879 40.7577 75.9987 40.5261 75.9109 40.5261C75.8804 40.5261 75.8406 40.5821 75.8225 40.6505C75.8044 40.719 75.7859 40.5606 75.7812 40.2986C75.7751 39.947 75.8005 39.8072 75.8783 39.7653C75.9363 39.734 76.5841 39.6984 77.3177 39.6863L78.6517 39.6642V42.8672ZM95.2047 40.1378C95.2047 40.3936 95.1721 40.9135 95.1323 41.2932C95.0925 41.673 95.0447 42.1277 95.0262 42.3037C94.6554 45.8092 93.2836 50.1274 91.4803 53.4653C90.5899 55.1134 89.2424 57.1418 88.1252 58.5156C87.5382 59.2374 86.277 60.6488 86.2189 60.6488C86.1931 60.6488 84.443 58.9404 82.3297 56.8522L78.4876 53.0557L79.0333 52.4498C79.6004 51.8198 80.4745 50.6913 80.8471 50.1076L81.0627 49.77L81.8723 49.7699L82.682 49.7697V49.592C82.682 49.4149 82.6796 49.4142 81.9983 49.4142C81.6222 49.4142 81.3145 49.4008 81.3145 49.3845C81.3145 49.2326 81.4339 49.1298 81.6101 49.1298C81.7703 49.1298 81.8183 49.097 81.8183 48.9876C81.8183 48.9079 81.7703 48.8454 81.7092 48.8454C81.6214 48.8454 81.6357 48.7758 81.7823 48.4899L81.9647 48.1343L82.8811 48.1365C83.513 48.138 83.7601 48.1602 83.6769 48.2081C83.5408 48.2866 83.363 48.7433 83.3927 48.9385C83.4034 49.0093 83.3773 49.1086 83.3348 49.1592C83.2841 49.2197 83.278 49.3711 83.3172 49.5994C83.4266 50.238 83.3752 50.7437 83.1801 50.9492L83.0058 51.1328L83.1757 51.269C83.3923 51.4426 83.4303 51.4402 83.8978 51.2253C84.1757 51.0974 84.3923 51.0501 84.6599 51.0587C84.951 51.0681 85.0839 51.0342 85.2603 50.9054C85.3848 50.8144 85.641 50.7181 85.8296 50.6914C86.0182 50.6647 86.3202 50.6013 86.5006 50.5507C86.6811 50.5 86.9133 50.4796 87.0168 50.5052C87.3054 50.5768 87.6479 50.8949 87.6479 51.0915C87.6479 51.2863 87.7991 51.3189 87.9377 51.1539C87.9881 51.0939 88.0602 51.0551 88.098 51.0675C88.1904 51.0979 88.3651 51.6064 88.3665 51.8486C88.3673 52.0054 88.4194 52.0646 88.6342 52.1532C88.7865 52.2161 88.9853 52.245 89.0978 52.2206C89.2061 52.197 89.3599 52.2123 89.4398 52.2545C89.5537 52.3148 89.6355 52.3006 89.8218 52.1884C89.9522 52.1099 90.1398 52.0452 90.2388 52.0447C90.3682 52.0441 90.5791 51.8823 90.99 51.4685C91.3043 51.152 91.6357 50.845 91.7265 50.7862C92.0342 50.5871 92.4738 49.859 92.5523 49.4187C92.624 49.0162 92.6205 49.0007 92.3677 48.6103C92.2259 48.3914 92.11 48.1947 92.11 48.1733C92.11 48.1519 92.269 48.1343 92.4633 48.1343H92.8168L92.8261 46.2725C92.8349 44.5097 92.8429 44.4055 92.9765 44.3131C93.1599 44.1862 93.1581 44.0543 92.9736 44.102C92.8319 44.1386 92.8297 44.1041 92.8297 41.906V39.6728H94.0172H95.2047V40.1378ZM111.122 40.0157C110.526 41.3857 109.761 44.3155 109.457 46.3923C109.411 46.7051 109.346 47.1531 109.311 47.3877C109.129 48.6265 108.871 51.1225 108.732 53.005C108.691 53.5525 108.644 54.0805 108.626 54.1782C108.608 54.276 108.559 54.772 108.517 55.2804C108.415 56.4995 108.052 59.3366 107.866 60.3644C107.459 62.6139 107.244 63.2841 106.308 65.2334C105.481 66.9543 105.339 67.2721 105.381 67.3137C105.449 67.3805 105.743 67.235 106.347 66.8361C106.69 66.6089 107.587 66.0378 108.339 65.567C111.483 63.5987 113.837 62.0776 114.241 61.7533C114.399 61.6261 114.804 61.3372 115.14 61.1113C116.688 60.0716 118.779 58.3358 120.022 57.0577C122.077 54.9458 123.455 52.9367 124.396 50.6802C125.128 48.9251 125.396 48.0703 125.606 46.8189C125.671 46.4278 125.78 45.8359 125.848 45.5034C125.942 45.0423 125.976 44.4438 125.992 42.9792C126.014 40.9693 125.998 40.7394 125.831 40.7394C125.715 40.7394 125.685 40.8193 125.576 41.4317C125.463 42.0706 125.039 43.2941 124.645 44.1169C123.649 46.2011 122.372 47.7693 118.477 51.6907C114.91 55.2827 114.685 55.5478 112.749 58.4485C111.913 59.7019 111.326 60.5027 111.004 60.8305C110.737 61.1021 110.505 61.2885 110.488 61.2449C110.471 61.2011 110.617 60.9265 110.812 60.6345C111.769 59.2079 112.571 57.0908 112.869 55.2081C112.937 54.7786 113.022 54.2533 113.059 54.0407C113.16 53.4501 113.135 51.3299 113.015 50.3741C112.957 49.9048 112.878 49.2809 112.842 48.9876C112.805 48.6943 112.723 48.2143 112.659 47.921C111.919 44.5175 111.824 44.0466 111.722 43.2675C111.564 42.0551 111.481 40.8876 111.522 40.4405C111.594 39.6483 111.381 39.4216 111.122 40.0157ZM77.4342 39.7699C77.5171 39.8415 78.2199 39.8841 78.2199 39.8175C78.2199 39.7755 78.045 39.7439 77.812 39.7439C77.5878 39.7439 77.4177 39.7556 77.4342 39.7699ZM48.7304 39.9379C48.8788 39.9533 49.1217 39.9533 49.2701 39.9379C49.4186 39.9226 49.2971 39.9101 49.0003 39.9101C48.7034 39.9101 48.582 39.9226 48.7304 39.9379ZM47.7768 40.0292C47.7768 40.0737 47.8934 40.0835 48.0826 40.0549C48.5018 39.9915 48.5123 39.9573 48.1127 39.9573C47.9279 39.9573 47.7768 39.9896 47.7768 40.0292ZM75.6695 41.0238C75.7264 41.0238 75.7729 41.0558 75.7729 41.0949C75.7729 41.134 75.611 41.166 75.413 41.166C75.0638 41.166 75.0532 41.16 75.0532 40.9594C75.0532 40.7945 75.0797 40.7596 75.1842 40.7866C75.2563 40.8052 75.3614 40.7649 75.4181 40.6969C75.5124 40.5837 75.5229 40.5922 75.5435 40.7986C75.5574 40.9367 75.6061 41.0238 75.6695 41.0238ZM69.0258 42.0894L69.7275 42.0904V42.4459V42.8015H69.2597H68.7919V42.5526C68.7919 42.3788 68.7593 42.3037 68.6839 42.3037C68.6085 42.3037 68.576 42.3788 68.576 42.5526C68.576 42.7868 68.5619 42.8015 68.3382 42.8015C68.1621 42.8015 68.0386 42.7385 67.8623 42.5587C67.7263 42.4201 67.6462 42.2808 67.6756 42.2338C67.7513 42.1129 68.0151 42.0202 68.1801 42.0567C68.2593 42.0741 68.6399 42.0889 69.0258 42.0894ZM57.6041 42.2997C57.4281 42.4816 57.3812 42.5007 57.3307 42.4114C57.2269 42.2283 57.1425 42.2917 57.1191 42.5704L57.0968 42.837H56.701H56.3052L56.2825 42.5241C56.27 42.352 56.2946 42.19 56.3371 42.164C56.3796 42.1381 56.7299 42.1085 57.1155 42.0985L57.8165 42.0802L57.6041 42.2997ZM73.3799 42.2047L74.1176 42.2463V42.5908C74.1176 42.7803 74.084 42.9558 74.043 42.9809C74.0019 43.0059 73.84 43.005 73.6831 42.9788C73.4271 42.9361 73.3979 42.91 73.3979 42.7241C73.3979 42.5874 73.3612 42.517 73.29 42.517C73.218 42.517 73.182 42.5881 73.182 42.7304V42.9437H72.3543H71.5267V42.6948C71.5267 42.521 71.4942 42.4459 71.4187 42.4459C71.3463 42.4459 71.3108 42.5175 71.3108 42.6632C71.3108 42.8779 71.307 42.8801 70.9689 42.8587C70.6286 42.8371 70.627 42.8358 70.6043 42.5629C70.5917 42.4121 70.5961 42.2511 70.614 42.2051C70.6478 42.1181 71.8424 42.1179 73.3799 42.2047ZM55.3696 42.5526V42.9081L55.0637 42.9299L54.7578 42.9518V42.6989C54.7578 42.5214 54.7256 42.4459 54.6499 42.4459C54.5753 42.4459 54.5419 42.5199 54.5419 42.6851C54.5419 42.9158 54.53 42.926 54.208 42.9696C54.0244 42.9944 53.6539 43.0148 53.3849 43.0148H52.8957L52.8731 42.7892C52.8422 42.4796 52.6865 42.4468 52.6576 42.7438C52.6352 42.9743 52.6269 42.9796 52.2569 43.0007L51.879 43.0222V42.6629C51.879 42.4654 51.8871 42.2995 51.897 42.2945C51.9338 42.2755 54.6633 42.1845 55.0097 42.1907L55.3696 42.1971V42.5526ZM68.4621 42.9157C68.5247 42.9395 68.576 43.0244 68.576 43.1045C68.576 43.2457 68.5715 43.2462 68.432 43.1214C68.2191 42.9311 68.234 42.8293 68.4621 42.9157ZM56.626 43.2676L56.3052 43.5914L56.2822 43.3281C56.2556 43.0233 56.3391 42.9463 56.698 42.9447L56.9468 42.9437L56.626 43.2676ZM69.7275 43.6704V44.3972L69.2597 43.9391C68.8482 43.5363 68.7919 43.4487 68.7919 43.2124V42.9437H69.2597H69.7275V43.6704ZM71.0859 42.9881L71.3108 43.0325V43.8453V44.658L70.9689 44.6363L70.6271 44.6146L70.6064 43.8729C70.5789 42.8849 70.5774 42.8876 71.0859 42.9881ZM54.5419 43.8579V44.701L54.0995 44.7467C53.8563 44.7719 53.4838 44.7924 53.2719 44.7924H52.8866V43.9419V43.0914L53.5163 43.0677C53.8627 43.0547 54.2351 43.0375 54.344 43.0294L54.5419 43.0148V43.8579ZM55.3903 43.7528C55.4135 44.5429 55.3348 44.7213 54.9626 44.7213H54.7578V43.864V43.0066L55.0637 43.0285L55.3696 43.0503L55.3903 43.7528ZM73.182 43.868V44.7213H72.3543H71.5267V43.868V43.0148H72.3543H73.182V43.868ZM74.0636 43.1338C74.0933 43.1511 74.1176 43.5165 74.1176 43.9455C74.1176 44.8128 74.0992 44.8449 73.6492 44.7615L73.3979 44.7148V43.8586V43.0023L73.7038 43.0522C73.872 43.0798 74.034 43.1165 74.0636 43.1338ZM75.3951 43.1307C75.5509 43.172 75.557 43.2037 75.557 43.983V44.7924H75.3051H75.0532V43.9866C75.0532 43.0548 75.0585 43.0416 75.3951 43.1307ZM52.6551 43.9569L52.6347 44.7568L52.2569 44.7783L51.879 44.7999V43.9784V43.157H52.2772H52.6755L52.6551 43.9569ZM50.1518 43.6572C50.1518 44.0797 50.1493 44.085 49.9898 44.0023C49.9008 43.9561 49.7267 43.8315 49.6031 43.7255C49.4213 43.5695 49.2771 43.5228 48.8488 43.4811C48.5576 43.4528 48.2864 43.4082 48.246 43.3822C48.154 43.3227 48.779 43.2549 49.558 43.2397L50.1518 43.2281V43.6572ZM51.0154 44.0458V44.8635H50.7995C50.612 44.8635 50.5835 44.8378 50.5832 44.668C50.5829 44.5604 50.5343 44.3808 50.4752 44.2688C50.4153 44.1554 50.3677 43.8796 50.3677 43.6466V43.2281H50.6915H51.0154V44.0458ZM59.004 44.1169V44.5791H58.5203H58.0366L58.5002 44.1169C58.7552 43.8627 58.9729 43.6547 58.9839 43.6547C58.995 43.6547 59.004 43.8627 59.004 44.1169ZM66.6181 44.2578C66.5991 44.4492 66.5681 44.4748 66.3316 44.4942C65.9449 44.526 65.85 44.3244 66.0723 43.9428L66.2362 43.6615L66.4378 43.8523C66.5874 43.9939 66.6339 44.0986 66.6181 44.2578ZM59.4344 44.0785C59.6229 44.4436 59.6177 44.508 59.3998 44.508C59.2319 44.508 59.2199 44.4843 59.2199 44.1525C59.2199 43.9569 59.2355 43.7969 59.2545 43.7969C59.2734 43.7969 59.3544 43.9236 59.4344 44.0785ZM67.0321 44.4926C66.9628 44.5611 66.7767 44.4363 66.7767 44.3214C66.7767 44.212 66.7893 44.2128 66.9211 44.3306C67.0005 44.4016 67.0505 44.4745 67.0321 44.4926ZM59.6391 44.6409C59.6964 44.6768 59.7251 44.7969 59.711 44.9421C59.6903 45.1567 59.6618 45.186 59.4538 45.2057C59.2261 45.2274 59.2199 45.2207 59.2199 44.951C59.2199 44.7986 59.2415 44.6525 59.2679 44.6265C59.3338 44.5614 59.5239 44.5688 59.6391 44.6409ZM66.6192 44.8819C66.6451 45.1912 66.5136 45.2854 66.2323 45.1588C66.1062 45.102 66.057 45.023 66.057 44.8769C66.057 44.6155 66.1113 44.5676 66.3783 44.5935C66.5743 44.6124 66.5991 44.6421 66.6192 44.8819ZM67.5682 44.975L67.8919 45.2916L67.4242 45.2493C66.8055 45.1934 66.7767 45.1813 66.7767 44.9782C66.7767 44.4755 67.0563 44.4743 67.5682 44.975ZM58.9901 44.9524L58.968 45.2546L58.1413 45.2748L57.3146 45.2951L57.5947 45.0117C57.9016 44.7012 57.9784 44.6741 58.5943 44.6599L59.0123 44.6502L58.9901 44.9524ZM71.2118 44.7924C71.2796 44.7924 71.3108 44.8835 71.3108 45.0807V45.3691L70.9689 45.3474C70.6532 45.3273 70.6253 45.3103 70.6037 45.1242C70.565 44.7907 70.6354 44.698 70.889 44.7482C71.0122 44.7725 71.1574 44.7924 71.2118 44.7924ZM54.5419 45.0726C54.5419 45.2268 54.5176 45.3666 54.4879 45.3834C54.4583 45.4003 54.0858 45.4362 53.6603 45.4635L52.8866 45.513V45.1911V44.8693L53.4804 44.8453C53.8069 44.8321 54.1794 44.8148 54.308 44.8069C54.5348 44.7928 54.5419 44.8009 54.5419 45.0726ZM55.0457 44.8169C55.0457 44.8304 54.9809 44.8994 54.9018 44.9702C54.7621 45.0951 54.7578 45.0944 54.7578 44.9456C54.7578 44.8398 54.8024 44.7924 54.9018 44.7924C54.9809 44.7924 55.0457 44.8034 55.0457 44.8169ZM73.182 45.122V45.4517L72.8481 45.4065C72.6645 45.3816 72.292 45.3612 72.0204 45.3612H71.5267V45.0768V44.7924H72.3543H73.182V45.122ZM74.0322 44.9041C74.0915 44.9226 74.1184 45.02 74.1042 45.1652C74.0825 45.3873 74.0677 45.3976 73.7398 45.4185L73.3979 45.4402V45.113V44.7859L73.6678 44.8303C73.8163 44.8546 73.9802 44.8879 74.0322 44.9041ZM52.6347 45.1835V45.4679L52.2569 45.4894L51.879 45.5109V45.2275C51.879 44.9732 51.8994 44.9409 52.077 44.913C52.1858 44.8959 52.3558 44.8858 52.4548 44.8904C52.6153 44.8981 52.6347 44.9298 52.6347 45.1835ZM75.557 45.1835C75.557 45.5017 75.5556 45.5034 75.3051 45.5034C75.0611 45.5034 75.0532 45.495 75.0532 45.2309C75.0532 44.905 75.087 44.8635 75.3531 44.8635C75.5468 44.8635 75.557 44.8795 75.557 45.1835ZM51.0154 45.2943V45.5746H50.6915C50.3827 45.5746 50.3677 45.565 50.3677 45.3699C50.3677 45.1373 50.4679 45.0319 50.7275 44.9911C50.9859 44.9505 51.0154 44.9817 51.0154 45.2943ZM59.7538 45.3333C59.9121 45.3933 59.896 45.691 59.7213 45.9333C59.4414 46.3218 59.2686 47.1586 59.4345 47.3225C59.5213 47.4082 59.9396 48.2091 59.9396 48.2896C59.9396 48.3215 58.6525 48.3476 57.0795 48.3476H54.2193L54.7372 47.836L55.255 47.3244L55.7737 47.3205L56.2926 47.3166L56.2772 46.8189L56.262 46.3212L56.6974 45.8967L57.1328 45.4724V46.3056C57.1328 46.9989 57.1509 47.1389 57.2408 47.1389C57.3309 47.1389 57.3487 46.9927 57.3487 46.25V45.3612H58.1764H59.004V46.25C59.004 46.9927 59.0218 47.1389 59.112 47.1389C59.2024 47.1389 59.2199 46.9888 59.2199 46.2145V45.2901H59.4299C59.5454 45.2901 59.6912 45.3095 59.7538 45.3333ZM66.5968 46.2323C66.5968 46.9909 66.6144 47.1391 66.7047 47.1391C66.7951 47.1391 66.8127 46.9909 66.8127 46.2323V45.3257L67.3851 45.3435C67.9176 45.3602 67.9738 45.377 68.19 45.584L68.4224 45.8066L68.1375 46.1793C67.9325 46.4476 67.7623 46.5862 67.5298 46.6739C67.1367 46.8222 67.0421 46.9781 67.1029 47.3781C67.1417 47.634 67.1192 47.7267 66.963 47.9541C66.8605 48.1032 66.7767 48.2528 66.7767 48.2865C66.7767 48.3201 66.3719 48.3476 65.8771 48.3476C65.0159 48.3476 64.9775 48.3414 64.9775 48.2007C64.9775 48.12 64.9432 47.9906 64.9013 47.9132C64.7862 47.7007 65.1736 47.3672 65.569 47.3383C65.8156 47.3203 65.8678 47.2902 65.8772 47.161C65.8833 47.0754 65.9883 46.9132 66.1103 46.8005L66.3323 46.5957L66.3006 45.9377C66.2691 45.2859 66.2704 45.2799 66.4328 45.3027C66.5937 45.3253 66.5968 45.3429 66.5968 46.2323ZM71.3108 45.6812C71.3108 45.8181 71.3009 45.9301 71.2889 45.9301C71.2769 45.9301 71.1572 45.8181 71.0229 45.6812L70.7788 45.4323H71.0448C71.3008 45.4323 71.3108 45.4417 71.3108 45.6812ZM54.326 45.5226C54.326 45.5331 54.0021 45.8605 53.6063 46.25L52.8866 46.9584V46.27V45.5817L53.3004 45.556C53.9863 45.5135 54.326 45.5024 54.326 45.5226ZM52.6347 46.4085V47.207L52.0606 47.7773L51.4866 48.3476H50.3205H49.1543L49.3393 48.0207C49.5582 47.6336 49.7143 46.8893 49.6658 46.4637C49.6384 46.2232 49.6657 46.1139 49.797 45.9384C50.0881 45.5495 50.1518 45.6373 50.1518 46.4278C50.1518 47.0124 50.171 47.1389 50.2597 47.1389C50.3488 47.1389 50.3677 47.0085 50.3677 46.3923V45.6457H50.6915H51.0154V46.4989V47.3522H51.4472H51.879V46.5108C51.879 46.048 51.9021 45.6466 51.9304 45.6187C51.9586 45.5908 52.1286 45.5775 52.3082 45.5891L52.6347 45.6101V46.4085ZM69.7275 47.2257C69.7275 47.2995 69.7807 47.3522 69.8554 47.3522C69.9257 47.3522 70.2082 47.5762 70.4831 47.8499L70.983 48.3476H69.4568H67.9305L68.0353 48.1166C68.093 47.9895 68.2363 47.6135 68.3539 47.2811C68.5226 46.8041 68.5686 46.7254 68.5718 46.9078C68.5746 47.064 68.6109 47.1389 68.6839 47.1389C68.7692 47.1389 68.7919 47.0384 68.7919 46.661V46.1831L69.2597 46.6411C69.517 46.8931 69.7275 47.1561 69.7275 47.2257ZM51.0874 48.7387C51.0127 48.8277 50.7393 48.8449 49.4413 48.8429C48.0552 48.8406 47.9045 48.8292 48.0647 48.7387C48.204 48.66 48.5754 48.6365 49.7107 48.6346C51.006 48.6323 51.1665 48.6445 51.0874 48.7387ZM60.0116 48.7387C60.0116 48.8319 59.6147 48.8454 56.8721 48.8454C54.0896 48.8454 53.7428 48.8332 53.8222 48.7387C53.8993 48.647 54.3384 48.6321 56.9617 48.6321C59.6247 48.6321 60.0116 48.6456 60.0116 48.7387ZM66.9207 48.7387C66.9207 48.8285 66.7609 48.8454 65.9153 48.8454C65.0513 48.8454 64.9159 48.8304 64.9514 48.7387C64.9854 48.6513 65.1664 48.6321 65.9568 48.6321C66.7656 48.6321 66.9207 48.6492 66.9207 48.7387ZM71.3828 48.7387C71.462 48.8331 71.2593 48.8454 69.6283 48.8454C67.9448 48.8454 67.6884 48.8217 67.8323 48.6795C67.8586 48.6534 68.6481 48.6321 69.5867 48.6321C71.0158 48.6321 71.3077 48.6494 71.3828 48.7387ZM79.8292 48.7387C79.7934 48.831 79.4114 48.8454 76.9975 48.8454C74.605 48.8454 74.1944 48.8302 74.1176 48.7387C74.0382 48.6442 74.3608 48.6321 76.9493 48.6321C79.5165 48.6321 79.8656 48.645 79.8292 48.7387ZM50.5462 49.2735C50.4217 49.4095 50.3412 49.4161 49.0426 49.3979C47.8023 49.3805 47.6684 49.3667 47.6465 49.2542C47.6241 49.1389 47.7338 49.1298 49.1501 49.1298H50.6779L50.5462 49.2735ZM60.1419 49.2898C60.1647 49.4069 59.9603 49.4142 56.6591 49.4142H53.1522L53.2831 49.2713C53.4111 49.1316 53.4877 49.1288 56.7658 49.1469C59.8922 49.1641 60.1193 49.1737 60.1419 49.2898ZM71.9225 49.272C72.0527 49.4141 72.0483 49.4142 68.1913 49.4142C64.3778 49.4142 64.3298 49.4124 64.3298 49.272C64.3298 49.1316 64.3778 49.1298 68.061 49.1298C71.7009 49.1298 71.7954 49.1333 71.9225 49.272ZM79.4986 49.272C79.4117 49.4095 79.3308 49.4142 77.0981 49.4142C74.879 49.4142 74.7824 49.4086 74.6574 49.272C74.5273 49.1301 74.5316 49.1298 77.0578 49.1298C79.5705 49.1298 79.5878 49.1308 79.4986 49.272ZM48.8914 50.9109L47.7408 52.0521L47.4991 51.7819C47.3663 51.6334 47.1798 51.4125 47.0847 51.291L46.912 51.0703L47.0667 50.7222C47.1517 50.5308 47.3139 50.269 47.4271 50.1406C47.5402 50.0121 47.6328 49.8761 47.6328 49.8384C47.6328 49.797 48.1113 49.7697 48.8375 49.7697H50.0422L48.8914 50.9109ZM60.6379 50.221C60.8052 50.5151 60.8615 50.688 60.83 50.8116C60.769 51.052 61.0553 51.3584 61.2871 51.3008L61.451 51.2602V54.8559V58.4516L61.0012 58.4083C57.5932 58.0809 54.723 57.1536 51.9776 55.4929C51.2739 55.0673 49.9393 54.1064 49.3616 53.6095L49.1112 53.3941L50.9449 51.5814L52.7787 49.7686L56.5899 49.7869L60.4013 49.8053L60.6379 50.221ZM74.2261 51.5521L76.0248 53.3344L75.7009 53.6187C73.5752 55.4852 70.4854 57.0832 67.6075 57.8045C66.2231 58.1514 64.356 58.4445 63.5305 58.4445C63.3983 58.4445 63.3941 58.3247 63.3941 54.5594V50.6743L63.7961 50.222L64.198 49.7697H68.3127H72.4274L74.2261 51.5521ZM78.9306 50.1027C78.6484 50.5078 77.6227 51.7729 77.4844 51.8863C77.4042 51.9521 77.1669 51.7527 76.2737 50.869L75.1629 49.7697H77.1626H79.1624L78.9306 50.1027ZM46.265 52.6912L46.6461 53.124L45.9339 53.831C45.5278 54.2342 45.2129 54.4963 45.2009 54.441C45.1893 54.3876 45.0679 54.2912 44.931 54.2267C44.6518 54.0952 44.6106 53.9366 44.826 53.8227C44.9193 53.7734 44.97 53.6738 44.97 53.54C44.97 53.4264 45.0024 53.3136 45.0419 53.2894C45.1636 53.2151 45.1217 53.1117 44.97 53.1117C44.8755 53.1117 44.826 53.0642 44.826 52.9739C44.826 52.8706 44.8843 52.8307 45.0599 52.814C45.2545 52.7955 45.2938 52.7622 45.2938 52.6164C45.2938 52.4387 45.5294 52.2616 45.7688 52.2595C45.8322 52.2589 46.0555 52.4532 46.265 52.6912ZM19.0031 52.8314C18.9254 52.9542 18.9338 53.0424 19.0554 53.3824C19.6122 54.9381 20.0908 57.2225 20.5702 60.6132C20.6256 61.0047 20.7577 61.7563 21.0328 63.2441C21.5881 66.2475 22.6767 68.646 24.5183 70.9235C24.9761 71.4895 26.529 73.0494 27.1209 73.5377C27.3382 73.717 27.4937 73.8859 27.4662 73.913C27.3531 74.0248 25.6593 72.9759 24.7106 72.2065C23.0589 70.8668 22.3879 70.395 20.8962 69.5244C19.9575 68.9765 19.4536 68.7216 15.5345 66.8125C11.9209 65.0522 11.0367 64.5439 8.98725 63.0489C7.64171 62.0675 5.95374 60.2073 5.11594 58.7827C4.90579 58.4255 4.74703 58.2312 4.66505 58.2312C4.49441 58.2312 4.43856 58.4038 4.53256 58.6407C4.57509 58.7479 4.67132 59.0513 4.74645 59.3149C5.10321 60.5664 6.16857 62.8522 6.99111 64.1309C8.29361 66.1558 10.2411 68.3556 12.1879 70.001C12.6629 70.4025 13.1467 70.8302 13.2629 70.9516C13.3791 71.073 13.5128 71.1723 13.5599 71.1723C13.607 71.1723 13.9815 71.4046 14.3921 71.6885C16.6447 73.2458 17.899 73.8855 20.0869 74.5929C21.2955 74.9836 23.7285 75.5215 25.5382 75.798C25.8351 75.8433 26.418 75.9388 26.8337 76.0101C27.2493 76.0814 27.7351 76.1606 27.9132 76.1861C28.5298 76.2745 30.7595 76.7286 31.5975 76.9364C32.4176 77.1399 32.8071 77.1923 32.8071 77.0993C32.8071 77.074 32.4203 76.6606 31.9475 76.1806C31.4746 75.7006 30.8466 74.9877 30.5519 74.5965C29.5436 73.2578 28.4911 71.3623 27.8414 69.7147C27.6717 69.2845 27.4444 68.7085 27.3361 68.4348C27.2278 68.161 26.8239 67.0091 26.4385 65.875C24.9992 61.639 24.5108 60.4693 23.3956 58.5868C22.2221 56.6056 19.3978 52.685 19.1442 52.685C19.1175 52.685 19.054 52.7509 19.0031 52.8314ZM88.8617 52.8743C88.8235 52.9198 88.7857 53.0477 88.7778 53.1587C88.7558 53.4665 89.0351 53.474 89.3484 53.1739C89.4829 53.0451 89.582 52.9072 89.5686 52.8674C89.5348 52.7672 88.947 52.773 88.8617 52.8743ZM106.313 53.1294C105.971 53.4835 104.445 55.5228 103.719 56.5958C102.621 58.2207 102.117 59.0622 101.469 60.352C100.771 61.7414 100.576 62.2504 99.2234 66.195C97.9953 69.7773 97.0618 71.9145 95.9932 73.5899C95.2333 74.7812 94.7115 75.4331 93.7017 76.4529C93.0337 77.1276 92.8239 77.3812 92.8844 77.4409C92.9448 77.5007 93.193 77.4646 93.8513 77.3005C94.9686 77.022 96.4255 76.7232 97.7236 76.5064C98.8603 76.3166 99.9049 76.1473 100.386 76.0748C101.549 75.8997 104.137 75.3602 104.957 75.1218C107.406 74.4097 109.434 73.4251 111.403 71.9912C111.658 71.8062 112.011 71.5815 112.189 71.4917C112.368 71.402 112.594 71.2419 112.693 71.1359C112.792 71.03 113.262 70.6147 113.737 70.2131C115.718 68.5385 117.743 66.2387 119.029 64.204C119.519 63.4291 120.378 61.7305 120.72 60.8621C120.983 60.1931 121.474 58.6696 121.474 58.5214C121.474 58.4792 121.395 58.4445 121.3 58.4445C121.159 58.4445 121.065 58.55 120.795 59.0112C119.753 60.7973 118.124 62.4565 115.966 63.9301C114.144 65.1742 113.614 65.4576 108.159 68.1041C104.836 69.7163 103.129 70.7368 101.538 72.0611C100.851 72.6333 100.074 73.2017 99.3789 73.6421C98.5732 74.1522 97.7969 74.42 98.3423 73.9997C99.1488 73.3783 100.607 71.931 101.334 71.0301C101.891 70.3404 102.84 68.8521 103.251 68.0247C104.18 66.1532 104.717 64.0693 105.281 60.1511C105.682 57.3684 106.325 54.4384 106.764 53.4C106.85 53.199 106.853 53.1183 106.783 52.9886C106.735 52.8999 106.675 52.8273 106.651 52.8273C106.626 52.8273 106.474 52.9632 106.313 53.1294ZM84.4567 62.3571C80.5112 65.9179 75.2593 68.615 69.9434 69.8107C67.9742 70.2536 65.3496 70.6035 63.9958 70.6035H63.3941V65.2501V59.8968L64.4928 59.8104C67.1374 59.6024 69.3746 59.0501 71.6055 58.0542C73.3905 57.2576 75.3414 55.998 76.7085 54.7598L77.1043 54.4013L80.9662 58.2117L84.828 62.022L84.4567 62.3571ZM49.2414 55.4819C50.0949 56.1701 51.6157 57.1317 52.7324 57.6894C55.1366 58.89 57.55 59.5526 60.4254 59.8015L61.451 59.8902V65.2575V70.6248L60.5693 70.5758C57.475 70.4037 53.82 69.6038 50.8123 68.4407C49.7553 68.0319 48.143 67.3157 47.5374 66.9859C47.3326 66.8744 46.9221 66.6514 46.6253 66.4904C44.7965 65.4984 42.4999 63.8632 40.6878 62.263L40.3999 62.0087L44.2096 58.24L48.0193 54.4714L48.373 54.7693C48.5676 54.933 48.9584 55.2537 49.2414 55.4819ZM27.8412 65.5197C27.8412 65.6726 28.0657 66.0951 28.6032 66.9543C28.8523 67.3524 29.4962 68.5412 30.0342 69.5961C30.5721 70.651 31.0583 71.5517 31.1144 71.5977C31.1705 71.6437 31.2555 71.7988 31.3031 71.9424C31.4394 72.353 32.1265 73.5459 32.7639 74.4787C33.5475 75.6255 35.0049 77.0932 35.9738 77.7112C37.2038 78.4957 38.4338 79.0072 39.9821 79.3778C41.0333 79.6294 41.3773 79.7521 41.4233 79.8921C41.4688 80.0302 40.5254 79.9108 38.8166 79.5619C37.2682 79.2459 36.2525 79.0724 35.47 78.9906C35.094 78.9513 34.5272 78.8885 34.2105 78.8512C33.8939 78.8138 33.0518 78.7505 32.3393 78.7104C31.6268 78.6704 30.6714 78.6039 30.2162 78.5626C29.761 78.5214 28.8704 78.4585 28.2371 78.423C27.0509 78.3566 26.5867 78.3094 24.6746 78.061C22.1095 77.7277 19.6606 77.0174 17.9223 76.1026C17.1757 75.7097 15.9081 74.8543 15.3774 74.3851C14.7911 73.8668 14.3892 73.56 14.3489 73.5998C14.319 73.6294 14.3788 73.737 14.9184 74.6226C15.6573 75.8355 17.4755 77.7913 18.989 79.0013C21.7409 81.2013 24.9075 82.6821 28.0931 83.2587C31.7577 83.9219 35.5207 83.5941 41.5965 82.0825C42.2941 81.909 42.9966 81.767 43.1576 81.767C43.3185 81.767 43.4701 81.735 43.4946 81.6959C43.5191 81.6567 43.6116 81.6247 43.7004 81.6247C43.7891 81.6247 43.8926 81.5942 43.9304 81.5568C43.9933 81.4946 44.2998 81.4074 46.3262 80.8747C46.9919 80.6997 47.5119 80.6104 48.5792 80.4873C48.8821 80.4524 49.2545 80.3701 49.4069 80.3045L49.684 80.1852L49.4681 80.1309C49.3493 80.101 48.8797 79.9899 48.4245 79.8839C47.9693 79.778 47.4025 79.6324 47.165 79.5603C45.8118 79.1496 45.5107 79.0482 44.79 78.7605C43.0913 78.0824 41.5095 77.1862 40.22 76.1711C39.9231 75.9375 38.7553 74.8691 37.6248 73.7971C32.9247 69.3397 31.8079 68.3465 29.6765 66.728C28.2849 65.6712 27.8412 65.3791 27.8412 65.5197ZM97.5178 65.8434C97.1931 66.039 95.7915 67.0875 94.7728 67.8969C93.5593 68.8611 91.7033 70.5348 88.6194 73.4458C85.6694 76.2306 85.2226 76.6139 84.0134 77.3978C83.0617 78.0146 82.2758 78.4243 81.0455 78.945C79.6236 79.5467 77.1138 80.2944 76.1867 80.3924C75.9592 80.4165 75.7729 80.4653 75.7729 80.5008C75.7729 80.6206 76.2947 80.7821 76.8814 80.8439C77.9087 80.952 78.4528 81.0489 79.2994 81.2746C79.7546 81.3959 80.4347 81.574 80.8108 81.6704C81.1868 81.7669 81.5253 81.876 81.5628 81.913C81.6005 81.95 81.7038 81.9803 81.7925 81.9803C81.8812 81.9803 81.9738 82.0123 81.9983 82.0514C82.0227 82.0905 82.1743 82.1225 82.3351 82.1225C82.4959 82.1225 83.328 82.2958 84.184 82.5077C86.8148 83.1589 88.7926 83.5393 90.4907 83.721C91.0844 83.7845 91.975 83.8852 92.4698 83.9448C93.7918 84.1042 95.3595 84.0106 97.4717 83.6464C100.385 83.1439 103.482 81.8019 106 79.9501C107.628 78.7535 109.257 77.1724 110.323 75.756C110.869 75.0298 111.486 74.0305 111.452 73.9281C111.439 73.8907 111.268 73.9922 111.072 74.1538C110.875 74.3153 110.426 74.6826 110.073 74.97C107.899 76.7417 105.081 77.8076 100.945 78.4225C100.245 78.5264 98.3499 78.7033 97.0759 78.7835C93.423 79.0135 91.8081 79.1268 91.6422 79.1648C91.563 79.1829 91.0934 79.2355 90.5986 79.2816C89.5428 79.3801 88.0998 79.6207 85.7566 80.0892C85.4486 80.1507 84.9805 80.2196 84.7161 80.2423C84.4518 80.265 84.2058 80.2893 84.1695 80.2964C84.1331 80.3035 84.0901 80.274 84.0739 80.231C84.0331 80.1224 84.4896 79.9651 85.6687 79.6812C87.3881 79.2673 89.0102 78.5256 90.2028 77.6077C91.6943 76.46 93.2663 74.4622 94.1479 72.5944C94.3048 72.262 94.4977 71.8992 94.5766 71.7881C94.6554 71.677 95.1184 70.8093 95.6054 69.8599C96.0925 68.9105 96.8007 67.6167 97.1793 66.9847C98.0005 65.6139 98.0225 65.5394 97.5178 65.8434ZM56.1252 80.1066C51.7773 80.678 48.4032 81.7784 41.7673 84.7892C39.2244 85.943 36.8252 86.4599 34.0125 86.4599C31.3366 86.4599 29.1622 86.0422 27.0496 85.1223C26.6339 84.9414 26.1132 84.6932 25.8924 84.5708C25.4225 84.3103 25.1064 84.2151 25.1064 84.3341C25.1064 84.3787 25.4869 84.7902 25.952 85.2485C27.7792 87.0489 30.1315 88.4554 33.095 89.5194C34.2937 89.9498 35.2925 90.1786 37.4492 90.5171C38.0912 90.6179 39.4495 90.5914 40.0503 90.4663C40.3613 90.4016 40.8745 90.3456 41.1906 90.3419C41.6351 90.3366 41.794 90.3069 41.8923 90.2107C41.9621 90.1422 42.0715 90.0862 42.1353 90.0862C42.4527 90.0862 45.014 89.3882 45.3663 89.2057C45.7788 88.992 47.1218 88.4508 47.2396 88.4508C47.3048 88.4508 47.8167 88.1517 48.3771 87.7862C48.9376 87.4206 49.6057 86.9967 49.8619 86.8441C50.4736 86.4797 51.8113 85.5726 53.478 84.3921C54.9609 83.3417 55.6846 82.91 56.7496 82.4407C57.8231 81.9677 58.6254 81.7565 59.5078 81.7148L60.2635 81.6791L60.2705 82.0118C60.2812 82.5197 60.3593 82.5547 61.1271 82.3956C61.4834 82.3217 62.3254 82.2318 62.9983 82.1959C66.254 82.0219 66.0373 82.0219 66.7767 82.1954C67.7042 82.4129 68.2245 82.6142 69.3676 83.1977C70.2556 83.6508 70.783 83.9973 73.6138 85.9869C74.0294 86.2791 74.9848 86.9006 75.7369 87.3682C76.489 87.8357 77.331 88.3665 77.6081 88.5477C77.8852 88.7289 78.1663 88.8772 78.2328 88.8773C78.2993 88.8774 78.8013 89.0711 79.3484 89.3078C80.3117 89.7247 81.3668 90.0651 82.631 90.3671C82.9668 90.4472 83.2936 90.5129 83.3575 90.5129C83.4214 90.5129 83.5308 90.5688 83.6006 90.6373C83.699 90.7338 83.8567 90.763 84.3023 90.7673C84.6184 90.7705 85.1651 90.8298 85.5171 90.8995C86.3091 91.0559 87.8617 91.0261 88.8354 90.8357C89.1916 90.7661 89.8879 90.6309 90.3827 90.5354C92.7705 90.0742 95.7301 88.7462 98.0115 87.1123C98.6933 86.624 100.674 84.805 100.674 84.6672C100.674 84.5478 100.449 84.6245 99.7795 84.9714C97.7666 86.0151 95.7289 86.589 93.2255 86.8175C92.344 86.898 90.4253 86.8788 89.663 86.782C87.0161 86.4457 85.9862 86.1489 83.1138 84.8949C78.7701 82.9986 76.8405 82.2434 74.6934 81.5994C73.0173 81.0966 71.1771 80.6926 69.9337 80.5543C69.6026 80.5175 69.0078 80.4515 68.6119 80.4076C67.8238 80.3202 65.628 80.3624 64.9775 80.4774C63.671 80.7085 63.5479 80.7112 62.6385 80.5294C62.1635 80.4345 61.5319 80.3218 61.2351 80.2789C60.9382 80.2361 60.362 80.1534 59.9547 80.0952C59.0406 79.9645 57.1638 79.9701 56.1252 80.1066Z" fill="#189BA5"/>
</svg>
