<svg width="200" height="166" viewBox="0 0 200 166" fill="none" xmlns="http://www.w3.org/2000/svg">
<path d="M97.2164 139.154C57.8625 137.72 27.6427 105.471 29.611 66.1488C31.566 27.1286 64.6606 -2.2739 103.802 0.138418C140.042 2.36942 171.213 33.3854 168.829 73.9008C166.588 112.02 134.31 140.361 97.2164 139.154ZM114.229 93.0076C114.41 92.0511 114.589 91.0945 114.715 90.4244C111.294 90.8502 108.264 91.7567 105.363 91.4519C101.605 91.0551 99.9756 91.4493 97.7026 95.7484C102.522 94.1717 107.336 98.1502 111.669 94.2059C112.355 93.5831 113.406 93.3623 114.289 92.955C119.324 97.3986 124.538 97.3198 127.77 92.7527C129.925 95.0205 130.392 95.2386 131.451 93.499C133.911 89.4601 136.042 85.224 138.688 80.3705C131.11 80.0578 126.049 82.7775 121.371 87.4945C122.225 87.3158 122.735 87.2606 123.213 87.1029C124.49 86.6798 125.754 86.2121 127.024 85.7627C127.06 87.1344 127.242 88.5219 127.081 89.8674C126.966 90.8291 126.319 91.7147 126.03 92.6686C125.379 94.8234 124.02 94.8681 122.107 94.3924C119.526 93.7486 116.859 93.4517 114.229 93.0076ZM167.09 70.3927C166.238 70.1562 165.92 69.9985 165.6 69.9907C163.587 69.9434 161.574 69.9013 159.561 69.9066C154.668 69.9197 154.639 69.9276 154.2 74.7917C153.451 83.0613 151.031 90.8055 146.659 97.8506C144.446 101.414 141.821 104.717 139.897 107.418C142.691 110.553 145.324 113.512 148.141 116.676C160.336 103.495 166.777 88.317 167.09 70.3927ZM51.5873 117.415C52.2127 118.263 52.3704 118.566 52.6042 118.786C64.3032 129.773 78.1885 135.814 94.1472 137.244C97.0167 137.502 98.6565 136.863 98.2229 133.518C97.9943 131.755 98.0836 129.928 98.2203 128.147C98.4068 125.703 97.763 124.439 94.946 124.502C92.6283 124.552 90.2659 124.071 87.9745 123.587C79.2896 121.75 71.4456 118.121 64.5345 112.482C60.6716 109.331 60.1119 109.46 56.4434 113.018C54.9193 114.495 53.2953 115.875 51.5873 117.415ZM51.0039 22.501C50.7306 22.6035 50.4652 22.6219 50.3286 22.7664C38.9055 34.602 32.8037 48.7922 31.5214 65.1371C31.3427 67.4207 32.3544 68.1039 34.4645 68.0014C36.7008 67.891 38.9528 67.87 41.1864 68.0093C43.3333 68.1433 43.8694 67.263 44.3004 65.187C45.5407 59.1983 46.5287 52.9967 48.9306 47.4494C51.5084 41.4869 55.5789 36.1708 59.1974 30.2425C56.8166 27.9931 53.9917 25.3233 51.0039 22.501ZM61.3758 29.399C69.7506 21.7626 79.371 17.0562 90.3421 15.1038C92.8963 14.6491 96.6383 14.9093 97.6763 13.3773C98.9955 11.4353 98.0258 7.99292 98.2097 5.20745C98.3753 2.6795 97.3794 1.9043 94.8698 2.0462C81.9936 2.76885 70.3839 7.00487 59.92 14.4389C57.3395 16.2705 54.9587 18.3833 52.4886 20.3672C55.6341 23.5653 58.3644 26.3402 61.3758 29.399ZM167.116 67.9804C167.035 66.3853 167.006 65.2922 166.916 64.2042C165.781 50.537 161.038 38.2179 152.448 27.57C146.693 20.4356 148.23 21.0189 141.829 27.2416C140.352 28.6764 140.241 30.1295 141.437 31.6957C145.289 36.7463 149.142 41.6997 150.285 48.2955C151.218 53.6615 153.11 58.8593 154.061 64.2226C154.576 67.1185 155.472 68.3299 158.499 68.0356C161.151 67.7754 163.847 67.9804 167.116 67.9804ZM137.635 109.434C134.142 112.311 130.876 114.684 127.999 117.462C125.252 120.113 122.906 123.18 120.396 126.076C118.588 128.162 117.085 128.12 115.18 125.944C114.153 124.77 112.297 123.756 110.779 123.7C108.022 123.603 105.221 124.192 102.472 124.68C101.676 124.822 100.383 125.566 100.354 126.089C100.167 129.723 100.257 133.371 100.257 137.323C118.473 136.818 133.514 130.449 146.159 118.579C143.169 115.37 140.517 112.524 137.635 109.434ZM145.847 20.3804C134.749 10.061 122.01 4.10114 107.365 2.34052C100.028 1.45757 98.9271 2.66374 100.328 9.99793C100.675 11.8059 100.89 14.2392 103.873 14.7989C109.441 15.8422 114.917 17.3794 120.451 18.6145C121.529 18.8563 122.722 18.8011 123.831 18.6513C127.943 18.0994 132.072 17.1088 134.941 21.5498C136.16 23.4365 137.753 25.0815 139.269 26.9499C141.487 24.7346 143.524 22.7034 145.847 20.3804ZM45.4724 84.2885C45.1781 81.8894 44.9862 79.6899 44.621 77.5193C44.2084 75.0623 44.4213 71.5069 42.9365 70.4768C41.0918 69.1944 37.7808 70.1247 35.1215 69.8803C32.039 69.5991 31.2744 70.9945 31.4767 73.8299C32.2677 84.8404 35.2818 95.1624 41.1418 104.523C43.7643 108.714 46.9282 112.569 49.6663 116.329C52.8565 113.339 55.5106 110.848 58.882 107.686C54.47 103.931 50.2891 100.176 45.8744 96.7154C43.9482 95.2044 41.4413 94.4581 39.3785 93.089C36.7665 91.3521 35.6838 87.2947 37.003 85.1662C38.1224 83.3662 42.8892 82.746 45.4724 84.2885ZM68.8835 40.9745C66.1795 37.8921 63.7776 35.1513 61.1998 32.2134C51.6004 42.4066 46.5471 53.9847 45.8639 67.9804C47.9556 67.9804 49.5034 67.9778 51.0486 67.9804C56.9979 67.9935 56.9953 67.9935 58.0701 62.1362C59.5837 53.8796 63.3887 46.7793 68.8835 40.9745ZM71.033 38.7829C76.9088 33.8925 83.3705 30.3108 90.9229 28.7552C98.6775 27.1549 98.6512 27.0261 98.1861 18.9745C98.1808 18.8615 98.1703 18.7511 98.1782 18.6381C98.3122 16.8407 97.3741 16.2836 95.716 16.4045C83.1025 17.3242 72.1892 22.0911 62.6451 30.8417C65.4752 33.5194 68.1319 36.0342 71.033 38.7829ZM137.932 105.101C138.775 104.654 139.256 104.536 139.532 104.234C147.862 95.0941 151.935 84.2176 152.508 71.9668C152.537 71.3413 151.672 70.1431 151.168 70.1142C148.275 69.9434 145.36 69.967 142.465 70.1273C142.007 70.1536 141.214 71.2152 141.243 71.7644C141.364 74.2109 141.729 76.6443 141.968 78.7544C141.048 79.9448 139.966 81.0222 139.264 82.3072C136.928 86.601 134.665 90.9395 132.521 95.3306C131.956 96.4868 131.281 98.3657 131.798 99.0778C132.468 100 134.289 100.087 136.465 100.82C136.694 101.495 137.251 103.119 137.932 105.101ZM74.2757 105.768C70.5705 106.796 67.2516 107.718 63.2048 108.843C73.5741 117.969 84.779 122.502 98.1598 122.812C98.1598 119.588 98.328 116.689 98.06 113.828C97.9759 112.934 96.7907 111.505 95.9919 111.421C87.822 110.553 80.4248 107.731 73.2482 102.547C73.7029 103.968 73.9472 104.738 74.2757 105.768ZM100.228 16.436C100.228 19.8969 100.162 22.9977 100.291 26.0906C100.312 26.6267 101.111 27.5333 101.626 27.5884C109.367 28.4398 116.633 30.6735 123.176 35.1486C123.405 34.9647 123.631 34.7807 123.86 34.5994C123.442 32.5944 123.024 30.5894 122.451 27.8355C125.281 30.9152 127.615 33.4511 130.298 36.3679C130.968 35.6348 131.693 34.8386 132.789 33.6376C131.572 32.6338 130.689 31.3042 129.667 31.1859C127.384 30.9258 126.947 29.4962 126.198 27.7671C125.258 25.5992 124.23 22.819 122.404 21.802C115.798 18.1257 108.521 16.4492 100.228 16.436ZM138.202 67.8227C138.801 64.9768 139.301 62.6039 139.8 60.2336C140.031 60.2809 140.262 60.3282 140.494 60.3755C140.78 62.7695 141.069 65.1634 141.377 67.7281C145.032 67.7281 148.64 67.7281 153.154 67.7281C152.048 62.5697 151.055 57.8187 150.001 53.0808C149.384 50.3058 147.838 48.4926 145.326 46.8056C140.856 43.802 136.936 39.9785 132.818 36.5256C131.628 37.7975 130.837 38.6436 130.356 39.1587C130.955 39.7841 131.775 40.3096 132.106 41.0507C133.372 43.8913 137.388 43.9912 138.163 47.3022C138.481 48.6608 139.048 49.9668 139.535 51.2807C140.833 54.7836 139.306 60.9878 136.678 63.6787C135.632 64.7508 134.97 66.2014 133.914 67.8175C135.948 67.8227 137.259 67.8227 138.202 67.8227ZM125.875 40.2255C122.354 35.7898 114.034 31.5065 106.285 30.1243C100.378 29.0705 100.186 29.2256 100.178 35.0829C100.175 36.5387 99.931 38.0602 100.283 39.4241C100.509 40.3018 101.489 41.3319 102.362 41.634C105.189 42.6221 108.245 43.0163 110.994 44.1646C119.172 47.5808 119.132 47.678 125.329 41.0428C125.552 40.8037 125.699 40.4936 125.875 40.2255ZM80.2014 47.9198C84.1957 46.0277 87.9482 44.1252 91.8084 42.4802C93.7661 41.6446 96.8932 41.8916 97.7473 40.5435C98.8247 38.8433 98.123 36.0158 98.1835 33.6744C98.194 33.2277 98.1441 32.7784 98.1835 32.3343C98.3753 30.2031 97.29 29.3622 95.3665 29.8878C90.7599 31.1439 86.0351 32.1766 81.6598 34.0134C78.2989 35.4246 75.3978 37.9262 72.3364 39.9102C75.4661 43.0977 78.0125 45.6887 80.2014 47.9198ZM90.4893 80.402C96.1522 84.9034 99.5631 84.1966 102.73 77.882C103.108 77.1278 104.367 76.8571 105.1 76.2238C105.951 75.4854 107.415 74.4947 107.318 73.7905C106.889 70.6502 106.464 67.3602 105.173 64.5196C103.09 59.9341 97.4766 58.8278 93.8292 62.2676C91.6534 64.3199 90.2554 67.1973 88.6025 69.5702C87.985 69.2549 87.1047 68.8029 86.227 68.3535C85.9642 69.2444 85.704 70.1352 85.231 71.7382C87.7853 71.1705 89.5012 70.7895 91.338 70.3822C91.2934 71.344 91.2382 72.5475 91.1436 74.5946C92.0213 73.5251 92.5337 73.1782 92.6309 72.7393C93.2747 69.8382 95.4138 70.3323 97.0824 71.1127C99.1216 72.0666 98.328 73.9376 97.1875 75.0229C95.1536 76.9517 92.8175 78.5626 90.4893 80.402ZM67.99 98.3867C71.577 94.8444 74.8013 91.6595 77.9389 88.564C76.4726 86.0754 74.9195 83.7498 73.6923 81.2639C72.5414 78.9331 71.7346 76.434 70.4628 73.2123C69.3381 75.149 68.8309 76.0241 68.3237 76.8992C68.0478 76.8335 67.7745 76.7704 67.4986 76.7047C67.588 75.2095 67.6799 73.7169 67.7351 72.8077C69.1016 72.3951 70.7702 72.2059 70.8149 71.8249C71.0278 69.9985 70.8753 68.1118 70.6388 66.2723C70.6099 66.0542 68.7941 65.6837 68.6312 65.9307C67.9427 66.9713 67.5643 68.2169 66.8653 69.8829C66.2189 70.5977 65.3018 72.0561 63.9984 72.9548C61.9224 74.3843 62.511 75.8901 63.3152 77.5955C66.1506 83.5974 68.9965 89.5941 67.4093 96.563C67.3094 96.994 67.7036 97.5379 67.99 98.3867ZM71.6322 98.0346C77.0822 104.659 90.5812 110.482 95.7055 108.554C88.6761 102.985 88.6761 102.985 91.4905 97.2462C87.4489 94.9706 83.4178 92.7028 79.534 90.5164C76.9403 92.9866 74.3624 95.4383 71.6322 98.0346ZM70.5994 42.0203C63.5779 49.2678 59.8412 57.6925 59.3682 67.6151C62.5347 68.4114 64.1692 68.0382 63.7514 64.5879C63.3887 61.5922 64.9864 59.5793 67.4855 57.8371C71.1434 55.2855 74.4833 52.2766 78.2831 49.2021C75.6185 46.7136 73.2798 44.5273 70.5994 42.0203ZM88.5867 81.9866C86.1035 84.1755 83.6333 86.354 80.5719 89.0554C84.3323 91.0709 87.4305 93.1101 90.823 94.3609C92.1527 94.8523 94.3022 93.8669 95.7659 93.0155C96.8906 92.3611 97.5291 90.8659 98.9324 89.0238C98.173 87.9911 97.3899 86.0886 95.9735 85.2004C93.6531 83.7525 90.9255 82.9641 88.5867 81.9866ZM127.557 41.9179C121.437 46.8213 118.373 50.5791 118.478 52.8942C123.77 49.5779 127.116 50.5081 131.336 55.727C132.978 56.4049 134.621 57.0829 136.205 57.7346C135.617 59.4216 135.222 60.549 134.828 61.6763C135.17 61.8392 135.509 62.0021 135.85 62.1651C136.434 61.2559 137.677 60.1522 137.48 59.4742C136.825 57.2379 135.737 55.1094 134.628 53.0387C134.14 52.1242 132.503 51.3753 132.576 50.6816C133.036 46.4692 129.657 44.7349 127.557 41.9179ZM101.124 42.7088C100.809 43.0688 100.493 43.4315 100.178 43.7915C100.178 45.108 100.162 46.4219 100.181 47.7384C100.231 51.399 102.01 52.387 105.258 50.6001C106.248 50.0562 107.291 49.6068 108.311 49.1128C108.55 49.3572 108.792 49.6042 109.031 49.8486C108.056 51.5566 107.081 53.2647 105.928 55.2855C107.042 55.6429 108.876 56.7308 109.362 56.2998C111.241 54.6285 112.873 52.5841 114.182 50.4293C114.547 49.8302 113.766 47.7332 113.028 47.3994C109.147 45.6467 105.11 44.2382 101.124 42.7088ZM93.5664 50.3794C95.0564 50.3084 97.4477 50.5081 97.5397 50.1376C98.0626 48.017 98.0389 45.7623 98.2203 43.3053C91.9924 43.9307 86.9995 45.5074 82.7924 49.2993C88.4553 55.4458 91.9372 55.5719 93.5664 50.3794ZM58.3407 74.5131C57.4052 72.7078 56.8875 70.3559 55.9704 70.1904C53.1587 69.6806 50.1919 69.967 47.2882 70.0458C46.8546 70.0564 46.2607 70.5215 46.0426 70.934C44.8811 73.1519 47.2041 81.4164 49.3668 82.9904C49.4404 77.8057 54.3044 74.1873 58.3407 74.5131ZM100.196 112.24C100.196 115.678 100.104 118.437 100.267 121.18C100.304 121.795 101.261 122.888 101.731 122.857C104.191 122.689 106.629 122.229 109.036 121.877C107.57 119.162 106.322 116.855 105.076 114.548C105.323 114.358 105.57 114.169 105.82 113.98C104.177 113.476 102.54 112.968 100.196 112.24ZM73.2482 76.2317C75.3216 80.0893 77.1978 83.5817 79.1398 87.2001C81.179 85.3659 82.6269 84.0599 84.0091 82.817C80.8242 77.4825 77.3739 75.1438 73.2482 76.2317ZM129.778 112.185C130.18 112.293 130.579 112.398 130.981 112.506C132.652 111.113 134.326 109.718 135.934 108.378C133.28 105.705 130.907 103.311 128.422 100.807C127.15 102.334 126.971 103.613 128.979 104.486C131.244 105.469 131.754 106.685 130.206 108.853C129.633 109.657 129.896 111.055 129.778 112.185ZM132.986 70.3586C134.303 72.5081 135.183 74.3843 136.473 75.9164C137.593 77.246 138.836 76.6679 138.959 75.0176C139.285 70.6949 140.102 69.2181 132.986 70.3586ZM114.87 79.3956C113.666 82.2205 114.946 84.1571 117.905 84.885C119.119 81.8841 116.055 81.4873 114.87 79.3956ZM60.7557 75.8375C61.0079 75.7823 61.2602 75.7272 61.5125 75.672C61.6018 74.3686 61.8278 73.0521 61.7201 71.7644C61.6728 71.1863 60.958 70.6634 60.5454 70.1142C60.1224 70.6424 59.271 71.2546 59.3577 71.6803C59.6415 73.102 60.2616 74.4579 60.7557 75.8375Z" fill="#189BA5"/>
<path d="M76.9008 166C75.9601 165.112 74.9983 164.203 73.2692 162.571C80.3827 157.457 87.1992 152.556 94.5649 147.259C91.7663 147.75 89.0886 147.679 86.9364 148.709C82.5164 150.825 78.2831 153.376 74.1416 156.017C61.6202 164 47.9293 160.011 39.8462 151.148C39.9382 151.09 40.0696 150.959 40.1169 150.985C51.3323 156.887 61.8751 152.88 72.3863 148.757C80.7637 145.469 89.262 143.483 98.2701 145.84C98.9061 146.005 99.6523 146.137 100.259 145.968C111.351 142.873 121.476 146.428 131.554 150.42C133.632 151.242 135.766 151.944 137.897 152.627C144.441 154.722 150.879 154.682 157.167 151.626C157.824 151.308 158.576 151.182 159.645 150.859C152.44 159.914 138.336 162.947 128.374 157.683C124.422 155.594 120.746 152.995 116.885 150.727C113.178 148.549 109.27 147.004 105.095 147.621C111.84 152.38 118.717 157.234 126.138 162.471C124.443 163.987 123.339 164.973 122.304 165.9C118.052 162.114 114.168 158.054 109.698 154.798C99.1846 147.135 100.162 147.193 90.0661 154.461C85.478 157.757 81.5047 161.917 76.9008 166Z" fill="#189BA5"/>
<path d="M30.8664 101.209C34.0645 107.782 37.2993 114.335 40.4474 120.934C43.317 126.944 46.0893 133.001 48.8196 138.858C31.7783 140.109 9.9097 125.504 7.44482 110.063C12.5901 118.729 20.9149 121.924 28.6433 126.045C32.9371 128.334 36.8894 131.261 41.2331 133.715C31.6521 125.046 32.7085 112.654 29.2766 101.872C29.8074 101.648 30.3382 101.428 30.8664 101.209Z" fill="#189BA5"/>
<path d="M150.106 139.661C150.674 138.486 150.953 137.903 151.236 137.322C154.166 131.315 157.046 125.284 160.045 119.311C163.132 113.159 166.338 107.065 170.08 101.221C167.114 112.539 168.454 125.363 158.45 134.332C168.559 124.948 183.866 123.466 192.183 111.433C189.694 119.466 185.298 126.13 178.132 130.676C169.736 136.003 160.171 137.695 150.106 139.661Z" fill="#189BA5"/>
<path d="M170.115 122.768C172.175 109.282 174.233 95.8119 176.288 82.3418C176.685 82.3917 177.082 82.4417 177.478 82.4916C177.72 92.3853 182.955 102.232 177.329 112.251C184.416 102.699 195.15 96.1982 199.097 84.1523C202.4 96.0116 188.817 113.862 170.115 122.768Z" fill="#189BA5"/>
<path d="M22.652 82.3457C27.4267 95.3008 25.8028 109.42 30.0467 122.567C17.491 114.72 4.19697 107.693 0.909584 91.3486C0.499647 89.3173 0.518042 87.1993 0.673082 84.9998C5.14035 96.0287 15.1943 102.443 22.2447 111.567C16.9996 101.702 22.1738 92.1001 22.652 82.3457Z" fill="#189BA5"/>
<path d="M156.588 122.352C152.173 130.306 149.001 138.807 140.227 143.253C146.487 142.764 152.757 142.357 159.008 141.766C165.299 141.169 171.254 139.527 176.291 135.317C171.787 142.599 165.536 147.279 157.108 148.913C149.309 150.427 141.738 148.995 134.207 147.163C131.308 146.459 128.455 145.584 125.535 144.441C137.954 142.176 144.219 131.686 152.967 124.622C153.837 123.92 154.638 123.135 155.497 122.42C155.618 122.315 155.892 122.386 156.588 122.352Z" fill="#189BA5"/>
<path d="M44.2765 121.966C48.8278 126.221 53.416 130.436 57.9227 134.737C62.5029 139.11 67.4196 142.863 74.06 143.717C74.039 144.029 74.018 144.342 73.9969 144.655C70.2129 145.664 66.4657 146.849 62.637 147.643C53.4502 149.548 44.2502 150.644 35.384 146.21C30.2782 143.656 26.1998 139.964 23.3618 134.782C28.4256 139.086 34.3303 140.95 40.7841 141.407C45.4721 141.741 50.1496 142.195 54.8271 142.644C56.7034 142.823 58.5691 143.128 60.653 143.133C51.3032 139.239 47.9686 130.549 43.6012 122.694C43.8245 122.45 44.0505 122.208 44.2765 121.966Z" fill="#189BA5"/>
<path d="M3.52764 54.6401C2.29258 66.6728 9.54531 75.455 12.2467 85.7717C12.2099 75.4707 19.5756 68.4046 22.8893 59.6251C23.2887 59.7223 23.6881 59.8169 24.0876 59.9141C22.6843 66.3391 21.2811 72.7615 19.8805 79.1864C18.4614 85.6981 17.0424 92.2072 15.6786 98.4745C3.1834 89.7344 -3.43603 67.879 3.52764 54.6401Z" fill="#189BA5"/>
<path d="M184.306 98.632C181.454 85.9476 178.601 73.2475 175.744 60.5473C181.284 65.5611 186.833 78.9366 187.23 86.9199C189.453 81.2728 191.653 76.3745 193.306 71.2976C194.938 66.2864 196.018 61.0939 197.163 56.666C203.331 66.9144 197.508 86.7806 184.306 98.632Z" fill="#189BA5"/>
<path d="M170.231 41.5495C178.659 47.2387 183.539 53.6112 187.827 62.3249C187.827 51.4564 187.827 40.5904 187.827 29.8164C191.425 34.1943 194.208 39.4499 194.305 45.4702C194.384 50.4315 193.553 55.4743 192.56 60.3672C191.574 65.226 189.88 69.9403 188.684 74.0712C184.424 67.2521 179.889 60.3094 175.708 53.1592C173.556 49.4803 172.037 45.4308 170.231 41.5495Z" fill="#189BA5"/>
<path d="M11.5368 74.3777C9.12715 64.7311 4.48908 55.6494 5.36939 45.4036C5.8897 39.3465 8.34144 34.0935 12.3751 29.5054C9.66585 40.4081 12.7929 51.2793 12.362 62.3608C14.1252 52.1859 23.2831 47.808 28.8514 40.6236C26.9016 53.7915 15.3971 62.0638 11.5368 74.3777Z" fill="#189BA5"/>
<path d="M171.95 15.2324C184.054 19.6708 187.186 33.8714 184.651 50.6132C177.54 41.0085 164.677 36.8067 162.27 23.7439C168.292 28.8155 174.284 33.8609 180.725 39.2847C179.051 30.8284 177.679 22.7085 171.95 15.2324Z" fill="#189BA5"/>
<path d="M19.0128 39.1491C25.3905 33.7621 31.5343 28.5695 37.5782 23.4637C35.3656 36.3163 22.5893 40.6259 15.1762 50.3514C14.8767 48.8956 14.5718 48.194 14.6191 47.5186C15.0921 40.752 15.0816 33.8908 16.3036 27.2583C17.3573 21.548 21.5014 17.6352 27.159 15.4463C22.0742 22.4625 20.8864 30.7401 19.0128 39.1491Z" fill="#189BA5"/>
<path d="M24.4658 30.1169C26.9465 17.2985 34.3753 10.2612 46.3239 6.55078C39.3655 14.8678 33.9364 23.7261 24.4658 30.1169Z" fill="#189BA5"/>
<path d="M175.342 30.3501C166.013 24.1432 160.658 15.3138 153.786 7.17285C165.291 10.518 172.517 16.7643 175.342 30.3501Z" fill="#189BA5"/>
<path d="M70.596 42.0205C73.279 44.5274 75.6177 46.7111 78.2797 49.1997C74.4799 52.2742 71.1426 55.2857 67.482 57.8346C64.983 59.5769 63.3853 61.5898 63.7479 64.5854C64.1657 68.0331 62.5312 68.4089 59.3647 67.6127C59.8378 57.6927 63.5745 49.268 70.596 42.0205Z" fill="#189BA5"/>
<path d="M60.7529 75.8358C60.2615 74.4536 59.6414 73.1003 59.3549 71.676C59.2708 71.2503 60.1222 70.6381 60.5427 70.1099C60.9553 70.6591 61.6674 71.182 61.7173 71.7601C61.8251 73.0477 61.5991 74.3643 61.5097 75.6677C61.2548 75.7255 61.0026 75.7807 60.7529 75.8358Z" fill="#189BA5"/>
<path d="M114.815 8.81042C112.676 11.3463 106.942 11.7746 103.997 9.81687C107.754 6.73446 111.089 6.38233 114.815 8.81042Z" fill="#189BA5"/>
</svg>
