<svg width="114" height="95" viewBox="0 0 114 95" fill="none" xmlns="http://www.w3.org/2000/svg">
<path opacity="0.75" fill-rule="evenodd" clip-rule="evenodd" d="M48.4636 0.686075C38.3418 3.0562 28.144 11.3834 23.5553 21.0249C20.6472 27.136 19.5546 31.9072 19.544 38.5417C19.5268 49.3501 22.9734 57.8228 30.6124 65.7475C38.2274 73.6481 46.3239 77.1429 57.0114 77.1429C63.7642 77.1429 67.6623 76.1992 73.9449 73.0428C80.0937 69.9535 87.1069 62.9141 90.2271 56.6999C94.2706 48.6475 95.5786 38.2268 93.6271 29.6144C90.7479 16.9059 80.7876 5.82775 68.3929 1.54846C63.6732 -0.0806811 53.6003 -0.517027 48.4636 0.686075ZM87.2696 0.184448C87.2696 1.17625 98.7088 14.1533 99.5832 14.1533C100.161 14.1533 98.5811 9.75086 97.0216 7.01424C96.2981 5.74414 94.9274 4.11386 93.9763 3.39177C92.1397 1.9974 87.2696 -0.331494 87.2696 0.184448ZM22.4099 1.9619C17.643 4.35379 14.9647 7.82853 13.7516 13.1958L13.3858 14.8152L15.6804 12.9135C16.9424 11.8673 19.3669 9.07687 21.0675 6.71304C22.768 4.34864 24.5319 1.96362 24.9871 1.41217C26.0226 0.15868 25.992 0.164979 22.4099 1.9619ZM65.3615 3.56814C75.1224 6.12723 84.0339 13.5938 88.2461 22.7428C91.0477 28.827 91.896 32.5835 91.8688 38.7765C91.8416 44.9197 90.6596 49.6954 87.7298 55.5037C83.6114 63.6694 76.6359 69.6855 67.5546 72.9048C63.7531 74.2528 62.2452 74.4762 57.0114 74.4653C51.9497 74.4544 50.1442 74.1961 46.4627 72.9547C34.9107 69.059 26.2391 59.6209 23.1245 47.5538C21.9591 43.0403 21.9663 34.2928 23.1389 29.6144C24.6857 23.4431 27.591 18.3925 32.5567 13.2405C37.3375 8.28148 42.3192 5.25168 48.4058 3.60307C52.4788 2.50018 61.2181 2.48185 65.3615 3.56814ZM56.8726 8.45442C54.9644 10.5325 53.4026 12.6272 53.4026 13.1099C53.4026 13.5921 51.6476 15.5951 49.5024 17.5616C45.7709 20.9825 44.5683 22.6254 43.7194 25.4628C42.7356 28.7537 48.5663 25.4582 52.6292 20.427C54.7184 17.8399 56.2508 16.4438 57.0003 16.4438C57.6832 16.4438 59.613 14.9252 61.7305 12.7217C63.6976 10.6745 65.1411 8.99956 64.9385 8.99956C64.7358 8.99956 63.6343 9.56933 62.4901 10.2651C61.3464 10.9614 60.6041 11.2076 60.8406 10.8125C61.3364 9.98564 60.1843 8.2832 59.447 8.75333C58.7303 9.21029 58.8396 8.59872 59.8284 6.62714C60.3087 5.66913 60.6213 4.83766 60.5224 4.7804C60.4236 4.72257 58.7813 6.37576 56.8726 8.45442ZM99.4461 7.39275C100.035 8.4338 101.053 11.4636 101.707 14.1258C102.361 16.7874 103.158 19.4931 103.478 20.1384C103.799 20.7832 103.155 20.2375 102.046 18.925C100.938 17.6125 98.409 15.3443 96.4264 13.8853C94.4438 12.4262 92.8215 10.9448 92.8215 10.5932C92.8215 10.2416 92.6755 10.1042 92.4973 10.288C91.6789 11.132 94.5421 15.85 97.3047 18.2086C98.9337 19.6001 101.309 21.7693 102.583 23.0291L104.899 25.3196L105.241 21.1365C105.812 14.1372 103.952 8.89763 100.052 6.52178L98.374 5.49963L99.4461 7.39275ZM11.5592 8.48648C8.54502 11.5953 7.88378 13.8738 7.87989 21.1663L7.87656 26.7472L10.5487 24.0295C12.0183 22.5343 14.5273 20.0949 16.124 18.6089C17.779 17.0691 19.5151 14.77 20.1608 13.2645C21.2745 10.6671 21.2801 8.99842 20.1675 11.1424C19.8549 11.7448 17.9789 13.5062 15.9985 15.0563C14.0187 16.607 11.7263 18.9061 10.9046 20.1659C9.76978 21.9067 9.49829 22.1129 9.77367 21.0249C9.97298 20.2375 10.7286 17.1922 11.4526 14.258C12.1766 11.3233 13.207 8.42292 13.7428 7.81249C14.2785 7.20149 14.5567 6.53609 14.3601 6.33395C14.1636 6.13124 12.9033 7.10014 11.5592 8.48648ZM107.173 15.9897C107.374 17.0267 107.455 21.6038 107.353 26.1608L107.168 34.4468L106.144 31.326C105.321 28.8184 104.347 27.4618 101.192 24.4246C99.0308 22.3454 97.2653 20.9235 97.2686 21.2642C97.2797 22.563 99.9908 27.7527 102.43 31.1461C103.828 33.0908 105.599 35.9253 106.366 37.4451C107.401 39.4963 107.767 39.8794 107.786 38.9328C107.8 38.2313 108.436 35.946 109.2 33.8541C110.991 28.9449 111.09 23.0256 109.456 18.5219C108.073 14.7081 106.61 13.0864 107.173 15.9897ZM64.2806 22.6895C57.0597 30.1515 56.5955 30.7631 56.9131 32.4002C57.2335 34.0517 56.9231 34.4382 51.3023 39.3966C48.03 42.2833 44.5095 45.5794 43.4796 46.7212C41.3382 49.0953 37.8571 56.1387 37.8571 58.0977C37.8571 59.2435 38.0542 59.3638 39.3839 59.0322C45.3217 57.5503 48.7862 54.9173 55.6784 46.6502C61.4541 39.7225 61.871 39.3491 63.8375 39.3491C65.7635 39.3491 66.4392 38.7971 73.3974 31.5367L80.8848 23.7243L76.0324 26.383C70.6165 29.3504 69.9902 29.5565 71.4515 27.8907C72.4325 26.7729 72.4242 26.6979 71.1633 25.3139C69.6676 23.671 68.8165 23.5301 67.8266 24.7607C66.7928 26.0457 66.5108 25.3471 67.4363 23.7947C68.6178 21.8128 72.2798 14.7259 72.1227 14.7259C72.0478 14.7259 68.5189 18.3094 64.2806 22.6895ZM4.14676 18.5602C1.98316 23.4339 2.09864 28.3013 4.54261 35.2914C6.32868 40.3982 6.45526 40.594 6.94772 39.0136C7.2342 38.0956 8.95531 35.0687 10.7736 32.2863C16.9385 22.8527 17.4615 19.3562 11.7951 25.4542C8.97585 28.4891 7.73166 30.3273 7.14537 32.3258L6.34478 35.0544L6.18044 29.328C6.08994 26.1786 5.99722 21.7332 5.97446 19.4495C5.9517 17.1659 5.85732 15.298 5.76404 15.298C5.67077 15.2985 4.94291 16.7662 4.14676 18.5602ZM112.262 31.2612C112.257 32.3246 111.389 35.4214 110.334 38.1426C109.278 40.8643 108.045 44.7233 107.594 46.7183C106.523 51.4517 106.172 51.7065 106.544 47.4799C106.863 43.8443 106.336 42.2816 102.276 34.8322C100.977 32.4495 100.596 32.0583 100.604 33.1143C100.618 35.1523 102.101 42.001 103.399 46.0243C104.028 47.9718 104.571 50.8739 104.606 52.4739C104.641 54.0738 104.724 55.3828 104.792 55.3828C104.858 55.3828 106.435 53.3036 108.295 50.7623C110.324 47.9907 112.015 44.9695 112.521 43.2138C113.459 39.9573 113.645 31.5218 112.809 30.187C112.402 29.5388 112.268 29.8022 112.262 31.2612ZM0.39863 32.1185C-0.278708 35.5027 0.394189 42.8679 1.64116 45.7179C2.24466 47.0968 4.0818 49.968 5.72407 52.0982L8.70936 55.9721L9.02526 52.9572C9.19848 51.2994 9.99297 47.4948 10.7897 44.5028C11.5869 41.5108 12.3942 37.6455 12.5846 35.9133L12.93 32.7638L10.6825 36.7723C7.77441 41.958 6.63959 45.805 7.09429 48.9407C7.61562 52.5334 6.94828 51.8978 6.19321 48.0818C5.83511 46.2711 4.66587 42.5988 3.59489 39.9217C2.52392 37.2447 1.46683 33.8948 1.2453 32.4775L0.842787 29.9007L0.39863 32.1185ZM79.9626 36.9154C77.945 39.0416 76.3994 41.0676 76.5287 41.418C76.6575 41.7691 74.9897 43.6771 72.8228 45.659C69.0053 49.1492 66.4814 52.9005 66.8334 54.5594C66.9705 55.2059 67.5612 55.1011 69.782 54.036C71.7069 53.1124 73.4951 51.5445 75.6115 48.9235C77.4703 46.621 79.1037 45.1298 79.7894 45.1092C80.4268 45.0903 82.5931 43.298 84.7862 40.9765C88.2206 37.3397 88.4188 37.0168 86.5439 38.1134C83.9728 39.6165 84.1355 39.6154 83.7585 38.1294C83.552 37.3145 83.1617 37.0237 82.5837 37.2527C81.4644 37.6953 81.4883 37.5253 82.8829 35.087C83.5236 33.9669 83.9545 33.0502 83.8396 33.0502C83.7246 33.0502 81.9802 34.7892 79.9626 36.9154ZM55.8732 36.9452C55.5829 37.1983 53.2766 39.2941 50.7477 41.6036C48.2188 43.913 46.0479 45.6973 45.9241 45.5696C45.6254 45.2621 55.192 36.5587 55.8732 36.5174C56.2063 36.4974 56.2063 36.6554 55.8732 36.9452ZM100.153 48.2249C99.7987 49.7997 99.2635 53.9513 98.9648 57.45C98.6661 60.9494 98.047 64.9332 97.5895 66.3035C97.1315 67.6738 96.8434 68.8838 96.9488 68.9926C97.3852 69.4427 107.39 61.9876 108.943 60.055C111.312 57.1088 113.241 52.7304 113.651 49.3702L114 46.507L112.537 49.0839C111.733 50.5011 109.752 53.078 108.135 54.8102C106.519 56.5424 104.161 59.4835 102.896 61.3457C100.36 65.0758 100.172 65.1537 101.476 61.9343C102.524 59.3489 102.54 53.7377 101.513 48.7976L100.799 45.3618L100.153 48.2249ZM11.8856 50.6632C10.9474 56.811 11.0528 59.8431 12.3031 62.6839C12.8922 64.0227 13.2736 65.1176 13.1504 65.1176C13.0271 65.1176 12.1183 63.8933 11.1295 62.3976C10.1412 60.9019 7.78384 58.0026 5.89118 55.9555C3.99796 53.9083 1.89821 51.3315 1.22476 50.2291L0 48.2249L0.298695 51.1923C0.669566 54.8732 2.27353 58.1933 5.08004 61.088C7.19534 63.2697 17.3149 70.6172 17.3149 69.9712C17.3149 69.7903 16.9368 68.8878 16.4749 67.9659C16.0124 67.0445 15.2462 62.7412 14.7721 58.4029C14.0187 51.5113 13.1171 46.2207 12.6968 46.2207C12.6235 46.2207 12.2582 48.2198 11.8856 50.6632ZM17.0323 59.105C17.2405 60.0498 17.7496 62.8042 18.1638 65.2253C19.0055 70.147 19.8738 72.1873 22.3794 75.1312C24.4875 77.6067 24.2249 77.676 21.4261 75.3815C20.2441 74.4132 16.8502 72.3345 13.8843 70.7632C10.9179 69.1919 7.48793 66.9019 6.26261 65.6753C4.31165 63.7227 4.10123 63.6259 4.56982 64.8971C6.06052 68.9422 10.7242 74.0106 15.0325 76.2685C16.4294 77.0003 26.0892 79.4334 27.5993 79.4334C27.6998 79.4334 26.937 77.9847 25.9027 76.2135C24.8689 74.4429 23.3876 71.0283 22.6109 68.6261C21.1196 64.0159 16.3033 55.7951 17.0323 59.105ZM94.5954 60.3716C93.6604 61.8794 92.0059 65.6902 90.9194 68.8397C89.8323 71.9892 88.2295 75.6134 87.3573 76.8938L85.7716 79.2216L91.101 77.999C97.3042 76.576 100.295 75.1158 103.764 71.8168C105.955 69.7353 109.457 64.482 109.472 63.2571C109.475 63.0212 108.469 63.8372 107.237 65.0706C106.005 66.3035 102.769 68.4996 100.045 69.9506C97.3219 71.4017 93.958 73.4826 92.5695 74.5758C89.718 76.8205 89.1972 76.4775 91.7011 74.0032C92.6116 73.1035 93.7381 71.3158 94.2039 70.0308C95.0484 67.7013 96.8223 58.1727 96.4769 57.8171C96.377 57.714 95.5303 58.8639 94.5954 60.3716ZM82.6353 74.7962C78.8445 78.4731 76.0446 80.7144 74.6727 81.1708C71.1828 82.3315 71.2894 82.4512 77.0284 83.8187C87.1141 86.2226 92.5339 85.225 97.9648 79.966L100.872 77.1509L97.6895 78.6157C95.4154 79.6625 92.5572 80.3033 87.671 80.8616C83.9112 81.2916 80.122 81.8276 79.2503 82.0532C78.1221 82.3453 77.779 82.2748 78.0589 81.8076C78.2748 81.4468 78.8789 81.1513 79.4008 81.1513C81.6537 81.1513 84.5002 78.2492 86.7266 73.6825C87.948 71.1766 88.843 69.126 88.7147 69.126C88.587 69.126 85.851 71.6777 82.6353 74.7962ZM26.9709 74.1062C29.4931 78.8116 30.8089 80.1406 34.2806 81.4869L36.4691 82.3361L33.9708 82.0183C32.5967 81.8437 28.8491 81.4617 25.6428 81.1697C19.5507 80.6153 15.6215 79.513 13.7866 77.8438C12.7184 76.872 12.7162 76.8806 13.6617 78.3958C14.9053 80.3903 17.7729 82.627 21.0719 84.176C24.7534 85.9048 31.3908 85.7633 38.1347 83.8118C40.8829 83.017 42.6318 82.3447 42.0211 82.3189C39.5888 82.2153 36.0705 79.8807 30.8572 74.9113C27.8497 72.0442 25.2131 69.6987 24.9982 69.6987C24.7834 69.6987 25.6711 71.6823 26.9709 74.1062ZM60.3426 82.9334C58.8158 83.1321 55.4346 83.1647 52.8291 83.0055C47.5203 82.6808 44.4073 83.3886 38.0448 86.3669C33.4128 88.5349 28.6364 89.088 25.2064 87.854C23.125 87.105 22.9124 87.1033 23.5064 87.8414C24.6807 89.301 29.5075 91.5103 32.2558 91.8458C36.0589 92.3102 40.1817 90.8758 45.7681 87.1434C49.7888 84.4571 50.8987 83.9704 52.6603 84.121L54.7601 84.3008L51.0774 86.5152C49.0521 87.7332 46.1856 89.8554 44.7077 91.2314C42.1266 93.6342 42.0633 93.7664 43.0921 94.595C44.0898 95.3979 44.4129 95.2089 47.8112 91.8321C51.6915 87.9765 55.5873 85.1598 57.0391 85.1598C58.3283 85.1598 62.6266 88.3322 66.4908 92.1356C69.6215 95.2175 69.9391 95.3933 70.9324 94.5979C71.96 93.7739 71.9023 93.6456 69.4555 91.3116C68.0553 89.975 65.1889 87.8511 63.0863 86.5913L59.2627 84.3008L61.398 84.1187C63.0308 83.9796 64.1368 84.3443 66.1016 85.6706C73.1271 90.4125 75.0142 91.1547 80.052 91.157C84.9566 91.1587 88.1901 90.0426 90.0783 87.696C90.8017 86.7969 90.7506 86.7563 89.4859 87.2247C88.7247 87.5064 86.1036 87.72 83.6608 87.7C79.8016 87.6679 78.5635 87.3759 74.2225 85.4764C68.8287 83.116 64.7236 82.3636 60.3426 82.9334Z" fill="#189BA5"/>
</svg>
