<svg width="114" height="95" viewBox="0 0 114 95" fill="none" xmlns="http://www.w3.org/2000/svg">
<path opacity="0.75" fill-rule="evenodd" clip-rule="evenodd" d="M85.3706 0.0621119C85.3706 0.096364 86.0289 0.772533 86.8334 1.56482C87.6711 2.38982 88.597 3.41309 89.0003 3.95951C91.2312 6.98228 93.8969 9.73619 96.9517 12.1739C98.3463 13.2868 98.9486 13.7006 98.8626 13.4866C98.8235 13.3892 98.5629 12.6837 98.2836 11.9185C97.2511 9.09007 96.7765 8.09123 95.7422 6.56992C94.1183 4.18114 92.0673 2.56175 89.231 1.42895C88.2729 1.04626 85.4808 0 85.4177 0C85.3918 0 85.3706 0.0279552 85.3706 0.0621119ZM25.9877 1.1494C21.6064 2.86659 19.5038 4.32817 17.672 6.93009C16.8022 8.16536 16.405 9.00096 15.6102 11.2677C15.198 12.4433 14.7907 13.5713 14.7051 13.7745C14.6196 13.9777 14.5496 14.1627 14.5496 14.1858C14.5496 14.2088 14.8177 14.0105 15.1453 13.7453C15.473 13.48 16.4702 12.6733 17.3615 11.9526C19.8605 9.93159 20.9046 8.84697 22.7922 6.31136C24.1503 4.48703 26.0133 2.31884 27.1679 1.21857C27.5935 0.813083 27.8774 0.484491 27.7987 0.488498C27.7201 0.49241 26.9051 0.789897 25.9877 1.1494ZM53.0888 2.38925C51.5381 2.58618 49.5284 2.94788 49.3882 3.05531C49.3358 3.09548 48.864 3.24126 48.3397 3.37932C46.7266 3.80399 44.7572 4.48789 43.956 4.90158C43.5361 5.11845 42.6885 5.5268 42.0726 5.80912C41.4566 6.09134 40.9526 6.35439 40.9526 6.39351C40.9526 6.43272 40.8203 6.51954 40.6585 6.58662C40.4968 6.65369 40.311 6.76207 40.2457 6.82743C40.1804 6.89279 39.8215 7.10021 39.4482 7.28845C39.0749 7.4766 38.615 7.76626 38.4263 7.93218C38.2376 8.098 37.6804 8.51714 37.1882 8.86348C36.2601 9.51656 34.5966 10.8488 34.3742 11.1171C34.2653 11.2483 34.2964 11.3629 34.5892 11.9085C34.7775 12.2593 34.9839 12.8158 35.0478 13.1451C35.2169 14.0167 35.1093 16.2548 34.8168 17.9511C34.4803 19.9025 34.3781 21.1935 34.3101 24.3534C34.2421 27.5048 34.2341 27.4795 35.006 26.5478C35.7415 25.6601 36.6945 24.7111 36.8514 24.7106C36.9314 24.7102 37.1256 24.6415 37.2829 24.5577C37.4401 24.474 37.7645 24.3462 38.0037 24.2737C38.4474 24.1393 38.5747 24.0042 39.7499 22.4213C40.0203 22.0569 40.2041 21.9352 40.9634 21.617C41.4555 21.4107 41.8989 21.2068 41.9487 21.1638C42.1047 21.029 42.4538 21.0779 42.8018 21.2834C43.1946 21.5154 44.3545 21.6515 45.9716 21.6554C46.9557 21.6578 47.1194 21.6865 48.1639 22.0382C48.7848 22.2474 49.4001 22.4198 49.5312 22.4214C49.8628 22.4253 49.9739 22.5188 50.0467 22.8548C50.0982 23.0929 50.039 23.2542 49.7164 23.7539C49.5001 24.0889 49.3009 24.5001 49.2737 24.6677C49.2269 24.9565 49.2615 24.9986 49.9273 25.464C50.7599 26.0458 51.0962 26.4394 51.2484 27.0101C51.3373 27.3432 51.5273 27.5936 52.1648 28.2174C52.6072 28.6503 53.0428 29.0036 53.1327 29.0025C53.2226 29.0013 53.4742 28.9195 53.6918 28.8206C53.9955 28.6826 54.1024 28.5723 54.1522 28.3456C54.1981 28.1362 54.284 28.0365 54.4477 28.0027C54.5745 27.9765 54.7857 27.9327 54.9168 27.9056C55.3439 27.8167 56.2225 28.3916 57.3623 29.5057C57.6589 29.7956 58.0938 30.1651 58.3285 30.3269C58.7585 30.623 59.5657 30.8714 59.7426 30.762C59.9243 30.6495 60.4745 30.8237 60.8296 31.1062C61.823 31.8964 62.4307 31.6791 63.6383 30.1018C63.969 29.6697 64.4007 28.649 64.4007 28.2988C64.4007 27.9846 64.1181 27.8597 63.4079 27.8597C62.8262 27.8597 62.6856 27.8276 62.5347 27.6607C62.4358 27.5513 62.1511 27.3121 61.9022 27.1291C61.468 26.8102 61.4353 26.8017 61.1057 26.9209C60.7662 27.0438 60.7574 27.0406 60.4019 26.659C59.9713 26.197 59.8255 25.5524 59.8255 24.1108V23.1922L59.1959 22.9976C58.4258 22.7595 58.1899 22.7544 57.9279 22.9699C57.7622 23.1062 57.7221 23.251 57.7101 23.757C57.6963 24.3374 57.6736 24.3973 57.3557 24.6909C57.1568 24.8747 56.9365 24.9933 56.8242 24.9771C56.6462 24.9517 56.6282 24.8569 56.5741 23.6616C56.542 22.9532 56.5514 22.1424 56.595 21.8599C56.673 21.3535 56.6659 21.3307 56.0861 20.2379C55.3313 18.8154 54.5855 17.7462 54.3481 17.7462C54.3191 17.7462 54.1671 17.8606 54.0103 18.0005C53.7504 18.2323 53.7252 18.3083 53.7252 18.8592C53.7252 19.221 53.7657 19.4636 53.8261 19.4636C53.8816 19.4636 53.9044 19.5003 53.8767 19.5452C53.849 19.59 54.0983 20.1009 54.4308 20.6806L55.0353 21.7344L54.7639 21.7887C54.5677 21.828 54.4539 21.9361 54.3521 22.1799C54.16 22.6401 54.047 22.6026 53.9744 22.0542C53.9407 21.7998 53.8815 21.5601 53.843 21.5215C53.8044 21.4829 53.7691 21.4226 53.7646 21.3877C53.76 21.3527 53.7287 21.2597 53.6948 21.181C53.661 21.1023 53.4811 20.6085 53.2952 20.0838C52.7944 18.6708 52.5566 18.0876 52.4526 18.0172C52.4014 17.9826 51.9554 17.9784 51.4614 18.0078C50.5769 18.0607 50.554 18.0565 49.9565 17.737L49.3497 17.4125L48.5587 17.808C48.1237 18.0255 47.5703 18.2735 47.329 18.359C46.8363 18.5337 45.7653 19.2231 45.2059 19.7256C44.6529 20.2223 44.0721 20.4486 43.4937 20.393C43.1276 20.3578 42.9664 20.2891 42.8169 20.1045C42.7089 19.9712 42.4822 19.6908 42.3132 19.4813L42.0058 19.1004L42.4711 18.4471C43.3774 17.1753 43.6333 16.8353 43.9928 16.4257L44.3565 16.0115L44.7753 16.2009C45.3906 16.4789 46.5805 16.7924 47.0114 16.79C47.4595 16.7874 47.6533 16.6376 48.1279 15.9265C48.517 15.3433 48.5487 15.134 48.349 14.4697C48.2755 14.2251 48.2456 14.0063 48.2826 13.9834C48.3197 13.9605 48.5406 13.9862 48.7738 14.0407C49.4402 14.1963 50.9174 14.0681 53.2903 13.6486C54.4928 13.4359 55.5103 13.262 55.5513 13.262C55.5921 13.262 55.7733 13.0309 55.9538 12.7485C56.2673 12.258 56.6151 11.9262 56.8158 11.9262C56.8673 11.9262 56.7566 12.0873 56.57 12.284C56.1619 12.7144 56.0856 12.9042 56.2001 13.2054C56.2953 13.4561 56.49 13.5324 58.279 14.0205C58.8701 14.1817 59.5128 14.3991 59.7073 14.5034C60.195 14.765 60.3553 14.7441 60.8039 14.3597C61.018 14.1762 61.3768 13.9372 61.6012 13.8285L62.009 13.6308L62.4544 13.828C62.6994 13.9365 62.9321 14.0252 62.9715 14.0252C63.0109 14.0252 63.0978 13.8857 63.1648 13.7152C63.3632 13.209 63.4609 13.173 64.2364 13.3211C64.6151 13.3934 65.0859 13.4526 65.2824 13.4527C65.5993 13.4528 65.6399 13.426 65.6399 13.2165C65.6399 12.8895 65.3652 12.7391 64.3238 12.4963C63.7929 12.3725 63.3408 12.2067 63.1976 12.0836L62.9585 11.8776L63.1811 11.547C63.3694 11.2672 63.5134 11.1856 64.1167 11.0166C65.0004 10.7691 65.2586 10.6323 65.2586 10.4116C65.2586 9.83198 63.4168 9.9065 61.7556 10.5535L61.0646 10.8225V11.3744C61.0646 11.8672 61.0437 11.9262 60.8691 11.9262C60.7616 11.9262 60.279 12.0933 59.7968 12.2975C59.3146 12.5016 58.7372 12.6987 58.5138 12.7354L58.1077 12.802L58.1707 11.8394L58.2338 10.8767L57.5283 10.8754C57.1404 10.8747 56.7299 10.8491 56.616 10.8185C56.4106 10.7634 56.4113 10.759 56.7103 10.2101L57.0115 9.65728L57.8228 9.55157C58.269 9.49347 59.449 9.33537 60.4451 9.20027C64.306 8.67657 65.9663 8.81024 67.9752 9.80679C69.282 10.4551 70.5903 11.4812 70.5945 11.8611C70.5969 12.0803 70.4392 12.0363 69.375 11.5208C68.7975 11.2411 68.554 11.1655 68.4774 11.2422C68.1575 11.5624 68.6545 12.6203 69.1738 12.7243C69.3289 12.7553 69.9934 12.7535 70.6505 12.7201C71.7882 12.6624 71.8545 12.6478 72.0391 12.4128C72.2279 12.1726 72.2367 12.171 72.3679 12.3506C72.442 12.4521 72.5027 12.5867 72.5027 12.6498C72.5027 12.8019 72.7258 12.8803 73.1587 12.8803C73.3536 12.8803 73.5539 12.9172 73.6037 12.9623C73.6535 13.0073 74.0159 13.095 74.4091 13.157C74.8023 13.219 75.7658 13.4202 76.5503 13.6042C77.3348 13.7881 78.0854 13.9259 78.2184 13.9104C78.4324 13.8854 78.4664 13.8274 78.5151 13.4051C78.5942 12.7188 78.9015 12.011 79.3536 11.4745C79.5699 11.2176 79.7469 10.9405 79.7469 10.8584C79.7469 10.6501 78.5468 9.60548 77.4116 8.82569C76.8874 8.46562 76.3884 8.09991 76.3027 8.01318C76.2171 7.92646 75.7238 7.60607 75.2065 7.30143C74.6893 6.99669 74.0619 6.61972 73.8121 6.46382C73.3423 6.17025 72.5255 5.76428 71.4542 5.29171C71.1135 5.14135 70.6798 4.92286 70.4904 4.80617C70.0903 4.55954 67.7372 3.75352 66.3548 3.38953C65.8305 3.25157 65.3158 3.09891 65.2109 3.05035C64.8959 2.90447 63.2103 2.59705 61.5889 2.38973C59.5469 2.12869 55.1426 2.1284 53.0888 2.38925ZM95.9509 4.82306C95.9509 4.84691 96.2749 5.17455 96.6709 5.55104C97.9727 6.78879 98.6431 7.83152 99.2365 9.54098C99.5474 10.4368 99.7106 10.9544 100.334 13.0234C101.219 15.956 101.639 17.156 102.466 19.1058C102.919 20.1715 102.918 20.4636 102.465 19.6783C101.111 17.3294 99.6556 15.81 97.0947 14.0702C94.5374 12.333 94.1449 12.0546 93.3087 11.3866C92.419 10.6758 91.7242 9.91985 91.1114 8.9961C90.9263 8.71693 90.7595 8.50397 90.7407 8.52277C90.6347 8.62877 91.4733 11.0112 91.9898 12.0712C93.1671 14.4877 93.9575 15.3143 98.2862 18.6565C101.537 21.1668 102.711 22.2517 103.933 23.8764C104.279 24.3356 104.577 24.695 104.597 24.675C104.617 24.655 104.567 24.2268 104.486 23.7234C104.388 23.1138 104.308 21.5404 104.244 19.013C104.192 16.9257 104.106 14.9215 104.052 14.5594C103.681 12.0556 102.657 9.94094 100.86 7.96605C100.221 7.26403 98.8958 6.19219 98.1021 5.73537C97.6718 5.48788 95.9509 4.75799 95.9509 4.82306ZM16.8372 5.65208C15.9673 6.03686 14.8281 6.65216 14.3714 6.98381C13.5688 7.56686 11.7971 9.39882 11.2766 10.1841C11.0247 10.5642 10.6551 11.2525 10.4552 11.7138C9.56276 13.7735 9.30826 15.6446 9.31674 20.0838C9.3197 21.658 9.27661 23.3539 9.22095 23.8525C9.16528 24.351 9.11905 24.9468 9.1181 25.1765L9.11648 25.5943L9.57791 24.8903C10.7896 23.0419 12.1312 21.7669 15.8906 18.8911C17.2316 17.8653 19.292 15.8567 20.0991 14.7885C21.4818 12.9584 22.2883 11.1684 22.5927 9.25475C22.6425 8.94104 22.6371 8.93236 22.5029 9.11164C22.4244 9.21659 22.1863 9.57046 21.9742 9.898C21.226 11.0528 19.8634 12.2707 17.4091 13.9783C15.5812 15.2501 14.3742 16.193 13.703 16.8737C12.8874 17.7006 11.8152 19.1245 11.2611 20.1164C10.9196 20.7277 10.7369 20.9398 10.7369 20.7247C10.7369 20.6837 11.0641 19.7929 11.464 18.745C12.3163 16.5117 12.6066 15.6015 13.4112 12.6418C14.3542 9.17298 14.9989 7.84736 16.4857 6.3209C17.2474 5.53883 17.2941 5.45 16.8372 5.65208ZM52.3907 9.93264C52.3907 9.99055 52.2859 10.2471 52.1576 10.5026C52.0294 10.758 51.8485 11.321 51.7557 11.7536C51.5343 12.785 51.3979 12.9233 50.6765 12.8479C50.3764 12.8164 50.0066 12.7428 49.8548 12.6842L49.5788 12.5777L49.9125 12.2904C50.0959 12.1324 50.4245 11.9246 50.6425 11.8287C51.0611 11.6445 51.1033 11.5715 51.2038 10.8586C51.2693 10.3934 51.3854 10.2405 51.8665 9.98607C52.206 9.80651 52.3907 9.78771 52.3907 9.93264ZM49.9886 10.6958C49.9271 10.8803 48.545 11.5434 48.2444 11.5327C48.0849 11.5269 48.0322 11.5032 48.1252 11.4788C48.2169 11.4548 48.292 11.3929 48.292 11.3412C48.292 11.2895 48.3313 11.2713 48.3793 11.301C48.4272 11.3307 48.4808 11.3146 48.4984 11.2654C48.5363 11.1589 49.7137 10.5907 49.8965 10.5906C49.9665 10.5905 50.0079 10.6379 49.9886 10.6958ZM105.022 12.7611C105.925 14.5547 106.312 16.9697 106.143 19.7498C106.04 21.434 106.043 25.1664 106.149 26.8579C106.198 27.645 106.328 28.976 106.439 29.8156C106.856 32.9778 106.79 33.204 106.149 30.8174C105.537 28.5384 104.774 27.0582 103.469 25.6128C102.834 24.91 102.506 24.6031 100.474 22.8121C98.3114 20.9061 97.3762 20.0092 96.7027 19.1949C96.3416 18.7585 96.0462 18.4398 96.0462 18.4865C96.0462 18.6931 96.6775 20.6577 97.0653 21.658C98.0502 24.1984 98.7018 25.1923 103.071 30.8174C105.005 33.3066 106.184 35.3602 106.851 37.4002L107.176 38.3955L107.279 37.8743C107.336 37.5875 107.408 37.1812 107.44 36.9713C107.689 35.3427 108.171 33.3783 108.773 31.5329C109.677 28.7623 109.89 27.5573 109.905 25.1405C109.921 22.4729 109.558 20.5282 108.574 18.0243C108.007 16.579 107.245 15.2082 106.327 13.9775C105.371 12.696 104.673 11.8308 104.596 11.8308C104.573 11.8308 104.765 12.2494 105.022 12.7611ZM31.2682 12.4583C30.6552 12.781 29.9179 13.4997 29.7094 13.9775C29.0083 15.585 28.4069 19.176 28.0316 23.9956C27.873 26.0325 27.8653 26.1504 27.7022 29.0046C27.5254 32.0987 27.1741 34.2507 26.7106 35.0808C26.3166 35.7862 25.5828 35.5464 25.3032 34.6209C25.1426 34.0889 25.1373 31.8017 25.2934 30.388C26.0275 23.7411 26.2621 22.275 27.0769 19.2469C27.2572 18.5768 27.4329 17.6966 27.4673 17.291C27.5246 16.6162 27.5122 16.5348 27.321 16.3324C27.204 16.2086 27.05 16.1351 26.971 16.1655C26.8934 16.1952 26.7682 16.2197 26.6927 16.2197C26.5172 16.2197 25.7423 16.9318 25.5622 17.2585C24.8476 18.5553 24.4715 19.5979 24.1259 21.24C23.9946 21.8634 23.8486 22.5024 23.8014 22.6598C23.7541 22.8173 23.6866 23.1607 23.6512 23.4231C23.6158 23.6855 23.5539 23.9431 23.5136 23.9956C23.4731 24.048 23.4403 24.1554 23.4404 24.2341C23.4405 24.3128 23.3299 24.9354 23.1944 25.6175C22.7321 27.9451 22.5382 28.9567 22.4991 29.2431C22.1406 31.8717 22.0974 32.3808 21.9892 35.2539C21.8987 37.6564 21.8103 38.1154 21.3929 38.3495C21.1474 38.4871 21.1212 38.4807 20.8448 38.2157C20.574 37.956 20.5549 37.8922 20.5583 37.2635C20.5647 36.1251 20.8189 33.4268 21.1252 31.2467C21.2283 30.5121 21.4422 28.9384 21.6004 27.7497C21.8123 26.1577 21.9744 25.3131 22.2156 24.5429C22.8138 22.6329 23.0278 21.0856 22.6935 21.0856C22.4638 21.0856 21.5678 21.9848 21.2925 22.4918C20.5991 23.768 19.2926 29.182 18.8803 32.487C18.7628 33.4297 18.7586 33.5074 18.645 36.9224C18.5848 38.7321 18.495 40.2885 18.4455 40.381C18.3 40.6532 18.0937 40.5756 17.8876 40.1713C17.7135 39.8297 17.6952 39.6127 17.696 37.9054C17.6972 35.7543 17.8081 34.268 18.088 32.6541C18.4757 30.4182 18.543 29.1 18.2696 29.1C18.0339 29.1 17.2556 31.1586 16.8986 32.7256C15.8753 37.2188 15.9405 36.721 15.9485 39.9767C15.9569 43.4099 15.9907 43.7622 16.6807 47.6095C16.7351 47.9126 17.2001 49.7591 17.3175 50.1379C17.4044 50.4185 18.1332 52.4855 18.3771 53.1433C18.609 53.7689 20.3356 57.1006 20.7751 57.7706C23.1744 61.4286 26.36 64.9708 30.0859 68.1236C30.8569 68.776 30.7255 68.6728 31.8232 69.4868C33.4557 70.6974 33.6545 70.841 33.7539 70.8808C33.8076 70.9023 34.1946 71.1353 34.614 71.3984C35.0334 71.6616 35.7625 72.0575 36.2344 72.2781C37.4624 72.8524 38.1541 72.9322 38.3719 72.5248C38.4903 72.3033 38.2302 71.0459 37.6684 69.1244C37.4229 68.2848 37.0772 67.1025 36.9 66.4971C36.1927 64.0797 35.7102 61.5597 35.7101 60.2835C35.7101 58.9784 36.1238 57.3797 36.8541 55.8624C37.3848 54.76 38.4313 53.2048 40.8989 49.8516C46.6574 42.0265 47.9188 40.4362 49.6989 38.7567C51.5024 37.0551 51.9707 36.3994 52.1494 35.3255C52.2636 34.6393 52.133 34.191 51.6971 33.7716C51.198 33.2916 50.6365 33.1093 49.6258 33.099C48.9361 33.0919 48.6752 33.1396 47.8631 33.4214C44.2286 34.6821 42.2437 36.1746 39.7141 39.549C37.1364 42.9876 35.3564 43.9032 34.0552 42.4598C33.3185 41.6427 32.9988 40.6532 32.7136 38.307C32.6306 37.6249 32.5205 36.7447 32.4687 36.3511C31.9774 32.6115 31.6989 23.4523 31.9841 20.4177C32.0458 19.7618 32.2507 18.3664 32.4396 17.3169C32.7023 15.8563 32.7842 15.1401 32.7892 14.2638C32.7961 13.0324 32.694 12.6671 32.258 12.3614C31.9673 12.1575 31.8104 12.1729 31.2682 12.4583ZM81.1694 12.4589C80.9432 12.7002 80.9385 12.7387 80.9463 14.2955C80.9545 15.9223 80.9642 15.9932 81.6026 19.0343C81.8518 20.2213 81.9656 23.7154 81.9073 28.3844C81.8483 33.0997 81.7645 34.825 81.46 37.5915C81.1304 40.5864 80.9845 41.1838 80.3484 42.1438C79.7869 42.9914 79.0948 43.2998 78.2907 43.0608C77.1871 42.7329 76.0511 41.7154 74.2616 39.452C72.4466 37.1564 71.3665 36.16 69.5018 35.0616C68.5574 34.5052 68.3041 34.394 66.6884 33.8267C64.2804 32.981 62.6324 33.2198 62.0111 34.5045C61.8486 34.8404 61.8172 35.0282 61.8649 35.3793C62.0097 36.4472 62.5285 37.2573 63.8499 38.4792C65.4506 39.9591 65.6781 40.1857 66.4717 41.09C67.6267 42.406 68.3636 43.3415 72.2168 48.3842C73.0294 49.4477 74.1424 50.8998 74.6902 51.6113C76.6695 54.182 77.8372 56.1748 78.4617 58.0481C78.7757 58.9901 78.8671 60.4065 78.7054 61.8256C78.5389 63.2871 77.8808 66.1305 77.0159 69.1244C76.6482 70.3976 76.3154 71.9151 76.3154 72.3195C76.3154 72.7067 76.525 72.8336 77.0559 72.7684C79.1364 72.5125 84.0597 68.8813 88.2058 64.5447C89.881 62.7926 90.0776 62.5583 91.7816 60.2843C94.3574 56.8468 96.0325 53.4107 97.0895 49.3959C98.0165 45.8748 98.3818 42.0962 98.1613 38.307C98.0591 36.5494 97.9272 35.8175 97.1458 32.6699C96.6466 30.6593 96.3558 29.8538 95.8792 29.1623C95.6598 28.844 95.6171 28.8187 95.5569 28.9715C95.4371 29.2763 95.4738 29.9702 95.6672 31.0559C96.2382 34.2616 96.5971 37.6532 96.4974 38.8996C96.4512 39.4778 96.1834 40.1694 95.9795 40.2375C95.9235 40.2562 95.815 40.2087 95.7382 40.1319C95.577 39.9705 95.5062 39.155 95.3772 35.9695C95.2175 32.0317 94.7269 29.2 93.4732 24.9807C92.9614 23.2586 92.5731 22.3009 92.1742 21.7774C91.8969 21.4135 91.2231 20.8947 91.0277 20.8947C90.7478 20.8947 90.9157 22.0223 91.4824 23.9479C91.9436 25.5152 92.237 26.9638 92.5643 29.2908C92.7007 30.2616 92.8962 31.5711 92.9983 32.2008C93.4848 35.1985 93.6045 37.3864 93.3091 37.8869C93.1188 38.2092 92.7293 38.2623 92.5 37.997C92.1928 37.6415 92.1244 37.0309 91.813 31.8669C91.6992 29.9812 89.9529 21.815 89.1096 19.2251C88.6004 17.6614 87.8616 16.5239 87.1291 16.1761C86.0493 15.6631 85.9453 16.722 86.7892 19.6355C87.5201 22.1585 88.0603 25.1742 88.476 29.0523C88.4985 29.2622 88.5815 29.8847 88.6604 30.4357C88.7393 30.9867 88.8073 32.0717 88.8116 32.8469C88.8206 34.4978 88.6885 34.9875 88.1572 35.2741C87.7516 35.4929 87.591 35.3951 87.2545 34.7243C86.6661 33.5514 86.3757 31.6319 86.0356 26.667C85.7061 21.856 84.9898 17.1403 84.2263 14.7544C83.8825 13.6801 83.4994 13.1424 82.6942 12.6042C81.9749 12.1234 81.5243 12.0805 81.1694 12.4589ZM7.81463 13.8619C5.29567 17.2414 4.1143 20.1467 3.86362 23.5785C3.64038 26.6346 3.83407 28.3075 4.75141 31.2467C5.64596 34.1128 5.78923 34.5866 6.06403 35.5879C6.36695 36.6916 6.6142 37.8964 6.66586 38.5206C6.68435 38.7429 6.71991 38.9453 6.74498 38.9704C6.76995 38.9955 6.92856 38.5944 7.09727 38.079C7.70359 36.2276 9.08226 33.7504 10.7671 31.4852C11.1379 30.9867 11.6618 30.2783 11.9314 29.911C12.2011 29.5436 12.7325 28.8218 13.1125 28.3068C15.1712 25.5172 16.3319 23.264 17.0537 20.6562C17.4295 19.2984 17.4803 19.0821 17.4225 19.0846C17.3889 19.0861 17.1899 19.3454 16.9802 19.661C16.565 20.2857 15.575 21.2781 13.6321 23.0173C9.84757 26.4049 8.51607 28.3188 7.6544 31.6094C7.04427 33.9397 6.94038 33.5709 7.3104 30.388C7.41411 29.4959 7.54317 28.4356 7.59731 28.0316C7.7419 26.9523 7.68891 24.7156 7.4509 21.8488C7.23291 19.2229 7.33776 16.7679 7.73075 15.2981C7.85581 14.8303 8.14872 14.0521 8.38168 13.5686C8.61463 13.0851 8.77877 12.6898 8.74646 12.6902C8.71405 12.6906 8.29475 13.2179 7.81463 13.8619ZM50.8206 20.5828C50.4616 20.8919 50.4081 20.788 50.7364 20.4191C50.9034 20.2316 51.0192 20.1631 51.0439 20.2374C51.0657 20.3028 50.9652 20.4582 50.8206 20.5828ZM62.8194 21.1799C62.5095 21.3368 62.0095 21.6838 61.708 21.9511C61.2071 22.3953 61.1598 22.4714 61.1585 22.8347C61.1567 23.3162 61.1081 23.3974 60.6954 23.6092C60.3956 23.763 60.3844 23.785 60.5321 23.9326C60.6684 24.0688 60.9394 24.091 62.4741 24.091C64.5169 24.091 64.3438 24.0366 65.8398 25.1489C66.7313 25.8117 67.1986 26.0469 67.6243 26.0469C68.0481 26.0469 68.4994 25.8573 68.4994 25.6792C68.4994 25.5922 68.1348 24.9746 67.6892 24.3067C67.2436 23.6389 66.879 23.0379 66.879 22.9712C66.879 22.9046 67.0295 22.6381 67.2136 22.379C67.3975 22.12 67.5117 21.8716 67.4671 21.8269C67.4226 21.7823 66.9825 21.7583 66.4891 21.7735L65.5922 21.8011L65.5629 22.2066C65.5367 22.5681 65.5077 22.6121 65.2945 22.6121C64.8982 22.6121 64.6867 22.4439 64.6867 22.1287C64.6867 21.785 64.4883 21.2823 64.2641 21.0579C64.0155 20.809 63.4595 20.8558 62.8194 21.1799ZM52.5629 22.8645C52.8716 23.1205 52.9734 23.4708 52.7391 23.4708C52.5828 23.4708 52.3705 23.2266 52.2206 22.8745C52.0804 22.5452 52.1747 22.5425 52.5629 22.8645ZM73.5036 23.7757C72.2784 23.9123 71.5611 24.0575 71.4501 24.1914C71.3896 24.2644 71.3039 24.4844 71.2598 24.6804C71.1601 25.1226 71.3476 25.717 72.0229 27.0991C72.2868 27.6393 72.5027 28.1516 72.5027 28.2376C72.5027 28.4568 72.3121 28.6229 72.0604 28.6229C71.7511 28.6229 71.7117 28.7498 71.784 29.5133L71.8489 30.1972L72.4379 30.64C73.2611 31.2587 73.7797 31.5018 74.2013 31.4667C74.6095 31.4328 74.6079 31.4481 74.3454 29.9953C74.259 29.5169 74.2136 29.0593 74.2446 28.9786C74.2756 28.8978 74.4324 28.8028 74.5932 28.7675C74.7541 28.7321 74.8857 28.6735 74.8857 28.6372C74.8857 28.6009 74.6669 28.2715 74.3996 27.9054C74.1322 27.5391 73.8105 27.0369 73.6847 26.7894C73.4547 26.337 73.3706 25.5698 73.551 25.5698C73.6033 25.5698 73.8559 25.7207 74.1122 25.905L74.5782 26.2402L75.0179 26.0515C75.5183 25.8368 75.5554 25.7003 75.3095 24.9778C75.1449 24.4946 74.6026 23.8025 74.3403 23.741C74.2471 23.7192 73.8706 23.7348 73.5036 23.7757ZM111.447 26.7624C111.477 26.9724 111.52 27.7881 111.541 28.5752C111.571 29.6966 111.54 30.2336 111.396 31.0559C111.205 32.144 110.59 34.2755 110.062 35.6833C108.244 40.5238 107.961 41.5781 107.105 46.7031C106.964 47.546 106.721 48.3728 106.613 48.3728C106.491 48.3728 106.513 47.9454 106.682 47.037C106.915 45.7869 106.888 43.2547 106.628 41.9844C106.197 39.8781 105.56 38.5487 103.279 34.9972C101.509 32.2422 100.765 30.935 100.33 29.8155C100.157 29.3707 100 29.0222 99.9811 29.0413C99.9098 29.1127 100.142 31.7535 100.285 32.487C100.636 34.3013 100.761 34.8704 101.16 36.4942C101.609 38.3221 102.672 41.7946 103.28 43.4264C104.083 45.5779 104.722 47.606 104.87 48.4682C104.978 49.0978 105.029 50.0084 105.036 51.4497C105.042 52.591 105.07 53.5222 105.098 53.5189C105.126 53.5156 105.514 52.9476 105.959 52.2566C106.405 51.5656 107.322 50.2265 107.998 49.281C110.576 45.6756 111.027 44.9697 111.522 43.7679C112.214 42.0886 112.545 40.882 112.967 38.4979C113.215 37.0924 113.265 33.9411 113.063 32.3683C112.804 30.3465 112.238 28.1746 111.638 26.9056L111.391 26.3808L111.447 26.7624ZM1.94392 28.2174C0.487847 32.5283 0.279769 36.0913 1.20959 40.7877C1.89445 44.2464 2.40545 45.2479 5.83422 49.8516C7.36502 51.9071 7.71769 52.4235 8.40341 53.6133C8.64752 54.037 8.8595 54.3836 8.87447 54.3836C8.88943 54.3836 8.90307 53.5356 8.90478 52.4992C8.90974 49.4746 8.93967 49.3251 10.4862 44.6041C11.736 40.7887 12.2148 39.215 12.5403 37.8523C12.8376 36.6077 13.1814 34.9921 13.2659 34.4429C13.2941 34.2593 13.3995 33.6772 13.5 33.1494C13.6715 32.2488 13.8736 29.5682 13.762 29.6724C13.734 29.6987 13.5616 30.1085 13.379 30.5831C12.8872 31.8615 12.5437 32.5013 11.3525 34.3576C8.84635 38.2635 7.86162 40.3936 7.3104 43.101C7.05895 44.3359 7.03074 46.4295 7.24949 47.6095C7.54812 49.2198 7.54641 49.1996 7.36902 49.053C7.06706 48.8037 6.78158 47.5682 6.25266 44.2224C5.92458 42.1475 5.5313 40.8403 4.11411 37.1144C2.51354 32.9067 2.15696 31.4033 2.22149 29.1356C2.24217 28.4076 2.29726 27.6725 2.34397 27.5019C2.39067 27.3313 2.39773 27.1918 2.3596 27.1918C2.32147 27.1918 2.13446 27.6533 1.94392 28.2174ZM61.2195 40.084C61.1193 40.5854 61.1513 40.905 61.3629 41.5169C61.532 42.0062 61.558 42.2515 61.5193 42.993L61.4728 43.8822L61.8974 44.6248C62.928 46.4269 63.0363 46.7119 63.1106 47.8173C63.1594 48.5436 63.2166 48.8505 63.3099 48.8864C63.382 48.914 63.7748 48.9657 64.1829 49.0012C64.5911 49.0368 64.9679 49.0974 65.0203 49.136C65.0727 49.1745 65.5161 49.235 66.0057 49.2705C67.3593 49.3686 67.4765 49.403 67.4064 49.6821C67.3396 49.9488 66.9022 50.6758 66.7456 50.7804C66.6879 50.819 66.6728 50.8511 66.7122 50.852C66.8043 50.8538 66.6693 51.015 65.7644 51.9845C64.9474 52.8598 64.5533 53.1636 63.6318 53.6288C63.2946 53.799 62.9972 53.9686 62.971 54.0055C62.9448 54.0425 62.4086 54.2968 61.7795 54.5707C58.678 55.9211 57.266 56.8136 56.6262 57.8281C56.2267 58.4616 56.0233 59.2673 55.8769 60.7965C55.7994 61.6064 55.6665 62.4738 55.5817 62.7238C55.3635 63.3673 54.8146 64.1886 54.4576 64.4062C54.2907 64.5079 53.5587 64.7303 52.8312 64.9004C52.1035 65.0704 51.4488 65.2532 51.3761 65.3065C51.3034 65.3598 51.1588 65.7605 51.0546 66.197C50.806 67.2401 50.7567 67.3169 50.2223 67.4945C49.6888 67.6719 48.7654 68.257 48.2474 68.7461C48.0462 68.9361 47.7832 69.1559 47.6631 69.2347C47.3104 69.4661 46.4353 69.5406 45.6579 69.4055C44.538 69.2107 44.3277 69.113 44.0688 68.6658C43.7914 68.1866 43.1007 66.4379 42.6671 65.1172C42.4948 64.5924 42.3261 64.1416 42.2921 64.1154C42.2225 64.0617 41.8384 62.805 41.4756 61.4439C41.3427 60.9454 41.2093 60.2155 41.1791 59.8219C41.1207 59.0636 41.1345 59.0229 41.9305 57.5798C42.4012 56.7267 42.5078 55.913 42.2955 54.7938C42.2477 54.542 42.158 54.0246 42.0962 53.6442C41.9577 52.7922 41.8096 52.7521 41.3339 53.4372C41.1504 53.7015 40.7783 54.2251 40.507 54.6007C40.2356 54.9765 39.8763 55.5428 39.7084 55.8594C39.5406 56.1759 39.2614 56.6925 39.0882 57.0074C38.7034 57.7067 38.4294 58.4474 38.2822 59.1871C38.0608 60.2983 38.1974 62.4787 38.5817 63.9677C38.6365 64.1801 38.7374 64.5901 38.8059 64.8787C38.9364 65.4284 39.0082 65.659 39.1473 65.9759C39.3211 66.3717 40.6585 71.3454 40.8101 72.1591C40.9456 72.8871 40.9893 72.9361 41.9058 73.3907C42.2465 73.5597 42.5468 73.7258 42.573 73.7599C42.6367 73.8425 43.6977 74.2988 45.0989 74.8458C45.728 75.0914 46.4362 75.3718 46.6727 75.469C47.6814 75.8834 50.5678 76.5127 53.0495 76.8594C55.2978 77.1734 58.8939 77.19 61.2607 76.8972C63.9709 76.5622 66.7485 75.9284 68.4517 75.2564C70.4456 74.4699 71.9803 73.8254 72.0262 73.7555C72.0524 73.7155 72.4698 73.4992 72.9536 73.2749C73.9164 72.8287 73.8234 72.9556 73.986 71.8674C74.0685 71.3151 74.7793 68.385 74.8828 68.1703C75.0517 67.82 75.738 65.2495 76.0008 63.983C76.2277 62.8898 76.2608 62.5093 76.2641 60.9669C76.2671 59.5293 76.2367 59.1097 76.1006 58.7057C75.8951 58.0957 75.195 56.6152 75.0369 56.4561C74.9731 56.392 74.7977 56.1248 74.6471 55.8624C74.2909 55.242 73.6645 54.3424 72.8926 53.343C72.5518 52.902 72.1853 52.4228 72.0781 52.2783C71.9709 52.1337 71.6729 51.7545 71.4158 51.4354C71.1588 51.1163 70.9014 50.7747 70.8439 50.6762C70.7864 50.5777 70.482 50.1714 70.1675 49.7733C69.1822 48.5261 68.4607 47.5754 68.2134 47.1986L67.9752 46.8353L67.2603 46.899C66.8671 46.9341 66.0902 47.0177 65.5338 47.0848C64.064 47.2623 63.4484 47.1103 63.6344 46.6156C63.789 46.2046 64.0399 43.9201 63.9866 43.4093C63.8732 42.3223 63.2055 41.1642 62.1978 40.3067C61.4906 39.7049 61.3038 39.6623 61.2195 40.084ZM101.18 42.1234C99.9831 45.9769 99.7269 47.7663 99.5273 53.668C99.3665 58.4245 99.1986 60.4894 98.8043 62.5647C98.5651 63.824 98.0889 65.3859 97.5354 66.7265C97.3057 67.2828 97.1662 67.7091 97.2254 67.6739C97.2846 67.6386 97.8263 67.2405 98.4291 66.7892C99.032 66.3378 100.19 65.5001 101.003 64.9276C104.915 62.1711 106.266 61.1476 107.473 60.0249C110.106 57.5761 112.081 54.5751 113.147 51.4032C113.765 49.5648 113.98 48.2429 113.999 46.1783C114.013 44.5819 113.906 42.7715 113.804 42.8738C113.777 42.9004 113.677 43.3241 113.58 43.8153C113.257 45.4592 112.55 47.1253 111.505 48.7067C110.673 49.9662 110.23 50.5118 108.055 52.9518C106.247 54.9809 105.242 56.3026 103.918 58.3908C102.489 60.6455 101.371 62.3026 101.277 62.3026C101.162 62.3026 101.137 62.3758 101.704 61.0569C102.914 58.2418 103.275 56.5226 103.152 54.1451C103.053 52.2227 102.88 51.1545 102.191 48.2152C101.626 45.8037 101.454 44.6884 101.262 42.2188C101.244 41.989 101.228 41.9702 101.18 42.1234ZM12.6425 43.3685C12.6408 44.8194 12.4613 45.8921 11.6858 49.0883C10.9866 51.9695 10.8347 53.0578 10.8232 55.2664C10.811 57.5952 11.2318 59.4165 12.3067 61.689C12.5992 62.3074 12.8245 62.8555 12.8074 62.907C12.7392 63.1117 11.7638 61.7323 10.1287 59.1188C8.89973 57.1546 8.51522 56.6681 5.63739 53.4353C4.30132 51.9345 2.97707 50.3341 2.42937 49.5585C1.30501 47.9662 0.49166 46.0626 0.288824 44.5487C0.222674 44.0551 0.21562 44.0446 0.132027 44.3179C0.0838911 44.4753 0.0277489 45.5057 0.00716026 46.6077C-0.0350655 48.8699 0.101525 50.0049 0.629966 51.7828C2.08089 56.6641 4.99218 60.0642 11.6901 64.7C12.0308 64.9358 13.0174 65.6171 13.8824 66.2141C14.7474 66.8111 15.7485 67.5094 16.1071 67.7661C16.4657 68.0227 16.7827 68.209 16.8116 68.1801C16.8404 68.1512 16.6024 67.4717 16.2825 66.6701C15.5255 64.7732 15.1933 63.6541 15.0707 62.5888C15.0496 62.4052 14.9661 61.6753 14.8853 60.9669C14.7589 59.8596 14.6209 57.6977 14.4041 53.4295C14.3248 51.8685 14.1927 50.0329 14.1124 49.3746C14.0931 49.2171 14.054 48.8522 14.0255 48.5636C13.8641 46.9291 13.4503 44.907 12.9615 43.3638C12.7297 42.6318 12.6433 42.6331 12.6425 43.3685ZM97.5626 54.1212C96.7349 55.2557 94.846 58.2014 94.3882 59.0715C93.5561 60.6531 92.9033 62.3428 92.1962 64.745C92.0124 65.3695 91.685 66.4816 91.4687 67.2162C89.9923 72.2305 88.9991 74.3511 87.015 76.7257C86.6348 77.1806 86.3238 77.5768 86.3238 77.6059C86.3238 77.6351 86.4313 77.618 86.5628 77.5679C86.9998 77.4016 88.9529 76.9054 89.9268 76.7132C90.4551 76.609 91.1581 76.4606 91.489 76.3834C91.8198 76.3062 92.4122 76.1756 92.8054 76.0931C95.2115 75.5886 95.9356 75.4052 97.2377 74.9703C98.1281 74.6728 99.804 73.8484 100.811 73.2124C102.871 71.9118 105.512 69.572 106.856 67.8585C108.354 65.9483 109.577 63.7756 110.207 61.9043C110.51 61.003 110.918 59.2606 110.914 58.8814C110.913 58.7952 110.717 59.0897 110.478 59.5357C109.712 60.9648 108.995 61.9362 107.866 63.0736C106.81 64.1377 106.449 64.4369 105.101 65.3659C104.334 65.8946 102.815 66.7746 100.669 67.9325C96.4589 70.2047 95.0203 71.158 92.9277 73.0621C91.8086 74.0805 90.9543 74.6977 90.8327 74.5758C90.8009 74.5441 90.9637 74.3111 91.1944 74.058C93.421 71.6169 94.6376 69.7178 95.4209 67.4603C95.7728 66.446 96.1791 64.6246 96.2839 63.5906C96.4012 62.4353 96.9169 58.22 97.0545 57.2936C97.2012 56.3053 97.5485 54.8267 97.7998 54.1212C97.8792 53.8982 97.9248 53.7157 97.9013 53.7157C97.8777 53.7157 97.7253 53.8982 97.5626 54.1212ZM16.0291 54.5267C16.065 54.6317 16.1711 54.9366 16.2651 55.2043C16.6061 56.1759 16.9442 57.9824 17.2689 60.5687C17.918 65.7378 17.9142 65.7148 18.4022 67.4547C18.7358 68.6438 19.8203 70.8134 20.6044 71.8604C20.9453 72.3156 21.6111 73.0951 22.0839 73.5924C23.0836 74.6443 23.361 74.9816 23.2873 75.0555C23.1834 75.1595 21.7732 74.1789 20.3399 73.006C19.5405 72.3518 18.6721 71.6605 18.41 71.4695C17.8183 71.0384 15.952 69.9324 14.7164 69.2807C14.2052 69.0111 13.3689 68.5702 12.8577 68.3009C8.47471 65.9919 6.70704 64.7406 5.12477 62.8274C4.36794 61.9122 3.91595 61.2425 3.45042 60.3467L3.10336 59.6788L3.16361 60.1082C3.27913 60.932 3.32031 61.0966 3.69748 62.2444C4.69431 65.2775 6.25199 67.7302 8.82986 70.326C11.452 72.9664 13.9637 74.6272 16.6466 75.4949C17.9626 75.9205 20.0413 76.3978 21.9367 76.7095C23.4158 76.9527 26.9894 77.7173 27.5155 77.9031C27.7237 77.9766 27.8941 78.0132 27.8941 77.9843C27.8941 77.9555 27.5722 77.5853 27.1788 77.1613C25.2365 75.0687 24.1153 72.7788 22.6129 67.8364C22.4294 67.2329 22.0569 66.0093 21.785 65.1172C21.1348 62.9843 20.7073 61.9006 19.9085 60.3609C19.2847 59.1584 17.632 56.4796 17.1727 55.9267C17.0562 55.7864 16.8503 55.4999 16.7153 55.29C16.3692 54.7522 15.9451 54.2804 16.0291 54.5267ZM59.9201 64.5209C59.9199 64.6389 59.8327 64.8644 59.7265 65.0218C59.6205 65.1792 59.4642 65.4507 59.3794 65.6251C59.1778 66.0397 57.4654 67.92 56.997 68.2413C56.7964 68.3788 56.5144 68.544 56.3702 68.6085C56.226 68.6729 56.1081 68.7564 56.1081 68.794C56.1081 68.9048 55.1899 69.2675 54.9095 69.2675C54.6288 69.2675 54.4002 69.0385 54.3954 68.7527C54.3884 68.3317 56.4584 65.2922 56.8055 65.2136C56.92 65.1878 57.4191 65.0804 57.9146 64.9749C58.4101 64.8695 59.0106 64.6782 59.249 64.5497C59.7932 64.2565 59.921 64.251 59.9201 64.5209ZM89.3191 67.0867C87.6407 68.4287 85.844 70.1399 83.3227 72.7977C80.2958 75.9886 78.8474 77.393 77.996 77.9631C76.3273 79.0804 74.5326 79.8445 71.8355 80.5859C71.1306 80.7797 71.0974 80.7595 72.5981 81.0497C73.6947 81.2618 74.5801 81.4638 77.6022 82.1913C81.9472 83.2372 82.3769 83.3267 84.5283 83.6336C86.0813 83.855 89.1159 83.7819 90.4499 83.4909C91.6094 83.238 92.7921 82.8754 93.4514 82.571C93.7281 82.4432 93.9827 82.3387 94.0171 82.3387C94.0516 82.3387 94.3828 82.1823 94.7532 81.9913C97.2327 80.7121 99.6876 78.6775 101.199 76.6497C101.732 75.9341 102.718 74.2675 102.718 74.0826C102.718 74.0347 102.429 74.2778 102.075 74.6229C100.364 76.2911 98.2372 77.4457 95.793 78.0325C94.2134 78.4118 91.2829 78.8318 89.374 78.9526C88.9284 78.9808 88.4994 79.023 88.4208 79.0464C88.3422 79.0698 87.7321 79.1326 87.0652 79.1859C85.2137 79.3339 82.1832 79.7869 81.2519 80.0547C80.7887 80.188 78.5988 80.4579 78.531 80.3902C78.4191 80.2781 78.6618 80.1636 80.175 79.6143C81.8292 79.0139 81.9809 78.9402 83.1558 78.1642C84.177 77.4899 85.2249 76.4549 85.8452 75.508C86.3829 74.6874 87.3127 72.8289 87.9413 71.3188C88.1596 70.7941 88.3946 70.2359 88.4633 70.0785C89.2216 68.3419 89.5454 67.6554 89.8622 67.1127C90.0676 66.7607 90.2209 66.4579 90.2027 66.4397C90.1845 66.4214 89.7869 66.7126 89.3191 67.0867ZM23.7954 66.9192C23.7954 66.9457 23.9425 67.2187 24.1223 67.5258C24.4688 68.1175 24.7008 68.5936 26.3426 72.0821C27.5327 74.6108 28.0765 75.5654 28.9426 76.6458C30.2214 78.2414 31.859 79.283 34.2804 80.0409C35.7894 80.5133 35.8054 80.52 35.8054 80.6792C35.8054 80.8478 35.6446 80.846 34.6026 80.6655C33.3715 80.4521 33.348 80.4478 32.8145 80.3396C30.6115 79.893 29.9256 79.8118 24.7009 79.379C22.6456 79.2086 21.9167 79.1374 20.221 78.941C19.5717 78.8658 17.9616 78.4814 16.9802 78.1674C14.9919 77.5312 13.3684 76.5712 11.9045 75.1663C11.6293 74.9021 11.4041 74.7291 11.4041 74.7816C11.4041 74.8342 11.5746 75.1582 11.7831 75.5016C13.7871 78.8035 16.9659 81.5397 20.4224 82.9381C21.5511 83.3948 22.6754 83.7132 24.0465 83.9645C25.0636 84.151 25.3935 84.1666 27.3222 84.1203C30.1622 84.0521 31.4766 83.8441 35.2812 82.861C36.3821 82.5765 37.5188 82.2791 37.8071 82.2001C39.8697 81.6349 42.2734 81.1091 42.8351 81.1002C43.1247 81.0957 42.9162 80.9179 42.5492 80.8564C41.8352 80.7368 39.1271 79.7899 38.0757 79.2922C35.9069 78.2657 35.3747 77.8296 31.3255 73.7612C27.5188 69.9363 26.5383 69.0159 24.6991 67.5414C23.9988 66.9799 23.7954 66.8398 23.7954 66.9192ZM62.7327 80.8666C60.0945 81.1112 59.5818 81.2025 57.9994 81.7092L57.2695 81.943L55.6067 81.5268C54.172 81.1676 53.7388 81.0999 52.4474 81.0329C49.71 80.8908 47.7157 81.0876 45.4325 81.7252C43.404 82.2915 42.18 82.7595 38.9509 84.2033C37.4568 84.8713 35.8617 85.5793 35.4062 85.7767C32.7511 86.9268 30.2717 87.3438 27.423 87.119C25.2089 86.9442 23.6974 86.5315 21.9245 85.6174C21.3684 85.3307 20.8954 85.1143 20.8732 85.1366C20.8013 85.2085 22.3003 86.7433 22.9375 87.2501C24.8545 88.7748 27.5644 90.1266 29.7533 90.65C30.6143 90.8559 30.9168 90.8778 32.8982 90.8778C34.8268 90.8778 35.2087 90.8518 36.0728 90.661C38.0065 90.2339 39.8561 89.5215 41.507 88.5679C42.4724 88.0103 42.6553 87.8862 45.7661 85.6783C48.6138 83.6571 48.6858 83.6092 49.4151 83.2516C50.7633 82.5905 51.2443 82.4818 52.8196 82.4819C53.84 82.482 54.3137 82.5187 54.4741 82.61C54.5977 82.6804 54.662 82.7739 54.617 82.8179C54.5722 82.8619 53.9134 83.2476 53.1533 83.675C49.6082 85.6682 47.1031 87.4862 43.9551 90.3503C42.6737 91.516 41.4292 92.7755 41.4292 92.9063C41.4292 92.9475 41.8666 93.3666 42.4011 93.8376C42.9358 94.3088 43.4586 94.7774 43.563 94.8792C43.7512 95.0626 43.7551 95.0613 44.0446 94.706C46.5306 91.6541 48.4131 89.6973 50.6273 87.8634C52.9034 85.9783 54.5594 84.8145 56.0085 84.0819C57.1304 83.5147 57.3704 83.5269 58.5592 84.2116C61.8907 86.1306 64.6526 88.4734 68.8077 92.9053C69.8041 93.968 70.6582 94.8373 70.7056 94.8373C70.7532 94.8373 71.295 94.3399 71.9096 93.7319L73.027 92.6265L72.1691 91.8086C68.5464 88.3544 65.1725 85.8742 60.9216 83.5399C60.2925 83.1945 59.7778 82.8587 59.7778 82.7939C59.7778 82.6127 60.4004 82.541 62.0267 82.535C63.626 82.5291 63.9861 82.6009 65.042 83.1365C65.6146 83.4269 66.9985 84.3739 68.8237 85.7244C70.8878 87.2516 73.352 88.6835 75.124 89.3854C75.9286 89.7041 77.5509 90.1613 78.6031 90.3658C80.0077 90.6387 82.6315 90.6415 83.9894 90.3714C86.4268 89.8865 88.8857 88.7366 90.9467 87.1175C91.6403 86.5727 93.2218 85.0019 93.3954 84.6854C93.4905 84.5118 93.4805 84.5124 93.1741 84.6966C91.3205 85.811 89.1201 86.5342 86.9516 86.742C84.8898 86.9396 82.358 86.6801 80.6244 86.0936C79.2392 85.625 76.1267 84.3286 74.3138 83.4653C72.5449 82.6229 70.7485 81.9476 69.4526 81.638C67.8374 81.2521 67.4484 81.1766 66.4149 81.0481C65.2296 80.9008 63.3583 80.8086 62.7327 80.8666Z" fill="#189BA5"/>
</svg>
