<svg width="153" height="161" viewBox="0 0 153 161" fill="none" xmlns="http://www.w3.org/2000/svg">
<path d="M73.7963 144.13C72.4799 143.625 71.203 143.603 69.9591 143.838C68.7283 144.073 67.5106 144.536 66.4443 145.283C64.6935 146.515 62.9888 147.824 61.2446 149.07C59.9677 149.981 58.6974 150.899 57.3613 151.697C56.2555 152.352 55.0774 152.907 53.8861 153.377C52.5697 153.889 51.2204 154.316 49.8579 154.651C48.9035 154.879 47.9031 154.928 46.9158 154.978C45.1716 155.078 43.4406 154.879 41.7556 154.43C40.6696 154.145 39.6033 153.732 38.5831 153.241C37.3062 152.629 36.0557 151.932 34.8446 151.177C34.0087 150.657 33.232 150.017 32.4949 149.341C31.6919 148.607 30.9613 147.775 30.2044 146.984C30.1451 146.92 30.132 146.806 30.0464 146.579C30.2965 146.671 30.461 146.693 30.5795 146.785C31.8432 147.725 33.2518 148.33 34.6998 148.8C35.72 149.127 36.7928 149.212 37.8328 149.469C39.1623 149.789 40.505 149.696 41.8412 149.675C43.5393 149.647 45.2177 149.341 46.8368 148.807C48.0742 148.401 49.2721 147.817 50.4766 147.283C51.7272 146.728 52.9712 146.13 54.2217 145.554C55.367 145.027 56.5122 144.5 57.6707 144.009C58.2564 143.76 58.8686 143.589 59.4675 143.383C60.106 143.169 60.7444 142.941 61.3894 142.735C61.8765 142.578 62.3635 142.415 62.8572 142.315C64.2526 142.037 65.6479 141.674 67.0564 141.56C68.5703 141.439 70.1039 141.503 71.6243 141.589C72.5655 141.639 73.5001 141.838 74.4216 142.037C75.1193 142.187 75.8104 142.422 76.4883 142.657C77.1794 142.891 77.7981 142.863 78.4102 142.393C78.6801 142.187 79.0684 142.108 79.4107 142.066C81.0167 141.838 82.6227 141.567 84.2352 141.461C86.1835 141.333 88.1317 141.425 90.0668 141.774C91.0936 141.959 92.1006 142.237 93.1142 142.5C93.7987 142.678 94.4767 142.863 95.1349 143.112C96.1221 143.489 97.0963 143.909 98.0704 144.344C99.1696 144.835 100.256 145.361 101.348 145.867C102.276 146.294 103.204 146.721 104.145 147.098C105.231 147.54 106.324 147.981 107.436 148.33C108.43 148.643 109.451 148.892 110.484 149.049C111.372 149.184 112.287 149.212 113.189 149.177C114.538 149.113 115.888 148.999 117.23 148.821C117.967 148.721 118.698 148.501 119.402 148.237C120.39 147.86 121.357 147.426 122.312 146.956C122.832 146.707 123.299 146.337 123.799 146.023C123.871 145.974 123.964 145.967 124.049 145.938C124.029 146.038 124.043 146.18 123.99 146.237C123.161 147.148 122.344 148.066 121.482 148.935C120.271 150.152 118.856 151.07 117.415 151.903C116.375 152.508 115.223 152.893 114.124 153.377C112.393 154.138 110.556 154.352 108.713 154.451C107.64 154.508 106.548 154.544 105.501 154.338C104.178 154.074 102.855 153.853 101.552 153.412C99.9199 152.85 98.3205 152.195 96.8198 151.334C95.2533 150.437 93.7856 149.333 92.2915 148.28C90.7776 147.212 89.2967 146.08 87.7763 145.02C86.8482 144.365 85.8017 143.995 84.696 143.881C83.3862 143.746 82.0764 143.867 80.681 144.109C80.8324 144.251 80.9048 144.351 81.0035 144.408C82.333 145.162 83.7021 145.831 84.979 146.664C87.1115 148.066 89.2111 149.519 91.2055 151.156C93.2458 152.821 95.1283 154.672 97.037 156.487C97.3859 156.822 97.3925 156.943 97.0634 157.277C96.2538 158.082 95.431 158.865 94.6346 159.683C94.3055 160.032 94.0949 159.911 93.8382 159.612C92.7917 158.423 91.7781 157.185 90.6657 156.067C88.6254 154.031 86.585 152.003 84.4393 150.109C82.9649 148.814 81.3326 147.725 79.7464 146.586C79.1408 146.152 78.4958 145.767 77.8179 145.482C77.469 145.34 76.982 145.34 76.6331 145.482C75.863 145.796 75.1127 146.187 74.4084 146.65C72.0784 148.18 69.8735 149.903 67.7739 151.796C65.095 154.217 62.6071 156.836 60.4877 159.847C60.1915 160.267 60.1454 160.239 59.7769 159.904C58.908 159.107 58.0327 158.317 57.1375 157.548C56.8677 157.313 56.8874 157.192 57.1178 156.957C58.9936 155.049 60.876 153.156 62.9033 151.426C65.0029 149.632 67.2407 148.066 69.5049 146.55C70.5119 145.874 71.6045 145.347 72.6576 144.749C73.0065 144.557 73.3685 144.365 73.7963 144.13Z" fill="white"/>
<path d="M114.269 137.49C114.361 137.355 114.44 137.199 114.552 137.085C116.402 135.255 117.869 133.12 118.936 130.664C119.304 129.81 119.712 128.977 120.048 128.109C120.384 127.24 120.667 126.35 120.963 125.468C121.272 124.542 121.582 123.617 121.871 122.685C122.246 121.475 122.602 120.264 122.99 119.054C123.24 118.278 123.503 117.51 123.786 116.755C124.069 116.001 124.359 115.239 124.701 114.513C125.162 113.538 125.596 112.548 126.169 111.651C127.683 109.288 129.263 106.975 130.816 104.647C130.895 104.526 131.033 104.448 131.138 104.348C131.178 104.377 131.217 104.405 131.257 104.426C131.138 104.797 131 105.16 130.895 105.537C130.493 106.911 130.033 108.27 129.723 109.665C129.44 110.932 129.335 112.249 129.144 113.545C129.013 114.477 128.874 115.41 128.736 116.342C128.624 117.097 128.532 117.844 128.387 118.592C128.177 119.659 127.959 120.734 127.683 121.781C127.446 122.685 127.176 123.582 126.827 124.436C126.149 126.094 125.307 127.66 124.214 129.048C123.26 130.266 122.227 131.419 121.233 132.6C121.147 132.7 121.042 132.792 120.95 132.892C120.969 132.928 120.996 132.963 121.015 132.999C121.121 132.949 121.233 132.921 121.325 132.849C122.174 132.123 123.03 131.412 123.852 130.65C125.386 129.233 127.038 128.002 128.795 126.956C130.645 125.852 132.534 124.82 134.396 123.745C136.055 122.799 137.747 121.916 139.359 120.877C141.472 119.524 143.387 117.88 144.993 115.844C146.04 114.506 146.975 113.089 147.58 111.445C147.606 111.381 147.659 111.331 147.699 111.274C147.745 111.281 147.791 111.281 147.837 111.281C147.837 111.538 147.896 111.815 147.843 112.057C147.62 113.075 147.442 114.121 147.086 115.082C146.54 116.542 145.908 117.965 145.23 119.353C144.157 121.574 142.644 123.453 141.071 125.254C139.603 126.941 137.97 128.429 136.226 129.781C134.785 130.899 133.218 131.782 131.685 132.721C131.073 133.099 130.375 133.326 129.704 133.604C129.144 133.839 128.578 134.06 128.005 134.259C127.525 134.423 127.031 134.565 126.538 134.672C125.116 134.985 123.694 135.262 122.273 135.576C121.226 135.803 120.18 136.06 119.14 136.309C118.258 136.515 117.382 136.715 116.507 136.949C115.822 137.127 115.151 137.355 114.473 137.555C114.42 137.569 114.368 137.569 114.315 137.576C114.322 137.555 114.295 137.519 114.269 137.49Z" fill="white"/>
<path d="M6.11507 112.578C6.24671 112.813 6.39151 113.041 6.5034 113.29C7.64207 115.838 9.34679 117.903 11.4135 119.59C12.6048 120.565 13.8686 121.455 15.1784 122.238C17.1332 123.412 19.1472 124.48 21.1547 125.548C23.4847 126.779 25.795 128.053 27.9078 129.69C29.0859 130.601 30.1983 131.605 31.3633 132.538C31.8503 132.922 32.4032 133.214 32.9232 133.548C32.9495 133.513 32.9758 133.477 32.9956 133.442C32.6204 133.064 32.2584 132.673 31.8701 132.31C30.1324 130.687 28.7568 128.744 27.6511 126.594C27.1706 125.661 26.802 124.644 26.4795 123.633C26.1043 122.458 25.8081 121.255 25.5251 120.045C25.3671 119.369 25.3013 118.664 25.196 117.974C25.071 117.177 24.9459 116.386 24.8143 115.589C24.709 114.956 24.5971 114.329 24.5049 113.703C24.3864 112.891 24.3206 112.066 24.1692 111.261C24.0113 110.4 23.827 109.532 23.5703 108.699C23.2478 107.638 22.8463 106.613 22.4843 105.56C22.4579 105.481 22.504 105.375 22.6159 105.225C22.9648 105.688 23.3268 106.129 23.6558 106.613C24.9196 108.478 26.236 110.307 27.3944 112.251C28.3751 113.895 29.2241 115.632 30.0206 117.39C30.501 118.444 30.7643 119.611 31.1263 120.729C31.4159 121.611 31.7187 122.494 32.0083 123.376C32.3111 124.288 32.5941 125.206 32.91 126.117C33.3378 127.334 33.7525 128.566 34.2593 129.747C34.7332 130.858 35.2532 131.968 35.8916 132.979C36.6551 134.189 37.5568 135.307 38.4257 136.445C38.7547 136.88 39.1826 137.221 39.5512 137.62C39.6301 137.705 39.663 137.826 39.7223 137.94C39.6038 137.969 39.4788 138.04 39.3734 138.019C38.9654 137.926 38.5573 137.791 38.1492 137.677C37.5634 137.513 36.9776 137.349 36.3918 137.207C35.76 137.058 35.1215 136.915 34.4897 136.78C33.9236 136.659 33.3576 136.545 32.785 136.445C31.62 136.239 30.4418 136.068 29.2834 135.833C28.25 135.627 27.2232 135.364 26.203 135.093C25.5514 134.922 24.8998 134.716 24.2548 134.495C23.6953 134.303 23.1227 134.118 22.6027 133.84C21.4838 133.242 20.3649 132.651 19.3118 131.94C18.2192 131.199 17.1529 130.395 16.1656 129.498C14.79 128.238 13.4539 126.921 12.2033 125.526C10.808 123.974 9.62323 122.223 8.62278 120.344C7.96459 119.113 7.32614 117.867 6.92464 116.493C6.62188 115.44 6.27962 114.393 5.97685 113.333C5.91761 113.119 5.94394 112.884 5.93736 112.664C6.00318 112.642 6.06241 112.607 6.11507 112.578Z" fill="white"/>
<path d="M105.385 140.769C105.931 140.698 106.477 140.655 107.017 140.562C108.281 140.327 109.525 140.028 110.795 139.829C112.427 139.566 114.066 139.352 115.705 139.174C117.304 138.996 118.91 138.897 120.51 138.733C121.55 138.626 122.583 138.47 123.616 138.32C124.327 138.213 125.038 138.107 125.736 137.929C126.947 137.615 128.171 137.324 129.343 136.882C130.442 136.462 131.515 135.914 132.541 135.309C133.93 134.491 135.115 133.352 136.161 132.063C136.221 131.992 136.3 131.942 136.471 131.928C136.451 132.056 136.451 132.191 136.398 132.305C135.503 134.298 134.272 136.035 132.844 137.594C131.561 139.003 130.165 140.285 128.586 141.317C127.46 142.057 126.328 142.79 125.15 143.41C124.235 143.894 123.254 144.242 122.287 144.584C121.53 144.855 120.747 145.068 119.963 145.203C118.739 145.41 117.508 145.638 116.271 145.652C114.816 145.68 113.362 145.559 111.914 145.381C110.663 145.232 109.419 144.912 108.175 144.67C107.589 144.556 107.01 144.456 106.431 144.328C106.003 144.235 105.582 144.129 105.161 144.008C103.923 143.673 102.686 143.303 101.442 143.004C100.073 142.669 98.6841 142.392 97.3085 142.107C96.6701 141.979 96.0316 141.886 95.3932 141.772C95.2549 141.751 95.1101 141.73 94.9851 141.666C94.9061 141.63 94.814 141.523 94.814 141.445C94.814 141.381 94.9259 141.274 95.0048 141.253C95.8078 141.046 96.624 140.876 97.427 140.655C98.0194 140.484 98.6051 140.27 99.1843 140.043C99.961 139.737 100.725 139.402 101.481 139.06C102.956 138.398 104.338 137.544 105.51 136.377C107.57 134.32 109.571 132.191 111.578 130.077C114.059 127.458 116.593 124.909 119.358 122.639C119.647 122.404 119.944 122.169 120.246 121.948C120.358 121.863 120.497 121.82 120.628 121.763C120.655 121.799 120.687 121.834 120.714 121.87C120.648 122.005 120.595 122.155 120.516 122.269C119.476 123.771 118.726 125.45 117.982 127.13C117.081 129.173 116.225 131.245 115.159 133.188C113.895 135.48 112.217 137.388 109.972 138.662C108.781 139.338 107.576 139.907 106.28 140.27C105.964 140.356 105.668 140.498 105.358 140.612C105.365 140.648 105.371 140.705 105.385 140.769Z" fill="white"/>
<path d="M136.159 87.6694C136.198 88.0182 136.251 88.2745 136.251 88.5307C136.251 89.2781 136.185 90.0327 136.244 90.773C136.35 92.0756 136.527 93.3711 136.685 94.6666C136.777 95.4354 136.883 96.2042 137.008 96.9729C137.133 97.7488 137.291 98.5247 137.429 99.3006C137.528 99.8558 137.653 100.404 137.705 100.959C137.923 103.187 138.186 105.394 137.857 107.657C137.653 109.06 137.409 110.455 136.962 111.772C136.534 113.046 135.895 114.242 135.343 115.473C135.204 115.786 135.027 116.078 134.934 116.455C135.007 116.391 135.092 116.334 135.145 116.263C136.54 114.128 137.936 111.985 139.325 109.843C140.911 107.401 142.747 105.202 144.735 103.13C146.446 101.351 148.085 99.4928 149.395 97.3502C150.185 96.0618 150.909 94.7093 151.495 93.307C151.975 92.1681 152.357 90.958 152.383 89.6696C152.383 89.5486 152.416 89.4276 152.442 89.3137C152.455 89.271 152.488 89.2426 152.587 89.0931C152.706 89.3636 152.87 89.5771 152.877 89.7907C152.896 91.6556 152.962 93.5206 152.864 95.3784C152.804 96.4533 152.502 97.521 152.251 98.5816C152.034 99.507 151.791 100.432 151.455 101.315C151.001 102.525 150.527 103.728 149.928 104.853C149.244 106.141 148.454 107.365 147.644 108.568C146.295 110.569 144.682 112.341 142.931 113.921C141.523 115.196 140.009 116.342 138.495 117.473C136.626 118.869 134.691 120.164 132.809 121.538C131.63 122.392 130.505 123.317 129.346 124.207C129.267 124.271 129.142 124.257 129.044 124.285C129.024 124.179 128.958 124.043 128.991 123.965C129.195 123.481 129.445 123.026 129.636 122.534C130.051 121.488 130.485 120.449 130.814 119.381C131.17 118.235 131.433 117.046 131.696 115.865C131.867 115.067 131.973 114.249 132.078 113.437C132.229 112.291 132.361 111.145 132.473 109.992C132.604 108.611 132.723 107.23 132.835 105.842C132.986 103.97 133.098 102.098 133.276 100.233C133.44 98.5532 133.638 96.8733 133.888 95.2005C134.033 94.2467 134.289 93.307 134.54 92.3746C134.783 91.4706 135.079 90.5879 135.356 89.6981C135.54 89.0931 135.737 88.4951 135.935 87.8972C135.974 87.8332 136.027 87.8047 136.159 87.6694Z" fill="white"/>
<path d="M24.8278 125.055C24.4065 124.778 23.9787 124.514 23.564 124.222C21.4117 122.713 19.2463 121.226 17.1138 119.688C15.5604 118.571 14.0005 117.453 12.5393 116.207C10.8544 114.769 9.20231 113.253 7.65556 111.645C6.09565 110.015 4.74636 108.15 3.76566 106.05C2.98241 104.398 2.34397 102.654 1.75159 100.91C1.44224 99.9921 1.35668 98.9885 1.18555 98.0133C0.757726 95.6429 1.021 93.2441 0.961765 90.8524C0.955183 90.71 0.988093 90.5676 1.00126 90.4182C1.04075 90.411 1.08024 90.4039 1.11973 90.3968C1.15922 90.5249 1.21188 90.6459 1.23162 90.7812C1.4949 92.3258 1.81741 93.8562 2.51509 95.2443C3.08114 96.3761 3.72617 97.4723 4.41068 98.5187C5.96401 100.91 7.95833 102.889 9.80126 105.01C11.3283 106.776 12.8882 108.527 14.2835 110.413C15.5933 112.178 16.6925 114.115 17.897 115.965C18.1471 116.343 18.4499 116.67 18.7329 117.026C18.7658 116.997 18.7987 116.969 18.8316 116.948C18.5881 116.513 18.3117 116.101 18.1076 115.645C17.6798 114.677 17.2586 113.695 16.89 112.698C16.1462 110.648 15.8171 108.498 15.7908 106.313C15.771 104.918 15.9422 103.516 16.0607 102.12C16.1265 101.316 16.2449 100.519 16.3634 99.7216C16.4424 99.1949 16.5609 98.6824 16.6464 98.1556C16.9624 96.2978 17.3441 94.4542 17.5482 92.5821C17.6732 91.4788 17.5218 90.3398 17.4889 89.2081C17.4823 89.0942 17.4692 88.9732 17.4626 88.8593C17.4955 88.8379 17.535 88.8166 17.5679 88.7881C17.693 88.966 17.8707 89.1155 17.9431 89.3148C18.2853 90.2402 18.6276 91.1727 18.904 92.1265C19.141 92.938 19.3253 93.7637 19.4898 94.5965C19.7399 95.8778 19.9637 97.1591 20.1875 98.4475C20.2797 98.9885 20.3389 99.5294 20.3915 100.078C20.5232 101.352 20.6548 102.626 20.7667 103.9C20.8852 105.203 20.9839 106.512 21.0958 107.815C21.2274 109.288 21.3591 110.762 21.5236 112.228C21.6487 113.346 21.8067 114.456 21.9778 115.567C22.1292 116.556 22.274 117.553 22.5109 118.521C22.7479 119.467 23.0638 120.393 23.4192 121.297C23.847 122.386 24.3473 123.439 24.808 124.507C24.8672 124.635 24.8738 124.792 24.9002 124.934C24.8738 124.991 24.8475 125.02 24.8278 125.055Z" fill="white"/>
<path d="M49.1441 141.099C49.0454 141.064 48.9467 141.014 48.8479 140.978C48.3741 140.836 47.8936 140.715 47.4197 140.565C46.7878 140.359 46.1625 140.153 45.5504 139.903C44.2143 139.355 42.9835 138.608 41.9238 137.569C40.6272 136.309 39.5346 134.864 38.6657 133.219C38.0536 132.059 37.4678 130.878 36.8952 129.696C35.8026 127.439 34.7956 125.133 33.4595 123.019C33.3871 122.905 33.341 122.77 33.2291 122.514C33.4529 122.585 33.5648 122.592 33.6372 122.649C36.5398 124.891 39.2581 127.368 41.8251 130.045C43.6614 131.96 45.4978 133.874 47.367 135.754C48.8545 137.248 50.5395 138.451 52.4285 139.284C53.6988 139.839 54.9757 140.38 56.2789 140.836C57.1148 141.128 57.9968 141.263 58.8656 141.477C59.0038 141.512 59.1486 141.555 59.2868 141.598C59.3 141.662 59.3132 141.719 59.3198 141.775C59.0828 141.882 58.8524 142.046 58.6023 142.089C57.4242 142.302 56.2328 142.452 55.0613 142.701C54.2517 142.872 53.4684 143.185 52.6655 143.413C51.8756 143.64 51.0858 143.826 50.2894 144.046C49.4008 144.288 48.5189 144.537 47.6369 144.772C47.2156 144.886 46.7878 145 46.36 145.093C43.5758 145.69 40.772 146.146 37.9286 146.118C36.7043 146.103 35.4801 145.968 34.269 145.747C33.0711 145.534 31.8732 145.221 30.7148 144.801C29.5959 144.395 28.523 143.826 27.4502 143.27C25.1728 142.089 23.1851 140.452 21.3817 138.565C19.7954 136.907 18.4593 135.035 17.4062 132.92C17.393 132.899 17.4128 132.864 17.4259 132.728C17.6037 132.856 17.7748 132.935 17.8867 133.07C19.0517 134.486 20.4536 135.568 22.0004 136.43C22.8692 136.914 23.7972 137.284 24.7121 137.647C25.4624 137.939 26.2325 138.181 27.0026 138.394C27.5028 138.537 28.0228 138.608 28.5362 138.686C29.9184 138.886 31.3006 139.113 32.6894 139.256C34.8088 139.469 36.9347 139.619 39.0607 139.797C40.1138 139.889 41.1734 139.96 42.2266 140.096C43.1217 140.209 44.0037 140.402 44.8922 140.558C46.1559 140.786 47.4131 141.028 48.6768 141.256C48.815 141.277 48.9598 141.235 49.1046 141.22C49.1376 141.178 49.1441 141.135 49.1441 141.099Z" fill="white"/>
<path d="M135.147 69.0071C135.186 69.2206 135.213 69.4413 135.278 69.6477C135.634 70.6514 135.97 71.6693 136.378 72.6445C137.582 75.5202 139.34 78.0543 140.709 80.8233C141.459 82.3466 142.17 83.9055 142.742 85.5142C143.282 87.0161 143.506 88.6248 143.552 90.2478C143.591 91.5931 143.552 92.9313 143.295 94.2553C143.177 94.8675 143.025 95.4725 142.9 96.0776C142.841 96.3694 142.788 96.6613 142.736 96.9531C142.782 96.9674 142.828 96.9816 142.874 96.9958C142.933 96.8463 143.006 96.704 143.039 96.5474C143.374 94.9315 143.69 93.3015 144.039 91.6856C144.355 90.2407 144.631 88.7743 145.066 87.3649C145.625 85.5711 146.31 83.82 146.968 82.0618C147.481 80.6809 148.054 79.3285 148.567 77.9475C148.982 76.8228 149.39 75.6839 149.706 74.5237C149.996 73.4488 150.134 72.3241 150.371 71.2351C150.72 69.6619 150.608 68.0817 150.562 66.4943C150.549 66.1455 150.456 65.8039 150.41 65.4622C150.391 65.327 150.41 65.1775 150.41 65.0422C150.443 65.028 150.483 65.0137 150.522 64.9995C150.654 65.2131 150.832 65.4124 150.904 65.6473C151.213 66.5869 151.516 67.5336 151.779 68.4874C151.944 69.0711 152.056 69.6691 152.181 70.2599C152.74 72.9933 152.813 75.7693 152.668 78.5454C152.582 80.2111 152.253 81.8625 151.99 83.514C151.852 84.3824 151.654 85.2437 151.437 86.0907C151.259 86.7883 151.042 87.4859 150.792 88.1621C150.358 89.3295 149.917 90.4898 149.41 91.6216C149.107 92.2978 148.712 92.9385 148.284 93.5364C146.468 96.1203 144.612 98.6686 142.802 101.253C142.038 102.342 141.34 103.488 140.603 104.605C140.518 104.733 140.379 104.826 140.268 104.933C140.235 104.762 140.169 104.598 140.175 104.427C140.241 102.968 140.393 101.495 140.366 100.035C140.34 98.6259 140.208 97.2022 139.965 95.8213C139.754 94.6112 139.313 93.4438 138.984 92.2551C138.694 91.2372 138.425 90.2193 138.142 89.2014C137.826 88.0554 137.49 86.9165 137.207 85.7562C136.898 84.4963 136.641 83.2221 136.364 81.9479C136.134 80.8802 135.891 79.8196 135.706 78.7448C135.496 77.5489 135.318 76.3459 135.173 75.1358C134.956 73.3349 134.739 71.534 134.857 69.7118C134.87 69.484 134.916 69.2562 134.943 69.0213C135.015 69.0071 135.081 69.0071 135.147 69.0071Z" fill="white"/>
<path d="M2.95712 66.1538C2.98345 66.5382 3.05585 66.8229 3.0032 67.0721C2.62144 68.8231 2.80574 70.5884 3.08218 72.311C3.31254 73.7632 3.77986 75.1868 4.22085 76.5891C4.61576 77.8348 5.10282 79.0449 5.58988 80.255C6.03745 81.3654 6.55084 82.4474 6.98525 83.5649C7.47889 84.8533 7.92646 86.1631 8.36745 87.4657C8.59123 88.1206 8.79527 88.7897 8.95982 89.4659C9.19019 90.4055 9.38764 91.3594 9.59168 92.299C9.9142 93.7795 10.2301 95.2601 10.5461 96.7336C10.5921 96.9471 10.658 97.1464 10.7172 97.36C10.7567 97.3529 10.7962 97.3458 10.8357 97.3315C10.8093 97.1322 10.8093 96.9258 10.7567 96.7407C10.1577 94.527 10.0853 92.2847 10.4407 90.0354C10.658 88.6473 10.9344 87.2521 11.3161 85.9139C11.6518 84.7323 12.1125 83.5792 12.6325 82.4758C13.3894 80.8529 14.2385 79.2727 15.0678 77.6995C15.5944 76.6959 16.2131 75.7491 16.7199 74.7384C17.0885 73.9838 17.3715 73.1652 17.6348 72.3538C17.852 71.6989 17.977 71.0084 18.1613 70.3393C18.1942 70.2112 18.3325 70.1186 18.4246 70.0048C18.4707 70.019 18.5102 70.0332 18.5562 70.0546C18.576 70.3464 18.5826 70.6454 18.6089 70.9372C18.7669 72.852 18.5299 74.7384 18.2798 76.6247C18.0758 78.1337 17.9178 79.6428 17.7138 81.1519C17.6348 81.7355 17.4965 82.3192 17.3715 82.8958C17.1609 83.8568 16.9437 84.8106 16.7199 85.7716C16.5158 86.6257 16.2986 87.4728 16.0814 88.3199C15.8708 89.1385 15.6602 89.9571 15.4364 90.7685C15.2324 91.5231 15.0283 92.2776 14.8243 93.0393C14.6137 93.8294 14.3767 94.6052 14.1859 95.4025C13.9357 96.4417 13.6527 97.4881 13.5079 98.5487C13.3763 99.5097 13.3697 100.499 13.396 101.467C13.4355 102.805 13.5737 104.144 13.6593 105.482C13.6725 105.646 13.5935 105.816 13.554 105.98C13.4092 105.88 13.2183 105.816 13.1327 105.674C12.7115 104.991 12.3692 104.25 11.9151 103.596C10.9278 102.165 9.89445 100.784 8.88742 99.3744C7.43282 97.3386 5.93214 95.3384 4.56311 93.2386C3.83252 92.121 3.26647 90.8611 2.91763 89.5157C2.56879 88.1846 2.18046 86.8678 1.90402 85.5224C1.60125 84.0561 1.40379 82.5613 1.15368 81.0878C0.758766 78.8171 0.969387 76.525 1.00888 74.2472C1.02862 73.1296 1.38405 72.0192 1.59467 70.9016C1.68681 70.4105 1.77896 69.9193 1.9106 69.4353C2.18046 68.4174 2.46348 67.4066 2.75308 66.3887C2.7465 66.346 2.80574 66.3104 2.95712 66.1538Z" fill="white"/>
<path d="M143.865 73.6767C143.793 72.7656 143.72 71.8616 143.641 70.9505C143.615 70.6444 143.536 70.3454 143.529 70.0393C143.45 66.4091 143.338 62.7717 143.648 59.1414C143.799 57.3476 144.043 55.5681 144.161 53.7743C144.22 52.8987 144.102 52.009 144.043 51.1263C143.951 49.6528 143.727 48.215 143.306 46.7842C143.003 45.7734 142.654 44.8196 142.094 43.9512C142.068 43.9084 142.068 43.8373 142.127 43.6807C142.331 43.823 142.588 43.9227 142.733 44.122C143.371 44.9904 144.003 45.8731 144.576 46.7842C145.168 47.7238 145.741 48.6848 146.241 49.6884C146.682 50.5782 147.051 51.5249 147.373 52.4716C147.742 53.5607 148.058 54.6854 148.341 55.8101C148.499 56.4365 148.591 57.0913 148.65 57.7391C148.795 59.3265 149.005 60.9209 149.019 62.5154C149.032 63.9533 148.861 65.4054 148.696 66.8362C148.578 67.8469 148.36 68.8435 148.13 69.8258C147.992 70.4237 147.748 70.9932 147.544 71.5769C147.248 72.4239 146.932 73.271 146.643 74.1181C146.419 74.7729 146.182 75.4207 145.998 76.0898C145.682 77.243 145.372 78.389 145.109 79.5564C144.819 80.859 144.589 82.1759 144.332 83.4856C144.319 83.5568 144.266 83.6137 144.201 83.7276C144.122 83.6208 144.043 83.5568 144.023 83.4714C143.661 82.1474 143.371 80.7949 142.937 79.5065C142.588 78.4744 142.108 77.4779 141.607 76.5169C140.153 73.7266 138.284 71.2494 136.566 68.6513C135.427 66.9358 134.301 65.2061 133.281 63.4052C132.557 62.1168 131.945 60.743 131.563 59.2624C131.399 58.6218 131.129 58.0167 130.932 57.3832C130.813 57.0059 130.721 56.6287 130.629 56.2443C130.451 55.4969 130.273 54.7423 130.102 53.9949C130.076 53.8953 130.056 53.7743 130.076 53.6817C130.096 53.5963 130.168 53.518 130.221 53.4326C130.28 53.4895 130.365 53.518 130.398 53.5892C131.05 54.8705 131.892 55.988 132.853 56.9988C134.032 58.2374 135.295 59.3905 136.487 60.622C137.816 62.0029 139.166 63.3696 140.377 64.8715C141.127 65.7969 141.732 66.9002 142.226 68.0107C142.944 69.6122 143.385 71.3349 143.575 73.1144C143.595 73.3137 143.654 73.5059 143.694 73.7052C143.76 73.6981 143.812 73.691 143.865 73.6767Z" fill="white"/>
<path d="M9.3846 84.6888C9.35827 84.5607 9.3122 84.4326 9.29903 84.3045C9.20031 83.5072 9.12132 82.7029 9.00285 81.9056C8.94361 81.4928 8.8383 81.0728 8.71325 80.6742C8.33808 79.4498 7.94316 78.2398 7.54825 77.0225C7.19283 75.9192 6.83082 74.823 6.45565 73.7268C6.17263 72.8726 5.82379 72.0327 5.59342 71.1643C5.25116 69.8688 4.97472 68.5519 4.6917 67.235C4.19806 64.9287 4.37577 62.5868 4.44817 60.2592C4.48108 59.1772 4.71145 58.0953 4.90232 57.0204C5.03396 56.2659 5.21826 55.5114 5.46179 54.7853C5.81063 53.7318 6.19238 52.6854 6.60704 51.6675C7.56141 49.3328 8.92387 47.2685 10.3061 45.2184C10.4245 45.0405 10.6615 44.948 10.8458 44.8198C10.7931 45.0334 10.78 45.2683 10.6878 45.4533C10.023 46.7489 9.58206 48.1227 9.31878 49.589C8.95678 51.6533 9.07525 53.7318 9.13449 55.7961C9.1674 56.8567 9.37144 57.9102 9.50307 58.9708C9.6018 59.8036 9.71369 60.6293 9.79926 61.4622C10.102 64.4874 10.2995 67.5055 9.96381 70.545C9.79268 72.054 9.71369 73.5845 9.6018 75.1077C9.59522 75.2145 9.62155 75.3284 9.63471 75.4352C9.6742 75.4423 9.72028 75.4423 9.75977 75.4494C9.85191 74.9725 9.96381 74.4956 10.0296 74.0187C10.2468 72.4455 10.5957 70.9294 11.2012 69.4701C12.1622 67.1283 13.5773 65.128 15.2227 63.3271C16.9209 61.4764 18.7375 59.768 20.429 57.9173C21.1925 57.0845 21.7783 56.0595 22.4299 55.1127C22.5945 54.8778 22.7064 54.6002 22.838 54.344C22.8841 54.3511 22.9302 54.3511 22.9762 54.3511C22.9762 54.586 23.0091 54.828 22.9696 55.0487C22.8446 55.7463 22.7064 56.4438 22.5418 57.1343C22.3246 58.0312 22.114 58.9281 21.8376 59.8036C21.5085 60.8785 21.1662 61.9604 20.7384 62.9926C20.3566 63.9179 19.9025 64.822 19.3825 65.669C17.737 68.3383 16.0455 70.9721 14.3671 73.6129C13.2087 75.4423 12.1095 77.3144 11.2604 79.3431C10.78 80.4962 10.464 81.7348 10.0954 82.9378C9.97039 83.3506 9.9309 83.7991 9.819 84.219C9.76635 84.4041 9.62813 84.5607 9.5294 84.7244C9.47675 84.7244 9.43067 84.7031 9.3846 84.6888Z" fill="white"/>
<path d="M130.547 33.1245C130.823 33.2028 131.106 33.2598 131.383 33.3523C133.384 34.0499 135.082 35.2742 136.596 36.8331C137.971 38.2425 139.071 39.8797 139.953 41.6663C140.426 42.6344 140.762 43.695 141.071 44.7556C141.868 47.5531 141.848 50.4288 141.73 53.3259C141.624 55.9525 141.605 58.5792 141.585 61.2058C141.578 61.825 141.736 62.4443 141.815 63.0636C141.835 63.2131 141.848 63.3697 141.828 63.5192C141.815 63.6188 141.743 63.7185 141.69 63.811C141.611 63.7398 141.512 63.6829 141.466 63.5904C140.578 61.7823 139.386 60.2377 138.05 58.8069C136.102 56.7213 133.864 55.0201 131.765 53.1337C130.442 51.945 129.152 50.7136 127.914 49.4323C126.789 48.2649 125.92 46.8697 125.295 45.318C124.755 43.9726 124.281 42.5917 123.807 41.2108C123.656 40.7694 123.603 40.2925 123.504 39.837C123.439 39.5309 123.353 39.2248 123.3 38.9116C123.274 38.7479 123.294 38.5842 123.294 38.4204C123.34 38.4133 123.392 38.4062 123.432 38.3991C123.623 38.7692 123.807 39.1465 124.005 39.5166C125.117 41.5667 126.69 43.1256 128.428 44.5279C130.613 46.286 133.009 47.7524 134.97 49.8095C136.332 51.2332 137.721 52.6639 138.511 54.6001C138.603 54.8279 138.735 55.0414 138.847 55.2621C138.88 55.2478 138.919 55.2336 138.959 55.2265C138.847 54.8919 138.735 54.5645 138.636 54.2299C138.221 52.8134 137.8 51.3969 137.392 49.9804C137.162 49.1831 136.931 48.3859 136.734 47.5816C136.51 46.6847 136.339 45.7807 136.128 44.8838C135.924 44.0153 135.701 43.154 135.483 42.2856C135.299 41.5382 135.141 40.7766 134.904 40.0505C134.601 39.1536 134.312 38.2425 133.864 37.431C133.357 36.5128 132.712 35.6728 132.067 34.8471C131.719 34.3987 131.245 34.0712 130.837 33.6726C130.698 33.5445 130.593 33.3736 130.468 33.2242C130.501 33.1815 130.521 33.153 130.547 33.1245Z" fill="white"/>
<path d="M14.2112 56.6388C14.4218 56.2046 14.6193 55.7632 14.8431 55.3361C16.1595 52.8448 17.8905 50.7378 20.023 49.0294C21.4513 47.8763 22.9257 46.7801 24.3474 45.6198C26.006 44.2674 27.5264 42.7512 28.5927 40.7866C28.8494 40.3168 29.0468 39.8185 29.2772 39.3344C29.3101 39.2633 29.3759 39.1992 29.5471 39.1494C29.5602 39.3558 29.5997 39.5622 29.5734 39.7687C29.422 41.1638 29.1258 42.5092 28.6848 43.8331C27.6054 47.0862 25.7427 49.7626 23.4851 52.133C22.1885 53.4996 20.8129 54.8023 19.3649 55.9768C17.1862 57.7421 15.1985 59.6996 13.5596 62.0557C13.0396 62.8031 12.6052 63.6288 12.1313 64.4118C12.026 64.5827 11.9141 64.7464 11.8022 64.9172C11.743 64.8816 11.6904 64.8461 11.6377 64.8033C11.6245 64.6681 11.6048 64.5257 11.6114 64.3905C11.6706 62.6821 11.8022 60.9738 11.7825 59.2654C11.7628 57.557 11.5653 55.8558 11.4995 54.1474C11.4468 52.8519 11.4402 51.5564 11.4929 50.2609C11.5456 49.0935 11.6574 47.9261 11.8352 46.7658C11.9602 45.9472 12.184 45.1358 12.4539 44.3528C12.783 43.3918 13.1713 42.4451 13.6123 41.5411C13.8821 40.9787 14.277 40.4876 14.6456 39.9893C15.6461 38.6297 16.7255 37.3342 18.0485 36.3234C18.9699 35.6259 19.9112 34.971 21.0038 34.608C21.3131 34.5083 21.6027 34.3517 21.9055 34.2307C21.991 34.1951 22.0963 34.2022 22.1885 34.188C22.2082 34.2307 22.228 34.2734 22.2477 34.3232C21.9186 34.6293 21.5698 34.9212 21.2604 35.2486C20.3192 36.2451 19.4899 37.3271 18.9634 38.644C18.5553 39.669 18.1209 40.694 17.7984 41.7546C17.5285 42.6586 17.3969 43.6196 17.206 44.5521C16.9888 45.5771 16.7782 46.595 16.5544 47.6129C16.3635 48.4956 16.1792 49.3925 15.962 50.268C15.7777 51.0296 15.5605 51.7913 15.3301 52.5387C14.9616 53.7346 14.5666 54.9162 14.1849 56.112C14.1322 56.2686 14.1322 56.4466 14.1125 56.6103C14.1454 56.6245 14.1717 56.6317 14.2112 56.6388Z" fill="white"/>
<path d="M115.765 25.4458C115.943 25.4458 116.035 25.4174 116.101 25.453C117.101 25.8801 118.108 26.2858 119.096 26.7414C120.563 27.4176 122.011 28.1294 123.473 28.8128C124.789 29.4249 125.941 30.3005 127.033 31.2899C128.231 32.3718 129.238 33.6318 130.147 34.9985C131.18 36.5502 131.996 38.2301 132.635 39.9954C133.076 41.2055 133.365 42.4797 133.74 43.7183C134.03 44.6507 134.346 45.569 134.642 46.5015C134.688 46.6438 134.675 46.8147 134.695 46.9713C134.57 46.9214 134.418 46.9001 134.32 46.8218C132.325 45.2344 130.436 43.5047 128.659 41.6326C126.869 39.7463 125.144 37.803 123.637 35.6462C122.505 34.0162 121.472 32.3149 120.326 30.6991C119.76 29.8947 119.05 29.2042 118.385 28.4711C117.615 27.6169 116.825 26.7912 116.055 25.9441C115.949 25.8302 115.89 25.6665 115.765 25.4458Z" fill="white"/>
<path d="M18.2397 47.8845C18.4767 47.1585 18.7334 46.4395 18.9572 45.7063C19.2007 44.9162 19.4113 44.1119 19.6417 43.3146C19.8589 42.5459 20.0629 41.7771 20.2999 41.0154C20.5368 40.2538 20.7409 39.4708 21.0831 38.7732C21.5768 37.7553 22.1626 36.7801 22.7352 35.8192C24.1569 33.4417 26.0788 31.6337 28.3495 30.267C29.8042 29.3914 31.3048 28.6156 32.8121 27.861C33.7467 27.3983 34.7406 27.0638 35.7081 26.6652C36.024 26.5299 36.34 26.3804 36.6559 26.231C36.6888 26.2665 36.7151 26.3021 36.7481 26.3306C36.6625 26.4801 36.5967 26.6723 36.4782 26.7791C35.1092 28.0247 33.9507 29.4769 32.8845 31.0073C31.239 33.3634 29.633 35.748 28.027 38.1326C26.5264 40.3677 24.6768 42.2327 22.7418 44.0122C21.3925 45.2508 20.0498 46.5036 18.7005 47.7493C18.5886 47.8489 18.4504 47.8987 18.3253 47.977C18.299 47.9486 18.2661 47.913 18.2397 47.8845Z" fill="white"/>
<path d="M39.9453 66.707L39.9519 72.3375L38.9514 72.9354L38.9448 67.3619L39.9453 66.707Z" fill="white"/>
<path d="M38.5304 67.4746L38.5238 72.7777L37.6089 73.3543V68.0939L38.5304 67.4746Z" fill="white"/>
<path d="M37.0599 68.2402L37.0665 73.4009L36.178 73.8494L36.1714 68.7029L37.0599 68.2402Z" fill="white"/>
<path d="M76.2827 64.398L77.507 63.7573V70.8328L76.2827 71.445V64.398Z" fill="white"/>
<path d="M80.0747 19.5482L80.0681 17.306L78.3239 17.2633L72.9136 10.38L72.8675 9.04174L70.6363 8.37975L70.6165 7.56828L68.7868 6.95611C68.7868 6.95611 69.6227 5.49688 68.4511 4.52169C68.4511 4.52169 68.5301 3.18347 67.4111 3.12652L67.0031 0.699219L66.5752 3.11941C66.5752 3.11941 65.5221 3.41837 65.5287 4.59999C65.5287 4.59999 64.2847 5.87415 65.5353 7.19813H64.4624L62.5076 9.90304H61.5598L61.5664 11.8605L56.8998 19.8828L55.4716 20.2173L55.4781 22.004L51.4434 25.0363L51.3315 25.9688L55.5308 26.5311L63.7253 22.1606L80.2524 23.5913L85.0572 20.7441L80.0747 19.5482ZM61.731 19.3489L55.4847 23.4703L54.6554 23.2924L63.2514 17.5907L79.8312 19.5696L81.3516 20.8579L61.731 19.3489Z" fill="white"/>
<path d="M113.015 38.5108V35.9198H112.087V32.1116L110.909 32.0546V32.9301H109.75V32.14L108.144 32.1471L107.236 30.8232L107.131 28.4457L105.643 29.9547L104.169 28.5097L101.174 27.8905L102.694 26.2604L101.47 25.9045L99.7918 23.6338C99.7918 23.6338 97.8501 23.6409 97.6329 23.6409L95.7175 26.3814L94.6447 26.9936L95.836 27.9403V28.944C94.0523 29.5205 93.506 30.6452 93.506 30.6452L92.5648 31.4852L91.176 31.6275L91.0576 33.5067L89.9189 33.6704L88.5696 35.8557L86.832 35.0656L86.8386 38.8454L86.4107 38.881L86.4831 40.9524L84.0347 42.4045L86.5687 44.4972L96.7575 40.4541H96.7838L112.988 41.0947L117.714 38.5108H113.015ZM95.7834 37.8915L86.5687 41.7852L86.7201 41.536L87.5955 40.3687L95.349 36.5818L111.409 37.7136L112.547 38.9094L95.7834 37.8915Z" fill="white"/>
<path d="M80.2357 23.6002L63.7085 22.1694L63.7282 37.2671L80.4924 38.2921L80.2357 23.6002ZM72.2123 34.4412C69.7573 34.4483 67.763 32.2915 67.763 29.6435C67.7564 26.9885 69.7507 24.8316 72.1992 24.8316C74.6542 24.8245 76.6485 26.9813 76.6485 29.6293C76.6551 32.2844 74.6608 34.4341 72.2123 34.4412Z" fill="white"/>
<path d="M72.1974 31.3124C73.053 31.3124 73.7507 30.5579 73.7507 29.6325C73.7507 28.7072 73.053 27.9526 72.1974 27.9526C71.3417 27.9526 70.644 28.7072 70.644 29.6325C70.644 30.5579 71.3417 31.3124 72.1974 31.3124Z" fill="white"/>
<path d="M60.1293 26.1297C58.7274 25.9019 57.286 27.9377 56.9108 30.6711C56.529 33.4045 57.3584 35.8104 58.7603 36.0311C60.1557 36.2589 61.6037 34.2231 61.9854 31.4897C62.3606 28.7634 61.5313 26.3646 60.1293 26.1297ZM60.4716 31.2477C60.3136 32.3581 59.7344 33.1696 59.175 33.0842C58.6089 32.9916 58.2732 32.0236 58.4312 30.9202C58.5826 29.8169 59.1684 28.9983 59.7278 29.0838C60.2873 29.1763 60.623 30.1444 60.4716 31.2477Z" fill="white"/>
<path d="M112.993 52.8548L112.98 41.0884L96.7751 40.4478L96.7883 52.0148L92.0229 52.0433L92.0295 56.7626L95.7351 56.7555L95.7615 80.0178L118.015 79.9893L117.989 57.6595L121.102 57.6524L121.095 52.8334L112.993 52.8548ZM102.324 52.0219L99.296 52.029L99.2828 42.7327L102.31 42.7256L102.324 52.0219ZM107.03 52.0148L104.167 52.0219L104.153 42.7185L107.017 42.7113L107.03 52.0148ZM111.005 52.1714L109.004 52.1785L108.991 42.8751L110.992 42.8679L111.005 52.1714Z" fill="white"/>
<path d="M95.1669 43.0405L95.1734 50.8421L93.0146 51.682L93.0015 43.9588L95.1669 43.0405Z" fill="white"/>
<path d="M92.2678 44.1489L92.2546 51.8864L90.2866 52.7264L90.2998 45.0672L92.2678 44.1489Z" fill="white"/>
<path d="M89.4757 45.5146L89.4823 53.0742L87.9092 53.729L87.896 46.198L89.4757 45.5146Z" fill="white"/>
<path d="M81.2921 44.3142L64.2186 43.4743L56.5507 46.9906L51.9565 46.2717L63.1392 40.7124C63.1392 40.7124 83.9249 42.2357 84.0302 42.2357C84.1355 42.2357 81.2921 44.3142 81.2921 44.3142Z" fill="white"/>
<path d="M81.2403 56.16L81.2469 59.8828L84.9327 59.8757L84.9459 69.0582L73.5066 73.3718L73.5131 79.9988L68.9453 80.006L68.919 59.0785L67.7737 56.6298L67.7671 51.882L64.2392 53.2487L64.2261 43.4683L81.2535 44.3082L81.2666 53.1134L86.9402 53.1063V53.8964L81.3588 56.1671H81.2403V56.16Z" fill="white"/>
<path d="M53.2148 64.4365L53.2082 64.8066L40.6895 64.3439L35.628 66.394L32.7319 65.5398L35.3647 64.2799L35.2594 62.3295H36.0558L36.0492 60.4859L37.5565 60.4787V59.0266H38.6359L38.6293 56.3787L39.1888 56.9837L40.7421 56.3004C40.7421 55.98 40.8606 55.6882 41.058 55.4818C41.2555 55.2682 41.5188 55.1401 41.815 55.1401H42.1704V54.471L40.8277 53.204L42.3678 53.1968L43.0984 51.2749L44.4214 51.2251L45.1059 53.1328L46.5605 53.1257L45.2046 54.414L45.231 55.1187C45.231 55.1187 46.7711 55.0049 46.8172 56.2007L48.4824 56.1936L48.6931 55.3252L49.3381 55.3109L49.2788 56.5637C49.2788 56.5637 50.0621 56.8413 50.0292 58.1155L52.0038 58.1084V58.7633L50.3583 59.9733L50.3188 62.002L40.7026 61.155L36.556 63.0413L36.0426 64.0094L40.6236 62.0661L50.2332 62.6996L50.2201 64.4151L53.2148 64.4365Z" fill="white"/>
<path d="M40.689 64.3354L40.7087 80.1449L52.7273 80.1307L52.7075 64.7839L40.689 64.3354ZM44.3353 72.9271L42.5451 72.9342L42.5385 66.7058L44.3288 66.6987L44.3353 72.9271ZM48.1002 72.92L46.2836 72.9271L46.277 67.0332L48.0936 67.0261L48.1002 72.92ZM51.4307 72.8702L49.8444 72.8773L49.8378 67.2254L51.4241 67.2183L51.4307 72.8702Z" fill="white"/>
<path d="M67.9184 87.2363V89.5711H61.3102V105.288H58.7893V89.5711H52.3062V87.2363H67.9184Z" fill="white"/>
<path d="M43.7157 87.377H41.1948V105.293H43.7223V87.377H43.7157Z" fill="white"/>
<path d="M49.357 87.377H46.8296V105.293H49.357V87.377Z" fill="white"/>
<path d="M85.1167 99.7154C84.8929 96.8254 82.6287 95.9926 82.6287 95.9926C83.8727 95.1527 84.6955 93.6578 84.6955 91.9566C84.6955 90.6896 84.2216 89.5507 83.4581 88.7249C82.6946 87.8992 81.6415 87.3867 80.4699 87.3867H73.9077V105.303H80.2198C80.2198 105.303 83.7477 105.182 84.7942 102.207C84.8074 102.171 84.8205 102.136 84.8337 102.1C85.0509 101.481 85.1957 100.691 85.1167 99.7154ZM75.7375 88.9812H80.1276C81.5625 88.9812 82.7275 90.2411 82.7275 91.7929V91.8925C82.7275 93.6721 81.3979 95.11 79.7524 95.11H75.7309V88.9812H75.7375ZM83.2343 101.31C83.1158 102.399 82.3326 102.997 81.5822 103.317C80.8319 103.645 80.1079 103.694 80.1079 103.694H75.7309V96.7115H79.8709C82.7341 96.982 83.0763 98.6121 83.0763 98.6121C83.0763 98.6121 83.4712 99.1246 83.2343 101.31Z" fill="white"/>
<path d="M81.5832 103.327C80.8329 103.655 80.1089 103.704 80.1089 103.704L81.5832 103.327Z" fill="white"/>
<path d="M99.3332 87.377V105.293H97.3915V96.7089H90.158V105.293H88.2163V87.377H90.158V94.844H97.3915V87.377H99.3332Z" fill="white"/>
<path d="M113.939 87.377V100.823C113.939 103.457 111.971 105.585 109.535 105.585H107.488C104.842 105.585 102.697 103.265 102.697 100.403V87.377H104.685V99.7769C104.685 101.791 106.198 103.429 108.061 103.429H108.732C110.51 103.429 111.958 101.87 111.958 99.9406V87.377H113.939Z" fill="white"/>
<path d="M84.1809 108.035V121.481C84.1809 124.115 82.2129 126.243 79.7776 126.243H77.7306C75.0847 126.243 72.939 123.922 72.939 121.061V108.035H74.9267V120.435C74.9267 122.449 76.4405 124.086 78.3032 124.086H78.9746C80.7517 124.086 82.1997 122.527 82.1997 120.598V108.035H84.1809Z" fill="white"/>
<path d="M67.29 108.194V126.061H65.3483V111.995L60.5962 126.061H58.9902L54.238 112.18V126.061H52.2964V108.194H54.6593L59.7998 122.864L64.7164 108.194H67.29Z" fill="white"/>
<path d="M101.538 108.166V126.082H99.4642L91.8884 111.831V126.082H89.9468V108.166H92.0925L99.5959 122.43V108.166H101.538Z" fill="white"/>
</svg>
