<svg width="706" height="739" viewBox="0 0 706 739" fill="none" xmlns="http://www.w3.org/2000/svg">
<g opacity="0.03">
<path d="M338.543 664.732C332.444 662.39 326.528 662.291 320.764 663.38C315.062 664.468 309.42 666.612 304.479 670.075C296.368 675.781 288.469 681.85 280.388 687.621C274.472 691.843 268.586 696.098 262.395 699.792C257.272 702.826 251.813 705.399 246.294 707.576C240.194 709.95 233.943 711.929 227.63 713.48C223.208 714.535 218.573 714.766 213.999 714.997C205.917 715.458 197.897 714.535 190.09 712.457C185.058 711.138 180.118 709.225 175.391 706.949C169.475 704.113 163.681 700.88 158.069 697.384C154.196 694.976 150.598 692.008 147.182 688.875C143.462 685.478 140.077 681.619 136.57 677.958C136.295 677.661 136.234 677.133 135.838 676.078C136.997 676.506 137.759 676.605 138.308 677.034C144.163 681.388 150.689 684.191 157.399 686.368C162.125 687.885 167.096 688.281 171.915 689.468C178.075 690.953 184.296 690.524 190.486 690.425C198.354 690.293 206.131 688.875 213.633 686.401C219.366 684.521 224.916 681.817 230.497 679.343C236.291 676.77 242.055 674 247.849 671.328C253.155 668.888 258.461 666.447 263.829 664.171C266.543 663.017 269.379 662.225 272.154 661.269C275.112 660.279 278.07 659.224 281.059 658.267C283.315 657.542 285.572 656.783 287.859 656.321C294.324 655.035 300.789 653.353 307.316 652.825C314.33 652.265 321.435 652.561 328.48 652.957C332.841 653.188 337.171 654.112 341.44 655.035C344.673 655.728 347.875 656.816 351.016 657.904C354.218 658.993 357.085 658.861 359.921 656.684C361.171 655.728 362.97 655.365 364.556 655.167C371.997 654.112 379.438 652.858 386.909 652.363C395.936 651.77 404.963 652.198 413.929 653.815C418.686 654.672 423.352 655.958 428.048 657.179C431.22 658.003 434.361 658.861 437.41 660.015C441.985 661.763 446.498 663.709 451.012 665.721C456.104 667.997 461.136 670.438 466.198 672.779C470.498 674.758 474.798 676.737 479.159 678.485C484.191 680.53 489.253 682.575 494.407 684.191C499.012 685.643 503.739 686.797 508.527 687.522C512.643 688.149 516.882 688.281 521.06 688.116C527.312 687.819 533.564 687.292 539.785 686.467C543.2 686.005 546.585 684.983 549.848 683.763C554.423 682.014 558.906 680.003 563.327 677.826C565.737 676.671 567.902 674.956 570.219 673.505C570.555 673.274 570.982 673.241 571.378 673.109C571.287 673.571 571.348 674.231 571.104 674.495C567.261 678.716 563.48 682.971 559.485 686.995C553.874 692.635 547.317 696.889 540.639 700.748C535.82 703.552 530.483 705.333 525.391 707.576C517.37 711.105 508.862 712.094 500.323 712.556C495.352 712.82 490.29 712.985 485.441 712.028C479.312 710.808 473.182 709.785 467.144 707.741C459.581 705.135 452.17 702.101 445.217 698.11C437.959 693.954 431.159 688.842 424.236 683.96C417.222 679.013 410.361 673.769 403.316 668.855C399.016 665.82 394.167 664.105 389.044 663.577C382.976 662.951 376.907 663.511 370.442 664.633C371.143 665.293 371.479 665.754 371.936 666.018C378.096 669.514 384.439 672.615 390.356 676.473C400.236 682.971 409.964 689.699 419.204 697.285C428.658 705.003 437.38 713.578 446.224 721.989C447.84 723.539 447.871 724.1 446.346 725.65C442.595 729.377 438.783 733.005 435.093 736.798C433.568 738.414 432.592 737.853 431.403 736.468C426.554 730.96 421.858 725.221 416.704 720.043C407.25 710.61 397.796 701.21 387.855 692.437C381.024 686.434 373.461 681.388 366.111 676.111C363.306 674.099 360.317 672.318 357.176 670.998C355.56 670.339 353.303 670.339 351.687 670.998C348.119 672.45 344.642 674.264 341.379 676.407C330.584 683.499 320.368 691.48 310.64 700.254C298.228 711.468 286.701 723.605 276.881 737.557C275.509 739.503 275.295 739.371 273.587 737.82C269.562 734.126 265.506 730.465 261.359 726.903C260.108 725.815 260.2 725.254 261.267 724.166C269.958 715.326 278.68 706.553 288.073 698.539C297.801 690.227 308.169 682.971 318.66 675.946C323.326 672.812 328.388 670.372 333.268 667.601C334.884 666.711 336.561 665.82 338.543 664.732Z" fill="#1A1E21"/>
<path d="M526.061 633.954C526.488 633.328 526.854 632.602 527.373 632.074C535.942 623.598 542.743 613.703 547.683 602.324C549.391 598.366 551.281 594.508 552.837 590.484C554.392 586.46 555.703 582.337 557.076 578.247C558.509 573.96 559.942 569.672 561.284 565.351C563.022 559.744 564.669 554.137 566.468 548.53C567.627 544.935 568.847 541.373 570.158 537.877C571.469 534.381 572.811 530.852 574.397 527.488C576.532 522.969 578.545 518.385 581.198 514.229C588.212 503.279 595.531 492.559 602.728 481.774C603.094 481.214 603.734 480.851 604.222 480.389C604.405 480.521 604.588 480.653 604.771 480.752C604.222 482.467 603.582 484.149 603.094 485.897C601.233 492.263 599.099 498.562 597.665 505.027C596.354 510.898 595.866 516.999 594.982 523.002C594.372 527.323 593.731 531.643 593.091 535.964C592.573 539.46 592.146 542.923 591.475 546.386C590.499 551.334 589.493 556.314 588.212 561.162C587.114 565.351 585.864 569.507 584.247 573.465C581.106 581.15 577.203 588.406 572.14 594.837C567.719 600.477 562.931 605.82 558.326 611.295C557.929 611.757 557.441 612.186 557.015 612.648C557.106 612.813 557.228 612.978 557.32 613.142C557.807 612.912 558.326 612.78 558.753 612.45C562.687 609.086 566.651 605.787 570.463 602.258C577.569 595.695 585.223 589.989 593.365 585.141C601.935 580.028 610.687 575.246 619.317 570.266C627.002 565.879 634.84 561.789 642.311 556.974C652.1 550.707 660.974 543.088 668.415 533.655C673.264 527.455 677.595 520.891 680.4 513.272C680.522 512.975 680.766 512.745 680.949 512.481C681.163 512.514 681.376 512.514 681.59 512.514C681.59 513.701 681.864 514.987 681.62 516.109C680.583 520.825 679.76 525.674 678.113 530.126C675.582 536.888 672.654 543.484 669.513 549.916C664.543 560.206 657.529 568.913 650.24 577.258C643.439 585.075 635.877 591.968 627.795 598.234C621.117 603.413 613.859 607.503 606.753 611.856C603.917 613.604 600.684 614.66 597.574 615.946C594.982 617.034 592.359 618.057 589.706 618.98C587.48 619.739 585.193 620.398 582.905 620.893C576.318 622.344 569.731 623.631 563.144 625.082C558.295 626.137 553.447 627.325 548.628 628.479C544.542 629.436 540.486 630.359 536.43 631.448C533.258 632.272 530.148 633.328 527.007 634.251C526.763 634.317 526.519 634.317 526.275 634.35C526.305 634.251 526.183 634.086 526.061 633.954Z" fill="#1A1E21"/>
<path d="M24.9552 518.519C25.5652 519.608 26.2361 520.663 26.7545 521.818C32.0303 533.625 39.9287 543.19 49.5043 551.007C55.0241 555.525 60.8792 559.648 66.9479 563.276C76.0051 568.718 85.3368 573.666 94.638 578.613C105.434 584.319 116.138 590.223 125.927 597.809C131.385 602.03 136.539 606.681 141.937 611.002C144.194 612.783 146.755 614.135 149.164 615.685C149.286 615.52 149.408 615.355 149.5 615.19C147.762 613.442 146.084 611.628 144.285 609.946C136.234 602.426 129.861 593.422 124.737 583.461C122.511 579.141 120.803 574.424 119.309 569.741C117.571 564.299 116.199 558.725 114.887 553.118C114.155 549.984 113.85 546.719 113.362 543.52C112.783 539.826 112.204 536.165 111.594 532.471C111.106 529.535 110.587 526.633 110.16 523.731C109.611 519.971 109.306 516.145 108.605 512.418C107.873 508.427 107.019 504.403 105.83 500.544C104.336 495.63 102.475 490.88 100.798 485.999C100.676 485.636 100.89 485.141 101.408 484.449C103.024 486.593 104.702 488.637 106.226 490.88C112.082 499.522 118.181 507.998 123.548 517.002C128.092 524.621 132.026 532.669 135.716 540.815C137.942 545.697 139.162 551.106 140.839 556.284C142.181 560.374 143.584 564.464 144.926 568.553C146.328 572.775 147.64 577.03 149.103 581.252C151.086 586.891 153.007 592.597 155.355 598.073C157.551 603.218 159.96 608.363 162.918 613.046C166.456 618.653 170.633 623.832 174.659 629.109C176.184 631.121 178.166 632.704 179.874 634.551C180.24 634.947 180.392 635.507 180.667 636.035C180.118 636.167 179.538 636.497 179.05 636.398C177.16 635.969 175.269 635.342 173.378 634.815C170.664 634.056 167.95 633.297 165.236 632.638C162.308 631.945 159.35 631.286 156.422 630.659C153.8 630.098 151.177 629.571 148.524 629.109C143.126 628.152 137.668 627.361 132.3 626.272C127.512 625.316 122.755 624.095 118.028 622.842C115.009 622.051 111.99 621.094 109.002 620.072C106.409 619.181 103.756 618.324 101.347 617.037C96.1628 614.267 90.9785 611.529 86.0992 608.231C81.0369 604.801 76.0966 601.074 71.5223 596.918C65.1486 591.08 58.958 584.979 53.1638 578.514C46.6987 571.324 41.2095 563.21 36.5741 554.503C33.5246 548.797 30.5665 543.025 28.7062 536.66C27.3034 531.778 25.7176 526.93 24.3148 522.015C24.0404 521.026 24.1624 519.938 24.1319 518.915C24.4368 518.816 24.7113 518.651 24.9552 518.519Z" fill="#1A1E21"/>
<path d="M484.894 649.165C487.425 648.835 489.956 648.637 492.457 648.208C498.312 647.12 504.075 645.734 509.961 644.811C517.524 643.591 525.117 642.601 532.711 641.777C540.121 640.952 547.562 640.49 554.973 639.732C559.791 639.237 564.579 638.511 569.367 637.819C572.66 637.324 575.954 636.829 579.186 636.005C584.798 634.553 590.47 633.201 595.898 631.156C600.991 629.21 605.962 626.671 610.719 623.867C617.154 620.074 622.643 614.797 627.492 608.827C627.766 608.498 628.132 608.267 628.925 608.201C628.834 608.794 628.833 609.421 628.59 609.949C624.442 619.184 618.739 627.231 612.122 634.455C606.175 640.985 599.71 646.922 592.391 651.704C587.176 655.134 581.931 658.532 576.472 661.401C572.233 663.644 567.69 665.26 563.207 666.843C559.7 668.096 556.071 669.086 552.442 669.713C546.769 670.669 541.067 671.724 535.334 671.79C528.594 671.922 521.854 671.362 515.145 670.537C509.351 669.844 503.588 668.36 497.824 667.239C495.11 666.711 492.426 666.249 489.742 665.656C487.76 665.227 485.809 664.732 483.857 664.172C478.124 662.621 472.39 660.906 466.627 659.521C460.284 657.971 453.849 656.685 447.475 655.365C444.517 654.772 441.559 654.343 438.601 653.815C437.961 653.716 437.29 653.617 436.71 653.32C436.344 653.155 435.917 652.661 435.917 652.298C435.917 652.001 436.436 651.506 436.802 651.407C440.522 650.451 444.304 649.659 448.024 648.637C450.769 647.845 453.483 646.856 456.167 645.8C459.765 644.382 463.303 642.832 466.81 641.249C473.641 638.182 480.045 634.224 485.473 628.815C495.018 619.283 504.289 609.421 513.59 599.625C525.087 587.488 536.828 575.68 549.636 565.159C550.978 564.07 552.35 562.982 553.753 561.96C554.271 561.564 554.912 561.366 555.522 561.102C555.644 561.267 555.796 561.432 555.918 561.597C555.613 562.224 555.369 562.916 555.003 563.444C550.185 570.403 546.708 578.187 543.262 585.971C539.085 595.437 535.12 605.034 530.18 614.039C524.325 624.659 516.548 633.498 506.149 639.402C500.629 642.535 495.049 645.174 489.041 646.856C487.577 647.252 486.205 647.911 484.772 648.439C484.802 648.604 484.833 648.868 484.894 649.165Z" fill="#1A1E21"/>
<path d="M627.488 403.081C627.671 404.698 627.915 405.885 627.915 407.072C627.915 410.535 627.61 414.032 627.884 417.462C628.372 423.497 629.195 429.5 629.927 435.503C630.354 439.065 630.842 442.627 631.422 446.189C632.001 449.784 632.733 453.379 633.373 456.974C633.831 459.547 634.41 462.087 634.654 464.659C635.661 474.983 636.88 485.207 635.356 495.696C634.41 502.193 633.282 508.658 631.208 514.759C629.226 520.663 626.268 526.204 623.706 531.91C623.066 533.361 622.242 534.714 621.815 536.462C622.151 536.165 622.547 535.901 622.791 535.571C629.256 525.676 635.721 515.749 642.156 505.821C649.506 494.508 658.014 484.317 667.224 474.719C675.153 466.473 682.746 457.865 688.815 447.937C692.474 441.967 695.829 435.701 698.543 429.203C700.769 423.926 702.538 418.319 702.66 412.349C702.66 411.789 702.812 411.228 702.934 410.7C702.995 410.502 703.148 410.371 703.605 409.678C704.154 410.931 704.916 411.921 704.947 412.91C705.038 421.551 705.343 430.193 704.886 438.801C704.612 443.782 703.209 448.729 702.05 453.643C701.043 457.931 699.915 462.219 698.36 466.308C696.256 471.915 694.06 477.489 691.285 482.701C688.113 488.67 684.454 494.343 680.703 499.917C674.451 509.185 666.98 517.398 658.868 524.72C652.342 530.624 645.328 535.934 638.314 541.178C629.653 547.643 620.687 553.645 611.965 560.011C606.507 563.969 601.292 568.256 595.925 572.379C595.559 572.676 594.979 572.61 594.522 572.742C594.43 572.247 594.125 571.621 594.278 571.258C595.223 569.015 596.382 566.904 597.266 564.628C599.188 559.78 601.2 554.965 602.725 550.017C604.372 544.707 605.592 539.199 606.812 533.724C607.604 530.03 608.092 526.237 608.58 522.477C609.282 517.167 609.892 511.857 610.41 506.514C611.02 500.115 611.569 493.717 612.087 487.285C612.789 478.611 613.307 469.936 614.131 461.295C614.893 453.511 615.808 445.728 616.967 437.977C617.638 433.557 618.827 429.203 619.986 424.883C621.114 420.694 622.486 416.604 623.767 412.481C624.621 409.678 625.536 406.907 626.451 404.137C626.634 403.84 626.878 403.708 627.488 403.081Z" fill="#1A1E21"/>
<path d="M111.652 576.369C109.701 575.082 107.718 573.862 105.797 572.51C95.8251 565.518 85.792 558.624 75.9114 551.5C68.7144 546.322 61.4869 541.144 54.7168 535.372C46.9099 528.71 39.2555 521.684 32.089 514.23C24.8615 506.677 18.6098 498.036 14.066 488.306C10.437 480.654 7.47889 472.574 4.73428 464.493C3.30098 460.238 2.90453 455.588 2.11164 451.069C0.129419 440.086 1.34925 428.971 1.07479 417.889C1.04429 417.23 1.19677 416.57 1.25776 415.877C1.44074 415.844 1.62371 415.811 1.80668 415.778C1.98966 416.372 2.23363 416.933 2.32511 417.559C3.54494 424.717 5.03923 431.808 8.27178 438.239C10.8944 443.483 13.883 448.563 17.0546 453.411C24.2516 464.493 33.4918 473.662 42.0306 483.491C49.1056 491.67 56.3331 499.784 62.7982 508.524C68.8668 516.704 73.9596 525.675 79.5403 534.25C80.6992 535.999 82.102 537.516 83.4133 539.165C83.5658 539.033 83.7183 538.901 83.8707 538.802C82.7424 536.79 81.4616 534.877 80.5162 532.766C78.534 528.281 76.5823 523.729 74.8745 519.112C71.4285 509.613 69.9037 499.652 69.7817 489.527C69.6902 483.062 70.4831 476.565 71.032 470.1C71.337 466.373 71.8859 462.679 72.4348 458.985C72.8008 456.544 73.3497 454.17 73.7461 451.729C75.2099 443.121 76.9787 434.578 77.9241 425.904C78.5035 420.792 77.8021 415.515 77.6496 410.27C77.6191 409.743 77.5581 409.182 77.5276 408.654C77.6801 408.555 77.8631 408.456 78.0155 408.324C78.595 409.149 79.4184 409.842 79.7538 410.765C81.3396 415.053 82.9254 419.373 84.2062 423.793C85.304 427.553 86.1579 431.379 86.9203 435.238C88.0792 441.175 89.116 447.112 90.1529 453.081C90.5798 455.588 90.8543 458.095 91.0982 460.634C91.7081 466.538 92.3181 472.442 92.8365 478.346C93.3854 484.381 93.8428 490.45 94.3613 496.486C94.9712 503.313 95.5811 510.141 96.3435 516.935C96.9229 522.113 97.6548 527.258 98.4477 532.404C99.1491 536.988 99.82 541.606 100.918 546.091C102.016 550.478 103.48 554.765 105.126 558.954C107.108 564 109.426 568.882 111.561 573.829C111.835 574.423 111.866 575.148 111.988 575.808C111.866 576.072 111.744 576.204 111.652 576.369Z" fill="#1A1E21"/>
<path d="M224.306 650.74C223.849 650.575 223.392 650.344 222.934 650.179C220.738 649.519 218.512 648.959 216.316 648.266C213.389 647.31 210.492 646.353 207.656 645.199C201.465 642.659 195.762 639.196 190.853 634.38C184.845 628.543 179.783 621.847 175.757 614.228C172.921 608.852 170.207 603.377 167.554 597.902C162.492 587.447 157.826 576.761 151.635 566.965C151.3 566.437 151.086 565.81 150.568 564.623C151.605 564.953 152.123 564.986 152.458 565.25C165.907 575.639 178.502 587.117 190.395 599.518C198.903 608.391 207.412 617.263 216.073 625.97C222.965 632.896 230.771 638.47 239.524 642.329C245.409 644.902 251.326 647.409 257.364 649.519C261.237 650.872 265.323 651.498 269.349 652.488C269.989 652.653 270.66 652.851 271.3 653.048C271.361 653.345 271.422 653.609 271.453 653.873C270.355 654.368 269.288 655.126 268.129 655.324C262.67 656.314 257.15 657.006 251.722 658.161C247.971 658.952 244.342 660.404 240.622 661.459C236.962 662.514 233.303 663.372 229.613 664.394C225.496 665.516 221.409 666.67 217.323 667.759C215.371 668.286 213.389 668.814 211.407 669.243C198.507 672.013 185.516 674.124 172.342 673.992C166.669 673.926 160.997 673.299 155.386 672.277C149.836 671.288 144.286 669.836 138.918 667.89C133.734 666.01 128.763 663.372 123.792 660.799C113.241 655.324 104.031 647.738 95.6753 638.998C88.3258 631.313 82.1352 622.639 77.2559 612.843C77.1949 612.744 77.2864 612.579 77.3474 611.953C78.1708 612.546 78.9636 612.909 79.4821 613.536C84.8798 620.099 91.3754 625.113 98.5419 629.103C102.567 631.346 106.867 633.061 111.106 634.743C114.583 636.096 118.151 637.217 121.719 638.206C124.036 638.866 126.446 639.196 128.824 639.559C135.228 640.482 141.632 641.538 148.067 642.197C157.887 643.187 167.737 643.879 177.587 644.704C182.466 645.133 187.376 645.463 192.255 646.089C196.403 646.617 200.489 647.507 204.606 648.233C210.461 649.289 216.286 650.41 222.141 651.465C222.782 651.564 223.452 651.366 224.123 651.3C224.276 651.102 224.306 650.905 224.306 650.74Z" fill="#1A1E21"/>
<path d="M622.795 316.637C622.978 317.626 623.1 318.649 623.405 319.605C625.052 324.256 626.607 328.972 628.498 333.491C634.079 346.816 642.221 358.557 648.564 371.387C652.041 378.446 655.334 385.669 657.987 393.123C660.488 400.082 661.525 407.536 661.738 415.056C661.921 421.289 661.738 427.49 660.549 433.625C660 436.461 659.299 439.265 658.719 442.068C658.445 443.42 658.201 444.773 657.957 446.125C658.17 446.191 658.384 446.257 658.597 446.323C658.872 445.63 659.207 444.971 659.36 444.245C660.915 436.758 662.379 429.205 663.995 421.718C665.459 415.023 666.74 408.228 668.752 401.698C671.344 393.386 674.516 385.273 677.566 377.126C679.944 370.728 682.597 364.461 684.976 358.062C686.897 352.851 688.788 347.574 690.252 342.198C691.594 337.218 692.234 332.007 693.332 326.96C694.948 319.671 694.43 312.349 694.216 304.994C694.155 303.378 693.728 301.795 693.515 300.212C693.423 299.585 693.515 298.892 693.515 298.266C693.667 298.2 693.85 298.134 694.033 298.068C694.643 299.057 695.467 299.981 695.802 301.069C697.235 305.423 698.638 309.81 699.858 314.229C700.62 316.934 701.139 319.704 701.718 322.442C704.31 335.107 704.646 347.97 703.975 360.833C703.579 368.551 702.054 376.203 700.834 383.855C700.193 387.878 699.279 391.869 698.272 395.794C697.449 399.026 696.443 402.259 695.284 405.392C693.271 410.801 691.228 416.177 688.88 421.421C687.477 424.555 685.647 427.523 683.665 430.294C675.248 442.266 666.648 454.074 658.262 466.046C654.724 471.093 651.492 476.403 648.076 481.581C647.68 482.175 647.039 482.603 646.521 483.098C646.369 482.307 646.064 481.548 646.094 480.756C646.399 473.995 647.1 467.168 646.978 460.406C646.856 453.876 646.247 447.279 645.118 440.881C644.142 435.274 642.099 429.865 640.574 424.357C639.232 419.64 637.982 414.924 636.671 410.207C635.207 404.897 633.652 399.62 632.341 394.244C630.907 388.406 629.718 382.502 628.437 376.599C627.37 371.651 626.241 366.737 625.387 361.757C624.412 356.216 623.588 350.641 622.917 345.034C621.911 336.69 620.905 328.346 621.454 319.902C621.515 318.847 621.728 317.791 621.85 316.703C622.185 316.637 622.49 316.637 622.795 316.637Z" fill="#1A1E21"/>
<path d="M10.3184 303.406C10.4404 305.187 10.7758 306.506 10.5318 307.661C8.76309 315.774 9.61697 323.954 10.8978 331.936C11.9651 338.664 14.1303 345.26 16.1736 351.758C18.0033 357.53 20.26 363.137 22.5167 368.744C24.5904 373.889 26.9691 378.902 28.9818 384.081C31.269 390.05 33.3427 396.119 35.3859 402.155C36.4227 405.189 37.3681 408.29 38.1305 411.423C39.1978 415.776 40.1127 420.196 41.0581 424.55C42.5524 431.41 44.0162 438.27 45.48 445.098C45.6934 446.087 45.9984 447.011 46.2729 448C46.4558 447.967 46.6388 447.934 46.8218 447.868C46.6998 446.945 46.6998 445.988 46.4558 445.131C43.6807 434.873 43.3453 424.484 44.992 414.061C45.9984 407.63 47.2792 401.165 49.048 394.965C50.6033 389.49 52.738 384.147 55.1471 379.034C58.6541 371.514 62.5881 364.192 66.4305 356.903C68.8702 352.253 71.7368 347.866 74.085 343.183C75.7927 339.686 77.1041 335.894 78.3239 332.134C79.3302 329.099 79.9097 325.9 80.7635 322.8C80.916 322.206 81.5564 321.777 81.9834 321.249C82.1969 321.315 82.3798 321.381 82.5933 321.48C82.6848 322.833 82.7153 324.218 82.8373 325.57C83.5692 334.442 82.4713 343.183 81.3125 351.923C80.3671 358.915 79.6352 365.907 78.6898 372.9C78.3239 375.604 77.6835 378.309 77.1041 380.98C76.1282 385.433 75.1218 389.852 74.085 394.305C73.1396 398.263 72.1333 402.188 71.1269 406.113C70.151 409.906 69.1752 413.699 68.1383 417.459C67.1929 420.955 66.2476 424.451 65.3022 427.98C64.3263 431.641 63.2285 435.236 62.3441 438.93C61.1853 443.745 59.874 448.594 59.2031 453.508C58.5931 457.961 58.5626 462.545 58.6846 467.031C58.8676 473.232 59.508 479.432 59.9045 485.633C59.9655 486.391 59.5995 487.183 59.4165 487.942C58.7456 487.48 57.8612 487.183 57.4648 486.523C55.5131 483.357 53.9273 479.927 51.8231 476.892C47.2487 470.263 42.4609 463.865 37.795 457.334C31.0555 447.901 24.1025 438.633 17.7593 428.903C14.3743 423.725 11.7517 417.887 10.1354 411.654C8.51913 405.486 6.71988 399.384 5.43906 393.151C4.03625 386.356 3.12138 379.43 1.96254 372.603C0.132796 362.081 1.10866 351.461 1.29163 340.907C1.38312 335.729 3.02989 330.583 4.00576 325.405C4.4327 323.129 4.85964 320.854 5.46955 318.611C6.71988 313.894 8.03119 309.211 9.37301 304.494C9.34251 304.297 9.61697 304.132 10.3184 303.406Z" fill="#1A1E21"/>
<path d="M663.17 338.266C662.834 334.044 662.499 329.855 662.133 325.633C662.011 324.215 661.645 322.83 661.615 321.412C661.249 304.591 660.73 287.737 662.164 270.916C662.865 262.604 663.993 254.359 664.542 246.047C664.817 241.99 664.268 237.868 663.993 233.778C663.566 226.951 662.529 220.288 660.578 213.659C659.175 208.975 657.559 204.556 654.967 200.532C654.845 200.334 654.845 200.004 655.119 199.278C656.064 199.938 657.254 200.4 657.925 201.323C660.883 205.347 663.81 209.437 666.463 213.659C669.208 218.012 671.861 222.465 674.179 227.115C676.222 231.238 677.93 235.625 679.424 240.011C681.132 245.058 682.596 250.269 683.907 255.48C684.639 258.383 685.066 261.417 685.34 264.418C686.011 271.773 686.987 279.161 687.048 286.549C687.109 293.212 686.316 299.94 685.554 306.57C685.005 311.253 683.999 315.871 682.931 320.422C682.291 323.193 681.162 325.831 680.217 328.536C678.845 332.461 677.381 336.385 676.039 340.31C675.002 343.345 673.904 346.346 673.051 349.446C671.587 354.79 670.154 360.1 668.934 365.509C667.592 371.545 666.524 377.646 665.335 383.715C665.274 384.045 665.03 384.309 664.725 384.836C664.359 384.342 663.993 384.045 663.902 383.649C662.225 377.514 660.883 371.248 658.87 365.278C657.254 360.496 655.028 355.878 652.71 351.425C645.97 338.496 637.31 327.019 629.35 314.98C624.074 307.031 618.86 299.017 614.133 290.672C610.778 284.702 607.942 278.337 606.173 271.477C605.411 268.508 604.161 265.705 603.246 262.769C602.697 261.021 602.27 259.273 601.843 257.492C601.02 254.029 600.196 250.533 599.403 247.07C599.281 246.608 599.19 246.047 599.281 245.618C599.373 245.223 599.708 244.86 599.952 244.464C600.227 244.728 600.623 244.86 600.776 245.19C603.795 251.126 607.698 256.305 612.151 260.988C617.609 266.727 623.464 272.07 628.984 277.776C635.144 284.175 641.396 290.507 647.007 297.466C650.484 301.754 653.289 306.866 655.576 312.012C658.901 319.433 660.944 327.414 661.828 335.66C661.92 336.583 662.194 337.474 662.377 338.397C662.682 338.364 662.926 338.331 663.17 338.266Z" fill="#1A1E21"/>
<path d="M40.1099 389.322C39.9879 388.729 39.7744 388.135 39.7134 387.541C39.256 383.847 38.89 380.12 38.3411 376.426C38.0667 374.513 37.5787 372.567 36.9993 370.72C35.2611 365.047 33.4313 359.44 31.6016 353.8C29.9548 348.688 28.2775 343.609 26.5393 338.53C25.228 334.572 23.6117 330.68 22.5443 326.656C20.9586 320.653 19.6777 314.552 18.3664 308.45C16.0792 297.764 16.9026 286.912 17.2381 276.127C17.3905 271.114 18.4579 266.101 19.3423 261.12C19.9522 257.624 20.8061 254.128 21.9344 250.764C23.5507 245.883 25.3194 241.034 27.2407 236.318C31.6626 225.499 37.9752 215.935 44.3793 206.436C44.9282 205.611 46.0261 205.182 46.8799 204.589C46.636 205.578 46.575 206.667 46.148 207.524C43.068 213.527 41.0247 219.893 39.8049 226.687C38.1277 236.252 38.6766 245.883 38.951 255.447C39.1035 260.362 40.0489 265.243 40.6588 270.157C41.1162 274.016 41.6347 277.842 42.0311 281.701C43.4339 295.719 44.3488 309.703 42.7935 323.787C42.0006 330.779 41.6347 337.87 41.1162 344.928C41.0857 345.423 41.2077 345.951 41.2687 346.445C41.4517 346.478 41.6652 346.478 41.8481 346.511C42.2751 344.301 42.7935 342.092 43.0985 339.882C44.1048 332.593 45.7211 325.568 48.5267 318.806C52.9791 307.955 59.5357 298.687 67.1596 290.343C75.0275 281.767 83.4443 273.851 91.2817 265.276C94.8192 261.417 97.5334 256.668 100.552 252.281C101.315 251.193 101.833 249.906 102.443 248.719C102.657 248.752 102.87 248.752 103.084 248.752C103.084 249.84 103.236 250.962 103.053 251.984C102.474 255.216 101.833 258.449 101.071 261.648C100.065 265.804 99.0887 269.96 97.8078 274.016C96.283 278.997 94.6973 284.01 92.715 288.792C90.9463 293.08 88.8421 297.269 86.4329 301.194C78.809 313.562 70.9716 325.765 63.1952 338.002C57.8279 346.478 52.7351 355.153 48.8012 364.553C46.575 369.896 45.1112 375.635 43.4034 381.209C42.824 383.122 42.641 385.199 42.1226 387.145C41.8786 388.003 41.2382 388.729 40.7808 389.487C40.5368 389.487 40.3233 389.388 40.1099 389.322Z" fill="#1A1E21"/>
<path d="M601.476 150.37C602.757 150.732 604.068 150.996 605.349 151.425C614.619 154.657 622.487 160.33 629.501 167.553C635.875 174.084 640.968 181.67 645.054 189.948C647.25 194.434 648.805 199.348 650.238 204.263C653.928 217.225 653.837 230.549 653.288 243.973C652.8 256.144 652.709 268.314 652.617 280.484C652.587 283.354 653.319 286.223 653.685 289.093C653.776 289.785 653.837 290.511 653.745 291.204C653.684 291.665 653.349 292.127 653.105 292.556C652.739 292.226 652.282 291.962 652.068 291.533C647.951 283.156 642.432 275.999 636.241 269.369C627.214 259.706 616.846 251.823 607.117 243.083C600.988 237.575 595.011 231.869 589.277 225.932C584.063 220.523 580.037 214.058 577.14 206.868C574.64 200.634 572.444 194.236 570.248 187.837C569.547 185.792 569.303 183.583 568.845 181.472C568.54 180.054 568.144 178.635 567.9 177.184C567.778 176.426 567.869 175.667 567.869 174.908C568.083 174.875 568.327 174.842 568.51 174.809C569.394 176.524 570.248 178.273 571.163 179.988C576.317 189.486 583.605 196.71 591.656 203.207C601.781 211.354 612.881 218.148 621.969 227.68C628.282 234.276 634.716 240.906 638.376 249.877C638.803 250.932 639.412 251.922 639.931 252.944C640.083 252.878 640.266 252.812 640.449 252.779C639.931 251.229 639.413 249.712 638.955 248.162C637.034 241.598 635.082 235.035 633.191 228.471C632.124 224.777 631.057 221.083 630.142 217.356C629.105 213.201 628.312 209.012 627.336 204.856C626.391 200.832 625.354 196.842 624.348 192.818C623.494 189.355 622.762 185.825 621.664 182.461C620.261 178.306 618.919 174.084 616.846 170.324C614.497 166.069 611.509 162.177 608.52 158.351C606.904 156.273 604.708 154.756 602.818 152.909C602.177 152.316 601.689 151.524 601.11 150.831C601.262 150.633 601.354 150.501 601.476 150.37Z" fill="#1A1E21"/>
<path d="M62.4657 259.311C63.4416 257.299 64.3564 255.255 65.3933 253.276C71.4924 241.732 79.5128 231.969 89.3934 224.053C96.011 218.71 102.842 213.631 109.429 208.255C117.114 201.988 124.159 194.963 129.099 185.86C130.288 183.683 131.203 181.374 132.27 179.132C132.423 178.802 132.728 178.505 133.521 178.274C133.582 179.231 133.765 180.187 133.643 181.144C132.941 187.608 131.569 193.842 129.526 199.976C124.525 215.049 115.894 227.451 105.434 238.434C99.4265 244.766 93.0529 250.802 86.3439 256.244C76.2498 264.424 67.0401 273.494 59.4466 284.411C57.0374 287.874 55.0247 291.7 52.829 295.328C52.3411 296.12 51.8227 296.878 51.3043 297.67C51.0298 297.505 50.7858 297.34 50.5419 297.142C50.4809 296.515 50.3894 295.856 50.4199 295.229C50.6943 287.313 51.3043 279.398 51.2128 271.482C51.1213 263.566 50.2064 255.683 49.9015 247.768C49.6575 241.765 49.627 235.762 49.871 229.759C50.1149 224.35 50.6334 218.941 51.4567 213.565C52.0362 209.772 53.073 206.012 54.3233 202.384C55.8481 197.931 57.6474 193.545 59.6906 189.356C60.9409 186.751 62.7707 184.475 64.4784 182.166C69.1138 175.866 74.1151 169.864 80.2447 165.18C84.5141 161.948 88.875 158.914 93.9373 157.231C95.3706 156.77 96.7124 156.044 98.1152 155.483C98.5117 155.318 98.9996 155.351 99.4265 155.285C99.518 155.483 99.6095 155.681 99.701 155.912C98.1762 157.33 96.5599 158.683 95.1266 160.2C90.7657 164.817 86.9233 169.831 84.4836 175.932C82.5929 180.682 80.5802 185.431 79.0859 190.346C77.8355 194.534 77.2256 198.987 76.3413 203.308C75.3349 208.057 74.359 212.773 73.3222 217.49C72.4378 221.58 71.5839 225.736 70.5776 229.792C69.7237 233.321 68.7173 236.85 67.65 240.314C65.9422 245.855 64.1125 251.33 62.3437 256.871C62.0997 257.596 62.0997 258.421 62.0083 259.179C62.1607 259.245 62.2827 259.278 62.4657 259.311Z" fill="#1A1E21"/>
<path d="M532.985 114.815C533.808 114.815 534.235 114.683 534.54 114.848C539.175 116.827 543.841 118.707 548.416 120.818C555.216 123.951 561.925 127.25 568.695 130.416C574.794 133.252 580.131 137.309 585.194 141.894C590.744 146.907 595.41 152.745 599.618 159.077C604.406 166.268 608.187 174.051 611.145 182.231C613.189 187.838 614.53 193.742 616.269 199.481C617.611 203.801 619.074 208.056 620.447 212.377C620.66 213.036 620.599 213.828 620.691 214.554C620.111 214.323 619.41 214.224 618.952 213.861C609.712 206.506 600.96 198.491 592.726 189.817C584.431 181.077 576.441 172.073 569.458 162.079C564.212 154.526 559.425 146.643 554.118 139.156C551.496 135.429 548.202 132.23 545.122 128.833C541.554 124.875 537.895 121.049 534.327 117.124C533.839 116.596 533.564 115.838 532.985 114.815Z" fill="#1A1E21"/>
<path d="M81.1295 218.811C82.2274 215.446 83.4167 212.115 84.4536 208.718C85.5819 205.057 86.5578 201.33 87.6251 197.636C88.6315 194.074 89.5769 190.512 90.6747 186.983C91.7726 183.454 92.7179 179.826 94.3037 176.593C96.5909 171.877 99.305 167.358 101.958 162.906C108.545 151.89 117.45 143.512 127.971 137.18C134.711 133.123 141.664 129.528 148.647 126.032C152.978 123.888 157.582 122.338 162.065 120.491C163.529 119.864 164.993 119.171 166.457 118.479C166.609 118.644 166.731 118.809 166.884 118.94C166.487 119.633 166.182 120.524 165.633 121.018C159.29 126.79 153.923 133.519 148.983 140.61C141.359 151.527 133.918 162.576 126.477 173.625C119.524 183.981 110.954 192.623 101.989 200.868C95.737 206.607 89.5159 212.412 83.2642 218.184C82.7458 218.646 82.1054 218.877 81.526 219.239C81.404 219.107 81.2515 218.943 81.1295 218.811Z" fill="#1A1E21"/>
<path d="M181.701 306.012L181.731 332.101L177.096 334.872L177.065 309.047L181.701 306.012Z" fill="#1A1E21"/>
<path d="M175.14 309.61L175.109 334.182L170.87 336.854V312.48L175.14 309.61Z" fill="#1A1E21"/>
<path d="M168.342 313.102L168.373 337.015L164.256 339.092L164.226 315.246L168.342 313.102Z" fill="#1A1E21"/>
<path d="M350.064 295.359L355.736 292.39V325.175L350.064 328.011V295.359Z" fill="#1A1E21"/>
<path d="M367.628 87.5054L367.598 77.116L359.517 76.9181L334.449 45.0243L334.236 38.8236L323.897 35.7563L323.806 31.9963L315.328 29.1598C315.328 29.1598 319.201 22.3985 313.773 17.8799C313.773 17.8799 314.139 11.6793 308.955 11.4154L307.064 0.168457L305.082 11.3824C305.082 11.3824 300.202 12.7677 300.233 18.2427C300.233 18.2427 294.469 24.1465 300.263 30.2812H295.292L286.235 42.8145H281.844L281.874 51.8846L260.253 89.0555L253.635 90.6057L253.666 98.8842L234.972 112.935L234.453 117.255L253.91 119.861L291.877 99.6098L368.452 106.239L390.714 93.0464L367.628 87.5054ZM282.637 86.5819L253.696 105.679L249.854 104.854L289.681 78.4353L366.5 87.6043L373.545 93.5741L282.637 86.5819Z" fill="#1A1E21"/>
<path d="M520.26 175.366V163.36H515.961V145.715L510.502 145.451V149.507H505.135V145.846L497.694 145.879L493.485 139.745L492.997 128.729L486.105 135.721L479.274 129.025L465.399 126.156L472.443 118.603L466.771 116.954L458.995 106.433C458.995 106.433 449.998 106.466 448.992 106.466L440.118 119.164L435.147 122L440.667 126.387V131.037C432.402 133.709 429.871 138.92 429.871 138.92L425.51 142.812L419.076 143.472L418.527 152.179L413.251 152.938L406.999 163.063L398.948 159.402L398.979 176.916L396.997 177.081L397.332 186.678L385.988 193.407L397.729 203.104L444.936 184.37H445.058L520.138 187.338L542.034 175.366H520.26ZM440.423 172.496L397.729 190.537L398.43 189.383L402.486 183.974L438.41 166.427L512.82 171.672L518.095 177.213L440.423 172.496Z" fill="#1A1E21"/>
<path d="M368.363 106.309L291.788 99.6793L291.879 169.635L369.552 174.384L368.363 106.309ZM331.188 156.541C319.813 156.574 310.573 146.58 310.573 134.311C310.543 122.008 319.783 112.015 331.127 112.015C342.502 111.982 351.742 121.975 351.742 134.245C351.773 146.547 342.533 156.508 331.188 156.541Z" fill="#1A1E21"/>
<path d="M331.128 142.058C335.092 142.058 338.325 138.562 338.325 134.275C338.325 129.987 335.092 126.491 331.128 126.491C327.163 126.491 323.931 129.987 323.931 134.275C323.931 138.562 327.163 142.058 331.128 142.058Z" fill="#1A1E21"/>
<path d="M275.229 117.981C268.734 116.925 262.055 126.358 260.317 139.023C258.548 151.688 262.391 162.836 268.886 163.859C275.351 164.914 282.06 155.481 283.829 142.816C285.567 130.184 281.725 119.069 275.229 117.981ZM276.815 141.695C276.083 146.84 273.4 150.6 270.807 150.204C268.185 149.775 266.63 145.29 267.361 140.178C268.063 135.065 270.777 131.272 273.369 131.668C275.961 132.097 277.517 136.583 276.815 141.695Z" fill="#1A1E21"/>
<path d="M520.14 241.825L520.079 187.305L444.998 184.337L445.059 237.933L422.98 238.065L423.011 259.932L440.18 259.899L440.302 367.685L543.408 367.553L543.286 264.088L557.711 264.055L557.68 241.726L520.14 241.825ZM470.706 237.966L456.678 237.999L456.617 194.924L470.645 194.891L470.706 237.966ZM492.511 237.933L479.245 237.966L479.184 194.858L492.45 194.825L492.511 237.933ZM510.93 238.658L501.659 238.691L501.598 195.584L510.869 195.551L510.93 238.658Z" fill="#1A1E21"/>
<path d="M437.558 196.41L437.588 232.559L427.586 236.45L427.525 200.665L437.558 196.41Z" fill="#1A1E21"/>
<path d="M424.107 201.528L424.046 237.38L414.928 241.272L414.989 205.783L424.107 201.528Z" fill="#1A1E21"/>
<path d="M411.18 207.791L411.21 242.818L403.922 245.852L403.861 210.957L411.18 207.791Z" fill="#1A1E21"/>
<path d="M373.274 202.247L294.168 198.356L258.64 214.649L237.354 211.318L289.167 185.558C289.167 185.558 385.472 192.617 385.96 192.617C386.448 192.617 373.274 202.247 373.274 202.247Z" fill="#1A1E21"/>
<path d="M373.028 257.17L373.059 274.42L390.136 274.387L390.197 316.934L337.196 336.921L337.226 367.628L316.062 367.661L315.94 270.693L310.634 259.347L310.603 237.348L294.258 243.68L294.197 198.363L373.089 202.255L373.15 243.054L399.438 243.021V246.682L373.577 257.203H373.028V257.17Z" fill="#1A1E21"/>
<path d="M243.178 295.491L243.148 297.206L185.145 295.062L161.694 304.561L148.276 300.603L160.474 294.765L159.986 285.728H163.676L163.645 277.186L170.629 277.153V270.424H175.63L175.6 258.155L178.192 260.958L185.389 257.792C185.389 256.308 185.938 254.956 186.853 253.999C187.768 253.01 188.987 252.416 190.36 252.416H192.007V249.316L185.785 243.445L192.921 243.412L196.306 234.507L202.436 234.276L205.608 243.115L212.347 243.082L206.065 249.052L206.187 252.317C206.187 252.317 213.323 251.789 213.536 257.33L221.252 257.297L222.228 253.273L225.216 253.208L224.942 259.012C224.942 259.012 228.571 260.299 228.418 266.203L237.567 266.17V269.204L229.943 274.811L229.76 284.211L185.206 280.286L165.994 289.026L163.615 293.512L184.84 284.508L229.364 287.443L229.303 295.392L243.178 295.491Z" fill="#1A1E21"/>
<path d="M185.143 295.026L185.234 368.28L240.92 368.214L240.828 297.104L185.143 295.026ZM202.038 334.836L193.743 334.869L193.712 306.009L202.007 305.976L202.038 334.836ZM219.481 334.803L211.064 334.836L211.034 307.527L219.451 307.494L219.481 334.803ZM234.912 334.572L227.563 334.605L227.532 308.417L234.882 308.384L234.912 334.572Z" fill="#1A1E21"/>
<path d="M311.311 401.137V411.955H280.693V484.78H269.013V411.955H238.975V401.137H311.311Z" fill="#1A1E21"/>
<path d="M187.497 401.764V484.781H199.207V401.764H187.497Z" fill="#1A1E21"/>
<path d="M225.31 401.764H213.6V484.781H225.31V401.764Z" fill="#1A1E21"/>
<path d="M390.995 458.918C389.958 445.528 379.468 441.669 379.468 441.669C385.232 437.777 389.043 430.851 389.043 422.968C389.043 417.097 386.848 411.82 383.31 407.994C379.773 404.168 374.893 401.793 369.465 401.793H339.061V484.81H368.306C368.306 484.81 384.652 484.249 389.501 470.462C389.562 470.297 389.623 470.132 389.684 469.968C390.69 467.098 391.361 463.437 390.995 458.918ZM367.879 409.181C374.527 409.181 379.925 415.019 379.925 422.209V422.671C379.925 430.917 373.765 437.579 366.141 437.579H347.508V409.181H367.879ZM382.273 466.307C381.724 471.353 378.096 474.123 374.619 475.607C371.142 477.125 367.788 477.355 367.788 477.355H347.508V445H366.69C379.956 446.253 381.542 453.806 381.542 453.806C381.542 453.806 383.371 456.181 382.273 466.307Z" fill="#1A1E21"/>
<path d="M374.617 475.647C371.141 477.164 367.786 477.395 367.786 477.395L374.617 475.647Z" fill="#1A1E21"/>
<path d="M456.866 401.764V484.781H447.87V445.004H414.355V484.781H405.359V401.764H414.355V436.363H447.87V401.764H456.866Z" fill="#1A1E21"/>
<path d="M524.536 401.764V464.068C524.536 476.271 515.418 486.133 504.134 486.133H494.65C482.391 486.133 472.449 475.381 472.449 462.122V401.764H481.659V459.219C481.659 468.553 488.673 476.139 497.303 476.139H500.414C508.647 476.139 515.357 468.916 515.357 459.978V401.764H524.536Z" fill="#1A1E21"/>
<path d="M386.663 497.446V559.75C386.663 571.953 377.545 581.815 366.262 581.815H356.777C344.518 581.815 334.576 571.063 334.576 557.804V497.446H343.786V554.901C343.786 564.235 350.8 571.821 359.43 571.821H362.541C370.775 571.821 377.484 564.598 377.484 555.66V497.446H386.663Z" fill="#1A1E21"/>
<path d="M308.414 498.235V581.021H299.418V515.848L277.4 581.021H269.959L247.941 516.705V581.021H238.945V498.235H249.893L273.71 566.212L296.49 498.235H308.414Z" fill="#1A1E21"/>
<path d="M467.082 498.101V581.117H457.476L422.376 515.086V581.117H413.379V498.101H423.321L458.086 564.197V498.101H467.082Z" fill="#1A1E21"/>
</g>
</svg>
