<svg width="107" height="105" viewBox="0 0 107 105" fill="none" xmlns="http://www.w3.org/2000/svg">
    <path
        d="M51.2611 94.2951C50.3369 93.9717 49.1345 94.1448 48.2611 94.2951C47.397 94.4454 47.0098 93.8168 46.2611 94.2951C45.0319 95.0831 43.4857 96.498 42.2611 97.2951C41.3646 97.8781 40.1992 98.7849 39.2611 99.2951C38.4848 99.7141 38.0976 99.9945 37.2611 100.295C36.3369 100.623 35.2177 100.081 34.2611 100.295C33.591 100.441 32.9543 101.263 32.2611 101.295C31.0365 101.359 29.4441 100.582 28.2611 100.295C27.4986 100.113 26.9774 100.609 26.2611 100.295C25.3646 99.9034 24.1114 98.7779 23.2611 98.2951C22.6742 97.9626 22.7787 97.7278 22.2611 97.2951C21.6973 96.8259 20.7926 96.8007 20.2611 96.2951C20.2195 96.2541 20.3212 95.4408 20.2611 95.2951C20.4367 95.3543 20.1779 95.2359 20.2611 95.2951C21.1484 95.8963 22.2445 96.9945 23.2611 97.2951C23.9774 97.5046 24.531 97.1311 25.2611 97.2951C26.1946 97.5001 27.323 97.3087 28.2611 97.2951C29.4534 97.2769 31.1243 97.6367 32.2611 97.2951C33.1299 97.0354 33.4154 96.6367 34.2611 96.2951C35.1391 95.9398 36.3831 95.664 37.2611 95.2951C38.0652 94.958 38.4478 94.6094 39.2611 94.2951C39.6724 94.1357 40.8406 93.4272 41.2611 93.2951C41.7094 93.1584 41.8082 93.4272 42.2611 93.2951C42.6031 93.1949 42.9145 93.3589 43.2611 93.2951C44.2408 93.1174 45.2722 92.368 46.2611 92.2951C47.324 92.2176 48.1936 92.2404 49.2611 92.2951C49.922 92.327 50.6142 92.1675 51.2611 92.2951C51.751 92.3907 52.7851 93.1448 53.2611 93.2951C53.7463 93.4454 53.8314 93.5957 54.2611 93.2951C54.4506 93.163 55.0208 92.3224 55.2611 92.2951C56.3887 92.1493 57.1289 92.3634 58.2611 92.2951C59.629 92.2131 60.9025 92.0719 62.2611 92.2951C62.982 92.4135 63.5495 93.1265 64.2611 93.2951C64.7417 93.409 65.799 93.1357 66.2611 93.2951C66.9543 93.5365 67.5772 94.0172 68.2611 94.2951C69.0329 94.6094 69.494 94.9717 70.2611 95.2951C70.9127 95.5684 71.6003 96.0537 72.2611 96.2951C73.0236 96.5775 73.4801 96.0719 74.2611 96.2951C74.9589 96.4955 75.5356 97.1949 76.2611 97.2951C76.885 97.3816 77.628 97.3179 78.2611 97.2951C79.2085 97.2541 80.3184 97.409 81.2611 97.2951C81.7787 97.2313 82.7667 96.4636 83.2611 96.2951C83.9543 96.0537 84.591 96.5957 85.2611 96.2951C85.6262 96.1357 85.9099 95.4955 86.2611 95.2951C86.312 95.2632 86.201 95.3133 86.2611 95.2951C86.2473 95.3589 86.2981 95.2586 86.2611 95.2951C85.6789 95.8781 84.8665 96.7394 84.2611 97.2951C83.4108 98.074 82.2732 98.7622 81.2611 99.2951C80.531 99.6823 80.0329 99.9853 79.2611 100.295C78.0457 100.782 76.5551 100.231 75.2611 100.295C74.5079 100.332 73.9959 100.427 73.2611 100.295C72.3323 100.127 71.1761 100.577 70.2611 100.295C69.1151 99.9352 68.3148 98.8462 67.2611 98.2951C66.1613 97.7212 65.3101 96.9692 64.2611 96.2951C63.1982 95.6118 62.3286 94.9738 61.2611 94.2951C60.6095 93.876 59.0375 94.368 58.2611 94.2951C57.3415 94.2085 57.2408 94.1402 56.2611 94.2951C56.3674 94.3862 56.1918 94.2586 56.2611 94.2951C57.1946 94.7779 58.3646 94.7622 59.2611 95.2951C60.7584 96.1924 61.8609 97.2474 63.2611 98.2951C64.6937 99.3609 65.921 101.134 67.2611 102.295C67.506 102.509 67.4922 102.081 67.2611 102.295C66.6927 102.81 65.8203 103.771 65.2611 104.295C65.0301 104.518 65.4413 104.486 65.2611 104.295C64.5264 103.534 64.0421 102.01 63.2611 101.295C61.8286 99.9924 59.7676 99.5067 58.2611 98.2951C57.226 97.4661 56.3748 96.0239 55.2611 95.2951C54.836 95.0172 54.7371 95.4773 54.2611 95.2951C54.0162 95.204 53.506 95.204 53.2611 95.2951C52.7204 95.4955 51.7556 94.999 51.2611 95.2951C49.6252 96.2744 47.7353 98.0835 46.2611 99.2951C44.3803 100.844 42.7491 102.368 41.2611 104.295C41.0532 104.564 41.5199 104.509 41.2611 104.295C40.6511 103.785 39.8896 102.787 39.2611 102.295C39.0717 102.145 39.0994 102.445 39.2611 102.295C40.5782 101.074 41.8378 99.4019 43.2611 98.2951C44.7353 97.1472 46.6714 96.2653 48.2611 95.2951C48.9682 94.8624 49.5217 94.6777 50.2611 94.2951C50.506 94.1721 50.9607 94.4454 51.2611 94.2951Z"
        fill="#AB0048" />
    <path
        d="M79.2609 90.2952C79.324 90.2057 79.1843 90.3706 79.2609 90.2952C80.5271 89.084 81.531 86.9212 82.2609 85.2952C82.5133 84.7297 83.0311 84.8702 83.2609 84.2952C83.4907 83.7202 84.0582 82.8796 84.2609 82.2952C84.4727 81.6825 84.0627 80.9126 84.2609 80.2952C84.5178 79.494 84.9951 79.0964 85.2609 78.2952C85.4322 77.7815 86.0672 76.7948 86.2609 76.2952C86.4547 75.7957 86.0266 75.7759 86.2609 75.2952C86.5764 74.6496 86.8689 73.8891 87.2609 73.2952C88.2973 71.7305 89.1975 69.8364 90.2609 68.2952C90.315 68.2151 91.1888 68.3612 91.2609 68.2952C91.288 68.3141 91.2339 68.2811 91.2609 68.2952C91.1798 68.5403 90.333 69.0454 90.2609 69.2952C89.9861 70.2048 90.4727 71.3715 90.2609 72.2952C90.0672 73.1341 89.3916 73.4375 89.2609 74.2952C89.1708 74.9126 89.3556 75.6778 89.2609 76.2952C89.1843 76.7948 89.3601 76.8004 89.2609 77.2952C89.1167 78.0022 88.4502 79.6024 88.2609 80.2952C88.0987 80.8938 88.4998 80.7297 88.2609 81.2952C87.7968 82.3933 87.0089 83.3762 86.2609 84.2952C85.6076 85.1011 84.9413 86.5129 84.2609 87.2952C84.2024 87.3612 84.324 87.2292 84.2609 87.2952C84.2745 87.3188 84.2474 87.2717 84.2609 87.2952C84.333 87.2622 84.1979 87.3424 84.2609 87.2952C84.8422 86.8145 85.6977 85.7995 86.2609 85.2952C87.3108 84.3573 88.0578 83.988 89.2609 83.2952C90.5271 82.5647 91.9857 82.0069 93.2609 81.2952C94.3964 80.6684 95.157 79.9833 96.2609 79.2952C97.7074 78.3998 99.1615 77.6431 100.261 76.2952C100.977 75.4092 101.846 74.3839 102.261 73.2952C102.279 73.2528 102.234 73.3329 102.261 73.2952C102.292 73.2999 102.229 73.2952 102.261 73.2952C102.261 73.4649 102.297 73.135 102.261 73.2952C102.108 73.9692 101.504 74.659 101.261 75.2952C100.887 76.2614 100.725 77.3762 100.261 78.2952C99.5265 79.7657 98.3379 81.1029 97.2609 82.2952C96.2561 83.4122 95.455 84.3998 94.2609 85.2952C93.2741 86.0352 92.3108 86.6731 91.2609 87.2952C90.8419 87.545 90.7205 87.1114 90.2609 87.2952C89.8779 87.4508 88.653 88.1633 88.2609 88.2952C87.932 88.4036 87.5989 88.2245 87.2609 88.2952C86.2876 88.5026 85.2342 89.0879 84.2609 89.2952C83.5445 89.446 82.9729 89.1303 82.2609 89.2952C81.6571 89.4319 81.8602 90.1397 81.2609 90.2952C80.7923 90.413 79.7251 90.1633 79.2609 90.2952C79.297 90.2905 79.2249 90.3047 79.2609 90.2952C79.279 90.3141 79.2654 90.2811 79.2609 90.2952Z"
        fill="#AB0048" />
    <path
        d="M4.26105 73.2952C4.35456 73.4456 4.18156 73.1357 4.26105 73.2952C5.06993 74.9269 6.79292 76.2151 8.26105 77.2952C9.10733 77.9197 10.3306 78.7939 11.261 79.2952C12.6497 80.0473 13.835 80.6116 15.2611 81.2952C16.9162 82.0837 18.7602 83.247 20.261 84.2952C21.098 84.8786 21.4335 84.6982 22.261 85.2952C22.607 85.5414 22.8917 86.081 23.261 86.2952C23.2798 86.2725 23.247 86.318 23.261 86.2952C22.9945 86.0537 22.5369 85.5277 22.261 85.2952C21.0267 84.2561 20.0465 83.6717 19.2611 82.2952C18.9197 81.6982 19.4902 80.9424 19.2611 80.2952C18.9945 79.5432 18.4621 78.0701 18.2611 77.2952C18.1488 76.8623 18.3359 76.7373 18.2611 76.2952C18.1722 75.7848 17.3546 75.8057 17.2611 75.2952C17.1862 74.8896 17.3265 73.6963 17.2611 73.2952C17.1769 72.7757 17.3686 72.8103 17.2611 72.2952C17.1488 71.7438 17.4434 70.8285 17.2611 70.2952C17.0319 69.6161 16.5182 68.9698 16.2611 68.2952C16.2423 68.2451 16.1816 68.391 16.2611 68.2952C16.5089 68.5915 17.0273 68.9853 17.2611 69.2952C18.1588 70.4894 18.4381 71.051 19.2611 72.2952C19.9577 73.3481 20.6953 75.1695 21.261 76.2952C21.6024 76.9698 22.0039 77.5797 22.261 78.2952C22.4668 78.8604 23.0553 79.7301 23.261 80.2952C23.4761 80.8786 23.0366 80.7119 23.261 81.2952C23.565 82.0746 23.901 83.5387 24.261 84.2952C24.5977 85.0062 24.8075 85.648 25.261 86.2952C25.8034 87.0701 26.6439 87.566 27.261 88.2952C27.4948 88.5733 27.9992 89.04 28.261 89.2952C28.3172 89.3499 28.219 89.2223 28.261 89.2952C28.1769 89.3135 28.3359 89.3089 28.261 89.2952C27.9712 89.236 27.5509 89.3682 27.261 89.2952C26.8449 89.1904 26.6772 88.3864 26.261 88.2952C25.8122 88.1995 24.7099 88.3818 24.261 88.2952C23.8589 88.2178 23.6678 88.359 23.261 88.2952C22.4335 88.1631 22.084 88.4456 21.261 88.2952C20.527 88.1631 18.9858 87.4684 18.2611 87.2952C17.7982 87.1859 17.7193 87.4365 17.2611 87.2952C16.8636 87.1722 16.6304 86.473 16.2611 86.2952C15.4662 85.9124 15.0091 85.751 14.2611 85.2952C13.4849 84.8212 11.9624 84.8695 11.261 84.2952C10.2839 83.4885 9.14941 82.1886 8.26105 81.2952C7.26983 80.3017 6.97174 79.4985 6.26105 78.2952C5.79349 77.5068 5.54626 76.1749 5.26105 75.2952C5.04597 74.6207 4.47613 73.9743 4.26105 73.2952C4.26573 73.4365 4.21897 73.1585 4.26105 73.2952C4.22365 73.3135 4.30781 73.2816 4.26105 73.2952Z"
        fill="#AB0048" />
    <path
        d="M72.261 92.2953C72.6413 92.2476 72.8852 92.3572 73.261 92.2953C74.1407 92.138 75.3766 91.4287 76.261 91.2953C77.3973 91.1189 79.12 91.4144 80.261 91.2953C81.3744 91.1761 82.1475 90.4049 83.261 90.2953C83.9849 90.2238 84.5416 90.3954 85.261 90.2953C85.7558 90.2238 86.7753 90.4144 87.261 90.2953C88.1041 90.0855 88.4453 89.5908 89.261 89.2953C90.0262 89.014 90.5462 88.7004 91.261 88.2953C92.2278 87.7471 93.5324 87.158 94.261 86.2953C94.3022 86.2476 94.1418 86.3048 94.261 86.2953C94.2472 86.3811 94.2976 86.219 94.261 86.2953C93.6378 87.6299 92.2553 89.2513 91.261 90.2953C90.3674 91.2391 90.3607 91.6041 89.261 92.2953C88.4774 92.791 87.0811 92.8805 86.261 93.2953C85.624 93.6194 84.9345 94.0665 84.261 94.2953C83.734 94.4764 83.8062 95.2047 83.261 95.2953C82.4087 95.4335 81.1224 95.2857 80.261 95.2953C79.2483 95.3143 78.269 95.4144 77.261 95.2953C76.3904 95.1952 75.127 94.4573 74.261 94.2953C73.8532 94.219 73.6642 94.3811 73.261 94.2953C72.9631 94.2333 72.5542 94.3763 72.261 94.2953C71.3995 94.0712 71.127 93.4955 70.261 93.2953C69.3079 93.0712 68.2186 93.4859 67.261 93.2953C66.8165 93.2095 65.7054 92.3715 65.261 92.2953C65.1647 92.281 65.348 92.3382 65.261 92.2953C65.206 92.2714 65.261 92.3477 65.261 92.2953C65.261 92.2524 65.206 92.3096 65.261 92.2953C65.82 92.157 66.7019 92.443 67.261 92.2953C67.6733 92.1809 67.8577 91.4478 68.261 91.2953C68.8016 91.0903 69.734 91.5241 70.261 91.2953C71.2873 90.8519 71.4453 90.077 72.261 89.2953C73.6951 87.9177 75.8634 86.711 77.261 85.2953C78.9884 83.5411 80.3365 81.8158 82.261 80.2953C82.4626 80.138 83.0502 79.443 83.261 79.2953C83.3389 79.2381 83.1693 79.3334 83.261 79.2953C83.2793 79.3191 83.2426 79.2714 83.261 79.2953C83.2151 79.3858 83.3159 79.219 83.261 79.2953C82.537 80.301 81.7787 82.1703 81.261 83.2953C80.6332 84.6633 80.0033 85.9939 79.261 87.2953C78.3812 88.8301 77.8234 89.442 76.261 90.2953C75.4316 90.7481 74.1636 91.0522 73.261 91.2953C73.041 91.3525 72.4763 92.219 72.261 92.2953C72.2518 92.2524 72.2655 92.3191 72.261 92.2953Z"
        fill="#AB0048" />
    <path
        d="M94.2611 57.2952C94.2891 57.5238 94.2611 58.1272 94.2611 58.2952C94.2611 58.7851 94.219 58.81 94.2611 59.2952C94.3359 60.149 94.1489 61.446 94.2611 62.2952C94.3265 62.7991 95.1722 62.7913 95.2611 63.2952C95.3499 63.8037 95.1629 64.7866 95.2611 65.2952C95.3312 65.6591 95.2237 65.9313 95.2611 66.2952C95.4153 67.7555 95.4948 68.8115 95.2611 70.2952C95.1161 71.2143 95.579 72.4321 95.2611 73.2952C94.9572 74.1303 94.6538 74.488 94.2611 75.2952C94.1629 75.5005 93.3265 76.0479 93.2611 76.2952C93.3125 76.2532 93.2237 76.3418 93.2611 76.2952C94.2522 74.8955 95.2747 73.6995 96.2611 72.2952C97.3877 70.6949 98.8492 68.6529 100.261 67.2952C101.477 66.1288 102.331 64.6995 103.261 63.2952C103.822 62.4507 104.845 62.2143 105.261 61.2952C105.602 60.5487 106.242 59.1397 106.261 58.2952C106.261 58.2159 106.242 58.3698 106.261 58.2952C106.27 58.2672 106.191 58.3932 106.261 58.2952C106.345 58.4725 106.256 58.1552 106.261 58.2952C106.275 59.5176 106.331 61.0775 106.261 62.2952C106.219 62.9997 106.439 63.6 106.261 64.2952C106.107 64.9017 105.499 65.7167 105.261 66.2952C104.939 67.0884 104.686 67.558 104.261 68.2952C103.775 69.1397 102.836 70.5067 102.261 71.2952C101.303 72.6062 100.505 73.2594 99.2611 74.2952C98.2606 75.1303 97.3363 76.5534 96.2611 77.2952C94.9334 78.2097 93.5981 78.3947 92.2611 79.2952C91.4243 79.8551 90.0839 80.712 89.2611 81.2952C89.205 81.3372 89.3312 81.2765 89.2611 81.2952C89.247 81.2252 89.2377 81.3465 89.2611 81.2952C89.406 80.9779 89.1255 80.6171 89.2611 80.2952C89.5556 79.6093 90.0273 78.995 90.2611 78.2952C90.5135 77.544 91.0741 76.0697 91.2611 75.2952C91.3826 74.7726 91.1863 74.8271 91.2611 74.2952C91.3686 73.544 91.1816 73.051 91.2611 72.2952C91.3546 71.3901 92.1816 70.205 92.2611 69.2952C92.3686 68.0681 92.1348 66.5176 92.2611 65.2952C92.3779 64.1941 92.0834 63.3916 92.2611 62.2952C92.3639 61.67 93.0834 60.9064 93.2611 60.2952C93.434 59.7027 94.0647 58.8784 94.2611 58.2952C94.392 57.8986 94.1208 57.6871 94.2611 57.2952C94.1676 57.3838 94.2891 57.2532 94.2611 57.2952Z"
        fill="#AB0048" />
    <path
        d="M17.261 81.2952C16.9622 81.1115 16.5552 80.4884 16.261 80.2952C14.7343 79.2966 12.7738 78.3127 11.261 77.2952C10.1591 76.5557 9.29754 76.1196 8.26103 75.2952C7.06577 74.3437 6.35823 73.3598 5.26103 72.2952C4.15448 71.2165 2.9567 69.6848 2.26103 68.2952C1.70542 67.2024 1.68123 66.4493 1.26103 65.2952C1.04158 64.6876 0.382419 63.9406 0.261026 63.2952C-0.0424572 61.7266 0.303047 59.878 0.261026 58.2952C0.256357 58.201 0.251688 58.3942 0.261026 58.2952C0.28904 58.2905 0.233012 58.3 0.261026 58.2952C0.28904 58.38 0.247019 58.2057 0.261026 58.2952C0.447785 59.3174 0.766115 60.3767 1.26103 61.2952C1.66256 62.0442 1.77545 62.6028 2.26103 63.2952C3.3629 64.878 4.95371 66.8915 6.26103 68.2952C7.34423 69.4634 8.2712 70.047 9.26103 71.2952C10.1902 72.4634 11.4066 74.0705 12.261 75.2952C12.4384 75.5449 13.0603 76.0597 13.261 76.2952C13.2844 76.2764 13.2377 76.3094 13.261 76.2952C13.0883 76.0079 12.4058 75.5967 12.261 75.2952C11.9575 74.6546 11.5225 73.9547 11.261 73.2952C10.7334 71.9386 11.2797 70.7414 11.261 69.2952C11.247 68.372 11.177 67.2185 11.261 66.2952C11.3077 65.763 11.177 64.8228 11.261 64.2952C11.3171 63.9467 11.2003 63.6438 11.261 63.2952C11.4851 62.0658 12.1163 61.5341 12.261 60.2952C12.3497 59.5651 12.2844 58.0442 12.261 57.2952C12.2564 57.2199 12.2657 57.3706 12.261 57.2952C12.2844 57.2811 12.2377 57.3141 12.261 57.2952C12.3497 57.413 12.2097 57.1633 12.261 57.2952C12.5038 57.9076 13.0649 58.664 13.261 59.2952C13.4291 59.8322 13.1443 60.7441 13.261 61.2952C13.4384 62.1431 14.1023 62.4426 14.261 63.2952C14.3264 63.6532 14.2237 63.9325 14.261 64.2952C14.3544 65.1384 14.1817 66.4521 14.261 67.2952C14.3451 68.1573 14.1817 69.4332 14.261 70.2952C14.3544 71.2703 15.1443 72.3249 15.261 73.2952C15.3497 74.0348 15.1396 74.5604 15.261 75.2952C15.3684 75.95 15.0929 76.6546 15.261 77.2952C15.4291 77.9217 16.0089 78.697 16.261 79.2952C16.5645 80.0159 16.9342 80.5887 17.261 81.2952C17.2423 81.201 17.303 81.38 17.261 81.2952C17.275 81.2717 17.2423 81.3329 17.261 81.2952Z"
        fill="#AB0048" />
    <path
        d="M33.261 91.2953C33.1927 91.2726 33.3293 91.3179 33.261 91.2953C32.9332 91.2048 32.5889 90.3902 32.261 90.2953C31.8239 90.1641 30.6845 90.4536 30.261 90.2953C29.3367 89.947 28.9941 89.9557 28.261 89.2953C27.364 88.4946 26.8621 87.3401 26.261 86.2953C25.8375 85.558 24.6572 85.0461 24.261 84.2953C23.5051 82.8614 23.1854 80.6387 22.261 79.2953C22.2109 79.2229 22.3384 79.4581 22.261 79.2953C22.4158 79.3405 22.2109 79.2591 22.261 79.2953C24.2691 80.7201 26.4851 82.5945 28.261 84.2953C29.5315 85.512 30.9678 86.1011 32.261 87.2953C33.2901 88.2451 33.9542 89.766 35.261 90.2953C36.1399 90.6481 37.3594 91.0058 38.261 91.2953C38.8393 91.4807 39.66 91.1596 40.261 91.2953C40.3567 91.3179 40.1654 91.2681 40.261 91.2953C40.2701 91.336 40.2565 91.2591 40.261 91.2953C40.0971 91.3631 40.4341 91.2681 40.261 91.2953C39.4459 91.431 38.0716 92.1369 37.261 92.2953C36.7009 92.4038 35.8166 92.1505 35.261 92.2953C34.7146 92.44 34.812 93.155 34.261 93.2953C33.6463 93.449 32.8712 93.146 32.261 93.2953C31.9696 93.3676 31.557 93.2365 31.261 93.2953C29.3349 93.6752 27.2282 94.3133 25.261 94.2953C24.4141 94.2862 24.0989 94.4355 23.261 94.2953C22.4323 94.1596 21.0625 93.5621 20.261 93.2953C19.4869 93.0374 19.0033 92.6481 18.261 92.2953C16.6855 91.5444 15.5087 90.4939 14.261 89.2953C13.1636 88.2413 11.9896 87.6387 11.261 86.2953C11.2519 86.2817 11.2519 85.3812 11.261 85.2953C11.384 85.3767 11.1836 86.2093 11.261 86.2953C12.067 87.1954 13.1909 87.7479 14.261 88.2953C14.8621 88.6028 15.6281 89.0646 16.261 89.2953C16.7801 89.4807 17.7283 89.1596 18.261 89.2953C18.6071 89.3857 18.9058 89.2455 19.261 89.2953C20.2173 89.4219 21.3002 90.2048 22.261 90.2953C23.7273 90.431 24.7902 90.1822 26.261 90.2953C26.9896 90.3541 27.5325 90.2093 28.261 90.2953C28.8803 90.3676 29.6463 90.1957 30.261 90.2953C31.1353 90.44 32.3867 91.1505 33.261 91.2953C33.1608 91.3043 33.3567 91.3088 33.261 91.2953C33.261 91.3179 33.2838 91.2681 33.261 91.2953Z"
        fill="#AB0048" />
    <path
        d="M93.2609 45.2952C93.2874 45.4342 93.2168 45.1608 93.2609 45.2952C93.4991 45.9487 93.9875 46.6602 94.2609 47.2952C95.068 49.1675 96.3436 50.4923 97.2609 52.2952C97.7637 53.287 97.8772 54.2478 98.2609 55.2952C98.6225 56.2731 99.23 57.2385 99.2609 58.2952C99.2874 59.1711 99.4329 60.4331 99.2609 61.2952C99.1815 61.6938 98.3447 61.9012 98.2609 62.2952C98.2212 62.4852 98.2962 63.1052 98.2609 63.2952C98.2918 63.3044 98.23 63.2859 98.2609 63.2952C98.3006 63.1979 99.2389 63.3971 99.2609 63.2952C99.4858 62.2431 99.0272 60.3472 99.2609 59.2952C99.4726 58.3544 99.9698 58.2128 100.261 57.2952C100.636 56.1273 100.82 54.4399 101.261 53.2952C101.605 52.3961 101.917 51.1943 102.261 50.2952C102.539 49.5629 103.049 49.0506 103.261 48.2952C103.455 47.5954 103.102 47.0043 103.261 46.2952C103.495 45.2709 104.292 44.3287 104.261 43.2952C104.252 43.0681 103.292 42.5176 103.261 42.2952C103.248 42.2071 103.261 42.3832 103.261 42.2952C103.283 42.2859 104.234 42.3044 104.261 42.2952C104.349 42.4342 104.212 42.1422 104.261 42.2952C104.468 42.9069 104.084 43.6741 104.261 44.2952C104.371 44.6752 105.177 44.9105 105.261 45.2952C105.636 47.0749 105.358 49.4877 105.261 51.2952C105.204 52.3797 105.437 53.22 105.261 54.2952C105.168 54.8606 104.406 55.7437 104.261 56.2952C104.142 56.7494 104.428 56.8549 104.261 57.2952C103.97 58.0553 103.6 58.5583 103.261 59.2952C103.058 59.7355 102.548 60.9059 102.261 61.2952C101.044 62.9775 99.4737 64.6128 98.2609 66.2952C97.7493 67.0043 97.7549 67.5675 97.2609 68.2952C97.2036 68.3786 97.3359 68.2257 97.2609 68.2952C97.2389 68.1839 97.2565 68.4064 97.2609 68.2952C97.305 67.3451 97.2785 66.2453 97.2609 65.2952C97.2433 64.3775 96.4241 63.1943 96.2609 62.2952C96.1198 61.5073 96.4814 61.0692 96.2609 60.2952C96.0669 59.6324 95.4505 58.9579 95.2609 58.2952C95.0492 57.549 95.4505 57.0506 95.2609 56.2952C95.0536 55.4749 94.4461 54.1248 94.2609 53.2952C94.1065 52.6 94.3844 51.995 94.2609 51.2952C94.1198 50.5166 93.3579 50.0831 93.2609 49.2952C93.1154 48.1226 93.1815 46.4816 93.2609 45.2952C93.2433 45.4481 93.2697 45.1469 93.2609 45.2952C93.2168 45.2952 93.3094 45.2859 93.2609 45.2952Z"
        fill="#AB0048" />
    <path
        d="M1.2611 43.295C1.27891 43.546 1.29672 44.1324 1.2611 44.295C1.00291 45.4382 1.07413 46.1705 1.2611 47.295C1.41691 48.243 1.96284 49.3796 2.2611 50.295C2.5282 51.1083 2.93168 51.505 3.2611 52.295C3.56381 53.02 3.96729 53.5655 4.2611 54.295C4.59498 55.1361 4.96284 56.4446 5.2611 57.295C5.41246 57.7226 5.14981 57.8536 5.2611 58.295C5.41691 58.9084 6.1231 59.6816 6.2611 60.295C6.47923 61.2616 7.04742 62.3331 7.2611 63.295C7.29226 63.4344 7.22104 63.1556 7.2611 63.295C7.28781 63.2904 7.23439 63.3043 7.2611 63.295C7.2433 63.1649 7.29672 63.4159 7.2611 63.295C6.856 61.8498 6.02071 60.7635 6.2611 59.295C6.40801 58.3889 7.00291 57.1687 7.2611 56.295C7.48814 55.5236 7.90942 55.0153 8.2611 54.295C8.77304 53.2355 9.7002 52.322 10.2611 51.295C10.6172 50.6398 10.9183 49.9549 11.2611 49.295C11.5104 48.8024 11.083 47.8248 11.2611 47.295C11.408 46.8675 12.1365 46.7318 12.2611 46.295C12.2834 46.2114 12.1988 46.3694 12.2611 46.295C12.2923 46.3043 12.2299 46.2811 12.2611 46.295C12.2745 46.4856 12.2433 46.1045 12.2611 46.295C12.3679 47.5451 12.4303 49.0636 12.2611 50.295C12.1231 51.2802 11.3991 52.3099 11.2611 53.295C11.2077 53.6761 11.3457 53.9186 11.2611 54.295C11.1187 54.9224 11.4125 55.6677 11.2611 56.295C11.1231 56.8527 10.408 56.742 10.2611 57.295C10.1187 57.8294 10.4125 58.7653 10.2611 59.295C10.1231 59.7876 9.3991 60.7978 9.2611 61.295C9.11865 61.8108 9.3902 61.7746 9.2611 62.295C9.09194 62.9735 9.35904 63.6026 9.2611 64.295C9.17207 64.9224 8.2433 65.663 8.2611 66.295C8.28781 67.1687 9.20323 68.4214 9.2611 69.295C9.27001 69.4019 9.28781 69.1881 9.2611 69.295C9.16317 69.23 8.31897 69.388 8.2611 69.295C7.9762 68.8489 7.56827 67.7226 7.2611 67.295C6.59336 66.361 5.9422 66.2151 5.2611 65.295C4.27729 63.966 3.18704 62.6659 2.2611 61.295C1.76697 60.5655 1.49704 59.1733 1.2611 58.295C1.02517 57.426 1.44807 57.1733 1.2611 56.295C1.05633 55.3377 0.430265 54.257 0.261103 53.295C-0.00599605 51.8126 0.234393 49.7821 0.261103 48.295C0.274457 47.5655 0.11865 47.0246 0.261103 46.295C0.323426 45.9744 1.17207 45.611 1.2611 45.295C1.44362 44.6305 1.06523 43.9596 1.2611 43.295C1.15871 43.3973 1.25665 43.2671 1.2611 43.295Z"
        fill="#AB0048" />
    <path
        d="M99.261 47.2951C99.2114 46.7036 99.3152 46.8866 99.261 46.2951C99.243 46.0964 99.2655 45.4938 99.261 45.2951C99.2068 42.9382 99.0488 40.652 99.261 38.2951C99.3649 37.1305 100.18 36.4597 100.261 35.2951C100.302 34.7267 100.302 33.8681 100.261 33.2951C100.198 32.3385 99.55 31.224 99.261 30.2951C99.0533 29.6389 98.6448 28.8589 98.261 28.2951C98.243 28.2674 98.2204 28.3968 98.261 28.2951C98.401 28.3875 99.1617 28.1657 99.261 28.2951C99.699 28.8589 99.8682 29.7036 100.261 30.2951C100.667 30.9051 100.918 31.6435 101.261 32.2951C101.564 32.8728 102.04 33.6804 102.261 34.2951C102.514 35.0022 103.067 35.5649 103.261 36.2951C103.369 36.7018 103.22 36.8745 103.261 37.2951C103.36 38.3257 103.252 39.2599 103.261 40.2951C103.27 41.2286 103.374 42.3662 103.261 43.2951C103.18 43.9513 102.419 44.6573 102.261 45.2951C102.166 45.6833 102.401 45.9161 102.261 46.2951C102.058 46.845 101.46 47.7451 101.261 48.2951C101.108 48.7203 101.387 48.8607 101.261 49.2951C101.044 50.0438 100.442 50.5372 100.261 51.2951C100.062 52.1408 100.437 53.4448 100.261 54.2951C100.252 54.3413 100.306 54.2212 100.261 54.2951C100.207 54.2258 100.275 54.3506 100.261 54.2951C100.013 53.4355 99.559 52.1316 99.261 51.2951C99.0217 50.625 98.6042 49.919 98.261 49.2951C97.2632 47.4835 95.4394 45.9819 94.261 44.2951C93.4799 43.1813 92.9608 42.4643 92.261 41.2951C91.7644 40.4586 91.5229 39.2563 91.261 38.2951C91.1481 37.8792 91.3965 37.7064 91.261 37.2951C91.1797 37.0502 90.3242 36.5447 90.261 36.2951C90.1391 35.8098 90.3784 35.7803 90.261 35.2951C90.243 35.2304 90.2475 34.3552 90.261 34.2951C90.2746 34.2396 90.2249 34.3506 90.261 34.2951C90.3016 34.3321 90.2384 34.2489 90.261 34.2951C90.708 35.1269 91.6018 36.6389 92.261 37.2951C93.0692 38.0992 93.4438 38.4956 94.261 39.2951C95.173 40.1916 96.4303 41.32 97.261 42.2951C97.7757 42.8959 97.9224 43.5742 98.261 44.2951C98.7531 45.3349 99.1301 46.1397 99.261 47.2951C99.2339 47.1657 99.2746 47.4245 99.261 47.2951C99.2249 47.3043 99.3062 47.2905 99.261 47.2951Z"
        fill="#AB0048" />
    <path
        d="M6.26113 55.2951C6.24276 55.2116 5.27031 55.3786 5.26113 55.2951C5.19224 54.7756 5.34379 53.8145 5.26113 53.2951C5.21979 53.0261 5.34838 52.5548 5.26113 52.2951C4.99936 51.4974 4.53666 51.0882 4.26113 50.2951C4.01314 49.5762 3.52289 49.0093 3.26113 48.2951C3.06366 47.7385 3.42186 46.8609 3.26113 46.2951C3.02232 45.451 2.45859 45.1531 2.26113 44.2951C1.9167 42.7924 2.21061 40.8117 2.26113 39.2951C2.28409 38.5901 2.12795 37.9954 2.26113 37.2951C2.35297 36.8035 3.09121 35.7681 3.26113 35.2951C3.50452 34.6087 3.97181 33.9583 4.26113 33.2951C4.92701 31.7738 5.29674 30.6308 6.26113 29.2951C6.34379 29.1791 7.13254 29.3786 7.26113 29.2951C7.22439 29.4342 6.32542 29.1745 6.26113 29.2951C5.7973 30.1392 5.44482 31.3397 5.26113 32.2951C5.00855 33.6401 5.21979 34.9501 5.26113 36.2951C5.28409 36.9861 6.16928 37.604 6.26113 38.2951C6.33001 38.8377 6.20143 39.7524 6.26113 40.2951C6.47237 42.2662 6.49533 44.3147 6.26113 46.2951C6.14173 47.2783 6.33919 48.3026 6.26113 49.2951C6.25653 49.3646 6.25194 49.2255 6.26113 49.2951C6.28868 49.2997 6.23357 49.2904 6.26113 49.2951C6.32542 48.9843 6.2152 48.6058 6.26113 48.2951C6.41267 47.2701 6.83863 46.2458 7.26113 45.2951C7.9316 43.7692 9.11305 42.4685 10.2611 41.2951C11.4459 40.0892 12.0809 39.5009 13.2611 38.2951C13.7938 37.7524 14.8065 36.9119 15.2611 36.2951C15.3759 36.142 15.1693 35.462 15.2611 35.2951C15.2933 35.2997 15.229 35.2951 15.2611 35.2951C15.2611 35.4481 15.2887 36.1513 15.2611 36.2951C15.1739 36.7496 15.3759 36.8452 15.2611 37.2951C15.1096 37.8794 14.454 38.7246 14.2611 39.2951C14.0315 39.9954 13.5596 40.6226 13.2611 41.2951C12.9948 41.898 12.6239 42.7432 12.2611 43.2951C11.113 45.0343 10.4322 46.5744 9.26113 48.2951C8.45288 49.487 7.85353 49.9733 7.26113 51.2951C6.92589 52.0464 6.51829 53.5113 6.26113 54.2951C6.17387 54.5641 6.33919 55.0214 6.26113 55.2951C6.33001 55.1884 6.22439 55.4157 6.26113 55.2951C6.29327 55.3043 6.22439 55.2951 6.26113 55.2951Z"
        fill="#AB0048" />
    <path
        d="M90.2611 21.2952C90.4548 21.3462 91.0674 21.2349 91.2611 21.2952C92.6632 21.7498 93.2003 22.2792 94.2611 23.2952C95.2251 24.2138 96.6431 26.1307 97.2611 27.2952C97.5932 27.9261 97.0443 28.6039 97.2611 29.2952C97.8192 31.1184 98.3441 32.407 98.2611 34.2952C98.1873 36.0071 98.275 37.5833 98.2611 39.2952C98.2565 39.6988 98.2058 40.8916 98.2611 41.2952C98.275 41.3926 98.275 41.1978 98.2611 41.2952C98.2519 41.3601 98.298 41.2349 98.2611 41.2952C98.2058 41.2488 98.2934 41.3555 98.2611 41.2952C97.6385 40.1168 96.1974 39.2277 95.2611 38.2952C93.8959 36.9359 92.7324 35.5246 91.2611 34.2952C90.334 33.5204 89.1282 33.1302 88.2611 32.2952C87.4724 31.5343 86.6993 30.3065 86.2611 29.2952C85.8829 28.4183 85.5932 27.1952 85.2611 26.2952C85.155 26.0075 85.3303 25.5921 85.2611 25.2952C85.215 25.0957 85.298 25.4993 85.2611 25.2952C85.2427 25.1885 85.2611 24.4019 85.2611 24.2952C85.2934 24.2905 85.2334 24.2998 85.2611 24.2952C85.3949 24.5364 86.1227 25.0539 86.2611 25.2952C87.0406 26.6313 88.0435 27.3812 89.2611 28.2952C90.7924 29.4411 91.8867 30.9544 93.2611 32.2952C94.2159 33.223 95.7076 34.0333 96.2611 35.2952C96.3257 35.4436 96.1827 35.1514 96.2611 35.2952C96.2842 35.2859 96.2334 35.2998 96.2611 35.2952C96.1827 35.0771 96.3303 35.5132 96.2611 35.2952C95.9705 34.372 95.5471 33.2184 95.2611 32.2952C95.0997 31.7756 94.3995 30.8194 94.2611 30.2952C94.1043 29.7106 94.4087 29.8797 94.2611 29.2952C94.1181 28.7292 94.4133 27.8612 94.2611 27.2952C94.132 26.8081 93.4272 26.7684 93.2611 26.2952C93.0489 25.7106 92.5747 24.8241 92.2611 24.2952C91.906 23.6967 91.7131 22.8333 91.2611 22.2952C91.0167 22.0029 90.5471 21.555 90.2611 21.2952C90.3487 21.3926 90.1643 21.2117 90.2611 21.2952C90.2427 21.3137 90.2842 21.2673 90.2611 21.2952Z"
        fill="#AB0048" />
    <path
        d="M9.26105 37.2952C9.41211 37.0126 9.10055 36.5732 9.26105 36.2952C10.2052 34.6737 11.7316 33.4071 13.261 32.2952C14.2854 31.5447 15.2414 30.0503 16.261 29.2952C17.4506 28.4149 18.4963 27.5739 19.261 26.2952C19.4452 25.9894 20.0958 25.6102 20.261 25.2952C20.2847 25.2489 20.1383 25.3276 20.261 25.2952C20.2705 25.4295 20.2799 26.1608 20.261 26.2952C20.1525 27.2032 19.5773 27.4335 19.261 28.2952C18.4869 30.4124 17.8802 32.7524 16.261 34.2952C15.3311 35.1847 14.2996 35.5308 13.261 36.2952C11.6985 37.4441 10.4365 38.7617 9.26105 40.2952C8.88812 40.7816 7.60093 41.7856 7.26105 42.2952C7.18552 42.4064 7.3413 42.184 7.26105 42.2952C7.21856 42.272 7.29881 42.323 7.26105 42.2952C7.25161 42.2072 7.25633 42.3832 7.26105 42.2952C7.30354 41.1833 7.27521 39.4071 7.26105 38.2952C7.24689 37.1833 7.30826 36.4071 7.26105 35.2952C7.22328 34.452 7.22328 33.1384 7.26105 32.2952C7.29881 31.5354 7.13359 31.0503 7.26105 30.2952C7.35074 29.7624 8.0675 29.8048 8.26105 29.2952C8.49708 28.6698 8.94477 27.8836 9.26105 27.2952C9.4546 26.9292 8.99669 26.6195 9.26105 26.2952C9.97859 25.4103 11.3122 23.9531 12.261 23.2952C12.9219 22.8412 13.4774 22.5315 14.261 22.2952C14.4829 22.2303 14.0439 22.3739 14.261 22.2952C14.3224 22.272 15.195 22.3045 15.261 22.2952C15.2752 22.323 15.2469 22.2628 15.261 22.2952C15.025 22.4944 14.4829 23.0821 14.261 23.2952C13.586 23.9438 12.6387 24.4381 12.261 25.2952C11.9684 25.9623 12.4924 26.6049 12.261 27.2952C12.0675 27.8836 11.3979 28.6883 11.261 29.2952C11.1053 29.9623 11.4216 30.6327 11.261 31.2952C11.1242 31.8697 10.4168 31.7253 10.261 32.2952C10.1289 32.7909 10.4263 33.8087 10.261 34.2952C9.99669 35.0735 9.53485 35.5169 9.26105 36.2952C9.22328 36.3971 9.27521 37.1886 9.26105 37.2952C9.23273 37.2906 9.28465 37.3045 9.26105 37.2952Z"
        fill="#AB0048" />
    <path
        d="M80.261 16.2951C80.383 16.2951 80.2158 16.272 80.261 16.2951C80.9481 16.5728 81.583 16.999 82.261 17.2951C83.269 17.7347 84.2575 17.8509 85.261 18.2951C86.165 18.6931 87.5106 19.6519 88.261 20.2951C89.0837 20.9985 89.6372 21.4067 90.261 22.2951C90.9707 23.3039 91.8225 24.1476 92.261 25.2951C92.5638 26.0818 92.0033 27.49 92.261 28.2951C92.4599 28.9013 93.0576 29.689 93.261 30.2951C93.2926 30.3877 93.2474 30.1933 93.261 30.2951C93.1751 30.2628 93.3288 30.346 93.261 30.2951C91.8914 29.2633 90.4814 28.5121 89.261 27.2951C88.0315 26.0689 86.2961 24.6972 85.261 23.2951C84.4835 22.2355 84.0475 20.3455 83.261 19.2951C82.8723 18.7723 82.7175 18.7718 82.261 18.2951C81.7321 17.7399 80.7898 16.8458 80.261 16.2951C80.3469 16.4386 80.1887 16.2211 80.261 16.2951Z"
        fill="#AB0048" />
    <path
        d="M12.261 31.2952C12.4274 30.8278 13.1038 30.7672 13.261 30.2952C13.4321 29.7865 13.0992 28.8085 13.261 28.2952C13.4136 27.8003 13.0946 27.7855 13.261 27.2952C13.4274 26.8049 14.0206 25.7443 14.261 25.2952C14.6077 24.6399 14.8588 23.9139 15.261 23.2952C16.2596 21.7646 17.6661 21.1751 19.261 20.2952C20.2827 19.7315 21.2023 18.781 22.261 18.2952C22.9175 17.9973 23.5814 17.5518 24.261 17.2952C24.4829 17.2081 25.0391 17.3914 25.261 17.2952C25.2841 17.3181 25.2379 17.2769 25.261 17.2952C25.2009 17.3914 25.3442 17.2265 25.261 17.2952C24.2994 18.0972 23.0099 19.3099 22.261 20.2952C21.1052 21.8121 20.389 23.76 19.261 25.2952C18.207 26.7341 16.6202 27.1495 15.261 28.2952C14.3133 29.0926 13.2087 30.4932 12.261 31.2952C12.3488 31.2448 12.1824 31.3594 12.261 31.2952C12.2795 31.3135 12.2425 31.2769 12.261 31.2952Z"
        fill="#AB0048" />
    <path d="M27.261 43.2952V47.2952H26.261V43.2952H27.261Z" fill="#AB0048" />
    <path d="M26.261 44.2952V48.2952H25.261V44.2952H26.261Z" fill="#AB0048" />
    <path d="M25.261 44.2952V48.2952H24.261V44.2952H25.261Z" fill="#AB0048" />
    <path d="M53.261 41.2952H54.261V46.2952H53.261V41.2952Z" fill="#AB0048" />
    <path
        d="M55.261 12.2952V11.2952H54.261L50.261 6.29517V5.29517H49.261L47.261 4.29517C47.261 4.29517 48.0947 3.93694 47.261 3.29517C47.261 3.29517 47.0572 2.33264 46.261 2.29517V0.295166V2.29517C46.261 2.29517 45.2563 2.51754 45.261 3.29517C45.261 3.29517 44.3711 3.42385 45.261 4.29517H44.261L43.261 6.29517H42.261V7.29517L39.261 13.2952H38.261V14.2952L35.261 16.2952V17.2952H38.261L44.261 14.2952L56.261 15.2952L59.261 13.2952L55.261 12.2952ZM42.261 12.2952L38.261 15.2952H37.261L43.261 11.2952L55.261 12.2952L56.261 13.2952L42.261 12.2952Z"
        fill="#AB0048" />
    <path
        d="M79.261 25.2952V23.2952H78.261V21.2952H77.261H76.261H75.261V20.2952L74.261 18.2952L73.261 19.2952L72.261 18.2952H70.261L71.261 17.2952H70.261L69.261 15.2952C69.261 15.2952 68.4158 15.2952 68.261 15.2952L66.261 17.2952V18.2952V19.2952C64.9899 19.6821 65.261 20.2952 65.261 20.2952H64.261H63.261V22.2952H62.261L61.261 23.2952H60.261V25.2952V27.2952L58.261 28.2952L60.261 29.2952L67.261 26.2952L79.261 27.2952L82.261 25.2952H79.261ZM66.261 25.2952L60.261 27.2952L61.261 26.2952L66.261 24.2952H78.261V25.2952H66.261Z"
        fill="#AB0048" />
    <path
        d="M56.261 15.2952L44.261 14.2952V24.2952L56.261 25.2952V15.2952ZM50.261 22.2952C48.5057 22.3 47.261 21.1018 47.261 19.2952C47.2563 17.4837 48.5104 16.2952 50.261 16.2952C52.0163 16.2903 53.261 17.4885 53.261 19.2952C53.2657 21.1066 52.0116 22.2903 50.261 22.2952Z"
        fill="#AB0048" />
    <path
        d="M50.261 20.2952C50.8118 20.2952 51.261 19.846 51.261 19.2952C51.261 18.7443 50.8118 18.2952 50.261 18.2952C49.7101 18.2952 49.261 18.7443 49.261 19.2952C49.261 19.846 49.7101 20.2952 50.261 20.2952Z"
        fill="#AB0048" />
    <path
        d="M42.261 17.2952C41.1944 17.1348 39.5464 18.3696 39.261 20.2952C38.9706 22.2209 39.1944 24.1398 40.261 24.2952C41.3226 24.4557 42.9706 23.2209 43.261 21.2952C43.5464 19.3746 43.3276 17.4607 42.261 17.2952ZM42.261 21.2952C42.1408 22.0775 41.6866 22.3554 41.261 22.2952C40.8304 22.23 40.1408 21.0725 40.261 20.2952C40.3762 19.5179 40.8354 19.2351 41.261 19.2952C41.6866 19.3604 42.3762 20.5179 42.261 21.2952Z"
        fill="#AB0048" />
    <path
        d="M78.261 34.2952V26.2952H67.261V34.2952H64.261V37.2952H67.261V52.2952H82.261V37.2952H84.261V34.2952H78.261ZM71.261 34.2952H69.261V28.2952L71.261 27.2952V34.2952ZM74.261 34.2952H72.261V27.2952H74.261V34.2952ZM77.261 34.2952H76.261V28.2952H77.261V34.2952Z"
        fill="#AB0048" />
    <path d="M66.261 28.2952V33.2952L64.261 34.2952V29.2952L66.261 28.2952Z" fill="#AB0048" />
    <path d="M63.261 28.2952V33.2952L62.261 34.2952V29.2952L63.261 28.2952Z" fill="#AB0048" />
    <path d="M62.261 29.2952V34.2952H61.261V29.2952H62.261Z" fill="#AB0048" />
    <path
        d="M56.261 28.2952H44.261L38.261 30.2952H35.261L43.261 26.2952C43.261 26.2952 58.1855 27.2952 58.261 27.2952C58.3365 27.2952 56.261 28.2952 56.261 28.2952Z"
        fill="#AB0048" />
    <path
        d="M56.261 36.2952V39.2952H59.261V45.2952L51.261 48.2952V52.2952H47.261V38.2952L46.261 37.2952V34.2952H44.261V28.2952L56.261 29.2952V34.2952H60.261V35.2952L56.261 36.2952Z"
        fill="#AB0048" />
    <path
        d="M36.261 42.2952H27.261L24.261 43.2952L22.261 42.2952H24.261V40.2952V39.2952H25.261V38.2952H26.261V36.2952V37.2952L27.261 36.2952C27.261 36.084 28.126 36.4313 28.261 36.2952C28.3959 36.1544 28.0585 36.2952 28.261 36.2952V35.2952V34.2952H29.261V33.2952H30.261V34.2952H31.261V35.2952V36.2952C31.261 36.2952 32.2295 35.5068 32.261 36.2952H33.261V37.2952C33.261 37.2952 34.2835 37.4552 34.261 38.2952H35.261L34.261 39.2952V40.2952H27.261L25.261 41.2952H24.261L27.261 40.2952L34.261 41.2952V42.2952H36.261Z"
        fill="#AB0048" />
    <path
        d="M28.261 42.2952V52.2952H36.261V42.2952H28.261ZM30.261 47.2952H29.261V43.2952H30.261V47.2952ZM33.261 47.2952H32.261V44.2952H33.261V47.2952ZM35.261 47.2952H34.261V44.2952H35.261V47.2952Z"
        fill="#AB0048" />
    <path d="M47.261 56.2952V58.2952H42.261V68.2952H41.261V58.2952H36.261V56.2952H47.261Z" fill="#AB0048" />
    <path d="M30.261 56.2952H28.261V68.2952H30.261V56.2952Z" fill="#AB0048" />
    <path d="M34.261 56.2952H32.261V68.2952H34.261V56.2952Z" fill="#AB0048" />
    <path
        d="M59.261 64.2952C59.1016 62.3595 57.261 62.2952 57.261 62.2952C58.1471 61.7326 59.261 60.4346 59.261 59.2952C59.261 58.4465 58.8048 57.8482 58.261 57.2952C57.7171 56.7421 57.0955 56.2952 56.261 56.2952H51.261V68.2952H55.261C55.261 68.2952 58.5155 68.288 59.261 66.2952C59.2704 66.2713 59.2516 66.319 59.261 66.2952C59.4157 65.8804 59.3172 64.9483 59.261 64.2952ZM52.261 57.2952H55.261C56.2831 57.2952 57.261 58.2558 57.261 59.2952C57.261 60.4871 56.4331 61.2952 55.261 61.2952H52.261V57.2952ZM58.261 65.2952C58.1766 66.0246 56.7955 67.0806 56.261 67.2952C55.7265 67.5145 55.261 67.2952 55.261 67.2952H52.261V62.2952H55.261C57.3005 62.4763 58.261 64.2952 58.261 64.2952C58.261 64.2952 58.4298 63.8315 58.261 65.2952Z"
        fill="#AB0048" />
    <path d="M56.261 66.2952C55.7521 66.505 55.261 66.2952 55.261 66.2952H56.261Z" fill="#AB0048" />
    <path d="M69.261 56.2952V68.2952H68.261V62.2952H62.261V68.2952H61.261V56.2952H62.261V61.2952H68.261V56.2952H69.261Z"
        fill="#AB0048" />
    <path
        d="M79.261 56.2952V65.2952C79.261 67.0309 77.994 68.2952 76.261 68.2952H74.261C72.3781 68.2952 71.261 67.181 71.261 65.2952V56.2952H72.261V64.2952C72.261 65.6228 73.9355 67.2952 75.261 67.2952C76.5256 67.2952 78.261 65.5665 78.261 64.2952V56.2952H79.261Z"
        fill="#AB0048" />
    <path
        d="M58.261 69.2952V78.2952C58.261 80.0309 56.994 81.2952 55.261 81.2952H53.261C51.3781 81.2952 50.261 80.181 50.261 78.2952V69.2952H51.261V77.2952C51.261 78.6228 52.9355 80.2952 54.261 80.2952C55.5256 80.2952 57.261 78.5665 57.261 77.2952V69.2952H58.261Z"
        fill="#AB0048" />
    <path
        d="M47.261 69.2952V80.2952H46.261V71.2952L42.261 80.2952H41.261L37.261 71.2952V80.2952H36.261V69.2952H38.261L42.261 78.2952L45.261 69.2952H47.261Z"
        fill="#AB0048" />
    <path d="M70.261 69.2952V81.2952H69.261L63.261 71.2952V81.2952H62.261V69.2952H63.261L69.261 79.2952V69.2952H70.261Z"
        fill="#AB0048" />
</svg>