<svg width="690" height="284" viewBox="0 0 690 284" fill="none" xmlns="http://www.w3.org/2000/svg">
<path d="M384.204 38.6364V75H376.516V38.6364H384.204ZM398.218 38.6364V75H390.53V38.6364H398.218ZM403.158 44.9751V38.6364H433.023V44.9751H421.891V75H414.291V44.9751H403.158ZM437.942 75V38.6364H452.501C455.177 38.6364 457.408 39.0329 459.195 39.826C460.983 40.6191 462.326 41.7199 463.226 43.1286C464.125 44.5253 464.575 46.1352 464.575 47.9581C464.575 49.3786 464.291 50.6274 463.723 51.7045C463.155 52.7699 462.374 53.6458 461.379 54.3324C460.397 55.0071 459.272 55.4865 458.006 55.7706V56.1257C459.391 56.1849 460.687 56.5755 461.894 57.2976C463.113 58.0196 464.102 59.0317 464.859 60.3338C465.617 61.6241 465.996 63.1629 465.996 64.9503C465.996 66.8797 465.516 68.602 464.558 70.1172C463.611 71.6205 462.208 72.8101 460.349 73.6861C458.491 74.562 456.201 75 453.478 75H437.942ZM445.63 68.7145H451.898C454.04 68.7145 455.603 68.3061 456.585 67.4893C457.568 66.6607 458.059 65.5599 458.059 64.1868C458.059 63.1806 457.816 62.2929 457.331 61.5234C456.846 60.754 456.153 60.1503 455.254 59.7124C454.366 59.2744 453.306 59.0554 452.075 59.0554H445.63V68.7145ZM445.63 53.853H451.33C452.383 53.853 453.318 53.6695 454.135 53.3026C454.964 52.9238 455.615 52.3911 456.088 51.7045C456.573 51.018 456.816 50.1953 456.816 49.2365C456.816 47.9226 456.348 46.8632 455.413 46.0582C454.49 45.2533 453.176 44.8509 451.472 44.8509H445.63V53.853ZM470.998 75V38.6364H478.687V53.6399H494.294V38.6364H501.964V75H494.294V59.9787H478.687V75H470.998ZM530.764 38.6364H538.452V62.2514C538.452 64.9029 537.819 67.223 536.552 69.2116C535.298 71.2003 533.54 72.7509 531.279 73.8636C529.018 74.9645 526.384 75.5149 523.378 75.5149C520.359 75.5149 517.72 74.9645 515.459 73.8636C513.198 72.7509 511.44 71.2003 510.185 69.2116C508.93 67.223 508.303 64.9029 508.303 62.2514V38.6364H515.991V61.5945C515.991 62.9794 516.293 64.2105 516.897 65.2876C517.512 66.3648 518.376 67.2112 519.489 67.8267C520.602 68.4422 521.898 68.75 523.378 68.75C524.869 68.75 526.165 68.4422 527.266 67.8267C528.379 67.2112 529.237 66.3648 529.841 65.2876C530.456 64.2105 530.764 62.9794 530.764 61.5945V38.6364ZM556.35 38.6364H565.831L575.846 63.0682H576.272L586.286 38.6364H595.768V75H588.31V51.3317H588.008L578.598 74.8224H573.52L564.109 51.2429H563.807V75H556.35V38.6364ZM624.563 38.6364H632.251V62.2514C632.251 64.9029 631.618 67.223 630.351 69.2116C629.096 71.2003 627.339 72.7509 625.078 73.8636C622.817 74.9645 620.183 75.5149 617.176 75.5149C614.158 75.5149 611.518 74.9645 609.257 73.8636C606.997 72.7509 605.239 71.2003 603.984 69.2116C602.729 67.223 602.102 64.9029 602.102 62.2514V38.6364H609.79V61.5945C609.79 62.9794 610.092 64.2105 610.696 65.2876C611.311 66.3648 612.175 67.2112 613.288 67.8267C614.401 68.4422 615.697 68.75 617.176 68.75C618.668 68.75 619.964 68.4422 621.065 67.8267C622.178 67.2112 623.036 66.3648 623.64 65.2876C624.255 64.2105 624.563 62.9794 624.563 61.5945V38.6364ZM668.992 38.6364V75H662.351L646.531 52.1129H646.265V75H638.577V38.6364H645.324L661.02 61.5057H661.339V38.6364H668.992Z" fill="#F1F1F1"/>
<path d="M362.901 199V184.818L396.037 154.136C398.855 151.409 401.219 148.955 403.128 146.773C405.068 144.591 406.537 142.455 407.537 140.364C408.537 138.242 409.037 135.955 409.037 133.5C409.037 130.773 408.416 128.424 407.174 126.455C405.931 124.455 404.234 122.924 402.083 121.864C399.931 120.773 397.492 120.227 394.765 120.227C391.916 120.227 389.431 120.803 387.31 121.955C385.189 123.106 383.552 124.758 382.401 126.909C381.249 129.061 380.674 131.621 380.674 134.591H361.992C361.992 128.5 363.371 123.212 366.128 118.727C368.886 114.242 372.749 110.773 377.719 108.318C382.689 105.864 388.416 104.636 394.901 104.636C401.568 104.636 407.371 105.818 412.31 108.182C417.28 110.515 421.143 113.758 423.901 117.909C426.659 122.061 428.037 126.818 428.037 132.182C428.037 135.697 427.34 139.167 425.946 142.591C424.583 146.015 422.143 149.818 418.628 154C415.113 158.152 410.158 163.136 403.765 168.955L390.174 182.273V182.909H429.265V199H362.901ZM480.026 201.045C472.208 201.015 465.48 199.091 459.844 195.273C454.238 191.455 449.92 185.924 446.89 178.682C443.89 171.439 442.405 162.727 442.435 152.545C442.435 142.394 443.935 133.742 446.935 126.591C449.965 119.439 454.283 114 459.89 110.273C465.526 106.515 472.238 104.636 480.026 104.636C487.814 104.636 494.511 106.515 500.117 110.273C505.753 114.03 510.087 119.485 513.117 126.636C516.147 133.758 517.647 142.394 517.617 152.545C517.617 162.758 516.102 171.485 513.071 178.727C510.071 185.97 505.768 191.5 500.162 195.318C494.556 199.136 487.844 201.045 480.026 201.045ZM480.026 184.727C485.359 184.727 489.617 182.045 492.799 176.682C495.98 171.318 497.556 163.273 497.526 152.545C497.526 145.485 496.799 139.606 495.344 134.909C493.92 130.212 491.89 126.682 489.253 124.318C486.647 121.955 483.571 120.773 480.026 120.773C474.723 120.773 470.48 123.424 467.299 128.727C464.117 134.03 462.511 141.97 462.48 152.545C462.48 159.697 463.193 165.667 464.617 170.455C466.071 175.212 468.117 178.788 470.753 181.182C473.39 183.545 476.48 184.727 480.026 184.727ZM531.651 199V184.818L564.787 154.136C567.605 151.409 569.969 148.955 571.878 146.773C573.818 144.591 575.287 142.455 576.287 140.364C577.287 138.242 577.787 135.955 577.787 133.5C577.787 130.773 577.166 128.424 575.924 126.455C574.681 124.455 572.984 122.924 570.833 121.864C568.681 120.773 566.242 120.227 563.515 120.227C560.666 120.227 558.181 120.803 556.06 121.955C553.939 123.106 552.302 124.758 551.151 126.909C549.999 129.061 549.424 131.621 549.424 134.591H530.742C530.742 128.5 532.121 123.212 534.878 118.727C537.636 114.242 541.499 110.773 546.469 108.318C551.439 105.864 557.166 104.636 563.651 104.636C570.318 104.636 576.121 105.818 581.06 108.182C586.03 110.515 589.893 113.758 592.651 117.909C595.409 122.061 596.787 126.818 596.787 132.182C596.787 135.697 596.09 139.167 594.696 142.591C593.333 146.015 590.893 149.818 587.378 154C583.863 158.152 578.908 163.136 572.515 168.955L558.924 182.273V182.909H598.015V199H531.651ZM646.685 200.273C639.897 200.273 633.852 199.106 628.549 196.773C623.276 194.409 619.109 191.167 616.049 187.045C613.018 182.894 611.458 178.106 611.367 172.682H631.185C631.306 174.955 632.049 176.955 633.412 178.682C634.806 180.379 636.655 181.697 638.958 182.636C641.261 183.576 643.852 184.045 646.73 184.045C649.73 184.045 652.382 183.515 654.685 182.455C656.988 181.394 658.791 179.924 660.094 178.045C661.397 176.167 662.049 174 662.049 171.545C662.049 169.061 661.352 166.864 659.958 164.955C658.594 163.015 656.624 161.5 654.049 160.409C651.503 159.318 648.473 158.773 644.958 158.773H636.276V144.318H644.958C647.927 144.318 650.549 143.803 652.821 142.773C655.124 141.742 656.912 140.318 658.185 138.5C659.458 136.652 660.094 134.5 660.094 132.045C660.094 129.712 659.534 127.667 658.412 125.909C657.321 124.121 655.776 122.727 653.776 121.727C651.806 120.727 649.503 120.227 646.867 120.227C644.2 120.227 641.761 120.712 639.549 121.682C637.337 122.621 635.564 123.97 634.23 125.727C632.897 127.485 632.185 129.545 632.094 131.909H613.23C613.321 126.545 614.852 121.818 617.821 117.727C620.791 113.636 624.791 110.439 629.821 108.136C634.882 105.803 640.594 104.636 646.958 104.636C653.382 104.636 659.003 105.803 663.821 108.136C668.64 110.47 672.382 113.621 675.049 117.591C677.746 121.53 679.079 125.955 679.049 130.864C679.079 136.076 677.458 140.424 674.185 143.909C670.943 147.394 666.715 149.606 661.503 150.545V151.273C668.352 152.152 673.564 154.53 677.14 158.409C680.746 162.258 682.534 167.076 682.503 172.864C682.534 178.167 681.003 182.879 677.912 187C674.852 191.121 670.624 194.364 665.23 196.727C659.837 199.091 653.655 200.273 646.685 200.273Z" fill="#F1F1F1"/>
<path d="M371.507 251V229.182H379.689C381.365 229.182 382.772 229.473 383.908 230.055C385.051 230.638 385.914 231.455 386.497 232.506C387.086 233.55 387.381 234.768 387.381 236.16C387.381 237.559 387.083 238.773 386.486 239.803C385.897 240.826 385.027 241.618 383.876 242.179C382.725 242.733 381.312 243.01 379.636 243.01H373.809V239.729H379.103C380.083 239.729 380.886 239.594 381.511 239.324C382.136 239.047 382.598 238.646 382.896 238.12C383.201 237.587 383.354 236.934 383.354 236.16C383.354 235.386 383.201 234.725 382.896 234.178C382.591 233.624 382.125 233.205 381.5 232.921C380.875 232.63 380.069 232.484 379.082 232.484H375.46V251H371.507ZM382.779 241.114L388.18 251H383.77L378.464 241.114H382.779ZM390.849 251V234.636H394.705V251H390.849ZM392.788 232.314C392.177 232.314 391.651 232.112 391.211 231.707C390.771 231.295 390.55 230.801 390.55 230.226C390.55 229.643 390.771 229.15 391.211 228.745C391.651 228.333 392.177 228.127 392.788 228.127C393.406 228.127 393.931 228.333 394.364 228.745C394.805 229.15 395.025 229.643 395.025 230.226C395.025 230.801 394.805 231.295 394.364 231.707C393.931 232.112 393.406 232.314 392.788 232.314ZM411.604 238.962L408.089 239.345C407.989 238.99 407.815 238.656 407.567 238.344C407.325 238.031 406.998 237.779 406.586 237.587C406.175 237.396 405.67 237.3 405.074 237.3C404.271 237.3 403.596 237.474 403.05 237.822C402.51 238.17 402.243 238.621 402.251 239.175C402.243 239.651 402.417 240.038 402.773 240.336C403.135 240.634 403.731 240.879 404.562 241.071L407.354 241.668C408.902 242.001 410.052 242.531 410.805 243.255C411.565 243.979 411.949 244.928 411.956 246.099C411.949 247.129 411.647 248.038 411.05 248.827C410.461 249.608 409.64 250.219 408.589 250.659C407.538 251.099 406.331 251.32 404.967 251.32C402.964 251.32 401.352 250.901 400.131 250.062C398.909 249.217 398.181 248.042 397.947 246.536L401.707 246.174C401.878 246.913 402.24 247.47 402.794 247.847C403.348 248.223 404.069 248.411 404.956 248.411C405.873 248.411 406.608 248.223 407.162 247.847C407.723 247.47 408.003 247.005 408.003 246.451C408.003 245.982 407.822 245.595 407.46 245.29C407.105 244.984 406.551 244.75 405.798 244.587L403.007 244.001C401.437 243.674 400.276 243.124 399.523 242.349C398.77 241.568 398.398 240.581 398.405 239.388C398.398 238.379 398.671 237.506 399.225 236.767C399.786 236.021 400.564 235.446 401.558 235.041C402.559 234.629 403.714 234.423 405.02 234.423C406.938 234.423 408.447 234.832 409.548 235.648C410.656 236.465 411.341 237.57 411.604 238.962ZM422.38 251.32C420.74 251.32 419.323 250.979 418.129 250.297C416.943 249.608 416.031 248.635 415.392 247.378C414.752 246.114 414.433 244.626 414.433 242.914C414.433 241.231 414.752 239.754 415.392 238.482C416.038 237.204 416.94 236.21 418.097 235.499C419.255 234.782 420.615 234.423 422.178 234.423C423.186 234.423 424.138 234.587 425.033 234.913C425.935 235.233 426.73 235.73 427.419 236.405C428.115 237.08 428.662 237.939 429.06 238.983C429.458 240.02 429.656 241.256 429.656 242.69V243.873H416.244V241.273H425.96C425.953 240.535 425.793 239.878 425.48 239.303C425.168 238.72 424.731 238.262 424.17 237.928C423.616 237.594 422.97 237.428 422.231 237.428C421.443 237.428 420.75 237.619 420.154 238.003C419.557 238.379 419.092 238.876 418.758 239.494C418.431 240.105 418.264 240.776 418.257 241.508V243.777C418.257 244.729 418.431 245.545 418.779 246.227C419.127 246.902 419.614 247.42 420.239 247.783C420.864 248.138 421.595 248.315 422.433 248.315C422.994 248.315 423.502 248.237 423.957 248.081C424.411 247.918 424.806 247.68 425.139 247.367C425.473 247.055 425.725 246.668 425.896 246.206L429.497 246.611C429.269 247.562 428.836 248.393 428.197 249.104C427.565 249.807 426.755 250.354 425.768 250.744C424.781 251.128 423.651 251.32 422.38 251.32ZM435.295 251.234C434.648 251.234 434.094 251.007 433.633 250.553C433.171 250.098 432.944 249.544 432.951 248.891C432.944 248.251 433.171 247.705 433.633 247.25C434.094 246.795 434.648 246.568 435.295 246.568C435.92 246.568 436.463 246.795 436.925 247.25C437.393 247.705 437.631 248.251 437.638 248.891C437.631 249.324 437.518 249.718 437.298 250.073C437.085 250.428 436.8 250.712 436.445 250.925C436.097 251.131 435.714 251.234 435.295 251.234ZM460.415 235.18C460.316 234.249 459.897 233.525 459.158 233.006C458.427 232.488 457.475 232.229 456.303 232.229C455.479 232.229 454.773 232.353 454.183 232.602C453.594 232.85 453.143 233.187 452.83 233.614C452.518 234.04 452.358 234.526 452.351 235.073C452.351 235.528 452.454 235.922 452.66 236.256C452.873 236.589 453.161 236.874 453.523 237.108C453.885 237.335 454.286 237.527 454.727 237.683C455.167 237.839 455.611 237.971 456.058 238.077L458.104 238.589C458.928 238.781 459.719 239.04 460.479 239.366C461.246 239.693 461.932 240.105 462.536 240.602C463.146 241.099 463.629 241.7 463.984 242.403C464.339 243.106 464.517 243.93 464.517 244.874C464.517 246.153 464.19 247.278 463.537 248.251C462.884 249.217 461.939 249.974 460.703 250.521C459.474 251.06 457.987 251.33 456.239 251.33C454.542 251.33 453.068 251.067 451.818 250.542C450.575 250.016 449.602 249.249 448.899 248.241C448.203 247.232 447.827 246.004 447.77 244.555H451.658C451.715 245.315 451.95 245.947 452.362 246.451C452.773 246.955 453.31 247.332 453.97 247.58C454.638 247.829 455.384 247.953 456.207 247.953C457.067 247.953 457.82 247.825 458.466 247.57C459.119 247.307 459.631 246.945 460 246.483C460.369 246.014 460.558 245.467 460.565 244.842C460.558 244.274 460.391 243.805 460.064 243.436C459.737 243.06 459.279 242.747 458.69 242.499C458.107 242.243 457.425 242.016 456.644 241.817L454.162 241.178C452.365 240.716 450.945 240.016 449.901 239.079C448.864 238.134 448.345 236.881 448.345 235.318C448.345 234.033 448.693 232.907 449.389 231.941C450.092 230.975 451.048 230.226 452.255 229.693C453.462 229.153 454.83 228.884 456.357 228.884C457.905 228.884 459.261 229.153 460.426 229.693C461.598 230.226 462.518 230.968 463.185 231.92C463.853 232.864 464.197 233.951 464.219 235.18H460.415ZM467.87 257.136V234.636H471.663V237.342H471.887C472.085 236.945 472.366 236.522 472.728 236.075C473.09 235.62 473.58 235.233 474.198 234.913C474.816 234.587 475.605 234.423 476.563 234.423C477.828 234.423 478.968 234.746 479.983 235.393C481.006 236.032 481.816 236.98 482.412 238.237C483.016 239.487 483.318 241.021 483.318 242.839C483.318 244.636 483.023 246.163 482.433 247.42C481.844 248.678 481.041 249.636 480.026 250.297C479.01 250.957 477.86 251.288 476.574 251.288C475.637 251.288 474.859 251.131 474.241 250.819C473.623 250.506 473.126 250.13 472.749 249.69C472.38 249.242 472.093 248.82 471.887 248.422H471.727V257.136H467.87ZM471.652 242.818C471.652 243.876 471.801 244.803 472.1 245.599C472.405 246.394 472.842 247.016 473.41 247.463C473.985 247.903 474.681 248.124 475.498 248.124C476.35 248.124 477.064 247.896 477.639 247.442C478.215 246.98 478.648 246.352 478.939 245.556C479.237 244.754 479.387 243.841 479.387 242.818C479.387 241.803 479.241 240.901 478.95 240.112C478.659 239.324 478.225 238.706 477.65 238.259C477.075 237.811 476.357 237.587 475.498 237.587C474.674 237.587 473.975 237.804 473.399 238.237C472.824 238.67 472.387 239.278 472.089 240.059C471.798 240.84 471.652 241.76 471.652 242.818ZM493.865 251.32C492.224 251.32 490.807 250.979 489.614 250.297C488.428 249.608 487.515 248.635 486.876 247.378C486.237 246.114 485.917 244.626 485.917 242.914C485.917 241.231 486.237 239.754 486.876 238.482C487.522 237.204 488.424 236.21 489.582 235.499C490.74 234.782 492.1 234.423 493.662 234.423C494.671 234.423 495.622 234.587 496.517 234.913C497.419 235.233 498.215 235.73 498.904 236.405C499.6 237.08 500.146 237.939 500.544 238.983C500.942 240.02 501.141 241.256 501.141 242.69V243.873H487.728V241.273H497.444C497.437 240.535 497.277 239.878 496.965 239.303C496.652 238.72 496.215 238.262 495.654 237.928C495.1 237.594 494.454 237.428 493.715 237.428C492.927 237.428 492.235 237.619 491.638 238.003C491.041 238.379 490.576 238.876 490.242 239.494C489.916 240.105 489.749 240.776 489.742 241.508V243.777C489.742 244.729 489.916 245.545 490.264 246.227C490.612 246.902 491.098 247.42 491.723 247.783C492.348 248.138 493.08 248.315 493.918 248.315C494.479 248.315 494.987 248.237 495.441 248.081C495.896 247.918 496.29 247.68 496.624 247.367C496.958 247.055 497.21 246.668 497.38 246.206L500.981 246.611C500.754 247.562 500.32 248.393 499.681 249.104C499.049 249.807 498.24 250.354 497.252 250.744C496.265 251.128 495.136 251.32 493.865 251.32ZM509.112 251.33C508.075 251.33 507.141 251.146 506.31 250.776C505.487 250.4 504.833 249.846 504.35 249.114C503.874 248.383 503.636 247.481 503.636 246.408C503.636 245.485 503.807 244.722 504.148 244.118C504.489 243.514 504.954 243.031 505.543 242.669C506.133 242.307 506.797 242.033 507.536 241.849C508.281 241.657 509.052 241.518 509.847 241.433C510.806 241.334 511.584 241.245 512.18 241.167C512.777 241.082 513.21 240.954 513.48 240.783C513.757 240.606 513.896 240.332 513.896 239.963V239.899C513.896 239.097 513.658 238.475 513.182 238.035C512.706 237.594 512.021 237.374 511.126 237.374C510.181 237.374 509.432 237.58 508.878 237.992C508.331 238.404 507.962 238.891 507.77 239.452L504.169 238.94C504.453 237.946 504.922 237.115 505.575 236.447C506.229 235.773 507.028 235.268 507.972 234.935C508.917 234.594 509.961 234.423 511.104 234.423C511.893 234.423 512.678 234.516 513.459 234.7C514.24 234.885 514.954 235.19 515.6 235.616C516.246 236.036 516.765 236.607 517.156 237.332C517.553 238.056 517.752 238.962 517.752 240.048V251H514.045V248.752H513.917C513.683 249.207 513.352 249.633 512.926 250.031C512.507 250.421 511.978 250.737 511.339 250.979C510.707 251.213 509.964 251.33 509.112 251.33ZM510.114 248.496C510.888 248.496 511.559 248.344 512.127 248.038C512.695 247.726 513.132 247.314 513.438 246.803C513.75 246.291 513.906 245.734 513.906 245.13V243.202C513.786 243.301 513.58 243.393 513.288 243.479C513.004 243.564 512.685 243.638 512.33 243.702C511.974 243.766 511.623 243.823 511.275 243.873C510.927 243.923 510.625 243.965 510.369 244.001C509.794 244.079 509.279 244.207 508.825 244.384C508.37 244.562 508.011 244.81 507.749 245.13C507.486 245.442 507.354 245.847 507.354 246.344C507.354 247.055 507.614 247.591 508.132 247.953C508.651 248.315 509.311 248.496 510.114 248.496ZM525.146 245.865L525.135 241.21H525.753L531.634 234.636H536.14L528.906 242.69H528.107L525.146 245.865ZM521.63 251V229.182H525.487V251H521.63ZM531.9 251L526.573 243.553L529.173 240.837L536.513 251H531.9ZM541.086 251.234C540.439 251.234 539.885 251.007 539.424 250.553C538.962 250.098 538.735 249.544 538.742 248.891C538.735 248.251 538.962 247.705 539.424 247.25C539.885 246.795 540.439 246.568 541.086 246.568C541.711 246.568 542.254 246.795 542.716 247.25C543.184 247.705 543.422 248.251 543.43 248.891C543.422 249.324 543.309 249.718 543.089 250.073C542.876 250.428 542.591 250.712 542.236 250.925C541.888 251.131 541.505 251.234 541.086 251.234ZM554.349 251V229.182H562.531C564.207 229.182 565.613 229.473 566.75 230.055C567.893 230.638 568.756 231.455 569.339 232.506C569.928 233.55 570.223 234.768 570.223 236.16C570.223 237.559 569.925 238.773 569.328 239.803C568.738 240.826 567.868 241.618 566.718 242.179C565.567 242.733 564.154 243.01 562.478 243.01H556.65V239.729H561.945C562.925 239.729 563.728 239.594 564.353 239.324C564.978 239.047 565.439 238.646 565.738 238.12C566.043 237.587 566.196 236.934 566.196 236.16C566.196 235.386 566.043 234.725 565.738 234.178C565.432 233.624 564.967 233.205 564.342 232.921C563.717 232.63 562.911 232.484 561.924 232.484H558.302V251H554.349ZM565.621 241.114L571.022 251H566.611L561.306 241.114H565.621ZM580.7 251.32C579.06 251.32 577.643 250.979 576.45 250.297C575.264 249.608 574.351 248.635 573.712 247.378C573.073 246.114 572.753 244.626 572.753 242.914C572.753 241.231 573.073 239.754 573.712 238.482C574.358 237.204 575.26 236.21 576.418 235.499C577.575 234.782 578.936 234.423 580.498 234.423C581.507 234.423 582.458 234.587 583.353 234.913C584.255 235.233 585.051 235.73 585.74 236.405C586.436 237.08 586.982 237.939 587.38 238.983C587.778 240.02 587.977 241.256 587.977 242.69V243.873H574.564V241.273H584.28C584.273 240.535 584.113 239.878 583.801 239.303C583.488 238.72 583.051 238.262 582.49 237.928C581.936 237.594 581.29 237.428 580.551 237.428C579.763 237.428 579.07 237.619 578.474 238.003C577.877 238.379 577.412 238.876 577.078 239.494C576.752 240.105 576.585 240.776 576.578 241.508V243.777C576.578 244.729 576.752 245.545 577.1 246.227C577.448 246.902 577.934 247.42 578.559 247.783C579.184 248.138 579.916 248.315 580.754 248.315C581.315 248.315 581.823 248.237 582.277 248.081C582.732 247.918 583.126 247.68 583.46 247.367C583.794 247.055 584.046 246.668 584.216 246.206L587.817 246.611C587.59 247.562 587.156 248.393 586.517 249.104C585.885 249.807 585.075 250.354 584.088 250.744C583.101 251.128 581.972 251.32 580.7 251.32ZM604.173 238.962L600.657 239.345C600.558 238.99 600.384 238.656 600.135 238.344C599.893 238.031 599.567 237.779 599.155 237.587C598.743 237.396 598.239 237.3 597.642 237.3C596.839 237.3 596.165 237.474 595.618 237.822C595.078 238.17 594.812 238.621 594.819 239.175C594.812 239.651 594.986 240.038 595.341 240.336C595.703 240.634 596.3 240.879 597.131 241.071L599.922 241.668C601.47 242.001 602.621 242.531 603.374 243.255C604.134 243.979 604.517 244.928 604.524 246.099C604.517 247.129 604.215 248.038 603.619 248.827C603.029 249.608 602.209 250.219 601.158 250.659C600.107 251.099 598.899 251.32 597.536 251.32C595.533 251.32 593.92 250.901 592.699 250.062C591.477 249.217 590.749 248.042 590.515 246.536L594.276 246.174C594.446 246.913 594.808 247.47 595.362 247.847C595.916 248.223 596.637 248.411 597.525 248.411C598.441 248.411 599.176 248.223 599.73 247.847C600.291 247.47 600.572 247.005 600.572 246.451C600.572 245.982 600.391 245.595 600.028 245.29C599.673 244.984 599.119 244.75 598.366 244.587L595.575 244.001C594.006 243.674 592.844 243.124 592.092 242.349C591.339 241.568 590.966 240.581 590.973 239.388C590.966 238.379 591.239 237.506 591.793 236.767C592.354 236.021 593.132 235.446 594.126 235.041C595.128 234.629 596.282 234.423 597.589 234.423C599.506 234.423 601.016 234.832 602.116 235.648C603.224 236.465 603.91 237.57 604.173 238.962ZM614.842 251.32C613.244 251.32 611.859 250.968 610.687 250.265C609.515 249.562 608.606 248.578 607.96 247.314C607.321 246.05 607.001 244.572 607.001 242.882C607.001 241.192 607.321 239.711 607.96 238.44C608.606 237.168 609.515 236.181 610.687 235.478C611.859 234.775 613.244 234.423 614.842 234.423C616.44 234.423 617.825 234.775 618.997 235.478C620.169 236.181 621.074 237.168 621.713 238.44C622.36 239.711 622.683 241.192 622.683 242.882C622.683 244.572 622.36 246.05 621.713 247.314C621.074 248.578 620.169 249.562 618.997 250.265C617.825 250.968 616.44 251.32 614.842 251.32ZM614.863 248.23C615.73 248.23 616.454 247.992 617.037 247.516C617.619 247.033 618.052 246.387 618.336 245.577C618.627 244.768 618.773 243.866 618.773 242.871C618.773 241.87 618.627 240.964 618.336 240.155C618.052 239.338 617.619 238.688 617.037 238.205C616.454 237.722 615.73 237.481 614.863 237.481C613.975 237.481 613.237 237.722 612.647 238.205C612.065 238.688 611.628 239.338 611.337 240.155C611.053 240.964 610.911 241.87 610.911 242.871C610.911 243.866 611.053 244.768 611.337 245.577C611.628 246.387 612.065 247.033 612.647 247.516C613.237 247.992 613.975 248.23 614.863 248.23ZM629.813 229.182V251H625.956V229.182H629.813ZM648.395 234.636L642.567 251H638.306L632.479 234.636H636.591L640.352 246.792H640.522L644.293 234.636H648.395ZM657.751 251.32C656.111 251.32 654.694 250.979 653.501 250.297C652.314 249.608 651.402 248.635 650.763 247.378C650.123 246.114 649.804 244.626 649.804 242.914C649.804 241.231 650.123 239.754 650.763 238.482C651.409 237.204 652.311 236.21 653.469 235.499C654.626 234.782 655.986 234.423 657.549 234.423C658.557 234.423 659.509 234.587 660.404 234.913C661.306 235.233 662.101 235.73 662.79 236.405C663.486 237.08 664.033 237.939 664.431 238.983C664.829 240.02 665.028 241.256 665.028 242.69V243.873H651.615V241.273H661.331C661.324 240.535 661.164 239.878 660.851 239.303C660.539 238.72 660.102 238.262 659.541 237.928C658.987 237.594 658.341 237.428 657.602 237.428C656.814 237.428 656.121 237.619 655.525 238.003C654.928 238.379 654.463 238.876 654.129 239.494C653.802 240.105 653.635 240.776 653.628 241.508V243.777C653.628 244.729 653.802 245.545 654.15 246.227C654.498 246.902 654.985 247.42 655.61 247.783C656.235 248.138 656.966 248.315 657.805 248.315C658.366 248.315 658.873 248.237 659.328 248.081C659.782 247.918 660.177 247.68 660.51 247.367C660.844 247.055 661.096 246.668 661.267 246.206L664.868 246.611C664.64 247.562 664.207 248.393 663.568 249.104C662.936 249.807 662.126 250.354 661.139 250.744C660.152 251.128 659.023 251.32 657.751 251.32ZM670.666 251.234C670.02 251.234 669.466 251.007 669.004 250.553C668.542 250.098 668.315 249.544 668.322 248.891C668.315 248.251 668.542 247.705 669.004 247.25C669.466 246.795 670.02 246.568 670.666 246.568C671.291 246.568 671.834 246.795 672.296 247.25C672.765 247.705 673.002 248.251 673.01 248.891C673.002 249.324 672.889 249.718 672.669 250.073C672.456 250.428 672.172 250.712 671.816 250.925C671.468 251.131 671.085 251.234 670.666 251.234Z" fill="#F1F1F1"/>
<line x1="315.501" y1="2.50105" x2="315.501" y2="281.499" stroke="#FFFDE8" stroke-width="5.00211" stroke-linecap="round"/>
<path d="M130.444 255.452C128.099 254.552 125.825 254.514 123.61 254.932C121.418 255.351 119.249 256.175 117.35 257.506C114.232 259.699 111.196 262.032 108.089 264.251C105.815 265.873 103.553 267.509 101.173 268.929C99.2038 270.095 97.1055 271.084 94.9838 271.921C92.6393 272.834 90.2363 273.594 87.8098 274.19C86.11 274.596 84.3282 274.685 82.5699 274.773C79.4635 274.951 76.3805 274.596 73.3796 273.797C71.4455 273.29 69.5464 272.555 67.7295 271.68C65.4554 270.59 63.2281 269.347 61.0712 268.003C59.5825 267.078 58.1993 265.937 56.8864 264.732C55.4563 263.426 54.1551 261.943 52.807 260.536C52.7015 260.422 52.6781 260.219 52.5257 259.813C52.9711 259.978 53.2642 260.016 53.4752 260.181C55.7259 261.854 58.2345 262.932 60.8134 263.769C62.6303 264.352 64.541 264.504 66.3932 264.961C68.7611 265.531 71.1524 265.366 73.532 265.328C76.5564 265.277 79.5456 264.732 82.4292 263.781C84.633 263.059 86.7665 262.019 88.9117 261.068C91.1389 260.079 93.3544 259.015 95.5816 257.988C97.6213 257.049 99.661 256.111 101.724 255.236C102.767 254.793 103.858 254.488 104.924 254.121C106.061 253.74 107.198 253.335 108.347 252.967C109.215 252.688 110.082 252.397 110.961 252.219C113.446 251.725 115.932 251.078 118.44 250.875C121.136 250.66 123.868 250.774 126.575 250.926C128.252 251.015 129.916 251.37 131.557 251.725C132.8 251.991 134.031 252.409 135.238 252.828C136.469 253.246 137.571 253.195 138.661 252.359C139.142 251.991 139.833 251.851 140.443 251.775C143.303 251.37 146.163 250.888 149.035 250.698C152.505 250.47 155.975 250.634 159.421 251.256C161.25 251.585 163.043 252.08 164.849 252.549C166.068 252.866 167.275 253.195 168.447 253.639C170.206 254.311 171.941 255.059 173.675 255.832C175.633 256.707 177.567 257.645 179.513 258.545C181.166 259.306 182.819 260.067 184.495 260.739C186.429 261.525 188.375 262.311 190.356 262.932C192.126 263.49 193.943 263.934 195.784 264.213C197.366 264.453 198.996 264.504 200.602 264.441C203.005 264.327 205.408 264.124 207.799 263.807C209.112 263.629 210.413 263.236 211.667 262.767C213.426 262.095 215.149 261.322 216.849 260.485C217.775 260.041 218.607 259.382 219.498 258.824C219.627 258.736 219.791 258.723 219.943 258.672C219.908 258.85 219.932 259.103 219.838 259.205C218.361 260.827 216.907 262.463 215.372 264.01C213.215 266.178 210.694 267.813 208.127 269.296C206.275 270.374 204.224 271.059 202.266 271.921C199.183 273.277 195.913 273.658 192.63 273.835C190.72 273.937 188.774 274 186.91 273.632C184.554 273.163 182.198 272.77 179.877 271.984C176.969 270.983 174.121 269.816 171.448 268.282C168.658 266.685 166.044 264.72 163.383 262.843C160.687 260.942 158.05 258.926 155.342 257.037C153.689 255.87 151.825 255.211 149.856 255.008C147.523 254.767 145.19 254.983 142.705 255.414C142.975 255.668 143.104 255.845 143.28 255.946C145.647 257.29 148.086 258.482 150.36 259.965C154.158 262.463 157.897 265.049 161.449 267.965C165.083 270.932 168.436 274.228 171.835 277.461C172.456 278.057 172.468 278.273 171.882 278.868C170.44 280.301 168.975 281.696 167.556 283.154C166.97 283.775 166.595 283.559 166.138 283.027C164.274 280.91 162.469 278.704 160.488 276.713C156.854 273.087 153.22 269.474 149.399 266.102C146.773 263.794 143.866 261.854 141.041 259.826C139.962 259.053 138.813 258.368 137.606 257.861C136.985 257.607 136.117 257.607 135.496 257.861C134.124 258.419 132.788 259.116 131.534 259.94C127.384 262.666 123.457 265.734 119.718 269.106C114.947 273.417 110.516 278.082 106.741 283.445C106.214 284.193 106.132 284.142 105.475 283.547C103.928 282.127 102.369 280.719 100.775 279.35C100.294 278.932 100.329 278.716 100.739 278.298C104.08 274.9 107.433 271.528 111.043 268.447C114.783 265.252 118.768 262.463 122.801 259.763C124.594 258.558 126.54 257.62 128.416 256.555C129.037 256.213 129.682 255.87 130.444 255.452Z" fill="#F1F1F1"/>
<path d="M202.524 243.621C202.688 243.381 202.829 243.102 203.028 242.899C206.322 239.64 208.936 235.837 210.835 231.463C211.491 229.942 212.218 228.458 212.816 226.912C213.414 225.365 213.918 223.78 214.445 222.208C214.996 220.56 215.547 218.912 216.063 217.251C216.731 215.096 217.364 212.94 218.056 210.785C218.501 209.403 218.97 208.034 219.474 206.69C219.978 205.346 220.494 203.99 221.104 202.697C221.924 200.96 222.698 199.197 223.718 197.6C226.414 193.391 229.227 189.271 231.994 185.125C232.134 184.909 232.381 184.77 232.568 184.592C232.638 184.643 232.709 184.694 232.779 184.732C232.568 185.391 232.322 186.038 232.134 186.71C231.419 189.156 230.599 191.578 230.048 194.063C229.544 196.32 229.356 198.665 229.016 200.972C228.782 202.633 228.536 204.294 228.289 205.955C228.09 207.299 227.926 208.63 227.668 209.961C227.293 211.863 226.906 213.777 226.414 215.641C225.992 217.251 225.511 218.848 224.89 220.37C223.683 223.324 222.182 226.113 220.236 228.585C218.537 230.753 216.696 232.807 214.926 234.912C214.774 235.089 214.586 235.254 214.422 235.431C214.457 235.495 214.504 235.558 214.539 235.622C214.727 235.533 214.926 235.482 215.09 235.355C216.602 234.062 218.126 232.794 219.592 231.438C222.323 228.915 225.265 226.722 228.395 224.858C231.689 222.893 235.053 221.054 238.371 219.14C241.325 217.454 244.337 215.882 247.209 214.031C250.972 211.622 254.383 208.693 257.243 205.067C259.107 202.684 260.772 200.161 261.85 197.232C261.897 197.118 261.991 197.03 262.061 196.928C262.143 196.941 262.225 196.941 262.308 196.941C262.308 197.397 262.413 197.892 262.319 198.323C261.921 200.136 261.604 201.999 260.971 203.711C259.998 206.31 258.873 208.845 257.666 211.318C255.755 215.273 253.059 218.62 250.257 221.828C247.643 224.833 244.736 227.482 241.629 229.891C239.062 231.882 236.272 233.454 233.541 235.127C232.451 235.799 231.208 236.205 230.013 236.699C229.016 237.118 228.008 237.511 226.988 237.866C226.133 238.157 225.253 238.411 224.374 238.601C221.842 239.159 219.31 239.653 216.778 240.211C214.914 240.617 213.051 241.073 211.198 241.517C209.628 241.885 208.069 242.239 206.51 242.658C205.29 242.975 204.095 243.381 202.887 243.735C202.794 243.761 202.7 243.761 202.606 243.774C202.618 243.735 202.571 243.672 202.524 243.621Z" fill="#F1F1F1"/>
<path d="M9.90338 199.249C10.1378 199.668 10.3957 200.073 10.595 200.517C12.623 205.056 15.659 208.732 19.3398 211.737C21.4616 213.474 23.7122 215.059 26.045 216.453C29.5265 218.545 33.1135 220.447 36.6888 222.349C40.8385 224.542 44.953 226.811 48.7159 229.727C50.8141 231.35 52.7952 233.138 54.8701 234.799C55.7375 235.483 56.7222 236.003 57.6482 236.599C57.6951 236.535 57.742 236.472 57.7772 236.409C57.109 235.737 56.4643 235.039 55.7727 234.393C52.678 231.502 50.228 228.041 48.2587 224.212C47.403 222.552 46.7465 220.739 46.1721 218.938C45.504 216.846 44.9764 214.704 44.4724 212.549C44.1911 211.344 44.0738 210.089 43.8863 208.859C43.6636 207.439 43.4408 206.032 43.2064 204.612C43.0188 203.484 42.8195 202.368 42.6554 201.252C42.4444 199.807 42.3272 198.336 42.0576 196.904C41.7763 195.37 41.448 193.823 40.9909 192.34C40.4165 190.451 39.7014 188.625 39.0567 186.749C39.0098 186.609 39.0919 186.419 39.2911 186.153C39.9124 186.977 40.5571 187.763 41.1433 188.625C43.3939 191.947 45.7384 195.205 47.8015 198.666C49.5481 201.595 51.0603 204.688 52.4787 207.82C53.3344 209.696 53.8033 211.775 54.4481 213.766C54.9638 215.338 55.5031 216.91 56.0188 218.482C56.5581 220.105 57.0621 221.74 57.6248 223.363C58.3867 225.531 59.1252 227.724 60.0279 229.829C60.8719 231.807 61.7979 233.784 62.935 235.585C64.2948 237.74 65.9007 239.73 67.4481 241.759C68.0342 242.532 68.7961 243.141 69.4526 243.851C69.5932 244.003 69.6519 244.218 69.7574 244.421C69.5463 244.472 69.3236 244.599 69.1361 244.561C68.4093 244.396 67.6825 244.155 66.9557 243.952C65.9124 243.661 64.8692 243.369 63.8259 243.115C62.7005 242.849 61.5635 242.596 60.4381 242.355C59.43 242.139 58.4219 241.936 57.4021 241.759C55.3272 241.391 53.2289 241.087 51.1658 240.669C49.3254 240.301 47.4967 239.832 45.6798 239.35C44.5193 239.046 43.3588 238.678 42.21 238.285C41.2136 237.943 40.1938 237.613 39.2677 237.119C37.2749 236.054 35.2821 235.001 33.4066 233.734C31.4607 232.415 29.5617 230.982 27.8033 229.385C25.3534 227.141 22.9737 224.796 20.7465 222.311C18.2614 219.547 16.1514 216.428 14.3696 213.081C13.1973 210.888 12.0603 208.669 11.3452 206.222C10.806 204.346 10.1964 202.482 9.65721 200.593C9.55171 200.213 9.5986 199.794 9.58688 199.401C9.7041 199.363 9.8096 199.3 9.90338 199.249Z" fill="#F1F1F1"/>
<path d="M186.699 249.468C187.672 249.341 188.645 249.265 189.607 249.1C191.857 248.682 194.073 248.15 196.335 247.795C199.242 247.326 202.161 246.945 205.08 246.628C207.928 246.311 210.789 246.134 213.637 245.842C215.489 245.652 217.33 245.373 219.17 245.107C220.436 244.917 221.702 244.727 222.945 244.41C225.102 243.852 227.282 243.332 229.369 242.546C231.326 241.798 233.237 240.822 235.066 239.744C237.539 238.286 239.649 236.258 241.513 233.963C241.618 233.836 241.759 233.747 242.064 233.722C242.029 233.95 242.029 234.191 241.935 234.394C240.341 237.944 238.148 241.037 235.605 243.814C233.319 246.324 230.834 248.606 228.02 250.444C226.016 251.763 224 253.069 221.901 254.172C220.272 255.034 218.525 255.655 216.802 256.264C215.454 256.745 214.059 257.126 212.664 257.367C210.484 257.734 208.292 258.14 206.088 258.165C203.497 258.216 200.907 258 198.328 257.684C196.101 257.417 193.885 256.847 191.67 256.416C190.626 256.213 189.595 256.035 188.563 255.807C187.801 255.642 187.051 255.452 186.301 255.237C184.097 254.641 181.893 253.982 179.678 253.449C177.24 252.853 174.766 252.359 172.316 251.852C171.179 251.623 170.042 251.459 168.905 251.256C168.659 251.218 168.401 251.18 168.178 251.066C168.038 251.002 167.873 250.812 167.873 250.673C167.873 250.558 168.073 250.368 168.213 250.33C169.643 249.963 171.097 249.658 172.527 249.265C173.582 248.961 174.625 248.581 175.657 248.175C177.04 247.63 178.4 247.034 179.748 246.425C182.374 245.246 184.836 243.725 186.922 241.646C190.591 237.982 194.155 234.191 197.73 230.426C202.149 225.76 206.662 221.221 211.586 217.177C212.102 216.759 212.629 216.34 213.168 215.947C213.368 215.795 213.614 215.719 213.848 215.618C213.895 215.681 213.954 215.744 214.001 215.808C213.883 216.049 213.79 216.315 213.649 216.518C211.797 219.193 210.46 222.185 209.136 225.177C207.53 228.816 206.006 232.505 204.107 235.966C201.856 240.048 198.867 243.446 194.87 245.715C192.748 246.92 190.603 247.934 188.294 248.581C187.731 248.733 187.203 248.986 186.653 249.189C186.664 249.253 186.676 249.354 186.699 249.468Z" fill="#F1F1F1"/>
<path d="M241.511 154.876C241.582 155.497 241.675 155.954 241.675 156.41C241.675 157.741 241.558 159.085 241.664 160.404C241.851 162.724 242.168 165.031 242.449 167.339C242.613 168.708 242.801 170.077 243.023 171.446C243.246 172.828 243.527 174.21 243.774 175.592C243.95 176.581 244.172 177.557 244.266 178.546C244.653 182.514 245.122 186.444 244.536 190.476C244.172 192.974 243.738 195.459 242.941 197.804C242.179 200.073 241.042 202.203 240.058 204.397C239.812 204.954 239.495 205.474 239.331 206.146C239.46 206.032 239.612 205.931 239.706 205.804C242.191 202 244.676 198.184 247.15 194.368C249.975 190.02 253.245 186.102 256.785 182.413C259.833 179.243 262.752 175.934 265.085 172.118C266.491 169.823 267.781 167.415 268.824 164.917C269.68 162.889 270.36 160.733 270.407 158.439C270.407 158.223 270.465 158.008 270.512 157.805C270.536 157.729 270.594 157.678 270.77 157.412C270.981 157.893 271.274 158.274 271.286 158.654C271.321 161.976 271.438 165.297 271.262 168.606C271.157 170.521 270.618 172.422 270.172 174.312C269.785 175.96 269.352 177.608 268.754 179.18C267.945 181.335 267.101 183.478 266.034 185.481C264.815 187.776 263.408 189.956 261.967 192.099C259.564 195.661 256.692 198.818 253.574 201.633C251.065 203.902 248.369 205.943 245.673 207.959C242.344 210.444 238.897 212.751 235.545 215.198C233.446 216.72 231.442 218.368 229.379 219.953C229.238 220.067 229.015 220.041 228.839 220.092C228.804 219.902 228.687 219.661 228.746 219.521C229.109 218.659 229.555 217.848 229.895 216.973C230.633 215.11 231.407 213.259 231.993 211.357C232.626 209.316 233.095 207.198 233.564 205.094C233.868 203.674 234.056 202.216 234.243 200.771C234.513 198.729 234.748 196.688 234.947 194.634C235.181 192.175 235.392 189.715 235.592 187.243C235.861 183.909 236.06 180.574 236.377 177.253C236.67 174.261 237.022 171.269 237.467 168.289C237.725 166.591 238.182 164.917 238.628 163.256C239.061 161.646 239.589 160.074 240.081 158.489C240.409 157.412 240.761 156.347 241.113 155.282C241.183 155.168 241.277 155.117 241.511 154.876Z" fill="#F1F1F1"/>
<path d="M43.229 221.486C42.4787 220.992 41.7168 220.523 40.9783 220.003C37.1451 217.315 33.2885 214.665 29.4904 211.927C26.724 209.936 23.9458 207.946 21.3434 205.727C18.3425 203.166 15.4003 200.466 12.6455 197.601C9.86734 194.697 7.46427 191.376 5.71765 187.636C4.3227 184.694 3.18563 181.588 2.13063 178.482C1.57968 176.847 1.42729 175.059 1.12251 173.322C0.360565 169.1 0.829456 164.828 0.723955 160.568C0.712233 160.314 0.770844 160.061 0.794289 159.795C0.864623 159.782 0.934956 159.769 1.00529 159.757C1.07562 159.985 1.1694 160.2 1.20457 160.441C1.67346 163.192 2.24785 165.918 3.49041 168.39C4.49853 170.406 5.64731 172.359 6.86643 174.222C9.63289 178.482 13.1847 182.007 16.467 185.785C19.1866 188.929 21.9647 192.048 24.4499 195.407C26.7826 198.551 28.7402 202 30.8854 205.296C31.3308 205.968 31.8701 206.551 32.3741 207.185C32.4327 207.135 32.4913 207.084 32.5499 207.046C32.1162 206.272 31.6239 205.537 31.2605 204.726C30.4986 203.001 29.7483 201.252 29.0919 199.477C27.7673 195.826 27.1811 191.997 27.1343 188.105C27.0991 185.62 27.4039 183.122 27.6149 180.637C27.7321 179.205 27.9431 177.785 28.1541 176.365C28.2948 175.427 28.5058 174.514 28.6582 173.576C29.2208 170.267 29.9007 166.983 30.2641 163.649C30.4868 161.684 30.2172 159.655 30.1586 157.639C30.1469 157.437 30.1234 157.221 30.1117 157.018C30.1703 156.98 30.2407 156.942 30.2993 156.891C30.522 157.208 30.8385 157.475 30.9674 157.83C31.577 159.478 32.1866 161.139 32.6789 162.837C33.1009 164.283 33.4291 165.753 33.7222 167.237C34.1676 169.519 34.5662 171.801 34.9647 174.096C35.1289 175.059 35.2344 176.023 35.3281 176.999C35.5626 179.268 35.797 181.538 35.9963 183.807C36.2073 186.127 36.3831 188.46 36.5824 190.78C36.8169 193.404 37.0513 196.029 37.3444 198.64C37.5671 200.631 37.8484 202.608 38.1532 204.586C38.4228 206.348 38.6807 208.123 39.1027 209.848C39.5247 211.534 40.0874 213.182 40.7204 214.792C41.4823 216.732 42.3732 218.608 43.1938 220.51C43.2993 220.738 43.311 221.017 43.3579 221.271C43.311 221.372 43.2641 221.423 43.229 221.486Z" fill="#F1F1F1"/>
<path d="M86.5321 250.074C86.3563 250.01 86.1804 249.921 86.0046 249.858C85.1606 249.604 84.3049 249.389 83.4609 249.123C82.3355 248.755 81.2219 248.387 80.1317 247.944C77.7521 246.967 75.5601 245.636 73.6728 243.785C71.3635 241.541 69.4176 238.968 67.8702 236.039C66.7801 233.972 65.7368 231.868 64.7169 229.763C62.771 225.744 60.9775 221.637 58.5979 217.871C58.469 217.668 58.3869 217.428 58.1876 216.971C58.5862 217.098 58.7855 217.111 58.9144 217.212C64.0839 221.206 68.9252 225.618 73.4969 230.385C76.7674 233.795 80.038 237.205 83.3671 240.552C86.0163 243.215 89.0172 245.357 92.3815 246.841C94.6439 247.83 96.9181 248.793 99.2391 249.604C100.728 250.124 102.299 250.365 103.846 250.746C104.092 250.809 104.35 250.885 104.596 250.961C104.62 251.075 104.643 251.177 104.655 251.278C104.233 251.468 103.822 251.76 103.377 251.836C101.279 252.216 99.157 252.482 97.0704 252.926C95.6286 253.23 94.2337 253.788 92.8035 254.194C91.3969 254.6 89.9902 254.929 88.5718 255.322C86.9893 255.753 85.4185 256.197 83.8477 256.615C83.0975 256.818 82.3355 257.021 81.5736 257.186C76.6151 258.251 71.6214 259.062 66.5573 259.012C64.377 258.986 62.1966 258.745 60.0397 258.352C57.9063 257.972 55.7728 257.414 53.7097 256.666C51.7169 255.944 49.8062 254.929 47.8955 253.94C43.8396 251.836 40.2994 248.92 37.0875 245.56C34.2624 242.606 31.8828 239.272 30.0073 235.506C29.9838 235.468 30.019 235.405 30.0424 235.164C30.3589 235.392 30.6637 235.532 30.863 235.773C32.9378 238.296 35.4347 240.223 38.1894 241.757C39.7368 242.619 41.3896 243.278 43.019 243.925C44.3553 244.445 45.7268 244.876 47.0983 245.256C47.9892 245.509 48.9153 245.636 49.8296 245.776C52.2913 246.131 54.753 246.536 57.2264 246.79C61.001 247.17 64.7873 247.437 68.5736 247.753C70.4491 247.918 72.3364 248.045 74.212 248.286C75.8062 248.489 77.377 248.831 78.9595 249.11C81.2102 249.516 83.4491 249.947 85.6998 250.352C85.946 250.391 86.2039 250.314 86.4618 250.289C86.5204 250.213 86.5321 250.137 86.5321 250.074Z" fill="#F1F1F1"/>
<path d="M239.708 121.648C239.778 122.028 239.825 122.421 239.942 122.789C240.575 124.576 241.173 126.389 241.9 128.126C244.045 133.248 247.175 137.761 249.613 142.693C250.949 145.406 252.215 148.183 253.235 151.048C254.196 153.723 254.595 156.588 254.677 159.479C254.747 161.875 254.677 164.258 254.22 166.617C254.009 167.707 253.739 168.785 253.516 169.862C253.411 170.382 253.317 170.902 253.223 171.422C253.305 171.447 253.387 171.472 253.47 171.498C253.575 171.231 253.704 170.978 253.763 170.699C254.36 167.821 254.923 164.918 255.544 162.04C256.107 159.466 256.599 156.854 257.373 154.344C258.369 151.149 259.589 148.031 260.761 144.899C261.675 142.44 262.695 140.031 263.609 137.571C264.348 135.568 265.075 133.54 265.637 131.473C266.153 129.559 266.399 127.555 266.821 125.616C267.442 122.814 267.243 119.999 267.161 117.172C267.138 116.551 266.974 115.942 266.892 115.334C266.856 115.093 266.892 114.827 266.892 114.586C266.95 114.56 267.02 114.535 267.091 114.51C267.325 114.89 267.642 115.245 267.771 115.663C268.322 117.337 268.861 119.023 269.33 120.722C269.623 121.762 269.822 122.827 270.045 123.879C271.041 128.747 271.17 133.692 270.912 138.636C270.76 141.603 270.174 144.544 269.705 147.485C269.459 149.032 269.107 150.566 268.72 152.075C268.404 153.317 268.017 154.56 267.571 155.764C266.798 157.843 266.012 159.91 265.11 161.926C264.571 163.13 263.867 164.271 263.105 165.336C259.87 169.938 256.564 174.477 253.341 179.079C251.981 181.019 250.738 183.06 249.425 185.051C249.273 185.279 249.027 185.444 248.827 185.634C248.769 185.329 248.652 185.038 248.663 184.734C248.781 182.135 249.05 179.51 249.003 176.911C248.956 174.401 248.722 171.865 248.288 169.406C247.913 167.251 247.128 165.171 246.542 163.054C246.026 161.241 245.545 159.428 245.041 157.615C244.479 155.574 243.881 153.546 243.377 151.479C242.826 149.235 242.368 146.966 241.876 144.696C241.466 142.795 241.032 140.905 240.704 138.991C240.329 136.861 240.012 134.719 239.754 132.563C239.368 129.356 238.981 126.148 239.192 122.903C239.215 122.497 239.297 122.091 239.344 121.673C239.473 121.648 239.59 121.648 239.708 121.648Z" fill="#F1F1F1"/>
<path d="M4.2771 116.562C4.32399 117.246 4.45294 117.753 4.35916 118.197C3.67927 121.316 4.00749 124.46 4.49983 127.528C4.91011 130.115 5.74239 132.65 6.52778 135.148C7.23112 137.366 8.09857 139.522 8.96602 141.677C9.76313 143.655 10.6775 145.582 11.4511 147.572C12.3303 149.867 13.1274 152.2 13.9128 154.52C14.3114 155.686 14.6748 156.878 14.9678 158.082C15.3781 159.756 15.7298 161.455 16.0932 163.128C16.6676 165.765 17.2302 168.402 17.7929 171.027C17.875 171.407 17.9922 171.762 18.0977 172.142C18.168 172.13 18.2383 172.117 18.3087 172.092C18.2618 171.737 18.2618 171.369 18.168 171.039C17.1013 167.096 16.9723 163.103 17.6053 159.097C17.9922 156.624 18.4845 154.139 19.1644 151.756C19.7622 149.651 20.5828 147.598 21.5089 145.633C22.8569 142.742 24.3691 139.927 25.8461 137.126C26.7839 135.338 27.8858 133.652 28.7884 131.851C29.4448 130.508 29.9489 129.05 30.4178 127.604C30.8046 126.438 31.0274 125.208 31.3556 124.016C31.4142 123.788 31.6604 123.623 31.8245 123.421C31.9065 123.446 31.9769 123.471 32.0589 123.509C32.0941 124.029 32.1058 124.562 32.1527 125.081C32.434 128.492 32.012 131.851 31.5666 135.211C31.2032 137.899 30.9219 140.587 30.5585 143.274C30.4178 144.314 30.1716 145.354 29.9489 146.381C29.5738 148.092 29.187 149.791 28.7884 151.502C28.425 153.024 28.0382 154.533 27.6513 156.041C27.2762 157.499 26.9011 158.957 26.5026 160.402C26.1392 161.746 25.7758 163.09 25.4124 164.447C25.0373 165.854 24.6153 167.236 24.2753 168.656C23.8299 170.507 23.3258 172.371 23.0679 174.26C22.8335 175.971 22.8218 177.733 22.8686 179.458C22.939 181.841 23.1851 184.225 23.3375 186.608C23.361 186.9 23.2203 187.204 23.15 187.495C22.8921 187.318 22.5521 187.204 22.3998 186.95C21.6495 185.733 21.04 184.415 20.2311 183.248C18.4728 180.7 16.6324 178.24 14.8389 175.73C12.2483 172.104 9.57558 168.542 7.13734 164.802C5.83617 162.811 4.82805 160.567 4.20677 158.171C3.58549 155.8 2.89388 153.455 2.40154 151.059C1.86231 148.447 1.51065 145.785 1.0652 143.16C0.361863 139.116 0.736976 135.034 0.807309 130.977C0.842476 128.986 1.47548 127.008 1.85059 125.018C2.0147 124.143 2.17882 123.268 2.41326 122.406C2.89388 120.593 3.39793 118.793 3.91371 116.98C3.90199 116.904 4.00749 116.841 4.2771 116.562Z" fill="#F1F1F1"/>
<path d="M255.227 129.961C255.098 128.339 254.969 126.728 254.829 125.106C254.782 124.561 254.641 124.028 254.629 123.483C254.489 117.017 254.289 110.539 254.84 104.073C255.11 100.878 255.544 97.7084 255.755 94.5135C255.86 92.9541 255.649 91.3694 255.544 89.7973C255.38 87.1729 254.981 84.612 254.231 82.0637C253.692 80.2634 253.07 78.5645 252.074 77.0178C252.027 76.9417 252.027 76.815 252.132 76.536C252.496 76.7896 252.953 76.9671 253.211 77.3221C254.348 78.8688 255.473 80.4409 256.493 82.0637C257.548 83.7372 258.568 85.4487 259.459 87.2363C260.244 88.8211 260.901 90.5073 261.475 92.1934C262.132 94.1332 262.694 96.1363 263.198 98.1395C263.48 99.2551 263.644 100.422 263.749 101.575C264.007 104.402 264.382 107.242 264.406 110.082C264.429 112.643 264.124 115.229 263.831 117.778C263.62 119.578 263.233 121.353 262.823 123.103C262.577 124.168 262.143 125.182 261.78 126.221C261.252 127.73 260.69 129.239 260.174 130.747C259.775 131.914 259.353 133.068 259.025 134.259C258.463 136.313 257.912 138.354 257.443 140.433C256.927 142.754 256.517 145.099 256.059 147.432C256.036 147.559 255.942 147.66 255.825 147.863C255.684 147.673 255.544 147.559 255.509 147.406C254.864 145.048 254.348 142.639 253.574 140.345C252.953 138.506 252.097 136.731 251.206 135.02C248.616 130.05 245.287 125.638 242.227 121.011C240.199 117.955 238.195 114.874 236.378 111.667C235.088 109.372 233.998 106.925 233.318 104.288C233.025 103.147 232.545 102.07 232.193 100.941C231.982 100.269 231.818 99.5974 231.654 98.9128C231.337 97.5816 231.021 96.2377 230.716 94.9065C230.669 94.729 230.634 94.5135 230.669 94.3487C230.704 94.1966 230.833 94.0571 230.927 93.905C231.032 94.0064 231.185 94.0571 231.243 94.1839C232.404 96.466 233.904 98.4564 235.616 100.257C237.714 102.463 239.965 104.517 242.087 106.71C244.454 109.169 246.857 111.604 249.014 114.279C250.351 115.927 251.429 117.892 252.308 119.87C253.586 122.722 254.371 125.79 254.711 128.96C254.747 129.315 254.852 129.657 254.922 130.012C255.04 129.999 255.133 129.987 255.227 129.961Z" fill="#F1F1F1"/>
<path d="M15.7287 149.587C15.6818 149.359 15.5997 149.131 15.5763 148.902C15.4005 147.483 15.2598 146.05 15.0488 144.63C14.9433 143.895 14.7557 143.147 14.533 142.437C13.8648 140.256 13.1615 138.101 12.4582 135.933C11.8252 133.968 11.1804 132.015 10.5123 130.063C10.0082 128.542 9.38693 127.046 8.97665 125.499C8.36709 123.191 7.87475 120.846 7.3707 118.5C6.49152 114.393 6.80803 110.222 6.93697 106.076C6.99558 104.149 7.40586 102.222 7.74581 100.307C7.98025 98.9636 8.30848 97.6197 8.7422 96.3266C9.36348 94.4502 10.0434 92.5865 10.7819 90.7736C12.4816 86.6152 14.9081 82.9385 17.3698 79.2873C17.5808 78.9703 18.0028 78.8055 18.331 78.5773C18.2372 78.9576 18.2138 79.376 18.0497 79.7056C16.8657 82.013 16.0803 84.4599 15.6115 87.0716C14.9667 90.7482 15.1777 94.4502 15.2832 98.1268C15.3418 100.016 15.7052 101.892 15.9397 103.781C16.1155 105.265 16.3148 106.735 16.4672 108.219C17.0064 113.607 17.3581 118.982 16.7602 124.396C16.4555 127.084 16.3148 129.809 16.1155 132.522C16.1038 132.713 16.1507 132.915 16.1741 133.106C16.2445 133.118 16.3265 133.118 16.3969 133.131C16.561 132.282 16.7602 131.432 16.8775 130.583C17.2643 127.781 17.8856 125.08 18.964 122.481C20.6755 118.31 23.1958 114.748 26.1263 111.54C29.1507 108.244 32.386 105.201 35.3987 101.905C36.7585 100.422 37.8017 98.5959 38.9622 96.9098C39.2553 96.4914 39.4546 95.9969 39.689 95.5405C39.7711 95.5532 39.8531 95.5532 39.9352 95.5532C39.9352 95.9716 39.9938 96.4026 39.9235 96.7956C39.7007 98.0381 39.4546 99.2806 39.1615 100.51C38.7747 102.108 38.3996 103.705 37.9072 105.265C37.3211 107.179 36.7116 109.106 35.9496 110.944C35.2697 112.593 34.4609 114.203 33.5348 115.711C30.6043 120.466 27.5916 125.156 24.6024 129.86C22.5393 133.118 20.5817 136.453 19.0695 140.066C18.2138 142.12 17.6511 144.326 16.9947 146.468C16.772 147.204 16.7016 148.002 16.5024 148.75C16.4086 149.08 16.1624 149.359 15.9866 149.65C15.8928 149.65 15.8107 149.612 15.7287 149.587Z" fill="#F1F1F1"/>
<path d="M231.513 57.7359C232.005 57.8754 232.509 57.9768 233.001 58.1416C236.565 59.3841 239.589 61.5647 242.285 64.3412C244.735 66.8514 246.693 69.7674 248.264 72.9496C249.108 74.6738 249.706 76.5628 250.256 78.4519C251.675 83.4343 251.64 88.5563 251.429 93.7163C251.241 98.3945 251.206 103.073 251.171 107.751C251.159 108.854 251.44 109.957 251.581 111.06C251.616 111.326 251.64 111.605 251.605 111.871C251.581 112.049 251.452 112.226 251.358 112.391C251.218 112.264 251.042 112.163 250.96 111.998C249.377 108.778 247.256 106.027 244.876 103.478C241.406 99.7637 237.421 96.7336 233.681 93.3739C231.325 91.2567 229.027 89.0634 226.824 86.7814C224.819 84.7022 223.272 82.2173 222.158 79.4534C221.197 77.0573 220.353 74.5977 219.509 72.1382C219.239 71.3522 219.146 70.5027 218.97 69.6913C218.852 69.1462 218.7 68.601 218.606 68.0432C218.559 67.7516 218.595 67.46 218.595 67.1684C218.677 67.1557 218.77 67.143 218.841 67.1304C219.181 67.7896 219.509 68.4616 219.861 69.1208C221.842 72.7721 224.643 75.5486 227.738 78.0462C231.63 81.1777 235.897 83.7893 239.39 87.4533C241.816 89.9889 244.29 92.5372 245.696 95.9856C245.861 96.3913 246.095 96.7717 246.294 97.1647C246.353 97.1393 246.423 97.114 246.494 97.1013C246.294 96.5054 246.095 95.9222 245.919 95.3264C245.181 92.8034 244.43 90.2805 243.704 87.7576C243.293 86.3376 242.883 84.9177 242.531 83.4851C242.133 81.8876 241.828 80.2775 241.453 78.6801C241.09 77.1334 240.691 75.5993 240.304 74.0526C239.976 72.7214 239.695 71.3648 239.273 70.0717C238.733 68.4742 238.218 66.8514 237.421 65.4061C236.518 63.7707 235.369 62.2747 234.22 60.804C233.599 60.0053 232.755 59.4221 232.028 58.7121C231.782 58.4839 231.595 58.1796 231.372 57.9134C231.43 57.8373 231.466 57.7866 231.513 57.7359Z" fill="#F1F1F1"/>
<path d="M24.3221 99.6122C24.6972 98.8388 25.0488 98.0527 25.4474 97.2921C27.7918 92.8547 30.8748 89.102 34.6728 86.0593C37.2166 84.0054 39.8423 82.053 42.3744 79.9865C45.3284 77.5777 48.0362 74.8773 49.9352 71.3781C50.3924 70.5414 50.7441 69.6539 51.1544 68.7918C51.213 68.665 51.3302 68.5509 51.635 68.4622C51.6584 68.8298 51.7287 69.1975 51.6819 69.5651C51.4122 72.05 50.8847 74.4462 50.0993 76.8043C48.1769 82.5982 44.8595 87.3651 40.8387 91.5869C38.5295 94.0211 36.0795 96.3412 33.5006 98.4331C29.6205 101.577 26.0804 105.064 23.1615 109.26C22.2355 110.591 21.4618 112.062 20.6178 113.457C20.4303 113.761 20.231 114.052 20.0317 114.357C19.9262 114.293 19.8324 114.23 19.7386 114.154C19.7152 113.913 19.68 113.659 19.6917 113.419C19.7973 110.376 20.0317 107.333 19.9965 104.29C19.9614 101.248 19.6097 98.2176 19.4925 95.1748C19.3987 92.8674 19.387 90.56 19.4807 88.2526C19.5745 86.1734 19.7738 84.0942 20.0903 82.0277C20.313 80.5697 20.7116 79.1244 21.1922 77.7298C21.7783 76.0183 22.4699 74.3321 23.2553 72.722C23.7359 71.7204 24.4393 70.8456 25.0957 69.9582C26.8775 67.5367 28.8 65.2292 31.1561 63.429C32.7973 62.1865 34.4735 61.0201 36.4194 60.3736C36.9704 60.1961 37.4862 59.9171 38.0254 59.7016C38.1778 59.6382 38.3653 59.6509 38.5295 59.6255C38.5646 59.7016 38.5998 59.7777 38.635 59.8664C38.0488 60.4116 37.4276 60.9314 36.8766 61.5146C35.2003 63.2895 33.7233 65.2166 32.7855 67.562C32.0588 69.3877 31.2851 71.2133 30.7107 73.1023C30.2301 74.7124 29.9956 76.424 29.6557 78.0848C29.2689 79.9104 28.8937 81.7234 28.4952 83.5364C28.1552 85.1084 27.827 86.7059 27.4402 88.2653C27.112 89.6218 26.7251 90.9784 26.3148 92.3096C25.6584 94.4395 24.9551 96.5441 24.2752 98.674C24.1814 98.9529 24.1814 99.2698 24.1462 99.5614C24.2048 99.5868 24.2517 99.5995 24.3221 99.6122Z" fill="#F1F1F1"/>
<path d="M205.185 44.0692C205.502 44.0692 205.666 44.0185 205.783 44.0819C207.565 44.8426 209.358 45.5652 211.117 46.3766C213.731 47.581 216.31 48.8488 218.912 50.0659C221.256 51.1562 223.308 52.7156 225.254 54.4779C227.387 56.405 229.181 58.649 230.798 61.0832C232.639 63.847 234.092 66.839 235.229 69.9832C236.015 72.1384 236.531 74.4078 237.199 76.6138C237.715 78.2746 238.277 79.9101 238.805 81.5709C238.887 81.8245 238.863 82.1288 238.898 82.4077C238.676 82.3189 238.406 82.2809 238.23 82.1414C234.678 79.3142 231.314 76.2335 228.149 72.8991C224.961 69.5394 221.889 66.0783 219.205 62.2369C217.189 59.3336 215.348 56.3035 213.309 53.4256C212.301 51.993 211.035 50.7632 209.851 49.4574C208.479 47.936 207.073 46.4654 205.701 44.9567C205.513 44.7538 205.408 44.4622 205.185 44.0692Z" fill="#F1F1F1"/>
<path d="M31.4963 84.044C31.9183 82.7509 32.3754 81.4704 32.774 80.1646C33.2077 78.7573 33.5828 77.3247 33.9931 75.9047C34.3799 74.5355 34.7433 73.1663 35.1653 71.8097C35.5873 70.4532 35.9507 69.0586 36.5603 67.8161C37.4395 66.0032 38.4827 64.2663 39.5026 62.5547C42.0346 58.3203 45.4575 55.1 49.5017 52.6658C52.0923 51.1064 54.765 49.7245 57.4494 48.3807C59.114 47.5566 60.884 46.9607 62.6072 46.2507C63.1699 46.0099 63.7325 45.7436 64.2952 45.4774C64.3538 45.5408 64.4007 45.6042 64.4593 45.6549C64.3069 45.9211 64.1897 46.2634 63.9787 46.4536C61.5405 48.6723 59.4773 51.2586 57.5783 53.9844C54.6478 58.1808 51.7875 62.4279 48.9273 66.6751C46.2546 70.656 42.9606 73.9777 39.5143 77.1472C37.1112 79.3532 34.7199 81.5845 32.3168 83.8032C32.1175 83.9806 31.8714 84.0694 31.6486 84.2088C31.6018 84.1581 31.5431 84.0948 31.4963 84.044Z" fill="#F1F1F1"/>
<path d="M70.1549 117.564L70.1666 127.592L68.3849 128.657L68.3731 118.73L70.1549 117.564Z" fill="#F1F1F1"/>
<path d="M67.6329 118.947L67.6212 128.392L65.9918 129.419V120.05L67.6329 118.947Z" fill="#F1F1F1"/>
<path d="M65.0201 120.289L65.0318 129.481L63.4493 130.279L63.4376 121.113L65.0201 120.289Z" fill="#F1F1F1"/>
<path d="M134.872 113.468L137.052 112.327V124.929L134.872 126.02V113.468Z" fill="#F1F1F1"/>
<path d="M141.624 33.5715L141.612 29.5779L138.506 29.5018L128.87 17.2422L128.788 14.8587L124.814 13.6796L124.779 12.2343L121.52 11.144C121.52 11.144 123.009 8.54501 120.922 6.80812C120.922 6.80812 121.063 4.42464 119.07 4.32322L118.343 0L117.581 4.31054C117.581 4.31054 115.706 4.84302 115.718 6.94758C115.718 6.94758 113.502 9.21695 115.729 11.5751H113.818L110.337 16.3927H108.649L108.661 19.8792L100.35 34.1674L97.8059 34.7632L97.8176 37.9454L90.6318 43.3463L90.4325 45.0071L97.9114 46.0087L112.506 38.2243L141.94 40.7726L150.497 35.7014L141.624 33.5715ZM108.954 33.2165L97.8293 40.5571L96.3523 40.2402L111.662 30.085L141.19 33.6095L143.898 35.9043L108.954 33.2165Z" fill="#F1F1F1"/>
<path d="M200.294 67.3441V62.7293H198.641V55.9466L196.543 55.8451V57.4045H194.48V55.9973L191.62 56.0099L190.002 53.6518L189.814 49.4174L187.165 52.1051L184.539 49.5315L179.206 48.4285L181.914 45.5252L179.733 44.8913L176.744 40.847C176.744 40.847 173.286 40.8597 172.899 40.8597L169.488 45.7407L167.577 46.831L169.699 48.5172V50.3048C166.522 51.3317 165.549 53.3349 165.549 53.3349L163.873 54.8309L161.4 55.0844L161.189 58.4315L159.161 58.723L156.758 62.6152L153.663 61.208L153.675 67.94L152.913 68.0034L153.042 71.6927L148.681 74.279L153.194 78.0064L171.34 70.8052H171.387L200.247 71.9463L208.664 67.3441H200.294ZM169.605 66.2411L153.194 73.176L153.464 72.7323L155.023 70.6531L168.831 63.9084L197.434 65.9242L199.462 68.0541L169.605 66.2411Z" fill="#F1F1F1"/>
<path d="M141.906 40.7994L112.471 38.2511L112.506 65.1412L142.363 66.9669L141.906 40.7994ZM127.617 60.108C123.244 60.1207 119.692 56.2793 119.692 51.563C119.681 46.8341 123.232 42.9927 127.593 42.9927C131.965 42.98 135.517 46.8214 135.517 51.5377C135.529 56.2666 131.977 60.0954 127.617 60.108Z" fill="#F1F1F1"/>
<path d="M127.593 54.5412C129.117 54.5412 130.36 53.1973 130.36 51.5491C130.36 49.901 129.117 48.5571 127.593 48.5571C126.069 48.5571 124.827 49.901 124.827 51.5491C124.827 53.1973 126.069 54.5412 127.593 54.5412Z" fill="#F1F1F1"/>
<path d="M106.106 45.2859C103.61 44.8802 101.042 48.5061 100.374 53.3745C99.6943 58.2429 101.171 62.528 103.668 62.9211C106.153 63.3268 108.732 59.7008 109.412 54.8325C110.08 49.9768 108.603 45.7043 106.106 45.2859ZM106.716 54.4014C106.435 56.3792 105.403 57.8245 104.407 57.6723C103.399 57.5075 102.801 55.7833 103.082 53.8182C103.352 51.8531 104.395 50.3951 105.391 50.5473C106.388 50.7121 106.986 52.4363 106.716 54.4014Z" fill="#F1F1F1"/>
<path d="M200.248 92.8904L200.224 71.9336L171.364 70.7926L171.387 91.3944L162.901 91.4451L162.912 99.8507L169.512 99.838L169.559 141.27L209.192 141.219L209.145 101.448L214.69 101.435L214.678 92.8524L200.248 92.8904ZM181.246 91.4071L175.854 91.4198L175.83 74.8622L181.222 74.8496L181.246 91.4071ZM189.627 91.3944L184.528 91.4071L184.505 74.8369L189.604 74.8242L189.627 91.3944ZM196.708 91.6733L193.144 91.686L193.121 75.1158L196.684 75.1031L196.708 91.6733Z" fill="#F1F1F1"/>
<path d="M168.504 75.4334L168.516 89.3286L164.671 90.8246L164.647 77.0689L168.504 75.4334Z" fill="#F1F1F1"/>
<path d="M163.334 77.4007L163.31 91.1818L159.805 92.6778L159.829 79.0362L163.334 77.4007Z" fill="#F1F1F1"/>
<path d="M158.364 79.8081L158.376 93.2721L155.575 94.4385L155.551 81.0251L158.364 79.8081Z" fill="#F1F1F1"/>
<path d="M143.794 77.6773L113.386 76.1813L99.7298 82.4443L91.5476 81.1638L111.464 71.2622C111.464 71.2622 148.483 73.9753 148.67 73.9753C148.858 73.9753 143.794 77.6773 143.794 77.6773Z" fill="#F1F1F1"/>
<path d="M143.699 98.7891L143.711 105.42L150.276 105.407L150.299 121.762L129.926 129.445L129.937 141.248L121.802 141.261L121.755 103.987L119.716 99.6259L119.704 91.1696L113.421 93.6038L113.397 76.1841L143.723 77.6801L143.746 93.3629L153.851 93.3502V94.7575L143.91 98.8018H143.699V98.7891Z" fill="#F1F1F1"/>
<path d="M93.7863 113.519L93.7746 114.178L71.4788 113.354L62.4644 117.006L57.3066 115.484L61.9955 113.24L61.8079 109.766H63.2263L63.2146 106.483L65.899 106.47V103.884H67.8215L67.8097 99.1676L68.8061 100.245L71.5726 99.0281C71.5726 98.4576 71.7836 97.9378 72.1353 97.5702C72.4869 97.1898 72.9558 96.9616 73.4833 96.9616H74.1163V95.7699L71.725 93.5132L74.468 93.5005L75.7692 90.0774L78.1254 89.9887L79.3445 93.3864L81.9351 93.3737L79.5203 95.6684L79.5672 96.9236C79.5672 96.9236 82.3102 96.7207 82.3923 98.8506L85.358 98.838L85.7331 97.2912L86.8819 97.2659L86.7764 99.4972C86.7764 99.4972 88.1713 99.9917 88.1127 102.261L91.6294 102.248V103.415L88.6989 105.57L88.6285 109.183L71.5023 107.675L64.1172 111.034L63.2029 112.758L71.3616 109.297L88.4761 110.426L88.4527 113.481L93.7863 113.519Z" fill="#F1F1F1"/>
<path d="M71.4781 113.341L71.5132 141.499L92.9181 141.473L92.8829 114.139L71.4781 113.341ZM77.9722 128.643L74.7837 128.656L74.772 117.562L77.9605 117.55L77.9722 128.643ZM84.6773 128.63L81.442 128.643L81.4303 118.146L84.6656 118.133L84.6773 128.63ZM90.6088 128.542L87.7837 128.554L87.772 118.488L90.5971 118.475L90.6088 128.542Z" fill="#F1F1F1"/>
<path d="M119.976 154.128V158.287H108.207V186.28H103.717V158.287H92.1706V154.128H119.976Z" fill="#F1F1F1"/>
<path d="M72.383 154.37V186.28H76.8843V154.37H72.383Z" fill="#F1F1F1"/>
<path d="M86.918 154.37H82.4166V186.28H86.918V154.37Z" fill="#F1F1F1"/>
<path d="M150.606 176.339C150.207 171.192 146.175 169.709 146.175 169.709C148.39 168.213 149.856 165.55 149.856 162.52C149.856 160.263 149.012 158.235 147.652 156.764C146.292 155.294 144.416 154.381 142.33 154.381H130.643V186.292H141.884C141.884 186.292 148.167 186.076 150.031 180.777C150.055 180.713 150.078 180.65 150.102 180.586C150.489 179.483 150.746 178.076 150.606 176.339ZM141.72 157.221C144.276 157.221 146.351 159.465 146.351 162.229V162.406C146.351 165.576 143.983 168.137 141.052 168.137H133.89V157.221H141.72ZM147.253 179.179C147.042 181.119 145.647 182.184 144.311 182.754C142.975 183.338 141.685 183.426 141.685 183.426H133.89V170.989H141.263C146.362 171.471 146.972 174.374 146.972 174.374C146.972 174.374 147.675 175.287 147.253 179.179Z" fill="#F1F1F1"/>
<path d="M144.31 182.77C142.974 183.353 141.684 183.442 141.684 183.442L144.31 182.77Z" fill="#F1F1F1"/>
<path d="M175.926 154.37V186.28H172.468V170.991H159.585V186.28H156.127V154.37H159.585V167.669H172.468V154.37H175.926Z" fill="#F1F1F1"/>
<path d="M201.937 154.37V178.319C201.937 183.01 198.433 186.8 194.095 186.8H190.45C185.737 186.8 181.916 182.667 181.916 177.571V154.37H185.456V176.455C185.456 180.043 188.152 182.959 191.469 182.959H192.665C195.83 182.959 198.409 180.182 198.409 176.747V154.37H201.937Z" fill="#F1F1F1"/>
<path d="M148.941 191.149V215.098C148.941 219.789 145.436 223.58 141.098 223.58H137.453C132.74 223.58 128.919 219.447 128.919 214.35V191.149H132.459V213.234C132.459 216.822 135.155 219.738 138.473 219.738H139.668C142.833 219.738 145.412 216.962 145.412 213.526V191.149H148.941Z" fill="#F1F1F1"/>
<path d="M118.862 191.452V223.274H115.404V198.222L106.941 223.274H104.08L95.617 198.552V223.274H92.1589V191.452H96.3672L105.522 217.582L114.279 191.452H118.862Z" fill="#F1F1F1"/>
<path d="M179.853 191.401V223.311H176.16L162.668 197.93V223.311H159.21V191.401H163.031L176.395 216.807V191.401H179.853Z" fill="#F1F1F1"/>
</svg>
