<svg width="26" height="25" viewBox="0 0 26 25" fill="none" xmlns="http://www.w3.org/2000/svg">
<path d="M12.9592 8.74434C10.7634 8.74434 8.95918 10.5484 8.95918 12.7443C8.95918 14.9403 10.7634 16.7443 12.9592 16.7443C15.1549 16.7443 16.9592 14.9403 16.9592 12.7443C16.9592 10.5484 15.1549 8.74434 12.9592 8.74434ZM24.9592 12.7443C24.9592 11.0929 25.0519 9.39278 24.9592 7.74434C24.8664 5.82965 24.3592 4.14447 22.9592 2.74434C21.5562 1.34123 19.8737 0.837087 17.9592 0.744344C16.3079 0.651601 14.6075 0.744344 12.9592 0.744344C11.3079 0.744344 9.6075 0.651601 7.95919 0.744344C6.04463 0.837087 4.3592 1.34422 2.95918 2.74434C1.55617 4.14746 1.05192 5.82965 0.959185 7.74434C0.866449 9.39577 0.959185 11.0959 0.959185 12.7443C0.959185 14.3928 0.866449 16.0959 0.959185 17.7443C1.05192 19.659 1.55917 21.3442 2.95918 22.7443C4.3622 24.1475 6.04463 24.6516 7.95919 24.7443C9.61049 24.8371 11.3109 24.7443 12.9592 24.7443C14.6105 24.7443 16.3109 24.8371 17.9592 24.7443C19.8737 24.6516 21.5592 24.1445 22.9592 22.7443C24.3622 21.3412 24.8664 19.659 24.9592 17.7443C25.0549 16.0959 24.9592 14.3958 24.9592 12.7443ZM12.9592 18.7443C9.56384 18.7443 6.95919 16.1399 6.95919 12.7443C6.95919 9.34875 9.56384 6.74434 12.9592 6.74434C16.3545 6.74434 18.9592 9.34875 18.9592 12.7443C18.9592 16.1399 16.3545 18.7443 12.9592 18.7443ZM18.9592 7.74434C18.1664 7.74434 17.9592 7.53715 17.9592 6.74434C17.9592 5.95154 18.1664 4.74434 18.9592 4.74434C19.7519 4.74434 20.9592 5.95154 20.9592 6.74434C20.9594 6.9326 21.0311 6.57037 20.9592 6.74434C20.8873 6.91831 20.0923 7.61123 19.9592 7.74434C19.8261 7.87746 20.1331 7.67241 19.9592 7.74434C19.7852 7.81628 19.1474 7.74458 18.9592 7.74434Z" fill="#F1F1F1"/>
</svg>
