<svg width="230" height="230" viewBox="0 0 230 230" fill="none" xmlns="http://www.w3.org/2000/svg">
<circle cx="115" cy="115" r="114" fill="white" fill-opacity="0.6" stroke="#189BA5" stroke-width="2"/>
<path d="M83.3709 128.35C81.6442 128.35 79.9525 128.105 78.2959 127.615C76.6625 127.102 75.2859 126.402 74.1659 125.515L76.1259 121.98C77.0125 122.703 78.0859 123.287 79.3459 123.73C80.6059 124.173 81.9242 124.395 83.3009 124.395C84.9342 124.395 86.2059 124.068 87.1159 123.415C88.0259 122.738 88.4809 121.828 88.4809 120.685C88.4809 119.565 88.0609 118.678 87.2209 118.025C86.3809 117.372 85.0275 117.045 83.1609 117.045H80.9209V113.93L87.9209 105.6L88.5159 107.315H75.3559V103.5H92.0509V106.545L85.0509 114.875L82.6709 113.475H84.0359C87.0459 113.475 89.2975 114.152 90.7909 115.505C92.3075 116.835 93.0659 118.55 93.0659 120.65C93.0659 122.027 92.7159 123.298 92.0159 124.465C91.3159 125.632 90.2425 126.577 88.7959 127.3C87.3725 128 85.5642 128.35 83.3709 128.35ZM98.772 128.245C97.9786 128.245 97.302 127.977 96.742 127.44C96.182 126.88 95.902 126.18 95.902 125.34C95.902 124.453 96.182 123.753 96.742 123.24C97.302 122.703 97.9786 122.435 98.772 122.435C99.5653 122.435 100.242 122.703 100.802 123.24C101.362 123.753 101.642 124.453 101.642 125.34C101.642 126.18 101.362 126.88 100.802 127.44C100.242 127.977 99.5653 128.245 98.772 128.245ZM108.169 128L118.284 105.32L119.474 107.35H105.579L107.749 105.145V111.515H103.514V103.5H122.554V106.545L113.034 128H108.169ZM130.268 123.835L130.373 118.34L140.138 109.31H145.388L137.093 117.64L134.783 119.565L130.268 123.835ZM126.698 128V102.03H131.073V128H126.698ZM140.803 128L133.978 119.565L136.743 116.065L146.123 128H140.803ZM153.695 123.625V107.875H157.44V123.625H153.695ZM147.5 117.5V114H163.635V117.5H147.5Z" fill="#189BA5"/>
<path d="M52.7665 67.7832C52.4691 70.4742 51.5991 72.6902 50.7665 74.7832C50.3799 75.8131 50.0341 77.152 49.7665 77.7832C49.4988 78.4144 48.7665 78.7832 48.7665 78.7832C48.7665 78.7832 48.5991 78.1453 47.7665 76.7832C46.9339 75.4211 45.6178 73.6071 45.7665 70.7832C45.8854 67.9593 47.6068 65.0091 48.7665 62.7832C49.0638 62.2184 48.4988 61.2151 48.7665 60.7832C49.0341 60.3181 49.5286 60.1154 49.7665 59.7832C50.2125 59.152 50.7665 58.7832 50.7665 58.7832C50.7665 58.7832 51.2312 59.2217 51.7665 60.7832C52.0341 61.5805 52.6178 62.6869 52.7665 63.7832C52.8854 64.8463 52.8854 66.4211 52.7665 67.7832Z" fill="#189BA5"/>
<path d="M42.7669 85.7832C43.1419 88.6366 43.0348 92.3786 42.7669 94.7832C42.7133 95.3924 41.8472 95.2702 41.7669 95.7832C41.7133 96.2962 41.8205 97.3985 41.7669 97.7832C41.6329 98.5206 41.7669 98.7832 41.7669 98.7832C41.7669 98.7832 40.892 97.9374 39.7669 96.7832C39.2043 96.2061 38.3026 95.7771 37.7669 94.7832C37.2579 93.8214 36.008 92.2901 35.7669 90.7832C35.2311 87.8336 36.1776 84.3801 36.7669 81.7832C37.0615 80.4687 37.499 79.5527 37.7669 78.7832C38.008 77.9817 37.7669 77.7832 37.7669 77.7832C37.7669 77.7832 38.4454 78.4305 38.7669 78.7832C39.0883 79.1359 39.3115 79.0458 39.7669 79.7832C40.2223 80.4885 41.3651 81.7252 41.7669 82.7832C42.1419 83.8412 42.5794 84.3725 42.7669 85.7832Z" fill="#189BA5"/>
<path d="M36.7658 108.783C37.9256 111.654 38.3308 114.196 38.7658 116.783C38.8818 117.446 39.6788 118.247 39.7658 118.783C39.8528 119.32 39.7078 120.373 39.7658 120.783C39.8528 121.572 39.7658 121.783 39.7658 121.783C39.7658 121.783 39.2877 121.909 38.7658 121.783C38.2728 121.689 37.5777 121.13 36.7658 120.783C35.9539 120.405 34.6937 119.604 33.7658 118.783C32.8669 117.963 32.5487 117.266 31.7658 115.783C30.2869 112.817 29.7368 108.781 29.7658 105.783C29.7658 105.026 29.7368 104.414 29.7658 103.783C29.8238 103.152 29.7078 102.225 29.7658 101.783C29.8818 100.868 29.7658 100.783 29.7658 100.783C29.7658 100.783 31.4029 101.584 32.7658 102.783C33.4327 103.383 34.0408 103.805 34.7658 104.783C35.5487 105.793 36.1858 107.363 36.7658 108.783Z" fill="#189BA5"/>
<path d="M38.766 131.783C40.9559 134.368 42.4342 137.263 43.766 139.783C43.9139 140.106 43.618 140.493 43.766 140.783C43.9139 141.074 44.6476 141.525 44.766 141.783C45.0323 142.3 44.5884 142.363 44.766 142.783C45.1211 143.591 45.766 144.783 45.766 144.783C45.766 144.783 45.3282 144.686 44.766 144.783C44.2037 144.88 43.7426 144.816 42.766 144.783C40.872 144.654 38.2814 144.271 35.766 141.783C33.2505 139.263 30.7426 135.047 29.766 131.783C29.4996 130.976 29.9435 130.494 29.766 129.783C29.618 129.072 28.8547 128.3 28.766 127.783C28.618 126.685 28.766 125.783 28.766 125.783C28.766 125.783 29.2037 125.686 29.766 125.783C30.3282 125.913 30.8486 126.428 31.766 126.783C32.6538 127.171 33.671 127.976 34.766 128.783C35.2986 129.171 36.2333 129.266 36.766 129.783C37.3282 130.3 38.2333 131.137 38.766 131.783Z" fill="#189BA5"/>
<path d="M45.7666 152.783C46.1504 153.002 47.3828 152.564 47.7666 152.783C48.1504 153.033 48.4123 153.533 48.7666 153.783C49.4752 154.315 50.0875 155.251 50.7666 155.783C51.0914 156.065 51.4418 156.501 51.7666 156.783C51.9142 156.939 51.619 156.626 51.7666 156.783C51.9438 156.908 52.619 157.658 52.7666 157.783C53.3866 158.346 53.2352 158.282 53.7666 158.783C54.859 159.784 56.1171 161.157 56.7666 161.783C57.4162 162.409 57.7666 162.783 57.7666 162.783C57.7666 162.783 57.2981 162.47 56.7666 162.783C56.2352 163.096 55.7705 164.47 54.7666 164.783C53.7628 165.096 52.1543 164.845 50.7666 164.783C49.3789 164.72 48.42 164.565 46.7666 163.783C43.3712 162.187 39.7743 158.662 37.7666 155.783C37.2352 155.063 37.1504 154.409 36.7666 153.783C36.3828 153.126 36.0028 152.284 35.7666 151.783C35.2647 150.781 34.7666 149.783 34.7666 149.783C34.7666 149.783 35.1466 149.877 35.7666 149.783C36.3866 149.72 36.7332 149.689 37.7666 149.783C38.2981 149.814 39.1466 149.689 39.7666 149.783C40.3866 149.877 41.0875 150.595 41.7666 150.783C42.4457 150.971 43.058 150.439 43.7666 150.783C44.5047 151.065 45.0285 152.345 45.7666 152.783Z" fill="#189BA5"/>
<path d="M59.7666 168.783C61.635 169.165 63.0168 170.178 64.7666 170.783C65.6267 171.133 66.9658 171.465 67.7666 171.783C68.1818 171.942 68.3811 172.624 68.7666 172.783C69.1521 172.942 69.4107 172.656 69.7666 172.783C71.1902 173.42 72.8769 174.337 73.7666 174.783C74.1818 175.006 74.5293 174.656 74.7666 174.783C75.0039 174.879 74.7666 174.783 74.7666 174.783C74.7666 174.783 74.1818 175.242 73.7666 175.783C73.3514 176.324 72.686 177.051 71.7666 177.783C70.8769 178.484 70.2198 179.274 68.7666 179.783C68.0252 180.07 66.6267 180.656 65.7666 180.783C64.9065 180.879 64.775 180.879 63.7666 180.783C62.7582 180.688 60.8046 180.07 59.7666 179.783C58.7582 179.465 57.7453 179.197 56.7666 178.783C55.7879 178.305 55.686 178.324 54.7666 177.783C53.8769 177.242 52.5377 176.356 51.7666 175.783C51.559 175.656 50.9445 174.91 50.7666 174.783C50.5887 174.624 50.9445 174.942 50.7666 174.783C50.4107 174.497 50.0928 174.038 49.7666 173.783C49.1438 173.242 48.1818 173.229 47.7666 172.783C46.9065 171.892 46.7666 170.783 46.7666 170.783C46.7666 170.783 47.1438 171.102 47.7666 170.783C48.3598 170.497 49.6396 170.102 50.7666 169.783C51.3301 169.624 51.0845 168.879 51.7666 168.783C52.4487 168.656 54.0252 168.815 54.7666 168.783C55.5377 168.751 55.9362 168.719 56.7666 168.783C57.597 168.879 58.8472 168.592 59.7666 168.783Z" fill="#189BA5"/>
<path d="M76.7666 180.783C77.7523 180.557 78.7809 180.88 79.7666 180.783C80.7523 180.654 81.8099 179.816 82.7666 179.783C83.7233 179.686 84.8679 179.783 85.7666 179.783C86.6653 179.719 86.9549 179.783 87.7666 179.783C89.3901 179.686 90.7809 179.848 91.7666 179.783C92.7523 179.751 93.7666 179.783 93.7666 179.783C93.7666 179.783 93.9405 180.04 93.7666 180.783C93.5927 181.526 93.3464 182.62 92.7666 183.783C92.4767 184.365 92.2015 185.169 91.7666 185.783C91.5637 186.106 90.9985 186.46 90.7666 186.783C90.5057 187.074 90.0855 187.46 89.7666 187.783C89.1578 188.365 88.5783 189.266 87.7666 189.783C86.9549 190.3 85.8103 190.396 84.7666 190.783C83.7229 191.171 82.9262 191.622 81.7666 191.783C80.607 191.977 78.9262 191.816 77.7666 191.783C76.607 191.783 75.8682 191.977 74.7666 191.783C73.636 191.622 72.7523 191.074 71.7666 190.783C71.2738 190.654 70.2015 189.945 69.7666 189.783C69.3317 189.622 69.1725 189.945 68.7666 189.783C67.9549 189.46 67.3464 189.074 66.7666 188.783C65.607 188.202 64.7666 187.783 64.7666 187.783C64.7666 187.783 65.2738 187.333 65.7666 186.783C66.2594 186.234 66.7519 185.526 67.7666 184.783C68.7813 184.073 70.2881 183.462 71.7666 182.783C73.2451 182.169 74.8242 181.139 76.7666 180.783Z" fill="#189BA5"/>
<path d="M55.7666 70.7833C53.5816 71.6567 52.0953 73.101 50.7666 74.7833C50.117 75.6244 50.0914 76.2009 49.7666 76.7833C49.4418 77.3656 48.7666 77.7833 48.7666 77.7833C48.7666 77.7833 49.3198 78.6862 50.7666 78.7833C52.1839 78.9127 54.7587 78.7538 56.7666 77.7833C58.7745 76.7804 60.4674 75.0773 61.7666 73.7833C62.0914 73.4598 62.5009 73.0744 62.7666 72.7833C63.0323 72.4921 62.5894 72.0097 62.7666 71.7833C63.1505 71.3627 63.7666 71.7833 63.7666 71.7833C63.7666 71.7833 63.1249 70.2362 61.7666 69.7833C61.0875 69.5568 59.682 69.7833 58.7666 69.7833C57.8217 69.7509 56.8296 70.3303 55.7666 70.7833Z" fill="#189BA5"/>
<path d="M47.7668 88.7837C45.7839 90.3087 43.645 92.7503 42.7668 94.7837C42.5402 95.292 42.9085 96.3351 42.7668 96.7837C42.6252 97.2322 41.8518 97.4547 41.7668 97.7837C41.5685 98.4415 41.7668 98.7837 41.7668 98.7837C41.7668 98.7837 43.2655 99.0827 44.7668 98.7837C45.5317 98.6342 45.8887 98.2023 46.7668 97.7837C47.6733 97.365 48.832 96.5312 49.7668 95.7837C51.5515 94.2288 52.7754 92.4881 53.7668 90.7837C54.2484 89.9464 55.5119 88.3219 55.7668 87.7837C56.0218 87.2454 55.7668 86.7837 55.7668 86.7837C55.7668 86.7837 55.2201 86.8734 54.7668 86.7837C54.3136 86.694 53.5317 86.7837 52.7668 86.7837C52.002 86.7837 51.7016 86.5146 50.7668 86.7837C49.8037 87.0827 48.7583 88.0361 47.7668 88.7837Z" fill="#189BA5"/>
<path d="M42.7659 108.783C41.1557 111.064 40.0157 114.252 39.7659 116.783C39.7104 117.408 39.7659 118.252 39.7659 118.783C39.7659 119.314 39.7659 120.408 39.7659 120.783C39.7937 121.595 39.7659 121.783 39.7659 121.783C39.7659 121.783 40.2939 122.002 40.7659 121.783C41.2378 121.596 42.0718 121.252 42.7659 120.783C43.4877 120.314 43.9885 119.533 44.7659 118.783C45.5432 118.002 46.0996 116.908 46.7659 115.783C48.154 113.565 49.1551 110.877 49.7659 108.783C49.9047 108.252 50.6548 107.221 50.7659 106.783C50.8769 106.346 50.7104 106.096 50.7659 105.783C50.9047 105.127 50.7659 104.783 50.7659 104.783C50.7659 104.783 49.3483 104.377 47.7659 104.783C46.9608 105.002 46.682 105.221 45.7659 105.783C44.822 106.377 43.5988 107.627 42.7659 108.783Z" fill="#189BA5"/>
<path d="M44.767 128.783C43.8352 131.854 43.2345 135.971 43.767 138.783C43.8203 139.139 44.7138 139.46 44.767 139.783C44.8469 140.107 44.7138 140.493 44.767 140.783C44.9268 141.365 44.6339 142.363 44.767 142.783C44.9002 143.204 45.6872 143.557 45.767 143.783C45.8469 144.01 45.767 143.783 45.767 143.783C45.767 143.783 45.3677 143.171 45.767 142.783C46.1664 142.396 47.2079 142.559 47.767 141.783C48.9119 140.199 50.0748 137.725 50.767 134.783C51.4593 131.842 51.7937 128.143 51.767 125.783C51.7404 125.202 51.7937 124.301 51.767 123.783C51.7404 123.299 51.7937 123.171 51.767 122.783C51.7404 122.072 51.767 121.783 51.767 121.783C51.767 121.783 51.2463 121.59 50.767 121.783C50.2878 121.977 49.5125 122.266 48.767 122.783C48.0215 123.301 47.5125 124.814 46.767 125.783C46.3943 126.268 46.0865 126.169 45.767 126.783C45.4475 127.398 44.98 128.008 44.767 128.783Z" fill="#189BA5"/>
<path d="M51.7662 147.783C51.7662 148.229 51.7077 148.369 51.7662 148.783C51.7955 149.229 51.7077 150.337 51.7662 150.783C51.8833 151.644 52.5029 151.955 52.7662 152.783C52.8833 153.198 52.62 153.369 52.7662 153.783C52.854 153.974 52.6785 154.592 52.7662 154.783C52.854 154.974 53.7077 155.592 53.7662 155.783C54.0881 156.548 54.4152 157.114 54.7662 157.783C55.5269 159.058 56.1811 160.082 56.7662 160.783C57.3221 161.516 57.7662 161.783 57.7662 161.783C57.7662 161.783 57.4737 161.325 57.7662 160.783C58.0881 160.209 59.3859 159.803 59.7662 158.783C60.1466 157.763 60.5029 156.154 60.7662 154.783C61.0295 153.413 60.8248 152.409 60.7662 150.783C60.6492 147.564 59.4976 144.142 58.7662 141.783C58.5615 141.209 58.9418 140.261 58.7662 139.783C58.5907 139.305 57.8833 139.166 57.7662 138.783C57.5029 138.082 57.7662 137.783 57.7662 137.783C57.7662 137.783 57.2636 138.369 56.7662 138.783C56.2982 139.166 55.4391 138.955 54.7662 139.783C54.4444 140.198 54.0881 141.273 53.7662 141.783C53.4444 142.293 53.0295 143.146 52.7662 143.783C52.5029 144.421 51.9418 145.05 51.7662 145.783C51.5907 146.548 51.7955 146.923 51.7662 147.783Z" fill="#189BA5"/>
<path d="M62.7666 162.783C63.213 164.535 64.7622 166.318 65.7666 167.783C66.2409 168.548 66.2086 169.146 66.7666 169.783C67.0456 170.102 67.4876 170.497 67.7666 170.783C68.0456 171.07 68.4876 171.528 68.7666 171.783C69.8826 172.834 70.9854 173.274 71.7666 173.783C72.1572 174.038 72.5713 174.688 72.7666 174.783C72.9898 174.911 73.7666 174.783 73.7666 174.783C73.7666 174.783 73.6829 174.484 73.7666 173.783C73.8782 173.083 73.7666 171.962 73.7666 170.783C73.7945 169.605 73.9619 168.216 73.7666 166.783C73.655 166.083 72.934 165.579 72.7666 164.783C72.5992 164.019 73.0456 162.579 72.7666 161.783C71.6785 158.662 69.1337 155.853 67.7666 153.783C67.6829 153.656 67.8503 153.911 67.7666 153.783C67.6829 153.656 67.8224 153.911 67.7666 153.783C67.5992 153.56 67.9061 153.006 67.7666 152.783C67.4597 152.369 66.9619 152.102 66.7666 151.783C66.3202 151.178 65.7666 150.783 65.7666 150.783C65.7666 150.783 65.1014 151.21 64.7666 151.783C64.4318 152.356 64.1851 152.7 63.7666 153.783C63.5713 154.325 62.934 155.146 62.7666 155.783C62.5992 156.42 62.8503 157.051 62.7666 157.783C62.6829 158.516 62.7108 159.955 62.7666 160.783C62.8224 161.643 62.5434 161.891 62.7666 162.783Z" fill="#189BA5"/>
<path d="M60.7663 56.7832C58.26 59.1426 56.5034 62.5513 55.7663 64.7832C55.5894 65.3571 54.8842 66.3049 54.7663 66.7832C54.6483 67.2296 54.8253 67.4325 54.7663 67.7832C54.6483 68.4528 54.7663 68.7832 54.7663 68.7832C54.7663 68.7832 55.2061 69.0701 55.7663 68.7832C56.0611 68.6238 56.3535 68.0064 56.7663 67.7832C57.1496 67.56 57.2945 67.0701 57.7663 66.7832C59.6534 65.6991 62.5844 63.8238 64.7663 61.7832C66.9187 59.7107 68.4689 57.5687 69.7663 55.7832C70.0906 55.3368 70.5304 55.1658 70.7663 54.7832C71.0317 54.4006 70.5894 54.0383 70.7663 53.7832C71.1201 53.2093 71.7663 52.7832 71.7663 52.7832C71.7663 52.7832 71.415 52.7832 70.7663 52.7832C70.4419 52.7832 70.2086 52.7513 69.7663 52.7832C69.324 52.847 68.3265 52.6557 67.7663 52.7832C67.2061 52.8788 66.415 53.56 65.7663 53.7832C65.4419 53.8788 65.0906 53.6557 64.7663 53.7832C64.4714 53.8788 64.1201 54.6238 63.7663 54.7832C63.4419 54.9426 63.0906 54.6238 62.7663 54.7832C62.4419 54.9745 62.1201 55.56 61.7663 55.7832C61.4419 56.0383 61.0611 56.4962 60.7663 56.7832C61.0611 56.4962 60.4419 57.0383 60.7663 56.7832Z" fill="#189BA5"/>
<path d="M78.7668 172.783C79.2876 173.546 80.1012 174.084 80.7668 174.783C81.4613 175.387 82.0144 176.275 82.7668 176.783C83.5481 177.26 84.9565 177.402 85.7668 177.783C86.577 178.133 87.0144 178.529 87.7668 178.783C89.3005 179.196 90.7829 179.72 91.7668 179.783C92.7506 179.878 93.7668 179.783 93.7668 179.783C93.7668 179.783 93.9404 179.514 93.7668 178.783C93.5931 178.053 93.2008 176.958 92.7668 175.783C92.5353 175.211 92.0851 174.418 91.7668 173.783C91.6221 173.466 91.9404 173.101 91.7668 172.783C91.5931 172.466 90.9404 172.133 90.7668 171.783C90.3906 171.116 90.2298 170.45 89.7668 169.783C89.3038 169.148 88.3166 168.418 87.7668 167.783C85.6254 165.242 82.7345 163.213 80.7668 161.783C80.5353 161.624 80.9983 161.942 80.7668 161.783C80.5353 161.624 79.9693 160.91 79.7668 160.783C79.3616 160.497 79.0851 161.006 78.7668 160.783C78.1591 160.434 77.7668 159.783 77.7668 159.783C77.7668 159.783 77.9693 160.084 77.7668 160.783C77.5931 161.482 76.8825 162.544 76.7668 163.783C76.651 165.022 76.4774 166.259 76.7668 167.783C77.0851 169.371 77.725 171.195 78.7668 172.783Z" fill="#189BA5"/>
<path d="M170.765 71.7844C172.916 72.6431 174.45 74.1 175.765 75.7844C176.392 76.6431 176.436 77.1899 176.765 77.7844C177.093 78.3789 177.765 78.7844 177.765 78.7844C177.765 78.7844 177.229 79.6523 175.765 79.7844C174.301 79.9165 171.767 79.7422 169.765 78.7844C167.763 77.7936 166.05 76.0724 164.765 74.7844C164.436 74.4541 164.004 74.0486 163.765 73.7844C163.496 73.5202 163.974 72.9826 163.765 72.7844C163.406 72.355 162.765 72.7844 162.765 72.7844C162.765 72.7844 163.42 71.2468 164.765 70.7844C165.452 70.5532 166.838 70.7844 167.765 70.7844C168.661 70.7183 169.689 71.322 170.765 71.7844Z" fill="#189BA5"/>
<path d="M178.765 89.7844C180.732 91.2991 182.882 93.7245 183.765 95.7844C183.993 96.2994 183.594 97.3603 183.765 97.7844C183.908 98.2388 184.68 98.4512 184.765 98.7844C184.965 99.4509 184.765 99.7844 184.765 99.7844C184.765 99.7844 183.276 100.118 181.765 99.7844C180.996 99.633 180.649 99.1782 179.765 98.7844C178.853 98.3906 177.677 97.5418 176.765 96.7844C174.97 95.2395 173.763 93.4505 172.765 91.7844C172.281 90.9362 171.05 89.3297 170.765 88.7844C170.509 88.2392 170.765 87.7844 170.765 87.7844C170.765 87.7844 171.309 87.8753 171.765 87.7844C172.221 87.6936 173.024 87.7844 173.765 87.7844C174.506 87.7541 174.825 87.5118 175.765 87.7844C176.706 88.0268 177.768 89.0271 178.765 89.7844Z" fill="#189BA5"/>
<path d="M183.766 108.784C185.38 111.07 186.488 114.244 186.766 116.784C186.822 117.419 186.766 118.244 186.766 118.784C186.766 119.324 186.766 120.371 186.766 120.784C186.766 121.578 186.766 121.784 186.766 121.784C186.766 121.784 186.239 122.006 185.766 121.784C185.293 121.594 184.462 121.229 183.766 120.784C183.042 120.339 182.545 119.546 181.766 118.784C180.959 118.022 180.434 116.895 179.766 115.784C178.374 113.561 177.35 110.88 176.766 108.784C176.627 108.276 175.877 107.229 175.766 106.784C175.655 106.339 175.822 106.133 175.766 105.784C175.627 105.117 175.766 104.784 175.766 104.784C175.766 104.784 177.18 104.371 178.766 104.784C179.573 104.975 179.875 105.181 180.766 105.784C181.684 106.356 182.931 107.641 183.766 108.784Z" fill="#189BA5"/>
<path d="M181.766 128.785C182.7 131.716 183.3 135.103 182.766 137.785C182.713 138.128 181.847 138.473 181.766 138.785C181.686 139.096 181.82 139.504 181.766 139.785C181.633 140.346 181.873 141.379 181.766 141.785C181.66 142.19 180.847 142.566 180.766 142.785C180.686 143.003 180.766 142.785 180.766 142.785C180.766 142.785 181.167 142.159 180.766 141.785C180.366 141.41 179.327 141.564 178.766 140.785C177.619 139.257 176.46 136.591 175.766 133.785C175.073 130.978 174.766 128.03 174.766 125.785C174.793 125.223 174.74 124.252 174.766 123.785C174.793 123.317 174.74 123.128 174.766 122.785C174.793 122.098 174.766 121.785 174.766 121.785C174.766 121.785 175.286 121.566 175.766 121.785C176.247 122.003 177.019 122.317 177.766 122.785C178.514 123.283 179.019 123.88 179.766 124.785C180.14 125.252 180.446 126.192 180.766 126.785C181.007 127.377 181.526 128.036 181.766 128.785Z" fill="#189BA5"/>
<path d="M175.766 147.784C175.766 148.201 175.796 148.335 175.766 148.784C175.736 149.233 175.826 150.335 175.766 150.784C175.647 151.65 175.035 151.982 174.766 152.784C174.647 153.201 174.915 153.399 174.766 153.784C174.706 153.977 174.826 154.592 174.766 154.784C174.676 154.977 173.826 155.592 173.766 155.784C173.437 156.554 173.124 157.11 172.766 157.784C171.989 159.068 171.363 160.078 170.766 160.784C170.199 161.522 169.766 161.784 169.766 161.784C169.766 161.784 170.065 161.362 169.766 160.784C169.437 160.207 168.154 159.811 167.766 158.784C167.378 157.757 167.035 156.164 166.766 154.784C166.497 153.405 166.736 152.421 166.766 150.784C166.886 147.576 168.019 144.159 168.766 141.784C168.975 141.207 168.587 140.265 168.766 139.784C168.945 139.303 169.647 139.137 169.766 138.784C170.035 138.078 169.766 137.784 169.766 137.784C169.766 137.784 170.258 138.399 170.766 138.784C171.244 139.169 172.079 138.95 172.766 139.784C173.095 140.201 173.437 141.271 173.766 141.784C174.095 142.298 174.497 143.142 174.766 143.784C175.035 144.426 175.587 145.014 175.766 145.784C175.856 146.49 175.736 146.918 175.766 147.784Z" fill="#189BA5"/>
<path d="M163.765 162.784C163.315 164.536 161.777 166.319 160.765 167.784C160.287 168.549 160.327 169.147 159.765 169.784C159.484 170.103 159.046 170.498 158.765 170.784C158.484 171.071 158.046 171.529 157.765 171.784C156.669 172.835 155.552 173.243 154.765 173.784C154.371 174.039 153.99 174.657 153.765 174.784C153.54 174.912 152.765 174.784 152.765 174.784C152.765 174.784 152.849 174.485 152.765 173.784C152.653 173.084 152.765 171.963 152.765 170.784C152.737 169.574 152.568 168.217 152.765 166.784C152.877 166.084 153.596 165.58 153.765 164.784C153.934 164.02 153.512 162.58 153.765 161.784C154.833 158.695 157.416 155.854 158.765 153.784C158.849 153.657 158.681 153.912 158.765 153.784C158.849 153.657 158.709 153.912 158.765 153.784C158.934 153.561 158.624 153.007 158.765 152.784C159.046 152.37 159.54 152.103 159.765 151.784C160.215 151.179 160.765 150.784 160.765 150.784C160.765 150.784 161.428 151.211 161.765 151.784C162.102 152.357 162.343 152.733 162.765 153.784C162.99 154.326 163.596 155.147 163.765 155.784C163.934 156.421 163.709 157.052 163.765 157.784C163.849 158.517 163.821 159.956 163.765 160.784C163.709 161.676 163.962 161.892 163.765 162.784Z" fill="#189BA5"/>
<path d="M148.766 172.784C148.245 173.545 147.431 174.087 146.766 174.784C146.071 175.387 145.518 176.277 144.766 176.784C143.984 177.26 142.576 177.404 141.766 177.784C140.955 178.133 140.518 178.53 139.766 178.784C138.232 179.196 136.778 179.721 135.766 179.784C134.782 179.879 133.766 179.784 133.766 179.784C133.766 179.784 133.592 179.514 133.766 178.784C133.939 178.055 134.332 176.958 134.766 175.784C134.997 175.213 135.447 174.418 135.766 173.784C135.91 173.467 135.592 173.101 135.766 172.784C135.939 172.467 136.592 172.133 136.766 171.784C137.142 171.118 137.303 170.45 137.766 169.784C138.229 169.15 139.216 168.418 139.766 167.784C141.907 165.247 144.827 163.211 146.766 161.784C146.997 161.626 146.534 161.943 146.766 161.784C146.997 161.626 147.563 160.911 147.766 160.784C148.171 160.499 148.447 161.006 148.766 160.784C149.373 160.372 149.766 159.784 149.766 159.784C149.766 159.784 149.563 160.087 149.766 160.784C149.968 161.482 150.65 162.547 150.766 163.784C150.881 165.021 151.055 166.262 150.766 167.784C150.447 169.402 149.807 171.199 148.766 172.784Z" fill="#189BA5"/>
<path d="M174.767 68.7842C175.068 71.3345 175.985 73.8077 176.767 75.7842C177.158 76.7724 177.496 77.1785 177.767 77.7842C178.038 78.3899 178.767 78.7842 178.767 78.7842C178.767 78.7842 178.924 78.0912 179.767 76.7842C180.609 75.4771 181.917 73.462 181.767 70.7842C181.647 68.0744 179.94 64.8882 178.767 62.7842C178.466 62.2741 179.038 62.1986 178.767 61.7842C178.496 61.3698 177.978 61.0711 177.767 60.7842C177.316 60.1785 176.767 59.7842 176.767 59.7842C176.767 59.7842 176.309 60.2859 175.767 61.7842C175.496 62.5174 174.917 63.764 174.767 64.7842C174.616 65.8681 174.647 67.509 174.767 68.7842Z" fill="#189BA5"/>
<path d="M184.767 87.7842C184.392 90.6404 184.499 93.3823 184.767 95.7842C184.82 96.3684 185.686 97.2973 185.767 97.7842C185.82 98.3035 185.713 98.3947 185.767 98.7842C185.874 99.5307 185.767 99.7842 185.767 99.7842C185.767 99.7842 186.644 98.9202 187.767 97.7842C188.328 97.1999 189.232 96.7904 189.767 95.7842C190.275 94.8105 191.499 93.2448 191.767 91.7842C192.301 88.8305 191.355 85.3808 190.767 82.7842C190.499 81.4859 190.034 80.5632 189.767 79.7842C189.526 79.0052 189.767 78.7842 189.767 78.7842C189.767 78.7842 189.087 79.4271 188.767 79.7842C188.446 80.1412 188.221 80.0701 187.767 80.7842C187.312 81.4982 186.141 82.7131 185.767 83.7842C185.339 84.8553 184.927 86.3885 184.767 87.7842Z" fill="#189BA5"/>
<path d="M189.766 108.784C188.575 111.658 188.202 115.23 187.766 117.784C187.65 118.423 186.853 118.241 186.766 118.784C186.679 119.327 186.824 120.401 186.766 120.784C186.679 121.582 186.766 121.784 186.766 121.784C186.766 121.784 187.243 121.88 187.766 121.784C188.26 121.688 188.982 121.135 189.766 120.784C190.58 120.433 190.865 119.614 191.766 118.784C192.667 117.954 194.011 117.285 194.766 115.784C196.249 112.815 196.766 108.786 196.766 105.784C196.766 105.018 196.795 104.391 196.766 103.784C196.737 103.146 196.824 102.263 196.766 101.784C196.65 100.858 196.766 100.784 196.766 100.784C196.766 100.784 195.132 101.603 193.766 102.784C193.069 103.391 192.493 103.762 191.766 104.784C191.04 105.838 190.348 107.379 189.766 108.784Z" fill="#189BA5"/>
<path d="M188.767 130.784C186.58 133.363 185.096 136.27 183.767 138.784C183.619 139.11 183.914 139.49 183.767 139.784C183.619 140.077 182.885 140.522 182.767 140.784C182.501 141.306 182.944 141.392 182.767 141.784C182.412 142.6 181.767 143.784 181.767 143.784C181.767 143.784 182.205 143.686 182.767 143.784C183.328 143.882 183.792 143.816 184.767 143.784C186.658 143.653 189.255 143.298 191.767 140.784C194.278 138.27 196.792 134.049 197.767 130.784C198.033 129.967 197.589 129.469 197.767 128.784C197.914 128.065 198.678 127.306 198.767 126.784C198.944 125.739 198.767 124.784 198.767 124.784C198.767 124.784 198.328 124.653 197.767 124.784C197.205 124.914 196.683 125.392 195.767 125.784C194.88 126.175 193.83 127 192.767 127.784C192.235 128.175 191.298 128.294 190.767 128.784C190.146 129.306 189.298 130.163 188.767 130.784Z" fill="#189BA5"/>
<path d="M182.767 151.784C182.383 152.009 181.15 151.558 180.767 151.784C180.383 152.041 180.121 152.526 179.767 152.784C179.058 153.331 178.446 154.204 177.767 154.784C177.442 155.073 177.091 155.494 176.767 155.784C176.619 155.944 176.914 155.623 176.767 155.784C176.619 155.912 175.914 156.655 175.767 156.784C175.147 157.331 175.298 157.269 174.767 157.784C173.674 158.813 172.416 160.14 171.767 160.784C171.117 161.459 170.767 161.784 170.767 161.784C170.767 161.784 171.235 161.462 171.767 161.784C172.298 162.105 172.763 162.462 173.767 162.784C174.77 163.105 176.379 163.848 177.767 163.784C179.154 163.719 180.084 163.62 181.767 162.784C185.162 161.175 188.759 157.744 190.767 154.784C191.269 154.043 191.383 153.427 191.767 152.784C192.15 152.14 192.53 151.298 192.767 150.784C193.269 149.786 193.767 148.784 193.767 148.784C193.767 148.784 193.387 148.88 192.767 148.784C192.147 148.687 190.83 148.719 189.767 148.784C189.235 148.816 189.387 148.687 188.767 148.784C188.147 148.88 187.446 149.591 186.767 149.784C186.088 149.977 185.475 149.462 184.767 149.784C184.028 150.073 183.505 151.333 182.767 151.784Z" fill="#189BA5"/>
<path d="M168.767 168.783C166.922 169.134 165.493 170.146 163.767 170.783C162.904 171.134 161.57 171.433 160.767 171.783C160.38 171.943 160.154 172.624 159.767 172.783C159.38 172.943 159.124 172.656 158.767 172.783C157.339 173.421 155.63 174.337 154.767 174.783C154.321 175.007 154.005 174.688 153.767 174.783C153.529 174.911 153.767 174.783 153.767 174.783C153.767 174.783 154.35 175.241 154.767 175.783C155.183 176.326 155.845 177.05 156.767 177.783C157.659 178.517 158.309 179.273 159.767 179.783C160.511 180.039 161.874 180.656 162.767 180.783C163.63 180.879 163.755 180.879 164.767 180.783C165.778 180.688 167.726 180.071 168.767 179.783C169.778 179.464 170.755 179.198 171.767 178.783C172.749 178.305 173.874 178.326 174.767 177.783C175.659 177.241 175.993 176.358 176.767 175.783C176.975 175.624 177.588 174.911 177.767 174.783C177.945 174.624 177.588 174.943 177.767 174.783C178.124 174.496 178.44 174.039 178.767 173.783C179.362 173.241 180.38 173.23 180.767 172.783C181.6 171.922 181.767 170.783 181.767 170.783C181.767 170.783 181.392 171.102 180.767 170.783C180.142 170.464 178.897 170.102 177.767 169.783C177.202 169.624 177.451 168.879 176.767 168.783C176.083 168.688 174.511 168.815 173.767 168.783C172.993 168.752 172.63 168.72 171.767 168.783C170.964 168.847 169.689 168.592 168.767 168.783Z" fill="#189BA5"/>
<path d="M162.767 62.7839C164.938 64.7022 167.893 65.7775 169.767 66.7839C170.242 67.0355 170.38 67.5952 170.767 67.7839C171.153 67.9726 171.499 68.6895 171.767 68.7839C172.332 69.0355 172.767 68.7839 172.767 68.7839C172.767 68.7839 172.886 68.4443 172.767 67.7839C172.707 67.4379 172.886 67.2556 172.767 66.7839C172.648 66.3121 171.945 65.3499 171.767 64.7839C170.993 62.6139 169.265 60.0167 166.767 57.7839C166.469 57.5323 166.094 57.0355 165.767 56.7839C165.439 56.5323 165.094 55.9726 164.767 55.7839C164.439 55.5952 164.124 55.9411 163.767 55.7839C163.439 55.6266 163.094 54.9411 162.767 54.7839C162.439 54.6266 162.094 54.9097 161.767 54.7839C161.439 54.6895 161.064 54.8468 160.767 54.7839C160.469 54.6895 160.064 53.8468 159.767 53.7839C159.469 53.721 160.034 53.8468 159.767 53.7839C159.231 53.721 158.213 53.8153 157.767 53.7839C157.32 53.7524 157.064 53.7839 156.767 53.7839C156.142 53.8153 155.767 53.7839 155.767 53.7839C155.767 53.7839 156.41 54.2492 156.767 54.7839C156.945 55.0355 156.499 55.4065 156.767 55.7839C157.005 56.1613 157.439 56.375 157.767 56.7839C159.075 58.4821 160.625 60.834 162.767 62.7839Z" fill="#189BA5"/>
<path d="M150.766 180.784C149.779 180.558 148.753 180.881 147.766 180.784C146.779 180.655 145.724 179.817 144.766 179.784C143.808 179.687 142.665 179.784 141.766 179.784C140.866 179.72 140.578 179.784 139.766 179.784C138.141 179.687 136.753 179.849 135.766 179.784C134.779 179.752 133.766 179.784 133.766 179.784C133.766 179.784 133.592 180.041 133.766 180.784C133.94 181.527 134.214 182.621 134.766 183.784C135.056 184.366 135.331 185.17 135.766 185.784C135.969 186.107 136.534 186.461 136.766 186.784C137.027 187.075 137.447 187.461 137.766 187.784C138.375 188.366 138.953 189.267 139.766 189.784C140.578 190.301 141.721 190.397 142.766 190.784C143.811 191.172 144.605 191.623 145.766 191.784C146.927 191.978 148.605 191.817 149.766 191.784C150.927 191.784 151.663 191.978 152.766 191.784C153.898 191.623 154.779 191.075 155.766 190.784C156.259 190.655 157.331 189.946 157.766 189.784C158.201 189.623 158.36 189.946 158.766 189.784C159.578 189.461 160.185 189.075 160.766 188.784C161.927 188.203 162.766 187.784 162.766 187.784C162.766 187.784 162.288 187.334 161.766 186.784C161.273 186.235 160.782 185.527 159.766 184.784C158.75 184.073 157.246 183.463 155.766 182.784C154.315 182.17 152.71 181.14 150.766 180.784Z" fill="#189BA5"/>
</svg>
