<svg width="231" height="231" viewBox="0 0 231 231" fill="none" xmlns="http://www.w3.org/2000/svg">
<circle cx="115.917" cy="115.754" r="114" fill="white" fill-opacity="0.6" stroke="#189BA5" stroke-width="2"/>
<path d="M92.078 130.609V100.697L94.7011 103.412H85.2672V98.3958H98.0606V130.609H92.078ZM118.395 131.07C115.48 131.07 112.98 130.456 110.893 129.229C108.807 127.971 107.212 126.161 106.107 123.799C105.003 121.436 104.451 118.522 104.451 115.055C104.451 111.373 105.11 108.259 106.43 105.713C107.78 103.166 109.636 101.234 111.998 99.9144C114.391 98.5952 117.137 97.9356 120.235 97.9356C121.861 97.9356 123.411 98.1043 124.883 98.4418C126.387 98.7793 127.66 99.3008 128.703 100.006L126.494 104.516C125.604 103.933 124.638 103.535 123.595 103.32C122.582 103.074 121.509 102.952 120.373 102.952C117.336 102.952 114.928 103.887 113.148 105.759C111.369 107.63 110.479 110.392 110.479 114.042C110.479 114.625 110.495 115.316 110.525 116.113C110.556 116.88 110.663 117.663 110.847 118.46L109.007 116.435C109.559 115.178 110.311 114.134 111.262 113.306C112.243 112.447 113.394 111.803 114.713 111.373C116.063 110.944 117.52 110.729 119.085 110.729C121.202 110.729 123.089 111.143 124.745 111.972C126.402 112.769 127.721 113.92 128.703 115.423C129.685 116.896 130.176 118.629 130.176 120.623C130.176 122.74 129.654 124.581 128.611 126.145C127.568 127.71 126.157 128.922 124.377 129.781C122.598 130.64 120.604 131.07 118.395 131.07ZM118.073 126.376C119.3 126.376 120.389 126.161 121.34 125.731C122.291 125.271 123.027 124.627 123.549 123.799C124.101 122.97 124.377 122.004 124.377 120.899C124.377 119.212 123.794 117.877 122.628 116.896C121.463 115.914 119.898 115.423 117.934 115.423C116.646 115.423 115.511 115.668 114.529 116.159C113.578 116.619 112.811 117.264 112.228 118.092C111.676 118.92 111.4 119.872 111.4 120.945C111.4 121.927 111.66 122.832 112.182 123.66C112.704 124.489 113.455 125.148 114.437 125.639C115.449 126.13 116.661 126.376 118.073 126.376ZM142.639 124.857V104.148H147.563V124.857H142.639ZM134.494 116.804V112.202H155.709V116.804H134.494Z" fill="#189BA5"/>
<path d="M53.767 68.7832C53.4696 71.4742 52.5996 73.6902 51.767 75.7832C51.3804 76.8131 51.0346 78.152 50.767 78.7832C50.4993 79.4144 49.767 79.7832 49.767 79.7832C49.767 79.7832 49.5996 79.1453 48.767 77.7832C47.9344 76.4211 46.6183 74.6071 46.767 71.7832C46.8859 68.9593 48.6073 66.0091 49.767 63.7832C50.0643 63.2184 49.4993 62.2151 49.767 61.7832C50.0346 61.3181 50.5291 61.1154 50.767 60.7832C51.213 60.152 51.767 59.7832 51.767 59.7832C51.767 59.7832 52.2317 60.2217 52.767 61.7832C53.0346 62.5805 53.6183 63.6869 53.767 64.7832C53.8859 65.8463 53.8859 67.4211 53.767 68.7832Z" fill="#189BA5"/>
<path d="M43.7674 86.7832C44.1424 89.6366 44.0352 93.3786 43.7674 95.7832C43.7138 96.3924 42.8477 96.2702 42.7674 96.7832C42.7138 97.2962 42.8209 98.3985 42.7674 98.7832C42.6334 99.5206 42.7674 99.7832 42.7674 99.7832C42.7674 99.7832 41.8924 98.9374 40.7674 97.7832C40.2048 97.2061 39.3031 96.7771 38.7674 95.7832C38.2584 94.8214 37.0085 93.2901 36.7674 91.7832C36.2316 88.8336 37.178 85.3801 37.7674 82.7832C38.062 81.4687 38.4995 80.5527 38.7674 79.7832C39.0085 78.9817 38.7674 78.7832 38.7674 78.7832C38.7674 78.7832 39.4459 79.4305 39.7674 79.7832C40.0888 80.1359 40.312 80.0458 40.7674 80.7832C41.2228 81.4885 42.3656 82.7252 42.7674 83.7832C43.1424 84.8412 43.5799 85.3725 43.7674 86.7832Z" fill="#189BA5"/>
<path d="M37.7663 109.783C38.9261 112.654 39.3313 115.196 39.7663 117.783C39.8822 118.446 40.6793 119.247 40.7663 119.783C40.8532 120.32 40.7083 121.373 40.7663 121.783C40.8532 122.572 40.7663 122.783 40.7663 122.783C40.7663 122.783 40.2882 122.909 39.7663 122.783C39.2733 122.689 38.5782 122.13 37.7663 121.783C36.9543 121.405 35.6942 120.604 34.7663 119.783C33.8674 118.963 33.5492 118.266 32.7663 116.783C31.2874 113.817 30.7373 109.781 30.7663 106.783C30.7663 106.026 30.7373 105.414 30.7663 104.783C30.8242 104.152 30.7083 103.225 30.7663 102.783C30.8822 101.868 30.7663 101.783 30.7663 101.783C30.7663 101.783 32.4034 102.584 33.7663 103.783C34.4332 104.383 35.0413 104.805 35.7663 105.783C36.5492 106.793 37.1863 108.363 37.7663 109.783Z" fill="#189BA5"/>
<path d="M39.7664 132.783C41.9564 135.368 43.4347 138.263 44.7664 140.783C44.9144 141.106 44.6185 141.493 44.7664 141.783C44.9144 142.074 45.6481 142.525 45.7664 142.783C46.0328 143.3 45.5889 143.363 45.7664 143.783C46.1216 144.591 46.7664 145.783 46.7664 145.783C46.7664 145.783 46.3287 145.686 45.7664 145.783C45.2042 145.88 44.743 145.816 43.7664 145.783C41.8724 145.654 39.2819 145.271 36.7664 142.783C34.251 140.263 31.743 136.047 30.7664 132.783C30.5001 131.976 30.944 131.494 30.7664 130.783C30.6185 130.072 29.8552 129.3 29.7664 128.783C29.6185 127.685 29.7664 126.783 29.7664 126.783C29.7664 126.783 30.2042 126.686 30.7664 126.783C31.3287 126.913 31.849 127.428 32.7664 127.783C33.6543 128.171 34.6715 128.976 35.7664 129.783C36.2991 130.171 37.2338 130.266 37.7664 130.783C38.3287 131.3 39.2338 132.137 39.7664 132.783Z" fill="#189BA5"/>
<path d="M46.7671 153.783C47.1509 154.002 48.3833 153.564 48.7671 153.783C49.1509 154.033 49.4128 154.533 49.7671 154.783C50.4757 155.315 51.088 156.251 51.7671 156.783C52.0919 157.065 52.4423 157.501 52.7671 157.783C52.9147 157.939 52.6195 157.626 52.7671 157.783C52.9442 157.908 53.6195 158.658 53.7671 158.783C54.3871 159.346 54.2356 159.282 54.7671 159.783C55.8595 160.784 57.1175 162.157 57.7671 162.783C58.4166 163.409 58.7671 163.783 58.7671 163.783C58.7671 163.783 58.2985 163.47 57.7671 163.783C57.2356 164.096 56.7709 165.47 55.7671 165.783C54.7632 166.096 53.1548 165.845 51.7671 165.783C50.3794 165.72 49.4205 165.565 47.7671 164.783C44.3717 163.187 40.7748 159.662 38.7671 156.783C38.2356 156.063 38.1509 155.409 37.7671 154.783C37.3833 154.126 37.0033 153.284 36.7671 152.783C36.2652 151.781 35.7671 150.783 35.7671 150.783C35.7671 150.783 36.1471 150.877 36.7671 150.783C37.3871 150.72 37.7337 150.689 38.7671 150.783C39.2985 150.814 40.1471 150.689 40.7671 150.783C41.3871 150.877 42.088 151.595 42.7671 151.783C43.4462 151.971 44.0585 151.439 44.7671 151.783C45.5052 152.065 46.029 153.345 46.7671 153.783Z" fill="#189BA5"/>
<path d="M60.7671 169.783C62.6355 170.165 64.0173 171.178 65.7671 171.783C66.6272 172.133 67.9663 172.465 68.7671 172.783C69.1823 172.942 69.3815 173.624 69.7671 173.783C70.1526 173.942 70.4112 173.656 70.7671 173.783C72.1907 174.42 73.8774 175.337 74.7671 175.783C75.1823 176.006 75.5298 175.656 75.7671 175.783C76.0044 175.879 75.7671 175.783 75.7671 175.783C75.7671 175.783 75.1823 176.242 74.7671 176.783C74.3519 177.324 73.6865 178.051 72.7671 178.783C71.8774 179.484 71.2203 180.274 69.7671 180.783C69.0257 181.07 67.6272 181.656 66.7671 181.783C65.907 181.879 65.7754 181.879 64.7671 181.783C63.7587 181.688 61.8051 181.07 60.7671 180.783C59.7587 180.465 58.7458 180.197 57.7671 179.783C56.7884 179.305 56.6865 179.324 55.7671 178.783C54.8774 178.242 53.5382 177.356 52.7671 176.783C52.5595 176.656 51.945 175.91 51.7671 175.783C51.5891 175.624 51.945 175.942 51.7671 175.783C51.4112 175.497 51.0933 175.038 50.7671 174.783C50.1443 174.242 49.1823 174.229 48.7671 173.783C47.907 172.892 47.7671 171.783 47.7671 171.783C47.7671 171.783 48.1443 172.102 48.7671 171.783C49.3602 171.497 50.6401 171.102 51.7671 170.783C52.3306 170.624 52.085 169.879 52.7671 169.783C53.4492 169.656 55.0257 169.815 55.7671 169.783C56.5382 169.751 56.9367 169.719 57.7671 169.783C58.5975 169.879 59.8477 169.592 60.7671 169.783Z" fill="#189BA5"/>
<path d="M77.7671 181.783C78.7528 181.557 79.7814 181.88 80.7671 181.783C81.7528 181.654 82.8104 180.816 83.7671 180.783C84.7238 180.686 85.8684 180.783 86.7671 180.783C87.6658 180.719 87.9554 180.783 88.7671 180.783C90.3905 180.686 91.7814 180.848 92.7671 180.783C93.7528 180.751 94.7671 180.783 94.7671 180.783C94.7671 180.783 94.941 181.04 94.7671 181.783C94.5931 182.526 94.3469 183.62 93.7671 184.783C93.4772 185.365 93.2019 186.169 92.7671 186.783C92.5642 187.106 91.999 187.46 91.7671 187.783C91.5062 188.074 91.086 188.46 90.7671 188.783C90.1583 189.365 89.5788 190.266 88.7671 190.783C87.9554 191.3 86.8107 191.396 85.7671 191.783C84.7234 192.171 83.9267 192.622 82.7671 192.783C81.6075 192.977 79.9267 192.816 78.7671 192.783C77.6075 192.783 76.8687 192.977 75.7671 192.783C74.6365 192.622 73.7528 192.074 72.7671 191.783C72.2743 191.654 71.2019 190.945 70.7671 190.783C70.3322 190.622 70.173 190.945 69.7671 190.783C68.9554 190.46 68.3469 190.074 67.7671 189.783C66.6075 189.202 65.7671 188.783 65.7671 188.783C65.7671 188.783 66.2743 188.333 66.7671 187.783C67.2599 187.234 67.7524 186.526 68.7671 185.783C69.7818 185.073 71.2886 184.462 72.7671 183.783C74.2456 183.169 75.8247 182.139 77.7671 181.783Z" fill="#189BA5"/>
<path d="M56.7671 71.7833C54.5821 72.6567 53.0958 74.101 51.7671 75.7833C51.1175 76.6244 51.0919 77.2009 50.7671 77.7833C50.4423 78.3656 49.7671 78.7833 49.7671 78.7833C49.7671 78.7833 50.3202 79.6862 51.7671 79.7833C53.1844 79.9127 55.7592 79.7538 57.7671 78.7833C59.775 77.7804 61.4679 76.0773 62.7671 74.7833C63.0919 74.4598 63.5013 74.0744 63.7671 73.7833C64.0328 73.4921 63.5899 73.0097 63.7671 72.7833C64.1509 72.3627 64.7671 72.7833 64.7671 72.7833C64.7671 72.7833 64.1254 71.2362 62.7671 70.7833C62.088 70.5568 60.6824 70.7833 59.7671 70.7833C58.8222 70.7509 57.8301 71.3303 56.7671 71.7833Z" fill="#189BA5"/>
<path d="M48.7673 89.7837C46.7844 91.3087 44.6455 93.7503 43.7673 95.7837C43.5407 96.292 43.909 97.3351 43.7673 97.7837C43.6257 98.2322 42.8523 98.4547 42.7673 98.7837C42.569 99.4415 42.7673 99.7837 42.7673 99.7837C42.7673 99.7837 44.266 100.083 45.7673 99.7837C46.5322 99.6342 46.8892 99.2023 47.7673 98.7837C48.6738 98.365 49.8325 97.5312 50.7673 96.7837C52.552 95.2288 53.7759 93.4881 54.7673 91.7837C55.2489 90.9464 56.5124 89.3219 56.7673 88.7837C57.0223 88.2454 56.7673 87.7837 56.7673 87.7837C56.7673 87.7837 56.2206 87.8734 55.7673 87.7837C55.3141 87.694 54.5322 87.7837 53.7673 87.7837C53.0025 87.7837 52.7021 87.5146 51.7673 87.7837C50.8042 88.0827 49.7588 89.0361 48.7673 89.7837Z" fill="#189BA5"/>
<path d="M43.7664 109.783C42.1562 112.064 41.0162 115.252 40.7664 117.783C40.7109 118.408 40.7664 119.252 40.7664 119.783C40.7664 120.314 40.7664 121.408 40.7664 121.783C40.7941 122.595 40.7664 122.783 40.7664 122.783C40.7664 122.783 41.2944 123.002 41.7664 122.783C42.2383 122.596 43.0723 122.252 43.7664 121.783C44.4882 121.314 44.989 120.533 45.7664 119.783C46.5437 119.002 47.1001 117.908 47.7664 116.783C49.1545 114.565 50.1556 111.877 50.7664 109.783C50.9052 109.252 51.6553 108.221 51.7664 107.783C51.8774 107.346 51.7109 107.096 51.7664 106.783C51.9052 106.127 51.7664 105.783 51.7664 105.783C51.7664 105.783 50.3488 105.377 48.7664 105.783C47.9613 106.002 47.6825 106.221 46.7664 106.783C45.8225 107.377 44.5992 108.627 43.7664 109.783Z" fill="#189BA5"/>
<path d="M45.7675 129.783C44.8356 132.854 44.235 136.971 44.7675 139.783C44.8208 140.139 45.7143 140.46 45.7675 140.783C45.8474 141.107 45.7143 141.493 45.7675 141.783C45.9273 142.365 45.6344 143.363 45.7675 143.783C45.9006 144.204 46.6876 144.557 46.7675 144.783C46.8474 145.01 46.7675 144.783 46.7675 144.783C46.7675 144.783 46.3681 144.171 46.7675 143.783C47.1669 143.396 48.2084 143.559 48.7675 142.783C49.9124 141.199 51.0753 138.725 51.7675 135.783C52.4598 132.842 52.7941 129.143 52.7675 126.783C52.7409 126.202 52.7941 125.301 52.7675 124.783C52.7409 124.299 52.7941 124.171 52.7675 123.783C52.7409 123.072 52.7675 122.783 52.7675 122.783C52.7675 122.783 52.2468 122.59 51.7675 122.783C51.2883 122.977 50.513 123.266 49.7675 123.783C49.022 124.301 48.513 125.814 47.7675 126.783C47.3948 127.268 47.087 127.169 46.7675 127.783C46.448 128.398 45.9805 129.008 45.7675 129.783Z" fill="#189BA5"/>
<path d="M52.7667 148.783C52.7667 149.229 52.7082 149.369 52.7667 149.783C52.796 150.229 52.7082 151.337 52.7667 151.783C52.8838 152.644 53.5034 152.955 53.7667 153.783C53.8838 154.198 53.6205 154.369 53.7667 154.783C53.8545 154.974 53.679 155.592 53.7667 155.783C53.8545 155.974 54.7082 156.592 54.7667 156.783C55.0885 157.548 55.4157 158.114 55.7667 158.783C56.5274 160.058 57.1816 161.082 57.7667 161.783C58.3226 162.516 58.7667 162.783 58.7667 162.783C58.7667 162.783 58.4742 162.325 58.7667 161.783C59.0885 161.209 60.3864 160.803 60.7667 159.783C61.1471 158.763 61.5034 157.154 61.7667 155.783C62.03 154.413 61.8252 153.409 61.7667 151.783C61.6497 148.564 60.4981 145.142 59.7667 142.783C59.5619 142.209 59.9423 141.261 59.7667 140.783C59.5912 140.305 58.8838 140.166 58.7667 139.783C58.5034 139.082 58.7667 138.783 58.7667 138.783C58.7667 138.783 58.2641 139.369 57.7667 139.783C57.2986 140.166 56.4396 139.955 55.7667 140.783C55.4449 141.198 55.0885 142.273 54.7667 142.783C54.4449 143.293 54.03 144.146 53.7667 144.783C53.5034 145.421 52.9423 146.05 52.7667 146.783C52.5912 147.548 52.796 147.923 52.7667 148.783Z" fill="#189BA5"/>
<path d="M63.7671 163.783C64.2135 165.535 65.7627 167.318 66.7671 168.783C67.2414 169.548 67.2091 170.146 67.7671 170.783C68.0461 171.102 68.4881 171.497 68.7671 171.783C69.0461 172.07 69.4881 172.528 69.7671 172.783C70.8831 173.834 71.9859 174.274 72.7671 174.783C73.1577 175.038 73.5718 175.688 73.7671 175.783C73.9903 175.911 74.7671 175.783 74.7671 175.783C74.7671 175.783 74.6834 175.484 74.7671 174.783C74.8787 174.083 74.7671 172.962 74.7671 171.783C74.795 170.605 74.9624 169.216 74.7671 167.783C74.6555 167.083 73.9345 166.579 73.7671 165.783C73.5997 165.019 74.0461 163.579 73.7671 162.783C72.679 159.662 70.1342 156.853 68.7671 154.783C68.6834 154.656 68.8508 154.911 68.7671 154.783C68.6834 154.656 68.8229 154.911 68.7671 154.783C68.5997 154.56 68.9066 154.006 68.7671 153.783C68.4602 153.369 67.9624 153.102 67.7671 152.783C67.3207 152.178 66.7671 151.783 66.7671 151.783C66.7671 151.783 66.1019 152.21 65.7671 152.783C65.4323 153.356 65.1856 153.7 64.7671 154.783C64.5718 155.325 63.9345 156.146 63.7671 156.783C63.5997 157.42 63.8508 158.051 63.7671 158.783C63.6834 159.516 63.7113 160.955 63.7671 161.783C63.8229 162.643 63.5439 162.891 63.7671 163.783Z" fill="#189BA5"/>
<path d="M61.7668 57.7832C59.2605 60.1426 57.5039 63.5513 56.7668 65.7832C56.5899 66.3571 55.8847 67.3049 55.7668 67.7832C55.6488 68.2296 55.8257 68.4325 55.7668 68.7832C55.6488 69.4528 55.7668 69.7832 55.7668 69.7832C55.7668 69.7832 56.2066 70.0701 56.7668 69.7832C57.0616 69.6238 57.354 69.0064 57.7668 68.7832C58.1501 68.56 58.295 68.0701 58.7668 67.7832C60.6538 66.6991 63.5849 64.8238 65.7668 62.7832C67.9192 60.7107 69.4694 58.5687 70.7668 56.7832C71.0911 56.3368 71.5309 56.1658 71.7668 55.7832C72.0321 55.4006 71.5899 55.0383 71.7668 54.7832C72.1206 54.2093 72.7668 53.7832 72.7668 53.7832C72.7668 53.7832 72.4155 53.7832 71.7668 53.7832C71.4424 53.7832 71.2091 53.7513 70.7668 53.7832C70.3245 53.847 69.327 53.6557 68.7668 53.7832C68.2066 53.8788 67.4155 54.56 66.7668 54.7832C66.4424 54.8788 66.0911 54.6557 65.7668 54.7832C65.4719 54.8788 65.1206 55.6238 64.7668 55.7832C64.4424 55.9426 64.0911 55.6238 63.7668 55.7832C63.4424 55.9745 63.1206 56.56 62.7668 56.7832C62.4424 57.0383 62.0616 57.4962 61.7668 57.7832C62.0616 57.4962 61.4424 58.0383 61.7668 57.7832Z" fill="#189BA5"/>
<path d="M79.7672 173.783C80.2881 174.546 81.1017 175.084 81.7672 175.783C82.4618 176.387 83.0149 177.275 83.7672 177.783C84.5486 178.26 85.957 178.402 86.7672 178.783C87.5775 179.133 88.0149 179.529 88.7672 179.783C90.3009 180.196 91.7834 180.72 92.7672 180.783C93.7511 180.878 94.7673 180.783 94.7673 180.783C94.7673 180.783 94.9409 180.514 94.7673 179.783C94.5936 179.053 94.2013 177.958 93.7673 176.783C93.5357 176.211 93.0856 175.418 92.7672 174.783C92.6226 174.466 92.9409 174.101 92.7672 173.783C92.5936 173.466 91.9409 173.133 91.7672 172.783C91.3911 172.116 91.2303 171.45 90.7672 170.783C90.3042 170.148 89.3171 169.418 88.7672 168.783C86.6259 166.242 83.735 164.213 81.7672 162.783C81.5357 162.624 81.9988 162.942 81.7672 162.783C81.5357 162.624 80.9698 161.91 80.7672 161.783C80.3621 161.497 80.0856 162.006 79.7672 161.783C79.1596 161.434 78.7672 160.783 78.7672 160.783C78.7672 160.783 78.9698 161.084 78.7672 161.783C78.5936 162.482 77.883 163.544 77.7672 164.783C77.6515 166.022 77.4779 167.259 77.7672 168.783C78.0856 170.371 78.7255 172.195 79.7672 173.783Z" fill="#189BA5"/>
<path d="M171.766 72.7844C173.917 73.6431 175.451 75.1 176.766 76.7844C177.393 77.6431 177.437 78.1899 177.766 78.7844C178.094 79.3789 178.766 79.7844 178.766 79.7844C178.766 79.7844 178.23 80.6523 176.766 80.7844C175.301 80.9165 172.768 80.7422 170.766 79.7844C168.764 78.7936 167.05 77.0724 165.766 75.7844C165.437 75.4541 165.005 75.0486 164.766 74.7844C164.497 74.5202 164.975 73.9826 164.766 73.7844C164.407 73.355 163.766 73.7844 163.766 73.7844C163.766 73.7844 164.421 72.2468 165.766 71.7844C166.453 71.5532 167.839 71.7844 168.766 71.7844C169.662 71.7183 170.69 72.322 171.766 72.7844Z" fill="#189BA5"/>
<path d="M179.766 90.7844C181.733 92.2991 183.883 94.7245 184.766 96.7844C184.994 97.2994 184.595 98.3603 184.766 98.7844C184.909 99.2388 185.681 99.4512 185.766 99.7844C185.966 100.451 185.766 100.784 185.766 100.784C185.766 100.784 184.277 101.118 182.766 100.784C181.997 100.633 181.65 100.178 180.766 99.7844C179.854 99.3906 178.678 98.5418 177.766 97.7844C175.971 96.2395 174.764 94.4505 173.766 92.7844C173.282 91.9362 172.051 90.3297 171.766 89.7844C171.51 89.2392 171.766 88.7844 171.766 88.7844C171.766 88.7844 172.31 88.8753 172.766 88.7844C173.222 88.6936 174.025 88.7844 174.766 88.7844C175.507 88.7541 175.826 88.5118 176.766 88.7844C177.707 89.0268 178.769 90.0271 179.766 90.7844Z" fill="#189BA5"/>
<path d="M184.767 109.784C186.381 112.07 187.489 115.244 187.767 117.784C187.823 118.419 187.767 119.244 187.767 119.784C187.767 120.324 187.767 121.371 187.767 121.784C187.767 122.578 187.767 122.784 187.767 122.784C187.767 122.784 187.24 123.006 186.767 122.784C186.294 122.594 185.463 122.229 184.767 121.784C184.043 121.339 183.546 120.546 182.767 119.784C181.96 119.022 181.435 117.895 180.767 116.784C179.375 114.561 178.351 111.88 177.767 109.784C177.628 109.276 176.878 108.229 176.767 107.784C176.656 107.339 176.823 107.133 176.767 106.784C176.628 106.117 176.767 105.784 176.767 105.784C176.767 105.784 178.18 105.371 179.767 105.784C180.574 105.975 180.876 106.181 181.767 106.784C182.685 107.356 183.932 108.641 184.767 109.784Z" fill="#189BA5"/>
<path d="M182.767 129.785C183.701 132.716 184.301 136.103 183.767 138.785C183.714 139.128 182.848 139.473 182.767 139.785C182.687 140.096 182.821 140.504 182.767 140.785C182.634 141.346 182.874 142.379 182.767 142.785C182.661 143.19 181.848 143.566 181.767 143.785C181.687 144.003 181.767 143.785 181.767 143.785C181.767 143.785 182.168 143.159 181.767 142.785C181.367 142.41 180.328 142.564 179.767 141.785C178.62 140.257 177.461 137.591 176.767 134.785C176.074 131.978 175.767 129.03 175.767 126.785C175.794 126.223 175.741 125.252 175.767 124.785C175.794 124.317 175.741 124.128 175.767 123.785C175.794 123.098 175.767 122.785 175.767 122.785C175.767 122.785 176.287 122.566 176.767 122.785C177.248 123.003 178.02 123.317 178.767 123.785C179.515 124.283 180.02 124.88 180.767 125.785C181.141 126.252 181.447 127.192 181.767 127.785C182.008 128.377 182.527 129.036 182.767 129.785Z" fill="#189BA5"/>
<path d="M176.767 148.784C176.767 149.201 176.797 149.335 176.767 149.784C176.737 150.233 176.827 151.335 176.767 151.784C176.648 152.65 176.036 152.982 175.767 153.784C175.648 154.201 175.916 154.399 175.767 154.784C175.707 154.977 175.827 155.592 175.767 155.784C175.677 155.977 174.827 156.592 174.767 156.784C174.438 157.554 174.125 158.11 173.767 158.784C172.99 160.068 172.364 161.078 171.767 161.784C171.2 162.522 170.767 162.784 170.767 162.784C170.767 162.784 171.066 162.362 170.767 161.784C170.438 161.207 169.155 160.811 168.767 159.784C168.379 158.757 168.036 157.164 167.767 155.784C167.498 154.405 167.737 153.421 167.767 151.784C167.886 148.576 169.02 145.159 169.767 142.784C169.976 142.207 169.588 141.265 169.767 140.784C169.946 140.303 170.648 140.137 170.767 139.784C171.036 139.078 170.767 138.784 170.767 138.784C170.767 138.784 171.259 139.399 171.767 139.784C172.245 140.169 173.08 139.95 173.767 140.784C174.096 141.201 174.438 142.271 174.767 142.784C175.096 143.298 175.498 144.142 175.767 144.784C176.036 145.426 176.588 146.014 176.767 146.784C176.857 147.49 176.737 147.918 176.767 148.784Z" fill="#189BA5"/>
<path d="M164.766 163.784C164.316 165.536 162.778 167.319 161.766 168.784C161.288 169.549 161.328 170.147 160.766 170.784C160.485 171.103 160.047 171.498 159.766 171.784C159.485 172.071 159.047 172.529 158.766 172.784C157.67 173.835 156.553 174.243 155.766 174.784C155.372 175.039 154.991 175.657 154.766 175.784C154.541 175.912 153.766 175.784 153.766 175.784C153.766 175.784 153.85 175.485 153.766 174.784C153.653 174.084 153.766 172.963 153.766 171.784C153.738 170.574 153.569 169.217 153.766 167.784C153.878 167.084 154.597 166.58 154.766 165.784C154.935 165.02 154.513 163.58 154.766 162.784C155.834 159.695 158.417 156.854 159.766 154.784C159.85 154.657 159.682 154.912 159.766 154.784C159.85 154.657 159.71 154.912 159.766 154.784C159.935 154.561 159.625 154.007 159.766 153.784C160.047 153.37 160.541 153.103 160.766 152.784C161.216 152.179 161.766 151.784 161.766 151.784C161.766 151.784 162.429 152.211 162.766 152.784C163.103 153.357 163.344 153.733 163.766 154.784C163.991 155.326 164.597 156.147 164.766 156.784C164.935 157.421 164.71 158.052 164.766 158.784C164.85 159.517 164.822 160.956 164.766 161.784C164.71 162.676 164.963 162.892 164.766 163.784Z" fill="#189BA5"/>
<path d="M149.766 173.784C149.245 174.545 148.432 175.087 147.766 175.784C147.072 176.387 146.519 177.277 145.766 177.784C144.985 178.26 143.576 178.404 142.766 178.784C141.956 179.133 141.519 179.53 140.766 179.784C139.232 180.196 137.779 180.721 136.766 180.784C135.782 180.879 134.766 180.784 134.766 180.784C134.766 180.784 134.593 180.514 134.766 179.784C134.94 179.055 135.332 177.958 135.766 176.784C135.998 176.213 136.448 175.418 136.766 174.784C136.911 174.467 136.593 174.101 136.766 173.784C136.94 173.467 137.593 173.133 137.766 172.784C138.142 172.118 138.303 171.45 138.766 170.784C139.229 170.15 140.216 169.418 140.766 168.784C142.908 166.247 145.827 164.211 147.766 162.784C147.998 162.626 147.535 162.943 147.766 162.784C147.998 162.626 148.564 161.911 148.766 161.784C149.171 161.499 149.448 162.006 149.766 161.784C150.374 161.372 150.766 160.784 150.766 160.784C150.766 160.784 150.564 161.087 150.766 161.784C150.969 162.482 151.65 163.547 151.766 164.784C151.882 166.021 152.056 167.262 151.766 168.784C151.448 170.402 150.808 172.199 149.766 173.784Z" fill="#189BA5"/>
<path d="M175.768 69.7842C176.069 72.3345 176.986 74.8077 177.768 76.7842C178.159 77.7724 178.497 78.1785 178.768 78.7842C179.039 79.3899 179.768 79.7842 179.768 79.7842C179.768 79.7842 179.925 79.0912 180.768 77.7842C181.61 76.4771 182.918 74.462 182.768 71.7842C182.648 69.0744 180.941 65.8882 179.768 63.7842C179.467 63.2741 180.039 63.1986 179.768 62.7842C179.497 62.3698 178.979 62.0711 178.768 61.7842C178.317 61.1785 177.768 60.7842 177.768 60.7842C177.768 60.7842 177.309 61.2859 176.768 62.7842C176.497 63.5174 175.918 64.764 175.768 65.7842C175.617 66.8681 175.648 68.509 175.768 69.7842Z" fill="#189BA5"/>
<path d="M185.768 88.7842C185.393 91.6404 185.5 94.3823 185.768 96.7842C185.821 97.3684 186.687 98.2973 186.768 98.7842C186.821 99.3035 186.714 99.3947 186.768 99.7842C186.875 100.531 186.768 100.784 186.768 100.784C186.768 100.784 187.645 99.9202 188.768 98.7842C189.329 98.1999 190.233 97.7904 190.768 96.7842C191.275 95.8105 192.5 94.2448 192.768 92.7842C193.302 89.8305 192.356 86.3808 191.768 83.7842C191.5 82.4859 191.035 81.5632 190.768 80.7842C190.527 80.0052 190.768 79.7842 190.768 79.7842C190.768 79.7842 190.088 80.4271 189.768 80.7842C189.447 81.1412 189.222 81.0701 188.768 81.7842C188.313 82.4982 187.142 83.7131 186.768 84.7842C186.34 85.8553 185.928 87.3885 185.768 88.7842Z" fill="#189BA5"/>
<path d="M190.767 109.784C189.576 112.658 189.203 116.23 188.767 118.784C188.651 119.423 187.854 119.241 187.767 119.784C187.68 120.327 187.825 121.401 187.767 121.784C187.68 122.582 187.767 122.784 187.767 122.784C187.767 122.784 188.244 122.88 188.767 122.784C189.261 122.688 189.983 122.135 190.767 121.784C191.581 121.433 191.866 120.614 192.767 119.784C193.668 118.954 195.012 118.285 195.767 116.784C197.25 113.815 197.767 109.786 197.767 106.784C197.767 106.018 197.796 105.391 197.767 104.784C197.738 104.146 197.825 103.263 197.767 102.784C197.651 101.858 197.767 101.784 197.767 101.784C197.767 101.784 196.133 102.603 194.767 103.784C194.07 104.391 193.494 104.762 192.767 105.784C192.041 106.838 191.349 108.379 190.767 109.784Z" fill="#189BA5"/>
<path d="M189.768 131.784C187.581 134.363 186.097 137.27 184.768 139.784C184.62 140.11 184.915 140.49 184.768 140.784C184.62 141.077 183.886 141.522 183.768 141.784C183.502 142.306 183.945 142.392 183.768 142.784C183.413 143.6 182.768 144.784 182.768 144.784C182.768 144.784 183.206 144.686 183.768 144.784C184.329 144.882 184.792 144.816 185.768 144.784C187.659 144.653 190.256 144.298 192.768 141.784C195.279 139.27 197.792 135.049 198.768 131.784C199.034 130.967 198.59 130.469 198.768 129.784C198.915 129.065 199.679 128.306 199.768 127.784C199.945 126.739 199.768 125.784 199.768 125.784C199.768 125.784 199.329 125.653 198.768 125.784C198.206 125.914 197.684 126.392 196.768 126.784C195.881 127.175 194.831 128 193.768 128.784C193.236 129.175 192.299 129.294 191.768 129.784C191.147 130.306 190.299 131.163 189.768 131.784Z" fill="#189BA5"/>
<path d="M183.768 152.784C183.384 153.009 182.151 152.558 181.768 152.784C181.384 153.041 181.122 153.526 180.768 153.784C180.059 154.331 179.447 155.204 178.768 155.784C178.443 156.073 178.092 156.494 177.768 156.784C177.62 156.944 177.915 156.623 177.768 156.784C177.62 156.912 176.915 157.655 176.768 157.784C176.148 158.331 176.299 158.269 175.768 158.784C174.675 159.813 173.417 161.14 172.768 161.784C172.118 162.459 171.768 162.784 171.768 162.784C171.768 162.784 172.236 162.462 172.768 162.784C173.299 163.105 173.764 163.462 174.768 163.784C175.771 164.105 177.38 164.848 178.768 164.784C180.155 164.719 181.085 164.62 182.768 163.784C186.163 162.175 189.76 158.744 191.768 155.784C192.27 155.043 192.384 154.427 192.768 153.784C193.151 153.14 193.531 152.298 193.768 151.784C194.27 150.786 194.768 149.784 194.768 149.784C194.768 149.784 194.388 149.88 193.768 149.784C193.148 149.687 191.83 149.719 190.768 149.784C190.236 149.816 190.388 149.687 189.768 149.784C189.148 149.88 188.447 150.591 187.768 150.784C187.089 150.977 186.476 150.462 185.768 150.784C185.029 151.073 184.506 152.333 183.768 152.784Z" fill="#189BA5"/>
<path d="M169.768 169.783C167.923 170.134 166.494 171.146 164.768 171.783C163.905 172.134 162.571 172.433 161.768 172.783C161.381 172.943 161.155 173.624 160.768 173.783C160.381 173.943 160.125 173.656 159.768 173.783C158.34 174.421 156.631 175.337 155.768 175.783C155.322 176.007 155.006 175.688 154.768 175.783C154.53 175.911 154.768 175.783 154.768 175.783C154.768 175.783 155.351 176.241 155.768 176.783C156.184 177.326 156.846 178.05 157.768 178.783C158.66 179.517 159.31 180.273 160.768 180.783C161.512 181.039 162.875 181.656 163.768 181.783C164.631 181.879 164.756 181.879 165.768 181.783C166.779 181.688 168.727 181.071 169.768 180.783C170.779 180.464 171.756 180.198 172.768 179.783C173.75 179.305 174.875 179.326 175.768 178.783C176.66 178.241 176.994 177.358 177.768 176.783C177.976 176.624 178.589 175.911 178.768 175.783C178.946 175.624 178.589 175.943 178.768 175.783C179.125 175.496 179.441 175.039 179.768 174.783C180.363 174.241 181.381 174.23 181.768 173.783C182.601 172.922 182.768 171.783 182.768 171.783C182.768 171.783 182.393 172.102 181.768 171.783C181.143 171.464 179.898 171.102 178.768 170.783C178.203 170.624 178.452 169.879 177.768 169.783C177.084 169.688 175.512 169.815 174.768 169.783C173.994 169.752 173.631 169.72 172.768 169.783C171.965 169.847 170.69 169.592 169.768 169.783Z" fill="#189BA5"/>
<path d="M163.768 63.7839C165.939 65.7022 168.894 66.7775 170.768 67.7839C171.243 68.0355 171.381 68.5952 171.768 68.7839C172.154 68.9726 172.5 69.6895 172.768 69.7839C173.333 70.0355 173.768 69.7839 173.768 69.7839C173.768 69.7839 173.887 69.4443 173.768 68.7839C173.708 68.4379 173.887 68.2556 173.768 67.7839C173.649 67.3121 172.946 66.3499 172.768 65.7839C171.994 63.6139 170.266 61.0167 167.768 58.7839C167.47 58.5323 167.095 58.0355 166.768 57.7839C166.44 57.5323 166.095 56.9726 165.768 56.7839C165.44 56.5952 165.124 56.9411 164.768 56.7839C164.44 56.6266 164.095 55.9411 163.768 55.7839C163.44 55.6266 163.095 55.9097 162.768 55.7839C162.44 55.6895 162.065 55.8468 161.768 55.7839C161.47 55.6895 161.065 54.8468 160.768 54.7839C160.47 54.721 161.035 54.8468 160.768 54.7839C160.232 54.721 159.214 54.8153 158.768 54.7839C158.321 54.7524 158.065 54.7839 157.768 54.7839C157.143 54.8153 156.768 54.7839 156.768 54.7839C156.768 54.7839 157.411 55.2492 157.768 55.7839C157.946 56.0355 157.5 56.4065 157.768 56.7839C158.006 57.1613 158.44 57.375 158.768 57.7839C160.076 59.4821 161.626 61.834 163.768 63.7839Z" fill="#189BA5"/>
<path d="M151.766 181.784C150.78 181.558 149.753 181.881 148.766 181.784C147.78 181.655 146.724 180.817 145.766 180.784C144.809 180.687 143.666 180.784 142.766 180.784C141.867 180.72 141.579 180.784 140.766 180.784C139.141 180.687 137.753 180.849 136.766 180.784C135.78 180.752 134.766 180.784 134.766 180.784C134.766 180.784 134.592 181.041 134.766 181.784C134.94 182.527 135.215 183.621 135.766 184.784C136.057 185.366 136.331 186.17 136.766 186.784C136.969 187.107 137.534 187.461 137.766 187.784C138.028 188.075 138.447 188.461 138.766 188.784C139.376 189.366 139.954 190.267 140.766 190.784C141.579 191.301 142.722 191.397 143.766 191.784C144.811 192.172 145.606 192.623 146.766 192.784C147.927 192.978 149.606 192.817 150.766 192.784C151.927 192.784 152.664 192.978 153.766 192.784C154.898 192.623 155.78 192.075 156.766 191.784C157.26 191.655 158.331 190.946 158.766 190.784C159.202 190.623 159.36 190.946 159.766 190.784C160.579 190.461 161.186 190.075 161.766 189.784C162.927 189.203 163.766 188.784 163.766 188.784C163.766 188.784 163.289 188.334 162.766 187.784C162.273 187.235 161.782 186.527 160.766 185.784C159.751 185.073 158.246 184.463 156.766 183.784C155.315 183.17 153.711 182.14 151.766 181.784Z" fill="#189BA5"/>
</svg>
