<svg width="25" height="22" viewBox="0 0 25 22" fill="none" xmlns="http://www.w3.org/2000/svg">
<path d="M6.00195 3.24609C6.00195 4.64792 4.60073 5.24609 3.00195 5.24609C1.40317 5.24609 0.00195312 4.64792 0.00195312 3.24609C0.00195312 1.84427 1.40317 0.246094 3.00195 0.246094C4.60073 0.246094 6.00195 1.84427 6.00195 3.24609Z" fill="#F1F1F1"/>
<path d="M0.00195312 7.24609H5.00195V21.2461H0.00195312V7.24609Z" fill="#F1F1F1"/>
<path d="M13.002 7.24609H8.00195V21.2461H13.002C13.002 21.2461 13.002 17.0132 13.002 14.2461C13.002 12.5852 13.5883 10.2461 16.002 10.2461C18.7297 10.2461 19.0147 12.5623 19.002 14.2461C18.9853 16.4471 19.002 19.0289 19.002 21.2461H24.002V14.2461C23.96 9.50858 22.334 7.24609 18.002 7.24609C15.4293 7.24609 13.8326 8.25545 13.002 9.24609V7.24609Z" fill="#F1F1F1"/>
</svg>
