<svg width="25" height="30" viewBox="0 0 25 30" fill="none" xmlns="http://www.w3.org/2000/svg">
<path d="M13.3975 0.699219C16.5801 0.699219 18.827 2.31638 21.0775 4.53922C23.3279 6.76205 24.9175 9.07565 24.9175 12.2192C24.9175 17.2278 21.3913 22.5727 14.3575 28.5392C13.9664 28.8711 12.9531 29.4997 12.4375 29.4992C11.9219 29.4988 11.868 28.8718 11.4775 28.5392C4.75502 22.7283 0.91748 17.116 0.91748 12.2192C0.91748 9.07565 2.50704 6.76205 4.75748 4.53922C7.00792 2.31638 10.2149 0.699219 13.3975 0.699219ZM13.3975 8.37922C12.1734 8.37922 10.423 8.48428 9.55748 9.33922C8.69193 10.1942 8.59748 11.0102 8.59748 12.2192C8.59748 13.4283 8.69193 15.2043 9.55748 16.0592C10.423 16.9142 12.1734 17.0192 13.3975 17.0192C14.6216 17.0192 15.4119 16.9142 16.2775 16.0592C17.143 15.2043 17.2375 13.4283 17.2375 12.2192C17.2375 11.0102 17.143 10.1942 16.2775 9.33922C15.4119 8.48428 14.6216 8.37922 13.3975 8.37922Z" fill="#F1F1F1"/>
</svg>
