<svg width="39" height="23" viewBox="0 0 39 23" fill="none" xmlns="http://www.w3.org/2000/svg">
<path d="M38.502 11.7461C38.502 16.8336 37.677 20.9586 36.577 20.9586C35.477 20.9586 34.652 16.8336 34.652 11.7461C34.652 6.65859 35.477 2.53359 36.577 2.53359C37.677 2.53359 38.502 6.65859 38.502 11.7461ZM33.6895 11.7461C33.6895 17.3836 31.2145 22.0586 28.327 22.0586C25.4395 22.0586 22.9645 17.3836 22.9645 11.7461C22.9645 6.10859 25.4395 1.43359 28.327 1.43359C31.2145 1.43359 33.6895 6.10859 33.6895 11.7461ZM21.727 11.7461C21.727 17.7961 16.9145 22.7461 10.8645 22.7461C4.81445 22.7461 0.00195312 17.7961 0.00195312 11.7461C0.00195312 5.69609 4.81445 0.746094 10.8645 0.746094C16.9145 0.746094 21.727 5.69609 21.727 11.7461Z" fill="#F1F1F1"/>
</svg>
