<svg width="104" height="109" viewBox="0 0 104 109" fill="none" xmlns="http://www.w3.org/2000/svg">
<path d="M49.7301 97.001C48.8381 96.6587 48.573 96.8419 47.7301 97.001C46.8961 97.1601 45.4526 97.4947 44.7301 98.001C43.5437 98.8351 42.912 99.1573 41.7301 100.001C40.8648 100.618 39.6355 101.461 38.7301 102.001C37.9808 102.445 37.5374 102.683 36.7301 103.001C35.8381 103.348 34.6533 103.774 33.7301 104.001C33.0834 104.155 32.3991 103.967 31.7301 104.001C30.5482 104.068 29.8719 104.305 28.7301 104.001C27.9942 103.808 27.4214 103.334 26.7301 103.001C25.8648 102.586 24.5507 102.512 23.7301 102.001C23.1637 101.649 22.2296 101.459 21.7301 101.001C21.186 100.504 21.243 99.5361 20.7301 99.001C20.6899 98.9576 20.7881 99.1553 20.7301 99.001C20.8996 99.0637 20.6498 98.9383 20.7301 99.001C21.5864 99.6374 22.7489 99.6828 23.7301 100.001C24.4214 100.223 25.0254 100.827 25.7301 101.001C26.631 101.218 27.8247 101.015 28.7301 101.001C29.8808 100.982 30.6329 100.363 31.7301 100.001C32.5686 99.7262 33.9139 99.3626 34.7301 99.001C35.5775 98.6249 35.8827 98.3915 36.7301 98.001C37.5061 97.6442 37.9451 97.3336 38.7301 97.001C39.127 96.8322 40.3242 97.1408 40.7301 97.001C41.1627 96.8563 41.293 96.1408 41.7301 96.001C42.0601 95.8949 42.3956 96.0685 42.7301 96.001C43.6756 95.813 44.7756 95.0781 45.7301 95.001C46.7559 94.919 47.6998 94.9431 48.7301 95.001C49.3679 95.0347 50.1057 95.866 50.7301 96.001C51.2029 96.1022 51.2707 95.8419 51.7301 96.001C52.1984 96.1601 53.3153 96.3192 53.7301 96.001C53.9129 95.8612 53.4982 96.0299 53.7301 96.001C54.8183 95.8467 55.6374 95.0733 56.7301 95.001C58.0503 94.9142 59.4188 95.7647 60.7301 96.001C61.4259 96.1263 62.0432 95.8226 62.7301 96.001C63.1939 96.1215 64.2841 95.8322 64.7301 96.001C65.3991 96.2565 66.07 96.7069 66.7301 97.001C67.4749 97.3336 67.9897 97.6587 68.7301 98.001C69.359 98.2903 70.0923 98.7455 70.7301 99.001C71.466 99.2999 71.9763 99.7647 72.7301 100.001C73.4036 100.213 74.0299 99.8949 74.7301 100.001C75.3322 100.093 76.1191 101.025 76.7301 101.001C77.6444 100.958 78.8202 100.122 79.7301 100.001C80.2296 99.9335 80.2529 100.179 80.7301 100.001C81.3991 99.7455 82.0834 99.3192 82.7301 99.001C83.0824 98.8322 83.3911 98.2131 83.7301 98.001C83.7791 97.9672 83.6721 98.0203 83.7301 98.001C83.7167 98.0685 83.7658 98.9624 83.7301 99.001C83.1681 99.6181 83.3144 99.4128 82.7301 100.001C81.9094 100.825 80.7068 101.437 79.7301 102.001C79.0254 102.411 78.4749 102.673 77.7301 103.001C76.5571 103.517 74.9789 103.933 73.7301 104.001C73.0031 104.04 72.4392 104.141 71.7301 104.001C70.8336 103.823 69.6132 103.3 68.7301 103.001C67.624 102.62 66.747 102.584 65.7301 102.001C64.6686 101.394 63.7425 100.715 62.7301 100.001C61.7043 99.2778 60.7604 98.7193 59.7301 98.001C59.1012 97.5574 58.4794 97.0781 57.7301 97.001C56.8425 96.9094 55.6756 96.8371 54.7301 97.001C54.8327 97.0974 54.6632 96.9624 54.7301 97.001C55.631 97.512 56.8648 98.4369 57.7301 99.001C59.1751 99.9508 60.3787 100.892 61.7301 102.001C63.1127 103.129 64.4367 104.772 65.7301 106.001C65.9665 106.228 65.9531 105.774 65.7301 106.001C65.1815 106.546 65.2698 107.447 64.7301 108.001C64.5071 108.237 63.904 108.203 63.7301 108.001C63.0209 107.196 62.4838 105.758 61.7301 105.001C60.3475 103.622 59.1841 102.283 57.7301 101.001C56.731 100.124 54.805 99.7724 53.7301 99.001C53.3198 98.7069 53.1895 98.1938 52.7301 98.001C52.4937 97.9045 51.9665 97.9045 51.7301 98.001C51.2083 98.2131 51.2073 98.6876 50.7301 99.001C49.1512 100.038 47.1528 100.719 45.7301 102.001C43.9148 103.64 42.1662 105.962 40.7301 108.001C40.5294 108.285 40.9799 108.228 40.7301 108.001C40.1414 107.461 39.3367 106.522 38.7301 106.001C38.5472 105.842 38.574 106.16 38.7301 106.001C40.0012 104.709 41.3564 103.173 42.7301 102.001C44.1528 100.786 45.1958 100.028 46.7301 99.001C47.4125 98.543 49.0165 98.406 49.7301 98.001C49.9665 97.8708 49.4402 97.1601 49.7301 97.001Z" fill="#1A1E21"/>
<path d="M77.7301 93.001C77.7925 92.9094 77.6543 92.0781 77.7301 92.001C78.9834 90.7619 80.0076 89.6643 80.7301 88.001C80.9799 87.4224 81.5026 86.5892 81.7301 86.001C81.9576 85.4128 81.5294 85.5988 81.7301 85.001C81.9397 84.3742 82.5338 83.6326 82.7301 83.001C82.9843 82.1814 83.4669 80.8206 83.7301 80.001C83.8996 79.4755 83.5383 79.512 83.7301 79.001C83.9219 78.4899 84.4982 77.4927 84.7301 77.001C85.0423 76.3405 85.3421 75.6085 85.7301 75.001C86.7559 73.4003 87.6775 71.5775 88.7301 70.001C88.7836 69.919 88.6587 70.0685 88.7301 70.001C88.7569 70.0203 88.7033 69.9865 88.7301 70.001C88.6498 70.2517 88.8014 70.7455 88.7301 71.001C88.458 71.9315 87.9397 73.056 87.7301 74.001C87.5383 74.8592 87.8594 75.1235 87.7301 76.001C87.6409 76.6326 87.8237 77.3694 87.7301 78.001C87.6543 78.512 86.8282 79.4947 86.7301 80.001C86.5874 80.7242 86.9174 81.2923 86.7301 82.001C86.5695 82.6133 85.9665 83.4224 85.7301 84.001C85.2707 85.1243 85.4705 86.0608 84.7301 87.001C84.0834 87.8254 83.4036 88.2007 82.7301 89.001C82.6721 89.0685 81.7925 89.9335 81.7301 90.001C81.7435 90.0251 81.7167 89.9769 81.7301 90.001C81.8014 89.9672 82.6676 90.0492 82.7301 90.001C83.3054 89.5092 83.1726 88.5168 83.7301 88.001C84.7693 87.0415 86.5393 86.7097 87.7301 86.001C88.9834 85.2537 89.4679 83.729 90.7301 83.001C91.854 82.3597 93.6374 81.7049 94.7301 81.001C96.1618 80.0849 97.6418 79.3799 98.7301 78.001C99.4392 77.0946 99.3198 76.1147 99.7301 75.001C99.7479 74.9576 99.7033 75.0395 99.7301 75.001C99.7613 75.0058 100.699 75.001 100.73 75.001C100.73 75.1745 100.766 74.8371 100.73 75.001C100.578 75.6904 99.9709 76.3501 99.7301 77.001C99.3599 77.9893 99.1895 79.0608 98.7301 80.001C98.0031 81.5052 96.796 82.7812 95.7301 84.001C94.7355 85.1436 93.912 86.0849 92.7301 87.001C91.7533 87.7579 90.7693 88.3646 89.7301 89.001C89.3153 89.2565 88.185 89.813 87.7301 90.001C87.351 90.1601 87.1181 89.866 86.7301 90.001C86.4045 90.1119 86.0646 90.9287 85.7301 91.001C84.7667 91.2131 83.6935 90.7888 82.7301 91.001C82.0209 91.1553 81.4348 91.8322 80.7301 92.001C80.1324 92.1408 79.3233 91.8419 78.7301 92.001C78.2662 92.1215 78.1895 92.866 77.7301 93.001C77.7658 92.9962 77.6944 93.0106 77.7301 93.001C77.7479 93.0203 77.7346 92.9865 77.7301 93.001Z" fill="#1A1E21"/>
<path d="M4.73009 76.001C4.81929 76.1601 4.65427 75.8322 4.73009 76.001C5.50168 77.727 6.32963 79.8583 7.73009 81.001C8.53736 81.6615 9.84254 81.4706 10.7301 82.001C12.0547 82.7965 13.3698 84.2778 14.7301 85.001C16.309 85.8351 17.2984 85.8921 18.7301 87.001C19.5284 87.6181 20.9407 88.3694 21.7301 89.001C22.0601 89.2613 22.3777 89.7744 22.7301 90.001C22.7479 89.9769 22.7167 90.0251 22.7301 90.001C22.4759 89.7455 21.9932 89.2469 21.7301 89.001C20.5526 87.9017 19.4794 86.457 18.7301 85.001C18.4045 84.3694 17.9486 83.6856 17.7301 83.001C17.4759 82.2055 17.9219 81.8206 17.7301 81.001C17.623 80.543 16.8015 79.4686 16.7301 79.001C16.6453 78.461 16.8193 78.541 16.7301 78.001C16.6587 77.5719 16.7925 77.4252 16.7301 77.001C16.6498 76.4514 16.8327 75.5458 16.7301 75.001C16.623 74.4176 15.904 73.5651 15.7301 73.001C15.5115 72.2826 15.9754 71.7145 15.7301 71.001C15.7122 70.9479 15.6543 71.1022 15.7301 71.001C15.9665 71.3144 15.5071 71.6731 15.7301 72.001C16.5864 73.2641 17.9451 74.6848 18.7301 76.001C19.3946 77.1147 20.1904 77.8101 20.7301 79.001C21.0557 79.7145 20.4848 80.244 20.7301 81.001C20.9263 81.5988 21.5338 82.4031 21.7301 83.001C21.9353 83.6181 22.516 84.3839 22.7301 85.001C23.02 85.8254 23.3867 86.2007 23.7301 87.001C24.0512 87.7531 24.2975 89.3164 24.7301 90.001C25.2475 90.8206 25.1414 91.2296 25.7301 92.001C25.9531 92.2951 26.4803 92.731 26.7301 93.001C26.7836 93.0588 26.6899 92.9238 26.7301 93.001C26.6498 93.0203 26.8015 93.0154 26.7301 93.001C26.4536 92.9383 26.0066 93.0781 25.7301 93.001C25.3331 92.8901 25.127 92.0974 24.7301 92.001C24.3019 91.8997 24.1583 92.0926 23.7301 92.001C23.3465 91.919 23.1181 92.0685 22.7301 92.001C21.9407 91.8612 20.5151 92.1601 19.7301 92.001C19.0299 91.8612 18.4214 91.1842 17.7301 91.001C17.2885 90.8853 17.1672 91.1504 16.7301 91.001C16.351 90.8708 16.0824 90.189 15.7301 90.001C14.9719 89.596 13.4437 89.4831 12.7301 89.001C11.9897 88.4996 11.3991 87.6085 10.7301 87.001C9.79794 86.1476 9.5775 85.9459 8.73009 85.001C7.78455 83.95 6.40802 82.2738 5.73009 81.001C5.28408 80.1669 5.00215 78.9315 4.73009 78.001C4.52493 77.2874 3.93525 76.7193 3.73009 76.001C3.68995 75.8563 3.73455 76.1504 3.73009 76.001C3.77469 75.9865 4.69441 76.0203 4.73009 76.001Z" fill="#1A1E21"/>
<path d="M71.7301 95.001C72.1003 94.9528 72.3644 95.0637 72.7301 95.001C73.5864 94.8419 73.8693 94.136 74.7301 94.001C75.8362 93.8226 77.6195 94.1215 78.7301 94.001C79.8139 93.8804 80.6463 93.1119 81.7301 93.001C82.4348 92.9287 83.0299 93.1022 83.7301 93.001C84.2118 92.9287 85.2573 93.1215 85.7301 93.001C86.5507 92.7888 86.9362 92.2999 87.7301 92.001C88.4749 91.7165 89.0343 91.4108 89.7301 91.001C90.6712 90.4465 92.0209 89.8736 92.7301 89.001C92.7702 88.9528 92.6141 89.0106 92.7301 89.001C92.7167 89.0878 92.7658 88.9238 92.7301 89.001C92.1235 90.3509 90.6979 91.9451 89.7301 93.001C88.8604 93.9556 88.8005 94.3019 87.7301 95.001C86.9674 95.5024 85.5284 96.5815 84.7301 97.001C84.1101 97.3288 83.3857 96.7696 82.7301 97.001C82.2172 97.1842 82.2608 97.9094 81.7301 98.001C80.9005 98.1408 79.5686 97.9913 78.7301 98.001C77.7444 98.0203 76.7113 98.1215 75.7301 98.001C74.8827 97.8997 74.573 98.1649 73.7301 98.001C73.3331 97.9238 72.1226 97.0878 71.7301 97.001C71.4402 96.9383 72.0155 97.0829 71.7301 97.001C70.8916 96.7744 69.573 96.2035 68.7301 96.001C67.8024 95.7744 66.6622 96.1938 65.7301 96.001C65.2975 95.9142 65.1627 96.0781 64.7301 96.001C64.6364 95.9865 64.8148 95.0444 64.7301 95.001C64.6766 94.9769 64.7301 95.054 64.7301 95.001C64.7301 94.9576 64.6766 95.0154 64.7301 95.001C65.2742 94.8612 65.186 95.1504 65.7301 95.001C66.1315 94.8853 67.3376 94.1553 67.7301 94.001C68.2564 93.7937 68.2172 94.2324 68.7301 94.001C69.7291 93.5526 70.9362 92.7917 71.7301 92.001C73.1261 90.6076 74.3698 89.4329 75.7301 88.001C77.4115 86.2268 78.8569 84.5389 80.7301 83.001C80.9263 82.8419 81.5249 82.1504 81.7301 82.001C81.8059 81.9431 81.6409 82.0395 81.7301 82.001C81.7479 82.0251 81.7122 81.9769 81.7301 82.001C81.6855 82.0926 81.7836 81.9238 81.7301 82.001C81.0254 83.0183 80.2341 84.8632 79.7301 86.001C79.1191 87.3847 78.4526 88.6848 77.7301 90.001C76.8738 91.5534 76.251 92.138 74.7301 93.001C73.9228 93.459 72.6087 94.7551 71.7301 95.001C71.9397 94.9238 71.516 95.0588 71.7301 95.001C71.7212 94.9576 71.7346 95.0251 71.7301 95.001Z" fill="#1A1E21"/>
<path d="M92.7301 59.001C92.7569 59.2372 92.7301 58.8274 92.7301 59.001C92.7301 59.5072 92.6899 60.4996 92.7301 61.001C92.8014 61.8833 92.623 63.1235 92.7301 64.001C92.7925 64.5217 92.6453 64.4803 92.7301 65.001C92.8148 65.5265 93.6364 66.4755 93.7301 67.001C93.797 67.377 93.6944 67.6249 93.7301 68.001C93.8773 69.51 93.9531 70.4678 93.7301 72.001C93.5918 72.9508 93.0334 74.109 92.7301 75.001C92.4402 75.864 92.1047 77.1669 91.7301 78.001C91.6364 78.2131 91.7925 77.7455 91.7301 78.001C91.7791 77.9576 91.6944 78.0492 91.7301 78.001C92.6756 76.5546 93.789 75.4522 94.7301 74.001C95.805 72.3473 96.3831 70.404 97.7301 69.001C98.8897 67.7957 100.843 66.4522 101.73 65.001C102.265 64.1283 102.333 63.9508 102.73 63.001C103.056 62.2296 103.712 60.8736 103.73 60.001C103.73 59.919 103.712 60.0781 103.73 60.001C103.739 59.972 103.663 60.1022 103.73 60.001C103.81 60.1842 103.726 59.8563 103.73 60.001C103.743 61.2641 103.797 62.7426 103.73 64.001C103.69 64.729 103.9 65.2826 103.73 66.001C103.583 66.6277 102.958 67.4031 102.73 68.001C102.422 68.8206 102.136 70.2392 101.73 71.001C101.266 71.8736 100.279 72.1862 99.7301 73.001C98.8158 74.3557 97.9165 75.9307 96.7301 77.001C95.7756 77.864 94.7559 78.2344 93.7301 79.001C92.4634 79.9459 91.0057 81.0705 89.7301 82.001C88.9317 82.5795 88.5151 83.3983 87.7301 84.001C87.6766 84.0444 87.797 83.9817 87.7301 84.001C87.7167 83.9287 87.7078 83.054 87.7301 83.001C87.8683 82.6731 87.6007 83.3336 87.7301 83.001C88.0111 82.2923 88.5071 80.7242 88.7301 80.001C88.9709 79.2248 89.5517 78.8013 89.7301 78.001C89.846 77.461 89.6587 76.5506 89.7301 76.001C89.8327 75.2248 89.6543 74.782 89.7301 74.001C89.8193 73.0657 89.6543 71.9411 89.7301 71.001C89.8327 69.733 90.6097 68.2641 90.7301 67.001C90.8416 65.8632 90.5606 65.134 90.7301 64.001C90.8282 63.3549 91.5606 62.6326 91.7301 62.001C91.8951 61.3887 91.5428 60.6036 91.7301 60.001C91.855 59.5912 91.5963 59.406 91.7301 59.001C91.7569 58.9576 92.6409 59.0926 92.7301 59.001Z" fill="#1A1E21"/>
<path d="M16.7301 84.001C16.4446 83.813 16.0111 84.1986 15.7301 84.001C14.2716 82.9789 13.1752 82.0424 11.7301 81.001C10.6775 80.244 9.72022 78.8447 8.73009 78.001C7.58831 77.0271 6.7782 76.0906 5.73009 75.001C4.67305 73.8969 3.39464 72.4232 2.73009 71.001C2.19934 69.8825 2.13149 69.1822 1.73009 68.001C1.52047 67.379 0.846051 66.6615 0.730089 66.001C0.440184 64.3955 0.770229 62.6209 0.730089 61.001C0.725629 60.9046 0.721169 61.1022 0.730089 61.001C0.756849 60.9962 0.703328 61.0058 0.730089 61.001C0.756849 61.0878 0.716709 60.9094 0.730089 61.001C0.908492 62.0472 1.25732 63.0608 1.73009 64.001C2.11365 64.7676 2.26624 65.2923 2.73009 66.001C3.78266 67.6209 5.48127 69.5642 6.73009 71.001C7.76482 72.1966 8.78455 72.7234 9.73009 74.001C10.6176 75.1966 11.9139 76.7475 12.7301 78.001C12.8996 78.2565 12.5383 78.7599 12.7301 79.001C12.7524 78.9817 12.7078 79.0154 12.7301 79.001C12.5651 78.7069 12.8684 78.3095 12.7301 78.001C12.4402 77.3453 11.9799 76.6759 11.7301 76.001C11.2261 74.6125 10.7479 73.4811 10.7301 72.001C10.7167 71.056 10.6498 69.9459 10.7301 69.001C10.7747 68.4562 10.6498 67.541 10.7301 67.001C10.7836 66.6442 11.6721 66.3577 11.7301 66.001C11.9442 64.7426 11.5918 63.269 11.7301 62.001C11.8148 61.2537 11.7524 60.7676 11.7301 60.001C11.7256 59.9238 11.7345 60.0781 11.7301 60.001C11.7524 59.9865 11.7078 60.0203 11.7301 60.001C11.8148 60.1215 12.681 59.866 12.7301 60.001C12.962 60.6277 12.5428 61.3549 12.7301 62.001C12.8907 62.5506 13.6186 63.4369 13.7301 64.001C13.8996 64.8688 13.5784 65.1283 13.7301 66.001C13.7925 66.3674 13.6944 66.6297 13.7301 67.001C13.8193 67.864 13.6543 69.138 13.7301 70.001C13.8104 70.8833 14.6543 72.1187 14.7301 73.001C14.8193 73.999 14.6186 75.0078 14.7301 76.001C14.8148 76.7579 14.6141 77.2489 14.7301 78.001C14.8327 78.6711 15.5695 79.3453 15.7301 80.001C15.8907 80.6422 15.4892 81.3887 15.7301 82.001C16.02 82.7386 16.4179 83.2778 16.7301 84.001C16.7122 83.9045 16.7702 84.0878 16.7301 84.001C16.7435 83.9769 16.7122 84.0395 16.7301 84.001Z" fill="#1A1E21"/>
<path d="M33.7301 95.001C33.6632 94.9769 32.797 95.0251 32.7301 95.001C32.409 94.9045 33.0512 95.1022 32.7301 95.001C32.3019 94.8612 31.1449 94.1697 30.7301 94.001C29.8247 93.6297 29.4482 93.7049 28.7301 93.001C27.8515 92.1476 27.3188 91.1147 26.7301 90.001C26.3153 89.2151 25.1181 87.8013 24.7301 87.001C23.9897 85.4726 23.6355 84.4329 22.7301 83.001C22.681 82.9238 22.8059 83.1745 22.7301 83.001C22.8817 83.0492 22.681 82.9624 22.7301 83.001C24.697 84.5197 26.9907 86.1882 28.7301 88.001C29.9744 89.2979 30.4634 89.7282 31.7301 91.001C32.7381 92.0134 34.45 93.4369 35.7301 94.001C36.5909 94.377 37.847 94.6924 38.7301 95.001C39.2965 95.1986 39.1414 94.8563 39.7301 95.001C39.8237 95.0251 40.6364 94.972 40.7301 95.001C40.739 95.0444 40.7256 95.9624 40.7301 96.001C40.5695 96.0733 39.8996 95.972 39.7301 96.001C38.9317 96.1456 38.524 95.8322 37.7301 96.001C37.1815 96.1167 36.2742 96.8467 35.7301 97.001C35.1949 97.1553 34.2698 96.8515 33.7301 97.001C33.128 97.1649 33.3277 97.8419 32.7301 98.001C32.4446 98.0781 32.02 97.9383 31.7301 98.001C29.8435 98.406 27.6568 98.0203 25.7301 98.001C24.9005 97.9913 24.5507 98.1504 23.7301 98.001C22.9184 97.8563 21.5151 98.2854 20.7301 98.001C19.9719 97.7262 19.4571 97.377 18.7301 97.001C17.1869 96.2007 15.9521 94.2786 14.7301 93.001C13.6552 91.8776 12.4437 91.4329 11.7301 90.001C11.7212 89.9865 11.7212 89.0926 11.7301 89.001C11.8505 89.0878 11.6543 89.9094 11.7301 90.001C12.5195 90.9604 13.682 91.4176 14.7301 92.001C15.3188 92.3288 16.1101 92.7551 16.7301 93.001C17.2385 93.1986 18.2083 92.8563 18.7301 93.001C19.0691 93.0974 19.3822 92.9479 19.7301 93.001C20.6667 93.136 21.789 93.9045 22.7301 94.001C24.1662 94.1456 25.2895 93.8804 26.7301 94.001C27.4437 94.0637 28.0165 93.9094 28.7301 94.001C29.3367 94.0781 30.128 94.8949 30.7301 95.001C31.5864 95.1553 31.8738 94.8467 32.7301 95.001C32.8237 95.0154 33.632 95.0106 33.7301 95.001C33.7301 95.0251 33.7524 94.972 33.7301 95.001Z" fill="#1A1E21"/>
<path d="M91.7301 46.001C91.7569 46.1456 91.6855 46.8612 91.7301 47.001C91.9709 47.6808 92.4536 48.3405 92.7301 49.001C93.5463 50.9488 94.8024 52.1255 95.7301 54.001C96.2385 55.0327 96.3421 55.9114 96.7301 57.001C97.0958 58.0183 97.6989 59.9017 97.7301 61.001C97.7569 61.9122 96.904 62.1042 96.7301 63.001C96.6498 63.4156 96.8148 64.5912 96.7301 65.001C96.6899 65.1986 96.7658 64.8033 96.7301 65.001C96.7613 65.0106 96.6989 64.9913 96.7301 65.001C96.7702 64.8997 96.7078 65.107 96.7301 65.001C96.9576 63.9066 97.4937 63.0954 97.7301 62.001C97.9442 61.0223 98.4357 59.9556 98.7301 59.001C99.1092 57.786 99.2841 56.1918 99.7301 55.001C100.078 54.0657 100.382 52.9363 100.73 52.001C101.011 51.2392 101.516 50.7868 101.73 50.001C101.926 49.273 101.57 48.7386 101.73 48.001C101.966 46.9355 101.761 46.0761 101.73 45.001C101.721 44.7647 101.761 44.2324 101.73 44.001C101.717 43.9094 101.73 44.0926 101.73 44.001C101.752 43.9913 101.703 44.0106 101.73 44.001C101.819 44.1456 102.681 43.8419 102.73 44.001C102.94 44.6374 102.552 45.3549 102.73 46.001C102.842 46.3963 103.645 46.6008 103.73 47.001C104.109 48.8523 103.828 51.1207 103.73 53.001C103.672 54.1291 102.908 54.8825 102.73 56.001C102.636 56.5892 102.877 57.4272 102.73 58.001C102.61 58.4735 102.9 58.543 102.73 59.001C102.436 59.7917 102.074 61.2344 101.73 62.001C101.525 62.459 101.02 62.596 100.73 63.001C99.4991 64.7511 97.9566 66.2509 96.7301 68.001C96.2127 68.7386 96.2296 69.244 95.7301 70.001C95.6721 70.0878 94.8059 70.9287 94.7301 71.001C94.7078 70.8853 94.7256 70.1167 94.7301 70.001C94.7747 69.0126 94.7479 67.9893 94.7301 67.001C94.7122 66.0464 94.8951 64.9363 94.7301 64.001C94.5874 63.1814 94.9531 62.8061 94.7301 62.001C94.5338 61.3115 93.9219 60.6904 93.7301 60.001C93.516 59.2248 92.9219 58.7868 92.7301 58.001C92.5205 57.1476 92.9174 55.864 92.7301 55.001C92.574 54.2778 91.855 53.729 91.7301 53.001C91.5874 52.191 91.8282 50.8206 91.7301 50.001C91.5829 48.7812 91.6498 48.2352 91.7301 47.001C91.739 46.8467 91.7122 46.1601 91.7301 46.001C91.6855 46.001 91.7791 45.9913 91.7301 46.001Z" fill="#1A1E21"/>
<path d="M1.73009 44.001C1.74793 44.2613 1.76577 44.8322 1.73009 45.001C1.4714 46.187 1.54277 46.8342 1.73009 48.001C1.88619 48.9845 2.43126 50.0512 2.73009 51.001C2.99769 51.8447 3.40004 53.1814 3.73009 54.001C4.03337 54.7531 4.43572 55.244 4.73009 56.001C5.06459 56.8736 5.43126 58.1187 5.73009 59.001C5.88173 59.4445 5.61859 59.543 5.73009 60.001C5.88619 60.6374 6.59183 61.3646 6.73009 62.001C6.94863 63.0038 7.51601 64.003 7.73009 65.001C7.76131 65.1456 7.68995 64.8563 7.73009 65.001C7.75685 64.9962 7.70333 65.0106 7.73009 65.001C7.71225 64.866 7.76577 65.1263 7.73009 65.001C7.32422 63.5016 6.48924 62.5245 6.73009 61.001C6.87727 60.0608 7.47141 58.9074 7.73009 58.001C7.95755 57.2007 8.37774 55.7483 8.73009 55.001C9.243 53.9017 10.1681 53.0665 10.7301 52.001C11.0869 51.3212 11.3867 50.6856 11.7301 50.001C11.9799 49.4899 11.5517 49.5506 11.7301 49.001C11.8773 48.5574 12.6052 47.4542 12.7301 47.001C12.7524 46.9142 12.6676 47.0781 12.7301 47.001C12.7613 47.0106 12.6989 46.9865 12.7301 47.001C12.7435 47.1986 12.7122 47.8033 12.7301 48.001C12.8371 49.2979 12.8996 49.7234 12.7301 51.001C12.5918 52.0231 11.8684 52.9789 11.7301 54.001C11.6766 54.3963 11.8148 55.6105 11.7301 56.001C11.5874 56.6518 11.8817 57.3501 11.7301 58.001C11.5918 58.5795 10.8773 58.4272 10.7301 59.001C10.5874 59.5554 10.8817 60.4514 10.7301 61.001C10.5918 61.512 9.86835 62.4851 9.73009 63.001C9.58737 63.5361 9.85943 63.461 9.73009 64.001C9.56061 64.7049 9.82821 65.2826 9.73009 66.001C9.64089 66.6518 8.71225 67.3453 8.73009 68.001C8.75685 68.9074 9.67211 70.0946 9.73009 71.001C9.73901 71.1119 9.75685 70.8901 9.73009 71.001C9.63197 70.9335 8.78807 71.0974 8.73009 71.001C8.44464 70.5381 8.03783 70.4445 7.73009 70.001C7.06108 69.0319 6.41248 67.9556 5.73009 67.001C4.74441 65.6221 3.65778 64.4232 2.73009 63.001C2.23502 62.244 1.96647 60.9122 1.73009 60.001C1.49371 59.0994 1.91741 57.9122 1.73009 57.001C1.52493 56.0078 0.899571 54.999 0.730089 54.001C0.462485 52.463 0.703328 51.5438 0.730089 50.001C0.743469 49.244 0.587367 48.7579 0.730089 48.001C0.79253 47.6683 1.64089 47.3288 1.73009 47.001C1.91295 46.3115 1.53385 44.6904 1.73009 44.001C1.62751 44.107 1.72563 43.972 1.73009 44.001Z" fill="#1A1E21"/>
<path d="M97.7301 49.001C97.681 48.3839 97.7836 48.6181 97.7301 48.001C97.7122 47.7937 97.7346 47.2083 97.7301 47.001C97.6766 44.5421 97.5205 42.4598 97.7301 40.001C97.8327 38.786 97.6498 37.2159 97.7301 36.001C97.7702 35.408 97.7702 34.5988 97.7301 34.001C97.6676 33.003 97.0155 31.97 96.7301 31.001C96.5249 30.3164 97.1092 29.5892 96.7301 29.001C96.7122 28.972 96.6899 29.107 96.7301 29.001C96.8683 29.0974 96.632 28.866 96.7301 29.001C97.1627 29.5892 97.3421 30.3839 97.7301 31.001C98.1315 31.6374 98.3911 32.3212 98.7301 33.001C99.0289 33.6036 99.5115 34.3598 99.7301 35.001C99.9799 35.7386 100.538 36.2392 100.73 37.001C100.837 37.4252 100.69 38.5622 100.73 39.001C100.828 40.0761 100.721 40.921 100.73 42.001C100.739 42.9749 100.842 44.0319 100.73 45.001C100.65 45.6856 100.886 46.3356 100.73 47.001C100.636 47.406 99.8683 47.6056 99.7301 48.001C99.5294 48.5747 99.9263 49.4272 99.7301 50.001C99.5784 50.4445 98.855 50.5478 98.7301 51.001C98.516 51.782 98.9085 52.2103 98.7301 53.001C98.5338 53.8833 97.904 55.1139 97.7301 56.001C97.7212 56.0492 97.7747 55.9238 97.7301 56.001C97.6766 55.9287 97.7435 56.0588 97.7301 56.001C97.4848 55.1042 97.0245 53.8736 96.7301 53.001C96.4937 52.3019 96.0691 51.6518 95.7301 51.001C94.7444 49.1111 93.8942 47.7607 92.7301 46.001C91.9585 44.8391 91.4214 43.2207 90.7301 42.001C90.2395 41.1283 89.9888 41.0038 89.7301 40.001C89.6186 39.5671 88.8639 38.4301 88.7301 38.001C88.6498 37.7455 88.7925 38.2613 88.7301 38.001C88.6097 37.4947 88.846 36.5072 88.7301 36.001C88.7122 35.9335 88.7167 36.0637 88.7301 36.001C88.7435 35.9431 88.6944 36.0588 88.7301 36.001C88.7702 36.0395 88.7078 35.9528 88.7301 36.001C89.1716 36.8688 89.0789 37.3164 89.7301 38.001C90.5284 38.8399 91.9228 40.1669 92.7301 41.001C93.631 41.9363 93.9094 41.9837 94.7301 43.001C95.2385 43.6277 96.3956 45.2489 96.7301 46.001C97.2162 47.0858 97.6007 47.7957 97.7301 49.001C97.7033 48.866 97.7435 49.136 97.7301 49.001C97.6944 49.0106 97.7747 48.9962 97.7301 49.001Z" fill="#1A1E21"/>
<path d="M6.73009 57.001C6.71225 56.9142 6.73901 57.0878 6.73009 57.001C6.66319 56.461 5.81037 55.541 5.73009 55.001C5.68995 54.7213 5.81483 54.271 5.73009 54.001C5.47586 53.1717 4.99769 52.8254 4.73009 52.001C4.48924 51.2537 4.98431 49.7434 4.73009 49.001C4.53831 48.4224 3.88619 48.5892 3.73009 48.001C3.49817 47.1235 3.92187 45.8929 3.73009 45.001C3.39558 43.4389 2.68103 41.5775 2.73009 40.001C2.75239 39.2682 3.60075 38.729 3.73009 38.001C3.81929 37.4899 3.56507 37.4927 3.73009 37.001C3.96647 36.2874 4.4491 35.6904 4.73009 35.001C5.3768 33.4196 5.79347 31.3895 6.73009 30.001C6.81037 29.8804 7.60521 30.0878 7.73009 30.001C7.69441 30.1456 7.79253 29.8756 7.73009 30.001C7.27962 30.8784 6.90849 32.0078 6.73009 33.001C6.48479 34.3991 6.68995 35.6028 6.73009 37.001C6.75239 37.7193 6.64089 38.2826 6.73009 39.001C6.79699 39.5651 6.67211 40.4369 6.73009 41.001C6.93525 43.05 6.95755 44.9423 6.73009 47.001C6.61413 48.0231 6.80591 48.9692 6.73009 50.001C6.72563 50.0733 6.72117 50.9287 6.73009 51.001C6.75685 51.0058 6.70333 50.9962 6.73009 51.001C6.79253 50.678 6.68549 50.324 6.73009 50.001C6.87727 48.9355 7.31976 47.9893 7.73009 47.001C8.38126 45.4148 9.61507 43.2207 10.7301 42.001C11.8808 40.7475 12.5839 40.2545 13.7301 39.001C14.2475 38.4369 15.2885 37.6422 15.7301 37.001C15.8416 36.8419 15.6409 36.1745 15.7301 36.001C15.7613 36.0058 15.6989 36.001 15.7301 36.001C15.7301 36.1601 15.7568 36.8515 15.7301 37.001C15.6453 37.4735 15.8416 37.5333 15.7301 38.001C15.5829 38.6085 14.9174 39.408 14.7301 40.001C14.5071 40.729 14.02 41.3019 13.7301 42.001C13.4714 42.6277 14.0824 43.4272 13.7301 44.001C12.6151 45.8089 10.8674 47.2123 9.73009 49.001C8.94512 50.24 8.30544 51.6269 7.73009 53.001C7.4045 53.782 6.97985 55.1862 6.73009 56.001C6.64535 56.2806 6.80591 56.7165 6.73009 57.001C6.79699 56.8901 6.69441 57.1263 6.73009 57.001C6.76131 57.0106 6.69441 57.001 6.73009 57.001Z" fill="#1A1E21"/>
<path d="M88.7301 22.001C88.9174 22.054 88.5428 21.9383 88.7301 22.001C90.0859 22.4735 91.7043 22.9451 92.7301 24.001C93.6622 24.9556 94.1324 26.7908 94.7301 28.001C95.0512 28.6567 95.5205 29.2826 95.7301 30.001C96.2698 31.8957 95.8104 34.0387 95.7301 36.001C95.6587 37.78 95.7435 39.2219 95.7301 41.001C95.7256 41.4204 95.6766 41.5815 95.7301 42.001C95.7435 42.1022 95.7435 42.8997 95.7301 43.001C95.7212 43.0685 95.7658 42.9383 95.7301 43.001C95.6766 42.9528 95.7613 43.0637 95.7301 43.001C95.128 41.7764 94.6355 39.97 93.7301 39.001C92.4099 37.5884 91.1528 37.2786 89.7301 36.001C88.8336 35.1958 87.5686 33.8688 86.7301 33.001C85.9674 32.2103 85.1538 31.052 84.7301 30.001C84.3644 29.0898 84.0512 27.9363 83.7301 27.001C83.6275 26.7021 83.797 27.3095 83.7301 27.001C83.6855 26.7937 83.7658 26.2131 83.7301 26.001C83.7122 25.8901 83.7301 26.1119 83.7301 26.001C83.7613 25.9962 83.7033 26.0058 83.7301 26.001C83.8594 26.2517 83.5963 25.7503 83.7301 26.001C84.4838 27.3895 85.5526 29.0512 86.7301 30.001C88.2108 31.1918 90.401 31.6076 91.7301 33.001C92.6533 33.9652 93.1949 35.6896 93.7301 37.001C93.7925 37.1553 93.6543 36.8515 93.7301 37.001C93.7524 36.9913 94.7033 37.0058 94.7301 37.001C94.6543 36.7744 93.797 36.2276 93.7301 36.001C93.4491 35.0415 93.0066 33.9604 92.7301 33.001C92.574 32.461 92.8639 32.5458 92.7301 32.001C92.5784 31.3935 92.8728 30.6085 92.7301 30.001C92.5918 29.4128 91.8773 28.5892 91.7301 28.001C91.6052 27.4947 91.8906 27.4927 91.7301 27.001C91.5249 26.3935 91.0334 25.5506 90.7301 25.001C90.3867 24.379 90.1672 23.5602 89.7301 23.001C89.4937 22.6972 89.0066 22.271 88.7301 22.001C88.8148 22.1022 88.6364 21.9142 88.7301 22.001C88.7122 22.0203 88.7524 21.972 88.7301 22.001Z" fill="#1A1E21"/>
<path d="M9.73009 38.001C9.87281 37.7069 9.57845 37.2902 9.73009 37.001C10.6221 35.3135 12.285 34.1581 13.7301 33.001C14.6979 32.2199 15.7667 30.7868 16.7301 30.001C17.854 29.0849 19.0076 28.3316 19.7301 27.001C19.904 26.6828 19.574 26.3288 19.7301 26.001C19.7524 25.9528 19.6141 26.0347 19.7301 26.001C19.739 26.1408 19.7479 25.8612 19.7301 26.001C19.6275 26.9459 20.0289 28.1042 19.7301 29.001C18.9986 31.2043 17.2599 33.3955 15.7301 35.001C14.8515 35.9267 14.7113 36.2055 13.7301 37.001C12.2538 38.1966 10.8406 40.4051 9.73009 42.001C9.37774 42.5072 9.05121 42.4706 8.73009 43.001C8.65873 43.1167 7.80591 42.8853 7.73009 43.001C7.68995 42.9769 7.76577 43.0299 7.73009 43.001C7.72117 42.9094 7.72563 43.0926 7.73009 43.001C7.77023 41.8439 7.74347 41.1581 7.73009 40.001C7.71671 38.8439 7.77469 37.1581 7.73009 36.001C7.69441 35.1235 7.69441 34.8784 7.73009 34.001C7.76577 33.2103 7.60967 31.7868 7.73009 31.001C7.81483 30.4465 8.54723 30.5313 8.73009 30.001C8.95309 29.3501 9.43126 28.6133 9.73009 28.001C9.91295 27.6201 9.48033 27.3385 9.73009 27.001C10.408 26.0801 11.8336 24.6856 12.7301 24.001C13.3545 23.5285 13.9897 23.2469 14.7301 23.001C14.9397 22.9335 14.5249 23.0829 14.7301 23.001C14.7881 22.9769 14.6676 23.0106 14.7301 23.001C14.7435 23.0299 14.7167 22.9672 14.7301 23.001C14.5071 23.2083 14.9397 22.7792 14.7301 23.001C14.0923 23.6759 13.0869 25.109 12.7301 26.001C12.4536 26.6952 11.9486 27.2826 11.7301 28.001C11.5472 28.6133 11.8594 29.3694 11.7301 30.001C11.5829 30.6952 11.8817 31.3115 11.7301 32.001C11.6007 32.5988 10.8773 33.408 10.7301 34.001C10.6052 34.5168 10.8862 34.4947 10.7301 35.001C10.4803 35.8109 9.98877 37.191 9.73009 38.001C9.74347 37.8901 9.69441 38.107 9.73009 38.001C9.70333 37.9962 9.75239 38.0106 9.73009 38.001Z" fill="#1A1E21"/>
<path d="M78.7301 17.001C78.8505 17.001 78.6855 16.9769 78.7301 17.001C79.408 17.2903 80.0611 17.6924 80.7301 18.001C81.7247 18.459 82.74 18.5381 83.7301 19.001C84.6221 19.4156 84.9897 20.3308 85.7301 21.001C86.5418 21.7338 88.1146 22.0753 88.7301 23.001C89.4303 24.052 89.2975 25.8053 89.7301 27.001C90.0289 27.8206 90.4759 28.1621 90.7301 29.001C90.9263 29.6326 91.5294 30.3694 91.7301 31.001C91.7613 31.0974 91.7167 30.8949 91.7301 31.001C91.6453 30.9672 90.797 31.054 90.7301 31.001C89.3787 29.9258 88.9343 29.269 87.7301 28.001C86.517 26.7233 84.7514 25.4618 83.7301 24.001C82.963 22.8969 82.5061 21.0954 81.7301 20.001C81.3465 19.4562 81.1806 19.4976 80.7301 19.001C80.2083 18.4224 79.2519 17.5747 78.7301 17.001C78.8148 17.1504 78.6587 16.9238 78.7301 17.001Z" fill="#1A1E21"/>
<path d="M12.7301 32.001C12.8907 31.5092 12.5784 30.4976 12.7301 30.001C12.8951 29.4658 13.574 29.541 13.7301 29.001C13.8773 28.4803 13.5695 27.5168 13.7301 27.001C13.8907 26.4851 14.4982 26.4735 14.7301 26.001C15.0646 25.3115 15.3421 24.6518 15.7301 24.001C16.6935 22.3907 18.1914 20.9267 19.7301 20.001C20.7158 19.408 21.7087 18.512 22.7301 18.001C23.3634 17.6876 24.0745 18.271 24.7301 18.001C24.9442 17.9094 24.516 17.1022 24.7301 17.001C24.7524 17.0251 24.7078 16.9817 24.7301 17.001C24.6721 17.1022 24.8104 17.9287 24.7301 18.001C23.8024 18.8447 23.4526 19.9644 22.7301 21.001C21.6151 22.5968 19.8183 23.3859 18.7301 25.001C17.7132 26.5148 17.0413 27.7957 15.7301 29.001C14.8158 29.8399 13.6444 31.1573 12.7301 32.001C12.8148 31.9479 12.6543 32.0685 12.7301 32.001C12.7479 32.0203 12.7122 31.9817 12.7301 32.001Z" fill="#1A1E21"/>
<path d="M26.7301 45.001V49.001V45.001Z" fill="#1A1E21"/>
<path d="M25.7301 45.001V49.001V46.001V45.001Z" fill="#1A1E21"/>
<path d="M24.7301 46.001V49.001V50.001V46.001Z" fill="#1A1E21"/>
<path d="M51.7301 43.001H52.7301V48.001H51.7301V43.001Z" fill="#1A1E21"/>
<path d="M54.7301 13.001V11.001H52.7301L49.7301 7.00098V6.00098L47.7301 5.00098L46.7301 4.00098C46.7301 4.00098 47.524 3.66149 46.7301 3.00098C46.7301 3.00098 46.4883 2.03955 45.7301 2.00098V0.000976562L44.7301 2.00098C44.7301 2.00098 44.7256 2.20065 44.7301 3.00098C44.7301 3.00098 43.8827 3.10423 44.7301 4.00098H43.7301L42.7301 6.00098H41.7301V8.00098L38.7301 13.001H37.7301V14.001L34.7301 16.001V17.001H37.7301L43.7301 15.001L54.7301 16.001L57.7301 14.001L54.7301 13.001ZM41.7301 13.001L37.7301 15.001H36.7301L42.7301 11.001L53.7301 13.001L55.7301 14.001L41.7301 13.001Z" fill="#1A1E21"/>
<path d="M76.7301 26.001V24.001H75.7301V21.001V22.001H74.7301V21.001H73.7301L72.7301 20.001V19.001L71.7301 20.001L70.7301 19.001L68.7301 18.001L69.7301 17.001H68.7301L67.7301 16.001C67.7301 16.001 66.8773 16.001 66.7301 16.001L64.7301 17.001V18.001V19.001C63.5214 19.3915 63.7301 20.001 63.7301 20.001L62.7301 21.001H61.7301V22.001H60.7301L59.7301 24.001L58.7301 23.001V26.001V27.001L56.7301 28.001L58.7301 30.001L65.7301 27.001H76.7301L79.7301 26.001H76.7301ZM64.7301 25.001L58.7301 28.001L59.7301 27.001L64.7301 24.001L75.7301 25.001L76.7301 26.001L64.7301 25.001Z" fill="#1A1E21"/>
<path d="M54.7301 16.001L43.7301 15.001V25.001H54.7301V16.001ZM48.7301 23.001C47.0665 23.0058 45.7301 21.7945 45.7301 20.001C45.7256 18.2027 47.0709 16.001 48.7301 16.001C50.3937 15.9962 51.7301 18.2075 51.7301 20.001C51.7345 21.7993 50.3892 22.9962 48.7301 23.001Z" fill="#1A1E21"/>
<path d="M48.7301 21.001C49.3099 21.001 49.7301 20.6277 49.7301 20.001C49.7301 19.3742 49.3099 18.001 48.7301 18.001C48.1503 18.001 47.7301 19.3742 47.7301 20.001C47.7301 20.6277 48.1503 21.001 48.7301 21.001Z" fill="#1A1E21"/>
<path d="M40.7301 17.001C39.7801 16.8467 38.9843 18.1496 38.7301 20.001C38.4714 21.8523 38.7801 23.8515 39.7301 24.001C40.6756 24.1553 41.4714 22.8523 41.7301 21.001C41.9843 19.1544 41.6801 17.1601 40.7301 17.001ZM40.7301 21.001C40.623 21.7531 40.1092 22.0588 39.7301 22.001C39.3465 21.9383 39.623 20.7483 39.7301 20.001C39.8327 19.2537 40.351 18.9431 40.7301 19.001C41.1092 19.0637 40.8327 20.2537 40.7301 21.001Z" fill="#1A1E21"/>
<path d="M76.7301 35.001V27.001H65.7301V35.001H62.7301V38.001H64.7301V54.001H79.7301V39.001H81.7301V35.001H76.7301ZM69.7301 35.001H67.7301V28.001H69.7301V35.001ZM72.7301 35.001H70.7301V28.001H72.7301V35.001ZM75.7301 35.001H73.7301V29.001H75.7301V35.001Z" fill="#1A1E21"/>
<path d="M64.7301 29.001V34.001L62.7301 35.001V29.001H64.7301Z" fill="#1A1E21"/>
<path d="M62.7301 29.001V35.001H61.7301V30.001L62.7301 29.001Z" fill="#1A1E21"/>
<path d="M60.7301 30.001V35.001L59.7301 36.001V31.001L60.7301 30.001Z" fill="#1A1E21"/>
<path d="M54.7301 30.001L43.7301 29.001L38.7301 31.001H35.7301L42.7301 27.001C42.7301 27.001 56.6587 28.001 56.7301 28.001C56.8014 28.001 54.7301 30.001 54.7301 30.001Z" fill="#1A1E21"/>
<path d="M54.7301 38.001V40.001H57.7301V46.001L49.7301 49.001V54.001H46.7301V40.001L45.7301 38.001V35.001L43.7301 36.001V29.001L54.7301 30.001V36.001L58.7301 35.001V36.001L55.7301 38.001H54.7301Z" fill="#1A1E21"/>
<path d="M35.7301 43.001H27.7301L24.7301 44.001H22.7301L23.7301 43.001V42.001H24.7301V40.001H25.7301H26.7301V38.001H27.7301C27.7301 37.784 27.5963 37.1408 27.7301 37.001C27.8639 36.8563 28.5294 37.001 28.7301 37.001V36.001H27.7301H28.7301L29.7301 34.001L30.7301 36.001H31.7301H30.7301V37.001C30.7301 37.001 31.6989 37.191 31.7301 38.001H32.7301V37.001H33.7301V38.001C33.7301 38.001 33.7524 38.138 33.7301 39.001H35.7301L34.7301 40.001L33.7301 42.001L27.7301 41.001L24.7301 42.001V43.001L27.7301 42.001H33.7301V43.001H35.7301Z" fill="#1A1E21"/>
<path d="M27.7301 43.001V54.001H35.7301V43.001H27.7301ZM29.7301 49.001H28.7301V45.001H29.7301V49.001ZM32.7301 49.001H31.7301V45.001H32.7301V49.001ZM34.7301 49.001H33.7301V45.001H34.7301V49.001Z" fill="#1A1E21"/>
<path d="M45.7301 59.001V60.001H41.7301V71.001H39.7301V60.001H35.7301V59.001H45.7301Z" fill="#1A1E21"/>
<path d="M27.7301 59.001V71.001H29.7301V59.001H27.7301Z" fill="#1A1E21"/>
<path d="M33.7301 59.001H31.7301V71.001H33.7301V59.001Z" fill="#1A1E21"/>
<path d="M57.7301 67.001C57.5784 65.0436 55.7301 65.001 55.7301 65.001C56.573 64.4321 57.7301 63.1533 57.7301 62.001C57.7301 61.1428 57.2475 60.5602 56.7301 60.001C56.2127 59.4417 55.524 59.001 54.7301 59.001H49.7301V71.001H54.7301C54.7301 71.001 57.0209 71.0163 57.7301 69.001C57.739 68.9769 57.7212 69.0251 57.7301 69.001C57.8773 68.5815 57.7836 67.6615 57.7301 67.001ZM54.7301 60.001C55.7024 60.001 55.7301 60.9499 55.7301 62.001C55.7301 63.2063 54.8451 64.001 53.7301 64.001H51.7301V60.001H54.7301ZM56.7301 68.001C56.6498 68.7386 56.2385 68.784 55.7301 69.001C55.2216 69.2228 54.7301 70.001 54.7301 70.001H51.7301V65.001H54.7301C56.6702 65.1842 56.7301 66.001 56.7301 66.001C56.7301 66.001 56.8906 66.5209 56.7301 68.001Z" fill="#1A1E21"/>
<path d="M55.7301 70.001C55.2216 70.2228 54.7301 70.001 54.7301 70.001H55.7301Z" fill="#1A1E21"/>
<path d="M67.7301 59.001V71.001H65.7301V65.001H60.7301V71.001H59.7301V59.001H60.7301V64.001H65.7301V59.001H67.7301Z" fill="#1A1E21"/>
<path d="M77.7301 59.001V68.001C77.7301 69.7848 76.3803 71.001 74.7301 71.001H72.7301C70.9371 71.001 69.7301 69.9391 69.7301 68.001V59.001H70.7301V67.001C70.7301 68.3654 72.4679 70.001 73.7301 70.001C74.9343 70.001 75.7301 68.3075 75.7301 67.001V59.001H77.7301Z" fill="#1A1E21"/>
<path d="M56.7301 73.001V82.001C56.7301 83.7848 55.3803 85.001 53.7301 85.001H52.7301C50.9371 85.001 49.7301 83.9391 49.7301 82.001V73.001H50.7301V81.001C50.7301 82.3654 51.4679 84.001 52.7301 84.001H53.7301C54.9343 84.001 55.7301 82.3075 55.7301 81.001V73.001H56.7301Z" fill="#1A1E21"/>
<path d="M45.7301 73.001V85.001H44.7301V75.001L40.7301 85.001H39.7301L36.7301 76.001V85.001H35.7301V73.001H36.7301L40.7301 83.001L43.7301 73.001H45.7301Z" fill="#1A1E21"/>
<path d="M68.7301 73.001V85.001H67.7301L62.7301 75.001V85.001H60.7301V73.001H62.7301L67.7301 82.001V73.001H68.7301Z" fill="#1A1E21"/>
</svg>
