<svg width="115" height="102" viewBox="0 0 115 102" fill="none" xmlns="http://www.w3.org/2000/svg">
<path d="M55.3129 77.863C54.5134 77.5886 53.738 77.577 52.9825 77.7046C52.2349 77.8321 51.4954 78.0833 50.8479 78.489C49.7846 79.1576 48.7493 79.8686 47.6899 80.5448C46.9145 81.0395 46.143 81.538 45.3315 81.9708C44.6599 82.3263 43.9444 82.6277 43.2209 82.8828C42.4214 83.161 41.602 83.3929 40.7745 83.5745C40.1949 83.6981 39.5873 83.7252 38.9877 83.7522C37.9284 83.8063 36.8771 83.6982 35.8537 83.4547C35.1942 83.3001 34.5466 83.076 33.927 82.8093C33.1515 82.477 32.392 82.0983 31.6565 81.6887C31.1489 81.4066 30.6772 81.0588 30.2295 80.6917C29.7418 80.2937 29.2981 79.8415 28.8384 79.4126C28.8024 79.3778 28.7944 79.316 28.7424 79.1923C28.8943 79.2426 28.9943 79.2542 29.0662 79.3044C29.8337 79.8145 30.6892 80.143 31.5686 80.398C32.1882 80.5758 32.8397 80.6221 33.4713 80.7613C34.2788 80.9352 35.0942 80.8849 35.9057 80.8733C36.937 80.8579 37.9564 80.6917 38.9397 80.4019C39.6912 80.1816 40.4187 79.8647 41.1503 79.5749C41.9098 79.2735 42.6653 78.9489 43.4248 78.6359C44.1203 78.3499 44.8158 78.0639 45.5194 77.7973C45.8751 77.662 46.2469 77.5693 46.6106 77.4572C46.9984 77.3413 47.3861 77.2177 47.7779 77.1056C48.0737 77.0206 48.3695 76.9317 48.6693 76.8776C49.5167 76.7269 50.3642 76.5298 51.2196 76.468C52.139 76.4023 53.0704 76.4371 53.9938 76.4834C54.5654 76.5105 55.133 76.6187 55.6927 76.7269C56.1164 76.808 56.5361 76.9356 56.9478 77.0631C57.3676 77.1906 57.7433 77.1751 58.1151 76.9201C58.279 76.808 58.5148 76.7655 58.7227 76.7423C59.698 76.6187 60.6734 76.4718 61.6527 76.4139C62.836 76.3443 64.0192 76.3945 65.1944 76.5839C65.818 76.6844 66.4296 76.8351 67.0452 76.9781C67.4609 77.0747 67.8726 77.1751 68.2724 77.3104C68.872 77.5152 69.4636 77.7432 70.0552 77.9789C70.7228 78.2456 71.3823 78.5315 72.0459 78.8059C72.6095 79.0378 73.1731 79.2696 73.7448 79.4744C74.4043 79.714 75.0679 79.9536 75.7434 80.143C76.347 80.313 76.9667 80.4482 77.5942 80.5332C78.1339 80.6067 78.6895 80.6221 79.2371 80.6028C80.0566 80.568 80.8761 80.5062 81.6915 80.4096C82.1392 80.3555 82.5829 80.2357 83.0107 80.0927C83.6103 79.8879 84.1979 79.6522 84.7775 79.3971C85.0933 79.2619 85.3771 79.0609 85.6809 78.8909C85.7249 78.8639 85.7808 78.86 85.8328 78.8445C85.8208 78.8986 85.8288 78.9759 85.7968 79.0068C85.2932 79.5015 84.7975 80 84.2738 80.4714C83.5383 81.1322 82.6789 81.6307 81.8035 82.0828C81.1719 82.4113 80.4723 82.62 79.8048 82.8828C78.7535 83.2962 77.6382 83.4122 76.5189 83.4663C75.8674 83.4972 75.2038 83.5165 74.5682 83.4045C73.7648 83.2615 72.9613 83.1417 72.1698 82.9021C71.1785 82.5968 70.2071 82.2413 69.2957 81.7737C68.3443 81.2868 67.4529 80.6878 66.5455 80.1159C65.6261 79.5363 64.7267 78.9218 63.8033 78.346C63.2397 77.9905 62.6041 77.7896 61.9325 77.7277C61.1371 77.6543 60.3416 77.72 59.4942 77.8514C59.5861 77.9287 59.6301 77.9828 59.69 78.0137C60.4975 78.4233 61.329 78.7866 62.1044 79.2387C63.3996 80 64.6747 80.7883 65.8859 81.6771C67.1251 82.5813 68.2684 83.5861 69.4276 84.5715C69.6395 84.7531 69.6435 84.8188 69.4436 85.0004C68.9519 85.4371 68.4523 85.8622 67.9686 86.3066C67.7687 86.4959 67.6408 86.4302 67.4849 86.2679C66.8493 85.6226 66.2337 84.9502 65.5582 84.3435C64.319 83.2383 63.0798 82.137 61.7767 81.109C60.8812 80.4057 59.8899 79.8145 58.9265 79.1962C58.5588 78.9605 58.167 78.7518 57.7553 78.5972C57.5434 78.5199 57.2476 78.5199 57.0358 78.5972C56.5681 78.7673 56.1124 78.9798 55.6847 79.231C54.2696 80.0618 52.9305 80.997 51.6553 82.0249C50.0284 83.3388 48.5174 84.7608 47.2302 86.3954C47.0504 86.6234 47.0224 86.608 46.7985 86.4264C46.2709 85.9936 45.7392 85.5646 45.1956 85.1473C45.0317 85.0197 45.0437 84.954 45.1836 84.8265C46.3228 83.7909 47.4661 82.763 48.6973 81.8239C49.9724 80.8501 51.3315 80 52.7066 79.1769C53.3182 78.8098 53.9818 78.5238 54.6214 78.1992C54.8332 78.0948 55.0531 77.9905 55.3129 77.863Z" fill="white"/>
<path d="M79.8927 74.257C79.9487 74.1836 79.9966 74.0985 80.0646 74.0367C81.1879 73.0436 82.0793 71.8843 82.7268 70.5511C82.9507 70.0874 83.1985 69.6352 83.4024 69.1638C83.6063 68.6923 83.7782 68.2093 83.958 67.7301C84.1459 67.2277 84.3338 66.7254 84.5097 66.2192C84.7375 65.5622 84.9534 64.9053 85.1892 64.2484C85.3411 63.8271 85.501 63.4098 85.6729 63.0002C85.8448 62.5906 86.0207 62.1771 86.2285 61.7829C86.5084 61.2535 86.7722 60.7164 87.1199 60.2294C88.0393 58.9465 88.9987 57.6906 89.9421 56.4269C89.9901 56.3612 90.074 56.3187 90.138 56.2646C90.1619 56.2801 90.1859 56.2956 90.2099 56.3071C90.138 56.5081 90.054 56.7052 89.9901 56.91C89.7462 57.6558 89.4664 58.3939 89.2785 59.1513C89.1066 59.8391 89.0427 60.554 88.9268 61.2573C88.8468 61.7636 88.7629 62.2698 88.6789 62.776C88.611 63.1856 88.555 63.5914 88.4671 63.9972C88.3391 64.5768 88.2072 65.1603 88.0393 65.7284C87.8954 66.2192 87.7315 66.7061 87.5197 67.1698C87.108 68.0702 86.5963 68.9203 85.9327 69.6739C85.3531 70.3347 84.7255 70.9607 84.1219 71.6022C84.07 71.6563 84.006 71.7065 83.95 71.7606C83.962 71.7799 83.978 71.7993 83.99 71.8186C84.054 71.7915 84.1219 71.7761 84.1779 71.7374C84.6936 71.3433 85.2132 70.9568 85.7129 70.5433C86.6443 69.7743 87.6476 69.1058 88.7149 68.5378C89.8382 67.9388 90.9854 67.3785 92.1167 66.7949C93.124 66.281 94.1513 65.8018 95.1307 65.2376C96.4138 64.5034 97.577 63.6107 98.5524 62.5055C99.188 61.779 99.7556 61.01 100.123 60.1174C100.139 60.0826 100.171 60.0555 100.195 60.0246C100.223 60.0285 100.251 60.0285 100.279 60.0285C100.279 60.1676 100.315 60.3183 100.283 60.4497C100.147 61.0023 100.039 61.5704 99.8236 62.092C99.4918 62.8842 99.108 63.6571 98.6963 64.4106C98.0447 65.6163 97.1253 66.6365 96.17 67.6142C95.2786 68.53 94.2872 69.3377 93.2279 70.0719C92.3525 70.6786 91.4011 71.1578 90.4697 71.6679C90.098 71.8727 89.6743 71.9963 89.2665 72.147C88.9268 72.2746 88.583 72.3944 88.2352 72.5026C87.9434 72.5914 87.6436 72.6687 87.3438 72.7267C86.4804 72.8967 85.617 73.0474 84.7535 73.2175C84.1179 73.3411 83.4823 73.4802 82.8508 73.6155C82.3151 73.7276 81.7835 73.8358 81.2518 73.9633C80.8361 74.0599 80.4284 74.1835 80.0166 74.2917C79.9846 74.2995 79.9527 74.2995 79.9207 74.3033C79.9247 74.2917 79.9087 74.2724 79.8927 74.257Z" fill="white"/>
<path d="M14.208 60.7321C14.288 60.8597 14.3759 60.9833 14.4439 61.1186C15.1354 62.502 16.1707 63.6227 17.4259 64.5385C18.1494 65.0679 18.9169 65.551 19.7124 65.976C20.8996 66.6136 22.1228 67.1933 23.342 67.7729C24.7571 68.4415 26.1601 69.1332 27.4433 70.022C28.1588 70.5166 28.8344 71.0615 29.5419 71.5677C29.8377 71.7764 30.1735 71.9348 30.4893 72.1165C30.5053 72.0971 30.5213 72.0778 30.5333 72.0585C30.3054 71.8537 30.0856 71.6412 29.8497 71.4441C28.7944 70.563 27.959 69.508 27.2874 68.341C26.9956 67.8348 26.7717 67.2822 26.5759 66.7335C26.348 66.0958 26.1681 65.4428 25.9963 64.7858C25.9003 64.4187 25.8603 64.0361 25.7964 63.6613C25.7204 63.2285 25.6445 62.7996 25.5645 62.3668C25.5006 62.0228 25.4326 61.6828 25.3767 61.3427C25.3047 60.9022 25.2647 60.4539 25.1728 60.0172C25.0769 59.5497 24.9649 59.0782 24.809 58.6261C24.6132 58.0503 24.3693 57.4938 24.1495 56.9219C24.1335 56.8794 24.1615 56.8214 24.2294 56.7403C24.4413 56.9915 24.6611 57.2311 24.861 57.4938C25.6285 58.5063 26.428 59.4994 27.1315 60.5544C27.7271 61.447 28.2428 62.3899 28.7264 63.3444C29.0183 63.9164 29.1782 64.5501 29.398 65.1568C29.5739 65.636 29.7578 66.1152 29.9337 66.5943C30.1175 67.089 30.2894 67.5875 30.4813 68.0821C30.7411 68.7429 30.993 69.4114 31.3008 70.0529C31.5886 70.6558 31.9044 71.2586 32.2921 71.8073C32.7558 72.4643 33.3034 73.071 33.8311 73.6892C34.031 73.925 34.2908 74.1105 34.5146 74.3269C34.5626 74.3732 34.5826 74.4389 34.6186 74.5008C34.5466 74.5162 34.4707 74.5549 34.4067 74.5433C34.1589 74.493 33.911 74.4196 33.6632 74.3578C33.3074 74.2689 32.9517 74.18 32.5959 74.1027C32.2122 74.0216 31.8244 73.9443 31.4407 73.8709C31.0969 73.8052 30.7531 73.7433 30.4053 73.6892C29.6978 73.5772 28.9823 73.4844 28.2787 73.3569C27.6512 73.2449 27.0276 73.1019 26.408 72.955C26.0122 72.8623 25.6165 72.7502 25.2248 72.6304C24.885 72.5261 24.5372 72.4256 24.2214 72.2749C23.5419 71.9503 22.8623 71.6296 22.2227 71.2431C21.5592 70.8412 20.9116 70.4046 20.312 69.9177C19.4765 69.2337 18.6651 68.5188 17.9056 67.7614C17.0581 66.9189 16.3386 65.9683 15.731 64.9481C15.3313 64.2796 14.9435 63.6033 14.6997 62.8575C14.5158 62.2856 14.308 61.7175 14.1241 61.1418C14.0881 61.0258 14.1041 60.8983 14.1001 60.7785C14.1401 60.7669 14.176 60.7476 14.208 60.7321Z" fill="white"/>
<path d="M74.4966 76.0391C74.8284 76.0005 75.1601 75.9773 75.4879 75.927C76.2554 75.7995 77.0109 75.6372 77.7824 75.529C78.7738 75.386 79.7691 75.2701 80.7645 75.1735C81.7358 75.0769 82.7112 75.0228 83.6825 74.9339C84.3141 74.8759 84.9417 74.7909 85.5693 74.7098C86.001 74.6518 86.4327 74.5938 86.8564 74.4972C87.592 74.3272 88.3355 74.1688 89.047 73.9292C89.7145 73.7012 90.3661 73.4036 90.9897 73.0751C91.8332 72.6308 92.5527 72.0125 93.1883 71.313C93.2242 71.2744 93.2722 71.2473 93.3761 71.2396C93.3641 71.3092 93.3641 71.3826 93.3322 71.4444C92.7885 72.5264 92.041 73.4693 91.1736 74.3156C90.3941 75.0807 89.5467 75.7763 88.5873 76.3367C87.9037 76.7385 87.2162 77.1366 86.5007 77.4728C85.945 77.7355 85.3494 77.9249 84.7618 78.1104C84.3021 78.2572 83.8264 78.3732 83.3507 78.4466C82.6072 78.5586 81.8597 78.6823 81.1082 78.69C80.2248 78.7055 79.3414 78.6398 78.462 78.5432C77.7025 78.462 76.947 78.2881 76.1915 78.1568C75.8357 78.0949 75.4839 78.0408 75.1322 77.9713C74.8723 77.921 74.6165 77.8631 74.3607 77.7974C73.6092 77.6157 72.8577 77.4148 72.1022 77.2525C71.2707 77.0709 70.4273 76.9202 69.5918 76.7656C69.2041 76.696 68.8163 76.6458 68.4286 76.584C68.3446 76.5724 68.2567 76.5608 68.1807 76.526C68.1328 76.5067 68.0768 76.4487 68.0768 76.4062C68.0768 76.3714 68.1448 76.3135 68.1927 76.3019C68.6804 76.1898 69.1761 76.0971 69.6638 75.9773C70.0235 75.8845 70.3793 75.7686 70.7311 75.6449C71.2028 75.4788 71.6665 75.2971 72.1261 75.1117C73.0216 74.7523 73.861 74.2886 74.5725 73.6548C75.8237 72.538 77.0389 71.3826 78.2581 70.2349C79.7651 68.8128 81.3041 67.4294 82.983 66.1966C83.1589 66.0691 83.3388 65.9416 83.5226 65.8218C83.5906 65.7754 83.6745 65.7522 83.7545 65.7213C83.7705 65.7407 83.7905 65.76 83.8064 65.7793C83.7665 65.8527 83.7345 65.9339 83.6865 65.9957C83.0549 66.8111 82.5993 67.7231 82.1475 68.635C81.5999 69.7441 81.0803 70.8686 80.4327 71.9236C79.6652 73.1679 78.6459 74.2035 77.2828 74.8953C76.5592 75.2624 75.8277 75.5715 75.0402 75.7686C74.8484 75.815 74.6685 75.8923 74.4806 75.9541C74.4846 75.9734 74.4886 76.0043 74.4966 76.0391Z" fill="white"/>
<path d="M93.1879 47.207C93.2118 47.3963 93.2438 47.5354 93.2438 47.6745C93.2438 48.0803 93.2039 48.4899 93.2398 48.8918C93.3038 49.599 93.4117 50.3023 93.5077 51.0056C93.5636 51.423 93.6276 51.8403 93.7035 52.2576C93.7795 52.6789 93.8754 53.1001 93.9594 53.5213C94.0193 53.8227 94.0953 54.1203 94.1272 54.4217C94.2592 55.6312 94.4191 56.8292 94.2192 58.058C94.0953 58.8193 93.9474 59.5767 93.6755 60.2916C93.4157 60.9833 93.028 61.6325 92.6922 62.301C92.6082 62.4711 92.5003 62.6295 92.4444 62.8343C92.4883 62.7995 92.5403 62.7686 92.5723 62.73C93.4197 61.5707 94.2672 60.4075 95.1106 59.2444C96.074 57.9189 97.1892 56.7248 98.3964 55.6003C99.4357 54.6342 100.431 53.6256 101.227 52.4625C101.706 51.763 102.146 51.0288 102.502 50.2675C102.794 49.6492 103.025 48.9923 103.041 48.2928C103.041 48.2271 103.061 48.1614 103.077 48.0996C103.085 48.0764 103.105 48.061 103.165 47.9798C103.237 48.1267 103.337 48.2426 103.341 48.3585C103.353 49.371 103.393 50.3834 103.333 51.392C103.297 51.9756 103.113 52.5552 102.961 53.131C102.83 53.6334 102.682 54.1357 102.478 54.6149C102.202 55.2718 101.914 55.9249 101.55 56.5355C101.135 57.2349 100.655 57.8996 100.163 58.5526C99.3438 59.6385 98.3645 60.6007 97.3012 61.4586C96.4457 62.1503 95.5263 62.7725 94.6069 63.3869C93.4717 64.1443 92.2965 64.8476 91.1532 65.5935C90.4377 66.0572 89.7541 66.5595 89.0506 67.0426C89.0026 67.0774 88.9267 67.0696 88.8667 67.0851C88.8547 67.0271 88.8147 66.9537 88.8347 66.9112C88.9586 66.6484 89.1106 66.4011 89.2265 66.1345C89.4783 65.5664 89.7421 65.0022 89.942 64.4226C90.1579 63.8004 90.3178 63.1551 90.4777 62.5136C90.5816 62.0808 90.6455 61.6364 90.7095 61.1959C90.8014 60.5737 90.8814 59.9515 90.9493 59.3255C91.0293 58.5758 91.1012 57.8261 91.1692 57.0726C91.2611 56.0563 91.3291 55.04 91.437 54.0275C91.537 53.1155 91.6569 52.2035 91.8088 51.2954C91.8967 50.7776 92.0526 50.2675 92.2045 49.7613C92.3524 49.2705 92.5323 48.7913 92.7002 48.3083C92.8121 47.9798 92.932 47.6552 93.0519 47.3306C93.0759 47.2958 93.1079 47.2804 93.1879 47.207Z" fill="white"/>
<path d="M25.5723 67.51C25.3165 67.3593 25.0566 67.2164 24.8048 67.0579C23.4977 66.2387 22.1825 65.431 20.8874 64.5963C19.944 63.9896 18.9966 63.3829 18.1092 62.7067C17.0859 61.9261 16.0825 61.103 15.1432 60.2296C14.1958 59.3447 13.3763 58.3322 12.7807 57.1923C12.305 56.2957 11.9173 55.349 11.5575 54.4022C11.3697 53.9037 11.3177 53.3589 11.2138 52.8294C10.9539 51.5426 11.1138 50.2403 11.0778 48.9419C11.0738 48.8646 11.0938 48.7874 11.1018 48.7062C11.1258 48.7023 11.1498 48.6985 11.1738 48.6946C11.1978 48.7642 11.2297 48.8299 11.2417 48.9033C11.4016 49.7418 11.5975 50.5727 12.0212 51.3262C12.365 51.9407 12.7567 52.5358 13.1725 53.1038C14.1158 54.4022 15.327 55.4765 16.4463 56.6281C17.3737 57.5864 18.3211 58.5371 19.1685 59.5611C19.964 60.5195 20.6315 61.5706 21.3631 62.5753C21.515 62.7801 21.6988 62.9579 21.8707 63.1511C21.8907 63.1356 21.9107 63.1202 21.9307 63.1086C21.7828 62.8728 21.6149 62.6487 21.491 62.4014C21.2312 61.8758 20.9753 61.3426 20.7515 60.8016C20.2998 59.6886 20.0999 58.5216 20.0839 57.3353C20.0719 56.5778 20.1758 55.8166 20.2478 55.0592C20.2878 54.6225 20.3597 54.1897 20.4317 53.7569C20.4796 53.4709 20.5516 53.1927 20.6036 52.9067C20.7954 51.8981 21.0273 50.8973 21.1512 49.881C21.2272 49.282 21.1352 48.6637 21.1152 48.0493C21.1112 47.9874 21.1032 47.9217 21.0992 47.8599C21.1192 47.8483 21.1432 47.8367 21.1632 47.8213C21.2391 47.9179 21.3471 47.999 21.391 48.1072C21.5989 48.6096 21.8068 49.1158 21.9747 49.6336C22.1186 50.0742 22.2305 50.5224 22.3304 50.9746C22.4823 51.6701 22.6182 52.3657 22.7541 53.0652C22.8101 53.3589 22.8461 53.6525 22.8781 53.9501C22.958 54.6418 23.038 55.3335 23.1059 56.0252C23.1779 56.7324 23.2378 57.4435 23.3058 58.1506C23.3857 58.9505 23.4657 59.7505 23.5656 60.5465C23.6416 61.1532 23.7375 61.756 23.8414 62.3589C23.9334 62.896 24.0213 63.437 24.1652 63.9626C24.3091 64.4765 24.501 64.9789 24.7169 65.4697C24.9767 66.0609 25.2805 66.6328 25.5603 67.2125C25.5963 67.282 25.6003 67.3671 25.6163 67.4443C25.6003 67.4753 25.5843 67.4907 25.5723 67.51Z" fill="white"/>
<path d="M40.3388 76.2236C40.2789 76.2043 40.2189 76.1773 40.1589 76.1579C39.8711 76.0807 39.5793 76.015 39.2915 75.9338C38.9078 75.8217 38.528 75.7097 38.1563 75.5744C37.3448 75.2769 36.5973 74.8711 35.9537 74.3069C35.1662 73.6229 34.5027 72.8385 33.975 71.9458C33.6033 71.3159 33.2475 70.6744 32.8997 70.033C32.2362 68.808 31.6246 67.5559 30.8131 66.4082C30.7691 66.3464 30.7412 66.273 30.6732 66.1339C30.8091 66.1725 30.8771 66.1764 30.921 66.2073C32.6839 67.4245 34.3348 68.7693 35.8938 70.2223C37.009 71.2618 38.1243 72.3013 39.2595 73.3215C40.1629 74.133 41.1863 74.7861 42.3335 75.2382C43.105 75.5396 43.8805 75.8333 44.672 76.0806C45.1796 76.2391 45.7153 76.3125 46.2429 76.4284C46.3269 76.4478 46.4148 76.4709 46.4988 76.4941C46.5068 76.5289 46.5148 76.5598 46.5188 76.5907C46.3748 76.6487 46.2349 76.7376 46.083 76.7608C45.3675 76.8767 44.644 76.9578 43.9325 77.0931C43.4408 77.1858 42.9651 77.3559 42.4774 77.4795C41.9977 77.6032 41.518 77.7037 41.0344 77.8235C40.4947 77.9548 39.9591 78.0901 39.4234 78.2176C39.1676 78.2794 38.9078 78.3413 38.6479 78.3915C36.9571 78.7161 35.2542 78.9634 33.5273 78.948C32.7838 78.9403 32.0403 78.8668 31.3048 78.747C30.5773 78.6311 29.8497 78.4611 29.1462 78.2331C28.4667 78.0128 27.8151 77.7037 27.1635 77.4023C25.7804 76.7608 24.5732 75.872 23.4779 74.8479C22.5146 73.9475 21.7031 72.9312 21.0635 71.7835C21.0555 71.7719 21.0675 71.7526 21.0755 71.6792C21.1835 71.7487 21.2874 71.7912 21.3553 71.8647C22.0629 72.6337 22.9143 73.221 23.8537 73.6886C24.3813 73.9514 24.945 74.1523 25.5006 74.3494C25.9563 74.5079 26.424 74.6392 26.8917 74.7552C27.1955 74.8325 27.5113 74.8711 27.8231 74.9136C28.6625 75.0218 29.502 75.1455 30.3454 75.2228C31.6326 75.3387 32.9237 75.4198 34.2149 75.5164C34.8544 75.5667 35.498 75.6053 36.1376 75.6788C36.6812 75.7406 37.2169 75.8449 37.7565 75.9299C38.524 76.0536 39.2875 76.185 40.055 76.3086C40.139 76.3202 40.2269 76.297 40.3148 76.2893C40.3348 76.2661 40.3388 76.2429 40.3388 76.2236Z" fill="white"/>
<path d="M92.5726 37.0788C92.5966 37.1947 92.6126 37.3145 92.6526 37.4266C92.8684 37.9714 93.0723 38.524 93.3201 39.0534C94.0517 40.6146 95.119 41.9903 95.9504 43.4936C96.4061 44.3205 96.8378 45.1668 97.1856 46.0402C97.5134 46.8555 97.6493 47.7289 97.6773 48.6099C97.7013 49.3403 97.6773 50.0668 97.5214 50.7856C97.4494 51.1179 97.3575 51.4464 97.2815 51.7748C97.2456 51.9333 97.2136 52.0917 97.1816 52.2501C97.2096 52.2579 97.2376 52.2656 97.2655 52.2733C97.3015 52.1922 97.3455 52.1149 97.3655 52.0299C97.5693 51.1527 97.7612 50.2677 97.9731 49.3905C98.1649 48.6061 98.3328 47.81 98.5967 47.0449C98.9364 46.0711 99.3522 45.1204 99.7519 44.166C100.064 43.4163 100.411 42.682 100.723 41.9324C100.975 41.3218 101.223 40.7035 101.415 40.0736C101.591 39.4901 101.675 38.8795 101.819 38.2883C102.03 37.4343 101.962 36.5764 101.934 35.7147C101.926 35.5253 101.871 35.3398 101.843 35.1543C101.831 35.0809 101.843 34.9998 101.843 34.9263C101.863 34.9186 101.886 34.9109 101.91 34.9031C101.99 35.0191 102.098 35.1273 102.142 35.2548C102.33 35.7649 102.514 36.2788 102.674 36.7967C102.774 37.1135 102.842 37.4381 102.918 37.7589C103.258 39.2428 103.302 40.7499 103.214 42.257C103.162 43.1612 102.962 44.0578 102.802 44.9543C102.718 45.4257 102.598 45.8933 102.466 46.3532C102.358 46.7319 102.226 47.1106 102.074 47.4777C101.811 48.1114 101.543 48.7413 101.235 49.3558C101.051 49.7229 100.811 50.0707 100.551 50.3953C99.4481 51.798 98.3209 53.1814 97.2216 54.5842C96.7579 55.1754 96.3342 55.7976 95.8865 56.4043C95.8345 56.4739 95.7505 56.5241 95.6826 56.5821C95.6626 56.4893 95.6226 56.4004 95.6266 56.3077C95.6666 55.5155 95.7585 54.7156 95.7426 53.9234C95.7266 53.1583 95.6466 52.3854 95.4987 51.6357C95.3708 50.9788 95.103 50.345 94.9031 49.6997C94.7272 49.1471 94.5633 48.5945 94.3914 48.0419C94.1996 47.4197 93.9957 46.8014 93.8238 46.1715C93.6359 45.4876 93.48 44.7958 93.3121 44.1041C93.1722 43.5245 93.0243 42.9487 92.9124 42.3652C92.7845 41.716 92.6766 41.0629 92.5886 40.406C92.4567 39.4283 92.3248 38.4506 92.3968 37.4613C92.4047 37.3377 92.4327 37.214 92.4487 37.0865C92.4927 37.0788 92.5327 37.0788 92.5726 37.0788Z" fill="white"/>
<path d="M12.2895 35.5286C12.3055 35.7373 12.3494 35.8918 12.3174 36.0271C12.0856 36.9777 12.1975 37.9361 12.3654 38.8712C12.5053 39.6596 12.7891 40.4324 13.057 41.1937C13.2968 41.87 13.5926 42.5269 13.8884 43.1838C14.1602 43.7867 14.472 44.3741 14.7359 44.9808C15.0357 45.6802 15.3075 46.3912 15.5753 47.0984C15.7112 47.4539 15.8351 47.8172 15.9351 48.1843C16.075 48.6944 16.1949 49.2122 16.3188 49.7223C16.5147 50.5261 16.7066 51.3298 16.8984 52.1298C16.9264 52.2457 16.9664 52.3539 17.0024 52.4698C17.0263 52.466 17.0503 52.4621 17.0743 52.4544C17.0583 52.3462 17.0583 52.2341 17.0263 52.1336C16.6626 50.9318 16.6186 49.7146 16.8345 48.4934C16.9664 47.7399 17.1343 46.9825 17.3661 46.256C17.57 45.6145 17.8498 44.9885 18.1656 44.3895C18.6253 43.5084 19.141 42.6506 19.6446 41.7965C19.9644 41.2517 20.3402 40.7377 20.648 40.189C20.8718 39.7794 21.0437 39.335 21.2036 38.8944C21.3355 38.5389 21.4115 38.1641 21.5234 37.8008C21.5434 37.7313 21.6273 37.681 21.6833 37.6192C21.7113 37.6269 21.7352 37.6347 21.7632 37.6462C21.7752 37.8047 21.7792 37.967 21.7952 38.1254C21.8911 39.1649 21.7472 40.189 21.5953 41.213C21.4714 42.0323 21.3755 42.8515 21.2516 43.6707C21.2036 43.9876 21.1196 44.3045 21.0437 44.6175C20.9158 45.1392 20.7839 45.657 20.648 46.1787C20.524 46.6424 20.3921 47.1023 20.2602 47.5621C20.1323 48.0065 20.0044 48.4509 19.8685 48.8915C19.7446 49.3011 19.6206 49.7107 19.4967 50.1242C19.3688 50.5531 19.2249 50.9743 19.109 51.4071C18.9571 51.9713 18.7852 52.5394 18.6972 53.1152C18.6173 53.6369 18.6133 54.174 18.6293 54.6996C18.6533 55.426 18.7372 56.1525 18.7892 56.879C18.7972 56.9679 18.7492 57.0607 18.7252 57.1495C18.6373 57.0954 18.5214 57.0607 18.4694 56.9834C18.2136 56.6124 18.0057 56.2105 17.7299 55.855C17.1303 55.0783 16.5027 54.3286 15.8911 53.5634C15.0077 52.4582 14.0963 51.3724 13.2648 50.2324C12.8211 49.6257 12.4773 48.9417 12.2655 48.2113C12.0536 47.4887 11.8178 46.7738 11.6499 46.0434C11.466 45.2474 11.3461 44.4359 11.1942 43.636C10.9543 42.4032 11.0823 41.1589 11.1062 39.9223C11.1182 39.3156 11.3341 38.7128 11.462 38.1061C11.518 37.8395 11.5739 37.5728 11.6539 37.3101C11.8178 36.7575 11.9897 36.2087 12.1655 35.6561C12.1616 35.6329 12.1975 35.6136 12.2895 35.5286Z" fill="white"/>
<path d="M97.8648 39.6129C97.8208 39.1183 97.7769 38.6275 97.7289 38.1328C97.7129 37.9667 97.6649 37.8044 97.6609 37.6382C97.613 35.6674 97.545 33.6927 97.7329 31.7219C97.8248 30.7481 97.9727 29.782 98.0447 28.8082C98.0807 28.3329 98.0087 27.8499 97.9727 27.3707C97.9168 26.5708 97.7809 25.7902 97.525 25.0134C97.3412 24.4647 97.1293 23.9469 96.7895 23.4754C96.7735 23.4522 96.7735 23.4136 96.8095 23.3286C96.9334 23.4059 97.0893 23.46 97.1773 23.5682C97.565 24.0396 97.9488 24.5188 98.2965 25.0134C98.6563 25.5235 99.0041 26.0452 99.3079 26.5901C99.5757 27.0731 99.7995 27.5871 99.9954 28.101C100.219 28.6923 100.411 29.3028 100.583 29.9134C100.679 30.2535 100.735 30.609 100.771 30.9606C100.859 31.8224 100.987 32.688 100.995 33.5536C101.003 34.3342 100.899 35.1225 100.799 35.8993C100.727 36.448 100.595 36.989 100.455 37.5223C100.371 37.8469 100.223 38.156 100.099 38.4729C99.9195 38.9328 99.7276 39.3926 99.5517 39.8525C99.4158 40.208 99.2719 40.5596 99.16 40.9229C98.9681 41.5489 98.7802 42.1711 98.6203 42.8048C98.4444 43.512 98.3045 44.2269 98.1486 44.9379C98.1406 44.9766 98.1086 45.0075 98.0687 45.0693C98.0207 45.0114 97.9727 44.9766 97.9608 44.9302C97.7409 44.2114 97.565 43.4772 97.3012 42.7778C97.0893 42.2174 96.7975 41.6764 96.4937 41.1548C95.6103 39.6399 94.475 38.2951 93.4317 36.8847C92.7402 35.9534 92.0566 35.0143 91.437 34.0367C90.9973 33.3372 90.6256 32.5914 90.3937 31.7876C90.2938 31.4398 90.1299 31.1114 90.01 30.7674C89.938 30.5626 89.8821 30.3578 89.8261 30.1491C89.7182 29.7434 89.6103 29.3338 89.5063 28.928C89.4903 28.8739 89.4783 28.8082 89.4903 28.758C89.5023 28.7116 89.5463 28.6691 89.5783 28.6227C89.6142 28.6536 89.6662 28.6691 89.6862 28.7077C90.0819 29.4033 90.5936 30.01 91.1772 30.5588C91.8927 31.2311 92.6602 31.8572 93.3838 32.5257C94.1912 33.2754 95.0107 34.0173 95.7462 34.8327C96.2019 35.3351 96.5697 35.934 96.8695 36.5369C97.3052 37.4063 97.573 38.3415 97.6889 39.3076C97.7009 39.4158 97.7369 39.5201 97.7609 39.6283C97.8008 39.6245 97.8328 39.6206 97.8648 39.6129Z" fill="white"/>
<path d="M16.1947 45.5949C16.1787 45.5253 16.1507 45.4558 16.1427 45.3862C16.0827 44.9534 16.0348 44.5167 15.9628 44.0839C15.9268 43.8598 15.8629 43.6318 15.7869 43.4154C15.5591 42.7508 15.3192 42.0938 15.0794 41.433C14.8635 40.834 14.6437 40.2389 14.4158 39.6438C14.2439 39.1801 14.0321 38.7241 13.8922 38.2527C13.6843 37.5494 13.5164 36.8345 13.3445 36.1196C13.0447 34.8675 13.1527 33.5961 13.1966 32.3325C13.2166 31.7451 13.3565 31.1578 13.4724 30.5742C13.5524 30.1646 13.6643 29.755 13.8122 29.3608C14.0241 28.7889 14.2559 28.2209 14.5078 27.6683C15.0874 26.4008 15.9148 25.2801 16.7543 24.1672C16.8262 24.0706 16.9701 24.0203 17.0821 23.9508C17.0501 24.0667 17.0421 24.1942 16.9861 24.2947C16.5824 24.998 16.3146 25.7438 16.1547 26.5399C15.9348 27.6605 16.0068 28.7889 16.0428 29.9096C16.0627 30.4854 16.1867 31.0573 16.2666 31.6331C16.3266 32.0852 16.3945 32.5335 16.4465 32.9856C16.6304 34.6279 16.7503 36.2664 16.5464 37.9165C16.4425 38.7357 16.3945 39.5665 16.3266 40.3935C16.3226 40.4515 16.3386 40.5133 16.3466 40.5713C16.3705 40.5751 16.3985 40.5751 16.4225 40.579C16.4785 40.3201 16.5464 40.0612 16.5864 39.8023C16.7183 38.9482 16.9302 38.1251 17.2979 37.333C17.8815 36.0616 18.741 34.9757 19.7403 33.998C20.7716 32.9933 21.8749 32.0659 22.9022 31.0611C23.3659 30.609 23.7217 30.0525 24.1174 29.5386C24.2174 29.4111 24.2853 29.2604 24.3653 29.1212C24.3932 29.1251 24.4212 29.1251 24.4492 29.1251C24.4492 29.2526 24.4692 29.384 24.4452 29.5038C24.3693 29.8825 24.2853 30.2612 24.1854 30.6361C24.0535 31.123 23.9256 31.6099 23.7577 32.0852C23.5578 32.6687 23.3499 33.2561 23.0901 33.8164C22.8583 34.3188 22.5824 34.8095 22.2667 35.2694C21.2673 36.7185 20.24 38.1483 19.2207 39.582C18.5171 40.5751 17.8496 41.5915 17.3339 42.6928C17.0421 43.3188 16.8502 43.9912 16.6264 44.6443C16.5504 44.8684 16.5264 45.1119 16.4585 45.3399C16.4265 45.4403 16.3426 45.5253 16.2826 45.6142C16.2506 45.6142 16.2226 45.6026 16.1947 45.5949Z" fill="white"/>
<path d="M89.7779 17.5982C89.9458 17.6407 90.1176 17.6716 90.2855 17.7219C91.5007 18.1006 92.5321 18.7652 93.4514 19.6115C94.2869 20.3767 94.9544 21.2655 95.4901 22.2354C95.7779 22.761 95.9818 23.3367 96.1696 23.9125C96.6533 25.4312 96.6413 26.9924 96.5694 28.5652C96.5054 29.9911 96.4934 31.4171 96.4814 32.843C96.4774 33.1792 96.5734 33.5154 96.6213 33.8516C96.6333 33.9327 96.6413 34.0178 96.6293 34.0989C96.6213 34.153 96.5774 34.2071 96.5454 34.2574C96.4974 34.2187 96.4375 34.1878 96.4095 34.1376C95.8698 33.156 95.1463 32.3175 94.3349 31.5407C93.1516 30.4085 91.7925 29.4849 90.5174 28.4608C89.7139 27.8155 88.9304 27.147 88.1789 26.4514C87.4954 25.8176 86.9677 25.0602 86.588 24.2178C86.2602 23.4875 85.9724 22.7378 85.6846 21.9881C85.5926 21.7485 85.5606 21.4896 85.5007 21.2423C85.4607 21.0761 85.4088 20.9099 85.3768 20.7399C85.3608 20.651 85.3728 20.5622 85.3728 20.4733C85.4007 20.4694 85.4327 20.4655 85.4567 20.4617C85.5726 20.6626 85.6846 20.8674 85.8045 21.0684C86.48 22.1813 87.4354 23.0276 88.4907 23.7889C89.8178 24.7434 91.2729 25.5394 92.4641 26.6562C93.2915 27.4291 94.135 28.2058 94.6147 29.2569C94.6706 29.3806 94.7506 29.4965 94.8185 29.6163C94.8385 29.6086 94.8625 29.6008 94.8865 29.597C94.8185 29.4153 94.7506 29.2376 94.6906 29.056C94.4388 28.287 94.183 27.518 93.9351 26.7489C93.7952 26.3161 93.6553 25.8833 93.5354 25.4467C93.3995 24.9598 93.2955 24.469 93.1676 23.9821C93.0437 23.5106 92.9078 23.0431 92.7759 22.5716C92.664 22.1658 92.568 21.7524 92.4241 21.3582C92.2402 20.8713 92.0644 20.3767 91.7925 19.9361C91.4847 19.4376 91.093 18.9816 90.7012 18.5334C90.4894 18.2899 90.2016 18.1122 89.9537 17.8958C89.8698 17.8262 89.8058 17.7335 89.7299 17.6523C89.7499 17.6291 89.7619 17.6137 89.7779 17.5982Z" fill="white"/>
<path d="M19.1248 30.3623C19.2527 30.1265 19.3726 29.887 19.5085 29.6551C20.308 28.3026 21.3593 27.1587 22.6545 26.2313C23.5219 25.6053 24.4173 25.0102 25.2807 24.3803C26.2881 23.6461 27.2115 22.823 27.859 21.7564C28.0149 21.5014 28.1348 21.2309 28.2748 20.9681C28.2947 20.9294 28.3347 20.8947 28.4386 20.8676C28.4466 20.9797 28.4706 21.0917 28.4546 21.2038C28.3627 21.9612 28.1828 22.6916 27.915 23.4103C27.2594 25.1763 26.1282 26.6293 24.7571 27.9161C23.9696 28.6581 23.1341 29.3653 22.2547 30.0029C20.9316 30.9612 19.7244 32.0239 18.729 33.303C18.4133 33.7088 18.1494 34.157 17.8616 34.5821C17.7977 34.6749 17.7297 34.7637 17.6618 34.8565C17.6258 34.8372 17.5938 34.8178 17.5618 34.7947C17.5538 34.7212 17.5418 34.644 17.5458 34.5705C17.5818 33.6431 17.6617 32.7157 17.6498 31.7882C17.6378 30.8608 17.5178 29.9372 17.4779 29.0098C17.4459 28.3064 17.4419 27.6031 17.4739 26.8998C17.5059 26.2661 17.5738 25.6323 17.6817 25.0024C17.7577 24.558 17.8936 24.1175 18.0575 23.6924C18.2574 23.1708 18.4932 22.6568 18.761 22.166C18.9249 21.8607 19.1648 21.5941 19.3886 21.3236C19.9962 20.5855 20.6518 19.8822 21.4552 19.3335C22.0149 18.9548 22.5865 18.5992 23.2501 18.4022C23.4379 18.3481 23.6138 18.263 23.7977 18.1974C23.8497 18.178 23.9136 18.1819 23.9696 18.1742C23.9816 18.1974 23.9936 18.2205 24.0056 18.2476C23.8057 18.4138 23.5938 18.5722 23.406 18.75C22.8343 19.291 22.3307 19.8783 22.0109 20.5932C21.763 21.1497 21.4992 21.7062 21.3034 22.282C21.1395 22.7727 21.0595 23.2944 20.9436 23.8006C20.8117 24.3571 20.6838 24.9097 20.5478 25.4623C20.4319 25.9415 20.32 26.4284 20.1881 26.9037C20.0762 27.3172 19.9442 27.7307 19.8043 28.1364C19.5805 28.7856 19.3406 29.4271 19.1088 30.0763C19.0768 30.1613 19.0768 30.2579 19.0648 30.3468C19.0848 30.3545 19.1008 30.3584 19.1248 30.3623Z" fill="white"/>
<path d="M80.8003 13.4325C80.9083 13.4325 80.9642 13.4171 81.0042 13.4364C81.6118 13.6683 82.2234 13.8885 82.823 14.1358C83.7144 14.503 84.5938 14.8894 85.4813 15.2604C86.2807 15.5927 86.9803 16.068 87.6438 16.6052C88.3714 17.1925 88.9829 17.8765 89.5346 18.6185C90.1622 19.4609 90.6578 20.3729 91.0456 21.3312C91.3134 21.9882 91.4893 22.6799 91.7172 23.3523C91.893 23.8585 92.0849 24.357 92.2648 24.8632C92.2928 24.9405 92.2848 25.0333 92.2968 25.1183C92.2208 25.0912 92.1289 25.0796 92.0689 25.0371C90.8577 24.1754 89.7105 23.2364 88.6312 22.22C87.5439 21.196 86.4966 20.141 85.5812 18.9701C84.8937 18.0852 84.2661 17.1616 83.5705 16.2844C83.2268 15.8477 82.795 15.4729 82.3913 15.0749C81.9236 14.6112 81.4439 14.1629 80.9762 13.703C80.9123 13.6412 80.8763 13.5523 80.8003 13.4325Z" fill="white"/>
<path d="M21.5712 25.617C21.7151 25.2229 21.871 24.8326 22.0069 24.4346C22.1548 24.0056 22.2827 23.5689 22.4226 23.1361C22.5545 22.7188 22.6785 22.3014 22.8224 21.888C22.9663 21.4745 23.0902 21.0494 23.298 20.6707C23.5978 20.1181 23.9536 19.5887 24.3014 19.067C25.1648 17.7763 26.332 16.7948 27.7111 16.0528C28.5946 15.5775 29.506 15.1563 30.4213 14.7467C30.989 14.4955 31.5926 14.3139 32.1802 14.0975C32.3721 14.024 32.5639 13.9429 32.7558 13.8617C32.7758 13.8811 32.7918 13.9004 32.8118 13.9158C32.7598 13.997 32.7198 14.1013 32.6479 14.1593C31.8164 14.8356 31.1129 15.6239 30.4653 16.4547C29.466 17.7338 28.4906 19.0284 27.5153 20.3229C26.6039 21.5363 25.4806 22.5488 24.3054 23.5148C23.4859 24.1872 22.6705 24.8674 21.851 25.5436C21.783 25.5977 21.6991 25.6248 21.6231 25.6673C21.6072 25.6518 21.5872 25.6325 21.5712 25.617Z" fill="white"/>
<path d="M34.7542 35.8339L34.7582 38.8906L34.1506 39.2152L34.1466 36.1895L34.7542 35.8339Z" fill="white"/>
<path d="M33.8942 36.2555L33.8902 39.1344L33.3345 39.4475V36.5917L33.8942 36.2555Z" fill="white"/>
<path d="M33.0033 36.6646L33.0073 39.4663L32.4676 39.7097L32.4636 36.9158L33.0033 36.6646Z" fill="white"/>
<path d="M56.8233 34.5857L57.5668 34.2379V38.0791L56.8233 38.4114V34.5857Z" fill="white"/>
<path d="M59.1256 10.2328L59.1216 9.01549L58.0623 8.9923L54.7765 5.25549L54.7485 4.529L53.3934 4.16961L53.3814 3.72908L52.2701 3.39675C52.2701 3.39675 52.7778 2.60456 52.0662 2.07515C52.0662 2.07515 52.1142 1.34865 51.4347 1.31774L51.1868 0L50.927 1.31387C50.927 1.31387 50.2874 1.47618 50.2914 2.11765C50.2914 2.11765 49.5359 2.80937 50.2954 3.52814H49.6438L48.4566 4.99658H47.881L47.885 6.05927L45.0509 10.4144L44.1834 10.596L44.1874 11.5659L41.7371 13.2122L41.6691 13.7184L44.2194 14.0237L49.1961 11.651L59.2335 12.4277L62.1516 10.882L59.1256 10.2328ZM47.9849 10.1246L44.1914 12.362L43.6878 12.2654L48.9083 9.17006L58.9777 10.2443L59.9011 10.9438L47.9849 10.1246Z" fill="white"/>
<path d="M79.1323 20.5268V19.1202H78.5687V17.0528L77.8531 17.0218V17.4972H77.1496V17.0682L76.1742 17.0721L75.6226 16.3533L75.5587 15.0626L74.6553 15.8819L73.7598 15.0974L71.941 14.7612L72.8644 13.8763L72.1209 13.6831L71.1016 12.4503C71.1016 12.4503 69.9224 12.4542 69.7905 12.4542L68.6272 13.942L67.9757 14.2743L68.6992 14.7883V15.3331C67.6159 15.6461 67.2841 16.2567 67.2841 16.2567L66.7125 16.7127L65.869 16.79L65.7971 17.8102L65.1055 17.899L64.2861 19.0854L63.2308 18.6565L63.2348 20.7084L62.9749 20.7277L63.0189 21.8523L61.5319 22.6406L63.0709 23.7767L69.2588 21.5818H69.2748L79.1163 21.9295L81.9864 20.5268H79.1323ZM68.6672 20.1906L63.0709 22.3044L63.1628 22.1691L63.6945 21.5354L68.4034 19.4796L78.157 20.094L78.8485 20.7432L68.6672 20.1906Z" fill="white"/>
<path d="M59.2217 12.4358L49.1843 11.6591L49.1963 19.8553L59.3776 20.4118L59.2217 12.4358ZM54.3489 18.3212C52.8579 18.3251 51.6467 17.1542 51.6467 15.7166C51.6427 14.2752 52.8539 13.1044 54.3409 13.1044C55.8319 13.1005 57.0431 14.2714 57.0431 15.7089C57.0471 17.1503 55.8359 18.3173 54.3489 18.3212Z" fill="white"/>
<path d="M54.3413 16.6244C54.8609 16.6244 55.2847 16.2148 55.2847 15.7124C55.2847 15.2101 54.8609 14.8004 54.3413 14.8004C53.8216 14.8004 53.3979 15.2101 53.3979 15.7124C53.3979 16.2148 53.8216 16.6244 54.3413 16.6244Z" fill="white"/>
<path d="M47.0141 13.8034C46.1627 13.6797 45.2873 14.7849 45.0594 16.2688C44.8276 17.7527 45.3312 19.0588 46.1827 19.1786C47.0301 19.3023 47.9095 18.1971 48.1414 16.7132C48.3692 15.2332 47.8656 13.9309 47.0141 13.8034ZM47.222 16.5818C47.1261 17.1846 46.7743 17.6252 46.4345 17.5788C46.0907 17.5286 45.8869 17.003 45.9828 16.404C46.0748 15.8051 46.4305 15.3607 46.7703 15.407C47.1101 15.4573 47.3139 15.9828 47.222 16.5818Z" fill="white"/>
<path d="M79.1166 28.3134L79.1086 21.9257L69.2671 21.5779L69.2751 27.8575L66.381 27.8729L66.385 30.435L68.6355 30.4311L68.6515 43.0597L82.1666 43.0443L82.1506 30.9219L84.0414 30.918L84.0374 28.3018L79.1166 28.3134ZM72.6369 27.8613L70.7981 27.8652L70.7901 22.8184L72.6289 22.8145L72.6369 27.8613ZM75.495 27.8575L73.7561 27.8613L73.7482 22.8106L75.487 22.8068L75.495 27.8575ZM77.9094 27.9425L76.6942 27.9463L76.6862 22.8957L77.9014 22.8918L77.9094 27.9425Z" fill="white"/>
<path d="M68.2918 22.9925L68.2958 27.2278L66.9847 27.6838L66.9767 23.491L68.2918 22.9925Z" fill="white"/>
<path d="M66.5289 23.5921L66.5209 27.7927L65.3257 28.2486L65.3337 24.0906L66.5289 23.5921Z" fill="white"/>
<path d="M64.8342 24.3259L64.8382 28.4298L63.8828 28.7853L63.8748 24.6968L64.8342 24.3259Z" fill="white"/>
<path d="M59.8654 23.6764L49.4962 23.2204L44.8393 25.1294L42.0491 24.7391L48.8406 21.7211C48.8406 21.7211 61.4643 22.548 61.5283 22.548C61.5922 22.548 59.8654 23.6764 59.8654 23.6764Z" fill="white"/>
<path d="M59.8335 30.1114L59.8375 32.1325L62.076 32.1286L62.084 37.1136L55.1366 39.4554L55.1406 43.0531L52.3664 43.0569L52.3505 31.6958L51.6549 30.3665L51.6509 27.7889L49.5083 28.5309L49.5003 23.2213L59.8415 23.6773L59.8495 28.4575L63.2952 28.4536V28.8825L59.9055 30.1153H59.8335V30.1114Z" fill="white"/>
<path d="M42.8128 34.6012L42.8088 34.8021L35.2058 34.5509L32.1319 35.6639L30.373 35.2001L31.972 34.5162L31.908 33.4573H32.3917L32.3877 32.4565L33.3031 32.4526V31.6643H33.9587L33.9547 30.2267L34.2944 30.5552L35.2378 30.1842C35.2378 30.0103 35.3098 29.8519 35.4297 29.7398C35.5496 29.6239 35.7095 29.5544 35.8894 29.5544H36.1052V29.1911L35.2898 28.5033L36.2252 28.4994L36.6689 27.456L37.4723 27.429L37.8881 28.4646L38.7715 28.4607L37.948 29.1602L37.964 29.5428C37.964 29.5428 38.8994 29.4809 38.9274 30.1301L39.9387 30.1263L40.0666 29.6548L40.4584 29.6471L40.4224 30.3272C40.4224 30.3272 40.8981 30.4779 40.8781 31.1696L42.0773 31.1658V31.5213L41.078 32.1782L41.054 33.2796L35.2138 32.8197L32.6955 33.8438L32.3837 34.3693L35.1659 33.3144L41.002 33.6583L40.994 34.5896L42.8128 34.6012Z" fill="white"/>
<path d="M35.2055 34.5467L35.2174 43.1294L42.5166 43.1217L42.5046 34.7902L35.2055 34.5467ZM37.42 39.211L36.3327 39.2149L36.3287 35.8336L37.416 35.8297L37.42 39.211ZM39.7065 39.2071L38.6032 39.211L38.5992 36.0113L39.7025 36.0075L39.7065 39.2071ZM41.7292 39.1801L40.7658 39.1839L40.7618 36.1157L41.7252 36.1118L41.7292 39.1801Z" fill="white"/>
<path d="M51.7434 46.9791V48.2466H47.73V56.779H46.199V48.2466H42.2616V46.9791H51.7434Z" fill="white"/>
<path d="M35.5139 47.0526V56.7792H37.0489V47.0526H35.5139Z" fill="white"/>
<path d="M40.4705 47.0526H38.9355V56.7791H40.4705V47.0526Z" fill="white"/>
<path d="M62.1883 53.749C62.0524 52.1801 60.6773 51.728 60.6773 51.728C61.4328 51.272 61.9324 50.4605 61.9324 49.5369C61.9324 48.849 61.6446 48.2308 61.1809 47.7825C60.7173 47.3342 60.0777 47.056 59.3661 47.056H55.3808V56.7825H59.2142C59.2142 56.7825 61.3568 56.7168 61.9924 55.1015C62.0004 55.0822 62.0084 55.0629 62.0164 55.0436C62.1483 54.7074 62.2363 54.2784 62.1883 53.749ZM59.1583 47.9216C60.0297 47.9216 60.7372 48.6056 60.7372 49.448V49.5021C60.7372 50.4682 59.9298 51.2488 58.9304 51.2488H56.488V47.9216H59.1583ZM61.045 54.6146C60.9731 55.2059 60.4974 55.5305 60.0417 55.7044C59.586 55.8821 59.1463 55.9092 59.1463 55.9092H56.488V52.1183H59.0024C60.7412 52.2651 60.9491 53.15 60.9491 53.15C60.9491 53.15 61.1889 53.4283 61.045 54.6146Z" fill="white"/>
<path d="M60.0418 55.709C59.5861 55.8868 59.1464 55.9138 59.1464 55.9138L60.0418 55.709Z" fill="white"/>
<path d="M70.8229 47.0526V56.7791H69.6436V52.1188H65.2505V56.7791H64.0713V47.0526H65.2505V51.1063H69.6436V47.0526H70.8229Z" fill="white"/>
<path d="M79.6928 47.0526V54.3523C79.6928 55.7821 78.4976 56.9376 77.0185 56.9376H75.7754C74.1684 56.9376 72.8653 55.6778 72.8653 54.1243V47.0526H74.0725V53.7843C74.0725 54.8779 74.9919 55.7667 76.1231 55.7667H76.5309C77.6102 55.7667 78.4896 54.9204 78.4896 53.8732V47.0526H79.6928Z" fill="white"/>
<path d="M61.6208 58.2631V65.5628C61.6208 66.9926 60.4255 68.1481 58.9465 68.1481H57.7033C56.0964 68.1481 54.7933 66.8883 54.7933 65.3348V58.2631H56.0005V64.9948C56.0005 66.0884 56.9199 66.9772 58.0511 66.9772H58.4588C59.5381 66.9772 60.4176 66.1309 60.4176 65.0837V58.2631H61.6208Z" fill="white"/>
<path d="M51.3635 58.3556V68.055H50.1843V60.4191L47.2982 68.055H46.3228L43.4367 60.5196V68.055H42.2575V58.3556H43.6926L46.8145 66.3199L49.8005 58.3556H51.3635Z" fill="white"/>
<path d="M72.1619 58.3398V68.0663H70.9027L66.3017 60.3299V68.0663H65.1225V58.3398H66.4257L70.9827 66.0839V58.3398H72.1619Z" fill="white"/>
<path d="M2.3623 91.9664C3.08652 91.9664 3.68428 92.0452 4.15559 92.2027C4.63073 92.3603 4.98326 92.6 5.21316 92.922C5.4469 93.2439 5.56377 93.6532 5.56377 94.1499C5.56377 94.5198 5.48714 94.8349 5.33387 95.0952C5.18059 95.3555 4.97942 95.5712 4.73036 95.7425C4.48129 95.9137 4.21498 96.0507 3.93143 96.1535L6.31672 99.4775H4.7591L2.73016 96.4669H1.37945V99.4775H0V91.9664H2.3623ZM2.27034 92.9939H1.37945V95.4497H2.33357C2.97348 95.4497 3.43712 95.3435 3.72451 95.1311C4.01573 94.9188 4.16134 94.6054 4.16134 94.191C4.16134 93.756 4.00615 93.4477 3.69577 93.2662C3.38923 93.0847 2.91408 92.9939 2.27034 92.9939Z" fill="white"/>
<path d="M8.73076 93.7902V99.4775H7.38005V93.7902H8.73076ZM8.06402 91.6119C8.27094 91.6119 8.44912 91.6616 8.59856 91.7609C8.75183 91.8602 8.82847 92.0315 8.82847 92.2747C8.82847 92.5144 8.75183 92.6857 8.59856 92.7884C8.44912 92.8877 8.27094 92.9374 8.06402 92.9374C7.84944 92.9374 7.66743 92.8877 7.51799 92.7884C7.37238 92.6857 7.29958 92.5144 7.29958 92.2747C7.29958 92.0315 7.37238 91.8602 7.51799 91.7609C7.66743 91.6616 7.84944 91.6119 8.06402 91.6119Z" fill="white"/>
<path d="M14.944 97.854C14.944 98.2273 14.8425 98.5424 14.6394 98.7993C14.4363 99.0562 14.1393 99.2514 13.7485 99.385C13.3615 99.5152 12.8863 99.5802 12.3231 99.5802C11.8786 99.5802 11.4954 99.5511 11.1735 99.4929C10.8555 99.4381 10.5547 99.3525 10.2711 99.236V98.1931C10.5739 98.3198 10.913 98.4294 11.2885 98.5219C11.6678 98.6144 12.0261 98.6606 12.3633 98.6606C12.8078 98.6606 13.1277 98.599 13.3232 98.4757C13.5186 98.3489 13.6163 98.1811 13.6163 97.9722C13.6163 97.8489 13.5761 97.7393 13.4956 97.6434C13.419 97.5441 13.2734 97.443 13.0588 97.3403C12.848 97.2341 12.5377 97.1074 12.1276 96.9601C11.7253 96.8162 11.3862 96.6724 11.1103 96.5285C10.8344 96.3847 10.6256 96.2117 10.4838 96.0096C10.342 95.8041 10.2711 95.5421 10.2711 95.2236C10.2711 94.7201 10.4934 94.3382 10.9379 94.0779C11.3862 93.8142 11.9782 93.6823 12.7139 93.6823C13.1048 93.6823 13.4726 93.7183 13.8175 93.7902C14.1662 93.8587 14.5072 93.9598 14.8406 94.0933L14.4152 95.0027C14.1278 94.8897 13.8385 94.7972 13.5473 94.7253C13.2599 94.6499 12.9668 94.6122 12.6679 94.6122C12.3192 94.6122 12.0529 94.6602 11.869 94.7561C11.6889 94.852 11.5989 94.989 11.5989 95.1671C11.5989 95.3007 11.6429 95.4137 11.7311 95.5062C11.8192 95.5986 11.9705 95.6911 12.1851 95.7836C12.4035 95.8761 12.7063 95.9908 13.0933 96.1278C13.4726 96.258 13.8002 96.395 14.0761 96.5388C14.3558 96.6792 14.5704 96.8522 14.7199 97.0577C14.8693 97.2632 14.944 97.5286 14.944 97.854Z" fill="white"/>
<path d="M18.9387 93.6823C19.5058 93.6823 19.9924 93.7868 20.3986 93.9957C20.8048 94.2047 21.1171 94.5009 21.3355 94.8845C21.5539 95.2681 21.6631 95.7271 21.6631 96.2614V96.9087H17.4155C17.4309 97.4601 17.5956 97.8848 17.9098 98.1828C18.2279 98.4808 18.6724 98.6298 19.2433 98.6298C19.6495 98.6298 20.0135 98.5955 20.3354 98.527C20.6611 98.4551 20.9963 98.3506 21.3412 98.2136V99.1949C21.0232 99.3285 20.6994 99.4261 20.3699 99.4877C20.0403 99.5494 19.6456 99.5802 19.1858 99.5802C18.5612 99.5802 18.0114 99.4723 17.5362 99.2566C17.0649 99.0374 16.6952 98.712 16.4269 98.2804C16.1625 97.8489 16.0303 97.3129 16.0303 96.6724C16.0303 96.0353 16.151 95.4942 16.3924 95.0489C16.6338 94.6037 16.973 94.2646 17.4098 94.0317C17.8466 93.7988 18.3562 93.6823 18.9387 93.6823ZM18.9387 94.5917C18.5133 94.5917 18.1685 94.715 17.9041 94.9616C17.6435 95.2082 17.4903 95.5695 17.4443 96.0456H20.3411C20.3373 95.7613 20.2836 95.5096 20.1802 95.2904C20.0805 95.0712 19.9273 94.8999 19.7204 94.7766C19.5173 94.6533 19.2567 94.5917 18.9387 94.5917Z" fill="white"/>
<path d="M22.9908 98.8404C22.9908 98.5596 23.0713 98.3626 23.2322 98.2496C23.397 98.1332 23.5962 98.0749 23.83 98.0749C24.0637 98.0749 24.263 98.1332 24.4277 98.2496C24.5963 98.3626 24.6806 98.5596 24.6806 98.8404C24.6806 99.1144 24.5963 99.3131 24.4277 99.4364C24.263 99.5562 24.0637 99.6162 23.83 99.6162C23.5962 99.6162 23.397 99.5562 23.2322 99.4364C23.0713 99.3131 22.9908 99.1144 22.9908 98.8404Z" fill="white"/>
<path d="M34.4632 97.4327C34.4632 97.878 34.3406 98.2616 34.0954 98.5835C33.854 98.9055 33.5053 99.1521 33.0493 99.3233C32.5971 99.4946 32.0568 99.5802 31.4284 99.5802C31.1219 99.5802 30.8288 99.5648 30.549 99.534C30.2693 99.5032 30.0049 99.4586 29.7558 99.4004C29.5106 99.3388 29.2865 99.2651 29.0834 99.1795V98.0184C29.4244 98.152 29.8057 98.2736 30.2272 98.3832C30.6487 98.4894 31.0778 98.5424 31.5146 98.5424C31.871 98.5424 32.166 98.5013 32.3998 98.4191C32.6374 98.3335 32.8136 98.2136 32.9286 98.0595C33.0435 97.902 33.101 97.7187 33.101 97.5098C33.101 97.2872 33.034 97.0988 32.8998 96.9447C32.7657 96.7905 32.5626 96.6501 32.2906 96.5234C32.0224 96.3932 31.6852 96.2545 31.279 96.1073C31.0031 96.0079 30.7387 95.8949 30.4858 95.7682C30.2367 95.6415 30.0145 95.4925 29.8191 95.3212C29.6236 95.15 29.4685 94.9479 29.3535 94.715C29.2424 94.4787 29.1868 94.2012 29.1868 93.8827C29.1868 93.458 29.2999 93.0949 29.5259 92.7935C29.7558 92.4921 30.0777 92.261 30.4916 92.1C30.9092 91.939 31.3959 91.8585 31.9515 91.8585C32.3921 91.8585 32.806 91.8996 33.193 91.9818C33.5838 92.064 33.967 92.1805 34.3425 92.3312L33.9057 93.3227C33.5608 93.196 33.2255 93.0949 32.8998 93.0196C32.578 92.9443 32.2484 92.9066 31.9112 92.9066C31.62 92.9066 31.3729 92.946 31.1698 93.0247C30.9667 93.1035 30.8115 93.2148 30.7042 93.3587C30.6008 93.4991 30.549 93.6669 30.549 93.8622C30.549 94.0814 30.6084 94.2663 30.7272 94.417C30.8498 94.5643 31.0376 94.6996 31.2905 94.8229C31.5472 94.9462 31.8767 95.0832 32.2791 95.2339C32.7427 95.4051 33.1355 95.5849 33.4574 95.7733C33.7831 95.9617 34.0321 96.1878 34.2046 96.4515C34.377 96.7118 34.4632 97.0389 34.4632 97.4327Z" fill="white"/>
<path d="M39.2108 93.6823C39.9657 93.6823 40.5711 93.9289 41.0271 94.4221C41.4869 94.9153 41.7168 95.6483 41.7168 96.621C41.7168 97.2649 41.6095 97.8078 41.3949 98.2496C41.1842 98.688 40.8872 99.0202 40.504 99.2463C40.1247 99.4689 39.6821 99.5802 39.1763 99.5802C38.8545 99.5802 38.5747 99.5425 38.3372 99.4672C38.0996 99.3918 37.8965 99.2942 37.7279 99.1744C37.5593 99.0511 37.4175 98.9175 37.3026 98.7736H37.2221C37.2413 98.9106 37.2585 99.063 37.2738 99.2309C37.293 99.3953 37.3026 99.546 37.3026 99.683V102H35.9461V93.7902H37.0497L37.2394 94.5763H37.3026C37.4214 94.4153 37.5651 94.2663 37.7337 94.1293C37.9061 93.9923 38.113 93.8844 38.3544 93.8056C38.5996 93.7234 38.8851 93.6823 39.2108 93.6823ZM38.8487 94.6687C38.477 94.6687 38.1781 94.7355 37.9521 94.8691C37.7298 94.9993 37.567 95.1962 37.4635 95.4599C37.3639 95.7237 37.3102 96.0542 37.3026 96.4515V96.621C37.3026 97.0423 37.3505 97.4002 37.4463 97.6948C37.5459 97.9859 37.7087 98.2085 37.9348 98.3626C38.1647 98.5133 38.4751 98.5887 38.866 98.5887C39.1955 98.5887 39.4675 98.5082 39.6821 98.3472C39.9005 98.1862 40.0634 97.9568 40.1707 97.6588C40.278 97.3608 40.3316 97.0098 40.3316 96.6056C40.3316 95.9925 40.209 95.5164 39.9638 95.1774C39.7224 94.8383 39.3507 94.6687 38.8487 94.6687Z" fill="white"/>
<path d="M45.8149 93.6823C46.382 93.6823 46.8687 93.7868 47.2748 93.9957C47.681 94.2047 47.9933 94.5009 48.2117 94.8845C48.4301 95.2681 48.5393 95.7271 48.5393 96.2614V96.9087H44.2918C44.3071 97.4601 44.4719 97.8848 44.7861 98.1828C45.1041 98.4808 45.5486 98.6298 46.1195 98.6298C46.5257 98.6298 46.8897 98.5955 47.2116 98.527C47.5373 98.4551 47.8726 98.3506 48.2175 98.2136V99.1949C47.8994 99.3285 47.5756 99.4261 47.2461 99.4877C46.9166 99.5494 46.5219 99.5802 46.0621 99.5802C45.4375 99.5802 44.8876 99.4723 44.4125 99.2566C43.9412 99.0374 43.5714 98.712 43.3032 98.2804C43.0388 97.8489 42.9066 97.3129 42.9066 96.6724C42.9066 96.0353 43.0273 95.4942 43.2687 95.0489C43.5101 94.6037 43.8492 94.2646 44.286 94.0317C44.7229 93.7988 45.2325 93.6823 45.8149 93.6823ZM45.8149 94.5917C45.3896 94.5917 45.0447 94.715 44.7803 94.9616C44.5198 95.2082 44.3665 95.5695 44.3205 96.0456H47.2174C47.2135 95.7613 47.1599 95.5096 47.0564 95.2904C46.9568 95.0712 46.8035 94.8999 46.5966 94.7766C46.3935 94.6533 46.133 94.5917 45.8149 94.5917Z" fill="white"/>
<path d="M52.557 93.6823C53.3617 93.6823 53.969 93.8416 54.379 94.1601C54.7928 94.4787 54.9997 94.9753 54.9997 95.65V99.4775H54.0399L53.7812 98.6709H53.7353C53.5552 98.8764 53.3693 99.0459 53.1777 99.1795C52.9861 99.3131 52.7639 99.4124 52.511 99.4775C52.2619 99.546 51.9573 99.5802 51.5971 99.5802C51.2178 99.5802 50.8786 99.5186 50.5798 99.3953C50.2809 99.2685 50.0452 99.0767 49.8728 98.8199C49.7004 98.563 49.6142 98.2376 49.6142 97.8437C49.6142 97.2581 49.8575 96.8179 50.3441 96.5234C50.8346 96.2289 51.5741 96.0662 52.5627 96.0353L53.6663 95.9994V95.7014C53.6663 95.3075 53.5628 95.0267 53.3559 94.8588C53.1528 94.691 52.8654 94.6071 52.4937 94.6071C52.1757 94.6071 51.8673 94.6482 51.5684 94.7304C51.2695 94.8126 50.9783 94.9136 50.6947 95.0335L50.2579 94.1807C50.5683 94.0334 50.9208 93.9135 51.3155 93.8211C51.714 93.7286 52.1278 93.6823 52.557 93.6823ZM53.6605 96.7597L52.8386 96.7854C52.1642 96.806 51.691 96.9087 51.4189 97.0937C51.1469 97.2786 51.0108 97.5321 51.0108 97.854C51.0108 98.1349 51.1047 98.3404 51.2925 98.4705C51.4802 98.5972 51.7274 98.6606 52.0339 98.6606C52.5014 98.6606 52.8884 98.5424 53.195 98.3061C53.5053 98.0664 53.6605 97.7153 53.6605 97.2529V96.7597Z" fill="white"/>
<path d="M58.2415 91.4835V95.3469C58.2415 95.5216 58.2338 95.7134 58.2185 95.9223C58.2031 96.1278 58.1878 96.3213 58.1725 96.5028H58.2012C58.3008 96.383 58.4196 96.2425 58.5576 96.0816C58.6994 95.9206 58.8335 95.7802 58.9599 95.6603L60.9026 93.7902H62.4545L59.9083 96.2357L62.6212 99.4775H61.0348L59.0001 96.9806L58.2415 97.5612V99.4775H56.8907V91.4835H58.2415Z" fill="white"/>
<path d="M63.4431 98.8404C63.4431 98.5596 63.5236 98.3626 63.6845 98.2496C63.8493 98.1332 64.0485 98.0749 64.2823 98.0749C64.516 98.0749 64.7153 98.1332 64.8801 98.2496C65.0487 98.3626 65.1329 98.5596 65.1329 98.8404C65.1329 99.1144 65.0487 99.3131 64.8801 99.4364C64.7153 99.5562 64.516 99.6162 64.2823 99.6162C64.0485 99.6162 63.8493 99.5562 63.6845 99.4364C63.5236 99.3131 63.4431 99.1144 63.4431 98.8404Z" fill="white"/>
<path d="M72.4268 91.9664C73.151 91.9664 73.7487 92.0452 74.2201 92.2027C74.6952 92.3603 75.0477 92.6 75.2776 92.922C75.5114 93.2439 75.6282 93.6532 75.6282 94.1499C75.6282 94.5198 75.5516 94.8349 75.3983 95.0952C75.2451 95.3555 75.0439 95.5712 74.7948 95.7425C74.5458 95.9137 74.2795 96.0507 73.9959 96.1535L76.3812 99.4775H74.8236L72.7946 96.4669H71.4439V99.4775H70.0645V91.9664H72.4268ZM72.3348 92.9939H71.4439V95.4497H72.398C73.0379 95.4497 73.5016 95.3435 73.789 95.1311C74.0802 94.9188 74.2258 94.6054 74.2258 94.191C74.2258 93.756 74.0706 93.4477 73.7602 93.2662C73.4537 93.0847 72.9786 92.9939 72.3348 92.9939Z" fill="white"/>
<path d="M79.9793 93.6823C80.5464 93.6823 81.033 93.7868 81.4392 93.9957C81.8453 94.2047 82.1576 94.5009 82.376 94.8845C82.5945 95.2681 82.7037 95.7271 82.7037 96.2614V96.9087H78.4561C78.4714 97.4601 78.6362 97.8848 78.9504 98.1828C79.2685 98.4808 79.7129 98.6298 80.2839 98.6298C80.6901 98.6298 81.0541 98.5955 81.3759 98.527C81.7017 98.4551 82.0369 98.3506 82.3818 98.2136V99.1949C82.0638 99.3285 81.74 99.4261 81.4104 99.4877C81.0809 99.5494 80.6862 99.5802 80.2264 99.5802C79.6018 99.5802 79.052 99.4723 78.5768 99.2566C78.1055 99.0374 77.7357 98.712 77.4675 98.2804C77.2031 97.8489 77.0709 97.3129 77.0709 96.6724C77.0709 96.0353 77.1916 95.4942 77.433 95.0489C77.6744 94.6037 78.0135 94.2646 78.4504 94.0317C78.8872 93.7988 79.3968 93.6823 79.9793 93.6823ZM79.9793 94.5917C79.5539 94.5917 79.2091 94.715 78.9447 94.9616C78.6841 95.2082 78.5308 95.5695 78.4848 96.0456H81.3817C81.3779 95.7613 81.3242 95.5096 81.2208 95.2904C81.1211 95.0712 80.9679 94.8999 80.7609 94.7766C80.5579 94.6533 80.2973 94.5917 79.9793 94.5917Z" fill="white"/>
<path d="M88.5031 97.854C88.5031 98.2273 88.4016 98.5424 88.1985 98.7993C87.9954 99.0562 87.6984 99.2514 87.3076 99.385C86.9206 99.5152 86.4454 99.5802 85.8821 99.5802C85.4377 99.5802 85.0545 99.5511 84.7326 99.4929C84.4146 99.4381 84.1138 99.3525 83.8302 99.236V98.1931C84.1329 98.3198 84.472 98.4294 84.8476 98.5219C85.2269 98.6144 85.5852 98.6606 85.9224 98.6606C86.3669 98.6606 86.6868 98.599 86.8822 98.4757C87.0777 98.3489 87.1754 98.1811 87.1754 97.9722C87.1754 97.8489 87.1351 97.7393 87.0547 97.6434C86.978 97.5441 86.8324 97.443 86.6179 97.3403C86.4071 97.2341 86.0967 97.1074 85.6867 96.9601C85.2844 96.8162 84.9453 96.6724 84.6694 96.5285C84.3935 96.3847 84.1847 96.2117 84.0429 96.0096C83.9011 95.8041 83.8302 95.5421 83.8302 95.2236C83.8302 94.7201 84.0525 94.3382 84.4969 94.0779C84.9453 93.8142 85.5373 93.6823 86.273 93.6823C86.6638 93.6823 87.0317 93.7183 87.3765 93.7902C87.7252 93.8587 88.0663 93.9598 88.3996 94.0933L87.9743 95.0027C87.6869 94.8897 87.3976 94.7972 87.1064 94.7253C86.819 94.6499 86.5259 94.6122 86.227 94.6122C85.8783 94.6122 85.612 94.6602 85.4281 94.7561C85.248 94.852 85.1579 94.989 85.1579 95.1671C85.1579 95.3007 85.202 95.4137 85.2901 95.5062C85.3783 95.5986 85.5296 95.6911 85.7442 95.7836C85.9626 95.8761 86.2653 95.9908 86.6523 96.1278C87.0317 96.258 87.3593 96.395 87.6352 96.5388C87.9149 96.6792 88.1295 96.8522 88.2789 97.0577C88.4284 97.2632 88.5031 97.5286 88.5031 97.854Z" fill="white"/>
<path d="M95.5958 96.621C95.5958 97.0937 95.5268 97.5132 95.3888 97.8797C95.2509 98.2462 95.0497 98.5562 94.7853 98.8096C94.5209 99.0596 94.2029 99.2514 93.8312 99.385C93.4595 99.5152 93.0399 99.5802 92.5725 99.5802C92.1356 99.5802 91.7352 99.5152 91.3712 99.385C91.0072 99.2514 90.6911 99.0596 90.4228 98.8096C90.1584 98.5562 89.9534 98.2462 89.8078 97.8797C89.6622 97.5132 89.5894 97.0937 89.5894 96.621C89.5894 95.9942 89.7101 95.4633 89.9515 95.0284C90.1967 94.59 90.5454 94.256 90.9976 94.0266C91.4498 93.7971 91.9881 93.6823 92.6127 93.6823C93.199 93.6823 93.7163 93.7971 94.1646 94.0266C94.6129 94.256 94.9635 94.59 95.2164 95.0284C95.4693 95.4668 95.5958 95.9977 95.5958 96.621ZM90.9804 96.621C90.9804 97.0354 91.0359 97.3899 91.147 97.6845C91.262 97.979 91.4383 98.2051 91.6758 98.3626C91.9134 98.5168 92.2199 98.5938 92.5955 98.5938C92.971 98.5938 93.2775 98.5168 93.5151 98.3626C93.7527 98.2051 93.927 97.979 94.0381 97.6845C94.1493 97.3899 94.2048 97.0354 94.2048 96.621C94.2048 96.2066 94.1493 95.8555 94.0381 95.5678C93.927 95.2767 93.7527 95.0558 93.5151 94.9051C93.2775 94.7509 92.9691 94.6739 92.5897 94.6739C92.0303 94.6739 91.6222 94.8417 91.3654 95.1774C91.1087 95.513 90.9804 95.9942 90.9804 96.621Z" fill="white"/>
<path d="M98.5041 99.4775H97.1476V91.4835H98.5041V99.4775Z" fill="white"/>
<path d="M101.889 99.4775L99.4697 93.7902H100.901L102.211 97.1296C102.296 97.342 102.372 97.5714 102.441 97.8181C102.51 98.0647 102.558 98.2719 102.585 98.4397H102.631C102.658 98.265 102.709 98.0561 102.786 97.8129C102.863 97.5663 102.941 97.3385 103.022 97.1296L104.332 93.7902H105.758L103.338 99.4775H101.889Z" fill="white"/>
<path d="M109.258 93.6823C109.825 93.6823 110.312 93.7868 110.718 93.9957C111.124 94.2047 111.436 94.5009 111.655 94.8845C111.873 95.2681 111.982 95.7271 111.982 96.2614V96.9087H107.735C107.75 97.4601 107.915 97.8848 108.229 98.1828C108.547 98.4808 108.992 98.6298 109.563 98.6298C109.969 98.6298 110.333 98.5955 110.655 98.527C110.98 98.4551 111.316 98.3506 111.661 98.2136V99.1949C111.343 99.3285 111.019 99.4261 110.689 99.4877C110.36 99.5494 109.965 99.5802 109.505 99.5802C108.881 99.5802 108.331 99.4723 107.856 99.2566C107.384 99.0374 107.015 98.712 106.746 98.2804C106.482 97.8489 106.35 97.3129 106.35 96.6724C106.35 96.0353 106.47 95.4942 106.712 95.0489C106.953 94.6037 107.292 94.2646 107.729 94.0317C108.166 93.7988 108.676 93.6823 109.258 93.6823ZM109.258 94.5917C108.833 94.5917 108.488 94.715 108.223 94.9616C107.963 95.2082 107.81 95.5695 107.764 96.0456H110.66C110.657 95.7613 110.603 95.5096 110.5 95.2904C110.4 95.0712 110.247 94.8999 110.04 94.7766C109.837 94.6533 109.576 94.5917 109.258 94.5917Z" fill="white"/>
<path d="M113.31 98.8404C113.31 98.5596 113.391 98.3626 113.552 98.2496C113.716 98.1332 113.916 98.0749 114.149 98.0749C114.383 98.0749 114.582 98.1332 114.747 98.2496C114.916 98.3626 115 98.5596 115 98.8404C115 99.1144 114.916 99.3131 114.747 99.4364C114.582 99.5562 114.383 99.6162 114.149 99.6162C113.916 99.6162 113.716 99.5562 113.552 99.4364C113.391 99.3131 113.31 99.1144 113.31 98.8404Z" fill="white"/>
</svg>
