<svg width="199" height="178" viewBox="0 0 199 178" fill="none" xmlns="http://www.w3.org/2000/svg">
<path d="M95.4163 160.108C93.6929 159.544 92.0212 159.52 90.3925 159.782C88.7811 160.044 87.187 160.561 85.791 161.395C83.4988 162.77 81.267 164.232 78.9835 165.622C77.3118 166.639 75.6487 167.664 73.8994 168.554C72.4517 169.285 70.9093 169.905 69.3496 170.43C67.6262 171.002 65.8596 171.478 64.0759 171.852C62.8264 172.106 61.5166 172.162 60.2241 172.217C57.9405 172.329 55.6742 172.106 53.4683 171.606C52.0464 171.288 50.6505 170.827 49.3148 170.279C47.6431 169.595 46.0058 168.817 44.4203 167.974C43.3259 167.394 42.3091 166.679 41.344 165.924C40.2927 165.106 39.3362 164.176 38.3452 163.294C38.2677 163.223 38.2505 163.096 38.1384 162.841C38.4659 162.945 38.6813 162.968 38.8364 163.072C40.4909 164.121 42.335 164.796 44.2307 165.32C45.5664 165.686 46.971 165.781 48.3325 166.067C50.0731 166.425 51.831 166.322 53.5803 166.298C55.8035 166.266 58.0008 165.924 60.1206 165.328C61.7407 164.875 63.309 164.224 64.8859 163.628C66.5232 163.008 68.1518 162.341 69.789 161.697C71.2884 161.109 72.7878 160.521 74.3044 159.973C75.0713 159.695 75.8727 159.504 76.6569 159.274C77.4927 159.035 78.3286 158.781 79.1731 158.551C79.8107 158.376 80.4484 158.193 81.0947 158.082C82.9215 157.772 84.7483 157.367 86.5924 157.239C88.5743 157.104 90.5821 157.176 92.5727 157.271C93.8049 157.327 95.0285 157.549 96.2349 157.772C97.1483 157.939 98.0531 158.201 98.9407 158.463C99.8455 158.725 100.655 158.694 101.457 158.169C101.81 157.939 102.319 157.851 102.767 157.804C104.869 157.549 106.972 157.247 109.083 157.128C111.634 156.985 114.184 157.089 116.718 157.478C118.062 157.684 119.38 157.994 120.707 158.288C121.604 158.487 122.491 158.694 123.353 158.972C124.646 159.393 125.921 159.862 127.196 160.346C128.635 160.895 130.057 161.483 131.487 162.047C132.702 162.523 133.918 163 135.15 163.421C136.572 163.914 138.002 164.407 139.458 164.796C140.759 165.146 142.095 165.424 143.448 165.598C144.611 165.749 145.809 165.781 146.99 165.742C148.756 165.67 150.523 165.543 152.281 165.344C153.246 165.233 154.202 164.987 155.124 164.693C156.417 164.272 157.683 163.787 158.933 163.262C159.614 162.984 160.226 162.571 160.88 162.221C160.975 162.166 161.096 162.158 161.208 162.126C161.182 162.237 161.199 162.396 161.13 162.46C160.045 163.477 158.976 164.502 157.847 165.471C156.262 166.83 154.409 167.855 152.522 168.785C151.16 169.46 149.652 169.889 148.213 170.43C145.947 171.28 143.543 171.518 141.13 171.629C139.725 171.693 138.295 171.733 136.925 171.502C135.193 171.208 133.461 170.962 131.755 170.469C129.618 169.842 127.524 169.111 125.559 168.149C123.508 167.148 121.586 165.916 119.63 164.74C117.648 163.548 115.71 162.285 113.719 161.101C112.504 160.37 111.134 159.957 109.686 159.83C107.971 159.679 106.257 159.814 104.43 160.084C104.628 160.243 104.723 160.354 104.852 160.418C106.593 161.26 108.385 162.007 110.057 162.937C112.849 164.502 115.598 166.123 118.209 167.95C120.88 169.81 123.344 171.876 125.843 173.902C126.3 174.275 126.309 174.41 125.878 174.784C124.818 175.682 123.741 176.556 122.698 177.47C122.267 177.859 121.991 177.724 121.655 177.39C120.285 176.063 118.958 174.681 117.502 173.433C114.831 171.161 112.159 168.896 109.35 166.782C107.42 165.336 105.283 164.121 103.206 162.849C102.413 162.365 101.569 161.935 100.681 161.618C100.225 161.459 99.587 161.459 99.1303 161.618C98.1221 161.967 97.1397 162.404 96.2177 162.921C93.1672 164.629 90.2805 166.552 87.5317 168.666C84.0245 171.367 80.7672 174.291 77.9925 177.652C77.6048 178.121 77.5444 178.089 77.0619 177.716C75.9244 176.826 74.7783 175.944 73.6064 175.086C73.2531 174.824 73.279 174.688 73.5806 174.426C76.0364 172.297 78.5009 170.183 81.155 168.252C83.9039 166.25 86.8337 164.502 89.7979 162.809C91.1164 162.055 92.5468 161.467 93.9255 160.799C94.3822 160.585 94.8562 160.37 95.4163 160.108Z" fill="#AB0048"/>
<path d="M148.401 152.696C148.522 152.545 148.625 152.37 148.771 152.243C151.193 150.201 153.114 147.817 154.51 145.076C154.993 144.122 155.527 143.192 155.967 142.223C156.406 141.254 156.777 140.26 157.164 139.275C157.569 138.242 157.974 137.209 158.354 136.168C158.845 134.817 159.31 133.467 159.819 132.116C160.146 131.25 160.491 130.392 160.861 129.549C161.232 128.707 161.611 127.857 162.059 127.046C162.662 125.958 163.231 124.853 163.981 123.852C165.963 121.214 168.031 118.632 170.064 116.034C170.168 115.898 170.349 115.811 170.486 115.7C170.538 115.732 170.59 115.763 170.642 115.787C170.486 116.2 170.306 116.606 170.168 117.027C169.642 118.56 169.039 120.078 168.634 121.635C168.263 123.05 168.125 124.52 167.876 125.966C167.703 127.007 167.522 128.048 167.341 129.089C167.195 129.931 167.074 130.765 166.885 131.599C166.609 132.791 166.324 133.991 165.963 135.159C165.652 136.168 165.299 137.169 164.842 138.123C163.955 139.974 162.852 141.722 161.421 143.272C160.172 144.631 158.819 145.918 157.518 147.237C157.406 147.348 157.268 147.451 157.147 147.563C157.173 147.602 157.208 147.642 157.233 147.682C157.371 147.626 157.518 147.594 157.638 147.515C158.75 146.704 159.87 145.91 160.947 145.06C162.955 143.478 165.118 142.104 167.419 140.936C169.84 139.704 172.313 138.552 174.752 137.352C176.923 136.295 179.138 135.31 181.249 134.15C184.015 132.64 186.523 130.805 188.625 128.532C189.996 127.039 191.219 125.457 192.012 123.622C192.046 123.55 192.115 123.495 192.167 123.431C192.227 123.439 192.288 123.439 192.348 123.439C192.348 123.725 192.426 124.035 192.357 124.305C192.064 125.441 191.831 126.609 191.366 127.682C190.65 129.311 189.823 130.9 188.936 132.45C187.531 134.929 185.549 137.026 183.49 139.037C181.568 140.92 179.431 142.581 177.148 144.09C175.26 145.338 173.209 146.323 171.202 147.372C170.4 147.793 169.487 148.047 168.608 148.357C167.876 148.619 167.134 148.866 166.385 149.088C165.756 149.271 165.109 149.43 164.463 149.549C162.602 149.899 160.741 150.208 158.879 150.558C157.509 150.812 156.139 151.098 154.778 151.377C153.623 151.607 152.477 151.829 151.331 152.092C150.435 152.29 149.556 152.545 148.668 152.767C148.599 152.783 148.53 152.783 148.461 152.791C148.47 152.767 148.435 152.727 148.401 152.696Z" fill="#AB0048"/>
<path d="M6.80611 124.887C6.97846 125.149 7.16803 125.404 7.31452 125.682C8.80528 128.526 11.0371 130.831 13.7429 132.714C15.3026 133.802 16.9571 134.796 18.6719 135.67C21.2311 136.981 23.868 138.173 26.4962 139.365C29.5466 140.739 32.5712 142.161 35.3373 143.989C36.8798 145.006 38.3361 146.126 39.8613 147.167C40.499 147.596 41.2228 147.922 41.9036 148.296C41.938 148.256 41.9725 148.216 41.9984 148.176C41.5072 147.755 41.0332 147.318 40.5248 146.913C38.2499 145.101 36.4489 142.932 35.0013 140.533C34.3722 139.492 33.8897 138.355 33.4674 137.227C32.9762 135.916 32.5885 134.573 32.2179 133.222C32.0111 132.468 31.925 131.681 31.7871 130.91C31.6234 130.02 31.4596 129.138 31.2873 128.248C31.1494 127.541 31.0029 126.842 30.8823 126.143C30.7272 125.237 30.641 124.315 30.4428 123.417C30.236 122.456 29.9947 121.486 29.6587 120.557C29.2364 119.373 28.7108 118.229 28.2368 117.053C28.2024 116.965 28.2627 116.846 28.4092 116.679C28.8659 117.196 29.3398 117.688 29.7707 118.229C31.4252 120.31 33.1486 122.353 34.6652 124.522C35.9491 126.357 37.0608 128.296 38.1034 130.259C38.7325 131.435 39.0772 132.738 39.5511 133.985C39.9303 134.971 40.3266 135.956 40.7058 136.941C41.1022 137.958 41.4727 138.983 41.8863 140C42.4464 141.359 42.9893 142.734 43.6528 144.053C44.2733 145.292 44.954 146.532 45.7899 147.66C46.7895 149.011 47.97 150.258 49.1075 151.53C49.5383 152.014 50.0984 152.396 50.581 152.841C50.6844 152.936 50.7275 153.071 50.805 153.198C50.6499 153.23 50.4862 153.309 50.3483 153.286C49.8141 153.182 49.2798 153.031 48.7455 152.904C47.9786 152.721 47.2117 152.539 46.4448 152.38C45.6175 152.213 44.7817 152.054 43.9544 151.903C43.2134 151.768 42.4723 151.641 41.7226 151.53C40.1974 151.299 38.6549 151.108 37.1383 150.846C35.7854 150.616 34.4412 150.322 33.1055 150.02C32.2524 149.829 31.3993 149.599 30.5548 149.352C29.8224 149.138 29.0727 148.931 28.392 148.621C26.927 147.954 25.4621 147.294 24.0834 146.5C22.653 145.674 21.257 144.776 19.9644 143.774C18.1635 142.368 16.4142 140.898 14.7769 139.341C12.9501 137.609 11.399 135.654 10.0892 133.556C9.22752 132.182 8.39166 130.791 7.86602 129.257C7.46963 128.081 7.02154 126.913 6.62515 125.73C6.5476 125.491 6.58207 125.229 6.57345 124.983C6.65962 124.959 6.73718 124.919 6.80611 124.887Z" fill="#AB0048"/>
<path d="M136.768 156.355C137.483 156.275 138.198 156.228 138.905 156.124C140.559 155.862 142.188 155.529 143.851 155.306C145.988 155.012 148.134 154.774 150.279 154.575C152.373 154.376 154.476 154.265 156.57 154.082C157.931 153.963 159.284 153.788 160.637 153.622C161.568 153.502 162.498 153.383 163.412 153.184C164.997 152.835 166.6 152.509 168.134 152.016C169.573 151.548 170.978 150.936 172.322 150.26C174.14 149.347 175.691 148.075 177.061 146.637C177.139 146.558 177.242 146.502 177.466 146.486C177.44 146.629 177.44 146.78 177.372 146.907C176.2 149.132 174.588 151.071 172.718 152.811C171.038 154.384 169.211 155.815 167.143 156.967C165.67 157.793 164.187 158.611 162.645 159.303C161.447 159.843 160.163 160.232 158.896 160.614C157.906 160.916 156.88 161.154 155.855 161.305C154.252 161.536 152.64 161.79 151.02 161.806C149.116 161.837 147.212 161.702 145.316 161.504C143.679 161.337 142.05 160.979 140.421 160.709C139.655 160.582 138.896 160.471 138.138 160.328C137.578 160.224 137.026 160.105 136.475 159.97C134.855 159.597 133.235 159.184 131.606 158.85C129.814 158.476 127.996 158.167 126.195 157.849C125.359 157.706 124.523 157.602 123.687 157.475C123.506 157.451 123.316 157.428 123.153 157.356C123.049 157.316 122.929 157.197 122.929 157.11C122.929 157.038 123.075 156.919 123.179 156.895C124.23 156.665 125.298 156.474 126.35 156.228C127.125 156.037 127.892 155.799 128.65 155.544C129.667 155.203 130.667 154.829 131.658 154.448C133.588 153.709 135.398 152.755 136.931 151.452C139.629 149.156 142.248 146.78 144.876 144.42C148.125 141.496 151.443 138.652 155.062 136.117C155.441 135.855 155.829 135.592 156.225 135.346C156.372 135.251 156.553 135.203 156.725 135.14C156.759 135.179 156.803 135.219 156.837 135.259C156.751 135.41 156.682 135.577 156.578 135.704C155.217 137.38 154.235 139.256 153.261 141.131C152.08 143.411 150.96 145.723 149.564 147.893C147.91 150.451 145.712 152.581 142.774 154.003C141.214 154.758 139.637 155.393 137.94 155.799C137.526 155.894 137.138 156.053 136.733 156.18C136.742 156.22 136.751 156.283 136.768 156.355Z" fill="#AB0048"/>
<path d="M177.06 97.083C177.112 97.4724 177.181 97.7584 177.181 98.0445C177.181 98.8788 177.095 99.721 177.172 100.547C177.31 102.001 177.543 103.448 177.75 104.894C177.87 105.752 178.008 106.61 178.172 107.468C178.336 108.334 178.543 109.2 178.724 110.066C178.853 110.686 179.017 111.298 179.085 111.918C179.37 114.405 179.714 116.868 179.284 119.395C179.017 120.96 178.698 122.518 178.112 123.988C177.552 125.41 176.716 126.745 175.992 128.119C175.811 128.469 175.578 128.795 175.458 129.216C175.552 129.144 175.664 129.081 175.733 129.001C177.56 126.618 179.387 124.226 181.205 121.834C183.282 119.109 185.686 116.654 188.289 114.341C190.529 112.355 192.675 110.281 194.389 107.889C195.423 106.451 196.371 104.941 197.138 103.376C197.767 102.105 198.267 100.754 198.302 99.3158C198.302 99.1807 198.345 99.0456 198.379 98.9185C198.396 98.8708 198.439 98.839 198.569 98.6722C198.724 98.9741 198.939 99.2125 198.948 99.4509C198.974 101.533 199.06 103.614 198.931 105.688C198.853 106.888 198.457 108.08 198.129 109.264C197.845 110.297 197.526 111.33 197.087 112.315C196.492 113.666 195.872 115.009 195.087 116.264C194.191 117.702 193.157 119.069 192.097 120.412C190.331 122.645 188.22 124.623 185.927 126.387C184.083 127.809 182.101 129.089 180.12 130.352C177.672 131.91 175.139 133.356 172.674 134.889C171.132 135.843 169.658 136.876 168.142 137.869C168.038 137.94 167.875 137.925 167.745 137.956C167.72 137.837 167.633 137.686 167.676 137.599C167.944 137.058 168.271 136.55 168.521 136.002C169.064 134.834 169.633 133.673 170.063 132.482C170.529 131.202 170.873 129.875 171.218 128.556C171.442 127.666 171.58 126.753 171.718 125.847C171.916 124.568 172.088 123.288 172.235 122.001C172.407 120.46 172.562 118.918 172.709 117.369C172.907 115.279 173.053 113.189 173.286 111.107C173.502 109.232 173.76 107.357 174.088 105.49C174.277 104.425 174.613 103.376 174.941 102.335C175.259 101.326 175.647 100.341 176.009 99.3476C176.25 98.6722 176.509 98.0047 176.767 97.3373C176.819 97.2658 176.888 97.234 177.06 97.083Z" fill="#AB0048"/>
<path d="M31.3052 138.815C30.7537 138.505 30.1936 138.211 29.6507 137.885C26.833 136.201 23.9979 134.54 21.206 132.824C19.1723 131.576 17.1301 130.329 15.2171 128.938C13.0111 127.333 10.8482 125.641 8.82321 123.845C6.78096 122.025 5.01445 119.944 3.73051 117.6C2.70507 115.756 1.86921 113.809 1.09367 111.863C0.688671 110.838 0.576649 109.717 0.352604 108.629C-0.207507 105.983 0.137177 103.305 0.0596229 100.635C0.0510058 100.476 0.0940913 100.318 0.111325 100.151C0.163028 100.143 0.214731 100.135 0.266433 100.127C0.318136 100.27 0.387073 100.405 0.412924 100.556C0.757608 102.28 1.17985 103.988 2.09326 105.538C2.83433 106.801 3.6788 108.025 4.57498 109.193C6.60862 111.863 9.2196 114.072 11.6324 116.44C13.6316 118.41 15.6738 120.365 17.5006 122.47C19.2154 124.441 20.6545 126.602 22.2314 128.668C22.5589 129.089 22.9553 129.455 23.3258 129.852C23.3689 129.82 23.412 129.788 23.455 129.765C23.1362 129.28 22.7743 128.819 22.5072 128.311C21.9471 127.23 21.3956 126.133 20.913 125.021C19.9393 122.733 19.5084 120.333 19.4739 117.894C19.4481 116.336 19.6721 114.771 19.8272 113.214C19.9134 112.316 20.0685 111.426 20.2236 110.536C20.327 109.948 20.4821 109.376 20.5942 108.788C21.0078 106.714 21.5076 104.656 21.7747 102.566C21.9384 101.335 21.7402 100.063 21.6972 98.7999C21.6885 98.6727 21.6713 98.5376 21.6627 98.4105C21.7058 98.3867 21.7575 98.3628 21.8006 98.3311C21.9643 98.5297 22.197 98.6966 22.2917 98.919C22.7398 99.952 23.1879 100.993 23.5498 102.058C23.8601 102.963 24.1013 103.885 24.3168 104.815C24.6442 106.245 24.9372 107.675 25.2302 109.114C25.3508 109.717 25.4284 110.321 25.4973 110.933C25.6696 112.355 25.842 113.778 25.9885 115.2C26.1436 116.654 26.2728 118.116 26.4193 119.57C26.5917 121.215 26.764 122.86 26.9794 124.497C27.1432 125.744 27.35 126.984 27.574 128.223C27.7722 129.328 27.9618 130.44 28.272 131.521C28.5822 132.577 28.9958 133.61 29.4612 134.62C30.0213 135.835 30.6762 137.011 31.2794 138.203C31.3569 138.346 31.3655 138.521 31.4 138.68C31.3655 138.743 31.3311 138.775 31.3052 138.815Z" fill="#AB0048"/>
<path d="M63.1381 156.724C63.0089 156.684 62.8796 156.628 62.7504 156.589C62.1299 156.43 61.5009 156.295 60.8805 156.128C60.0532 155.897 59.2346 155.667 58.4332 155.389C56.6839 154.777 55.0725 153.943 53.6852 152.783C51.9876 151.376 50.5572 149.763 49.4197 147.928C48.6183 146.633 47.8514 145.314 47.1017 143.995C45.6713 141.476 44.3529 138.901 42.6036 136.541C42.5088 136.414 42.4485 136.263 42.302 135.977C42.595 136.057 42.7415 136.065 42.8363 136.128C46.6364 138.631 50.1953 141.396 53.5559 144.384C55.9601 146.521 58.3643 148.659 60.8115 150.756C62.759 152.425 64.965 153.768 67.4381 154.698C69.1012 155.317 70.7729 155.921 72.4791 156.43C73.5734 156.756 74.7281 156.906 75.8656 157.145C76.0466 157.185 76.2361 157.232 76.4171 157.28C76.4343 157.351 76.4516 157.415 76.4602 157.479C76.15 157.598 75.8484 157.781 75.5209 157.828C73.9784 158.067 72.4188 158.233 70.8849 158.512C69.825 158.702 68.7996 159.052 67.7483 159.306C66.7142 159.56 65.6802 159.767 64.6375 160.013C63.4742 160.283 62.3195 160.562 61.1648 160.824C60.6133 160.951 60.0532 161.078 59.4931 161.181C55.8481 161.849 52.1772 162.357 48.4546 162.326C46.8518 162.31 45.249 162.159 43.6635 161.912C42.0952 161.674 40.5269 161.324 39.0103 160.856C37.5454 160.403 36.1408 159.767 34.7362 159.147C31.7547 157.828 29.1523 156.001 26.7912 153.895C24.7145 152.044 22.9652 149.954 21.5865 147.594C21.5693 147.57 21.5951 147.53 21.6123 147.379C21.845 147.522 22.0691 147.61 22.2155 147.761C23.7408 149.342 25.5762 150.55 27.6012 151.511C28.7387 152.052 29.9537 152.465 31.1515 152.87C32.1338 153.196 33.142 153.466 34.1502 153.704C34.8051 153.863 35.4859 153.943 36.158 154.03C37.9676 154.253 39.7772 154.507 41.5954 154.666C44.3701 154.904 47.1534 155.071 49.9367 155.27C51.3155 155.373 52.7028 155.452 54.0816 155.603C55.2535 155.73 56.4082 155.945 57.5715 156.12C59.226 156.374 60.8718 156.644 62.5263 156.899C62.7073 156.922 62.8969 156.875 63.0864 156.859C63.1295 156.811 63.1381 156.763 63.1381 156.724Z" fill="#AB0048"/>
<path d="M175.735 76.2489C175.787 76.4873 175.821 76.7336 175.908 76.9641C176.373 78.0844 176.812 79.2207 177.347 80.3093C178.924 83.5194 181.224 86.3481 183.017 89.439C183.999 91.1394 184.93 92.8795 185.679 94.6753C186.386 96.3519 186.679 98.1476 186.739 99.9593C186.791 101.461 186.739 102.955 186.403 104.433C186.248 105.116 186.05 105.791 185.886 106.467C185.809 106.793 185.74 107.118 185.671 107.444C185.731 107.46 185.791 107.476 185.852 107.492C185.929 107.325 186.024 107.166 186.067 106.991C186.507 105.188 186.92 103.368 187.377 101.564C187.791 99.9513 188.153 98.3145 188.721 96.7412C189.454 94.7389 190.35 92.7842 191.212 90.8216C191.884 89.2801 192.633 87.7704 193.306 86.2289C193.848 84.9735 194.383 83.7021 194.796 82.4069C195.175 81.2071 195.356 79.9517 195.667 78.736C196.123 76.98 195.977 75.216 195.917 73.4441C195.899 73.0547 195.779 72.6733 195.718 72.2919C195.693 72.141 195.718 71.9741 195.718 71.8231C195.761 71.8072 195.813 71.7913 195.865 71.7755C196.037 72.0138 196.27 72.2363 196.365 72.4985C196.77 73.5474 197.166 74.6042 197.511 75.6689C197.726 76.3205 197.873 76.9879 198.036 77.6474C198.769 80.6986 198.864 83.7975 198.674 86.8963C198.562 88.7557 198.131 90.5991 197.786 92.4425C197.605 93.4119 197.347 94.3733 197.063 95.3189C196.83 96.0976 196.546 96.8763 196.218 97.6311C195.649 98.9342 195.072 100.229 194.409 101.493C194.012 102.248 193.495 102.963 192.935 103.63C190.557 106.515 188.127 109.359 185.757 112.243C184.757 113.459 183.844 114.738 182.879 115.986C182.767 116.129 182.586 116.232 182.439 116.351C182.396 116.161 182.31 115.978 182.319 115.787C182.405 114.158 182.603 112.514 182.569 110.885C182.534 109.311 182.362 107.722 182.043 106.181C181.767 104.83 181.19 103.527 180.759 102.2C180.38 101.064 180.027 99.9275 179.656 98.7912C179.242 97.5119 178.803 96.2406 178.432 94.9454C178.027 93.539 177.691 92.1167 177.329 90.6944C177.028 89.5026 176.709 88.3186 176.468 87.1188C176.192 85.7839 175.959 84.4411 175.77 83.0903C175.485 81.08 175.201 79.0697 175.356 77.0356C175.373 76.7813 175.434 76.5271 175.468 76.2648C175.563 76.2489 175.649 76.2489 175.735 76.2489Z" fill="#AB0048"/>
<path d="M2.67032 73.0637C2.70479 73.4927 2.79958 73.8106 2.73064 74.0887C2.23085 76.0433 2.47213 78.0139 2.83404 79.9368C3.13564 81.5577 3.74746 83.1469 4.3248 84.7122C4.84183 86.1027 5.47949 87.4535 6.11716 88.8043C6.70312 90.0439 7.37526 91.2516 7.94398 92.4991C8.59027 93.9373 9.17623 95.3993 9.75357 96.8534C10.0466 97.5844 10.3137 98.3313 10.5291 99.0862C10.8307 100.135 11.0892 101.2 11.3564 102.249C11.7786 103.901 12.1922 105.554 12.6058 107.199C12.6662 107.437 12.7523 107.66 12.8299 107.898C12.8816 107.89 12.9333 107.882 12.985 107.866C12.9505 107.644 12.9505 107.413 12.8816 107.207C12.0974 104.736 12.0026 102.233 12.468 99.7219C12.7523 98.1724 13.1142 96.615 13.614 95.1212C14.0535 93.8022 14.6567 92.515 15.3375 91.2834C16.3284 89.4718 17.44 87.7078 18.5258 85.9518C19.2151 84.8314 20.0252 83.7746 20.6887 82.6463C21.1712 81.8041 21.5418 80.8903 21.8864 79.9845C22.1708 79.2534 22.3345 78.4827 22.5758 77.7358C22.6189 77.5928 22.7999 77.4895 22.9205 77.3623C22.9808 77.3782 23.0325 77.3941 23.0928 77.418C23.1187 77.7437 23.1273 78.0775 23.1618 78.4032C23.3686 80.5407 23.0584 82.6463 22.7309 84.752C22.4638 86.4365 22.257 88.121 21.9899 89.8055C21.8864 90.457 21.7055 91.1086 21.5418 91.7522C21.266 92.8249 20.9817 93.8896 20.6887 94.9623C20.4215 95.9158 20.1372 96.8614 19.8528 97.8069C19.5771 98.7207 19.3013 99.6345 19.0083 100.54C18.7412 101.383 18.4741 102.225 18.2069 103.075C17.9312 103.957 17.621 104.823 17.3711 105.713C17.0436 106.873 16.6731 108.041 16.4835 109.225C16.3112 110.298 16.3026 111.402 16.337 112.483C16.3887 113.977 16.5697 115.47 16.6817 116.964C16.699 117.147 16.5956 117.338 16.5438 117.52C16.3543 117.409 16.1044 117.338 15.9924 117.179C15.4409 116.416 14.9928 115.59 14.3982 114.859C13.1056 113.262 11.7527 111.72 10.4343 110.147C8.52995 107.874 6.56525 105.641 4.77289 103.297C3.81639 102.05 3.07532 100.644 2.61862 99.1418C2.16191 97.656 1.6535 96.186 1.29158 94.6842C0.895198 93.0474 0.636685 91.3788 0.309235 89.734C-0.207791 87.1993 0.0679562 84.6407 0.119659 82.098C0.14551 80.8506 0.610833 79.611 0.886581 78.3635C1.00722 77.8153 1.12786 77.267 1.3002 76.7267C1.6535 75.5904 2.02404 74.4621 2.40319 73.3259C2.39457 73.2782 2.47213 73.2385 2.67032 73.0637Z" fill="#AB0048"/>
<path d="M187.147 81.464C187.052 80.4469 186.957 79.4378 186.854 78.4207C186.82 78.0791 186.716 77.7453 186.708 77.4037C186.604 73.3513 186.458 69.291 186.863 65.2386C187.061 63.2363 187.38 61.2498 187.535 59.2475C187.612 58.2702 187.457 57.2769 187.38 56.2917C187.259 54.6469 186.966 53.0418 186.415 51.4447C186.018 50.3164 185.562 49.2517 184.829 48.2823C184.795 48.2346 184.795 48.1552 184.872 47.9803C185.139 48.1393 185.475 48.2505 185.665 48.473C186.501 49.4424 187.328 50.4277 188.078 51.4447C188.853 52.4936 189.603 53.5662 190.258 54.6866C190.835 55.6798 191.318 56.7366 191.74 57.7934C192.223 59.0091 192.636 60.2646 193.007 61.52C193.214 62.2192 193.334 62.9502 193.412 63.6733C193.601 65.4452 193.877 67.2251 193.894 69.005C193.911 70.61 193.687 72.231 193.472 73.8281C193.317 74.9564 193.033 76.0688 192.731 77.1653C192.55 77.8327 192.231 78.4684 191.964 79.12C191.576 80.0655 191.163 81.0111 190.783 81.9566C190.49 82.6876 190.18 83.4107 189.939 84.1576C189.525 85.4448 189.12 86.7241 188.776 88.0272C188.397 89.4813 188.095 90.9513 187.759 92.4133C187.742 92.4928 187.673 92.5563 187.587 92.6835C187.483 92.5643 187.38 92.4928 187.354 92.3974C186.88 90.9195 186.501 89.4098 185.932 87.9716C185.475 86.8195 184.846 85.707 184.191 84.6344C182.287 81.5196 179.84 78.7545 177.591 75.8542C176.1 73.9393 174.626 72.0085 173.291 69.9982C172.343 68.56 171.542 67.0264 171.042 65.3737C170.826 64.6586 170.473 63.9832 170.214 63.276C170.059 62.8549 169.939 62.4338 169.818 62.0047C169.585 61.1704 169.353 60.3281 169.129 59.4938C169.094 59.3826 169.068 59.2475 169.094 59.1442C169.12 59.0489 169.215 58.9615 169.284 58.8661C169.361 58.9297 169.473 58.9615 169.516 59.0409C170.37 60.4712 171.473 61.7186 172.731 62.847C174.273 64.2295 175.928 65.5167 177.487 66.8914C179.228 68.4329 180.994 69.9584 182.58 71.635C183.562 72.668 184.355 73.8996 185.001 75.1391C185.941 76.9269 186.518 78.8498 186.768 80.8363C186.794 81.0587 186.871 81.2733 186.923 81.4958C187.009 81.4878 187.078 81.4799 187.147 81.464Z" fill="#AB0048"/>
<path d="M11.0862 93.754C11.0517 93.611 10.9914 93.4679 10.9742 93.3249C10.8449 92.435 10.7415 91.5371 10.5864 90.6472C10.5088 90.1863 10.371 89.7175 10.2072 89.2725C9.71606 87.9059 9.19903 86.5551 8.68201 85.1964C8.21669 83.9648 7.74275 82.7411 7.25157 81.5174C6.88104 80.5639 6.42433 79.6263 6.12273 78.6569C5.67464 77.2108 5.31272 75.7408 4.94219 74.2709C4.29591 71.6964 4.52857 69.0822 4.62336 66.484C4.66644 65.2762 4.96804 64.0684 5.21794 62.8686C5.39028 62.0264 5.63156 61.1841 5.95039 60.3736C6.4071 59.1977 6.90689 58.0296 7.44976 56.8934C8.69924 54.2872 10.483 51.9829 12.2926 49.6945C12.4477 49.4958 12.7579 49.3925 12.9992 49.2495C12.9302 49.4879 12.913 49.7501 12.7924 49.9567C11.922 51.4028 11.3447 52.9364 11 54.5732C10.5261 56.8775 10.6812 59.1977 10.7587 61.502C10.8018 62.6859 11.0689 63.8619 11.2413 65.0458C11.3705 65.9754 11.517 66.8972 11.6291 67.8268C12.0254 71.2038 12.284 74.5728 11.8445 77.9657C11.6204 79.6502 11.517 81.3585 11.3705 83.0589C11.3619 83.1781 11.3964 83.3052 11.4136 83.4244C11.4653 83.4324 11.5257 83.4324 11.5774 83.4403C11.698 82.908 11.8445 82.3756 11.9307 81.8432C12.215 80.0872 12.6717 78.3947 13.4645 76.7658C14.7226 74.1517 16.5753 71.9189 18.7295 69.9086C20.9528 67.8427 23.3311 65.9357 25.5457 63.8698C26.5452 62.9401 27.3122 61.7959 28.1653 60.7392C28.3807 60.4769 28.5272 60.1671 28.6995 59.881C28.7598 59.889 28.8202 59.889 28.8805 59.889C28.8805 60.1512 28.9236 60.4213 28.8719 60.6676C28.7081 61.4463 28.5272 62.225 28.3118 62.9958C28.0274 63.9969 27.7516 64.9981 27.3897 65.9754C26.9589 67.1753 26.5108 68.383 25.9507 69.5352C25.4509 70.5681 24.8563 71.5772 24.1755 72.5228C22.0213 75.5025 19.8067 78.4424 17.6093 81.3903C16.0927 83.4324 14.6537 85.5221 13.5421 87.7867C12.913 89.0739 12.4994 90.4565 12.0168 91.7993C11.8531 92.2602 11.8014 92.7608 11.6549 93.2296C11.586 93.4362 11.405 93.611 11.2758 93.7937C11.2068 93.7937 11.1465 93.7699 11.0862 93.754Z" fill="#AB0048"/>
<path d="M169.712 36.1959C170.074 36.2833 170.445 36.3469 170.807 36.4502C173.426 37.2289 175.65 38.5956 177.631 40.3357C179.432 41.909 180.872 43.7365 182.026 45.7309C182.647 46.8115 183.086 47.9954 183.491 49.1794C184.534 52.3021 184.508 55.5122 184.353 58.7461C184.215 61.6781 184.189 64.6101 184.163 67.5421C184.155 68.2334 184.361 68.9247 184.465 69.616C184.491 69.7828 184.508 69.9576 184.482 70.1245C184.465 70.2357 184.37 70.347 184.301 70.4503C184.198 70.3708 184.068 70.3073 184.008 70.204C182.845 68.1857 181.285 66.4615 179.536 64.8644C176.985 62.5363 174.055 60.6372 171.307 58.5316C169.575 57.2046 167.886 55.83 166.266 54.3998C164.792 53.0966 163.655 51.5393 162.836 49.8071C162.129 48.3053 161.509 46.7638 160.888 45.2224C160.69 44.7297 160.621 44.1973 160.492 43.6888C160.406 43.3471 160.294 43.0055 160.225 42.6559C160.19 42.4731 160.216 42.2904 160.216 42.1076C160.277 42.0997 160.346 42.0917 160.397 42.0838C160.647 42.4969 160.888 42.9181 161.147 43.3313C162.603 45.6196 164.663 47.3598 166.938 48.9251C169.799 50.8877 172.935 52.5246 175.503 54.8209C177.287 56.41 179.105 58.0072 180.139 60.1684C180.26 60.4227 180.432 60.6611 180.579 60.9074C180.622 60.8915 180.673 60.8756 180.725 60.8676C180.579 60.4942 180.432 60.1287 180.303 59.7552C179.76 58.174 179.208 56.5928 178.674 55.0116C178.373 54.1217 178.071 53.2317 177.812 52.3338C177.519 51.3327 177.295 50.3236 177.02 49.3224C176.753 48.353 176.46 47.3916 176.175 46.4222C175.934 45.5879 175.727 44.7377 175.417 43.9272C175.021 42.926 174.641 41.909 174.055 41.0031C173.392 39.9781 172.547 39.0405 171.703 38.1188C171.246 37.6182 170.626 37.2527 170.092 36.8078C169.911 36.6647 169.773 36.474 169.609 36.3072C169.652 36.2595 169.678 36.2277 169.712 36.1959Z" fill="#AB0048"/>
<path d="M17.4048 62.4437C17.6805 61.959 17.9391 61.4664 18.232 60.9896C19.9555 58.2086 22.2218 55.8566 25.0137 53.9496C26.8836 52.6624 28.8138 51.4388 30.6751 50.1436C32.8466 48.6339 34.8372 46.9414 36.2332 44.7484C36.5692 44.224 36.8277 43.6678 37.1293 43.1274C37.1724 43.048 37.2586 42.9765 37.4826 42.9209C37.4999 43.1513 37.5516 43.3817 37.5171 43.6121C37.3189 45.1695 36.9311 46.6713 36.3538 48.1492C34.9406 51.7804 32.502 54.7681 29.5463 57.414C27.8487 58.9396 26.0478 60.3937 24.152 61.7047C21.2997 63.6753 18.6974 65.8604 16.5517 68.4905C15.871 69.3248 15.3022 70.2465 14.6818 71.1205C14.5439 71.3112 14.3974 71.494 14.2509 71.6847C14.1734 71.645 14.1044 71.6052 14.0355 71.5576C14.0183 71.4066 13.9924 71.2477 14.001 71.0967C14.0786 69.1897 14.2509 67.2827 14.2251 65.3757C14.1992 63.4687 13.9407 61.5697 13.8546 59.6627C13.7856 58.2165 13.777 56.7704 13.8459 55.3243C13.9149 54.0212 14.0614 52.718 14.294 51.4229C14.4577 50.5091 14.7507 49.6033 15.104 48.7292C15.5349 47.6566 16.0433 46.5998 16.6206 45.5907C16.9739 44.9629 17.491 44.4147 17.9735 43.8585C19.2833 42.3408 20.6965 40.8947 22.4286 39.7664C23.635 38.9877 24.8672 38.2567 26.2976 37.8514C26.7026 37.7402 27.0818 37.5654 27.4782 37.4303C27.5902 37.3906 27.7281 37.3985 27.8487 37.3826C27.8746 37.4303 27.9004 37.478 27.9263 37.5336C27.4954 37.8753 27.0387 38.201 26.6337 38.5666C25.4015 39.679 24.3157 40.8867 23.6263 42.3567C23.0921 43.5009 22.5234 44.6451 22.1011 45.829C21.7478 46.8381 21.5755 47.9108 21.3256 48.9517C21.0412 50.0959 20.7655 51.2322 20.4725 52.3684C20.2226 53.3537 19.9813 54.3549 19.6969 55.3322C19.4557 56.1824 19.1713 57.0326 18.8697 57.8669C18.3871 59.2018 17.8701 60.5208 17.3703 61.8557C17.3014 62.0305 17.3014 62.2292 17.2755 62.4119C17.3186 62.4278 17.3531 62.4358 17.4048 62.4437Z" fill="#AB0048"/>
<path d="M150.359 27.624C150.592 27.624 150.712 27.5923 150.799 27.632C152.108 28.1087 153.427 28.5616 154.719 29.0702C156.641 29.825 158.537 30.6196 160.45 31.3824C162.173 32.0657 163.681 33.0431 165.112 34.1475C166.68 35.3553 167.998 36.7617 169.188 38.2873C170.54 40.0195 171.609 41.8947 172.445 43.8653C173.022 45.2161 173.401 46.6384 173.892 48.0209C174.272 49.0618 174.685 50.0868 175.073 51.1277C175.133 51.2867 175.116 51.4774 175.142 51.6522C174.978 51.5966 174.78 51.5727 174.651 51.4853C172.04 49.7134 169.567 47.7826 167.24 45.6928C164.896 43.5872 162.639 41.418 160.665 39.0104C159.183 37.1908 157.83 35.2917 156.331 33.488C155.59 32.5902 154.659 31.8194 153.789 31.001C152.781 30.0475 151.746 29.1258 150.738 28.1802C150.6 28.0531 150.523 27.8704 150.359 27.624Z" fill="#AB0048"/>
<path d="M22.679 52.6716C22.9892 51.8611 23.3252 51.0586 23.6182 50.2402C23.9371 49.3582 24.2128 48.4603 24.5144 47.5704C24.7988 46.7122 25.0659 45.8541 25.3761 45.0039C25.6863 44.1537 25.9535 43.2796 26.4015 42.5009C27.0478 41.3647 27.8147 40.2761 28.5644 39.2034C30.4257 36.5495 32.9419 34.5313 35.9148 33.0057C37.8192 32.0284 39.7839 31.1623 41.7572 30.32C42.9808 29.8035 44.282 29.4301 45.5487 28.9851C45.9624 28.8342 46.376 28.6673 46.7896 28.5004C46.8327 28.5402 46.8671 28.5799 46.9102 28.6117C46.7982 28.7785 46.712 28.9931 46.5569 29.1123C44.7646 30.5028 43.248 32.1237 41.852 33.8321C39.6977 36.4621 37.5951 39.124 35.4926 41.7858C33.5279 44.2808 31.1065 46.3626 28.573 48.3491C26.8065 49.7316 25.0487 51.1301 23.2822 52.5206C23.1357 52.6318 22.9547 52.6875 22.791 52.7749C22.7565 52.7431 22.7134 52.7034 22.679 52.6716Z" fill="#AB0048"/>
<path d="M51.0945 73.6833L51.1031 79.9684L49.7933 80.6359L49.7847 74.4143L51.0945 73.6833Z" fill="#AB0048"/>
<path d="M49.2425 74.54L49.2339 80.4596L48.0361 81.1032V75.2313L49.2425 74.54Z" fill="#AB0048"/>
<path d="M47.3191 75.3945L47.3277 81.1553L46.1644 81.6558L46.1558 75.911L47.3191 75.3945Z" fill="#AB0048"/>
<path d="M98.6714 71.1042L100.274 70.3891V78.2872L98.6714 78.9706V71.1042Z" fill="#AB0048"/>
<path d="M103.634 21.0405L103.625 18.5376L101.342 18.4899L94.2584 10.8063L94.1981 9.31249L91.2769 8.57353L91.251 7.6677L88.8555 6.98437C88.8555 6.98437 89.9499 5.35547 88.416 4.2669C88.416 4.2669 88.5194 2.77309 87.0545 2.70952L86.5203 0L85.9601 2.70157C85.9601 2.70157 84.5814 3.0353 84.59 4.3543C84.59 4.3543 82.9614 5.7766 84.5986 7.25452H83.194L80.6348 10.2739H79.3939L79.4025 12.459L73.293 21.414L71.4231 21.7874L71.4317 23.7818L66.1494 27.1667L66.0029 28.2076L71.5006 28.8353L82.2289 23.9566L103.866 25.5537L110.157 22.3754L103.634 21.0405ZM79.618 20.818L71.4403 25.4186L70.3546 25.22L81.6085 18.8554L103.315 21.0643L105.306 22.5025L79.618 20.818Z" fill="#AB0048"/>
<path d="M146.761 42.2084V39.3161H145.546V35.0651L144.004 35.0015V35.9788H142.487V35.0969L140.385 35.1048L139.195 33.6269L139.057 30.973L137.11 32.6575L135.18 31.0445L131.259 30.3532L133.25 28.5336L131.647 28.1363L129.449 25.6016C129.449 25.6016 126.907 25.6096 126.623 25.6096L124.115 28.6687L122.711 29.352L124.271 30.4088V31.5292C121.935 32.1728 121.22 33.4282 121.22 33.4282L119.988 34.3658L118.17 34.5248L118.015 36.6225L116.524 36.8052L114.757 39.2446L112.482 38.3626L112.491 42.5818L111.931 42.6215L112.026 44.9338L108.82 46.5547L112.138 48.8908L125.477 44.3776H125.511L146.727 45.0927L152.914 42.2084H146.761ZM124.202 41.5171L112.138 45.8634L112.336 45.5853L113.482 44.2822L123.633 40.055L144.659 41.3184L146.149 42.6533L124.202 41.5171Z" fill="#AB0048"/>
<path d="M103.843 25.5636L82.2053 23.9665L82.2312 40.8196L104.179 41.9638L103.843 25.5636ZM93.3386 37.6651C90.1244 37.673 87.5135 35.2654 87.5135 32.3096C87.5048 29.3458 90.1158 26.9382 93.3214 26.9382C96.5356 26.9303 99.1466 29.3379 99.1466 32.2937C99.1552 35.2575 96.5442 37.6571 93.3386 37.6651Z" fill="#AB0048"/>
<path d="M93.3203 34.1729C94.4405 34.1729 95.3539 33.3306 95.3539 32.2976C95.3539 31.2647 94.4405 30.4224 93.3203 30.4224C92.2 30.4224 91.2866 31.2647 91.2866 32.2976C91.2866 33.3306 92.2 34.1729 93.3203 34.1729Z" fill="#AB0048"/>
<path d="M77.5234 28.3878C75.6879 28.1336 73.8008 30.4061 73.3096 33.4573C72.8099 36.5084 73.8956 39.1941 75.731 39.4404C77.5579 39.6947 79.4536 37.4222 79.9534 34.371C80.4446 31.3278 79.3588 28.65 77.5234 28.3878ZM77.9715 34.1009C77.7647 35.3404 77.0064 36.2462 76.2739 36.1509C75.5328 36.0476 75.0934 34.967 75.3002 33.7354C75.4984 32.5038 76.2653 31.59 76.9977 31.6853C77.7302 31.7886 78.1697 32.8693 77.9715 34.1009Z" fill="#AB0048"/>
<path d="M146.73 58.2203L146.713 45.0859L125.497 44.3708L125.515 57.2827L119.276 57.3145L119.284 62.5826L124.136 62.5746L124.17 88.5415L153.305 88.5097L153.27 63.5837L157.346 63.5758L157.338 58.1965L146.73 58.2203ZM132.762 57.2907L128.798 57.2986L128.781 46.9214L132.744 46.9134L132.762 57.2907ZM138.923 57.2827L135.174 57.2907L135.157 46.9055L138.906 46.8976L138.923 57.2827ZM144.128 57.4575L141.508 57.4655L141.491 47.0803L144.11 47.0724L144.128 57.4575Z" fill="#AB0048"/>
<path d="M123.393 47.2645L123.402 55.9731L120.576 56.9107L120.558 48.2895L123.393 47.2645Z" fill="#AB0048"/>
<path d="M119.596 48.502L119.578 57.1391L117.002 58.0767L117.019 49.527L119.596 48.502Z" fill="#AB0048"/>
<path d="M115.941 50.025L115.95 58.4634L113.89 59.1944L113.873 50.7878L115.941 50.025Z" fill="#AB0048"/>
<path d="M105.23 48.6854L82.8771 47.7478L72.8382 51.673L66.8235 50.8704L81.4639 44.6648C81.4639 44.6648 108.677 46.3652 108.815 46.3652C108.952 46.3652 105.23 48.6854 105.23 48.6854Z" fill="#AB0048"/>
<path d="M105.161 61.9099L105.17 66.0656L109.996 66.0576L110.013 76.3077L95.0363 81.1229L95.045 88.5205L89.0647 88.5284L89.0302 65.1677L87.5308 62.4344L87.5222 57.1345L82.9035 58.6601L82.8862 47.7426L105.179 48.6802L105.196 58.5091L112.624 58.5012V59.3832L105.317 61.9179H105.161V61.9099Z" fill="#AB0048"/>
<path d="M68.4688 71.1479L68.4601 71.5611L52.0704 71.0446L45.4439 73.333L41.6523 72.3795L45.0992 70.9731L44.9613 68.796H46.004L45.9954 66.738L47.9687 66.7301V65.1091H49.3819L49.3733 62.1533L50.1057 62.8287L52.1394 62.0659C52.1394 61.7083 52.2945 61.3825 52.553 61.1521C52.8115 60.9137 53.1562 60.7707 53.5439 60.7707H54.0093V60.0238L52.2514 58.6094L54.2678 58.6015L55.2243 56.4561L56.9563 56.4005L57.8525 58.53L59.7569 58.522L57.9818 59.9602L58.0162 60.7469C58.0162 60.7469 60.0326 60.6197 60.0929 61.9546L62.2731 61.9467L62.5488 60.9773L63.3933 60.9614L63.3157 62.3599C63.3157 62.3599 64.3412 62.6698 64.2981 64.092L66.8832 64.0841V64.8151L64.7289 66.1659L64.6772 68.4305L52.0877 67.4849L46.6589 69.5905L45.9867 70.6712L51.9843 68.502L64.5652 69.2091L64.548 71.1241L68.4688 71.1479Z" fill="#AB0048"/>
<path d="M52.0686 71.0342L52.0945 88.6819L67.8293 88.666L67.8035 71.5348L52.0686 71.0342ZM56.8425 80.6248L54.4986 80.6328L54.49 73.6802L56.8339 73.6722L56.8425 80.6248ZM61.7715 80.6169L59.3931 80.6248L59.3845 74.0457L61.7629 74.0378L61.7715 80.6169ZM66.1317 80.5613L64.055 80.5692L64.0464 74.2602L66.1231 74.2523L66.1317 80.5613Z" fill="#AB0048"/>
<path d="M87.7188 96.5991V99.2053H79.0672V116.75H75.7669V99.2053H67.2791V96.5991H87.7188Z" fill="#AB0048"/>
<path d="M56.0333 96.7556H52.7329V116.755H56.0419V96.7556H56.0333Z" fill="#AB0048"/>
<path d="M63.4169 96.7557H60.1079V116.755H63.4169V96.7557Z" fill="#AB0048"/>
<path d="M110.235 110.528C109.942 107.302 106.977 106.373 106.977 106.373C108.606 105.435 109.683 103.767 109.683 101.868C109.683 100.453 109.063 99.1819 108.063 98.2602C107.064 97.3385 105.685 96.7664 104.151 96.7664H95.5598V116.766H103.824C103.824 116.766 108.442 116.631 109.813 113.31C109.83 113.27 109.847 113.23 109.864 113.19C110.149 112.499 110.338 111.617 110.235 110.528ZM97.9554 98.5462H103.703C105.582 98.5462 107.107 99.9526 107.107 101.685V101.796C107.107 103.783 105.366 105.388 103.212 105.388H97.9467V98.5462H97.9554ZM107.77 112.308C107.615 113.524 106.59 114.192 105.607 114.549C104.625 114.915 103.677 114.97 103.677 114.97H97.9467V107.175H103.367C107.115 107.477 107.563 109.297 107.563 109.297C107.563 109.297 108.08 109.869 107.77 112.308Z" fill="#AB0048"/>
<path d="M105.609 114.56C104.627 114.926 103.679 114.981 103.679 114.981L105.609 114.56Z" fill="#AB0048"/>
<path d="M128.849 96.7557V116.755H126.306V107.173H116.836V116.755H114.294V96.7557H116.836V105.091H126.306V96.7557H128.849Z" fill="#AB0048"/>
<path d="M147.969 96.7557V111.765C147.969 114.705 145.393 117.081 142.204 117.081H139.524C136.06 117.081 133.251 114.491 133.251 111.297V96.7557H135.854V110.597C135.854 112.846 137.836 114.674 140.274 114.674H141.153C143.48 114.674 145.375 112.933 145.375 110.78V96.7557H147.969Z" fill="#AB0048"/>
<path d="M109.01 119.815V134.824C109.01 137.764 106.433 140.14 103.245 140.14H100.565C97.1007 140.14 94.2915 137.55 94.2915 134.356V119.815H96.8939V133.656C96.8939 135.905 98.8758 137.733 101.314 137.733H102.193C104.52 137.733 106.416 135.992 106.416 133.839V119.815H109.01Z" fill="#AB0048"/>
<path d="M86.899 119.992V139.936H84.357V124.235L78.1354 139.936H76.0329L69.8113 124.442V139.936H67.2693V119.992H70.3628L77.0928 136.369L83.5298 119.992H86.899Z" fill="#AB0048"/>
<path d="M131.733 119.961V139.96H129.018L119.1 124.053V139.96H116.558V119.961H119.367L129.191 135.884V119.961H131.733Z" fill="#AB0048"/>
</svg>
