<svg width="201" height="44" viewBox="0 0 201 44" fill="none" xmlns="http://www.w3.org/2000/svg">
<path d="M8.66099 4.93168C4.4638 4.91936 1.07746 7.87932 1.16372 12.3205C1.25738 17.2447 4.21981 19.8005 8.66592 19.8375C12.7966 19.872 15.9857 17.3064 16.1188 12.3747C16.2322 8.11099 12.9814 4.94893 8.66099 4.93168ZM8.6462 15.7537C6.96042 15.7734 5.27711 14.0309 5.30176 12.2983C5.32887 10.514 6.83227 9.10422 8.68563 9.11901C10.5439 9.13626 11.9438 10.5435 11.9487 12.4043C11.9537 14.0901 10.3295 15.7364 8.6462 15.7537Z" fill="#7453B8"/>
<path d="M7.39714 26.7554C4.26711 29.9027 4.25725 34.4695 7.36263 37.6488C8.17348 38.4794 9.13713 38.9427 10.3201 38.9427C11.8777 38.9427 13.4378 38.9846 14.9954 38.9822C15.9616 38.9797 16.383 39.411 16.4348 40.3919C16.5999 43.6107 16.6122 43.4579 13.4181 43.6476C9.7237 43.867 6.54932 42.9995 3.94918 40.2736C1.93315 38.159 0.93746 35.4751 0.543126 32.7714C0.183297 30.2896 1.43038 27.8743 2.82287 25.7843C4.76989 22.8638 6.53699 21.0573 12.1735 21.459H15.2C16.0035 21.4565 16.3608 21.8484 16.4274 22.6592C16.6516 25.3949 16.4865 25.597 13.7188 25.6315C12.489 25.6463 11.2567 25.6808 10.0268 25.6365C8.95475 25.597 8.11679 26.0308 7.39714 26.7554Z" fill="#7453B8"/>
<path d="M26.6733 0.630678C24.3936 0.778553 22.035 1.68059 20.2728 3.47234C18.5747 5.19755 17.6332 7.32942 17.6899 9.6757C17.8181 14.945 21.2266 18.4299 26.6093 18.7306C31.9722 18.4546 35.3289 15.1372 35.6124 9.86301C35.8588 5.25177 31.2328 0.337392 26.6733 0.630678ZM26.5698 14.5433C24.0978 14.5186 21.8033 12.2142 21.8427 9.794C21.8846 7.24316 24.0313 5.18523 26.6462 5.19016C29.0911 4.95602 31.3856 7.28998 31.4127 9.81618C31.4423 12.4286 29.2069 14.5704 26.5698 14.5433Z" fill="#7453B8"/>
<path d="M35.8261 31.3496C36.3215 36.4291 33.2876 41.5407 27.6708 43.4557C26.9931 43.6873 26.2882 43.6011 25.5932 43.606C23.868 43.6159 22.1428 43.574 20.42 43.6208C19.3947 43.6479 18.9413 43.3004 18.9166 42.2111C18.8451 39.0046 18.8279 38.9923 22.0392 38.98C23.518 38.9726 24.9943 38.9455 26.473 38.9381C27.417 38.9356 28.2377 38.6325 28.9573 38.0188C32.1145 35.3225 32.5803 31.0637 30.0762 27.7513C29.0017 26.3268 27.7127 25.4716 25.7928 25.6121C23.9961 25.7452 22.1822 25.6022 20.3756 25.6146C19.3997 25.6219 18.9166 25.1956 18.9413 24.2147C18.9437 24.1728 18.9413 24.1309 18.9388 24.0914C18.8156 21.4987 18.8624 21.4469 21.4132 21.4469H24.2894C25.7879 21.5948 27.6634 21.0501 29.3591 21.8561C33.3443 23.7439 35.4096 27.0662 35.8261 31.3496Z" fill="#7453B8"/>
<path d="M46.4951 29.7225C46.7687 30.0134 46.6898 30.4151 46.6258 30.7798C46.542 31.258 46.2019 31.4773 45.7558 31.497C44.8315 31.5389 43.8975 31.6474 42.7539 31.3516C43.6362 30.5285 44.5654 30.2771 45.3861 29.8458C45.7163 29.6732 46.1107 29.3109 46.4951 29.7225Z" fill="#7453B8"/>
<path d="M46.635 33.8906C46.6892 34.3317 46.8099 34.8394 46.3811 35.145C45.9769 35.4334 45.59 35.1229 45.2548 34.906C44.3281 34.3071 43.2116 34.0483 42.0977 33.097C43.4951 33.097 44.5967 33.0871 45.6984 33.1019C46.2037 33.1093 46.5709 33.3508 46.635 33.8906Z" fill="#7453B8"/>
<path d="M38.3768 29.7793C38.123 29.3874 38.5173 29.1804 38.7712 29.0153C41.0706 27.5193 43.3504 25.9838 45.704 24.5766C46.8796 23.8766 46.5124 25.0793 46.643 25.3184C46.7761 26.3806 46.4188 26.8982 45.6695 27.1915C43.4958 28.0393 41.3294 28.9044 39.1556 29.7571C38.9018 29.8557 38.5789 30.0923 38.3768 29.7793Z" fill="#7453B8"/>
<path d="M46.6745 39.0215C46.6424 39.4035 46.7879 39.8965 46.3344 40.1084C45.9524 40.2859 45.6418 39.9507 45.3411 39.7584C43.2068 38.3931 41.0749 37.0228 38.9554 35.6327C38.635 35.4257 38.0608 35.2014 38.2949 34.7504C38.5734 34.2181 39.0146 34.7356 39.3473 34.8638C41.4422 35.6697 43.5173 36.5323 45.6196 37.3234C46.4477 37.6364 46.7879 38.1589 46.6745 39.0215Z" fill="#7453B8"/>
<path d="M69.8736 26.7258C69.4965 27.4406 68.8779 27.6722 68.1336 27.6353C64.0695 27.4356 64.7473 28.5891 64.7152 31.3149C64.6881 33.6119 64.7423 35.9089 64.6709 38.2034C64.6216 39.8226 64.0005 40.392 62.5168 40.4412C60.6511 40.5029 60.0843 40.0075 60.0498 38.09C60.0029 35.3839 60.0448 32.6778 60.0202 29.9717C60.0029 28.0469 59.6135 27.6772 57.706 27.6501C57.2549 27.6451 56.8015 27.6599 56.3529 27.6254C55.1526 27.5318 54.6474 26.992 54.6277 25.8287C54.6055 24.663 55.0836 24.0271 56.2864 23.9803C58.2901 23.9039 60.3012 23.9606 62.3098 23.9606V23.9507C64.2765 23.9507 66.2482 23.8842 68.2125 23.9729C69.8145 24.0444 70.5686 25.4024 69.8736 26.7258Z" fill="#7453B8"/>
<path d="M86.681 37.7764C84.9953 33.6409 83.3317 29.493 81.673 25.3451C81.4118 24.692 80.9854 24.2409 80.3298 24.0043C78.9546 23.5114 77.5941 23.5681 76.2361 24.0832C75.6964 24.2878 75.3637 24.6895 75.164 25.2021C73.4561 29.594 71.7457 33.9859 70.0599 38.3852C69.7321 39.2404 70.0057 39.9329 70.8757 40.2977C72.2953 40.8917 74.0008 40.3495 74.4937 38.9003C75.1024 37.1135 76.2386 36.5589 77.9663 36.7438C78.4124 36.7906 78.8732 36.7881 79.3193 36.7438C80.7069 36.6107 81.5325 37.2071 82.0353 38.5158C82.506 39.7456 83.4007 40.559 84.771 40.4554C86.9595 40.4431 87.4574 39.684 86.681 37.7764ZM78.3434 33.7493C76.458 33.7592 76.0784 33.1948 76.7956 31.4277C77.1012 30.676 77.3822 29.907 77.7519 29.1849C78.0599 28.5835 78.5455 28.3765 78.888 29.1479C79.3637 30.2274 79.832 31.3217 80.14 32.4529C80.3939 33.3944 79.8418 33.7419 78.3434 33.7493Z" fill="#7453B8"/>
<path d="M101.647 38.4034C101.622 39.7614 100.893 40.4047 99.2811 40.417C96.9003 40.4367 94.5195 40.4343 92.1363 40.4195C90.1424 40.4047 89.2207 39.5199 89.1664 37.4817C89.1122 35.5938 89.1541 33.7035 89.1541 31.8131H89.1467C89.1467 29.9672 89.127 28.1187 89.1541 26.2703C89.1812 24.274 90.2262 23.3991 92.1535 23.7096C93.2207 23.8821 93.8442 24.412 93.8344 25.5975C93.8073 28.5131 93.822 31.4287 93.8344 34.3443C93.8418 36.0646 94.0389 36.2593 95.7395 36.279C96.9299 36.2938 98.1227 36.2568 99.3131 36.3036C100.91 36.3702 101.672 37.0849 101.647 38.4034Z" fill="#7453B8"/>
<path d="M118.554 38.139C119.121 38.8759 119.015 39.3442 118.268 39.842C116.738 40.8575 115.01 40.6702 113.778 39.152C112.514 37.5944 111.36 35.9431 110.172 34.3263C109.899 33.9542 109.662 33.5105 109.112 33.6904C108.57 33.8704 108.615 34.3929 108.607 34.8365C108.59 36.0688 108.595 37.3011 108.587 38.5309C108.58 39.6252 108.151 40.3251 106.958 40.4311C105.095 40.5987 104.341 40.261 104.072 38.9178C103.754 37.338 103.974 35.7237 103.929 34.1267C103.91 33.4711 103.924 32.8131 103.924 32.155H103.952C103.952 30.1439 103.887 28.1303 103.969 26.1217C104.045 24.2708 104.928 23.529 106.618 23.6892C107.964 23.8173 108.531 24.3768 108.578 25.7298C108.622 27.0016 108.59 28.2733 108.612 29.5475C108.619 29.9467 108.59 30.4273 109.098 30.5703C109.571 30.7009 109.857 30.3534 110.103 30.0133C111.212 28.4877 112.282 26.9301 113.433 25.4341C114.761 23.7089 116.149 23.3219 117.689 24.1377C118.7 24.675 118.892 25.2838 118.229 26.2178C117.186 27.6916 116.119 29.1507 114.99 30.558C114.229 31.5093 114.18 32.3127 114.961 33.2961C116.213 34.8685 117.327 36.5469 118.554 38.139Z" fill="#7453B8"/>
<path d="M138.088 35.408C137.326 34.4468 137.37 34.0081 138.408 33.4684C140.555 32.3519 141.082 30.4813 140.865 28.2878C140.663 26.2299 139.463 24.9384 137.526 24.305C136.698 24.0364 135.842 23.9329 134.977 23.9304C132.927 23.9181 130.874 23.9033 128.823 23.9255C126.935 23.9452 126.162 24.7166 126.122 26.6489C126.085 28.4529 126.115 30.257 126.115 32.0636H126.132C126.132 34.0328 126.063 36.0044 126.154 37.9712C126.238 39.8122 127.14 40.5343 128.949 40.4358C130.423 40.3569 130.785 39.859 130.8 37.8874C130.802 37.5596 130.79 37.2293 130.807 36.904C130.839 36.3002 130.726 35.5928 131.492 35.3513C132.242 35.1122 132.727 35.5731 133.151 36.1227C133.927 37.1283 134.687 38.1511 135.497 39.1295C136.518 40.3643 138.127 40.8054 139.608 40.3125C140.806 39.9157 141.077 39.1887 140.328 38.1831C139.618 37.2318 138.827 36.3396 138.088 35.408ZM132.905 31.8122C130.987 31.8072 130.792 31.5879 130.795 29.4338C130.797 27.4499 131.064 27.1393 132.764 27.1369C134.866 27.1344 136.178 28.0512 136.163 29.5127C136.148 31.0136 135.009 31.8171 132.905 31.8122Z" fill="#7453B8"/>
<path d="M151.928 23.4154C147.004 23.2824 142.75 27.1542 143.085 32.0021C142.829 37.5005 146.779 40.776 151.701 40.8179C156.877 40.8622 160.611 37.4907 160.623 32.0932C160.635 27.0187 157.044 23.551 151.928 23.4154ZM151.785 36.6995C149.53 36.6527 147.455 34.4691 147.593 32.0538C147.733 29.5449 149.002 27.5609 151.81 27.6052C154.296 27.6422 155.938 29.3945 155.933 32.0982C155.93 34.6539 154.04 36.7488 151.785 36.6995Z" fill="#7453B8"/>
<path d="M171.47 23.4402C166.472 23.2849 162.501 27.0606 162.622 32.113C162.755 37.651 165.974 40.7342 171.443 40.8007C176.66 40.8623 180.111 37.7274 180.283 32.1278C180.436 27.1001 176.638 23.4426 171.47 23.4402ZM171.497 36.7095C169.16 36.7563 167.24 34.6491 167.25 32.0465C167.258 29.3872 168.941 27.6102 171.455 27.6127C173.961 27.6152 175.632 29.3921 175.64 32.0637C175.647 34.6047 173.809 36.6676 171.497 36.7095Z" fill="#7453B8"/>
<path d="M200.442 25.7771C200.472 30.0851 200.511 34.3932 200.437 38.7013C200.413 40.1431 199.676 40.5399 197.914 40.4389C196.585 40.3625 196.132 39.9114 196.107 38.4844C196.073 36.5966 196.11 34.7087 196.08 32.8208C196.075 32.4093 196.24 31.7759 195.626 31.7093C195.121 31.6526 194.912 32.1998 194.757 32.6187C194.431 33.5035 194.158 34.4056 193.847 35.2953C193.485 36.3378 192.886 37.1141 191.661 37.1289C190.404 37.1462 189.704 36.4339 189.322 35.3199C189.029 34.4672 188.745 33.612 188.462 32.7568C188.344 32.3994 188.23 31.9779 187.777 32.0125C187.23 32.0543 187.217 32.5473 187.212 32.9539C187.195 34.6791 187.235 36.4043 187.188 38.1246C187.136 40.0593 186.606 40.5227 184.706 40.4413C183.299 40.3822 182.813 39.9114 182.791 38.4549C182.761 36.36 182.784 34.2675 182.784 32.1751C182.781 30.1221 182.764 28.0691 182.788 26.0186C182.806 24.5226 183.414 23.8596 184.883 23.6378C187.136 23.2952 188.134 23.8793 188.97 25.9915C189.571 27.517 190.195 29.0328 190.816 30.5534C190.973 30.9404 191.168 31.3372 191.646 31.3618C192.186 31.3889 192.255 30.9083 192.408 30.5362C193.066 28.944 193.721 27.3519 194.384 25.7623C195.225 23.7438 197.371 22.9896 199.36 23.9779C200.127 24.3575 200.437 25.013 200.442 25.7771Z" fill="#7453B8"/>
</svg>
