<svg width="29" height="23" viewBox="0 0 29 23" fill="none" xmlns="http://www.w3.org/2000/svg">
<path d="M28.002 3.74609C27.2222 4.8679 26.1354 4.95533 25.002 5.74609C25.0131 5.95817 25.002 6.47876 25.002 6.74609C25.002 8.23143 24.4497 10.2572 24.002 11.7461C23.5542 13.235 22.9221 14.3847 22.002 15.7461C21.0818 17.1075 20.274 18.6953 19.002 19.7461C17.7299 20.7969 16.788 21.1212 15.002 21.7461C13.2159 22.371 11.0442 22.7461 9.00195 22.7461C5.81465 22.7461 2.68503 22.4107 0.00195312 20.7461C0.478168 20.7974 0.564708 20.7461 1.00195 20.7461C3.66468 20.7461 6.90819 19.3327 9.00195 17.7461C7.76044 17.7241 5.98418 17.4634 5.00195 16.7461C4.01973 16.0288 3.37162 14.8619 3.00195 13.7461C3.36734 13.8134 3.64609 13.7461 4.00195 13.7461C4.5142 13.7461 5.50612 13.8753 6.00195 13.7461C4.67702 13.4894 2.87531 12.766 2.00195 11.7461C1.12863 10.7262 1.00195 10.0805 1.00195 8.74609C1.8152 9.18163 3.08029 8.71829 4.00195 8.74609C3.21708 8.23998 2.46166 7.55996 2.00195 6.74609C1.54222 5.93223 1.00195 5.69372 1.00195 4.74609C1.00195 3.74666 1.48412 2.60798 2.00195 1.74609C3.44279 3.45633 4.95104 4.72258 7.00195 5.74609C9.05289 6.76962 11.6524 7.63275 14.002 7.74609C13.9017 7.34213 14.0021 7.18524 14.002 6.74609C14.002 5.21275 13.88 3.83125 15.002 2.74609C16.124 1.66094 17.4167 0.746094 19.002 0.746094C20.6617 0.746094 22.8657 1.577 24.002 2.74609C25.3002 2.49736 25.869 1.39715 27.002 0.746094C26.5655 2.07475 26.2476 3.02482 25.002 3.74609C26.1468 3.6145 26.9468 4.19643 28.002 3.74609Z" fill="#F1F1F1"/>
</svg>
