<svg width="115" height="95" viewBox="0 0 115 95" fill="none" xmlns="http://www.w3.org/2000/svg">
<path opacity="0.75" fill-rule="evenodd" clip-rule="evenodd" d="M86.6726 0.0520407C86.6839 0.100619 87.4207 0.896748 88.3102 1.82117C89.7419 3.30927 89.9877 3.59505 90.4548 4.31471C92.9191 8.11124 96.4166 11.8868 100.116 14.7434C100.501 15.0406 100.838 15.2695 100.866 15.252C100.921 15.2174 100.892 15.1232 100.661 14.5993C100.452 14.1246 100.442 14.0962 100.24 13.292C99.0707 8.64229 96.864 5.19225 93.7406 3.13059C92.6085 2.38329 91.4316 1.83661 88.5677 0.727881C87.7733 0.420346 87.0173 0.122564 86.8877 0.066171C86.6938 -0.018231 86.6558 -0.0207326 86.6726 0.0520407ZM27.0749 0.660048C27.0073 0.691245 26.4818 0.903251 25.9071 1.13114C22.0918 2.64412 20.128 3.75922 18.476 5.35055C17.7101 6.08847 17.1816 6.75249 16.4774 7.86179C15.4997 9.40197 15.1807 10.175 14.5488 12.5362C14.1251 14.1195 13.8508 14.9666 13.4812 15.8341C13.4065 16.0095 13.6196 15.8922 13.9628 15.569C14.1632 15.3802 14.9966 14.6583 15.8148 13.9647C19.1571 11.1315 19.5701 10.6946 21.3912 8.06598C23.7671 4.63644 24.7582 3.36372 26.2752 1.79372C26.884 1.16365 27.3938 0.636102 27.4078 0.621473C27.4545 0.572832 27.1998 0.602342 27.0749 0.660048ZM97.6348 5.4799C97.6534 5.52679 97.801 5.65671 97.9629 5.76862C98.373 6.05208 99.2548 6.96906 99.6912 7.56582C100.165 8.2144 100.738 9.3477 100.971 10.0979C101.305 11.1776 101.739 12.8553 102.527 16.1227C102.907 17.6998 103.658 20.0664 104.094 21.0616C104.439 21.8467 104.462 21.9162 104.332 21.7579C104.276 21.6891 104.039 21.246 103.807 20.7732C103.278 19.696 103.074 19.3928 102.197 18.3818C101.164 17.1896 100.226 16.3669 98.5969 15.2238C95.6573 13.161 95.0511 12.6859 94.164 11.749C93.5418 11.0919 92.9062 10.1865 92.5551 9.45705C92.3558 9.04316 92.2554 8.93544 92.2554 9.13576C92.2554 9.19121 92.3408 9.62022 92.4451 10.0892C93.1611 13.3085 94.1918 15.3407 96.0645 17.2252C96.963 18.1293 97.6741 18.7451 99.5694 20.2603C100.465 20.9765 101.506 21.8239 101.882 22.1434C103.688 23.6772 105.03 25.2085 105.777 26.5886C106.08 27.1476 106.251 27.2653 106.184 26.8689C105.931 25.3607 105.868 23.0034 106.025 20.9451C106.147 19.3378 106.134 16.3504 106 15.4433C105.737 13.663 105.33 12.431 104.542 11.0305C103.089 8.44728 100.722 6.34899 98.4187 5.60181C97.8424 5.41482 97.5938 5.37618 97.6348 5.4799ZM15.8711 6.31629C14.6431 6.73199 13.3703 7.52261 12.2788 8.54769C11.7244 9.06836 10.6606 10.3251 10.2555 10.9381C9.44818 12.1595 8.90111 13.5989 8.6383 15.1933C8.58163 15.5371 8.50708 15.9732 8.47266 16.1623C8.37671 16.6892 8.33744 19.7557 8.41267 20.8513C8.44924 21.3843 8.52447 22.3268 8.57985 22.9457C8.66466 23.8931 8.66977 24.2491 8.61218 25.1965C8.52933 26.5588 8.52367 27.791 8.60025 27.791C8.63117 27.791 8.76018 27.6012 8.88697 27.369C9.88671 25.5389 11.7619 23.4705 13.9028 21.8366C18.4074 18.3985 20.9075 15.1479 21.6927 11.7087C21.8094 11.1972 21.9428 10.1663 21.9428 9.77521C21.9428 9.50125 21.8738 9.5844 21.5693 10.2259C20.7163 12.0223 19.594 13.1457 16.1654 15.6348C15.5062 16.1134 14.6903 16.7281 14.3522 17.0009C12.7923 18.2596 11.4243 19.9858 10.533 21.8204C10.3158 22.2674 10.1557 22.5487 10.1772 22.4456C10.2271 22.2063 10.6642 20.8699 11.0361 19.8197C11.6127 18.1919 12.0042 16.6757 12.4489 14.3492C12.8635 12.1806 13.296 10.6899 13.8564 9.49756C14.0358 9.11575 14.3292 8.5812 14.5084 8.30968C14.8218 7.83465 15.8078 6.77475 16.319 6.3635C16.6287 6.11429 16.506 6.10141 15.8711 6.31629ZM106.33 12.8496C106.33 12.8883 106.41 13.0376 106.506 13.1814C107.126 14.1007 107.605 15.5971 107.81 17.2564C107.902 17.9965 107.969 19.791 107.921 20.2261C107.84 20.97 107.74 21.8439 107.681 22.3205C107.523 23.6131 107.383 26.347 107.38 28.1974C107.378 30.1647 107.521 32.533 107.738 34.1368C107.766 34.3431 107.769 34.5353 107.743 34.5639C107.691 34.622 107.579 34.1241 107.348 32.8181C107.202 31.9951 107.025 31.303 106.884 31.0108C106.851 30.942 106.716 30.6135 106.584 30.2807C106.091 29.0381 105.21 27.7681 103.966 26.5099C103.592 26.1314 102.622 25.2275 101.81 24.5014C99.3404 22.291 98.1393 20.9752 97.5792 19.8666C97.5227 19.7548 97.4496 19.6634 97.4166 19.6634C97.3414 19.6634 97.339 19.962 97.4123 20.2012C97.4429 20.3008 97.5137 20.5934 97.5695 20.8513C97.8997 22.3749 98.7135 24.6957 99.3931 26.0517C100.179 27.6197 100.696 28.4009 103.191 31.7899C106.09 35.728 107.007 37.417 107.603 39.9165C107.837 40.8992 107.92 41.1703 107.985 41.1703C108.008 41.1703 108.063 40.9523 108.107 40.6858C108.15 40.4193 108.254 39.8636 108.336 39.451C108.419 39.0384 108.502 38.6164 108.522 38.5132C108.719 37.4846 109.53 34.9122 110.059 33.6366C111.011 31.344 111.396 29.7059 111.563 27.244C111.625 26.3265 111.625 25.8795 111.562 24.962C111.495 23.9751 111.338 22.6751 111.223 22.1642C110.739 19.9992 110.289 18.6708 109.542 17.2046C109.067 16.271 107.516 13.9094 106.988 13.3153C106.697 12.9873 106.33 12.7279 106.33 12.8496ZM7.66867 13.8022C7.56572 13.914 7.19701 14.4124 6.84932 14.91C5.10134 17.411 4.05808 19.6334 3.47008 22.1085C3.23566 23.095 3.1466 23.8889 3.07371 25.6397C2.98514 27.7676 3.10345 29.0008 3.57087 30.8232C3.83534 31.8543 4.04653 32.481 4.89513 34.7532C5.91983 37.4968 6.16322 38.2202 6.45461 39.3885C6.63359 40.106 6.82179 41.2153 6.82252 41.5574C6.82283 41.7187 6.84674 41.8655 6.87563 41.8837C6.93881 41.9234 7.06899 41.6511 7.06899 41.4792C7.06899 41.3258 7.39172 40.0686 7.54956 39.6073C8.26276 37.5225 9.24204 35.8053 11.8636 32.0424C14.6695 28.0149 15.2745 26.9283 16.1012 24.4307C16.434 23.4254 16.6594 22.5857 16.8441 21.6641C16.9754 21.0087 17.0617 20.2886 17.0089 20.2886C16.9903 20.2886 16.8596 20.5066 16.7185 20.7732C16.1155 21.9119 15.6147 22.4851 13.5532 24.3966C12.8095 25.0861 11.896 25.9701 11.523 26.3611C8.96042 29.0479 7.6798 31.3773 7.35134 33.9492C7.26972 34.5884 7.11072 35.3559 7.05995 35.3559C6.99499 35.3559 6.99806 34.9747 7.07058 34.043C7.10138 33.6476 7.17575 32.691 7.23586 31.9173C7.41102 29.6637 7.37372 27.4767 7.12965 25.6966C7.00144 24.7611 6.81798 23.2564 6.63046 21.6016C6.5288 20.7041 6.52929 18.259 6.63131 17.6628C6.88196 16.1976 7.12406 15.4086 7.62798 14.4153C7.82761 14.0218 7.99092 13.6771 7.99092 13.6494C7.99092 13.5404 7.84691 13.6087 7.66867 13.8022ZM22.2223 17.3453C22.1657 17.4385 22.1822 28.4347 22.239 28.4924C22.2674 28.5214 25.7606 28.5438 30.0017 28.5423C36.5365 28.5398 37.7306 28.5528 37.8309 28.6274C37.9441 28.7117 37.9485 28.806 37.9341 30.8634C37.9258 32.0448 37.905 33.0581 37.8879 33.1151C37.8708 33.1721 37.8146 33.2352 37.763 33.2553C37.7114 33.2755 34.2706 33.2925 30.1168 33.2933C23.3641 33.2945 22.5543 33.3049 22.4687 33.3919C22.3859 33.4762 22.373 33.7697 22.373 35.5667C22.373 37.0992 22.3924 37.6639 22.4468 37.7192C22.5033 37.7767 24.2985 37.7942 30.1528 37.7942C36.7519 37.7942 37.795 37.8065 37.8591 37.8851C37.9138 37.9522 37.9336 38.5603 37.9347 40.2098C37.9362 42.2899 37.9287 42.4493 37.8257 42.526C37.7356 42.593 36.275 42.6083 29.9594 42.6083C23.3445 42.6083 22.1931 42.6213 22.1315 42.6968C22.0917 42.7455 22.0335 43.0339 22.0021 43.3376C21.9271 44.0629 21.9294 46.0723 22.0056 46.3907C22.0385 46.5283 22.0925 46.9847 22.1255 47.4049C22.1585 47.8252 22.2262 48.2679 22.2758 48.3888C22.3255 48.5096 22.398 48.8409 22.437 49.1251C22.476 49.4092 22.5561 49.7402 22.6151 49.8606C22.674 49.9809 22.7399 50.2131 22.7616 50.3766C22.7832 50.54 22.8568 50.7851 22.925 50.9211C22.9933 51.0572 23.0491 51.2158 23.0491 51.2736C23.0491 51.3314 23.1031 51.4942 23.169 51.6355C23.235 51.7769 23.3752 52.1035 23.4806 52.3614C23.6985 52.8941 24.3341 54.2058 24.5562 54.5808C24.6376 54.7184 24.7451 54.9176 24.7951 55.0235C24.845 55.1293 24.9289 55.2524 24.9816 55.2968C25.0343 55.3413 25.0774 55.4142 25.0774 55.459C25.0774 55.5037 25.1465 55.6239 25.231 55.7261C25.3155 55.8282 25.3847 55.9283 25.3847 55.9486C25.3847 56.0083 26.0434 56.9802 26.356 57.3817C27.4508 58.7878 27.8797 59.2818 28.9464 60.3651C30.1251 61.562 31.1367 62.472 31.9919 63.1046C32.5229 63.4974 32.6035 63.559 32.9239 63.816C33.4204 64.2145 34.2109 64.788 34.7576 65.1465C35.5822 65.6871 35.6896 65.7553 36.3249 66.1414C37.1102 66.6187 37.0616 66.5907 37.3391 66.7246C37.4743 66.7898 38.1896 67.1578 38.9286 67.5423C39.6677 67.9269 40.3074 68.2415 40.3501 68.2415C40.3929 68.2415 40.4605 68.2815 40.5004 68.3304C40.5402 68.3792 40.6803 68.4377 40.8117 68.4603C40.943 68.4828 41.0816 68.5395 41.1197 68.5862C41.1578 68.6329 41.273 68.6898 41.3757 68.7128C41.5428 68.7501 41.8066 68.8631 42.6288 69.2494C42.7663 69.314 42.9099 69.3668 42.948 69.3668C42.9861 69.3668 43.1087 69.4203 43.2205 69.4858C43.3323 69.5512 43.5206 69.6253 43.6389 69.6504C43.7572 69.6755 43.9504 69.7486 44.0682 69.8128C44.1861 69.877 44.3463 69.9295 44.4245 69.9295C44.5026 69.9295 44.6964 69.9998 44.8551 70.0858C45.0139 70.1718 45.1932 70.2421 45.2536 70.2421C45.3141 70.2421 45.5278 70.3124 45.7286 70.3984C45.9294 70.4844 46.1648 70.5547 46.2517 70.5547C46.3385 70.5547 46.5131 70.6084 46.6396 70.674C46.7661 70.7397 47.0253 70.8227 47.2156 70.8585C47.4059 70.8942 47.6544 70.963 47.7678 71.0112C47.8813 71.0594 48.1115 71.1198 48.2795 71.1454C48.4475 71.171 48.6665 71.2348 48.766 71.2872C48.8655 71.3396 49.1472 71.4076 49.392 71.4386C49.6367 71.4695 49.9428 71.5399 50.0723 71.595C50.2017 71.6502 50.5002 71.7199 50.7357 71.7501C50.9712 71.7803 51.2754 71.8462 51.4118 71.8965C51.5482 71.9468 51.9016 72.0161 52.1973 72.0505C52.493 72.0849 52.7869 72.1414 52.8504 72.176C52.9139 72.2105 53.2943 72.2693 53.6957 72.3066C54.0971 72.3439 54.664 72.4292 54.9556 72.4961C55.2471 72.5631 55.6758 72.6181 55.9082 72.6184C56.1407 72.6187 56.6489 72.6618 57.0376 72.7141C57.4264 72.7665 58.0349 72.8357 58.3898 72.8679C59.2183 72.9431 62.5083 72.955 62.5791 72.8829C62.6627 72.7978 62.6511 65.6045 62.5673 65.5518C62.5297 65.5282 61.2029 65.5209 59.619 65.5355C57.5823 65.5544 56.7018 65.542 56.6118 65.493C56.4866 65.4248 56.4845 65.3861 56.4845 63.1148C56.4845 60.8333 56.486 60.8051 56.6136 60.7357C56.7054 60.6857 57.5818 60.6712 59.6521 60.6854C61.2523 60.6963 62.5787 60.6878 62.5997 60.6664C62.6729 60.5919 62.6363 54.9132 62.562 54.822C62.5239 54.7753 62.3979 54.7371 62.2821 54.7371C62.1662 54.7371 61.9903 54.6944 61.8912 54.6423C61.792 54.5902 61.579 54.5292 61.4179 54.5069C61.2567 54.4846 60.9866 54.4009 60.8176 54.3209C60.6485 54.241 60.4517 54.1754 60.3803 54.1751C60.3088 54.1747 60.18 54.1182 60.094 54.0494C60.0081 53.9806 59.9196 53.9244 59.8975 53.9244C59.8471 53.9244 59.1902 53.6248 59.0659 53.5451C58.5152 53.1921 58.1896 52.9693 57.8456 52.7101C57.2976 52.2972 56.0186 50.988 55.681 50.4944C55.276 49.9024 55.08 49.5942 55.0165 49.4501C54.9852 49.379 54.8902 49.2169 54.8055 49.0899C54.6422 48.8451 54.026 47.3067 54.026 47.1438C54.026 47.0909 53.9742 46.8858 53.9109 46.6879C53.7299 46.1225 53.6278 45.1672 53.6285 44.0462C53.6291 43.0253 53.755 41.8446 53.9054 41.4485C53.9439 41.347 54.0259 41.0671 54.0877 40.8264C54.1975 40.3982 54.7608 39.0424 54.8993 38.8726C54.9378 38.8254 55.0544 38.6218 55.1584 38.4201C55.3604 38.0282 56.1598 37.0116 56.7246 36.4282C57.0747 36.0665 58.1679 35.1059 58.2294 35.1059C58.248 35.1059 58.4671 34.9652 58.7162 34.7933C58.9653 34.6213 59.1921 34.4807 59.2202 34.4807C59.2483 34.4807 59.315 34.4425 59.3684 34.396C59.6278 34.1696 60.5114 33.7819 61.4322 33.4905C62.4435 33.1704 62.8617 33.0934 63.8292 33.049C64.5135 33.0176 64.801 32.9795 64.9446 32.9014C65.051 32.8434 65.2712 32.7657 65.4338 32.7286C65.5964 32.6915 65.7583 32.637 65.7935 32.6073C65.8287 32.5776 66.0697 32.439 66.329 32.2992C67.4671 31.6861 68.3827 30.8431 69.2364 29.6229C69.4318 29.3436 70.0031 28.1464 70.0061 28.0098C70.0076 27.9411 70.0635 27.7621 70.1304 27.6123C70.2858 27.264 70.463 26.049 70.4645 25.3215C70.4661 24.5964 70.2828 23.3097 70.1288 22.9645C70.0628 22.8166 70.0082 22.6416 70.0075 22.5756C70.0068 22.5095 69.9266 22.2844 69.8294 22.0754C69.7321 21.8664 69.634 21.6531 69.6113 21.6016C69.5629 21.4916 69.35 21.1344 69.179 20.8765C68.9418 20.5186 68.2945 19.752 67.9964 19.4759C67.1569 18.6984 66.8569 18.4751 66.278 18.1969C66.1036 18.1131 65.9444 18.0174 65.9243 17.9841C65.904 17.9509 65.7701 17.9039 65.6267 17.8795C65.4831 17.8552 65.2631 17.7825 65.1377 17.7178C65.0123 17.6532 64.8602 17.6001 64.7997 17.6C64.7392 17.5998 64.4961 17.5301 64.2594 17.445L63.8292 17.2903L43.0433 17.289C30.4168 17.2882 22.2436 17.3103 22.2223 17.3453ZM112.688 27.8721C112.667 27.9264 112.685 28.1345 112.728 28.3343C112.835 28.8397 112.838 31.1782 112.732 31.8236C112.521 33.1125 112.409 33.6158 112.086 34.7307C111.817 35.6612 111.136 37.4649 110.641 38.558C110.537 38.789 110.381 39.1487 110.295 39.3572C110.208 39.5658 110.059 39.9113 109.963 40.1252C109.491 41.1728 108.98 42.4759 108.817 43.0459C108.403 44.4984 108.171 45.43 107.836 46.9847C107.781 47.2426 107.71 47.5661 107.679 47.7036C107.648 47.8412 107.566 48.2069 107.497 48.5164C107.261 49.5762 107.049 50.392 106.99 50.4701C106.892 50.5975 106.805 50.5594 106.846 50.4076C106.974 49.9345 107.275 48.5601 107.349 48.11C107.467 47.3889 107.464 45.2243 107.343 44.3592C107.042 42.2069 106.399 40.7536 103.984 36.7626C102.311 33.9974 101.705 32.7417 101.229 31.0577C101.158 30.8084 101.074 30.6044 101.042 30.6044C100.983 30.6044 100.942 31.9447 100.973 32.8551C101.019 34.1917 101.544 37.5273 102.066 39.7949C102.41 41.2908 103.039 43.7027 103.312 44.5776C103.344 44.6808 103.473 45.1028 103.598 45.5154C103.932 46.6199 104.286 47.7378 104.546 48.5164C104.979 49.8089 105.123 50.8146 105.122 52.5177C105.122 53.5491 105.054 54.7967 104.944 55.8156C104.921 56.0332 104.933 56.112 104.991 56.1104C105.035 56.1092 105.296 55.7646 105.571 55.3445C106.239 54.3272 107.089 53.1676 108.607 51.2048C111.019 48.0858 111.578 47.2925 112.044 46.3282C113.104 44.1348 113.782 41.8315 114.166 39.119C114.383 37.5822 114.423 35.1339 114.257 33.5429C114.065 31.6947 113.658 30.0229 112.983 28.3073C112.781 27.7928 112.74 27.733 112.688 27.8721ZM1.90814 28.7876C1.69019 29.2019 1.32548 30.4297 1.02493 31.761C0.573184 33.7623 0.542944 34.0143 0.510308 36.0445C0.48222 37.7958 0.503485 38.2566 0.676071 39.6386C0.824871 40.8298 1.20956 42.647 1.64889 44.2338C2.30162 46.5913 3.22447 48.1684 5.7832 51.2985C7.90733 53.8971 8.6517 54.8943 9.33177 56.0523C9.50417 56.3458 9.71474 56.6524 9.79981 56.7338C9.93785 56.8656 9.95881 56.8701 9.99446 56.7757C10.0164 56.7174 9.98395 56.2982 9.92224 55.8441C9.83785 55.2229 9.81001 54.6237 9.80995 53.4242C9.80982 51.7541 9.86305 51.2552 10.1535 50.2044C10.5295 48.8439 10.648 48.4237 10.9113 47.5161C11.071 46.9659 11.224 46.4314 11.2515 46.3282C11.2789 46.225 11.3447 45.993 11.3978 45.8124C11.5065 45.4423 11.6456 44.9633 11.7654 44.5464C12.0231 43.6493 12.6662 41.1153 12.8205 40.3888C12.92 39.9201 13.0816 38.938 13.2424 37.8255C13.297 37.4472 13.3688 36.983 13.402 36.7939C13.5344 36.038 13.6825 34.6089 13.7404 33.5274C13.7926 32.5527 13.7258 31.2753 13.6243 31.3097C13.5857 31.3228 13.4789 31.6126 13.3867 31.9537C12.9594 33.5351 12.4521 34.7251 11.7372 35.8233C9.70319 38.9475 8.31814 41.9508 7.78619 44.3901C7.553 45.4595 7.52995 45.7179 7.52995 47.266C7.52995 49.04 7.6195 49.6892 8.03695 50.941C8.10327 51.1397 8.13523 51.3164 8.108 51.3335C7.94427 51.4364 7.48355 49.8373 7.06923 47.7279C6.72621 45.9813 6.49081 45.033 6.11657 43.8899C5.69654 42.6069 5.30085 41.649 4.02477 38.8258C3.33111 37.2911 2.61981 35.3783 2.31606 34.2306C1.9165 32.721 1.79019 30.8433 1.98491 29.3071C2.06352 28.6871 2.04102 28.535 1.90814 28.7876ZM80.6391 32.8936C80.5208 32.9465 80.2749 33.0149 80.0928 33.0456C79.9106 33.0763 79.7134 33.1459 79.6545 33.2001C79.5955 33.2544 79.4408 33.3287 79.3105 33.3653C79.1803 33.4019 79.0073 33.4849 78.9262 33.5499C78.8451 33.6148 78.7478 33.6684 78.7101 33.669C78.6207 33.6705 78.1616 33.9816 77.8118 34.2777C77.3022 34.709 76.4597 35.6122 76.4597 35.7271C76.4597 35.7896 76.4196 35.8746 76.3706 35.916C76.3216 35.9573 76.2485 36.0944 76.208 36.2206C76.1676 36.3468 76.0832 36.5171 76.0205 36.5992C75.9578 36.6812 75.9065 36.8085 75.9065 36.8822C75.9065 36.9559 75.8605 37.083 75.8042 37.1646C75.5603 37.5189 75.452 38.2045 75.453 39.3885C75.4535 40.0074 75.4854 40.8092 75.5238 41.1703C75.5623 41.5314 75.595 42.7534 75.5965 43.8859C75.5991 45.8701 75.5946 45.95 75.4746 46.0799C75.3742 46.1886 74.9102 47.3947 74.7537 47.9537C74.7344 48.0225 74.5849 48.325 74.4214 48.6259C74.2579 48.9269 74.1223 49.1942 74.12 49.2199C74.1177 49.2456 73.9658 49.4776 73.7823 49.7355C73.5988 49.9934 73.3755 50.317 73.2859 50.4545C72.958 50.9578 71.4633 52.3821 70.8583 52.7678C70.8044 52.8021 70.6039 52.9358 70.4127 53.0647C70.2216 53.1937 70.0434 53.2992 70.0169 53.2992C69.9903 53.2992 69.8749 53.3695 69.7603 53.4555C69.6457 53.5414 69.5058 53.6118 69.4494 53.6118C69.3929 53.6118 69.2797 53.6654 69.1979 53.7308C69.1161 53.7963 68.9358 53.8809 68.7972 53.9188C68.6587 53.9568 68.514 54.0263 68.4756 54.0733C68.4372 54.1204 68.2928 54.1772 68.1547 54.1997C68.0165 54.2222 67.8166 54.2867 67.7102 54.343C67.6039 54.3993 67.434 54.463 67.3325 54.4844L67.1482 54.5234L67.1322 57.6C67.1196 60.0389 67.1323 60.6773 67.1937 60.6801C67.2362 60.6821 68.5027 60.6806 70.0079 60.6768C71.5133 60.673 72.7924 60.6885 72.8505 60.7112C72.948 60.7492 72.9563 60.938 72.9563 63.1148C72.9563 65.2683 72.9472 65.4808 72.8532 65.5175C72.7965 65.5396 71.5112 65.5545 69.9971 65.5505C68.4829 65.5466 67.2156 65.5613 67.1807 65.5832C67.0809 65.646 67.0941 72.8333 67.1943 72.9162C67.2993 73.0032 68.185 72.9109 68.8076 72.7483C69.0781 72.6776 69.41 72.6197 69.5452 72.6196C69.7897 72.6194 70.6177 72.3999 71.2047 72.1796C71.3737 72.1162 71.6364 72.0448 71.7885 72.021C71.9407 71.9972 72.1619 71.9288 72.2802 71.8692C72.3986 71.8095 72.5875 71.7428 72.7001 71.7209C72.8127 71.6991 72.9754 71.6247 73.0618 71.5556C73.1481 71.4865 73.2689 71.43 73.3301 71.43C73.3914 71.43 73.5715 71.3596 73.7305 71.2737C73.8894 71.1877 74.0554 71.1174 74.0993 71.1174C74.1432 71.1174 74.3091 71.047 74.468 70.9611C74.627 70.8751 74.791 70.8048 74.8325 70.8048C74.8741 70.8048 74.946 70.7582 74.9924 70.7013C75.0388 70.6444 75.1597 70.5578 75.2611 70.5089C75.3626 70.46 75.5838 70.3399 75.7528 70.2421C75.9219 70.1442 76.1431 70.0242 76.2445 69.9753C76.346 69.9264 76.7023 69.6991 77.0364 69.4703C77.3705 69.2415 77.6579 69.0542 77.6751 69.0542C77.6923 69.0542 77.8477 68.932 78.0203 68.7826C78.1929 68.6331 78.4034 68.4742 78.4879 68.4293C78.5724 68.3845 78.6554 68.3272 78.6723 68.3022C78.6892 68.2771 78.9105 68.0811 79.164 67.8666C80.043 67.1229 82.0512 65.0483 82.5021 64.4181C82.6091 64.2687 82.8767 63.9149 83.0968 63.632C83.3169 63.3491 83.6354 62.9331 83.8044 62.7077C83.9734 62.4822 84.1502 62.2545 84.1974 62.2017C84.3182 62.0659 84.5518 61.7104 84.6985 61.4388C84.767 61.3118 84.8902 61.0954 84.9723 60.9579C85.0543 60.8203 85.1628 60.6202 85.2132 60.5131C85.2636 60.4061 85.4124 60.1529 85.5438 59.9504C85.7963 59.5616 85.9179 59.3449 86.0831 58.9896C86.1388 58.8698 86.2365 58.7042 86.3004 58.6216C86.3643 58.539 86.4168 58.426 86.4171 58.3705C86.4174 58.315 86.4857 58.1288 86.5688 57.9569C86.652 57.785 86.7209 57.5899 86.7219 57.5234C86.723 57.4569 86.7796 57.2851 86.8479 57.1417C86.9161 56.9983 87.0104 56.7433 87.0573 56.5749C87.1043 56.4066 87.1855 56.1563 87.2379 56.0188C87.2902 55.8813 87.3343 55.6762 87.3357 55.563C87.3372 55.4499 87.39 55.253 87.4529 55.1254C87.5159 54.9978 87.5867 54.7387 87.6102 54.5496C87.6338 54.3605 87.6958 54.1389 87.748 54.0574C87.8032 53.971 87.8631 53.6681 87.8914 53.3325C87.9182 53.0155 87.9835 52.6704 88.0367 52.5658C88.0899 52.4612 88.1499 52.1402 88.1699 51.8527C88.19 51.5651 88.2591 51.1047 88.3234 50.8296C88.3878 50.5546 88.4707 49.9637 88.5076 49.5167C88.5446 49.0697 88.6033 48.493 88.6382 48.2351C88.7778 47.2015 88.7923 46.7385 88.8073 42.8003C88.8217 39.0369 88.8324 38.6647 88.9411 38.147C89.0062 37.8375 89.0594 37.5114 89.0594 37.4224C89.0594 37.3334 89.1288 37.1566 89.2137 37.0296C89.2985 36.9026 89.3959 36.7343 89.43 36.6556C89.4642 36.5769 89.5734 36.386 89.673 36.2312C89.7724 36.0765 89.8938 35.8655 89.9426 35.7623C90.1436 35.3381 90.5288 34.8524 90.934 34.5121C91.1706 34.3134 91.5578 33.9612 91.7944 33.7294C92.0311 33.4977 92.3561 33.2316 92.5166 33.1382C93.1341 32.7789 93.3581 32.7924 86.8314 32.7951C81.592 32.7972 80.8276 32.8094 80.6391 32.8936ZM63.9214 37.333C63.7017 37.3833 63.3337 37.4625 63.1037 37.5089C62.8737 37.5554 62.6386 37.6355 62.5813 37.6869C62.5239 37.7383 62.3906 37.799 62.2849 37.8218C62.1792 37.8446 62.001 37.9321 61.8888 38.0163C61.7766 38.1005 61.6557 38.1698 61.62 38.1705C61.5214 38.1722 61.0973 38.4788 60.6666 38.8595C60.0895 39.3698 59.1274 40.6012 59.1274 40.8295C59.1274 40.871 59.0878 40.9384 59.0394 40.9792C58.991 41.02 58.9219 41.1937 58.8857 41.3651C58.8496 41.5365 58.776 41.7633 58.7222 41.8692C58.5979 42.1137 58.4558 43.1149 58.4532 43.7639C58.4505 44.454 58.6212 45.5821 58.7644 45.8211C58.8286 45.9281 58.8811 46.0633 58.8813 46.1216C58.8815 46.2137 59.0826 46.6365 59.4478 47.3126C59.6233 47.6376 60.468 48.5286 60.9645 48.9126C61.5735 49.3835 62.7054 49.9856 62.9816 49.9856C63.0436 49.9856 63.2873 50.0429 63.5232 50.113C63.7622 50.1839 64.2379 50.2567 64.5975 50.2772C65.2444 50.3142 65.2776 50.31 66.5372 50.0272C67.0322 49.916 68.0216 49.4165 68.5925 48.9895C69.135 48.5837 69.7357 47.9928 69.9633 47.6411C70.0524 47.5036 70.2224 47.2504 70.3413 47.0784C70.4602 46.9065 70.5578 46.7366 70.5584 46.7009C70.5589 46.6652 70.6165 46.5245 70.6865 46.3883C70.7565 46.2521 70.8986 45.8452 71.0023 45.4842C71.182 44.8584 71.1906 44.7765 71.1873 43.7275C71.184 42.7222 71.1696 42.5792 71.0198 42.0707C70.9297 41.7646 70.7922 41.3735 70.7143 41.2016C70.6364 41.0296 70.5554 40.8468 70.5343 40.7952C70.5131 40.7436 70.4202 40.5856 70.3278 40.4441C70.2354 40.3025 70.0792 40.0634 69.9806 39.9127C69.6297 39.3758 68.3825 38.2673 67.9869 38.1406C67.9074 38.1151 67.7445 38.0268 67.6249 37.9443C67.5054 37.8617 67.369 37.7942 67.3218 37.7942C67.2746 37.7942 67.1673 37.7484 67.0833 37.6924C66.8103 37.5105 65.3521 37.2293 64.7204 37.2367C64.5007 37.2394 64.1411 37.2827 63.9214 37.333ZM101.434 45.0622C100.83 46.7163 100.739 47.0212 100.365 48.6414C100.067 49.9295 99.7376 52.5484 99.5658 54.9872C99.3235 58.4277 99.2378 59.5 99.1357 60.3639C98.6821 64.2039 98.1514 66.2481 97.0083 68.5579C96.5668 69.4501 96.4887 69.6794 96.6263 69.6794C96.6641 69.6794 97.0443 69.4161 97.4714 69.0943C98.5403 68.2891 99.9627 67.3146 102.458 65.6779C105.268 63.8354 106.033 63.2724 107.439 62.0132C109.945 59.7684 112.051 56.8587 113.181 54.0807C113.585 53.0875 113.568 53.1374 114.01 51.6424C114.104 51.3249 114.308 50.2411 114.416 49.489C114.499 48.908 114.513 48.432 114.491 46.9569C114.464 45.189 114.414 44.7299 114.259 44.8277C114.225 44.8489 114.197 44.9755 114.197 45.1089C114.197 45.4746 114.025 46.2282 113.734 47.141C113.197 48.8179 112.138 50.5798 110.482 52.5489C110.178 52.91 109.082 54.0776 108.044 55.1435C105.669 57.5845 105.189 58.188 102.674 61.8957C101.624 63.4434 101.047 64.2402 100.976 64.2402C100.892 64.2402 100.901 64.2214 101.222 63.6942C102.191 62.1064 102.913 60.0813 103.204 58.1445C103.315 57.3992 103.316 55.0275 103.204 54.237C103.097 53.4756 102.912 52.3357 102.798 51.7362C102.663 51.019 102.383 49.5012 102.245 48.7352C102.014 47.4484 101.872 45.3958 101.956 44.5464C102.006 44.0302 101.996 43.8587 101.913 43.8587C101.891 43.8587 101.675 44.4003 101.434 45.0622ZM12.93 44.9371C13.029 45.8329 13.0387 46.3522 12.9722 47.1774C12.8754 48.3784 12.758 49.0737 12.1923 51.7987C11.6812 54.2602 11.5238 56.1003 11.6684 57.9257C11.8367 60.051 12.5119 62.2086 13.5361 63.8941C14.2106 65.0039 14.0478 64.9642 13.1614 63.8025C12.9646 63.5446 12.3874 62.6957 11.8786 61.9159C10.3258 59.5362 9.90116 59.0191 7.17095 56.1835C4.97559 53.9034 4.17824 53.0292 3.45661 52.1113C1.89142 50.1204 0.965803 48.1272 0.737102 46.2553C0.700225 45.9535 0.660029 45.6963 0.647737 45.6837C0.635445 45.6712 0.592974 45.7227 0.553331 45.798C0.500412 45.8986 0.488919 46.5513 0.510123 48.2573C0.534831 50.2506 0.556773 50.677 0.665131 51.2673C0.841957 52.2311 0.922349 52.6182 0.983258 52.799C1.01221 52.885 1.08363 53.1241 1.14208 53.3304C1.33384 54.008 1.88995 55.3995 2.3085 56.2494C3.68925 59.0526 6.04736 61.6683 9.57781 64.3128C10.722 65.1698 13.0614 66.7602 15.1268 68.0852C15.8772 68.5666 16.9218 69.2488 17.4482 69.6013C17.9746 69.9538 18.4267 70.2421 18.4531 70.2421C18.5608 70.2421 18.5411 70.1929 17.8661 68.7808C17.0764 67.1287 16.7779 66.3696 16.5724 65.4906C16.3051 64.347 15.9019 61.587 15.7322 59.7387C15.6631 58.9862 15.522 57.3657 15.4303 56.2689C15.1785 53.2607 14.8282 50.72 14.4044 48.829C14.0277 47.148 13.1604 44.6089 12.963 44.6089C12.9158 44.6089 12.9052 44.7134 12.93 44.9371ZM97.6899 56.1499C97.2166 56.7332 96.509 57.714 95.6871 58.926C95.4655 59.2526 95.1157 59.7591 94.9096 60.0513C94.1721 61.0972 93.452 62.4431 92.8837 63.8376C92.3857 65.0596 92.1756 65.6521 91.3332 68.2102C90.5897 70.468 90.1458 71.749 89.9468 72.2115C89.9024 72.3146 89.7925 72.5819 89.7026 72.8054C89.5239 73.2494 88.839 74.6612 88.582 75.1152C87.9407 76.2479 87.0986 77.3593 86.1495 78.3254C85.7829 78.6986 85.4988 79.02 85.5181 79.0396C85.5499 79.072 86.0221 78.9479 86.4165 78.8036C86.9638 78.6035 89.0864 78.1224 91.0876 77.7449C93.1197 77.3616 93.7705 77.2268 95.0519 76.9236C95.8503 76.7348 96.6708 76.489 97.0187 76.3346C97.1201 76.2896 97.4244 76.1619 97.6948 76.0507C97.9652 75.9396 98.5322 75.6685 98.9548 75.4484C101.261 74.2467 103.313 72.7325 105.161 70.8673C108.079 67.9224 109.97 64.6175 110.635 61.3017C110.782 60.5688 110.787 60.4179 110.663 60.4663C110.613 60.4862 110.571 60.5486 110.57 60.6051C110.569 60.7499 110.084 61.652 109.627 62.3598C108.739 63.7347 107.197 65.3322 105.777 66.3477C104.389 67.3405 103.276 67.9802 100.061 69.6331C97.3353 71.0345 96.9542 71.2401 95.9431 71.8547C94.3798 72.8051 93.1466 73.729 91.9378 74.8554C91.4637 75.2972 90.8939 75.7167 90.5806 75.8544C90.4876 75.8953 90.4115 75.9195 90.4115 75.9083C90.4115 75.897 90.7326 75.567 91.125 75.175C91.5174 74.783 92.1241 74.1158 92.4731 73.6923C94.5331 71.1936 95.5074 69.0555 96.0969 65.7407C96.1488 65.4484 96.2178 65.0686 96.2502 64.8966C96.2825 64.7247 96.3373 64.359 96.372 64.0839C96.4067 63.8088 96.4774 63.2883 96.529 62.9273C96.5807 62.5662 96.649 62.0739 96.6807 61.8332C96.7474 61.3271 96.8289 60.8355 96.9915 59.9576C97.3022 58.2801 97.5725 57.3139 98.0406 56.2064C98.4089 55.335 98.3579 55.3268 97.6899 56.1499ZM16.6424 56.2109C16.6195 56.2341 16.6543 56.3597 16.7196 56.4899C17.2317 57.511 17.8057 59.5956 18.1306 61.6143C18.3072 62.7114 18.3945 63.2728 18.4709 63.8025C18.9064 66.8203 19.3143 68.5496 19.9741 70.1754C20.378 71.1706 21.2295 72.5705 22.0668 73.616C22.5183 74.1796 23.7313 75.4291 24.454 76.0748C24.6352 76.2366 24.7584 76.369 24.728 76.369C24.6409 76.369 23.6158 75.7594 23.1413 75.4253C22.9047 75.2588 22.476 74.925 22.1887 74.6838C20.195 73.0095 18.969 72.243 15.6122 70.5719C13.3008 69.4212 11.6898 68.6009 11.3104 68.3812C7.79571 66.347 5.8454 64.454 4.56213 61.8317C4.11063 60.909 4.06251 61.0597 4.39029 62.3694C5.54688 66.9906 8.9102 71.443 13.6779 74.6643C14.9778 75.5425 15.5719 75.8953 16.3415 76.2458C17.3584 76.7088 19.0348 77.2488 20.2526 77.5055C20.9546 77.6536 21.4496 77.7498 21.9428 77.8343C25.9948 78.5279 26.4547 78.6119 27.4744 78.8444C28.1621 79.0013 28.4091 79.0667 29.0321 79.2568C29.3649 79.3584 29.6543 79.4241 29.6752 79.4029C29.6961 79.3816 29.5344 79.206 29.316 79.0125C27.0548 77.01 25.5535 74.3828 24.0004 69.7107C22.9748 66.6251 22.9081 66.4313 22.4829 65.303C21.6932 63.2072 20.0297 60.4527 17.8733 57.6701C16.8543 56.3554 16.6909 56.1616 16.6424 56.2109ZM89.5503 68.3742C87.3437 70.0275 85.959 71.2902 82.0268 75.2351C80.6772 76.589 79.365 77.8772 79.1108 78.0979C77.3406 79.6343 74.9743 80.7429 71.85 81.4994C70.9443 81.7188 70.855 81.75 70.819 81.8596C70.8039 81.906 70.8681 81.9333 70.9927 81.9333C71.1015 81.9333 71.3734 81.9632 71.5971 81.9997C72.6116 82.1651 73.1283 82.2556 73.3558 82.3078C73.491 82.3388 73.8229 82.4097 74.0934 82.4652C74.5518 82.5595 75.302 82.7301 75.8758 82.8706C77.0616 83.161 78.244 83.4475 78.703 83.5557C79.0073 83.6275 79.3115 83.7006 79.3791 83.7181C80.5179 84.014 82.6162 84.3966 84.2346 84.6034C85.2377 84.7316 87.8069 84.7494 88.5677 84.6334C89.7791 84.4486 90.3736 84.3222 91.3642 84.0386C93.2633 83.4948 95.95 82.038 97.7941 80.552C99.053 79.5376 100.525 77.927 101.345 76.6671C101.737 76.0652 102.3 74.9996 102.252 74.9511C102.233 74.9312 101.946 75.1939 101.615 75.535C100.873 76.3003 100.507 76.6139 99.7355 77.1446C97.9998 78.3387 95.6259 79.1681 92.7471 79.586C91.9166 79.7066 90.6391 79.853 90.012 79.8994C89.7416 79.9195 89.2299 79.9628 88.875 79.9955C88.5201 80.0283 87.6765 80.1005 87.0004 80.1559C84.8496 80.332 82.6812 80.6259 81.2537 80.9348C79.8793 81.2323 78.365 81.4492 78.365 81.3486C78.365 81.3293 78.7315 81.1967 79.1794 81.054C81.0212 80.4669 81.3767 80.3241 82.2986 79.8009C84.7586 78.4046 86.043 76.7108 87.9828 72.3053C88.6896 70.7002 89.611 68.9744 90.1747 68.2002C90.2788 68.0571 90.3536 67.9084 90.3409 67.8696C90.3282 67.8309 89.9725 68.058 89.5503 68.3742ZM24.7086 68.4314C24.7086 68.4671 24.8747 68.7476 25.0777 69.0546C25.5744 69.8061 26.1526 70.8787 27.1502 72.8992C28.083 74.7884 28.4347 75.4502 28.9505 76.2862C29.95 77.9062 31.1326 79.1482 32.4427 79.9539C33.2122 80.427 34.4948 80.9578 35.4156 81.1842C36.2377 81.3862 36.9396 81.6098 36.9396 81.6698C36.9396 81.7209 35.6996 81.6339 35.4952 81.5683C35.2347 81.4849 33.7993 81.1938 32.8523 81.0323C31.4641 80.7957 30.7192 80.7217 27.4437 80.4949C23.5137 80.2227 22.1586 80.0744 20.5292 79.7381C17.5424 79.1216 15.2671 77.979 13.4842 76.2004C13.1597 75.8767 12.8773 75.6291 12.8567 75.6501C12.7643 75.744 13.8305 77.4285 14.5384 78.3072C17.1655 81.5677 21.1622 84.0055 25.1388 84.7728C26.6124 85.0572 28.9744 85.1552 30.4553 84.9934C31.9344 84.8318 32.9579 84.6707 34.266 84.3935C35.6612 84.0978 36.0049 84.012 39.8283 83.0052C40.3522 82.8673 41.0437 82.6854 41.3648 82.601C41.686 82.5168 42.3498 82.4015 42.8399 82.3449C43.9281 82.2193 44.315 82.1355 44.315 82.0253C44.315 81.9743 44.1786 81.9139 43.9616 81.8691C43.7672 81.8289 43.138 81.6739 42.5633 81.5248C40.0444 80.8709 38.0371 79.9441 36.3137 78.6395C35.7042 78.1781 35.3119 77.8189 33.8972 76.4271C30.4222 73.0083 28.757 71.4658 27.0749 70.1072C26.3349 69.5096 24.8025 68.3665 24.7413 68.3665C24.7233 68.3665 24.7086 68.3957 24.7086 68.4314ZM62.5692 81.8117C61.562 81.8619 60.5636 81.9922 59.6498 82.1927C59.3455 82.2595 59.0137 82.3308 58.9122 82.3511C58.8108 82.3715 58.6864 82.423 58.6357 82.4658C58.2059 82.8279 57.5844 82.8452 56.6631 82.521C56.0236 82.2958 55.7921 82.2459 54.1797 81.9853C53.0083 81.7959 50.6159 81.7813 49.3242 81.9557C47.7707 82.1653 46.1684 82.5536 44.4302 83.1417C43.4842 83.4616 42.2236 83.9257 41.9487 84.0551C41.8811 84.087 41.3938 84.2965 40.8657 84.5208C40.0073 84.8854 39.6141 85.0581 38.995 85.3425C38.8917 85.39 38.5752 85.5299 38.2917 85.6533C38.0082 85.7767 37.6917 85.9165 37.5884 85.964C36.2104 86.5971 35.5353 86.855 34.6347 87.0925C32.0447 87.7756 29.0676 87.8193 26.5832 87.2106C25.1955 86.8706 23.6189 86.2196 22.732 85.6203C22.5298 85.4837 22.3524 85.3719 22.3379 85.3719C22.0789 85.3719 23.7355 87.1025 24.6803 87.8187C25.4959 88.437 26.2905 88.9328 27.2285 89.4087C29.2304 90.4241 30.6938 90.9273 32.4221 91.1945C33.2397 91.3209 35.7964 91.3049 36.6322 91.1681C40.1536 90.5918 42.6067 89.436 46.8019 86.3766C48.5296 85.1168 49.2157 84.6665 50.0725 84.2298C51.5576 83.4731 52.9313 83.2253 54.3333 83.4614C55.2791 83.6207 55.2817 83.6024 54.2388 84.1345C50.7318 85.924 47.4912 88.1798 44.5624 90.8701C43.7697 91.5982 42.4711 92.8817 42.4711 92.937C42.4711 92.9937 44.8451 95 44.9122 95C44.9393 95 45.1135 94.7964 45.299 94.5474C46.6745 92.7026 49.0855 90.2646 51.2909 88.4886C53.5737 86.6503 55.8697 85.1496 57.0991 84.6923C57.7665 84.444 57.8321 84.4489 58.5005 84.7968C59.5652 85.3509 61.0544 86.3009 62.2312 87.1768C64.2445 88.675 66.1661 90.4097 68.6336 92.9561L70.4878 94.8697L70.6619 94.7337C71.0834 94.4044 72.0396 93.537 72.4339 93.1262L72.8641 92.6779L72.5166 92.3542C72.3254 92.176 71.7999 91.6926 71.3488 91.2798C68.2776 88.4694 64.8723 86.0922 61.2962 84.2623C60.7143 83.9645 60.2505 83.7085 60.2654 83.6933C60.3635 83.5935 61.3458 83.5025 62.3541 83.4998C63.4055 83.497 63.5779 83.5119 64.0843 83.6499C65.1991 83.9537 65.7496 84.2819 68.6241 86.3564C70.7248 87.8725 72.1424 88.7122 73.8475 89.4504C75.4814 90.1578 76.8912 90.57 78.6416 90.852C79.5894 91.0047 82.0107 91.004 82.8824 90.8507C86.0317 90.2971 88.8371 88.9408 91.2462 86.8074C91.9254 86.206 93.0114 85.0152 92.9591 84.9292C92.94 84.8978 92.7631 84.9834 92.5659 85.1197C92.0612 85.4683 90.9775 86.0141 90.2013 86.3107C86.9906 87.5375 83.0811 87.6168 79.7841 86.5222C79.0361 86.2738 74.5649 84.4402 74.0012 84.1506C71.9773 83.111 69.3287 82.3005 66.8716 81.969C65.6013 81.7975 64.0168 81.7396 62.5692 81.8117Z" fill="#189BA5"/>
</svg>
