<svg width="101" height="95" viewBox="0 0 101 95" fill="none" xmlns="http://www.w3.org/2000/svg">
<g opacity="0.75">
<path d="M47.2449 79.5993L42.5671 78.7341L38.2011 77.523L33.991 75.4465L30.2489 73.0237L26.1946 69.39L22.7642 65.4099L19.8016 60.9106L17.4625 56.0658L15.9034 51.0474L14.812 45.8561L14.5 40.319L14.812 34.7815L15.7473 29.0711L17.3069 24.053L19.6456 19.2078L22.6084 14.7086L26.0389 10.5556L29.9367 7.09472L34.1471 4.32605L39.2928 2.07668L44.7501 0.519126L50.3637 0L55.3532 0.34591L60.3431 1.55755L65.0209 3.46102L69.3869 6.05682L73.4409 9.34444L77.0274 13.3242L80.146 17.6503L82.6408 22.6687L84.5118 27.6867L85.7591 33.3971L86.227 39.1075L85.9152 44.9911L84.9796 50.5283L83.2644 55.7195L80.7695 60.9106L77.651 65.756L73.9087 69.9093L69.6988 73.543L65.1767 76.1383L60.9666 77.8691L56.6006 79.0802L51.9228 79.5993H47.2449ZM51.455 74.7542L51.2992 77.6959L51.6109 77.523L56.6006 77.0039L61.4344 75.6197L65.8004 73.543L70.1666 70.6012L74.0648 67.1403L70.3222 63.1605L70.1666 62.6414L69.5427 63.5066L66.7361 66.1024L65.6445 66.7942L64.7088 67.4866L64.0852 68.6977L63.7735 69.0438L63.4615 69.5629L62.8379 70.2552L62.37 70.6012L62.2141 70.9472L61.9022 71.2935L60.9666 71.8128L60.6548 72.1587L59.7192 72.6778L58.9396 72.5046L58.3159 71.9855L57.5362 71.2935L56.7566 70.9472L54.1058 71.4664L52.7023 71.6396H51.2992L51.455 74.7542ZM49.4279 77.6959L49.2719 77.35V71.8128L49.4279 71.6396L48.8044 71.8128L44.7501 71.2935L40.8519 70.082L37.2655 68.3518L33.8351 65.9292L30.5606 62.9873V63.3334L26.8185 67.3134L31.1845 70.9472L35.8623 73.889L40.696 75.9656L45.9975 77.35L49.4279 77.6959V77.6959ZM49.4279 69.9093L49.2719 69.2168V64.0257L48.8044 64.1989L45.6858 63.6796L42.7232 62.8141L39.9163 61.2571L37.2655 59.3536L37.7333 60.392V60.7379L37.4215 61.0838L37.1098 61.2571H36.3301L35.3945 61.4299L34.6149 61.7762L33.6793 62.1223H33.0555L32.4319 61.7762L32.2758 61.4299L31.9641 61.2571H31.652L35.5503 64.5449L39.6045 66.9674L44.1262 68.6977L48.9602 69.5629L49.4279 69.9093V69.9093ZM51.2992 64.8908V69.7361L52.7023 69.39L55.5091 69.0438H55.1974L54.7297 68.5245L54.2619 68.3518L53.95 68.1786L53.638 67.6594L53.4822 67.3134L53.3261 66.7942V66.1024L53.638 65.4099L53.4822 65.064H53.1702L52.8584 64.8908H52.5467L52.2348 65.064H51.9228L51.6109 64.8908L51.455 64.7176L51.1432 64.5449L50.9871 64.3716L51.2992 64.8908V64.8908ZM17.1508 47.2405L18.5541 53.1241L20.7373 58.4886L22.9203 62.2955L25.5711 65.9292L29.0015 61.7762L29.4693 61.6031L28.8454 61.0838L27.9098 59.6997L27.2863 59.3536L26.8185 59.0072L26.3507 58.4886V58.3153L26.1946 58.1421V57.623L25.8829 57.9693L25.5711 58.1421L25.415 57.9693H25.2591L25.1033 57.623L24.7911 57.4501L24.4794 57.1037L24.1677 56.4119V56.2387L24.0116 56.0658H23.3881L23.232 55.7195V55.5467L23.0759 55.3735H22.7642L22.4525 55.2002L22.1406 54.8543L21.9846 54.5084L21.8286 54.3352V54.5084H21.6729V54.6816L21.5168 54.8543H21.2051L21.049 54.6816L20.7373 54.5084L20.5812 54.1623L20.1134 53.6432H19.9576V53.8161H19.8016L19.4899 53.47L19.1777 52.9509L19.0221 52.605V52.0858L18.7102 51.2206V50.1824L18.866 49.3172V49.1439L19.1777 48.798V48.6248L19.4899 48.2789H19.8016L20.1134 48.1057L20.2693 48.2789L20.4254 48.6248H20.5812L20.7373 48.4521H21.049V47.9328L21.6729 47.5866H22.1406L22.4525 47.9328L22.6084 48.4521L22.9203 48.798L22.7642 48.2789L22.1406 45.337L21.8286 42.2224V41.011L21.3607 41.1842H16.3711L17.1508 47.2405ZM79.0543 41.1842L78.5865 46.0294L77.4952 50.5283L75.78 54.8543L73.4409 58.8345L72.0374 60.9106L71.414 61.4299L73.4409 63.5066L75.3122 65.756L75.4678 65.4099L78.4308 61.0838L80.9256 56.4119L82.6408 51.7397L83.8883 46.5487L84.356 41.1842L84.5118 40.8383H84.356L79.2104 41.011L78.8982 40.6651L79.0543 41.1842ZM65.0209 57.623L64.3971 58.3153V59.1804L64.5531 59.3536L65.0209 59.5265L65.9565 60.2188L66.2684 60.5647L66.4243 61.0838L66.2684 61.4299L65.6445 62.1223L65.3326 62.6414L65.1767 62.9873V63.3334L65.4887 63.6796L65.6445 64.0257L65.1767 64.5449V64.7176L65.4887 64.3716L67.0478 62.9873L68.607 61.4299H67.9836L67.6717 61.2571L67.5156 60.9106V60.2188L65.3326 57.623L65.1767 57.2769L65.0209 57.623ZM47.401 61.6031L46.4653 61.2571L45.8414 60.392L45.218 59.3536L44.9062 58.3153L45.218 58.1421L45.5297 57.4501V57.1037L45.6858 56.7578L46.6214 56.0658L47.5566 55.5467L46.3094 55.8928L45.0619 55.5467L43.9706 54.8543L42.7232 54.1623L41.3197 53.1241L40.8519 52.605L40.5402 52.0858L38.825 54.1623L36.9537 56.2387L37.5775 56.5851L37.8892 56.931L38.2011 57.1037L40.3841 58.8345L42.5671 60.0456L45.0619 60.9106L47.401 61.6031V61.6031ZM68.4513 56.5851H68.763L69.0749 56.7578L69.3869 57.4501L69.5427 57.623L69.6988 57.9693V58.4886L70.0105 59.5265V60.0456L72.5053 56.7578L74.3765 53.1241L75.78 49.3172L76.7155 45.337L77.183 41.1842L77.4952 40.8383H75.0003L72.5053 41.011L72.0374 40.8383V42.5685L71.8818 44.2988L72.5053 45.1638V45.8561L72.3496 46.0294L71.8818 46.2022L71.414 46.0294L70.6343 48.6248L69.6988 51.0474L68.2953 53.47L67.9836 53.9893L67.6717 54.6816L67.3597 55.2002L66.4243 55.8928L67.9836 57.4501H68.1395V56.5851L68.2953 56.4119L68.4513 56.5851V56.5851ZM36.642 58.4886V58.3153H36.4859L36.642 58.4886ZM32.1199 42.7417V43.4336L32.2758 43.7796V44.6452L32.7436 45.1638L33.2116 45.8561L33.6793 46.8946V48.1057L33.8351 48.6248L34.1471 48.9707V50.0092L34.3029 51.2206L34.4588 52.0858L34.9268 52.9509L35.0824 54.3352V54.6816L34.9268 54.8543L34.6149 55.0275L34.3029 55.3735V55.5467H34.4588L34.6149 55.7195V55.8928L36.7976 53.2969L39.2928 50.7015L38.5128 50.0092L36.9537 46.5487L35.8623 43.0876L35.2385 42.9144V43.2603L35.0824 43.7796V44.6452L34.9268 44.8179H34.6149L34.4588 44.6452L34.1471 44.472L33.8351 44.1259V43.7796L33.991 43.6068H34.3029L34.4588 43.4336V43.2603L34.6149 43.0876V42.5685L34.4588 42.2224V41.5301H34.7707L34.9268 41.7033L35.0824 42.0492L35.2385 42.2224L36.174 41.8762V41.7033L36.3301 41.3569V41.011L36.174 40.8383V39.1075L36.0181 38.5884L35.8623 38.2425L35.7062 38.0692H34.7707L34.1471 38.4155V38.9348L34.3029 39.6266L34.6149 40.1458V40.8383L34.4588 41.011H33.5233L33.3672 42.0492L33.0555 42.3953H32.7436L32.5877 42.5685H32.2758L32.1199 42.7417ZM57.6923 53.8161L58.1601 53.9893L58.7836 54.1623L59.2514 54.3352L59.8753 54.5084L60.4988 54.8543L60.6548 55.0275L61.2783 55.3735H61.5905L61.9022 55.2002H63.3057L63.4615 55.0275L63.7735 54.8543V54.3352L64.0852 53.6432L64.3971 53.2969L64.5531 52.9509L64.7088 52.7782L65.0209 53.1241L65.1767 53.47V53.9893L65.3326 54.3352L65.8004 53.6432L66.1123 53.1241L66.5801 52.4317L68.1395 49.49L69.2308 46.3754H68.4513L67.8275 46.5487H67.5156L67.2039 46.7214H66.5801L66.2684 46.5487H65.9565V46.7214L65.8004 46.8946L65.6445 47.2405H65.1767L64.8648 46.8946V46.7214L64.7088 46.5487V47.0673L64.3971 47.4137L63.9293 48.4521L63.3057 48.798H62.8379L62.5261 49.1439V49.49L62.37 49.6631L62.0583 49.8363H61.9022L61.5905 50.0092H61.2783L60.9666 50.1824L61.2783 50.5283H61.5905L61.9022 50.1824H62.2141L62.6818 49.6631V49.3172L62.9935 48.9707H63.3057L63.4615 48.798H64.0852L64.3971 49.8363V50.8742L64.2413 51.2206L64.0852 51.7397V52.2589L63.9293 52.605V52.9509L63.4615 53.9893V54.3352L62.9935 54.5084H62.37L60.187 53.8161L58.004 53.47L57.6923 53.8161V53.8161ZM52.5467 54.3352L52.7023 54.5084V55.0275L52.8584 55.2002H53.4822L53.7939 55.3735H54.4175L54.7297 55.2002V54.8543L55.1974 54.3352H55.5091L55.821 54.1623H56.1327L57.0684 53.47L57.5362 52.9509L57.6923 52.4317L57.8479 51.7397L57.6923 51.5665H57.3804L57.0684 51.9126L56.7566 52.0858L56.4449 52.4317H55.9771L55.6652 52.0858H55.3532L55.5091 52.2589V52.7782L55.1974 52.9509H54.8854L54.5736 52.7782L54.4175 52.605H53.95V53.1241H53.7939L53.3261 52.605L52.8584 52.4317L52.7023 52.2589L52.3906 52.0858H51.9228L51.6109 52.4317H51.1432V52.7782L50.8315 52.9509L50.6754 53.2969L50.5196 53.47L50.3637 53.8161H50.0518L49.7398 53.9893L49.4279 54.3352H49.1162V54.6816H49.2719L49.7398 54.8543H50.2076L50.5196 54.5084L50.8315 54.3352H52.5467V54.3352ZM43.8145 48.6248L41.9432 50.5283L43.9706 52.0858L46.1536 53.1241L48.4924 53.8161V52.4317L48.6485 52.0858L48.8044 51.9126L49.1162 51.7397H49.2719L49.584 51.9126L49.8957 51.5665V51.3935L49.584 51.2206V51.0474L49.4279 50.8742V50.0092H49.584V49.8363L49.4279 49.49L49.584 49.3172V48.798L49.8957 48.4521L48.8044 48.6248L47.7127 48.2789L46.6214 47.7596L45.6858 47.2405L45.374 46.5487L43.8145 48.6248ZM55.9771 49.8363L55.6652 50.0092V50.5283L56.2888 50.1824H56.6006L56.7566 50.0092L57.0684 49.8363V49.49H56.2888L55.9771 49.8363ZM39.2928 46.5487L39.9163 47.9328L40.3841 48.4521L40.696 49.1439L41.6315 47.7596L42.0993 47.2405V46.5487L41.9432 46.3754V46.0294L41.7876 45.6831V45.337L41.6315 44.9911L41.4758 45.1638V45.5102L41.6315 45.6831V46.0294H41.1637V45.8561L40.696 45.5102L40.3841 44.9911L40.5402 44.8179V44.6452H40.3841L40.228 44.472V44.2988H39.9163L39.7605 44.472H39.6045V44.1259L39.4485 43.9527L39.1367 43.7796L38.9807 43.6068H38.2011L38.0453 43.4336L39.2928 46.5487V46.5487ZM23.6998 41.3569L24.0116 44.9911L24.4794 47.0673L24.7911 49.1439V48.9707L24.9472 48.6248V48.4521L25.2591 48.1057V47.7596L25.415 47.4137L25.5711 47.2405L25.415 47.0673L25.5711 46.0294L25.7268 45.1638L26.3507 44.2988H26.6624L26.9743 44.1259L27.1302 43.7796L27.442 43.6068L27.5981 43.2603L28.2215 42.9144L28.8454 43.2603L29.0015 43.6068L29.1573 43.7796L28.8454 42.9144L28.6895 41.8762L28.8454 41.011L28.3776 41.1842H25.8829L23.5438 41.011L23.6998 41.3569ZM57.6923 46.5487V46.8946L58.004 47.5866H58.1601L58.4718 47.9328V48.1057L58.7836 48.4521H59.0957L59.2514 48.2789V48.1057L59.0957 47.7596V47.4137L58.7836 47.2405L58.6279 47.0673L58.3159 46.8946L58.1601 46.7214V46.3754H57.8479L57.6923 46.5487ZM46.9332 45.337L48.8044 46.2022L50.8315 46.5487H51.1432L51.2992 46.3754L51.455 46.0294V45.5102L51.6109 45.1638L51.767 44.9911L52.0787 44.2988L52.2348 44.1259H53.7939L54.1058 43.6068L54.4175 42.2224L54.1058 42.0492L53.95 41.7033V40.8383L53.7939 40.4918L53.638 40.319V39.9727L53.4822 39.6266L53.3261 39.4534H53.0144V38.7616L53.1702 38.4155L53.4822 38.2425V38.0692L53.1702 37.3773V37.0313L53.3261 36.6849H53.0144L52.7023 36.512L52.3906 36.1658L52.2348 35.8197L51.9228 35.6465L51.6109 35.3006L51.2992 35.1279H50.5196L50.2076 34.9547L50.0518 34.7815L49.8957 34.4355L49.7398 34.2623L49.4279 34.0895L49.2719 33.9162V33.5703L49.4279 33.3971L49.7398 33.2244H49.8957L50.2076 33.3971H50.5196L49.8957 33.0512H49.2719L48.9602 33.2244L49.1162 33.5703V33.9162L49.2719 34.4355L49.4279 34.7815L48.6485 35.6465L48.1805 35.9929L47.5566 36.1658L47.0892 36.339L46.9332 36.512V36.6849L46.7772 37.0313L46.6214 37.204H46.4653L45.8414 37.8964L45.6858 38.2425L45.8414 38.5884L45.6858 38.9348V39.9727L45.5297 40.319V40.4918L45.8414 40.1458H46.3094V40.319L46.4653 40.4918V40.6651L46.7772 41.011L46.6214 41.1842L46.4653 41.5301L45.9975 42.0492V42.3953L45.8414 42.5685V43.0876L45.6858 43.2603H45.218V43.4336L45.5297 43.6068L45.6858 43.7796L45.8414 43.4336L46.1536 43.0876L46.3094 42.7417L46.4653 42.5685L46.7772 42.3953L46.9332 42.2224V41.5301L47.0892 41.1842L47.2449 41.011L48.1805 40.8383H49.1162L49.8957 41.3569V42.0492L50.0518 42.2224L49.584 43.2603L49.2719 43.6068L49.4279 43.7796V43.9527L49.1162 44.2988L48.8044 44.9911H48.4924L48.1805 45.1638H47.2449L46.9332 45.337V45.337ZM43.5028 45.5102L42.879 46.2022L43.191 46.0294L43.6587 45.5102L43.9706 45.337H44.2823L43.6587 44.9911L43.5028 45.5102ZM30.7167 41.3569L31.0284 45.1638L31.1845 44.8179V44.6452L31.3403 44.2988L31.652 44.1259V43.9527L31.4963 43.6068L31.3403 43.4336V43.2603L31.4963 42.9144V42.2224L31.652 41.8762V41.5301L31.808 41.1842L32.1199 41.011L31.652 41.1842H30.8725L30.4047 40.8383L30.7167 41.3569V41.3569ZM67.5156 41.3569L67.8275 41.5301V41.8762L67.9836 42.0492V42.3953L68.1395 42.7417L68.2953 42.9144L68.763 43.2603L68.9191 43.6068L69.2308 44.1259L69.3869 44.472L69.5427 44.9911L69.6988 44.6452V44.2988L70.0105 42.5685L70.3222 41.011H68.1395L67.0478 40.6651L67.5156 41.3569ZM41.9432 41.7033L42.5671 41.5301H43.191L43.6587 41.3569H44.2823L44.5942 41.1842H44.9062L45.218 41.5301L45.5297 41.3569V40.8383L45.218 41.011H45.0619L44.7501 40.8383V40.6651L44.5942 40.319V40.1458L44.4384 39.7998V39.6266L44.2823 39.4534L44.1262 39.7998H43.8145L43.191 39.4534L43.0349 39.6266L42.879 39.9727L42.5671 40.319V41.011L42.4112 41.1842H42.2554L42.0993 41.3569H41.9432V41.7033V41.7033ZM73.1292 15.7468L71.2579 17.8235L70.6343 17.9962H70.946L71.1021 18.3426L71.2579 18.5155L71.414 18.8618L72.5053 19.727L73.2851 20.9381L74.2205 21.9763L75.4678 24.053L76.0917 25.2641L76.4035 26.3024L77.8069 30.2825L78.7426 34.2623L79.0543 38.5884L78.8982 38.9348L79.0543 38.7616H79.3662L84.5118 38.5884L84.356 38.0692V37.5499L84.1999 37.0313V36.512L83.4203 31.4937L82.173 26.6485L80.3017 21.9763L77.8069 17.6503L74.8443 13.4975L73.1292 15.7468ZM32.7436 38.9348L32.5877 38.5884V38.0692L32.4319 37.7232V36.6849L32.7436 36.339L32.8997 35.8197L33.6793 34.0895L33.991 33.9162H34.7707L35.0824 33.743V33.0512L35.3945 32.7051L35.7062 32.5321L36.174 32.3589L36.4859 32.186L37.1098 31.1477L37.5775 30.8017H38.0453L38.3572 30.4554L38.5128 30.1093L38.825 29.9361L38.9807 29.5902L39.2928 29.2443H39.7605L35.7062 25.0914L33.5233 28.5519L31.9641 32.186L31.0284 35.9929L30.7167 37.5499L30.5606 38.9348L31.0284 38.7616H32.2758L32.7436 38.9348V38.9348ZM28.8454 38.9348V38.7616L28.6895 38.5884V38.4155L29.3132 34.2623L30.4047 30.4554L32.1199 26.8217L34.4588 23.5339L32.4319 21.6304L30.7167 19.3811L30.5606 19.727L28.6895 22.4955L26.6624 26.3024L25.1033 30.2825L24.1677 34.4355L23.5438 38.9348L28.5337 38.7616L28.8454 38.9348V38.9348ZM21.8286 38.9348V38.2425L22.2964 33.5703L23.3881 29.2443L24.9472 25.0914L27.1302 21.2845L27.9098 20.2461L28.6895 19.0346L29.4693 18.1694L25.8829 14.1893L25.7268 13.6707L22.2964 18.6885L19.6456 23.8798L17.7747 29.4175L16.683 35.3006L16.5272 37.0313L16.3711 38.9348L19.0221 38.7616L21.8286 38.9348ZM71.7257 33.3971L71.8818 33.5703V34.2623L71.5699 35.6465L72.0374 36.6849V37.7232L72.1935 38.7616L77.3391 38.5884L77.183 38.2425L76.7155 34.6086L75.9357 31.321L74.8443 28.0328H74.5326L74.3765 28.2059H73.597V27.8599L73.1292 27.3408L72.8173 26.8217L71.5699 25.4374H71.2579L70.6343 25.0914L70.1666 24.5721L69.2308 24.053L69.0749 23.8798V23.5339L68.9191 23.3607V23.188L68.763 23.0148H68.1395L67.8275 22.6687L67.5156 22.4955L67.2039 22.1496L67.0478 21.6304V20.592L66.7361 19.727L66.1123 18.8618H65.6445L65.3326 19.0346L65.1767 19.2078H65.0209L64.8648 19.3811H64.5531L64.2413 19.0346V18.3426L64.0852 18.1694L63.9293 17.8235L63.7735 17.6503V17.4776L64.0852 16.7851L63.7735 16.4392L63.6174 16.0927L63.3057 15.92L63.1496 15.7468V15.0548L62.9935 14.5357L62.8379 14.1893L61.9022 13.1514L59.0957 11.9399L56.1327 10.9016L53.1702 10.3823H52.7023L52.0787 10.2097H51.6109L51.1432 10.0364L51.2992 10.3823V13.1514L51.1432 15.92L51.767 15.7468H52.2348L52.7023 15.92H53.1702L56.6006 16.7851L59.8753 18.1694L62.8379 20.2461L62.5261 19.8997L62.37 19.5538L62.0583 19.2078V18.6885H62.2141V18.3426L61.9022 17.9962L61.5905 17.3044L61.7463 17.1312H62.0583L62.37 17.6503L63.3057 18.6885L63.6174 19.2078H64.2413L64.7088 19.727L64.8648 20.0729V20.419L65.0209 20.7652L65.1767 20.9381L65.4887 21.9763L66.1123 22.8415L66.4243 23.8798V24.053H66.8918L67.9836 25.61L67.8275 25.7833V25.9565L67.9836 26.3024L68.1395 26.4756H68.4513L68.607 26.3024H68.9191L69.0749 26.1293H69.3869L69.6988 26.4756L69.5427 26.8217L69.3869 26.9947L69.2308 27.3408V27.5135H70.1666V27.8599L70.0105 28.0328L69.8547 28.3791L69.6988 28.5519V28.7252L69.8547 28.8982H70.4783L70.6343 29.2443V29.7634L70.946 30.4554V31.321L70.7901 32.0128V32.878L70.946 33.3971L70.6343 34.4355L70.3222 34.7815V35.3006L70.0105 35.8197L69.8547 36.1658L69.5427 36.6849L69.3869 37.0313L68.4513 37.204L68.2953 37.5499V37.7232L68.4513 38.0692L68.607 38.2425V38.5884L68.4513 38.7616H70.4783L70.1666 38.5884L70.0105 37.0313L70.4783 35.6465L70.6343 35.3006L70.946 34.2623L71.1021 33.9162L71.414 33.5703H71.5699V33.3971H71.7257V33.3971ZM68.4513 34.6086V34.7815L68.2953 35.1279V35.3006L68.1395 35.6465V36.1658H68.607L68.9191 35.9929L69.0749 35.8197L69.6988 34.4355L69.2308 32.878L68.763 31.4937L68.2953 31.321L67.6717 30.6286L67.2039 30.4554L66.8918 30.2825L66.7361 30.1093V29.5902L66.8918 29.2443L67.0478 29.0711L67.2039 28.7252V28.3791L66.1123 26.6485L64.8648 24.9182L64.7088 25.0914L59.7192 30.9745L60.187 31.4937V31.1477L60.4988 30.4554V30.1093L60.8109 29.7634H61.4344L61.9022 29.9361H62.2141L64.7088 30.2825L65.1767 30.8017L65.4887 31.321L65.9565 31.8396V32.3589L65.8004 32.5321V32.878L66.1123 33.2244L66.5801 32.7051L66.8918 32.5321H67.3597L67.5156 32.7051H67.6717L67.9836 32.878L68.607 33.5703H68.763L68.9191 33.743V34.2623L68.763 34.4355H68.607L68.4513 34.6086V34.6086ZM53.7939 32.3589L54.1058 32.7051L54.4175 32.878L54.5736 33.2244H55.1974L55.5091 33.0512L55.9771 32.0128L57.5362 30.9745L58.1601 30.1093L57.8479 30.2825L57.5362 29.9361H57.3804V29.7634L58.1601 28.8982L58.4718 28.7252L55.9771 27.1676L53.3261 26.1293L52.5467 25.9565H51.9228L51.1432 25.7833L51.2992 26.9947V28.3791L51.455 29.7634L52.7023 30.2825L53.3261 29.5902L53.95 29.2443L54.4175 28.7252H54.5736L54.8854 29.0711V30.1093L54.7297 30.6286L54.4175 31.1477L54.1058 31.4937L53.638 31.6669L53.3261 32.0128L52.8584 32.3589L52.5467 32.7051H52.7023L53.0144 32.5321L53.1702 32.3589H53.7939ZM45.218 31.6669L45.5297 31.8396L45.6858 32.0128L45.8414 31.8396H46.4653L46.6214 31.6669V31.4937L46.9332 31.1477V30.8017L47.0892 30.2825L47.401 29.5902L47.7127 29.4175L47.8688 29.5902V30.1093H48.6485L48.9602 29.9361L49.1162 30.1093L49.4279 30.2825L49.1162 28.0328L49.2719 25.9565L47.0892 26.3024L45.0619 27.1676L43.191 28.2059L41.6315 29.9361H41.9432L43.191 30.6286L43.3467 30.9745V31.321H43.191V31.4937L43.3467 31.6669H43.6587V31.4937H43.8145V31.321L43.9706 31.1477H44.1262L44.2823 31.321V31.4937L44.5942 31.8396H44.7501L45.0619 31.6669H45.218V31.6669ZM54.5736 24.2259L57.2244 25.4374L59.7192 27.1676L59.8753 27.6867L61.2783 25.7833L62.8379 24.053L63.7735 23.5339L63.3057 23.3607L60.187 20.9381L56.9127 19.2078L53.95 18.3426L51.1432 17.8235L51.2992 18.3426V23.7066L51.767 23.5339L54.5736 24.2259ZM48.9602 17.9962L45.6858 18.5155L42.5671 19.727L39.7605 21.6304L37.1098 23.7066L38.9807 25.61L40.8519 27.6867L41.008 27.3408L41.1637 27.1676L42.879 25.7833L44.7501 24.745L46.6214 24.053L47.8688 23.7066H49.2719L49.1162 20.7652L49.2719 17.8235L48.9602 17.9962V17.9962ZM45.374 10.7288L41.7876 11.7672L38.3572 13.3242L35.2385 15.4009L31.9641 18.1694L33.6793 19.8997L35.5503 21.8031L35.7062 22.1496L38.0453 19.8997L40.696 18.3426L43.5028 16.9583L46.4653 16.0927L47.8688 15.92H49.2719L49.1162 12.9783V10.2097L45.374 10.7288V10.7288ZM43.8145 2.76867L38.9807 4.32605L34.3029 6.57542L29.9367 9.69053L26.8185 12.459H26.9743L29.0015 14.5357L30.8725 16.7851L31.0284 16.4392L35.0824 12.9783L39.4485 10.3823L44.1262 8.6521L49.2719 7.96028L49.1162 7.44098L48.9602 2.5958L49.1162 2.07668L43.8145 2.76867ZM65.4887 11.0749L65.9565 11.4208H66.4243L66.7361 11.594L66.8918 11.9399L67.2039 12.1131L67.3597 12.2858L67.6717 12.459L68.2953 12.9783L68.763 13.4975L69.2308 14.3625L69.5427 15.0548L69.8547 15.4009L70.0105 15.7468L70.3222 16.0927L70.946 14.8818L72.0374 13.8434L72.9731 12.6322L73.597 12.2858L69.3869 8.47889L64.7088 5.53752L59.8753 3.63406L54.5736 2.42259L52.8584 2.24937L51.1432 1.90346L51.2992 4.67196L51.1432 7.09472L51.2992 6.92186H51.6109L51.9228 7.26794V7.96028L51.767 8.13298H51.9228L52.0787 7.96028H52.3906L56.2888 8.6521L60.0311 9.86375L63.6174 11.7672V11.594L65.0209 11.0749H65.4887ZM67.5156 11.9399L67.2039 11.7672L67.0478 11.4208L66.5801 10.9016L66.2684 10.7288V10.2097L66.4243 10.0364H66.8918L67.0478 10.2097L67.2039 10.0364L67.8275 10.3823L67.9836 10.5556V11.0749L68.1395 11.4208L68.2953 11.594L68.1395 11.9399H67.5156ZM52.7023 7.44098L51.9228 6.74864V6.40273L52.0787 6.22951H52.5467L52.7023 6.40273L55.1974 5.19126H56.2888L57.2244 5.53752L58.004 6.22951V6.40273L57.5362 6.92186L56.2888 7.26794L55.6652 7.09472L54.7297 7.44098L53.7939 7.61385L52.7023 7.44098Z" fill="#189BA5"/>
<path d="M50.9911 64.3716L51.303 64.8908V69.7359L52.7063 69.3899L55.513 69.0438H55.2012L54.7334 68.5246L54.2656 68.3516L53.9538 68.1786L53.6419 67.6594L53.486 67.3134L53.3301 66.7942V66.1021L53.6419 65.4099L53.486 65.0638H53.1741L52.8623 64.8908H52.5504L52.2386 65.0638H51.9267L51.6148 64.8908L51.4589 64.7177L51.1471 64.5447L50.9911 64.3716ZM30.5645 62.9873V63.3334L26.8222 67.3134L31.1882 70.9472L35.8661 73.889L40.6999 75.9655L46.0014 77.3498L49.4318 77.6959L49.2759 77.3498V71.8124L49.4318 71.6394L48.8081 71.8124L44.754 71.2933L40.8558 70.082L37.2694 68.3516L33.839 65.929L30.5645 62.9873ZM70.1703 62.6412L69.5466 63.5064L66.7399 66.1021L65.6484 66.7942L64.7128 67.4864L64.0891 68.6977L63.7772 69.0438L63.4654 69.5629L62.8417 70.2551L62.3739 70.6012L62.218 70.9472L61.9061 71.2933L60.9705 71.8124L60.6587 72.1585L59.7231 72.6777L58.9435 72.5046L58.3198 71.9855L57.5401 71.2933L56.7605 70.9472L54.1097 71.4664L52.7063 71.6394H51.303L51.4589 74.7542L51.303 77.6959L51.6148 77.5228L56.6045 77.0037L61.4383 75.6194L65.8043 73.5429L70.1703 70.6012L74.0685 67.1403L70.3262 63.1603L70.1703 62.6412ZM37.2694 59.3534L37.7372 60.3917V60.7378L37.4254 61.0838L37.1135 61.2569H36.3339L35.3983 61.4299L34.6187 61.776L33.6831 62.1221H33.0594L32.4357 61.776L32.2797 61.4299L31.9679 61.2569H31.656L35.5542 64.5447L39.6084 66.9673L44.1303 68.6977L48.9641 69.5629L49.4318 69.909L49.2759 69.2168V64.0256L48.8081 64.1986L45.6896 63.6795L42.7269 62.8143L39.9202 61.2569L37.2694 59.3534ZM36.4898 58.3152L36.6457 58.4882V58.3152H36.4898ZM65.1806 57.2769L65.0247 57.623L64.401 58.3152V59.1804L64.5569 59.3534L65.0247 59.5265L65.9602 60.2186L66.2721 60.5647L66.428 61.0838L66.2721 61.4299L65.6484 62.1221L65.3365 62.6412L65.1806 62.9873V63.3334L65.4925 63.6795L65.6484 64.0256L65.1806 64.5447V64.7177L65.4925 64.3716L67.0517 62.9873L68.611 61.4299H67.9873L67.6755 61.2569L67.5195 60.9108V60.2186L65.3365 57.623L65.1806 57.2769ZM40.5439 52.0857L38.8287 54.1622L36.9576 56.2387L37.5813 56.5847L37.8932 56.9308L38.205 57.1039L40.388 58.8343L42.571 60.0456L45.0659 60.9108L47.4048 61.603L46.4692 61.2569L45.8455 60.3917L45.2218 59.3534L44.9099 58.3152L45.2218 58.1421L45.5336 57.45V57.1039L45.6896 56.7578L46.6251 56.0656L47.5607 55.5465L46.3133 55.8926L45.0659 55.5465L43.9744 54.8543L42.7269 54.1622L41.3236 53.1239L40.8558 52.6048L40.5439 52.0857ZM57.3842 51.5665L57.0723 51.9126L56.7605 52.0857L56.4486 52.4317H55.9808L55.669 52.0857H55.3571L55.513 52.2587V52.7778L55.2012 52.9509H54.8893L54.5775 52.7778L54.4216 52.6048H53.9538V53.1239H53.7978L53.3301 52.6048L52.8623 52.4317L52.7063 52.2587L52.3945 52.0857H51.9267L51.6148 52.4317H51.1471V52.7778L50.8352 52.9509L50.6793 53.2969L50.5233 53.47L50.3674 53.8161H50.0556L49.7437 53.9891L49.4318 54.3352H49.12V54.6813H49.2759L49.7437 54.8543H50.2115L50.5233 54.5082L50.8352 54.3352H52.5504L52.7063 54.5082V55.0274L52.8623 55.2004H53.486L53.7978 55.3735H54.4216L54.7334 55.2004V54.8543L55.2012 54.3352H55.513L55.8249 54.1622H56.1368L57.0723 53.47L57.5401 52.9509L57.696 52.4317L57.852 51.7396L57.696 51.5665H57.3842ZM56.2927 49.49L55.9808 49.8361L55.669 50.0092V50.5283L56.2927 50.1822H56.6045L56.7605 50.0092L57.0723 49.8361V49.49H56.2927ZM45.3777 46.5483L43.8184 48.6248L41.9473 50.5283L43.9744 52.0857L46.1574 53.1239L48.4963 53.8161V52.4317L48.6522 52.0857L48.8081 51.9126L49.12 51.7396H49.2759L49.5878 51.9126L49.8996 51.5665V51.3935L49.5878 51.2204V51.0474L49.4318 50.8744V50.0092H49.5878V49.8361L49.4318 49.49L49.5878 49.317V48.7979L49.8996 48.4518L48.8081 48.6248L47.7166 48.2787L46.6251 47.7596L45.6896 47.2405L45.3777 46.5483ZM68.4551 46.3753L67.8314 46.5483H67.5195L67.2077 46.7214H66.584L66.2721 46.5483H65.9602V46.7214L65.8043 46.8944L65.6484 47.2405H65.1806L64.8687 46.8944V46.7214L64.7128 46.5483V47.0674L64.401 47.4135L63.9332 48.4518L63.3095 48.7979H62.8417L62.5298 49.1439V49.49L62.3739 49.6631L62.062 49.8361H61.9061L61.5943 50.0092H61.2824L60.9705 50.1822L61.2824 50.5283H61.5943L61.9061 50.1822H62.218L62.6858 49.6631V49.317L62.9976 48.9709H63.3095L63.4654 48.7979H64.0891L64.401 49.8361V50.8744L64.245 51.2204L64.0891 51.7396V52.2587L63.9332 52.6048V52.9509L63.4654 53.9891V54.3352L62.9976 54.5082H62.3739L60.1909 53.8161L58.0079 53.47L57.696 53.8161L58.1638 53.9891L58.7875 54.1622L59.2553 54.3352L59.879 54.5082L60.5028 54.8543L60.6587 55.0274L61.2824 55.3735H61.5943L61.9061 55.2004H63.3095L63.4654 55.0274L63.7772 54.8543V54.3352L64.0891 53.643L64.401 53.2969L64.5569 52.9509L64.7128 52.7778L65.0247 53.1239L65.1806 53.47V53.9891L65.3365 54.3352L65.8043 53.643L66.1162 53.1239L66.584 52.4317L68.1432 49.49L69.2347 46.3753H68.4551ZM57.852 46.3753L57.696 46.5483V46.8944L58.0079 47.5866H58.1638L58.4757 47.9326V48.1057L58.7875 48.4518H59.0994L59.2553 48.2787V48.1057L59.0994 47.7596V47.4135L58.7875 47.2405L58.6316 47.0674L58.3198 46.8944L58.1638 46.7214V46.3753H57.852ZM43.6625 44.9909L43.5066 45.5101L42.8829 46.2022L43.1947 46.0292L43.6625 45.5101L43.9744 45.337H44.2862L43.6625 44.9909ZM38.0491 43.4336L39.2965 46.5483L39.9202 47.9326L40.388 48.4518L40.6999 49.1439L41.6354 47.7596L42.1032 47.2405V46.5483L41.9473 46.3753V46.0292L41.7914 45.6831V45.337L41.6354 44.9909L41.4795 45.164V45.5101L41.6354 45.6831V46.0292H41.1676V45.8561L40.6999 45.5101L40.388 44.9909L40.5439 44.8179V44.6448H40.388L40.2321 44.4718V44.2988H39.9202L39.7643 44.4718H39.6084V44.1257L39.4524 43.9527L39.1406 43.7796L38.9846 43.6066H38.205L38.0491 43.4336ZM23.5477 41.011L23.7037 41.357L24.0155 44.9909L24.4833 47.0674L24.7952 49.1439V48.9709L24.9511 48.6248V48.4518L25.263 48.1057V47.7596L25.4189 47.4135L25.5748 47.2405L25.4189 47.0674L25.5748 46.0292L25.7307 45.164L26.3545 44.2988H26.6663L26.9782 44.1257L27.1341 43.7796L27.446 43.6066L27.6019 43.2605L28.2256 42.9144L28.8493 43.2605L29.0052 43.6066L29.1612 43.7796L28.8493 42.9144L28.6934 41.8762L28.8493 41.011L28.3815 41.184H25.8867L23.5477 41.011ZM21.8325 41.011L21.3648 41.184H16.375L17.1547 47.2405L18.558 53.1239L20.741 58.4882L22.924 62.2951L25.5748 65.929L29.0052 61.776L29.473 61.603L28.8493 61.0838L27.9137 59.6995L27.29 59.3534L26.8222 59.0073L26.3545 58.4882V58.3152L26.1985 58.1421V57.623L25.8867 57.9691L25.5748 58.1421L25.4189 57.9691H25.263L25.107 57.623L24.7952 57.45L24.4833 57.1039L24.1715 56.4117V56.2387L24.0155 56.0656H23.3918L23.2359 55.7195V55.5465L23.08 55.3735H22.7681L22.4562 55.2004L22.1444 54.8543L21.9885 54.5082L21.8325 54.3352V54.5082H21.6766V54.6813L21.5207 54.8543H21.2088L21.0529 54.6813L20.741 54.5082L20.5851 54.1622L20.1173 53.643H19.9614V53.8161H19.8055L19.4936 53.47L19.1818 52.9509L19.0258 52.6048V52.0857L18.714 51.2204V50.1822L18.8699 49.317V49.1439L19.1818 48.7979V48.6248L19.4936 48.2787H19.8055L20.1173 48.1057L20.2733 48.2787L20.4292 48.6248H20.5851L20.741 48.4518H21.0529V47.9326L21.6766 47.5866H22.1444L22.4562 47.9326L22.6122 48.4518L22.924 48.7979L22.7681 48.2787L22.1444 45.337L21.8325 42.2223V41.011ZM72.0414 40.8379V42.5683L71.8855 44.2988L72.5092 45.164V45.8561L72.3533 46.0292L71.8855 46.2022L71.4177 46.0292L70.6381 48.6248L69.7025 51.0474L68.2992 53.47L67.9873 53.9891L67.6755 54.6813L67.3636 55.2004L66.428 55.8926L67.9873 57.45H68.1432V56.5847L68.2992 56.4117L68.4551 56.5847H68.767L69.0788 56.7578L69.3907 57.45L69.5466 57.623L69.7025 57.9691V58.4882L70.0144 59.5265V60.0456L72.5092 56.7578L74.3804 53.1239L75.7837 49.317L76.7193 45.337L77.1871 41.184L77.4989 40.8379H75.0041L72.5092 41.011L72.0414 40.8379ZM30.4086 40.8379L30.7204 41.357L31.0323 45.164L31.1882 44.8179V44.6448L31.3442 44.2988L31.656 44.1257V43.9527L31.5001 43.6066L31.3442 43.4336V43.2605L31.5001 42.9144V42.2223L31.656 41.8762V41.5301L31.8119 41.184L32.1238 41.011L31.656 41.184H30.8764L30.4086 40.8379ZM78.9023 40.6649L79.0582 41.184L78.5904 46.0292L77.4989 50.5283L75.7837 54.8543L73.4448 58.8343L72.0414 60.9108L71.4177 61.4299L73.4448 63.5064L75.3159 65.756L75.4719 65.4099L78.4345 61.0838L80.9294 56.4117L82.6446 51.7396L83.892 46.5483L84.3598 41.184L84.5157 40.8379H84.3598L79.2142 41.011L78.9023 40.6649ZM67.0517 40.6649L67.5195 41.357L67.8314 41.5301V41.8762L67.9873 42.0492V42.3953L68.1432 42.7414L68.2992 42.9144L68.767 43.2605L68.9229 43.6066L69.2347 44.1257L69.3907 44.4718L69.5466 44.9909L69.7025 44.6448V44.2988L70.0144 42.5683L70.3262 41.011H68.1432L67.0517 40.6649ZM43.1947 39.4536L43.0388 39.6266L42.8829 39.9727L42.571 40.3188V41.011L42.4151 41.184H42.2591L42.1032 41.357H41.9473V41.7031L42.571 41.5301H43.1947L43.6625 41.357H44.2862L44.5981 41.184H44.9099L45.2218 41.5301L45.5336 41.357V40.8379L45.2218 41.011H45.0659L44.754 40.8379V40.6649L44.5981 40.3188V40.1458L44.4421 39.7997V39.6266L44.2862 39.4536L44.1303 39.7997H43.8184L43.1947 39.4536ZM34.7746 38.0692L34.1509 38.4153V38.9345L34.3068 39.6266L34.6187 40.1458V40.8379L34.4627 41.011H33.5272L33.3712 42.0492L33.0594 42.3953H32.7475L32.5916 42.5683H32.2797L32.1238 42.7414V43.4336L32.2797 43.7796V44.6448L32.7475 45.164L33.2153 45.8561L33.6831 46.8944V48.1057L33.839 48.6248L34.1509 48.9709V50.0092L34.3068 51.2204L34.4627 52.0857L34.9305 52.9509L35.0864 54.3352V54.6813L34.9305 54.8543L34.6187 55.0274L34.3068 55.3735V55.5465H34.4627L34.6187 55.7195V55.8926L36.8017 53.2969L39.2965 50.7013L38.5169 50.0092L36.9576 46.5483L35.8661 43.0875L35.2424 42.9144V43.2605L35.0864 43.7796V44.6448L34.9305 44.8179H34.6187L34.4627 44.6448L34.1509 44.4718L33.839 44.1257V43.7796L33.9949 43.6066H34.3068L34.4627 43.4336V43.2605L34.6187 43.0875V42.5683L34.4627 42.2223V41.5301H34.7746L34.9305 41.7031L35.0864 42.0492L35.2424 42.2223L36.1779 41.8762V41.7031L36.3339 41.357V41.011L36.1779 40.8379V39.1075L36.022 38.5884L35.8661 38.2423L35.7102 38.0692H34.7746ZM49.2759 33.051L48.9641 33.2241L49.12 33.5702V33.9162L49.2759 34.4354L49.4318 34.7815L48.6522 35.6467L48.1844 35.9927L47.5607 36.1658L47.0929 36.3388L46.937 36.5119V36.6849L46.7811 37.031L46.6251 37.204H46.4692L45.8455 37.8962L45.6896 38.2423L45.8455 38.5884L45.6896 38.9345V39.9727L45.5336 40.3188V40.4918L45.8455 40.1458H46.3133V40.3188L46.4692 40.4918V40.6649L46.7811 41.011L46.6251 41.184L46.4692 41.5301L46.0014 42.0492V42.3953L45.8455 42.5683V43.0875L45.6896 43.2605H45.2218V43.4336L45.5336 43.6066L45.6896 43.7796L45.8455 43.4336L46.1574 43.0875L46.3133 42.7414L46.4692 42.5683L46.7811 42.3953L46.937 42.2223V41.5301L47.0929 41.184L47.2488 41.011L48.1844 40.8379H49.12L49.8996 41.357V42.0492L50.0556 42.2223L49.5878 43.2605L49.2759 43.6066L49.4318 43.7796V43.9527L49.12 44.2988L48.8081 44.9909H48.4963L48.1844 45.164H47.2488L46.937 45.337L48.8081 46.2022L50.8352 46.5483H51.1471L51.303 46.3753L51.4589 46.0292V45.5101L51.6148 45.164L51.7708 44.9909L52.0826 44.2988L52.2386 44.1257H53.7978L54.1097 43.6066L54.4216 42.2223L54.1097 42.0492L53.9538 41.7031V40.8379L53.7978 40.4918L53.6419 40.3188V39.9727L53.486 39.6266L53.3301 39.4536H53.0182V38.7614L53.1741 38.4153L53.486 38.2423V38.0692L53.1741 37.3771V37.031L53.3301 36.6849H53.0182L52.7063 36.5119L52.3945 36.1658L52.2386 35.8197L51.9267 35.6467L51.6148 35.3006L51.303 35.1275H50.5233L50.2115 34.9545L50.0556 34.7815L49.8996 34.4354L49.7437 34.2623L49.4318 34.0893L49.2759 33.9162V33.5702L49.4318 33.3971L49.7437 33.2241H49.8996L50.2115 33.3971H50.5233L49.8996 33.051H49.2759ZM49.2759 25.9563L47.0929 26.3024L45.0659 27.1676L43.1947 28.2059L41.6354 29.9363H41.9473L43.1947 30.6284L43.3506 30.9745V31.3206H43.1947V31.4937L43.3506 31.6667H43.6625V31.4937H43.8184V31.3206L43.9744 31.1476H44.1303L44.2862 31.3206V31.4937L44.5981 31.8397H44.754L45.0659 31.6667H45.2218L45.5336 31.8397L45.6896 32.0128L45.8455 31.8397H46.4692L46.6251 31.6667V31.4937L46.937 31.1476V30.8015L47.0929 30.2824L47.4048 29.5902L47.7166 29.4171L47.8726 29.5902V30.1093H48.6522L48.9641 29.9363L49.12 30.1093L49.4318 30.2824L49.12 28.0328L49.2759 25.9563ZM51.1471 25.7833L51.303 26.9946V28.3789L51.4589 29.7632L52.7063 30.2824L53.3301 29.5902L53.9538 29.2441L54.4216 28.725H54.5775L54.8893 29.0711V30.1093L54.7334 30.6284L54.4216 31.1476L54.1097 31.4937L53.6419 31.6667L53.3301 32.0128L52.8623 32.3589L52.5504 32.7049H52.7063L53.0182 32.5319L53.1741 32.3589H53.7978L54.1097 32.7049L54.4216 32.878L54.5775 33.2241H55.2012L55.513 33.051L55.9808 32.0128L57.5401 30.9745L58.1638 30.1093L57.852 30.2824L57.5401 29.9363H57.3842V29.7632L58.1638 28.898L58.4757 28.725L55.9808 27.1676L53.3301 26.1293L52.5504 25.9563H51.9267L51.1471 25.7833ZM35.7102 25.0911L33.5272 28.5519L31.9679 32.1858L31.0323 35.9927L30.7204 37.5501L30.5645 38.9345L31.0323 38.7614H32.2797L32.7475 38.9345L32.5916 38.5884V38.0692L32.4357 37.7232V36.6849L32.7475 36.3388L32.9034 35.8197L33.6831 34.0893L33.9949 33.9162H34.7746L35.0864 33.7432V33.051L35.3983 32.7049L35.7102 32.5319L36.1779 32.3589L36.4898 32.1858L37.1135 31.1476L37.5813 30.8015H38.0491L38.3609 30.4554L38.5169 30.1093L38.8287 29.9363L38.9846 29.5902L39.2965 29.2441H39.7643L35.7102 25.0911ZM64.8687 24.9181L64.7128 25.0911L59.7231 30.9745L60.1909 31.4937V31.1476L60.5028 30.4554V30.1093L60.8146 29.7632H61.4383L61.9061 29.9363H62.218L64.7128 30.2824L65.1806 30.8015L65.4925 31.3206L65.9602 31.8397V32.3589L65.8043 32.5319V32.878L66.1162 33.2241L66.584 32.7049L66.8958 32.5319H67.3636L67.5195 32.7049H67.6755L67.9873 32.878L68.611 33.5702H68.767L68.9229 33.7432V34.2623L68.767 34.4354H68.611L68.4551 34.6084V34.7815L68.2992 35.1275V35.3006L68.1432 35.6467V36.1658H68.611L68.9229 35.9927L69.0788 35.8197L69.7025 34.4354L69.2347 32.878L68.767 31.4937L68.2992 31.3206L67.6755 30.6284L67.2077 30.4554L66.8958 30.2824L66.7399 30.1093V29.5902L66.8958 29.2441L67.0517 29.0711L67.2077 28.725V28.3789L66.1162 26.6485L64.8687 24.9181ZM30.7204 19.3807L30.5645 19.7268L28.6934 22.4955L26.6663 26.3024L25.107 30.2824L24.1715 34.4354L23.5477 38.9345L28.5375 38.7614L28.8493 38.9345V38.7614L28.6934 38.5884V38.4153L29.3171 34.2623L30.4086 30.4554L32.1238 26.8215L34.4627 23.5337L32.4357 21.6303L30.7204 19.3807ZM51.1471 17.8233L51.303 18.3425V23.7068L51.7708 23.5337L54.5775 24.2259L57.2283 25.4372L59.7231 27.1676L59.879 27.6867L61.2824 25.7833L62.8417 24.0528L63.7772 23.5337L63.3095 23.3607L60.1909 20.9381L56.9164 19.2077L53.9538 18.3425L51.1471 17.8233ZM49.2759 17.8233L48.9641 17.9964L45.6896 18.5155L42.571 19.7268L39.7643 21.6303L37.1135 23.7068L38.9846 25.6102L40.8558 27.6867L41.0117 27.3406L41.1676 27.1676L42.8829 25.7833L44.754 24.745L46.6251 24.0528L47.8726 23.7068H49.2759L49.12 20.765L49.2759 17.8233ZM25.7307 13.6703L22.3003 18.6885L19.6495 23.8798L17.7784 29.4171L16.6869 35.3006L16.531 37.031L16.375 38.9345L19.0258 38.7614L21.8325 38.9345V38.2423L22.3003 33.5702L23.3918 29.2441L24.9511 25.0911L27.1341 21.2842L27.9137 20.2459L28.6934 19.0346L29.473 18.1694L25.8867 14.1894L25.7307 13.6703ZM74.8482 13.4973L73.1329 15.7468L71.2618 17.8233L70.6381 17.9964H70.95L71.1059 18.3425L71.2618 18.5155L71.4177 18.8616L72.5092 19.7268L73.2889 20.9381L74.2244 21.9763L75.4719 24.0528L76.0956 25.2641L76.4074 26.3024L77.8108 30.2824L78.7464 34.2623L79.0582 38.5884L78.9023 38.9345L79.0582 38.7614H79.3701L84.5157 38.5884L84.3598 38.0692V37.5501L84.2039 37.031V36.5119L83.4242 31.4937L82.1768 26.6485L80.3056 21.9763L77.8108 17.6503L74.8482 13.4973ZM49.12 10.2095L45.3777 10.7286L41.7914 11.7669L38.3609 13.3242L35.2424 15.4007L31.9679 18.1694L33.6831 19.8998L35.5542 21.8033L35.7102 22.1494L38.0491 19.8998L40.6999 18.3425L43.5066 16.9581L46.4692 16.0929L47.8726 15.9199H49.2759L49.12 12.9782V10.2095ZM66.428 10.0364H66.8958L67.0517 10.2095L67.2077 10.0364L67.8314 10.3825L67.9873 10.5556V11.0747L68.1432 11.4208L68.2992 11.5938L68.1432 11.9399H67.5195L67.2077 11.7669L67.0517 11.4208L66.584 10.9016L66.2721 10.7286V10.2095L66.428 10.0364ZM51.1471 10.0364L51.303 10.3825V13.1512L51.1471 15.9199L51.7708 15.7468H52.2386L52.7063 15.9199H53.1741L56.6045 16.7851L59.879 18.1694L62.8417 20.2459L62.5298 19.8998L62.3739 19.5538L62.062 19.2077V18.6885H62.218V18.3425L61.9061 17.9964L61.5943 17.3042L61.7502 17.1312H62.062L62.3739 17.6503L63.3095 18.6885L63.6213 19.2077H64.245L64.7128 19.7268L64.8687 20.0729V20.419L65.0247 20.765L65.1806 20.9381L65.4925 21.9763L66.1162 22.8415L66.428 23.8798V24.0528H66.8958L67.9873 25.6102L67.8314 25.7833V25.9563L67.9873 26.3024L68.1432 26.4754H68.4551L68.611 26.3024H68.9229L69.0788 26.1293H69.3907L69.7025 26.4754L69.5466 26.8215L69.3907 26.9946L69.2347 27.3406V27.5137H70.1703V27.8598L70.0144 28.0328L69.8585 28.3789L69.7025 28.5519V28.725L69.8585 28.898H70.4822L70.6381 29.2441V29.7632L70.95 30.4554V31.3206L70.794 32.0128V32.878L70.95 33.3971L70.6381 34.4354L70.3262 34.7815V35.3006L70.0144 35.8197L69.8585 36.1658L69.5466 36.6849L69.3907 37.031L68.4551 37.204L68.2992 37.5501V37.7232L68.4551 38.0692L68.611 38.2423V38.5884L68.4551 38.7614H70.4822L70.1703 38.5884L70.0144 37.031L70.4822 35.6467L70.6381 35.3006L70.95 34.2623L71.1059 33.9162L71.4177 33.5702H71.5737V33.3971H71.7296L71.8855 33.5702V34.2623L71.5737 35.6467L72.0414 36.6849V37.7232L72.1974 38.7614L77.343 38.5884L77.1871 38.2423L76.7193 34.6084L75.9397 31.3206L74.8482 28.0328H74.5363L74.3804 28.2059H73.6007V27.8598L73.1329 27.3406L72.8211 26.8215L71.5737 25.4372H71.2618L70.6381 25.0911L70.1703 24.572L69.2347 24.0528L69.0788 23.8798V23.5337L68.9229 23.3607V23.1876L68.767 23.0146H68.1432L67.8314 22.6685L67.5195 22.4955L67.2077 22.1494L67.0517 21.6303V20.592L66.7399 19.7268L66.1162 18.8616H65.6484L65.3365 19.0346L65.1806 19.2077H65.0247L64.8687 19.3807H64.5569L64.245 19.0346V18.3425L64.0891 18.1694L63.9332 17.8233L63.7772 17.6503V17.4772L64.0891 16.7851L63.7772 16.439L63.6213 16.0929L63.3095 15.9199L63.1535 15.7468V15.0547L62.9976 14.5355L62.8417 14.1894L61.9061 13.1512L59.0994 11.9399L56.1368 10.9016L53.1741 10.3825H52.7063L52.0826 10.2095H51.6148L51.1471 10.0364ZM55.2012 5.19126H56.2927L57.2283 5.53735L58.0079 6.22951V6.40256L57.5401 6.92168L56.2927 7.26777L55.669 7.09472L54.7334 7.44081L53.7978 7.61385L52.7063 7.44081L51.9267 6.74864V6.40256L52.0826 6.22951H52.5504L52.7063 6.40256L55.2012 5.19126ZM49.12 2.0765L43.8184 2.76867L38.9846 4.32605L34.3068 6.5756L29.9408 9.69035L26.8222 12.459H26.9782L29.0052 14.5355L30.8764 16.7851L31.0323 16.439L35.0864 12.9782L39.4524 10.3825L44.1303 8.6521L49.2759 7.95993L49.12 7.44081L48.9641 2.59563L49.12 2.0765ZM51.1471 1.90346L51.303 4.67214L51.1471 7.09472L51.303 6.92168H51.6148L51.9267 7.26777V7.95993L51.7708 8.13298H51.9267L52.0826 7.95993H52.3945L56.2927 8.6521L60.035 9.8634L63.6213 11.7669V11.5938L65.0247 11.0747H65.4925L65.9602 11.4208H66.428L66.7399 11.5938L66.8958 11.9399L67.2077 12.1129L67.3636 12.286L67.6755 12.459L68.2992 12.9782L68.767 13.4973L69.2347 14.3625L69.5466 15.0547L69.8585 15.4007L70.0144 15.7468L70.3262 16.0929L70.95 14.8816L72.0414 13.8434L72.977 12.6321L73.6007 12.286L69.3907 8.47906L64.7128 5.53735L59.879 3.63388L54.5775 2.42259L52.8623 2.24955L51.1471 1.90346ZM50.3674 0L55.3571 0.346084L60.3468 1.55738L65.0247 3.46084L69.3907 6.05647L73.4448 9.34427L77.0312 13.3242L80.1497 17.6503L82.6446 22.6685L84.5157 27.6867L85.7631 33.3971L86.2309 39.1075L85.9191 44.9909L84.9835 50.5283L83.2683 55.7195L80.7734 60.9108L77.6549 65.756L73.9126 69.909L69.7025 73.5429L65.1806 76.1385L60.9705 77.8689L56.6045 79.0802L51.9267 79.5993H47.2488L42.571 78.7341L38.205 77.5228L33.9949 75.4463L30.2527 73.0237L26.1985 69.3899L22.7681 65.4099L19.8055 60.9108L17.4665 56.0656L15.9073 51.0474L14.8158 45.8561L14.5039 40.3188L14.8158 34.7815L15.7513 29.0711L17.3106 24.0528L19.6495 19.2077L22.6122 14.7086L26.0426 10.5556L29.9408 7.09472L34.1509 4.32605L39.2965 2.0765L44.754 0.519126L50.3674 0Z" fill="#189BA5"/>
<path d="M85.1378 14.7069L81.8634 10.7271L79.2125 6.57376L76.25 3.28613L78.1208 4.15169L80.1482 5.01673L82.0192 6.05515L83.8903 7.43932L85.6055 9.51565L86.853 11.9382L87.7885 14.3608L88.4121 16.9566L88.8799 17.9945L85.1378 14.7069Z" fill="#189BA5"/>
<path d="M76.25 3.29346L78.1211 4.15867L80.1482 5.02388L82.0193 6.06213L83.8905 7.44647L85.6057 9.52297L86.8531 11.9456L87.7887 14.3681L88.4124 16.9638L88.8802 18.002L85.1379 14.7142L81.8634 10.7343L79.2126 6.58126L76.25 3.29346Z" fill="#189BA5"/>
<path d="M12.1629 16.7855L12.6307 14.8822L13.2543 12.8056L14.1898 11.0753L15.7491 8.82577L17.4643 7.09517L19.4916 5.88405L23.8576 3.80737L21.3625 6.57587L19.3355 9.69098L17.4643 12.6327L15.5934 14.8822L11.5391 18.689L12.1629 16.7855Z" fill="#189BA5"/>
<path d="M23.8574 3.80737L21.3625 6.57605L19.3355 9.6908L17.4643 12.6325L15.5932 14.8821L11.5391 18.689L12.1628 16.7855L12.6306 14.8821L13.2543 12.8056L14.1898 11.0751L15.7491 8.82559L17.4643 7.09517L19.4914 5.88388L23.8574 3.80737Z" fill="#189BA5"/>
<path d="M91.9973 27.1684L90.126 25.0923L88.0991 23.1888L85.9161 21.4581L84.0448 19.3819L82.6416 17.132L81.8622 14.7094L81.2383 11.9407L82.3296 14.0174L83.733 15.575L85.2926 16.9591L88.723 19.7278L90.126 21.4581L90.906 22.4963L91.8413 24.573L91.9973 24.3998L90.7499 20.5929L88.8786 12.9792L87.7873 10.5564L85.9161 8.47974L88.4108 9.69138L90.5938 11.7681L92.1534 14.3633L93.0887 17.132L93.4007 20.2469L93.2448 23.1888V26.3032L93.5565 29.4183L93.4007 29.591L91.9973 27.1684Z" fill="#189BA5"/>
<path d="M85.9161 8.47974L88.411 9.69103L90.594 11.7675L92.1533 14.3632L93.0888 17.1318L93.4007 20.2466L93.2448 23.1883V26.3031L93.5566 29.4178L93.4007 29.5909L91.9973 27.1683L90.1262 25.0918L88.0991 23.1883L85.9161 21.4579L84.045 19.3814L82.6416 17.1318L81.862 14.7093L81.2383 11.9406L82.3298 14.0171L83.7331 15.5745L85.2924 16.9588L88.7228 19.7275L90.1262 21.4579L90.9058 22.4961L91.8414 24.5726L91.9973 24.3996L90.7499 20.5927L88.8788 12.9788L87.7873 10.5562L85.9161 8.47974Z" fill="#189BA5"/>
<path d="M7.1714 28.2066L7.32748 26.1301L7.01562 23.3614V20.4197L7.32748 17.6511L8.10697 15.0556L9.51048 12.8059L10.914 11.2487L12.4731 10.0372L14.1883 9.34521L12.7848 10.7296L11.8496 12.633L11.0696 14.5365L10.6018 16.6128L10.2901 18.6893L9.82218 20.766L8.57491 25.2649L9.82218 22.8423L11.5374 20.5928L13.097 19.0354L14.9678 17.6511L16.5274 16.2667L17.9305 14.5365L19.0221 12.4598L18.5543 15.5749L17.3069 18.3434L15.4356 20.766L13.4087 23.0155L11.0696 24.919L8.88661 27.3416L7.1714 30.1101V28.2066Z" fill="#189BA5"/>
<path d="M14.1883 9.34521L12.785 10.7296L11.8494 12.633L11.0698 14.5365L10.602 16.613L10.2901 18.6895L9.82233 20.766L8.57491 25.2651L9.82233 22.8425L11.5375 20.593L13.0968 19.0356L14.968 17.6512L16.5273 16.2669L17.9306 14.5365L19.0221 12.46L18.5543 15.5747L17.3069 18.3434L15.4358 20.766L13.4087 23.0155L11.0698 24.919L8.88676 27.3416L7.17155 30.1103V28.2068L7.32748 26.1303L7.01562 23.3616V20.4199L7.32748 17.6512L8.10712 15.0556L9.51048 12.8061L10.9138 11.2487L12.4731 10.0374L14.1883 9.34521Z" fill="#189BA5"/>
<path d="M94.9616 42.2249L94.8056 41.5325L93.7142 38.418L91.999 35.6489L90.1277 32.8804L88.4125 30.285L87.0095 27.3433L86.2295 24.9207L85.7617 22.3249L86.8534 24.2283L88.4125 25.7857L90.1277 27.3433L91.6873 29.0735L93.0904 30.977L94.0261 33.0536L94.4939 34.7839L94.8056 36.6874H94.9616L94.6498 32.0152V27.17L95.1177 22.4979L94.9616 20.0753L94.4939 17.8259L93.5581 15.7493L94.4939 16.4416L94.8056 16.9607L94.9616 17.48L95.2733 17.9986L96.6769 20.5944L97.6124 23.5363L98.0802 26.478L98.236 29.7658L97.7685 32.8804L96.8329 35.6489L95.7413 39.2832L95.1177 43.0901L94.9616 42.2249Z" fill="#189BA5"/>
<path d="M93.5581 15.7493L94.4937 16.4414L94.8056 16.9606L94.9615 17.4797L95.2733 17.9988L96.6767 20.5944L97.6123 23.5362L98.0801 26.4779L98.236 29.7657L97.7682 32.8804L96.8326 35.6491L95.7411 39.283L95.1174 43.0899L94.9615 42.2247L94.8056 41.5325L93.7141 38.4178L91.9989 35.6491L90.1277 32.8804L88.4125 30.2848L87.0091 27.3431L86.2295 24.9205L85.7617 22.3249L86.8532 24.2283L88.4125 25.7857L90.1277 27.3431L91.687 29.0735L93.0904 30.977L94.0259 33.0535L94.4937 34.7839L94.8056 36.6874H94.9615L94.6496 32.0152V27.17L95.1174 22.4979L94.9615 20.0753L94.4937 17.8258L93.5581 15.7493Z" fill="#189BA5"/>
<path d="M5.1464 40.6649L3.27541 34.7813L2.49562 31.8394L2.33984 28.5517L2.65154 25.2639L3.43119 22.1494L4.67861 19.2076L6.39382 16.6118H6.54975V16.439H6.70584L5.77027 18.8616L5.30248 21.457L5.61418 26.6483L5.92604 29.4173L6.08197 32.0126L5.77027 37.3771V37.5498H5.92604L6.08197 36.8579V36.3388L6.23805 35.6463L6.86161 33.2242L8.10904 30.9743L9.51239 29.0709L11.3837 27.1674L13.7225 24.5719L14.658 22.8413L14.0342 25.9563L12.9428 29.0709L11.3837 32.0126L7.95326 37.5498L6.54975 40.4916L5.77027 43.7794L5.1464 40.6649Z" fill="#189BA5"/>
<path d="M6.54991 16.439H6.70584L5.77027 18.8616L5.30248 21.4572L5.61434 26.6484L5.9262 29.4171L6.08212 32.0127L5.77027 37.3771V37.5501H5.9262L6.08212 36.8579V36.3388L6.23805 35.6466L6.86177 33.224L8.10919 30.9745L9.51255 29.071L11.3837 27.1676L13.7226 24.5719L14.6582 22.8415L14.0345 25.9563L12.943 29.071L11.3837 32.0127L7.95326 37.5501L6.54991 40.4918L5.77027 43.7796L5.14655 40.6649L3.27541 34.7814L2.49577 31.8397L2.33984 28.5519L2.6517 25.2641L3.43134 22.1494L4.67877 19.2076L6.39398 16.612H6.54991V16.439Z" fill="#189BA5"/>
<path d="M92.6215 55.7191V53.6428L92.4654 51.7393L91.9976 50.0087L90.5941 45.1634L89.6585 39.9723L88.8789 34.781L89.035 32.7047L89.8146 35.3001L91.0621 37.896L92.3093 40.1453L93.5568 42.5681L94.3367 45.1634L94.6484 48.1053L94.4925 50.1819L94.0245 52.0854L94.1806 52.2584L94.3367 51.9122L95.5841 46.0289L96.5194 43.0872L97.455 40.6646L98.3907 38.0688L99.0146 35.6461L99.3263 32.8776L99.1702 30.1089L100.262 33.7426L100.73 37.5495L100.418 41.5297L99.6381 45.3366L98.2346 48.7976L95.272 53.1237L92.4654 57.4497L92.6215 55.7191Z" fill="#189BA5"/>
<path d="M99.1702 30.1089L100.262 33.7428L100.729 37.5497L100.418 41.5297L99.638 45.3366L98.2346 48.7974L95.272 53.1235L92.4653 57.4495L92.6212 55.7191V53.6426L92.4653 51.7391L91.9975 50.0087L90.5941 45.1635L89.6585 39.9723L88.8789 34.781L89.0348 32.7045L89.8145 35.3001L91.0619 37.8958L92.3093 40.1453L93.5568 42.5679L94.3364 45.1635L94.6483 48.1053L94.4923 50.1818L94.0245 52.0852L94.1805 52.2583L94.3364 51.9122L95.5838 46.0288L96.5194 43.087L97.455 40.6645L98.3905 38.0688L99.0142 35.6462L99.3261 32.8776L99.1702 30.1089Z" fill="#189BA5"/>
<path d="M8.10827 57.9691L6.70523 55.7194L3.58651 51.2205L2.183 48.9706L1.24743 46.5485L0.467785 42.9143L0 38.9346L0.311857 35.1277L0.779642 33.051L1.40351 30.9744L1.24743 33.9161L1.71521 36.6848L2.49485 39.1073L3.43042 41.7031L4.52208 44.2986L5.30172 46.8944L5.7695 48.9706L6.08136 50.874L6.70523 52.9507H6.86085V52.778L6.23729 49.4899L6.54915 46.2021L7.32863 43.0875L8.73214 40.1456L10.2913 37.3771L11.0709 35.4736L11.6948 33.397V36.1656L11.0709 41.7031L9.82348 46.5485L8.57606 51.5664L8.26436 53.8159L8.10827 55.8926L8.42044 58.142L8.10827 57.9691Z" fill="#189BA5"/>
<path d="M1.40335 30.9744L1.24743 33.9161L1.71521 36.6848L2.49485 39.1073L3.43042 41.703L4.52192 44.2986L5.30156 46.8942L5.76935 48.9707L6.0812 50.8742L6.70492 52.9507H6.86085V52.7777L6.23713 49.4899L6.54899 46.2021L7.32863 43.0873L8.73199 40.1456L10.2913 37.3769L11.0709 35.4735L11.6946 33.397V36.1656L11.0709 41.703L9.82348 46.5482L8.57606 51.5664L8.2642 53.8159L8.10827 55.8924L8.42013 58.142L8.10827 57.9689L6.70492 55.7194L3.58635 51.2203L2.183 48.9707L1.24743 46.5482L0.467785 42.9143L0 38.9343L0.311857 35.1274L0.779642 33.0509L1.40335 30.9744Z" fill="#189BA5"/>
<path d="M84.9805 70.2548L86.2279 67.3129L87.0078 64.1985L87.3195 61.0834L87.6313 57.6225L88.2551 51.0469L89.0348 47.9324L89.8142 45.5098V48.7976L90.2822 51.7393L90.75 54.8539L90.9061 58.1417L90.2822 61.9486L88.7229 65.4094H89.0348L92.1533 60.2183L94.0243 57.7958L95.8956 55.7191L97.6108 53.6427L99.0142 51.5661L100.106 49.1435L100.729 46.5482L100.885 50.3551L100.262 53.8156L99.0142 57.1032L97.143 60.2183L94.804 62.8136L92.1533 65.2364L88.567 67.8322L84.9805 70.6007V70.2548Z" fill="#189BA5"/>
<path d="M89.8142 45.5098V48.7976L90.282 51.7393L90.7498 54.854L90.9057 58.1418L90.282 61.9488L88.7227 65.4096H89.0346L92.1532 60.2183L94.0243 57.7958L95.8955 55.7192L97.6107 53.6427L99.014 51.5662L100.106 49.1436L100.729 46.548L100.885 50.3549L100.261 53.8158L99.014 57.1036L97.1429 60.2183L94.804 62.814L92.1532 65.2366L88.5668 67.8322L84.9805 70.6009V70.2548L86.2279 67.3131L87.0075 64.1983L87.3194 61.0835L87.6313 57.6227L88.255 51.0471L89.0346 47.9324L89.8142 45.5098Z" fill="#189BA5"/>
<path d="M13.5659 69.3909L11.0708 67.6603L8.57606 65.7569L6.23729 63.6805L4.05429 61.4308L2.33908 58.8354L1.09165 55.8937L0.311701 53.125L0 50.1833L0.156084 47.2414L0.623869 49.8372L1.71521 52.2598L3.27465 54.3361L4.98986 56.4128L6.70507 58.3162L8.42029 60.3929L9.82333 62.6423L10.9151 64.3725L12.0065 65.9301L11.8507 65.4108L11.6946 65.0649L11.0708 64.0266L10.2913 61.604L9.97941 59.0081V56.2396L10.2913 53.817L10.7591 51.3944L11.0708 48.7989V46.2031L12.1624 50.1833L12.786 54.3361L13.2538 58.4895L13.7217 62.815L14.3456 66.9683L15.9047 71.1212L13.5659 69.3909Z" fill="#189BA5"/>
<path d="M11.0709 46.2031L12.1624 50.1831L12.7861 54.3361L13.2539 58.4891L13.7217 62.8152L14.3454 66.9682L15.9047 71.1212L13.5658 69.3908L11.0709 67.6603L8.57606 65.7569L6.23713 63.6804L4.05414 61.4308L2.33892 58.8352L1.0915 55.8935L0.311857 53.1248L0 50.1831L0.155928 47.2414L0.623713 49.837L1.71521 52.2596L3.27449 54.3361L4.98971 56.4126L6.70492 58.3161L8.42013 60.3926L9.82348 62.6421L10.915 64.3725L12.0065 65.9299L11.8506 65.4108L11.6946 65.0647L11.0709 64.0265L10.2913 61.6039L9.97941 59.0082V56.2396L10.2913 53.817L10.7591 51.3944L11.0709 48.7988V46.2031Z" fill="#189BA5"/>
<path d="M77.0275 77.3501L78.4311 74.9274L79.3663 72.3316L80.3019 69.5631L81.0815 66.7944L82.0171 64.1991L83.2645 61.6033L84.824 59.1805L86.5392 56.9312L85.6036 59.6998L84.668 65.9293L84.0442 69.0439L82.9528 71.8129L81.3935 74.4082L79.3663 76.6578H79.6783L79.9902 76.3117L80.3019 76.1385L80.6137 75.7926L83.1088 73.5432L85.7594 71.8129L88.4102 70.4281L91.0609 68.8711L93.5558 66.9676L95.1152 65.41L96.5184 63.6798L97.454 61.6033L96.6745 65.0641L95.1152 68.1787L92.9322 71.2936L90.2815 73.7164L87.4746 75.7926L84.512 77.1769L81.3935 78.0425L78.275 78.7343L75.1562 79.5995L77.0275 77.3501Z" fill="#189BA5"/>
<path d="M86.539 56.9312L85.6034 59.6998L84.6679 65.9293L84.0442 69.0441L82.9527 71.8128L81.3934 74.4084L79.3663 76.6579H79.6782L79.99 76.3119L80.3019 76.1388L80.6137 75.7927L83.1086 73.5432L85.7594 71.8128L88.4102 70.4284L91.0609 68.8711L93.5558 66.9676L95.1151 65.4102L96.5184 63.6798L97.454 61.6033L96.6744 65.0641L95.1151 68.1789L92.9321 71.2936L90.2813 73.7162L87.4746 75.7927L84.512 77.1771L81.3934 78.0423L78.2748 78.7344L75.1562 79.5997L77.0274 77.3501L78.4307 74.9275L79.3663 72.3319L80.3019 69.5632L81.0815 66.7945L82.0171 64.1989L83.2645 61.6033L84.8238 59.1807L86.539 56.9312Z" fill="#189BA5"/>
<path d="M23.076 79.0786L17.4626 78.0407L14.8121 77.1751L12.317 75.6181L9.82211 73.7146L7.4835 71.2919L5.61221 68.5228L4.05308 65.5815L3.27344 62.2938L4.52086 64.7159L6.23608 66.7926L8.1069 68.3501L10.2901 69.7345L14.656 72.1571L16.683 73.3682L18.7103 74.9256L20.1134 76.1367L21.5169 77.1751L21.673 77.0022L19.8017 75.2716L18.3982 73.1953L17.1507 70.7727L16.5273 68.1769L16.0596 65.4082L15.7474 62.6397L15.1238 60.0439L14.3443 57.4485L16.2152 60.0439L17.9304 62.9857L19.3339 65.9275L20.1134 68.3501L20.8933 70.9456L21.673 73.3682L22.7643 75.7908L24.0116 78.0407L25.8829 79.9441L23.076 79.0786Z" fill="#189BA5"/>
<path d="M14.3443 57.4485L16.2155 60.0441L17.9307 62.9858L19.3341 65.9275L20.1137 68.3501L20.8933 70.9458L21.673 73.3684L22.7645 75.7909L24.0119 78.0405L25.883 79.944L23.0763 79.0787L17.4629 78.0405L14.8121 77.1753L12.3173 75.6179L9.82243 73.7144L7.4835 71.2919L5.61236 68.5232L4.05308 65.5815L3.27344 62.2937L4.52086 64.7163L6.23608 66.7928L8.10722 68.3501L10.2902 69.7345L14.6562 72.1571L16.6833 73.3684L18.7103 74.9257L20.1137 76.137L21.5171 77.1753L21.673 77.0022L19.8018 75.2718L18.3985 73.1953L17.1511 70.7727L16.5273 68.1771L16.0596 65.4084L15.7477 62.6397L15.124 60.0441L14.3443 57.4485Z" fill="#189BA5"/>
<path d="M73.9095 84.7904L70.323 84.0984L66.7369 83.2332L63.3065 82.3677H62.2148V82.195L65.0217 81.3298L67.5164 80.2915L69.8555 78.388L72.9739 74.927L76.0925 71.6394L79.5229 68.6975L77.3399 72.8505L76.5602 75.1002L75.4686 77.0037L74.0656 78.9072L72.1943 80.2915L70.9468 80.9835L69.8555 81.3298L68.6077 81.8491L73.2859 81.1567L75.9364 80.8106L78.4315 80.6374L81.082 80.2915L83.5772 79.7724L85.9159 78.9072L88.0989 77.6957L89.9702 75.6195L88.5667 78.388L86.3837 80.8106L83.733 82.7141L81.082 84.0984L77.496 84.9636L73.9095 84.7904Z" fill="#189BA5"/>
<path d="M79.5229 68.6975L77.3399 72.8505L76.5602 75.1001L75.4688 77.0035L74.0654 78.907L72.1943 80.2913L70.9468 80.9835L69.8553 81.3296L68.6079 81.8487L73.2858 81.1565L75.9365 80.8105L78.4314 80.6374L81.0822 80.2913L83.577 79.7722L85.9159 78.907L88.0989 77.6957L89.9701 75.6192L88.5667 78.3879L86.3837 80.8105L83.733 82.7139L81.0822 84.0983L77.4958 84.9635L73.9095 84.7904L70.3231 84.0983L66.7368 83.233L63.3063 82.3678H62.2148V82.1948L65.0216 81.3296L67.5164 80.2913L69.8553 78.3879L72.9739 74.927L76.0925 71.6392L79.5229 68.6975Z" fill="#189BA5"/>
<path d="M23.3883 85.1383L19.9579 84.446L17.3071 83.2348L14.8123 81.3314L12.6293 78.9088L10.9141 76.1398L12.785 78.0438L14.968 79.4279L17.3071 80.1199L19.6459 80.639L22.2967 80.9851L27.2865 81.3314L29.7814 81.8507L31.0288 82.0234L32.4322 82.1966L31.0288 81.6775L29.7814 81.1583L27.9101 80.1199L26.351 78.7356L25.2593 77.0053L24.3239 75.1019L23.3883 73.0252L22.4528 71.1217L21.3609 69.2183L24.6358 71.9869L30.8727 78.5624L33.3674 80.4658L36.0184 81.6775L38.8252 82.3693L38.3574 82.5425L37.7336 82.7157H37.11L33.3674 83.7541L30.0931 84.6192L26.6627 85.1383H23.3883Z" fill="#189BA5"/>
<path d="M21.3613 69.2183L24.6358 71.9869L30.8729 78.5625L33.3677 80.466L36.0185 81.6773L38.8252 82.3695L38.3574 82.5425L37.7337 82.7155H37.11L33.3677 83.7538L30.0932 84.619L26.6628 85.1381H23.3883L19.9579 84.446L17.3071 83.2347L14.8123 81.3312L12.6293 78.9086L10.9141 76.1399L12.7852 78.0434L14.9682 79.4277L17.3071 80.1199L19.646 80.639L22.2968 80.9851L27.2865 81.3312L29.7814 81.8503L31.0288 82.0234L32.4322 82.1964L31.0288 81.6773L29.7814 81.1582L27.9103 80.1199L26.351 78.7356L25.2595 77.0052L24.3239 75.1017L23.3883 73.0252L22.4528 71.1217L21.3613 69.2183Z" fill="#189BA5"/>
<path d="M37.1119 92.9233L40.6981 89.4628L44.4406 86.5209L48.4945 84.0983L46.6235 83.7524L44.9083 84.0983L43.1931 84.9635L41.6337 86.0017L40.2302 87.2129L36.3323 89.8087L33.8373 90.8469L31.0307 91.3662L28.2237 91.193L25.5732 90.5007L23.2341 89.2895L21.2072 87.732L19.3359 85.6558L21.5189 86.867L24.0138 87.732L26.6646 87.9052L29.1594 87.732L31.6541 86.867L38.2033 83.7524L41.4779 82.714L45.0641 82.3675L48.6506 82.714L49.5862 82.8868L50.5218 83.2331L51.4572 82.8868L55.0435 82.1948L58.63 82.3675L62.2162 83.2331L65.4909 84.7903L69.7009 86.6937L72.1956 87.3861L74.6905 87.5593L77.3413 87.2129L79.6804 86.5209L81.8633 85.1365L79.9922 87.3861L77.8091 88.9435L75.47 90.1546L72.1956 91.0198L68.9213 90.8469L65.8027 89.9814L62.9957 88.4243L60.3452 86.5209L59.0978 85.4826L57.8501 84.6174L56.447 83.9251L54.8876 83.7524H53.7963L53.1724 83.9251L52.7044 84.0983L56.6028 86.5209L60.3452 89.2895L63.9314 92.7504L62.684 94.1347L61.9044 94.8267L58.4739 91.0198L54.7318 87.5593L50.8336 84.7903L48.4945 85.8285L45.2202 88.4243L42.1015 91.5389L39.2949 94.9999L37.1119 92.9233Z" fill="#189BA5"/>
<path d="M55.0435 82.1948L58.6299 82.3679L62.2162 83.2331L65.4907 84.7905L69.7008 86.6939L72.1956 87.3861L74.6905 87.5591L77.3413 87.213L79.6802 86.5209L81.8632 85.1365L79.9921 87.3861L77.8091 88.9435L75.4701 90.1548L72.1956 91.02L68.9212 90.8469L65.8026 89.9817L62.9959 88.4243L60.3451 86.5209L59.0977 85.4826L57.8502 84.6174L56.4469 83.9252L54.8876 83.7522H53.7961L53.1724 83.9252L52.7046 84.0983L56.6028 86.5209L60.3451 89.2895L63.9314 92.7504L62.684 94.1347L61.9044 94.8269L58.474 91.02L54.7317 87.5591L50.8335 84.7905L48.4945 85.8287L45.22 88.4243L42.1015 91.5391L39.2948 94.9999L37.1118 92.9234L40.6981 89.4626L44.4404 86.5209L48.4945 84.0983L46.6234 83.7522L44.9082 84.0983L43.193 84.9635L41.6337 86.0017L40.2303 87.213L36.3321 89.8087L33.8373 90.8469L31.0306 91.3661L28.2239 91.193L25.5731 90.5008L23.2341 89.2895L21.2071 87.7322L19.3359 85.6557L21.5189 86.867L24.0138 87.7322L26.6646 87.9052L29.1594 87.7322L31.6543 86.867L38.2033 83.7522L41.4778 82.714L45.0641 82.3679L48.6505 82.714L49.586 82.887L50.5216 83.2331L51.4572 82.887L55.0435 82.1948Z" fill="#189BA5"/>
</g>
</svg>
