<svg width="114" height="95" viewBox="0 0 114 95" fill="none" xmlns="http://www.w3.org/2000/svg">
<g opacity="0.75">
<path d="M60.2344 8.44434C60.2344 8.44434 46.4965 21.2097 27.0897 21.2097C21.5284 21.2097 16.5121 18.2396 18.9111 11.5105C15.8592 14.975 15.2045 19.5262 15.2045 20.2209C15.2045 20.9115 14.5519 27.4443 27.7427 27.4443C40.9334 27.4443 59.2532 20.1211 65.1421 13.0938L60.2344 8.44434Z" fill="#189BA5"/>
<path d="M34.7432 33.4941V40.1111C46.8842 39.2583 86.8565 25.7145 86.8565 11.1558C86.8565 5.57894 80.788 1.98648 75.676 0C75.676 0 82.2766 3.1202 82.2766 8.41398C82.2766 13.7081 73.2977 26.12 34.7422 33.4941" fill="#189BA5"/>
<path d="M73.9635 35.8889C65.8522 42.0741 45.5249 50.6973 23.6801 50.6973C3.67617 50.6973 1.9465 44.7925 5.65763e-05 42.6356C5.65763e-05 42.6356 -0.216024 55.9445 26.0594 55.9445C52.3352 55.9445 76.0159 44.0421 79.2571 40.2927L73.9635 35.8889Z" fill="#189BA5"/>
<path d="M41.2588 62.8757C59.1822 61.9206 113.2 46.2429 106.653 19C106.653 19 109.658 22.3448 109.658 27.4123C109.658 50.6417 64.2252 69.6667 41.2578 69.6667L41.2588 62.8757Z" fill="#189BA5"/>
<path d="M114.001 53.8333C101.049 83.5274 73.7438 87.9798 64.0586 87.9798V94.9999C94.5278 94.9999 114.001 70.7197 114.001 53.8351" fill="#189BA5"/>
<path d="M85.9347 65.4443C74.5167 71.9372 50.2754 77.8956 28.6256 77.8956C19.0374 77.8956 12.0351 75.166 9.77344 73.3784C9.77344 73.3784 14.728 83.3888 38.3207 83.3888C69.4498 83.3888 90.8892 71.7507 92.2877 69.963L85.9347 65.4443Z" fill="#189BA5"/>
</g>
</svg>
